<?xml version="1.0" encoding="utf-8"?>
<!-- Generator: Adobe Illustrator 26.3.1, SVG Export Plug-In . SVG Version: 6.00 Build 0)  -->
<svg version="1.1" id="Layer_1" xmlns="http://www.w3.org/2000/svg" xmlns:xlink="http://www.w3.org/1999/xlink" x="0px" y="0px"
	 viewBox="0 0 221.18 60" style="enable-background:new 0 0 221.18 60;" xml:space="preserve">
<style type="text/css">
	.st0{fill:#0066CC;}
	.st1{fill:#FFFFFF;}
	.st2{fill:#3399FF;}
	.st3{fill:#FF0000;}
	.st4{fill:#FF0A0A;}
	.st5{fill:#003399;}
	.st6{fill:url(#SVGID_1_);}
	.st7{fill:url(#SVGID_00000062164633777834851410000000965494851901471157_);}
	.st8{fill:url(#SVGID_00000108285029268517707300000007826244249372553661_);}
	.st9{fill:#009933;}
	.st10{fill:url(#SVGID_00000080890503565739765080000002953483391761889712_);}
	.st11{fill:url(#SVGID_00000152229365631779792270000015351905859132232103_);}
	.st12{fill:url(#SVGID_00000176027761028442292310000001870996427711022465_);}
</style>
<g>
	<g>
		<path d="M94.05,36.49c-0.43-2.71,0.32-5.28-1.09-7.48c-0.09-0.14-0.18-0.27-0.27-0.41c-0.9-0.94-1.81-1.89-2.71-2.83
			c-0.35-0.11-1.02,0.21-0.82-0.62c0.05-0.65,0.78-0.73,1-1.27c1.28-3.28,2.11-6.65,1.9-10.2c-0.11-1.82-1.01-3.35-2.28-4.62
			c-0.85-0.84-1.58-2.12-3.2-1.39c-0.21,0.09-0.64-0.37-0.99-0.51c-2.93-1.13-5.87-1.8-8.91-0.38c-0.26,0.12-0.64,0.16-0.92,0.07
			c-3.22-1.05-5.49,0.94-7.95,2.4c-1.76,1.03-2.38,2.55-2.3,4.51c0.03,0.72-0.21,1.38-0.75,1.95c-0.31,0.34-0.7,0.85-0.65,1.24
			c0.21,1.63-0.47,3.06-0.78,4.58c-0.39,1.93-0.76,3.83-1.9,5.48c-0.39,0.57,0.04,1.07,0.04,1.6c0.03,2.25,0.24,4.55-0.5,6.71
			c-0.8,2.34-1.02,4.74-1.2,7.16c0.23,1.24,0.47,2.47,0.7,3.71c0.34,1.02,0.85,1.94,0.82,3.11c-0.03,1.54,1.55,2.28,2.2,3.52
			c0.39,0.74,1.27,0.49,1.93,0.69c1.71,0.53,3.45,0.39,5.19,0.51c0.94,0.07,1.24-0.44,1.68-0.96c0.29-0.63,0.77-0.81,1.41-0.56
			c1.39,0.06,2.68,0.2,3.69-1.28c0.43-0.63,1.42-1.42,2.66-1.1c0.8,0.21,1.43-0.42,2.06-0.96c1.1-0.93,1.89-2.34,3.56-2.44
			c0.33-0.14,0.65-0.27,0.98-0.4c0.24-0.42,0.74-0.46,1.07-0.84c1.07-1.21,1.54-2.91,3.1-3.72c1.23-0.64,2.13-1.49,2.05-3.11
			c-0.04-0.67,0.52-1.36,0.91-2.29c0.15,0.2,0.3,0.38,0.45,0.55v-0.92C94.18,36.16,94.12,36.32,94.05,36.49z M73.33,16.1
			c0.03-0.87,0.29-1.24,1.18-1.4c1.17-0.22,2.27-0.46,3.5-0.19c2.11,0.46,4.35,0.04,6.49,0.79c-1.63,2.22-3.1,4.59-6.05,5.27
			c-0.94,2.24-3.1,1.95-4.9,2.5C73.3,20.67,73.25,18.39,73.33,16.1z M76.87,38.77c-1.69,0.34-3.09,1.81-4.81,2.42
			c-0.37,0.13-0.69,0.41-1.12,0.26c-0.94-2.38,0.39-4.01,1.94-5.52c2.35-2.3,5.32-2.59,8.33-2.17c1.21,0.17,2.26,0.24,3.3-0.44
			c0.11,0.31,0.23,0.53,0.2,0.55C82.2,35.66,80.19,38.1,76.87,38.77z"/>
	</g>
	<g>
		<path d="M132.77,24.81c-0.1-0.62-0.16-1.26-0.18-1.87c-0.41-1.32-0.81-2.65-1.24-3.97c-1.03-3.24-3.54-5.35-6.33-6.65
			c-1.79-0.85-3.96-1.25-5.97-1.83c-0.66-0.19-1.23-0.72-1.99-0.61c-2.62,0.36-5.47,0.19-7.81,1.21c-0.47,0.2-0.94,0.4-1.42,0.59
			c-0.01,0.01-0.02,0.02-0.03,0.02c-1.22,0.5-1.57,1.36-5.27,3.59c-3.7,2.24-4.15,5.94-4.15,5.94s-2.68,6.13-2.74,12.09
			c-0.03,3.14,0.73,6.24,1.46,8.47c0.6,1.1,1.2,2.2,1.7,3.36c0.43,1.02,1.47,1.75,1.74,2.95c0.09,0.39,0.59,0.88,0.99,0.97
			c2.15,0.5,3.88,2.3,6.28,2.02c0.36-0.05,0.69,0.17,1.03,0.42c1.13,0.84,2.34,0.94,3.68,0.28c2.12-1.02,4.16-2.18,6.46-2.86
			c1.22-0.36,2.79-0.44,3.57-1.48c0.94-1.25,2.62-1.65,3.26-3.17c0.21-0.49,0.75-0.72,1.33-0.9c1.31-0.41,2.34-1.31,2.92-2.52
			c0.82-1.74,1.57-3.52,2.33-5.3c0.26-2.21,0.19-4.58,0.19-4.58s0.01-0.06,0.03-0.17C132.72,30.07,133.14,27,132.77,24.81z
			 M123.28,24.88c-0.08,0.22-0.25,0.46-0.22,0.67c0.32,2.04-0.53,3.63-1.84,5.08c-0.32,0.35-0.68,0.76-0.57,1.26
			c0.18,0.9-0.41,1.22-0.97,1.7c-2.08,1.77-3.77,3.96-6.47,4.99c-0.91,0.34-1.67,0.82-2.62,0.5c-2.2,0.51-3.27-0.68-3.92-2.51
			c-0.3-0.83-0.6-1.65-0.91-2.47c-0.36-0.95-0.32-1.82,0.3-2.7c0.98-1.39,1.01-3.19,2.26-4.55c1.85-2.02,3.31-4.38,6.08-5.39
			c1.23-0.44,2.31-0.74,3.64-0.24c1.32,0.5,2.75,0.7,4.07,1.24C123.26,22.92,123.7,23.68,123.28,24.88z"/>
	</g>
	<path d="M31.09,25.63c0.18-0.16,0.43-0.29,0.51-0.5c0.72-1.84,2.01-3.4,2.55-5.35C35,16.74,36.98,14.34,39,12
		c0.32-0.36,0.6-0.71,0.83-1.13c0.94-1.76,2.55-2.66,4.31-3.37c0.57-0.23,1-0.12,1.52,0.25c2.01,1.44,3.69,3.27,4.32,5.57
		c0.66,2.42,1.68,4.62,2.91,6.72c1.34,2.29,1.2,4.9,1.91,7.32c0.79,2.71,0.78,5.59,1.64,8.29c0.4,1.27,0.9,2.46,0.76,3.9
		c-0.13,1.29,1.08,2.25,1.53,3.44c-0.25,1.14,0.49,2.21,0.22,3.36c-0.41,0.58-0.75,1.22-1.24,1.72c-1.05,1.07-2.1,2.28-3.87,1.35
		c-0.07-0.04-0.16-0.03-0.23-0.05c-1.21-0.21-2.73,0.37-3.56-0.84c-1.22-1.76-2.41-3.6-2.67-5.82c-0.34-2.93-0.32-2.88-3.22-2.59
		c-2,0.2-3.87,0.65-5.5,1.88c-0.97,0.29-1.93,0.59-2.9,0.88c-1.53,0.26-2.38,1.13-2.41,2.71c-0.01,0.4,0.1,0.92-0.28,1.08
		c-1.67,0.7-2.54,2.24-3.79,3.37c-0.76,0.68-2.4,1.08-3.56,0.26c-1.39-0.98-2.09-2.47-2.07-4.18c0.02-1.15,0.19-2.31,0.42-3.44
		c0.15-0.77,0.52-1.49-0.07-2.24c-0.3-0.38-0.06-0.71,0.23-1.03c1.65-1.84,3.05-3.79,3.58-6.31c0.2-0.96,1.83-1.36,1.33-2.76
		c1.55-0.71,0.79-2.41,1.51-3.48C31.2,26.61,31.17,26.13,31.09,25.63z M44.5,22.31c-1.28,3.04-4.29,4.97-4.77,8.76
		C43.59,29.17,47.24,27.58,44.5,22.31z"/>
	<path d="M164.29,17.47c-0.39,0.43-0.45,0.94-0.36,1.49c-0.38,1.8,0.36,3.56,0.09,5.38c-0.3,1.97-0.36,3.99-0.32,5.99
		c0.03,1.2,0.42,2.4,0.16,3.63c-0.09,0.39,0.01,0.93-0.22,1.14c-1.67,1.52-1.19,3.61-1.57,5.47c-0.28,0.24-0.55,0.48-0.83,0.71
		c0.3,1.18,0.02,2.35-0.03,3.52c-0.03,0.56-0.18,1.09-0.67,1.47c-2.9,2.22-5.98,4.16-9.32,5.65c-0.62-0.59-1.32-0.7-2.1-0.37
		c-1.47-0.39-2.74-1.46-4.38-1.29c-0.17-0.02-0.33-0.04-0.5-0.05c-0.17-0.15-0.33-0.41-0.52-0.44c-1.55-0.26-2.72-0.85-4-2.01
		c-2.17-1.95-3.56-4.28-4.57-6.81c-0.55-1.38-1.11-3.01-0.6-4.69c0.19-0.64,0.17-1.22-0.09-1.67c-0.09-2.07-0.18-5.59,0.14-7.66
		c0.42-2.82-0.21-4.89,0.32-6.87c0.23-0.68,0.47-1.36,0.73-2.03c0.51-1.33,1.23-2.58,1.85-3.87c0.21-0.44,0.49-0.81,0.88-1.11
		c1.63-1.22,2.66-1.03,3.69,0.75c1.22,2.13,1.49,4.61,1.36,6.87c-0.12,2.15,0.22,4.43-0.75,6.57c-0.31,0.66-0.09,1.8,0.3,2.5
		c0.85,1.49,0.64,3.07,0.79,4.63c0.16,1.57,0.19,3.12,0.88,4.63c0.46,0.99,0.82,1.68,2.01,1.58c0.22-0.02,0.45,0.11,0.68,0.14
		c3.36,0.47,3.27,0.42,5.07-2.71c1.42-2.46,2.06-5.04,2.03-7.84c0-0.24-0.08-0.54,0.03-0.7c1.6-2.12,0.48-4.43,0.49-6.65
		c0.03-0.33,0.05-0.66,0.07-0.99c0.62-1.95,0.68-3.99,0.82-5.98c0.09-1.26,0.52-2.48,0.39-3.76c-0.14-1.33,1.17-1.43,1.87-1.89
		c1.64-1.07,3.18-0.69,4.31,0.87c0.89,1.23,1.63,2.55,1.98,4.05C164.36,15.9,164.33,16.69,164.29,17.47z"/>
	<path d="M185.54,23.28c0.37,1.6,0.37,3.2-0.05,4.79c-0.14,0.32-0.29,0.65-0.43,0.97c-0.13,0.08-0.37,0.16-0.38,0.25
		c-0.16,3.95-2.83,7.36-2.36,11.47c0.12,1.03-0.96,1.97-0.76,3.15c0.12,0.66-0.07,1.33-0.05,2.01c0.05,1.44-0.17,3.01-1.86,3.76
		c-0.64,0.29-1.18,0.78-1.77,1.18c-0.34-0.17-0.69-0.34-1.03-0.52c-3.46-0.37-4.7-2.97-5.68-5.76c-0.55-1.57-0.72-3.19,0.15-4.74
		c0.78-1.39,0.26-2.95,0.43-4.41c0.32-2.75,1.3-5.29,1.98-7.92c0.29-1.11-0.24-2.41,0.81-3.36c0.2-0.18-0.1-0.61-0.38-0.76
		c-0.56-0.3-1.22-0.82-1.77-0.54c-1.58,0.79-2.78-0.54-4.2-0.6c-0.83-0.04-1.38-0.7-1.8-1.39c-0.49-0.8-0.95-1.61-1.42-2.42
		c-0.05-0.3-0.09-0.61-0.14-0.91c0.04-0.79,0.08-1.57,0.12-2.36c0.77-0.79,1.51-1.6,2.7-1.78c2.13-0.32,4.05-1.23,6.05-1.95
		c0.99-0.36,2.08-1.25,3.38-0.39c0.51,0.34,1.27-0.21,1.76-0.54c0.85-0.59,1.74-0.95,2.71-1.31c1-0.37,1.65-0.17,2.61,0.04
		c1.99,0.44,4.11,0.19,6.12-0.23c3.27-0.69,5.5,0.81,6.37,3.2c0.43,1.19,0.93,2.42,0.84,3.67c-0.1,1.54-0.21,3.24-2.28,3.67
		c-0.44,0.09-0.98,0.33-1.23,0.68c-1.35,1.93-3.37,1.83-5.21,1.46c-1.32-0.26-2.05,0.04-2.72,1.02
		C185.38,22.43,185.49,22.89,185.54,23.28z"/>
</g>
</svg>
