<?xml version="1.0" encoding="utf-8"?>
<!-- Generator: Adobe Illustrator 26.3.1, SVG Export Plug-In . SVG Version: 6.00 Build 0)  -->
<svg version="1.1" id="Layer_1" xmlns="http://www.w3.org/2000/svg" xmlns:xlink="http://www.w3.org/1999/xlink" x="0px" y="0px"
	 viewBox="0 0 221.18 60" style="enable-background:new 0 0 221.18 60;" xml:space="preserve">
<style type="text/css">
	.st0{fill:#0066CC;}
	.st1{fill:#FFFFFF;}
	.st2{fill:#3399FF;}
	.st3{fill:#FF0000;}
	.st4{fill:#FF0A0A;}
	.st5{fill:#003399;}
	.st6{fill:url(#SVGID_1_);}
	.st7{fill:url(#SVGID_00000077299471537477703650000007620442856832592055_);}
	.st8{fill:url(#SVGID_00000047752901897216652190000002563623117110182325_);}
	.st9{fill:#009933;}
	.st10{fill:url(#SVGID_00000018952176262706807500000013822095446634299796_);}
	.st11{fill:url(#SVGID_00000083073616798239091650000013841336032789575044_);}
	.st12{fill:url(#SVGID_00000173867521797211824100000002233348403504161214_);}
</style>
<g>
	<path d="M138.23,55.18c-4.41,0.27-8.67-1.74-11.5-5.15c-0.78-0.94-1.51-1.93-2.26-2.9c-0.39-0.51-0.53-1.22-0.61-1.72
		c-0.32-1.96-1.78-3.61-1.51-5.7c0.06-1.76,0.38-1.4,0.45-2.18c0.27-2.97,1.62-5.62,2.89-8.28c0.23-0.48,0.61-0.74,1.02-0.95
		c0.85-0.43,1.72-0.8,2.59-1.2c3.19-1.48,5.4,0.09,5.57,3.6c0.09,1.93,0.01,3.4-1.99,4.19c-0.37,0.15-0.62,0.57-0.59,0.98
		c0.08,1.05-0.61,1.79-0.96,2.67c-0.85,2.11,0.2,4.9,2.36,5.36c2.52,0.53,5.12,0.88,7.69,0.08c0.46-0.14,0.98-0.18,1.22-0.66
		c0.51-0.99,1.15-1.63,2.32-2.02c1.19-0.4,1.48-2.7,1.02-4.08c-0.94-2.83-1.88-5.68-1.49-8.75c0.31-2.43,2.8-3.81,4.88-2.67
		c0.2,0.11,0.43,0.29,0.49,0.49c0.78,2.26,2.76,4.05,2.61,6.65c-0.09,1.52,1.74,2.4,0.89,4.19c1.42-0.32,2.43-0.35,3.38-1.19
		c0.64-0.57,1.05-0.95,1.34-1.84c0.49-1.54,1.57-2.88,2.2-4.38c1.28-3.02,4.01-4.02,6.71-5.17c1.28-0.54,2.61-0.99,3.81-1.63
		c0.88-0.48,1.72-0.42,2.47-0.19c3.41,1.02,6,2.9,7.69,6.3c1.97,3.98,1.56,7.85,0.32,11.73c-0.57,1.78-2.28,2.95-3.85,4.01
		c-0.38,0.26-0.93,0.34-1.19,0.68c-2.04,2.64-5.03,2.11-7.76,2.32c-1.14,0.09-2.34-0.06-3.45-0.49c-0.26-0.32-0.6-0.4-0.99-0.34
		c-1.44,0.03-2.2-0.77-2.86-1.99c-0.75-1.4-1.42-1.69-2.54-0.78c-1.6,1.3-3.3,1.16-5.08,1.11c-0.71-0.02-1.47-0.11-1.73,0.83
		c-0.76,2.76-3.12,4.17-5.04,5.96c-0.49,0.42-1.33,0.11-1.68,0.81c-0.62,0.24-1.28,0.05-1.93,0.63c-0.96,0.86-2.23,1.37-3.57,1.52
		c0,0-0.01,0-0.01,0C139.14,55.1,138.69,55.15,138.23,55.18z M171.54,37.7c0.65,0.16,2.93-1.34,3.04-2.18
		c0.11-0.82,0.38-1.32,1.12-1.62c0.54-0.22,0.41-0.65,0.15-0.96c-0.36-0.42-0.79-0.78-1.22-1.14c-2.85-2.36-4.84-1.91-6.41,1.44
		c-1.31,2.8-0.84,3.78,2.14,4.44C170.74,37.77,171.15,37.7,171.54,37.7z"/>
	<path d="M62.82,44.04c0.12,1.21-0.39,2.37-1.48,3.09c-1,0.65-2.04,1.22-3.09,1.79c-1.24,0.69-2.69,0.58-3.52-0.47
		c-0.64-0.8-1.58-1.3-2.03-2.29c-0.97-2.14-0.04-3.72,1.41-5.12c0.1-0.1,0.18-0.19,0.24-0.28c0.62-0.48,2.03-1.43,3.9-1.87
		c1.19-0.28,2.44,0.18,3.19,1.15c0,0.01,0.01,0.01,0.01,0.02C62.35,41.21,62.69,42.64,62.82,44.04z"/>
	<path d="M63.93,20.29c-0.89,0.96-1.96,1.25-3.15,0.83c-1.19-0.43-1.46-1.33-1.29-2.47c0.04-0.21-0.08-0.45-0.13-0.67
		c-0.26-0.72-0.74-0.89-1.41-0.53c-3.68-0.08-7.04,0.88-9.99,3.22c0.48,1.03,1.65,1.17,2.57,1.08c1.87-0.2,3.37,0.43,4.74,1.52
		c0.41,0.32,0.82,0.5,1.27,0.56c2.66,0.37,3.78,2.56,5.27,4.36c1.62,1.95,0.4,4.96-1.22,7.36c-0.5,0.74-0.8,1.12-1.32,1.87
		l-0.35,0.36c0,0-0.95,0.87-4.96,1.77h-0.01c-0.6,0-1.09,0.37-1.61,0.59c-1.99,0.81-4.78,0.3-5.6-1.45
		c-0.64-1.37-0.91-3.15-0.3-4.62c0.53-1.28,1.97-1.88,3.31-2.14c1.74-0.33,3.54-0.4,5.32-0.58c0.31,0.04,0.72,0.2,0.52-0.41
		c-0.16-1.45-1.28-1.6-2.31-1.45c-3.34,0.48-6.11-0.76-8.72-2.64c-0.18-0.13-0.39-0.36-0.57-0.35c-2.59,0.21-3.67-1.81-4.35-3.58
		c-0.4-1.01-1.39-2.59-0.07-3.93c0.23-0.23,0.26-0.78,0.2-1.15c-0.23-1.42,0.69-2.06,1.7-2.64c0.89-0.51,1.79-1,2.69-1.5
		c1.1-0.6,2.26-1.08,3.46-1.43c0.74-0.21,1.65-0.51,2.56-0.9c2.85-1.19,5.99-1.43,9.06-1.11c1.22,0.12,2.33,1.13,3.54,1.59
		c1.56,0.61,1.44,2.06,1.94,3.27C65.55,17.09,65.36,18.74,63.93,20.29z"/>
	<path d="M79.7,48.1c-0.79,0.06-1.59,0.15-2.38,0.16c-3.81,0.06-6.89-2.23-8.32-5.88c-0.57-1.46-1.38-2.79-1.62-4.41
		c-0.22-1.51-0.42-2.9,0-4.46c0.48-1.78-0.23-3.63-0.38-5.45c-0.11-1.25-0.24-2.42,0.18-3.73c0.65-1.98,0.41-4.11,0.09-6.16
		c-0.14-0.88-0.24-1.74-0.17-2.61c0.07-0.83-0.1-1.66,0.75-2.35c1.22-0.98,2.64-1.36,4.07-1.75c0.19-0.05,0.52,0.31,0.76,0.51
		c0.74,0.64,1.29,1.43,1.53,2.37c0.8,3.19,1.6,6.38,0.85,9.7c-0.23,1.02-0.27,2.05-0.17,3.09c0.22,2.29,0.42,4.58-0.01,6.86
		c-0.12,0.65,0,1.27,0.08,1.9c0.16,1.21,0.79,1.8,2.08,1.73c1.11-0.06,2.22,0,3.33,0.07c0.9,0.06,1.77-0.04,2.56-0.43
		c0.71-0.35,1.26-0.63,0.71-1.78c-0.62-1.29-1.3-2.65-1.29-4.19c0.01-1.24,0.06-2.56,1.36-3.03c1.27-0.46,2.66-0.49,3.86,0.46
		c1.76,1.4,2.68,3.36,3.82,5.24c1.83,3.01,0.39,6.04,0.55,9.04c0.03,0.48-0.43,1.22-1.18,1.31c-0.63,0.08-1.02,0.5-1.33,0.94
		c-1.95,2.78-4.75,3.16-7.82,2.9c-0.63-0.05-1.27-0.01-1.91-0.01C79.71,48.13,79.71,48.11,79.7,48.1z"/>
	<path d="M99.44,21.91c1.01-0.51,2.8-1.39,4.07-1.86c0.56-0.21,1.19,0.02,1.47,0.54c1.93,3.53,3.05,7.13,3.8,10.9
		c0.39,1.93,0.87,3.82,1.11,5.79c0.37,2.92-1.16,5.14-2.4,7.49c-0.28,0.53-0.75,0.62-1.39,0.65c-2.49,0.13-4.23-1.13-4.89-3.56
		c-0.38-1.41-0.97-2.76-1.43-4.15c-0.67-1.99,0.2-4-0.08-6.02c-0.22-1.49,0.26-3.07-0.81-4.46c-0.42-0.54,0.06-1.38,0.19-1.92
		l-0.3-2.13C98.71,22.65,98.98,22.15,99.44,21.91z"/>
	<path d="M110.01,16.42c-2.13,0.52-3.41,1.11-6.08,2.35c-2.14,1.41-5.98,2.89-8.38,3.74c-0.01,0.01-0.02,0.01-0.03,0.01
		c-2.28,0.49-3.29-0.38-3.35-2.8c-0.04-1.84-0.12-3.61,2.18-4.29c0.53-0.16,0.7-0.75,0.63-1.38c-0.13-1.03-0.19-2.07-0.27-3.1
		c-0.31-4.32,3.33-6.83,6.79-6c1.4,0.33,2.31,1.28,3.28,2.13c0.74,0.64,0.39,1.78-0.58,2.11c-0.59,0.21-1.21,0.34-1.78,0.62
		c-0.87,0.41-1.1,1.33-0.35,1.73c0.57,0.3,1.12,0.89,1.97,0.54c1.56-0.64,3.28-0.42,4.92-0.76c1.85-0.39,2.79,0.1,3.14,1.27
		C112.47,13.84,111.4,16.07,110.01,16.42z"/>
	<path d="M80.79,26.16c-2.28,0.44-3.74-1.04-4.16-3.59c-0.51-3.14,1.48-4.81,3.34-6.57c0.83-0.79,2.96-0.42,3.9,0.39
		c1.5,1.31,2.24,3.12,3.21,4.79c0.24,0.42,0.06,0.9-0.1,1.38C86.12,25.11,84.34,26.17,80.79,26.16z"/>
	<path d="M137.67,16.54c2.91,0.02,5.18,2.18,5.16,4.91c-0.01,1.65-2.33,4.4-3.74,4.28c-4.28-0.37-5.76-0.84-5.84-5.2
		C133.19,17.99,134.9,16.52,137.67,16.54z"/>
</g>
</svg>
