<?xml version="1.0" encoding="UTF-8"?><svg id="Layer_1" xmlns="http://www.w3.org/2000/svg" viewBox="0 0 221.18 60"><path d="M105.89,40.16c.47,.92,.8,2.06,.75,3.37v.05c-.12,2.49-1.38,4.78-3.35,6.31-1.13,.87-2.21,1.81-3.38,2.62-.34,0-.68,.01-1.03,.01-1.36,.36-2.49-.72-3.81-.61-.78-.55-1.31,.13-1.92,.4-1.76,.18-3.67-.04-5.1-.68-2.11-.94-4.65-1.49-6.05-3.64-.95-1.47-2.08-2.9-2.29-4.75-.18-.81-.36-1.62-.54-2.42,.42-1.55-.78-2.78-.83-4.28-.07-2.15,.01-4.22,.87-6.2,.18-.42,.32-.85,.38-1.3,.21-1.59,.51-3.19,1.8-4.31,.38-.32,.72-.58,.73-1.12,.02-1.24,.9-2,1.66-2.79,.25-.26,.76-.32,.73-.79-.08-1.69,.99-2.17,2.36-2.65,1.02-.35,2.05-1.03,2.73-1.86,1.64-2,3.81-1.99,5.87-1.53,4.82,1.06,6.53,5.97,5.44,9.27-.2,.59-.47,1.19-.86,1.66-.88,1.1-1.92,1.24-2.99,.31-1.1-.95-1.91-1.05-2.98,.1-.45,.48-1.14,.85-1.55,1.42-.96,1.33-1.87,2.7-2.78,4.06-1.09,1.63-.79,3.67-1.57,5.35-.54,1.16-.12,1.98,.45,2.85,.31,.46,.69,.81,1.31,.95,.98,.22,1.91,.69,2.9,.87,.68,.12,1.41,.47,2.08-.48,.69-.98,2.09-.42,3.14-.71,.55-.15,1.04-.18,1.63-.5,2.17-1.2,4.6-.68,6.2,1.02Z"/><path d="M136.82,35.56c.08,1.89,.4,3.76-.3,5.64-.27,.7-.04,1.57-.09,2.37-.1,1.93-.75,3.47-2.31,4.86-1.42,1.26-2.69,.25-4,.42-1.1,.15-1.61-.86-2.15-1.62-1.47-2.08-1.68-4.47-1.69-6.91,0-1.11-.06-2.23-.12-3.34-.04-.77-.38-1.09-1.24-1.02-1.06,.09-2.12-.01-3.19-.26-1.34-.32-2.49,.51-2.79,1.92-.48,2.24-.37,4.53-.44,6.8-.04,1.11-.11,2.29,.05,3.32,.42,2.67-1.61,3.43-3.17,4.42-1.36,.87-4.31,.11-5.5-1.16-.64-.69-1.21-2.14-2.19-2.48-.4-.15-.13-.73-.24-1.1,.02-.15,.08-.32,.04-.44-.01-.02-.01-.03-.01-.05,.13-2.33,.31-8.88,1.2-12.26,.14-.14,.77-3.15,.74-3.45,.04-.22,.07-.44,.11-.67,.54-3.39,.78-6.81,.99-10.24,.13-2.11,.79-4.09,2.19-5.78,1.15-1.39,2.6-1.89,4.29-1.29,.33,.12,.54,.28,.68,.6,.84,1.78,1.59,3.53,1.61,5.59,.02,2.25,.44,4.5,.69,6.75,.06,.58,.39,.84,.96,.78,1.65-.19,3.17-.82,4.71-1.36,.32-.11,.55-.37,.56-.72,.03-1.19,.72-2.29,.83-3.35,.22-2.21,1.12-4.28,1.17-6.51,.03-1.04,.59-1.73,1.6-2.01,1.12-.3,1.9-1.28,3.45-.7,1.8,.68,2.6,1.71,3.1,3.41,.96,3.35,.55,6.75,.53,10.13-.02,1.88,.17,3.82-.56,5.66-.36,.89,.08,1.71,.4,2.53-.18,.52-.26,1.03,.09,1.52Z"/><path d="M78.97,43.3c.08,1.17,.14,2.3-.23,3.5-.89,2.92-5.63,3.9-7.54,1.42-.47-.61-.85-1.17-1.62-1.51-1.02-.46-2.15-.94-2.51-2.23-.06-.2-.29-.4-.49-.51-2.86-1.62-4.26-4.76-6.84-6.66-.21-.34-.51-.49-.88-.31-.21,.11-.16,.35-.07,.54,.57,2.53-.65,5.05-.01,7.58,.03,.67,.06,1.34,.09,2.01,.15,2.72-2.14,3.27-3.89,4.02-.79,.33-2.22-.06-2.99-.63-3.42-2.54-5.4-5.87-4.87-10.32,.1-.83,.51-1.7,.6-2.4,.29-2.15,.77-4.29,.93-6.46-.04-.22-.07-.44-.11-.65,.34-.75,.23-1.55,.28-2.34,.11-1.6-.33-3.29,.94-4.74,.57-.66,.27-1.72,.12-2.56-.47-2.59,.28-5.11,.81-7.52,.56-2.53,2.6-4.31,5.16-5.28,2.43-.92,4.9-1.69,7.52-1.48,1.15,.09,2.33,.21,3.41,.79,.47,.25,1.07,.38,1.6,.36,1.89-.08,3.25,.9,4.59,2.04,2.39,2.03,3.79,4.42,3.91,7.72,.15,4-1.46,7.18-3.73,10.18-1.22,1.6-2.42,3.29-4.5,3.99,.84,1.63,2.61,1.98,3.82,3.01,.54,.46,1.37,.72,1.87,1.45,.75,1.1,1.4,2.32,2.73,2.87,.8,.33,.46,1.32,1.04,1.77,.28,.79,.55,1.58,.83,2.37Zm-19.24-20.38c.22,.58,.06,1.24,.65,1.54,.6,.31,1.07,.04,1.42-.48,.29-.44,.79-.72,1.21-.66,1.5,.21,2.22-.98,2.72-1.85,.57-1,1.17-1.51,2.21-1.82,.48-.14,1.18-.56,1.08-1.12-.12-.63-.42-1.35-1.25-1.57-2.37-.61-4.82-.34-7.22-.61-.92-.1-1.28,.38-1.06,1.31,.42,1.76,1.13,3.5,.25,5.25Z"/><path d="M34.53,44.21v-4.41c-1.35,.07-2.53,.42-3.69,.92-1.01,.44-2.02,.89-3.13,1.06-1.43,.23-2.66,1.28-3.1,2.33-.67,1.56-1.69,2.3-3.07,2.87-.3,.12-.66,.21-.74,.55-.41,1.82-2.3,2.49-3.09,4.08-.5,1.01-1.61,1.95-3.14,1.36-.5-.19-1.1-.1-1.65-.16-1.7-.18-2.8-1.37-2.67-3.11,.08-1.14,.25-2.32,.63-3.39,.47-1.29,1.38-2.4,1.74-3.75,.25-.91,1.61-.35,1.76-1.36,.11-.77-.1-1.59,.46-2.29,.23-.28,.09-.89,.56-.97,1.7-.28,2-1.64,2.36-2.96,.16-.57,.5-.98,.97-1.31,.81-.57,1.47-1.7,1.39-2.32-.38-2.65,2.15-3.57,2.96-5.49,.48-1.13,.91-2.44,2.19-3.14,.24-.13,.11-.9,.17-1.38,.06-.55,.03-1.12,.84-1.19,.46-.04,.71-.45,.68-.85-.16-2.06,1.46-3.07,2.68-4.13,1.05-.92,1.97-1.78,2.16-3.16,.08-.6,.42-.8,.81-1.01,1.89-1.01,3.68-2.13,6.09-1.38,1.28,.4,2.13,.87,2.53,2.13,.66,2.11,1.63,4.18,.76,6.47-.05,.14-.07,.32-.04,.47,.88,3.72,.76,7.57,1.36,11.32,.09,.54,.35,1.05,.2,1.61-.33,1.23,.02,2.4,.41,3.51,.63,1.79,.82,3.54,.11,5.33-.15,.38-.22,.67-.04,1.09,.74,1.76,.82,3.57,.86,5.49,.03,1.5-.33,2.48-1.03,3.65-.48,.8-.97,1.17-1.84,1.18-.4,0-.8,.07-1.19,.08-.91,.02-1.82,.74-2.74,0-1.1-.9-2.11-1.86-2.48-3.3-.3-1.16-.58-2.32-.86-3.47,.25-.37,.13-.68-.15-.97Zm-5.15-11.34c1.75,1.29,2.88,.67,3.96,.62,.69-.03,1.1-.5,1.3-1.19,.61-2.08,.26-6.02-.86-8.6-1.96,2.89-1.62,4.99-4.4,9.17Z"/><path d="M203.1,10.47c1.56,.21,3.06,.71,4.62,.94,1.4,.2,3.14,2.24,3.22,3.36,.13,1.9-.84,2.92-2.7,4.01-2.2,1.29-4.48,1.62-6.92,1.5-.16,0-.43-.09-.46-.03-1.25,2.32-4.53,1.11-5.84,3.41-.39,.68-1.37,.17-2.01,.5-.49,.2-1.36-.16-1.27,.88-.03,.76-.58,1.74,.27,2.18,.81,.42,1.87,.49,2.67-.25,.99-.91,2.3-.78,3.33-.63,1.13,.16,2.24,.47,3.42,.55,2.25,.16,3.3,2.24,2.28,4.27-.38,.76-.88,1.47-1.35,2.19-.21,.32-.39,.78-.84,.76-1.88-.06-3.01,1.62-4.69,2.01-.49,.12-1.08-.03-1.44,.47-1.75-.4-3.12,1.01-4.8,1.05-.44,.01-.95,.71-.96,1.26-.02,1.3-.65,2.42-1.11,3.56,.92,.54,1.67,.47,2.45,.21,3.36-1.15,6.81-1.81,10.38-1.67,.47,.02,1.05,.05,1.41-.18,1.5-.95,2.53-.05,3.6,.77,.25,.19,.43,.48,.69,.65,2.82,1.91,2.08,4.01-.19,6.2-.8,.77-1.7,1.17-2.91,1.15-1.38-.03-2.6,.9-4.03,1.08-.84,.1-1.77,.42-2.56,.34-1.93-.19-3.69,.06-5.48,.81-.77,.33-1.62,.48-2.66,.18-1.27-.38-2.74,.32-4.15,.36-2.23,.06-4.22-1.13-4.41-3.22-.35-4-.86-8.03,.46-12,.51-1.53,.24-3.17,.4-4.76,.03-.32,.07-.66-.02-.95-.4-1.25,1.24-1.68,1.1-2.99-.1-.96-.24-2.27,.81-3.09,.36-.28,.36-.7,.35-1.09-.05-2.73,.75-5.38,.83-8.08,.07-2.36,1.58-3.21,3.29-4.03,.84-.4,1.84-.41,2.57-1.12,.55-.54,1.16-.28,1.75,.03,1.18,.63,2.34,.78,3.65,.24,.78-.32,1.82-.5,2.58-.25,1.53,.51,2.55-.25,3.67-.95,.27,.27,.55,.52,.99,.36Z"/><path d="M181.28,16.27c-.54-1.63-1.19-3.23-1.85-4.83-.1-.25-.43-.46-.7-.58-2.75-1.24-5.15-.11-6.1,2.82-.16,.5,0,1.1-.6,1.46-1.09,.66-1.28,1.69-1.17,2.9,.06,.69,.09,1.44-.26,2.11,.06,.35,.12,.71-.15,1.01-.03,.24-.02,.49-.09,.71-.55,1.63-2.02,2.87-2.08,4.67-.03,.87-.56,1.48-1.09,2.09-.04,.35-.04,.66,0,.9,.24,1.44-3.05,7.2-3.04,5.94,0-.84-.15-2.61-.25-3.69-.08-.22-.08-.49-.08-.75,0-.1-.01-.15-.01-.15,0-.08,0-.16-.01-.24-.17-1.33-.32-2.66-.95-3.91-.34-.69-.6-1.52-.59-2.29,.02-3.92-2.3-6.79-4.23-9.86-.75-1.21-1.89-.71-2.81-.52-.74,.14-1.84,.41-1.86,1.46-.05,1.9-.7,3.74-.35,5.7,.71,3.99,1.47,7.98,1.71,12.05,.13,2.2,.23,4.48,1.22,6.51,.48,.99,.61,1.95,.57,2.98,.07,.34,.14,.67,.21,1.01,.85,2.39,2.05,4.54,3.98,6.27,1.61,1.44,5.34,1.95,6.88,.49,1.5-1.42,3.49-2.45,4.13-4.66,.11-.37,.47-.66,.58-1.02,.36-1.12,1.43-1.93,1.46-3.15,.03-1.33,.59-2.41,1.24-3.52,1.38-2.36,2.53-4.86,3.32-7.48,.68-2.26,1.08-4.61,1.6-6.92,.03-.15,.04-.32,.03-.48-.16-1.47,.23-2.83,1-4.05,.61-.97,.66-1.98,.34-2.98Z"/><path d="M140.09,35.64c-.07-1.7,.02-3.1,.81-4.53,.49-.87,.3-2.17,.26-3.27-.04-1.07,.11-2.13-.11-3.25-.14-.69,.59-1.87,.62-2.87,.04-1.46,.38-2.83,.75-4.23,.34-1.29,.89-2.56,1.7-3.51,1.29-1.53,4.12-1.19,5.4,.4,.66,.81,1.15,1.7,1.24,2.78,.14,1.62,.43,3.22,.08,4.85-.08,.38-.04,.8,.03,1.19,.75,3.87-.55,7.68-.4,11.53,.03,.79-.34,1.7-.55,2.54-.27,1.04-.2,2.05-.09,3.08,.09,.83,.53,1.66-.31,2.44-.41,.38-.09,1.02-.03,1.58,.21,2,1.03,3.99,.22,6.03-.64,1.6-2.47,2.87-4.22,2.9-2.22,.04-3.48-.76-4.39-2.74-.42-.91-1.13-1.69-1.23-2.73-.31-3.25-.96-6.5-.02-9.77,.24-.83,.18-1.74,.24-2.41Z"/><path d="M109.53,30.55c.02,.19-.01,.41-.11,.67,.04-.22,.07-.44,.11-.67Z"/></svg>