<?xml version="1.0" encoding="utf-8"?>
<!-- Generator: Adobe Illustrator 26.3.1, SVG Export Plug-In . SVG Version: 6.00 Build 0)  -->
<svg version="1.1" id="Layer_1" xmlns="http://www.w3.org/2000/svg" xmlns:xlink="http://www.w3.org/1999/xlink" x="0px" y="0px"
	 viewBox="0 0 221.18 60" style="enable-background:new 0 0 221.18 60;" xml:space="preserve">
<style type="text/css">
	.st0{fill:#0066CC;}
	.st1{fill:#FFFFFF;}
	.st2{fill:#3399FF;}
	.st3{fill:#FF0000;}
	.st4{fill:#FF0A0A;}
	.st5{fill:#003399;}
	.st6{fill:url(#SVGID_1_);}
	.st7{fill:url(#SVGID_00000017494415882088826180000010388549362465273495_);}
	.st8{fill:url(#SVGID_00000065796116611276313350000004409398723767802526_);}
	.st9{fill:#009933;}
	.st10{fill:url(#SVGID_00000024713579455264363950000018120873922312157370_);}
	.st11{fill:url(#SVGID_00000078022631935018039320000014503492466830333349_);}
	.st12{fill:url(#SVGID_00000106855065018040863180000001165137393866817674_);}
</style>
<g>
	<path d="M83.24,26.73c0.87-2.23,2.86-3.95,2.89-6.58c0.01-0.98,1.21-1.34,1.98-1.79c0.54-0.31,1.19-0.34,1.11-1.22
		c-0.02-0.25,0.19-0.65,0.42-0.8c1.94-1.29,2.93-3.62,5.08-4.69c0.14-0.07,0.23-0.21,0.35-0.32c0.74-0.19,1.66,0.22,2.22-0.63
		c0.7-0.04,1.43-0.27,1.91,0.54c1.39,2.32,3.6,4.19,3.88,7.12c0.07,0.69,0.49,0.96,1.13,0.95c0.7-0.02,1.01-0.46,0.94-1.1
		c-0.12-1.2,0.34-1.88,1.32-2.7c0.74-0.61,1.45-1.61,2.05-2.53c0.66-1,1.47-1.7,2.95-1.51c1.07,0.14,1.98-0.94,3.23-0.99
		c1.81-0.06,3.2,0.49,4.03,2.03c1.74,3.23,2.88,6.5,2.44,10.33c-0.15,1.33,0,3,0.61,4.42c0.03,0.51,0.06,1.03,0.08,1.54
		c0.19,4.59-0.27,9.2,0.6,13.76c0.35,1.82-0.01,3.57-0.56,5.32c-0.38,1.19-1.61,1.33-2.32,2.08c-0.65,0.13-1.31,0.25-1.96,0.38
		c-1.18-0.64-2.35-1.28-3.53-1.92c-0.92-0.5-1.17-1.33-1.25-2.31c-0.25-3.15-1.31-6.26-0.48-9.46c-1.34-2.75,0.69-5.66-0.39-8.43
		c0.03-0.37-0.01-0.91-0.36-0.91c-0.53,0-0.61,0.55-0.58,1.02c-0.18,0.16-0.48,0.29-0.52,0.48c-0.45,2.04-2.16,3.51-2.6,5.51
		c-0.46,2.08-1.19,4.11-2.4,5.74c-1.35,1.82-2.56,3.71-3.8,5.58c-0.45,0.68-1.46,0.15-1.84,0.92c-0.34,0.09-0.68,0.19-1.02,0.28
		c-0.11-0.12-0.19-0.29-0.32-0.34c-4.19-1.7-5.16-5.13-4.92-9.2c0.06-0.93,0.05-1.84-0.09-2.76c0-0.17,0-0.34,0-0.51
		c0.18-0.02,0.25-0.12,0.2-0.29c0.64-0.71,0.44-1.5,0.28-2.64c-0.48,0.73-0.48,1.24-0.46,1.76c-2.04,1.43-3.52,3.28-4.31,5.66
		c-0.72,2.17-1.46,4.33-2.09,6.53c-0.22,0.75-0.43,1.24-1.25,1.52c-0.88,0.31-1.66,0.91-2.49,1.38c-1.35,0.76-2.64,0.63-3.87-0.27
		c-2.28-1.66-2.92-3.94-2.5-6.61c0.04-0.22,0.1-0.5,0.25-0.64c1.54-1.48,1.46-3.8,2.8-5.41L83.24,26.73z"/>
	<path d="M173.9,39.98c0.01,0.6-0.59,0.64-0.97,0.91c-1.07,0.73-2.25,1.18-3.05,2.43c-0.57,0.88-2.01,1.27-3.12,1.71
		c-0.84,0.33-1.68,0.45-1.81,1.57c-0.04,0.36-0.4,0.86-0.81,0.75c-1.5-0.4-2.9,1.06-4.39,0.2c-0.32-0.19-0.59-0.04-0.89,0.09
		c-2.44,1.08-3.36,0.96-6,0.03c-1.14-0.41-2.45-0.13-3.65-0.69c-2.23-1.05-4.01-2.53-5.7-4.35c-1.87-2.01-2.68-4.52-4.01-6.77
		c-0.5-0.83,0.18-1.89-0.4-2.75c0.1-0.28,0.13-0.56,0.03-0.83c0.24-5.24,0.74-7.47,1.09-8.33c0.3-0.72,0.44-2.63,1.52-4.82
		c1.08-0.99,2.16-1.96,2.84-3.29c0.47-0.91,1.16-1.37,2.16-1.64c1.96-0.53,3.69-1.54,5-3.16c0.77-0.64,2.01,0.22,2.66-0.81
		c0.95-0.64,2.04-1.2,3.03-1.55c1.28-0.46,2.93-0.22,4.34,0.08c0.74,0.16,1.53,0.39,2.28,0.59c1.6,0.43,2.91,1.05,3.7,2.66
		c1,2.05,1.64,4.15,1.21,6.41c-0.25,1.31-1.41,1.35-2.5,1.19c-2.05-0.3-3.92,0.21-5.7,1.16c-0.49,0.25-0.99,0.48-1.33,0.97
		c-1.51,2.18-3.67,3.53-5.99,4.67c-1.69,0.83-3.35,4.41-2.88,6.07c0.33,1.14,2.38,2.09,3.58,1.42c1.18-0.66,2.28-0.77,3.61-0.66
		c2.93,0.24,5.17-1.42,7.32-3.16c2.28-1.85,5.29-1.4,6.74,0.98c0.94,1.56,1.68,3.17,2.22,4.94
		C174.47,37.45,173.88,38.66,173.9,39.98z"/>
	<path d="M202.42,39.74c-0.57,1.77-0.58,3.74-1.26,5.53c-0.2,0.52-0.31,1.2-0.98,1.17c-2.14-0.09-3.3,1.59-4.77,2.63
		c-0.7,0.49-1.31,0.41-1.98,0.45c-2.74,0.16-5.31,0.8-7.81,2.02c-1.2,0.59-2.7,0.82-4.12,0.67c-1.02-0.1-1.52-0.97-2.17-1.64
		c-2.46-2.53-3.25-5.6-3.11-9c0.03-0.89,3.02-4.79,3.84-5c0.77-0.19,1.58-0.37,2.33,0.04c0.43,0.23,0.73,0.22,1-0.18
		c0.43-0.23,0.96-0.31,1.19-0.82c0.67-0.08,1.19,0.31,1.75,0.55c0.68,0.27,1.21,0.25,1.56-0.46c0.58-0.41,1.46,0.13,2-0.72
		c-0.34-0.39-0.7-0.58-1.07-0.61c-0.9-0.07-1.78-0.2-2.58-0.61c-0.81-0.41-1.69-0.65-2.6-0.73c-2.28-0.2-3.97-1.44-4.66-3.75
		c-0.85-2.84-1.36-5.75-1.77-8.69c-0.38-2.77,1.17-4.45,3.16-5.53c1.66-0.9,2.96-2.06,4.22-3.34c0.37-0.37,1.09-0.72,1.61-0.69
		c2.03,0.09,3.3-1.99,5.11-2.15c2.55-0.22,5.16-0.86,7.77,0.23c1.76,0.73,2.71,1.47,2.88,3.27c0.04,0.38,0.11,0.89-0.08,1.16
		c-1.02,1.4-1.87,3.16-3.26,3.98c-1.28,0.75-1.97,1.7-2.67,2.82c-0.45,0.17-1.01,0.01-1.35,0.49c-0.54,0.08-1.07,0.17-1.6,0.26
		c-0.56-0.07-0.72,0.4-1,0.71c0.29,0.25,0.61,0.37,1,0.27c0.73,1.06,1.55,1.69,3,1.98c1.73,0.33,3.59,1.09,4.51,2.97
		C202.49,31.05,203.9,35.11,202.42,39.74z"/>
	<path d="M78.08,33.82c-1.91,4.49-5.57,7.46-9.02,10.62c-0.31,0.16-0.61,0.31-0.92,0.47c-1.19-0.47-2.03,0.47-2.96,0.85
		c-1.79,0.73-3.73,1.17-5.53,1.2c-3.04,0.04-5.76-1.28-7.83-3.67c-0.98-1.13-1.9-2.24-2.47-3.7c-0.4-1.02-0.75-2.24-1.78-2.96
		c-0.63-0.45-0.45-1.13-0.51-1.75c-0.18-1.85-0.01-3.74,0.21-5.52c0.18-1.42,1.32-2.87,1.5-4.4c0.25-2.13,1.09-3.95,2.21-5.67
		c1.48-2.28,3.03-4.55,5.93-5.31c0.35-0.09,0.73-0.4,0.93-0.71c1.14-1.81,2.84-2.36,4.85-2.34c0.39,0,0.84,0.02,1.18-0.14
		c3.16-1.5,6.09-0.63,8.97,0.84c0.14,0.07,0.28,0.28,0.37,0.26c2.58-0.66,3.26,1.53,4.2,2.99c3.29,5.11,2.91,10.69,1.72,16.31
		c-0.11,0.54-0.41,1.05-0.29,1.63 M59.99,34.85c0.53,0.01,1.11,0.34,1.55-0.22c0.55-0.69,1.19-0.96,2.08-0.65
		c0.53,0.19,0.94-0.18,1.16-0.62c0.23-0.46,0.56-0.86,1.03-0.92c1.77-0.22,2.3-1.78,3.24-2.89c1.29-1.53,1.27-1.54,1.59-3.83
		c0.09-0.62,0.14-1.27,0.78-1.66c0.44-0.27,0.66-0.67,0.63-1.2c-0.12-1.89-1.59-3.11-3.56-2.95c-0.94,0.08-1.84,0.35-2.83,0.2
		c-0.95-0.14-1.72,0.36-1.79,1.46c-0.07,1.02-0.48,1.99-1.28,2.46c-3.04,1.8-3.85,4.88-4.75,7.9
		C57.32,33.63,58.29,34.84,59.99,34.85z"/>
	<path d="M22.43,18.62c1.19-0.66,1.82-1.84,2.62-2.85c0.29-0.36,0.51-0.88,0.89-1.07c2.84-1.37,5.07-3.62,7.73-5.25
		c0.51-0.31,0.98-0.43,1.56-0.28c0.44,0.11,0.76-0.06,0.8-0.57c0.69-0.61,1.69,0.03,2.38-0.6c0.16-0.03,0.31-0.08,0.47-0.09
		c3.49-0.34,3.74-0.39,5.56,2.34c1.16,1.74,2.12,3.7,2.12,5.94c0,1.71-1.03,3.28-2.61,3.83c-1.08,0.38-2.01,0.03-2.6-1.22
		c-0.45-0.95-0.89-0.93-1.64-0.41c-2.87,2.01-5.65,4.07-6.83,7.63c-0.4,1.2-1.81,1.91-1.91,3.36c-0.01,0.13-0.37,0.3-0.59,0.35
		c-0.75,0.18-1.69,0.03-1.9,1.09c-0.29,1.53-0.65,3.07,0.03,4.58c0.17,0.37,0.51,0.67,0.92,0.71c1.86,0.2,3.85,1.31,5.42-0.73
		c0.09-0.11,0.28-0.19,0.43-0.2c2.49-0.05,4.89-1.1,7.42-0.74c0.68,0.1,1.23,0.42,1.57,0.96c1.61,2.51,2.87,5.1,1.91,8.23
		c-0.14,0.46-0.11,0.98-0.63,1.19c-1.43,0.57-2.37,2.09-3.75,2.43c-2.23,0.55-4.07,2.37-6.52,2.04c-1.1-0.15-1.79,0.97-2.95,0.71
		c-1.08-0.24-2.26-0.19-3.06-1.05c-0.58-0.63-1.45-0.82-2.07-0.99c-3.68-1.05-5.29-4.03-6.77-7.03c-0.62-1.26-1.07-2.67-1.56-4.01
		c-0.91-2.47-0.72-5.11-0.6-7.71c0.02-0.47,0.2-0.95-0.03-1.41c0.49-0.3,0.26-0.67,0.1-1.04c0.04-0.07,0.11-0.14,0.11-0.2
		c0.11-2.68,0.81-5.02,3.51-6.26c0.13-0.06,0.12-0.43,0.18-0.65C22.23,19.3,22.33,18.96,22.43,18.62z"/>
	<path d="M137.72,32.1c-0.09,0.34-0.18,0.67-0.26,1.01c-0.84,2.39-0.54,5.01-1.45,7.41c-0.19,0.51,0.17,1.23,0.26,1.85
		c0.36,2.47-0.3,4.64-1.85,6.59c-0.26,0.33-0.49,0.24-0.75,0.32c-0.68,0.2-1.43-0.02-2.06,0.4c-0.35-0.07-0.7-0.14-1.04-0.21
		c-0.26-0.52-0.6-0.93-1.17-1.14c-1.71-0.62-2.33-2.11-2.98-3.63c-1.16-2.71-1.03-5.59-1.2-8.43c-0.03-0.41-0.09-0.83,0.15-1.16
		c1.6-2.26,1.21-4.82,1.2-7.34c0-1.17-0.19-2.37,0.63-3.42c0.3-0.38,0.23-0.91,0.19-1.4c-0.15-1.66,0.2-3.29,0.94-4.7
		c0.71-1.34,0.86-2.68,0.94-4.09c0.11-2.13,1.13-3.55,3.17-4.29c1.37-0.5,3.24,0.27,3.9,1.59c1.26,2.51,1.71,5.18,1.6,7.96
		c-0.03,0.89,0,1.76,0.27,2.61c-0.16,1.29-0.28,2.56-0.6,3.84c-0.3,1.19-1.09,2.51-0.39,3.87L137.72,32.1z"/>
</g>
</svg>
