<?xml version="1.0" encoding="utf-8"?>
<!-- Generator: Adobe Illustrator 26.3.1, SVG Export Plug-In . SVG Version: 6.00 Build 0)  -->
<svg version="1.1" id="Layer_1" xmlns="http://www.w3.org/2000/svg" xmlns:xlink="http://www.w3.org/1999/xlink" x="0px" y="0px"
	 viewBox="0 0 221.18 60" style="enable-background:new 0 0 221.18 60;" xml:space="preserve">
<style type="text/css">
	.st0{fill:#0066CC;}
	.st1{fill:#FFFFFF;}
	.st2{fill:#3399FF;}
	.st3{fill:#FF0000;}
	.st4{fill:#FF0A0A;}
	.st5{fill:#003399;}
	.st6{fill:url(#SVGID_1_);}
	.st7{fill:url(#SVGID_00000052811076118598081410000006598855745041404316_);}
	.st8{fill:url(#SVGID_00000056420704504521786860000006765664396450100646_);}
	.st9{fill:#009933;}
	.st10{fill:url(#SVGID_00000068653371169465096290000010787025005195635115_);}
	.st11{fill:url(#SVGID_00000072971225270855662090000011559250208524292782_);}
	.st12{fill:url(#SVGID_00000109012397022995243530000016706795140449899168_);}
</style>
<g>
	<path d="M103.52,15.41c0,0,0.19,3.44-0.54,5.18c-0.01,0.01-0.01,0.03-0.02,0.04c-0.66,1.49-1.28,3.03-1.48,4.63
		c-0.22,1.82-0.75,3.53-1.28,5.25c-0.19,0.6-0.4,1.26-0.33,1.87c0.13,1.18-0.17,2.3-0.72,3.2c-1.57,2.51-2.42,5.29-3.28,8.08
		c-0.13,0.39-0.18,0.92-0.57,0.96c-1.61,0.18-2.46,1.54-3.71,2.26c-1.6,0.93-3.49,0.82-4.65-0.7c-2.47-3.23-5.03-6.48-4.9-10.87
		c0.04-1.24-0.78-2.15-0.89-3.32c-0.06-0.63-0.68-0.59-1.06-0.19c-0.37,0.4-0.76,0.88-0.91,1.38c-0.7,2.51-1.84,4.85-2.7,7.3
		c-1.08,3.09-2.36,6.16-4.05,9.03c-0.35,0.6-0.73,0.98-1.4,1.13c-0.84,0.18-1.7,0.18-2.55,0.4c-1,0.25-1.79-0.43-2.27-1.34
		c-1.22-2.32-1.22-4.82-0.88-7.32c0.06-0.41,0.59-0.76,0.19-1.24c-0.46-0.55-0.15-0.77,0.33-1.05c0.64-0.38,1.11-0.99,1.27-1.7
		c0.39-1.76,1.01-3.4,1.81-5.04c0.61-1.24,0.62-2.77,1.9-3.7c0.22-0.17,0.35-0.55,0.42-0.85c0.72-3.31,2.62-6.11,3.91-9.17
		c0.31-0.73,0.63-1.46,1.29-1.97c0.73-0.55,1.02-1.35,1.37-2.16c1-2.3,1.07-2.25,3.21-3.6c0.53-0.34,0.92-0.52,1.51-0.22
		c0.35,0.18,0.76,0.35,1.14,0.33c2.21-0.1,2.98,1.44,3.57,3.13c0.53,1.5,0.93,3.01,0.94,4.64c0.02,2.07,0.2,4.16,0.84,6.14
		c0.4,1.23-0.24,2.58,0.58,3.71c-0.07,0.46-0.04,0.9,0.33,1.37c0.15-0.48,0.28-0.9,0.41-1.32c1.14-0.74,1.07-1.8,0.76-2.93
		c0.31-0.48,0.35-0.96-0.01-1.44c1.34-2.78,2.42-5.63,2.43-8.78c0-0.71,0.18-1.17,0.85-1.52c0.47-0.25,0.85-0.7,1.2-1.13
		c1.04-1.26,2.09-2.38,3.98-1.92C101.54,12.43,102.95,13.45,103.52,15.41z"/>
	<path d="M131.39,23.03c-2.19,1.13-4.35,0.45-6.48,0.95c-1.28,0.3-1.83,0.74-2.23,1.99c-1.03,3.22-2.08,6.43-2.9,9.71
		c-0.49,1.97-0.7,3.95-2.02,5.69c-0.66,0.89-0.52,2.34-0.7,3.55c-0.33,2.23-1.52,4.23-2.22,6.39c-0.79,2.46-5.15,2.72-6.85,0.58
		c-1.02-1.28-1.37-2.88-1.84-4.4c-0.74-2.38-0.03-4.56,1.36-6.47c0.76-1.04,1.1-2.02,0.81-3.24c0.52-0.47,0.28-0.7-0.26-0.85
		c0.63-0.59,1.35-1.26,1.2-2.15c-0.39-2.31,1.7-3.91,1.63-6.13c-0.01-0.41,0.8-0.79,1.18-1.25c0.32-0.37,0.61-0.63,0.61-1.13
		c0.2-0.24,0.43-0.55,0.26-0.8c-0.15-0.25-0.51-0.26-0.77,0c-0.92-0.13-1.83-0.29-2.76-0.37c-2.3-0.2-3.69-0.95-4.56-2.61
		c0,0-0.01-0.02-0.03-0.05c-0.25-0.48-0.45-1.04-0.61-1.68c-0.24-1.28-0.09-3.14,1.73-5.06c0.03-0.03,0.05-0.05,0.08-0.08
		c0.63-0.57,1.35-1.01,2.35-1.04c0.53-0.01,0.65-0.52,0.97-0.8c1.63,0.02,3.19-0.45,4.78-0.69c0.36,0.08,0.7,0.07,1.03-0.11
		c2.63-0.97,5.39-0.95,8.13-0.94c0.58,0.01,1.22,0.04,1.59-0.37c1.15-1.25,2.67-1.07,4.12-1.24c2.15-0.25,3.89,0.6,4.96,2.45
		c0.56,0.98,1,2.01,1.27,3.1C136.04,19.25,134.44,21.46,131.39,23.03z"/>
	<path d="M46.45,49.76c-0.77-0.46-1.4-1.11-2.33-1.36c-2.52-0.68-4.25-2.66-6.21-4.17c-1.65-1.27-2.61-3.29-2.81-5.49
		c-0.25-2.77-0.11-5.57-0.68-8.31c-0.12-0.59-0.09-1.14,0.41-1.51c1.03-0.76,1.15-1.98,1.67-3c1.78-3.48,3.51-7.07,7.06-9.24
		c0.25-0.15,0.34-0.53,0.57-0.73c2.95-2.46,6.31-3.91,10.18-4.16c0.86-0.06,1.6,0.13,2.28,0.52c1.23,0.69,2.34,1.46,3.86,1.72
		c1.06,0.18,1.67,1.56,2.38,2.5c2.43,3.23,2.86,7.12,3.06,10.87c0.12,2.17-0.43,4.61-1.16,6.77c-0.71,2.11-0.67,4.41-1.73,6.41
		c-0.18,0.34-0.17,0.9-0.44,1.08c-2.06,1.39-3.01,3.64-4.41,5.53c-0.13,0.18-0.33,0.51-0.44,0.49c-1.93-0.41-3.01,1.34-4.63,1.77
		c-1.66,0.44-3.31,0.18-4.96,0.33c-0.08,0.01-0.16,0.02-0.24,0.03C47.42,49.42,46.94,49.31,46.45,49.76z M57.5,25.69
		c0.23-0.98-0.03-1.76-0.13-2.54c-0.12-0.98-0.52-1.41-1.74-1.34c-1.32,0.07-2.67,0.93-4.07-0.05c-0.42-0.29-1.22,0.21-1.64,0.73
		c-0.4,0.49-0.8,1-1.08,1.56c-0.88,1.77-1.9,3.46-2.91,5.15c-0.73,1.23-1.14,2.71-1.89,4c-0.13,0.22-0.02,0.63,0.08,0.91
		c0.63,1.79,1.36,3.3,3.57,3.88c1.13,0.3,1.73-0.42,2.63-0.4c1.22,0.02,2.4-0.2,3.16-1.56c0.65-1.16,1.75-2.08,1.54-3.59
		c-0.13-0.94,0.34-1.58,0.81-2.36C56.67,28.71,57.92,27.39,57.5,25.69z"/>
	<path d="M26.22,48.22c-0.79-0.53-1.51-0.2-2.23,0.16c-1.59,0.79-3.21,1.23-4.99,0.62c-0.43-0.15-0.97-0.16-1.41-0.05
		c-2.33,0.61-4.3-0.14-6.02-1.6c-2.56-2.17-4.61-4.71-5.34-8.1c0.26-0.35,0.23-0.68-0.09-0.97c-0.8-2.06-1.12-4.24-1.33-6.41
		c-0.32-3.3,0.43-6.53,1.06-9.74c0.12-0.62,0.68-0.8,1.07-1.17c1.6-1.51,2.87-3.32,4.9-4.42c1-0.54,1.8-1.74,2.34-2.61
		c0.82-1.34,2.62-1.39,3.06-2.9c1.25-0.09,1.74-1.24,2.59-1.88c2.55-1.93,5.16-1.41,7.77-0.11c0.31,0.15,0.43,0.43,0.61,0.7
		c1.68,2.57,2.83,5.4,3.21,8.41c0.24,1.92-0.53,3.81-1.93,5.23c-1.44,1.46-4.34,0.8-5.8-1.17c-0.35-0.47-0.25-1.48-1.12-1.31
		c-0.72,0.14-0.76,0.95-0.78,1.59c-0.04,1.84-1.79,2.15-2.86,2.76c-0.78,0.44-1.31,0.68-1.37,1.54c-0.08,1.05-0.6,1.62-1.54,2.18
		c-1.49,0.89-1.85,5.31-0.63,6.53c0.65,0.65,1.63,0.92,2.45,0.53c1.93-0.92,4.1-0.54,6.08-1.44c2.74-1.24,7.89,0.72,9.5,3.29
		c0.65,1.04,1.01,2.13,0.54,3.36c-0.17,0.45-0.23,0.93-0.4,1.38c-0.26,0.73,0.26,1.87-0.59,2.19c-1.23,0.46-2.02,1.87-3.56,1.63
		c-1.1-0.17-1.78,0.41-2.2,1.36C26.87,47.93,26.55,48.07,26.22,48.22z"/>
	<path d="M135.12,23.36c1.35-0.78,1.94-2.24,2.37-3.51c0.35-1.03,0.85-1.56,1.64-2.1c1.19-0.82,2.07-1.98,2.98-3.08
		c1.57-1.89,3.91-1.91,6-2.53c0.23-0.07,0.62,0.17,0.85,0.36c1.44,1.17,2.76,2.52,2.99,4.41c0.48,4.01,1.52,7.96,1.4,12.04
		c-0.08,2.98-0.16,5.97-0.24,8.95c-0.01,0.39-0.14,0.83-0.01,1.16c1.09,2.83,0.39,5.87,1.05,8.78c0.46,2.03-0.62,3.48-2.33,4.19
		c-1.78,0.75-4.29,0.26-5.42-1.12c-1.93-2.36-2.23-5.3-2.82-8.13c-0.06-0.27,0.03-0.48,0.23-0.62c0.58-0.41,0.67-0.94,0.19-1.4
		c-0.41-0.39-0.97-0.09-1.29,0.22c-1.11,1.09-2.62,0.99-3.96,1.38c-0.63,0.19-1.25,0.2-1.52,0.91c-0.49,0.06-0.99,0.07-1.35,0.49
		c-1.56,0-2.7,0.59-3.36,2.1c-0.79,1.83-2.44,3-3.7,4.46c-1.16,1.35-4.28,1.67-5.05-0.78c-0.38-1.21-1.71-2.52-0.15-3.85
		c-0.47-1.91,1.26-2.78,1.9-4.16c0.51-1.09,1.69-1.89,1.55-3.28c0.11-0.48,0.21-0.97,0.32-1.45c1.53-1.38,1.96-3.39,2.9-5.11
		c0.59-1.08,1.14-2.16,2.19-2.87c0.39-0.27,0.88-0.5,0.81-1.05c-0.15-1.13,0.47-1.43,1.42-1.66c0.51-0.13,0.43-0.75,0.12-1.19
		C134.73,24.37,134.96,23.87,135.12,23.36z M140.23,32.84c1.21,0.3,2.14-0.51,3.19-0.71c0.18-0.03,0.45-0.3,0.45-0.47
		c0.08-1.72,0.78-3.43,0.33-5.24c-1.64,0.66-1.59,2.11-1.89,3.27C141.96,30.99,140.53,31.49,140.23,32.84z"/>
	<path d="M168.85,37.19c1.59,0.45,3.25,0.53,4.86,0.91c1.22,0.29,2.63,0.86,3.88-0.24c0.24-0.21,0.78-0.17,1.15-0.1
		c1.17,0.22,2.05-0.14,3.05-0.85c3.13-2.25,6.32,0.19,6.68,2.79c0.07,0.54,0.27,1.14,0.26,1.62c-0.03,1.27,0.01,2.48-1.2,3.6
		c-1.58,1.47-3.28,2.82-4.8,4.35c-0.27,0.27-0.61,0.05-0.91,0.08c-0.29-0.37-0.62-0.26-0.96-0.09c-1.56,0.23-3.06,0.82-4.23,1.76
		c-0.65,0.53-0.93,0.46-1.58,0.27c-1.11-0.33-2.22-1.01-3.46-0.37c-0.17,0.09-0.59,0.03-0.66-0.1c-0.7-1.24-2.04-0.93-3.08-1.18
		c-1.83-0.45-3.27-1.29-4.36-2.83c-0.81-1.14-2.52-1.17-3.2-2.5c-2.28-0.43-2.55-2.56-2.79-4.11c-0.48-3.13-0.73-6.33-0.97-9.49
		c-0.19-2.49,0.52-4.95,2.03-7.1c0.86-1.22,1.52-2.57,2.46-3.76c1.69-2.16,3.24-4.44,4.84-6.68c0.09-0.13,0.17-0.32,0.29-0.36
		c2.19-0.62,3.63-2.81,6.13-2.83c1.17-0.01,2.29-0.56,3.48-0.72c3.37-0.47,5.5,0.98,6.1,4.32c0.08,0.47,0.1,0.95,0.14,1.43
		c0.28,3.04-1.68,4.44-4.48,3.13c-0.45-0.21-0.74-0.4-1.26-0.12c-1.36,0.73-2.73,1.7-3.38,2.93c-1.27,2.42-2.94,4.58-4.54,6.69
		c-1.83,2.4-1.81,4.97-2.01,7.62c-0.04,0.47,0.32,0.63,0.72,0.8c0.43,0.18,0.78,0.52,1.17,0.79
		C168.32,37.22,168.47,37.43,168.85,37.19z"/>
	<path d="M195.74,20.54c-0.83-0.21-1.55-0.58-2.52-0.45c-2.25,0.29-4.31-0.85-6.44-1.36c-1.82-0.44-3.11-4.38-2.21-5.96
		c0.54-0.96,1.62-1.48,2.52-1.68c3.43-0.79,6.58-2.62,10.27-2.53c1.27,0.03,2.59-0.68,3.82-1.2c0.77-0.33,1.33-0.26,1.99,0.17
		c0.68,0.44,1.46,0.81,2.25,0.31c2.28-1.44,4.86-0.96,7.33-1.16c0.82-0.07,1.43,0.2,1.83,1.14c0.8,1.88,1.89,3.62,1.9,5.78
		c0.01,1.37-0.49,2.47-1.29,3.5c-0.83,1.07-1.86,1.56-3.28,1.54c-1.42-0.02-2.81,0.48-4.27,0.06c-0.8-0.23-2.12,0.93-2.2,1.89
		c-0.05,0.56-0.3,1.12-0.27,1.63c0.27,3.73-1.6,7.09-1.81,10.74c-0.07,1.3-0.58,2.6-0.89,3.87c-0.69,2.88-1.1,5.79-1.43,8.71
		c-0.14,1.24-0.68,2.31-1.31,3.28c-0.93,1.43-2.57,2.06-4.12,2.4c-1.49,0.32-3.5-1.78-3.62-3.69c-0.08-1.36-0.4-2.68-0.47-4.03
		c-0.06-1.19,0.02-2.35,0.24-3.55c0.62-3.26,1.56-6.44,2.22-9.69c0.6-2.96,0.94-6.01,1.91-8.9
		C196.05,21.04,196.55,20.67,195.74,20.54z"/>
</g>
</svg>
