<?xml version="1.0" encoding="UTF-8"?><svg id="Layer_1" xmlns="http://www.w3.org/2000/svg" viewBox="0 0 221.18 60"><path d="m65.31,37.97c-.23-1.76-.45-3.52-.65-5.27-.14-1.26-.24-2.52-.34-3.78-.02-.22-.06-.45-.02-.66.41-2.09-.08-4.09-.76-6-.65-1.8-1.05-3.57-1.17-5.5-.15-2.63-.98-5.12-3.17-6.92-.59.11-1.13.26-1.68.32-2.13.23-3.4,1.6-4.5,3.25-.57.86-1.19,1.67-1.79,2.52-.46.67-1.02,1.32-1.36,2.05-.45.99-.5,2.27-1.16,3.04-2.7,3.1-3.82,7.03-5.72,10.53-1.17,2.15-2.14,4.39-2.84,6.77-.47,1.61-1.49,3.06-2.23,4.6-.16.34-.26.75-.24,1.11.04.76-.08,2.52,0,3.28.3,2.88,2.36,4.01,4.92,2.87,1.12-.5,2.65-4.35,3.51-5.07,1.95-1.61,3.7-1.8,6.12-2.42.46-.12,1.3-.32,1.75-.45,1.04-.32,1.86,1.06,2.96.7.11.32.22.53.22.73,0,2.24,1.12,4,2.32,5.79,1.29,1.93,5.75,1.35,6.31-.96.23-.93.58-1.88.5-2.79-.22-2.59-.63-5.16-.97-7.73Zm-9.57-3.44c-.29,1.23-3.12,1.52-5.41,2.49,1.76-4.38,3.12-7.74,4.48-11.1.28-.02.54-.06.81-.08.12,2.92.77,6.04.12,8.69Z"/><path d="m130.89,38.27c.23-.93.55-1.67.58-2.42.07-2.36-.02-4.73.07-7.09.04-.97.42-1.93.57-2.9.13-.91.18-1.84.22-2.76.03-.66-.16-1.35.68-1.7.15-.06.31-.4.28-.57-.34-1.85.13-3.58.62-5.33.34-1.21.34-2.6.95-3.63.65-1.1,1.85-1.87,2.82-2.77.28-.26.69-.38.95-.65,1.77-1.88,3.79-1.57,5.91-.79.35.13.85.27,1.12.12,2.09-1.13,4.35-.19,6.52-.58,1.17-.21,1.8,1.25,2.15,2.27.36,1.06.02,2.24-1.01,2.78-1.31.69-2.75,1.13-4.16,1.61-1.07.36-2.19.57-3.27.89-1.18.35-2.34.76-3.87,1.27-.46,1.2-.87,2.82-.43,4.6.29,1.15.4,2.35.58,3.45,2.44-.53,4.87-1.69,7.58-1.43,2.23.21,3.78,1.87,3.58,4.09-.09,1.04-.33,2.1-.73,3.06-.47,1.1-1.69,1.01-2.68,1.19-1.08.2-2.17.34-3.25.57-.98.21-1.95.47-2.91.77-.95.29-1.88.65-2.83.99-.13,2.3-.26,4.54-.39,6.8,1.76.63,2.97-.42,4.29-.85.36-.12.65-.45,1.01-.6,3.39-1.39,6.58-.65,9.86.82-.02-.39-.09-.9-.06-1.39.13-2.29.55-4.59.37-6.85-.2-2.47.72-4.76.65-7.18-.02-.84.28-1.69.45-2.54.15-.76.33-1.51.44-2.27.23-1.58.45-3.16,1.76-4.3.12-.11.27-.26.29-.4.34-2.09,1.82-3.04,3.63-3.63.94-.31,1.89-.57,2.85-.77.76-.16,1.54-.18,2.32-.27,1.11-.13,2.17-.27,3.25.35.55.32,1.34.28,2.03.32,1.15.07,2.94,1.7,3.11,2.91.15,1.02-1,2.26-2.37,2.66-1.27.37-2.5.84-3.77,1.2-.34.1-.74-.05-1.11,0-1.16.14-2.45.07-3.43.59-.56.3-.81,1.54-.88,2.38-.19,2.28-.22,4.57-.32,7.05.68-.24,1.39-.31,1.85-.68,1.3-1.05,2.72-.62,4.14-.54.76.05,1.53,0,2.58-.31.72,1.22,1.51,2.39,2.13,3.66.54,1.12-.24,2.83-1.34,3.36-.45.22-.92.47-1.26.82-.95.99-2.26,1.09-3.45,1.39-1.7.43-3.44.68-5.1,1-.34,2.73-.65,5.31.7,7.71,1.71-.54,3.4-.99,5.03-1.61.99-.38,1.84-1.29,2.84-1.46,1.47-.25,3.03-.15,4.53.01.52.06.96.76,1.77,1.46,0-1.85.04-3.37-.01-4.88-.03-.99.56-1.74.79-2.6.41-1.53.56-3.15.66-4.74.08-1.3-.08-2.62-.13-3.93-.01-.28-.14-.65,0-.82,1.02-1.35.53-2.84.51-4.31,0-.78.35-1.56.48-2.35.32-1.9.61-3.8.88-5.71.29-1.97,1.6-3.48,3.34-3.63,2.04-.17,3.68.4,4.61,2.44.81,1.78,1.59,3.57,2.4,5.34,1.48,3.24,3,6.47,4.45,9.73.36.8.52,1.69.77,2.54,1.21-.51,1.22-1.45.87-2.35-.52-1.35-.75-2.66-.16-4.03.06-.15.08-.33.08-.5.04-3.31,1.2-6.41,1.82-9.62.12-.64.02-1.33.02-2.07.7-.53,1.41-1.3,2.28-1.68,3.35-1.46,6.37,1.43,6.14,4.65-.22,3.07-.59,6.12-.85,9.19-.09,1.03.02,2.08-.06,3.11-.07.87-.37,1.72-.42,2.59-.06,1.03.13,2.07.06,3.09-.07,1.17-.31,2.34-.47,3.5-.06.42-.07.84-.13,1.25-.14,1.06-.1,2.19-.48,3.16-.5,1.24-.86,2.45-.45,3.73.52,1.61-.04,3-.84,4.29-.55.89-1.31,1.66-2,2.45-1.7,1.95-4.81,1.5-6.4-.55-2.45-3.17-3.1-6.98-4.36-10.59-.81-2.3-1.78-4.54-2.64-6.81-.37-.98-.65-2-1.22-3.02-.06.7-.16,1.4-.17,2.11-.02,1.97.22,3.98-.05,5.91-.32,2.39.36,4.72.05,7.07-.18,1.42-.34,2.86-.72,4.24-.46,1.68-1.9,2.3-3.43,2.73-3.67,1.03-4.95-.75-6.24-3.92-.37.26-.75.46-1.06.74-1.47,1.33-3.1,2.26-5.1,2.64-1,.19-1.91.88-2.86,1.34-.4.19-.88.59-1.2.49-1.48-.47-2.54.6-3.81.83-.91.17-1.97.15-2.82-.18-3.25-1.25-4.49-3.94-4.72-7.65-.5.75-.74,1.16-1.02,1.54-.23.3-.46.75-.77.82-2.12.51-4.27.91-6.4,1.4-1.22.28-2.42.66-3.64.97-.48.12-.97.19-1.46.25-1.09.13-2.22.02-3.04,1.06-.23.28-.93.22-1.41.26-.33.03-.73-.16-.98-.03-1.98,1-3.2-.1-4.33-1.5-.99-1.22-1.99-2.43-3.09-3.77-1.72.57-3.82,1.31-5.94,1.95-.47.14-1.05-.01-1.56-.14-.99-.25-1.7-.55-2.82.32-1.58,1.23-3.68,1.79-5.57,2.61-.19.08-.53.12-.65.01-1.28-1.21-2.48-.23-3.73.07-1.49.36-3,.71-4.53.87-.66.07-1.42-.27-2.05-.6-1.5-.77-2.59-3.7-2.18-5.4.19-.79.17-1.63.22-2.44.01-.16-.12-.41-.05-.48.85-.84,1.02-2.11,1.66-2.97,2.37-3.16,4.43-6.42,5.77-10.18.59-1.66,1.95-3.03,2.9-4.57.56-.92.98-1.93,1.5-2.88.15-.26.42-.59.68-.64,1.44-.27,1.51-1.4,1.79-2.48-2.42.08-4.72.16-7.03.24-.16,0-.35-.01-.47.07-1.69,1.15-3.62.63-5.45.8-1.09.1-2.31-.83-2.69-1.89-.52-1.41-.1-2.49.83-3.45,1.37-1.42,3.26-1.79,4.9-2.64,1.01-.52,2.3-.46,3.45-.74.52-.13.96-.53,1.48-.72.44-.16.93-.26,1.41-.26.67,0,1.36.05,2.02.15,2.37.36,4.52-1.36,6.94-.72.38.1.87-.17,1.29-.3,3.19-.94,6.65,2.35,5.64,5.59-.32,1.03-.84,1.76-1.9,2.11-.33.11-.75.33-.89.62-.89,1.81-1.44,3.85-2.63,5.42-1.34,1.78-1.53,3.95-2.65,5.76-1.13,1.84-2.22,3.69-3.29,5.56-.41.72-.73,1.43-.32,2.36.2.46-.15,1.16-.32,2.21,1.82-1.2,3.79-.59,5.49-1.83,1.76-1.29,4.08-1.42,6.22-1.46.79-.02,1.59,1.08,2.82,1.99Z"/><path d="m89.22,28.14c.31-1.52.79-3.46,1.09-5.42.19-1.22.11-2.48.13-3.73.02-1.43-.08-2.88.05-4.3.12-1.31.31-2.65.75-3.89.35-1,2.61-2.1,3.24-1.55.93.82,1.89,2,2.11,3.16.5,2.63.6,5.33,1.56,7.88.22.58.13,1.27.15,1.91,0,.28-.13.57-.07.83.5,2.23-.13,4.44-.06,6.67.1,2.98-.17,5.96-.24,8.94-.05,2.13-.02,4.25-.02,6.38,0,1.46-.34,2.75-1.7,3.58-.42.26-.88.54-1.15.94-.75,1.09-1.94,1.48-3.01,1.33-1.52-.21-3.28-.26-4.23-1.87-.45-.76-.85-1.56-1.18-2.38-1.02-2.59-1.99-5.19-2.99-7.79-.26-.67-.74-1.32-.79-2-.2-2.91-2.05-5.01-3.43-7.34-.47-.8-.99-1.57-1.49-2.36-.11.04-.23.07-.34.11.15.77.2,1.59.48,2.32.58,1.48.2,2.78-.38,4.16-.33.78-.57,1.77-.38,2.56.36,1.49,0,2.75-.39,4.17-.47,1.69-1.15,3.46-.4,5.34.57,1.42-.44,3.49-1.92,4.39-1.59.96-3.18.76-4.49-.63-1.81-1.92-2.73-4.17-2.45-6.85.03-.27.11-.58,0-.8-.95-1.96.04-3.65.65-5.42.21-.61.18-1.3.22-1.95.1-1.63.27-3.22.66-4.85.42-1.76.9-3.53,1.23-5.3.36-1.93.06-3.97.29-5.93.15-1.3.77-2.53,1.13-3.81.13-.45.22-.96.14-1.41-.27-1.48.2-2.76.99-3.93,1.07-1.58,3.93-1.88,5.04-.36,2.16,2.94,4.55,5.71,5.8,9.28.78,2.22,2.23,4.21,3.38,6.31.74,1.34,1.48,2.67,2.01,3.61Z"/><path d="m26.44,37.72c-.42-.19-.84-.38-1.35-.6-.15.42-.39.79-.42,1.18-.14,1.79-.21,3.59-.35,5.38-.09,1.15-.16,2.32-.42,3.44-.26,1.14-.75,2.22-1.04,3.04-1.02.63-1.74,1.28-2.58,1.56-1.97.65-3.74-.15-5.22-1.36-1.57-1.28-2.26-2.92-2.22-5.12.03-1.45.2-3.13-.73-4.6-.24-.38.24-1.5.7-2.01.97-1.09,1.05-2.17,1.07-3.61.03-2.05-.21-4.45,1.41-6.1,1.77-1.81,1.84-3.9,1.41-6.07-.18-.91.08-1.39.58-2.02.98-1.23,1.91-2.55,1.68-4.25-.16-1.16.43-1.91,1.2-2.6.34-.31.75-.56,1.07-.88,1.3-1.33,2.82-1.98,4.66-2.48,1.92-.51,4.16-.62,5.69-2.31.2-.23.78-.15,1.19-.15,1.47-.01,2.94.04,4.41-.03.62-.03,1.23-.27,1.84-.44.28-.08.6-.36.8-.29,1.88.67,3.53-.35,5.28-.62.75-.12,1.5-.18,1.97.73.74,1.44,1.8,2.75,2.36,4.26.87,2.34-1.42,5.41-3.89,5.79-1.46.22-2.97.69-4.26,1.4-1.25.69-2.31.36-3.36-.05-1.09-.42-1.81-.19-2.7.51-1.3,1.02-2.67,1.89-4.57,1.27-1.86-.61-2.08-.38-2.48,1.48-.31,1.47-.52,2.96-.8,4.66,2.11.24,3.67-.73,5.33-1.29,1.51-.5,3.08-.85,4.64-1.23.26-.06.59.02.86.12,1.72.63,3.87,4.3,3.47,6.1-.14.64-.51,1.4-1.02,1.74-1.13.74-2.19,1.67-3.64,1.86-.56.07-1.07.44-1.61.65-.43.17-.91.52-1.29.43-1.57-.36-2.83.47-4.19.92-.33.11-.64.29-.98.41-.8.27-1.6.52-2.4.78-.04.14-.07.28-.11.41Z"/></svg>