<?xml version="1.0" encoding="UTF-8"?><svg id="Layer_1" xmlns="http://www.w3.org/2000/svg" viewBox="0 0 221.18 60"><path d="m151.18,38.37c-1.97.11-3.58.05-5.13.33-1.49.26-2.92.87-4.49,1.36.35.81.64,1.49.94,2.18.48,1.12.72,2.22.25,3.44-.37.97-.32,2.15-.82,3.02-1.77,3.05-4.52,4.91-7.95,5.6-1.9.39-3.72.9-5.41,1.85-.38.21-.82.48-1.21.45-1.96-.14-3.88.47-5.89-.11-2.34-.68-4.81-.91-7.22-1.38-1.04-.2-2.06-.47-3.07-.76-2.13-.62-3.56-2.06-4.48-4.02-.17-.37-.14-.88-.06-1.3.31-1.69,3.64-4.19,5.36-4.09.13,0,.26-.03.38.01,2.38.8,4.82.74,7.27.5.49-.05,1.17-.13,1.46.14,1.73,1.54,3.38.4,5.05-.01.24-.06.5-.23.72-.18,1.91.43,3.55.11,4.91-1.46.21-.25.96-.03,1.55-.03.38-1.76-.34-3.27-1.02-4.8-.66-1.47-1.71-2.84-1.38-4.59.12-.62.24-1.34.62-1.8,2.51-3.08,5.91-2.88,9.36-2.42.42.06.98.48,1.22.33,1.41-.88,2.94-.58,4.72-.34-.58-1.72-1.11-3.1-1.52-4.52-.4-1.37-.77-2.76-1.01-4.17-.23-1.38.76-2.57,2.52-3.29,1.15-.47,2.86-.22,3.47.73.94,1.46,1.74,3.01,2.53,4.56.87,1.71,1.66,3.46,2.48,5.2.11.23.2.46.28.7.92,2.78,2.25,3.61,5.1,3.21.74-.1,1.51-.25,2.24-.14,3.03.44,5.97.65,8.96-.51,1.69-.66,1.94-.59,1.64-2.64-1.33.64-2.6,1.35-3.94,1.87-.58.23-1.31.15-1.96.09-1.43-.13-2.87-.29-4.29-.52-1.46-.23-2.33-.93-2.87-2.51-1.03-3.02-1.2-5.97-.57-9.07.56-2.77,3.84-5.35,6.77-5.18.41.02.84-.17,1.26-.2,1.22-.09,2.24-.05,3.46.76,1.45.97,3.15,1.59,4.42,2.89.17.17.5.26.56.46.85,2.55,3.17,4.42,3.3,7.34.05,1.07.58,2.15,1.05,3.15,1.25,2.71.41,6.18-1.97,8.07-.46.36-.71.98-1.08,1.47-.87,1.13-1.56,2.37-3.47,1.95-.99-.22-2.14.43-3.24.54-2.22.23-4.48.65-6.68.46-2.34-.2-4.54.23-6.78.58-.56.09-1.25.15-1.72-.09-1.75-.89-3.71-1.51-4.61-3.07Zm15.92-17.51c-2.59,1.01-1.29,4.09-1.29,4.89,1.7.38,4.48-1.2,6.21-.81-2-3.73-2-3.78-4.91-4.08Z"/><path d="m74.19,43.04c-.68,2.79-2.93,3.82-4.94,5.11-.83.53-1.9.92-2.41,1.67-.87,1.28-2.07,1.42-3.35,1.62-.91.14-1.85.25-2.72.53-2.22.71-4.39.58-6.6-.11-1.35-.43-2.77-.86-4.17-.88-2.17-.02-3.49-1.35-4.68-2.75-2.23-2.63-4.15-5.51-5.14-8.87-.57-1.92-.35-3.92.51-5.63,1.31-2.6,2.91-5.05,4.48-7.5.42-.65,1.15-1.16,1.84-1.55,1.61-.91,3.28-1.71,4.93-2.54.93-.46,1.57.12,2.14.7,1.73,1.74,1.6,4.35-.14,6.23-.62.67-1.05,1.54-1.47,2.36-.81,1.63-1.72,3.24-2.28,4.97-.82,2.53.24,4.42,2.87,5.72.72.36,1.4.79,2.12,1.14.32.16.72.35,1.03.29,2.22-.44,4.61-.41,6.38-2.21.39-.39.92-.66,1.43-.91,1.48-.73,2.43-2.15,2.29-3.77-.31-3.61-.71-7.21-1.02-10.81-.21-2.43,1.06-3.98,3.48-4.39,2.02-.35,3.46.51,4.36,2.61.44,1.03.96,2.04,1.32,3.1.25.74.44,1.55.42,2.33-.07,2.22,1.11,3.3,3.34,3.32,1.71.01,3.4-.11,5.16.54,1.33.49,3.08-.04,4.61-.27,1.87-.28,3.64-.48,5.56.06,1.25.35,2.73.02,4.08-.18,2.16-.33,4.22-.47,6.44,0,1.23.26,2.86-.84,4.13-1.61.33-.2.19-1.54-.05-2.25-.47-1.41-1.16-2.74-1.77-4.1-.73-1.6-.2-2.92,1.47-3.61.29-.12.57-.24.85-.37,1.94-.89,3.12-.54,4.27,1.24,1.21,1.88,2.42,3.77,3.63,5.66.07.11.22.2.23.3,0,2.65,1.17,5.56-.67,7.86-1.23,1.55-3.18,2.54-4.84,3.73-.62.45-1.43.66-2.01,1.14-1.88,1.58-4.07,1.71-6.34,1.47-1.43-.16-2.77-.67-4.28.11-.79.41-2.12-.25-2.94.13-2.31,1.06-4.72-.07-7.09.65-1.48.45-3.29-.28-4.96-.32-2.31-.06-4.62.03-6.93.05-.81,0-1.61,0-2.58,0Z"/><path d="m92.09,45.04c1.43.39,2.56.73,3.7,1,.87.2,1.76.37,2.65.42,1.09.05,2.63,1.45,3.28,2.81.86,1.81.05,3.38-.6,4.91-.38.9-1.23,1.59-2.47,1.11-.38-.15-.84-.08-1.27-.07-1.1.03-2.31.4-3.29.07-1.75-.59-3.35-.13-4.88.33-2.56.78-5.14.62-7.72.68-.53.01-1.09-.23-1.61-.42-1.49-.54-2.26-1.45-1.76-3.17.22-.74,0-1.6.16-2.37.28-1.29.67-2.45,2.32-2.78,3.9-.77,7.78-1.69,11.49-2.52Z"/><path d="m146.75,10.32c-.9,2.28-.6,5.35-2.77,7.6-.86.9-1.61,1.52-2.85.52-.65-.52-1.54-.72-2.33-1.07-3.04-1.36-3-2.84-2.38-5.34.38-1.52,1.37-2.94,2.26-4.29,1.13-1.73,3.07-2.08,4.93-2.39.96-.16,2.83,2.09,3.03,3.44.06.37.06.75.12,1.53Z"/><path d="m163.6,9.56c-.28.92-.3,2.08-.89,2.7-1.39,1.44-2.57,3.36-4.91,3.47-1.68.08-2.81-.87-3.65-2.22-.86-1.39-1.78-2.76-.69-4.48.18-.28.19-.74.14-1.1-.37-2.44,1.64-3.27,3.14-3.97,2.62-1.24,6.23.6,6.58,3.64.07.62.01,1.26.01,1.88.1.02.19.05.29.07Z"/><path d="m121.68,22.46c.04-2.19,3.31-6.81,5.39-7.42.56-.16,1.5,0,1.88.39,1.14,1.14,2.33,2.35,3.03,3.77.49,1,.37,2.28-.23,3.58-1.3,2.8-3.76,3.41-6.31,3.9-1.81.35-3.82-2.04-3.77-4.23Z"/><path d="m59.01,20.39c-3.07.09-4.41-1.34-4.02-4.18.32-2.37,2.41-5.3,4.63-6.01,2.21-.71,4.95,1.44,5.48,4.03.69,3.35-2.89,6.46-6.09,6.17Z"/></svg>