<?xml version="1.0" encoding="UTF-8"?><svg id="Layer_1" xmlns="http://www.w3.org/2000/svg" viewBox="0 0 221.18 60"><path d="m162.2,41.66c1.55-.28,3.06-.43,4.5-.84,2.79-.79,4.85-.02,6.15,2.47.75,1.43.25,3.12-1.15,3.85-1.99,1.03-4,2.01-5.97,3.08-2.32,1.26-4.72.85-7.11.43-.91-.16-1.8-.51-2.64-.89-2.17-1-3-2.93-3.31-5.39-1.44,1.76-3.2,1.99-5.16,2.17-1.73.16-3.39,1.12-5.1,1.66-1.08.34-2.21.83-3.3.8-2.79-.06-5.15.9-7.35,2.5-1.05.76-2.01-.18-2.99-.37-1.11-.22-2.2-.55-3.27-.94-.63-.23-1.57-.55-1.72-1.04-.59-1.87-2.42-3.49-1.34-5.77.16-.34-.12-.86-.11-1.29.08-3.1,1.22-5.95,2.05-8.88.13-.47.14-.98.19-1.47.03-.32-.08-.74.08-.96,1.15-1.54,1.19-3.3,1.15-5.1,0-.37-.01-.85.2-1.09.96-1.12,1.13-2.42.9-3.76-.26-1.53.72-2.59,1.21-3.84.15-.39.47-.79.44-1.16-.35-3.44,1.28-5.66,4.12-7.36,1.65-.99,3.22-1.7,5.19-1.32.77.15,1.62-.12,2.44-.18,1.67-.11,3.34-.32,5-.25,1.09.04,2.18.47,3.25.77,1.16.33,2.31.67,3.44,1.08,1.48.55,1.81,3.19.65,4.64-.88,1.1-2.03,1.66-3.39,1.74-2.3.14-4.61.14-6.9.33-.93.08-1.81.57-2.73.77-.67.14-1.38.11-2.3.17-.54,2.59-1.12,5.41-1.7,8.2.33.1.47.19.52.15,1.43-1.07,2.92-1.42,4.73-.97,1.13.28,2.4.05,3.61-.01,1.99-.11,3.19.78,3.67,2.82.3,1.27-.85,3.2-2.21,3.69-1.19.43-2.37.88-3.57,1.25-.92.28-1.87.46-2.81.68-.99.24-1.98.45-2.95.76-.22.07-.31.53-.48.83-.49-.15-.91-.28-1.33-.41-.07.09-.16.17-.18.27-.21,1.24-.64,2.25-1.56,3.26-.72.79-.59,2.35-.82,3.52.87.2,1.6.53,2.3.49.73-.05,1.61-.27,2.11-.74,1.16-1.1,2.33-1.06,3.65-.51.27.11.74.2.89.06,1.34-1.27,3.09-1.43,4.73-1.96,1.69-.55,3.2-.17,4.7.24.81.22,1.45,1.1,2.24,1.75,0-1.02.07-2.16-.02-3.28-.09-1.04-.46-2.03.39-2.98.2-.23-.05-.84-.05-1.28,0-1.82-.77-3.74.71-5.36.1-.11.18-.33.14-.46-.8-3.05,1.71-5.5,1.51-8.43,1.52-1.34,1.04-3.09,1.01-4.77,0-.29.43-.58.63-.88.29-.45.66-.9.81-1.4.36-1.27,1.63-2.44,2.77-2.41,1.1.02,2.27,1.18,2.46,2.56.44,3.22.82,6.44.3,9.71-.17,1.05.28,2.18.17,3.25-.18,1.79-.58,3.57-.89,5.35-.16.9-.58,1.83-.45,2.68.34,2.16.45,4.25-.15,6.41-.27.97-.05,2.08-.05,3.38Z"/><path d="m38.24,31.63c-.15,2.58-1.2,5.18-1.49,7.74-.14,1.23.17,2.39-.12,3.61-.13.55-.59,1.18-.49,1.77.05.32.38.71.27.91-.75,1.49-1.56,2.95-2.38,4.4-.19.33-.52.57-.76.87-1.21,1.52-3.67,1.79-5.18.57-.69-.56-1.43-1.05-2.09-1.64-1.77-1.58-1.89-3.72-1.22-5.67.72-2.07,1.25-4.23,1.85-6.27.68-2.32.85-4.68.73-7.09-.04-.71.52-1.44.6-2.18.19-1.67.87-3.18,1.34-4.76.34-1.16.61-2.41,1.26-3.38.56-.83.53-1.59.34-2.34-.26-1.05.14-1.72.91-2.25,1.26-.87,1.91-2.07,2.33-3.52.49-1.65,1.69-2.88,3.14-3.71,1.6-.91,3.22-.04,3.95,1.71.72,1.74,1.68,3.38,1.6,5.35,0,.25.16.53.3.77,1.66,2.71,2.75,5.61,3.04,8.8.05.58.28,1.13.52,2.07.62-1.17,1.14-1.97,1.49-2.83.63-1.58,1.16-3.2,1.74-4.8.06-.16.18-.35.13-.47-.71-1.96.83-3.45,1.1-5.2.19-1.28.07-2.6.91-3.79.61-.87,2.7-2.2,3.69-1.97,3.46.81,5.96,5.11,3.89,8.35-.28.44-.34,1.04-.45,1.58-.65,3.2-1.28,6.41-1.93,9.62-.05.26-.11.64-.29.74-1.44.84-1.02,2.25-1,3.46.02,1.5.14,2.97-.81,4.27-.06.09-.16.23-.13.3.88,1.89-.53,3.39-.82,5.07-.13.74.03,1.53-.12,2.26-.21,1.03.16,2.28-1.02,3-.17.1-.36.36-.36.54.08,2.58-2.05,3.44-3.71,4.52-1.13.73-2.37.05-3.38-.67-2.32-1.68-3.1-4.25-3.81-6.84-.28-1.02-.47-2.06-.74-3.08-.23-.83-.67-1.59-.25-2.53.14-.31-.22-.83-.31-1.26-.17-.84-.25-1.7-.48-2.52-.35-1.2-.8-2.37-1.21-3.56-.18,0-.37.02-.55.03Z"/><path d="m96.03,21.69c.24,1.11.46,2.23.71,3.33.76,3.27-.31,6.22-1.58,9.14-.51,1.16-.98,2.34-1.48,3.51-.43,1-.64,2.06-1.69,2.76-.49.32-.53,1.26-.87,1.87-.3.53-.74.99-1.14,1.46-.16.19-.41.3-.58.48-.61.65-1.09,1.72-1.82,1.91-2.05.54-3.21,2.2-4.79,3.32-.46.32-1,.52-1.51.78-.39.2-.92.3-1.16.61-1.43,1.84-3.3,1.75-5.31,1.4-.89-.15-1.87.12-2.74-.1-1.75-.45-3.47-1.06-5.15-1.72-.58-.23-1.06-.78-1.5-1.26-1.34-1.47-2.65-2.96-3.94-4.47-.39-.46-.79-.99-.94-1.56-.63-2.28-1.34-4.57-1.68-6.9-.23-1.59.14-3.27.18-4.91.02-.86-.27-1.77-.09-2.58.23-1.03.68-2.05,1.24-2.95.32-.52.67-.81.55-1.56-.08-.5.59-1.1.88-1.68.41-.8.85-1.6,1.13-2.45.49-1.47,1.93-1.86,2.92-2.76.43-.39.92-.71,1.37-1.08.13-.1.18-.36.3-.38,2.31-.5,3.39-2.6,5.09-3.87.58-.43,1.47-.81,2.14-.71,1.92.3,3.27-.84,4.75-1.62.67-.36,1.16-.36,1.85-.18,2.56.66,5.2,1.04,7.7,1.84,2.15.69,4.07,2.01,5.14,4.08,1,1.95,1.71,4.05,2.54,6.08-.18.06-.36.12-.55.18Zm-20.46,21.26c1.06-.25,2.95-.13,3.69-.99,1.13-1.31,3.28-1.85,3.41-4.01.01-.2.34-.47.58-.56,1.84-.68,2.61-2.48,3.91-3.72.5-.47,1.07-1.08,1.17-1.7.33-2.06.56-4.15.64-6.24.05-1.21-.11-2.46-.41-3.64-.48-1.87-2.37-2.32-3.76-3.13-1.03-.59-2.41-.57-3.63-.81-.15-.03-.33.02-.48.08-2.22.83-4.3,1.92-6.1,3.47-.7.6-1.27,1.35-1.99,1.93-1.45,1.18-2.51,2.57-2.97,4.43-.19.77-.67,1.47-1.01,2.21-.26.56-.74,1.14-.71,1.69.12,2.47.31,4.94.61,7.4.2,1.63,1.53,2.89,3.2,3.17,1.14.19,2.29.25,3.84.41Z"/><path d="m107.76,31.92c.89-1.54,2.3-2.8,2.24-4.86-.01-.39.45-.91.83-1.19.88-.64,1.08-1.45.99-2.47-.05-.53.25-1.09.2-1.62-.16-2.02,1.86-2.67,2.54-4.18.77-1.7,1.9-3.22,2.73-4.9.37-.76.44-1.68.55-2.55.32-2.49,3.02-3.82,5.13-2.52.28.17.62.24.88.42.47.33,1.03.63,1.33,1.08.83,1.27.71,5.69-.3,6.82-1.07,1.2-1.24,2.67-1.59,4.09-.2.81-.19,1.67-.37,2.48-.1.45-.3,1.1-.63,1.23-1.49.61-1.94,1.86-2.28,3.23-.35,1.41-.5,2.79-1.6,4.03-.84.95-.87,2.58-1.35,3.87-.24.63-.75,1.16-1.03,1.77-.23.49-.35,1.04-.42,1.58-.17,1.2-.02,2.49-1.31,3.26-.2.12-.25.58-.26.88-.08,1.66-.37,3.33-1.33,4.66-1.18,1.63-2.55,3.38-4.63,3.7-2.14.33-4.14-.37-5.59-2.25-1.46-1.9-2.66-3.8-2.15-6.37.1-.49-.12-1.15-.42-1.59-1.07-1.57-1.25-3.23-.81-5.03.11-.45-.03-.96-.04-1.44-.02-1.09-.03-2.18-.04-3.27,0-.28,0-.56-.04-.83-.37-2.23-.82-4.45-1.09-6.7-.1-.8.24-1.64.36-2.47.05-.38.12-.77.07-1.14-.28-1.97-.57-3.95-.89-5.91-.3-1.79.58-3.35,2.24-3.85,1.43-.44,2.77.14,3.44,1.77,1.09,2.67,2.02,5.4,3.01,8.1.02.05.05.12.04.16-.94,2.82.71,5.38.78,8.1.04,1.27.13,2.53.2,3.8.21.03.42.06.63.09Z"/><path d="m189.06,15.42c-2.49,1.07-4.94,1.11-6.36,3.35-.29.46-1.01.62-1.43,1.02-1.15,1.08-2.28,2.2-3.36,3.36-.15.16-.15.77,0,.87.73.53,1.49,1.08,2.33,1.39,1.01.37,2.11.5,3.17.74.05.01.11.06.16.05,1.96-.58,3.23,1.03,4.83,1.56,1.59.53,3.03,1.5,4.61,2.09,3.14,1.16,4.37,5.32,3.57,8.03-.2.67-.06,1.44-.16,2.15-.12.86-.09,1.87-.54,2.53-.85,1.23-1.99,2.27-3.04,3.35-.63.65-1.31,1.26-2,1.84-.81.67-1.5,1.36-2.68,1.65-2.33.58-4.54,1.65-6.82,2.44-.7.24-1.54.49-2.22.33-1.54-.36-3.35-.6-4.45-1.57-2.89-2.54-1.08-6.02,2.15-7.41.8-.35,1.73-.38,2.58-.63,2.32-.69,4.64-1.4,6.95-2.14.41-.13.77-.44,1.13-.7.88-.66,1.9-1.26,1.78-2.59-.07-.73-1.7-1.66-2.95-1.86-.74-.12-1.46-.41-2.18-.63-1.77-.53-3.54-1.07-5.32-1.61-1.9-.57-3.86-.94-5.56-2.11-1.83-1.27-2.71-3-2.88-5.15-.15-1.83-.27-3.67,1.01-5.23.04-.04.09-.09.09-.14,0-3.8,3.47-4.78,5.67-6.62,3.16-2.64,7.18-3.83,11.07-5.03,3.44-1.06,6.63,1.48,7.47,5.59.47,2.3.44,4.48-1.19,6.42-.72.85-2.67,1.77-3.68,1.5-1.19-.32-1.7-1.17-1.72-2.91-.01-1.15,0-2.3,0-3.91Z"/></svg>