<?xml version="1.0" encoding="UTF-8"?><svg id="Layer_1" xmlns="http://www.w3.org/2000/svg" viewBox="0 0 400 60"><g><path d="m311.86,45.41c1.27-.6,3.07-.75,4.27-2.13.32-.37.74-.94.77-1.83-.06-.17-.13-.35-.19-.52-1.63.41-3.32.66-4.86,1.27-2.63,1.04-5.23.71-7.21-.92-1.28-1.05-1.97-3.1-2.37-4.83-.33-1.45,0-3.12.32-4.64.16-.75.97-1.36,1.51-2.01.25-.3.69-.48.85-.8.89-1.76,2.58-2.21,4.25-2.77,1.78-.59,3.38-1.61,5.4-1.63,2.21-.02,4.31.04,6.32,1.09,1.86.97,3.76,1.68,4.49,4.06.41,1.32,2.31,1.93,2.33,3.67,0,.73.12,1.46.09,2.19-.02.74-.3,1.51-.19,2.23.46,3.17-1.09,5.43-2.79,7.95-2.35,3.46-6.14,4.88-9.04,7.5-.22.2-.63.2-.96.29-1.53.4-2.97.81-4.45,1.63-1.68.93-4,1.6-6.24,1.06-.55-.13-1.23-.17-1.75.02-2.23.83-4.36.44-6.53-.21-.88-.26-1.89-.5-2.75-.32-1.6.35-3.04.09-4.61-.16-1.29-.21-2.07-.69-2.88-1.58-.45-.5-1.19-.82-1.86-1.01-1.79-.5-2.58-2.12-1.74-3.81,1.18-2.38,3.48-3.36,6.23-2.87,1.54.27,3.2,0,4.71.38,2.14.52,4.28.09,6.45.41,2.82.41,5.81-.28,8.71-.64,1.19-.15,2.33-.65,3.69-1.05Zm-1.9-10.41c2.77.47,4.36.62,7.76-.12-5.7-7.07-7.51-3.19-7.76.12Z"/><path d="m243.69,33.11c.44-1.76-.06-3-1.38-4.07-2.02-1.64-2.19-2.81-.97-5.13.64-1.22,3.05-1.44,4.13-.43.52.49,1.12.9,1.68,1.35,2.97,2.38,4.55,5.63,4.25,9.28-.25,3.07-1.83,5.83-5.02,7.12-1.19.48-2.16,1.1-3.02,2.17-.95,1.18-2.52,1.61-4.11,1.31-.84-.16-1.43-.08-2.21.48-1.39,1-2.98,1.55-4.79.6-.61-.32-1.57-.08-2.35.06-.93.16-1.82.55-2.75.71-1.54.27-2.96.42-4.67.07-2.26-.46-4.94-1.18-7.29.35-.25.16-.74.25-.97.12-1.67-.97-3.32-1.84-5.34-2.01-1.42-.12-2.94-.54-4.17-1.25-1.91-1.1-3.8-2.37-5.37-3.9-1.68-1.64-2-3.81-1.44-6.21.43-1.82.3-3.77.45-5.67.34-4.26,5.57-7.08,9.32-5.05,1.29.7,1.84,2.01,1.13,3.94-.74,2.01-.66,3.98-.42,5.99.05.44.45,1,.85,1.21,1.06.55,2.18,1.02,3.32,1.37.82.25,1.72.38,2.57.34,1.95-.11,3.89-.45,5.84-.5.77-.02,1.74.26,2.28.77.95.91,2.14.68,2.86.35,1.91-.88,3.73-.2,5.59-.2,1.69,0,3.39-.02,4.8-1.2.25-.21.62-.57.83-.51,2.38.74,4.18-.87,6.37-1.47Z"/><path d="m267.84,34.46c.13-.03.58-.17,1.05-.25,1.31-.23,2.65-.68,3.94-.6,1.41.08,2.47-.28,3.61-1.05,1.21-.82,1.18-1.59.55-2.73-.81-1.48-1.5-3.02-2.15-4.58-.48-1.13-.23-2.31.79-2.92,1.18-.71,2.64-1.04,3.88-.14,1.95,1.4,3.66,3.02,4.11,5.58.32,1.8.82,3.57,1.13,5.38.46,2.63-2.16,6.45-4.79,7.15-3.2.85-6.34,1.93-9.59,2.53-2.47.46-5.05.96-7.51-.65-1.43-.93-3.38-1.05-4.39-2.7-.81-1.33-1.75-2.6-2.38-4-1.25-2.79-2.86-5.58-3.31-8.52-.46-3.01-1-5.86-2.01-8.76-.93-2.69-.73-5.77-.99-8.69-.15-1.62.46-3.09,1.81-3.86,1.6-.93,3.44-1.47,5.17-.09.4.32.88.71,1.04,1.17,1.21,3.39,2.35,6.81,3.49,10.22.34,1.03.85,2.07.89,3.12.13,3.31,1.56,6.26,2.29,9.4.1.44.11.93.04,1.38-.29,1.75,1.26,3.67,3.32,3.61Z"/><path d="m367.52,36.88c-.48,2.51-.66,4.92-1.42,7.13-1.11,3.24-3.03,6.27-5.86,8.1-2.03,1.31-4.23,2.85-7.19,2.59-2.72-.24-5.51.53-8.28.69-3.38.2-6.7-.22-9.96-1.23-.95-.3-2.05-.09-3.01-.36-2.12-.62-4.29-1.2-6.26-2.17-1.38-.69-.76-3.79.97-4.43,1.36-.5,2.96-.57,4.43-.47.76.06,1.32.09,2.07-.21,1.31-.53,2.73-.78,4.11-1.1.2-.05.49.16.69.32,1.05.84,2.1.73,3.24.15.45-.23,1.11-.36,1.57-.21,3.02,1.02,5.97.31,8.8-.55,1.9-.58,3.67-1.74,5.34-2.88,1.4-.96,1.72-3.18,1.05-4.74-.18-.41-.3-.89-.29-1.34.04-1.49-.53-2.54-1.83-3.38-2.08-1.33-3.11-5.36-2-7.25.83-1.42,2.6-1.96,4.14-1.48,3.19.99,5.43,2.89,6.59,6.11.35.96,1.4,1.64,1.81,2.59.58,1.33.87,2.78,1.26,4.13Z"/><path d="m289.47,28.25c-.43-3.87-.38-7.87-1.45-11.55-.83-2.86-1.3-5.66-1.55-8.56-.17-1.97.26-2.58,2.06-3.25,1.95-.72,2.94-.35,4.18.97,2.85,3.04,3.65,6.9,4.43,10.75.59,2.91,1.16,5.85,1.4,8.8.15,1.78-.25,3.63-.56,5.42-.24,1.37-.73,2.7-1.11,4.05-.04.13-.12.25-.21.35-2.39,2.37-4.75,3.65-6.24-.6-.71-2.01-.44-4.29-.94-6.37.2-.04-.2.04,0,0Z"/><path d="m279.5,50.91c.03,2.73-1.04,3.79-3.65,4.06-1.47.15-2.89.73-4.36.95-.96.14-1.97-.02-2.95-.04-1.26-.02-2.52-.06-3.78-.06-.39,0-.86.24-1.16.1-2.38-1.19-5.01-.63-7.47-1.15-2.97-.62-3.79-1.96-3.55-4.72.18-2,1.86-2.02,3.05-2.51,1.87-.78,3.87-1.3,5.85-1.74,1.54-.34,3.13-.41,4.71-.55,2.17-.19,4.33-.41,6.51-.47.84-.02,1.73.29,2.53.62.87.36,1.77.79,2.46,1.4,1.22,1.08,2.04,2.43,1.81,4.1Z"/><path d="m217.81,13.01c2.51.66,4.99.4,7.57-.04,1.69-.29,3.56.49,5.35.8,1.15.2,2.33.33,3.43.7,1.69.56,2.8,1.73,2.85,3.6.05,1.84-1.1,3.23-2.48,3.96-2.08,1.11-4.23,2.29-6.84,1.91-1.43-.21-2.94.07-4.41.08-.46,0-1.03,0-1.38-.25-1.19-.83-2.41-.78-3.7-.38-.32.1-.79.25-.99.11-1.79-1.29-3.71-2.48-5.25-4.04-1.01-1.03-.22-3.2.95-4.14,1.44-1.16,2.92-2.18,4.89-2.32Z"/></g><g><path d="m129.03,30.7c.99-.77,2.06-1.49,2.98-2.37.27-.26.18-.99.1-1.48-.23-1.32-.68-2.62-.79-3.94-.14-1.82,1.35-3.2,3.66-3.66,1.31-.26,2.61.66,3.24,2.29.28.75.54,1.5.93,2.6,1.49-1.75,2.78-3.2,3.99-4.72,1.11-1.39,2.18-2.78,4.05-3.18.26-.06.62-.33.76-.24,1.92,1.27,3.78-.11,5.66-.14,1.91-.04,3.55.64,5.3,1.17,2.34.71,3.24,2.11,3.92,4.43,1.26,4.28.07,8.14-3.79,10.21-.44.24-.78.68-1.3,1.14,1.5.81,2.8.27,4.13.22,1.24-.04,2.49.5,3.91.82.23-1.8.49-3.4.61-5.01.13-1.73.79-3.04,1.77-4.55,1.33-2.04,2.99-3.2,5.05-3.7,2.35-.57,4.88-1.12,7.06.81.41.37,1.09.52,1.66.6,2.5.34,3.99,1.89,4.78,4.13.89,2.54,1.25,5.53-.16,7.58-1.39,2.01-2.29,5.05-5.69,5.29-2.02.14-3.71,1.57-5.81,1.99-1.67.34-3.3.29-4.91.36-1.85.07-3.7-.43-5.59.1-.71.2-1.59-.35-2.39-.33-1.33.04-2.66.39-3.99.38-1.52-.01-3.05-.27-4.57-.43-2.71-.28-5.42-.52-8.11-.86-.68-.09-1.47-.33-1.93-.78-1.21-1.16-2.18-2.59-3.43-3.71-.94-.84-2.15-1.36-3.09-1.93-1.21.74-2.24,1.46-3.35,2.02-1.19.6-1.8,1.47-1.92,2.79-.1,1.09-.41,2.17-.45,3.26-.12,3.51-2.56,5.14-5.22,6.61-.46.26-1.11.39-1.36.78-1.45,2.21-3.68,2.54-6.03,2.94-2.61.44-5.16,1.22-7.73,1.86-.26.06-.52.2-.78.21-2.46.1-4.92.16-7.38.26-.6.02-1.21.14-1.81.19-.62.05-1.24.07-1.86.09-.67.02-1.35.09-2.01.03-2.18-.19-4.61.09-6.45-.81-1.91-.93-3.44-2.91-3.99-5.23-.39-1.63.7-3.46,2.58-4.09,1.17-.4,2.48-.46,3.74-.52,1.7-.08,3.4-.03,5.1,0,2.1.05,4.2.18,6.3.23.74.02,1.49-.06,2.22-.19,1.4-.24,2.79-.76,4.18-.75,2.08,0,3.38-1.75,5.33-1.97,1.34-.15,2.68-.48,3.97-.88.51-.16.89-.73,1.43-1.2-1.91-.39-3.48-.65-5.02-1.04-1.57-.4-3.08-1.11-4.66-1.38-4.58-.77-7.34-6.64-4.99-10.79,1.64-2.89,4.64-4.53,8.34-5.05,3.13-.44,5.33,1.1,7.83,2.12.86.35,1.53,1.3,2.12,2.11,1.02,1.39,1.9,2.89,2.86,4.32.18.27.49.47,1.02.97Zm26.2-8.27c-1.1.21-1.77.37-2.44.45-1.67.2-3.1.63-3.95,2.34-.55,1.12-1.49,2.05-2.19,3.11-.19.29-.14.74-.2,1.11.44.05.96.27,1.31.12,2.7-1.2,5.39-2.41,8-3.78.56-.29,1.17-1.4,1.01-1.9-.21-.67-1.15-1.11-1.55-1.45Zm18.22,9.9c3.36.88,3.88.88,5.61-.03,1.28-.67,1.93-2.87.91-3.57-.89-.62-2.09-1.13-3.15-1.12-2.84.03-3.88,1.68-3.37,4.72Zm-54.59-.54c.05-.21-.05-.92,0-1.12-.19-.42-.35-.87-.58-1.27-.61-1.06-3.13-2.46-4.21-1.77-1.31.83-1.2,3.32-1.23,3.74-.03.33,1.78.33,2.12.42,1.49.23,2.57-.25,3.9,0Z"/><path d="m80.34,34.15c-.41-1.21-.92-2.4-1.21-3.64-.22-.93-.58-2.36-.13-2.8.78-.76,2.17-1.33,3.25-1.26,1.64.11,3.06,1.01,3.68,2.79.15.43.57.85.97,1.09,1.18.71,1.33,1.78,1.26,3-.06,1.11-.15,2.26.03,3.35.65,3.96.6,7.64-3.2,10.19-.27.18-.56.48-.66.78-.79,2.54-3.31,2.83-5.13,4.06-2.58,1.74-5.35,2.41-8.41,2.2-.42-.03-.86.34-1.29.54-2.19,1.01-4.4,1.16-6.74.41-.82-.26-1.84,0-2.75.12-.66.08-1.34.55-1.94.44-3.21-.58-6.55-.52-9.5-2.3-1.67-1.01-3.26-3.47-3.06-5.39.04-.38.17-.97.42-1.08,2.12-.91,4.22-2.08,6.44-2.47,1.65-.29,3.49.73,5.24.7,3.5-.06,7.09.69,10.49-1.03,1.13-.57,2.61-.43,3.89-.76,1.82-.47,4.12-.55,5.27-1.72,1.78-1.81,3.42-4.16,2.61-7.21.15,0,.3-.01.45-.02Z"/><path d="m50.21,40.92c-.88.31-1.8.52-2.62.94-1.22.64-2.32,1.43-3.72.33-.3-.23-.98-.2-1.38-.03-.96.41-1.59-.13-2.43-.4-3.35-1.09-4.68-4.14-6.63-6.53-.92-1.13-1.37-2.65-.41-4.18.19-.31.15-.81.12-1.21-.15-1.59.31-2.91,1.5-4.02.3-.28.31-.84.53-1.22.35-.61.74-1.2,1.14-1.78.19-.27.6-.48.62-.75.34-3.18,3.02-2.88,5.09-3.48.26-.08.6-.02.79-.17,3.69-2.8,7.44-.49,11.12-.01.91.12,2,1.1,2.46,1.98,1.03,1.95,3.41,3.26,2.82,6.04-.14.67.62,1.5.64,2.26.06,1.7-.12,3.35-1.2,4.86-.98,1.38-1.59,3.02-2.52,4.44-.39.6-1.15.96-1.76,1.41-.26.19-.72.25-.82.49-.68,1.59-2.06,1.2-3.36,1.02Zm-3.55-16.28c-.99.16-2.33.29-2.87,1.76-.68,1.89-1.35,3.79-1.93,5.72-.24.82.78,1.89,1.67,1.91,1,.01,2.03.11,3-.06.98-.17,2.01-.47,2.83-1,.89-.57,1.58-1.45,2.32-2.23,1.02-1.07.89-3.45-.08-4.59-1.27-1.49-2.98-1.37-4.95-1.51Z"/><path d="m59.74,7.83c.05,3.21-1.63,4.94-4.28,5.3-2.27.31-4.5.96-6.77,1.33-1.19.19-2.42.12-3.63.13-.67,0-1.59-.39-1.97-.08-1.7,1.37-3.25.09-4.8-.14-2.12-.31-4.22-3.83-3.68-5.89.11-.42.49-.83.84-1.12,1.58-1.27,3.08-2.48,5.41-2.39,1.71.07,3.44-.66,5.17-.98.52-.09,1.1-.14,1.59.01,1.37.41,2.57,0,3.92-.27,2.93-.61,5.59.51,7.76,2.51.44.41.39,1.36.45,1.58Z"/><path d="m101.3,14.31c1.19-.19,2.09-.34,3.24-.52-.17-1.39-.4-2.71-.46-4.04-.04-1.17-.48-2.56,1.1-3.19,1.28-.51,3.67.19,4.25,1.62.74,1.83,2.11,2.59,3.79,3.13.53-.4,1.11-.83,1.82-1.36-.27-1.16-.56-2.38-.84-3.55,2.41-1.48,3.63-.86,4.74,1.61,1.16,2.56.97,4.64-.9,6.73-1.9,2.12-5.3,3.17-7.91,2.01-1.06-.47-1.73-.46-2.46.43-2.27,2.78-5.19,2.32-8.09,1.46-2.82-.84-3.79-3.23-4.12-5.81-.18-1.43.24-2.94.44-4.41.24-1.76,1.64-1.84,2.93-1.81,1.33.03,1.84,1.07,2,2.22.13.94.09,1.9.16,2.84.07.85.19,1.69.3,2.64Z"/></g></svg>