<?xml version="1.0" encoding="UTF-8"?><svg id="Layer_1" xmlns="http://www.w3.org/2000/svg" viewBox="0 0 221.18 60"><path d="m141.34,28.29c-.18-.37-.33-.66-.58-1.17-.44,1.04-.8,1.89-1.24,2.91-.26.18-.76.46-1.16.85-.21.21-.36.63-.32.93.09.71-.21,1.25-.49,1.86-.4.89-.95,1.74-.92,2.79.05,1.63-.91,2.88-1.66,4.21-.22.39-.51.75-.79,1.11-.73.93-1.87.82-2.84.94-2.59.32-4.46-1.13-6.12-2.87-.23-.24-.19-.79-.16-1.18.04-.47,0-.78-.31-1.23-.49-.73-.66-1.68-.95-2.54-.11-.33-.2-.67-.23-1.01-.05-.91-.58-1.77-.24-2.73.08-.22-.14-.54-.28-1.03-.53,1.02-.97,1.8-1.32,2.62-.1.24.04.58.09.88.04.26.25.59.15.75-.55.88-.55,2.01-1.31,2.81-.23.24-.17.75-.2.9-.61.95-1.19,1.71-1.62,2.54-.41.8-.67,1.69-.99,2.53l.22.11c-.57.47-1.22.87-1.68,1.43-.23.27-.12.82-.18,1.46.05-.03-.19.05-.23.19-.55,1.83-2.65,2-3.62,3.38-.19.28-.5.49-.63.79-.79,1.69-3.47,2-4.63.53-.54-.68-.74-1.37-.43-2.23.38-1.08.23-2.11-.33-3.14-.2-.38-.01-1.04.14-1.52.35-1.1.79-2.18,1.19-3.27.04-.11.11-.24.08-.33-.24-.93.38-1.38.86-2.05.54-.75,1.23-1.54,1.15-2.76-.1-1.49.27-3.01,1.68-3.97.09-.06.24-.14.25-.22.12-1.62,1.39-2.87,1.41-4.54,0-.83.31-1.65.48-2.47,0-.04,0-.1.03-.11,1.27-.8.64-2.51,1.74-3.49.55-.5.56-1.6.82-2.43.11-.35.15-.79.38-1.03.88-.92,1.17-2.01,1.16-3.23,0-.21.05-.54.19-.63,1.37-.85,2.07-2.33,3.19-3.37.82-.76,1.97-1.17,3-1.68.24-.12.62-.13.87-.02,1.69.74,3,1.99,4.23,3.31.24.26.3.7.38,1.07.17.77.1,1.69.51,2.29.45.67.46,1.33.67,2.01.23.76,0,1.26-.49,1.85,1,1.11,1.77,2.32,1.64,4,.97-1.41.94-1.41,1-3.18.01-.33.31-.66.52-.96.21-.3.58-.53.7-.85.28-.79.68-1.37,1.46-1.81.79-.45.87-1.47,1.14-2.28.27-.81.56-1.5,1.22-2.13.56-.54.9-1.42,1.1-2.21.28-1.06,1.27-1.96,2.42-1.92.23,0,.48.07.68,0,1.07-.4,2.06-.11,2.89.5,1.27.92,2.64,1.81,3.61,3.01.65.8,1.16,1.95.93,3.22-.1.55.02,1.28.33,1.74.89,1.35,1.31,2.8,1.43,4.41.12,1.49.34,2.99.76,4.42.26.87.07,1.61-.11,2.37-.29,1.26-.3,2.41.06,3.71.29,1.03,1.08,2.1.56,3.32-.05.12,0,.34.07.44.67.79.16,1.39-.21,2.1-.29.56-.52,1.25-.46,1.86.12,1.26.39,2.5-.08,3.75-.05.13,0,.31.04.46.2.84.4,1.68.62,2.52.27,1.04.69,2.06.79,3.11.05.53-.45,1.13-.73,1.67-.24.47-.58.89-.79,1.37-.33.75-.65,1.43-1.68,1.23-.21-.04-.46.07-.67.14-.84.29-1.6.33-2.44-.15-.82-.47-1.8-.67-2.64-1.1-.85-.44-1.73-.92-2.37-1.59-.38-.4-.46-1.2-.46-1.82,0-.44.03-.77-.31-1.14-.57-.61-.62-1.33-.41-2.17.15-.6.06-1.27,0-1.9-.14-1.29-.16-2.52.69-3.64.17-.23.11-.67.07-1.01-.11-.92-.34-1.83-.37-2.76-.03-.71.11-1.44.28-2.14.18-.76.21-1.44-.35-2.06-.83-.92-.89-1.74-.23-2.77.1-.16.22-.32.37-.55Z"/><path d="m40.14,11.98c.66-.71,1.14-1.24,1.63-1.76.44-.47.83-.99,1.64-.86.43.07.9-.21,1.36-.21,2.21,0,4.02.75,5.02,2.88.21.45.43.94.78,1.28.92.9.48,2.05.66,3.08.02.13-.07.33-.18.41-1.21.96-.85,2.43-1.12,3.67-.23,1.05-.31,2.1-1.09,2.94-.14.15-.09.47-.14.77,1.39.21,2.63-.09,3.85-.38,1.5-.35,3-.57,4.53-.4.88.1,1.15-.04,1.19-.92.02-.56.26-.91.59-1.32.38-.48.7-1.05.9-1.64.33-.97.55-1.98.82-2.97.07-.26.13-.53.26-.76.36-.66.61-1.33.44-2.11-.18-.83.46-1.31.91-1.77.47-.48.69-.98.77-1.61.14-1.08.43-2.07,1.68-2.36.04,0,.08-.03.1-.06.75-1.28,1.91-.83,2.99-.7.6.07,1.19.22,1.88.35.58,1.02,1.25,2.03,1.59,3.31.36,1.36-.18,2.48-.36,3.7-.05.34-.17.69-.13,1.01.14,1.1.41,2.19.49,3.3.05.59-.1,1.23-.29,1.8-.39,1.17-.87,2.31-.59,3.6.04.19-.07.47-.2.62-.54.6-.52,1.34-.31,1.98.21.63.1,1.14-.14,1.67-.72,1.61-1.08,3.31-1.14,5.04-.03.94-.14,1.8-.37,2.7-.15.55.1,1.21.17,1.82.06.56.15,1.13.14,1.7,0,.76-.08,1.53-.16,2.29-.03.26-.16.51-.2.78-.13.75-.24,1.5-.36,2.26-.03.19.03.45-.07.56-.87.92-1.28,2.25-2.65,2.73-.65.23-1.21.75-2.06,1.3-.91-.37-2.11-.84-3.29-1.36-.22-.1-.37-.38-.52-.6-.17-.26-.28-.56-.47-.8-1.85-2.33-2.16-5.1-1.79-7.85.17-1.31.24-2.57.13-3.95-1.05-.66-2.1-.5-3.27.2-1.08-.77-2.1-.08-3.1.43-.31.16-.49.16-.81.11-.8-.12-1.62-.14-2.42-.09-.74.04-1.46.95-1.56,1.64-.15.98-.33,1.96-.62,2.91-.25.81-.5,1.58-.53,2.46-.02.81-.44,1.62-.71,2.42-.45,1.34-.93,2.67-1.36,4.02-.26.82-.53,1.05-1.47,1.17-.26.03-.55.1-.75.26-.71.58-1.49.79-2.38.57-.38-.1-.77-.22-1.14-.36-.32-.12-.61-.34-.93-.44-1.18-.36-1.88-1.22-2.59-2.18-1.09-1.47-1.74-3.09-2.16-4.82-.11-.46-.09-.99,0-1.46.13-.64.45-1.24.58-1.88.15-.75.41-1.41.78-2.11.36-.67.31-1.64.21-2.45-.15-1.21.21-2.15,1.18-2.81.45-.31.54-.62.57-1.14.04-.72.2-1.45.45-2.13.51-1.41,1.18-2.77,1.64-4.19.25-.78.08-1.69.31-2.48.23-.8.8-1.49.48-2.43-.09-.25.07-.77.28-.91.93-.61.89-1.54.96-2.46.02-.22-.04-.55.08-.65,1.45-1.22,1.27-2.92,1.4-4.35Z"/><path d="m165.75,39.69c1.43.69,2.86.46,4.27,0,.27-.09.55-.34.7-.59.37-.62,1.07-.79,1.51-.59.96.43,1.81-.2,2.71-.02.22.04.49-.15.74-.23.57-.18,1.14-.4,1.73-.51.69-.13,1.35-.19,1.89-.76.45-.47,1.06-.48,1.73-.37.95.15,1.8.88,2.84.55.31-.1.64-.18.94-.32.82-.39,1.35-.29,2,.39.13.13.29.27.47.32,1.58.46,1.94,1.89,2.42,3.16.41,1.08.56,2.24-.02,3.35-.07.13-.08.3-.17.43-.79,1.12-1.6,2.24-2.31,3.23-.62.18-1.16.34-1.7.5-.19.06-.36.15-.55.18-1.31.2-1.31.19-1.9.81-.79.17-1.38.28-1.95.43-.86.22-1.71.52-2.59,0-.19-.11-.51-.01-.77-.01-.46,0-.93.08-1.38,0-.38-.07-.59.07-.91.21-.79.34-1.67.46-2.52.67-.62.15-1.25.3-1.87.45-.26.06-.54.22-.78.18-1.19-.19-2.18.33-3.18.84-1.15.58-2.8.72-4.07.43-.41-.09-.91-.05-1.31.1-.58.22-1.09.42-1.6-.09-.08-.08-.2-.13-.3-.16-2.35-.8-3.59-2.61-4.39-4.83-.51-1.41-1.29-2.77-1.49-4.22-.21-1.47-.56-3.04.04-4.54.06-.14.19-.31.16-.43-.23-.96.39-1.59.82-2.32.18-.3.24-.71.23-1.07-.02-.89-.13-1.77.34-2.6.14-.25.16-.61.12-.9-.12-1-.23-1.97.08-2.97.2-.65.3-1.33.38-2.01.12-1.06.14-2.13.29-3.19.07-.55.27-1.1.5-1.61.29-.66.84-1.22.45-2.04-.08-.18.06-.54.22-.73.57-.72.9-1.5.97-2.43.1-1.38.2-2.76.46-4.11.1-.54.6-1.02.96-1.49.13-.17.51-.17.59-.34.53-1.12,1.41-1.26,2.49-.98.21.05.56.05.68-.07.98-1.05,2.29-.6,3.45-.8.52-.09,1.02-.28,1.53-.4.21-.05.47-.12.66-.05.74.3,1.44.16,2.14-.09,1.68-.6,3.42-.51,5.16-.47.71.02,1.37,0,1.94-.53.2-.18.54-.29.81-.29.91,0,1.84.18,2.74.08,1.27-.14,2.15.32,2.69,1.41.33.67.53,1.42.8,2.12.38.99-.3,1.76-.54,2.61-.1.36-.33.69-.56.99-.18.23-.43.48-.69.56-.62.17-1.29.42-1.89.33-1.33-.2-2.4.42-3.58.75-.98.27-1.86,1.19-3.03.68-.03-.01-.09-.02-.11,0-1.05,1.06-2.56.59-3.77,1.15-.55.26-1.24.23-1.84.32-.62.38-1.29.74-1.89,1.19-.26.2-.5.6-.51.91-.01.69-.02,1.45.24,2.06.46,1.12.13,2.11-.24,3.29.47.08.98.33,1.32.18,1.47-.62,3.02-.99,4.5-1.54,2.82-1.05,5.35-.88,7.16,1.95.37.57.33,1.39.58,2.06.43,1.15-.34,2.06-.57,3.08-.07.3-.45.63-.76.76-.8.32-1.59.68-2.49.7-1.3.03-2.33.95-3.56,1.22-.58.13-1.18.15-1.78.2-.18.02-.4-.1-.55-.05-.78.29-1.55.61-2.32.94-.66.28-1.31.6-1.97.87-.5.2-.91.45-.89,1.07,0,.08.03.18,0,.23-.68.9-.41,1.85-.08,2.87Z"/><path d="m98.86,47.48c-1.47-.25-2.6.39-3.14,1.81-.59-.03-1.2-.07-1.8-.1-1.52-.09-2.78.42-3.82,1.55-.46.5-.97.72-1.75.43-1.17-.44-2.53-.45-3.62-1.02-1.45-.75-3.08-1.12-4.39-2.15-.27-.22-.56-.43-.78-.69-.37-.43-.79-.71-1.39-.73-.56-.03-.98-.27-1.32-.79-.46-.69-1.19-1.21-1.6-1.92-.47-.81-.72-1.74-1.08-2.62-.22-.53-.4-1.1-.72-1.56-.82-1.19-1.4-2.49-1.74-3.88-.17-.69-.07-1.45-.09-2.17-.02-.57,0-1.15-.04-1.72-.06-.77-.17-1.53.41-2.17.09-.1.16-.3.13-.44-.25-1.19.7-1.86,1.23-2.67.29-.44.46-.87.3-1.27-.42-1.02.29-1.47.87-2.01.19-.18.5-.35.52-.56.11-.93.73-1.46,1.36-2.04.49-.46.82-1.08,1.26-1.6.29-.34.65-.61,1.08-1-.11-.91.6-1.29,1.41-1.69.59-.29,1.05-.92,1.65-1.13.62-.21,1.46.14,2.02-.14.8-.39,1.42-1.13,2.12-1.71,1.53-1.25,3.27-1.81,5.24-1.56.68.81,1.61.41,2.44.51.18.02.41.08.54,0,1.07-.61,2.14-.2,3.17.03.56.13,1.07.58,1.53.97.33.28.59.41,1.02.25.87-.31,1.54-.23,2.15.69.46.7,1.33,1.13,2.01,1.69.29.24.56.5.8.79,1.11,1.33,2.13,2.69,2.77,4.36.34.88.28,1.58.17,2.43-.1.77.14,1.6.31,2.39.46,2.05,1.02,4.09.81,6.22-.03.31-.23.67-.46.9-1.1,1.1-1.86,2.44-2.55,3.8-.42.83-.49,1.85-.71,2.79-.11.48-.25.97-.3,1.46-.06.65-.51.91-1.01,1.15-.38.18-.74.39-1.12.56-1.97.86-3.04,2.47-3.73,4.4-.02.07-.1.11-.15.17Zm-8.56-24.09c-.86.17-1.51.3-2.16.42-.95.18-1.67.78-2.12,1.54-.52.88-.73,1.92-1.16,2.85-.34.72-.04,1.71-.85,2.18-.97.57-1.22,1.53-1.55,2.46-.63,1.75-.14,3.23,1,4.62,1.04,1.27,2.29,1.33,3.73.95.45-.12,1.05-.11,1.44.1.54.3,1.02.28,1.55.14,2.17-.55,3.73-1.89,4.9-3.75.36-.57.86-1.07.7-1.87-.05-.23.17-.6.37-.79.47-.44,1.15-.71,1.48-1.21.78-1.18,1.51-2.42,2.02-3.73.17-.44-.42-1.17-.65-1.77-.04-.1,0-.24-.04-.34-.34-.83-.21-1.88-.94-2.31-.74-.23-1.48-.23-1.77-.59-.71-.88-1.37-.74-2.23-.36-.68.3-1.42.61-2.14.63-1.1.03-1.12-.06-1.59.83Z"/></svg>