<?xml version="1.0" encoding="utf-8"?>
<!-- Generator: Adobe Illustrator 26.3.1, SVG Export Plug-In . SVG Version: 6.00 Build 0)  -->
<svg version="1.1" id="Layer_1" xmlns="http://www.w3.org/2000/svg" xmlns:xlink="http://www.w3.org/1999/xlink" x="0px" y="0px"
	 viewBox="0 0 221.18 60" style="enable-background:new 0 0 221.18 60;" xml:space="preserve">
<style type="text/css">
	.st0{fill:#0066CC;}
	.st1{fill:#FFFFFF;}
	.st2{fill:#3399FF;}
	.st3{fill:#FF0000;}
	.st4{fill:#FF0A0A;}
	.st5{fill:#003399;}
	.st6{fill:url(#SVGID_1_);}
	.st7{fill:url(#SVGID_00000143610716808706369050000004889146109696555950_);}
	.st8{fill:url(#SVGID_00000024711151663568249180000008479439144466074262_);}
	.st9{fill:#009933;}
	.st10{fill:url(#SVGID_00000073722413949713216980000007171411991858316174_);}
	.st11{fill:url(#SVGID_00000160175933775982787880000017727477068190226096_);}
	.st12{fill:url(#SVGID_00000001621929079510580080000011333862550697032366_);}
</style>
<g>
	<path d="M167.36,41.91c-2.1,0.13-2.49-1.83-3.51-2.96c-0.55-0.62-0.83-1.49-1.63-1.88c-0.58-0.04-0.62,0.42-0.77,0.76
		c-0.49,1.11-1.27,1.77-2.56,1.89c-0.6,0.06-1.17,0.27-1.66,0.62c-0.83,0.58-1.57,0.66-2.41,0.13c-1.02-0.65-2.16-0.31-3.25-0.31
		c-0.36-0.19-0.7-0.08-1.04,0.08c-0.85,0.34-1.62,0.85-2.64,0.67c-0.7-0.12-1.39,0.24-1.99,0.59c-0.94,0.54-1.95,0.83-3,1.03
		c-0.31,0.2-0.74-0.08-1,0.27c-0.79,0.01-1.08,0.65-1.36,1.19c-1.02,1.99-2.18,3.8-4.35,4.76c-0.54,0.24-1.19,0.85-1.27,1.36
		c-0.2,1.31-1.23,1.49-2.11,1.92c-0.68,0.49-1.49-0.52-2.16,0.18c-0.24,0.09-0.49,0.19-0.73,0.28c-0.6,0.18-1.48-0.26-1.69,0.76
		c-1.12,0.55-2.17,0.84-3.54,0.81c-1.32-0.03-2.92,0.04-4.3,0.9c-1.57,0.97-3.29,1.41-4.96-0.18c-0.82-0.78-1.93-1.16-3.2-0.73
		c-0.89,0.3-1.81-0.11-2.34-0.83c-0.89-1.2-2.12-1.86-3.37-2.53c-2.17-1.17-3.4-4.7-2.41-6.94c0.84-1.89,3.39-2.67,5.54-1.59
		c0.56,0.28,0.88,0.64,1.61,0.29c0.48-0.23,1.35-0.2,1.8,0.29c2.43,2.58,5.01,2.17,7.62,1.29c0.9-0.3,1.85-0.31,2.8-0.38
		c0.07,0,0.15-0.02,0.23-0.05c1.6-0.01,2.8-0.85,3.95-1.79c-0.22-0.73-0.81-1.01-1.29-1.42c-2.3-1.95-3.68-4.39-3.73-7.47
		c-0.01-0.73-0.2-1.4-0.37-2.1c-0.41-1.65-0.42-3.33,0.51-4.82c0.87-1.39,0.73-3.13,1.85-4.46c1.17-1.38,4.09-2.69,5.74-2.01
		c1.82,0.74,3.84,1.23,5,3.08c0.16,0.25,0.46,0.45,0.74,0.57c2.7,1.18,3.49,3.6,4,6.19c0.05,0.23,0.06,0.47,0.11,0.71
		c0.54,3.01,1.37,3.35,3.92,1.63c0.59-0.4,0.92-0.84,0.65-1.56c-0.94-2.49-0.4-5.18-1.13-7.73c-0.56-1.96-0.4-4.05,0.03-6.08
		c0.35-1.7,2.13-2.68,3.77-2.11c1.71,0.59,3.15,1.39,3.62,3.48c0.72,3.14,1.63,6.23,2,9.45c0.11,0.95,0.29,1.89,0.76,2.74
		c0.02,0.38,0.2,0.52,0.57,0.39c1.73,0.09,2.74-0.86,3.36-2.35c0.49-0.58,0.04-1.32,0.35-1.93c-0.29-2.21-0.64-4.42-0.84-6.64
		c-0.16-1.74-0.4-3.45-0.75-5.17c-0.57-2.76-0.7-5.63,0.45-8.34c0.57-1.34,2.81-2.12,4.07-1.54c1.65,0.76,2.5,1.99,2.74,3.84
		c0.45,3.53,1.43,6.96,2.61,10.3c0.76,2.15,1.45,4.3,2.06,6.5c0.38,1.36,0.3,2.67,0.41,4.01c0.13,1.61,0.2,1.73,1.73,1.85
		c0.46,0.04,0.91,0.1,1.35,0.24c1.76,0.54,2.92-0.36,2.58-2.1c-0.37-1.87-0.87-3.71-1.37-5.56c-0.1-0.36-0.36-0.78-0.66-0.95
		c-1.58-0.87-1.85-2.57-2.11-3.96c-0.65-3.49-1.28-7.02-1.01-10.62c0.16-2.16,2.26-3.88,4.39-3.62c0.6,0.07,1.07,0.11,1.29,0.78
		c0.09,0.28,0.35,0.63,0.6,0.7c1.53,0.42,1.66,1.7,1.97,2.94c0.58,2.34,1.23,4.67,3.13,6.36c0.38,0.34,0.45,0.8,0.6,1.26
		c0.68,2.01,0.52,4.27,1.9,6.08c0.3,0.4,0.32,1.07,0.34,1.61c0.1,2.85,0.47,5.73,0.15,8.53c-0.26,2.27-0.81,4.59-2.3,6.6
		c-1.09,1.48-2.66,2.14-4.07,3.06c-0.47,0.31-1.08,0.96-1.88,0.79c-0.27-0.41-0.59-0.41-0.94-0.1c-1.29,0-2.55,0.14-3.8-0.56
		c-0.67-0.38-1.6-0.55-2.47-0.31C168.03,41.52,167.71,41.61,167.36,41.91z M130.13,28.93c-0.4,0.73-0.22,1.38-0.21,2
		c0.04,1.52,1.06,2.38,2.24,3.09c0.33,0.2,0.79,0.26,1.13,0.03c0.38-0.26,0.22-0.66,0.19-1.06
		C133.32,30.89,132.47,29.4,130.13,28.93z"/>
	<path d="M61.27,53.33c-2.37,0.46-4.67,0.61-6.86-0.84c-0.56-0.37-1.49-0.26-2.24,0.06c-0.15-0.06-0.3-0.12-0.44-0.18
		c-1.42-0.25-2.73-0.95-4.24-0.95c-0.85,0-1.73-0.34-2.32-1.04c-1.27-1.47-2.97-2.53-3.75-4.49c-0.49-1.24-1.81-1.96-2.33-3.42
		c-0.51-1.43-0.74-2.84-0.96-4.29c-0.14-0.92,0.11-1.9-0.65-2.71c-0.62-0.67,0.71-1.54-0.11-2.27c0.99-0.82,0.41-2.14,0.85-2.99
		c0.78-1.52,1.05-3.21,1.95-4.68c0.51-0.84,1.31-1.26,2.06-1.33c2.52-0.23,5.97,1.38,5.66,4.79c-0.17,1.9-0.39,3.76-0.87,5.59
		c-0.54,2.1,0.22,4.05,1.4,5.5c0.67,0.83,2.15,1.54,3.4,1.8c1.97,0.41,4,0.95,6.03,0.15c0.61,0.12,1.15,0.09,1.32-0.67
		c0.1-0.38,0.11-1.02,0.33-1.1c2.39-0.93,1.57-2.84,1.32-4.44c-0.71-4.74-2.78-9-5.03-13.16c-0.38-0.7-0.06-1.34-0.32-2.04
		c-1.5-3.95-1.52-8.11-1.46-12.26c0.03-1.8,1.03-2.95,2.54-3.22c2.04-0.36,3.87,0.66,4.61,2.51c0.95,2.37,1.17,4.91,1.84,7.35
		c0.32,1.16,0.62,2.31,1.28,3.33c0.11,0.33,0.22,0.66,0.33,0.99c0.02,1.14,0.54,2.14,0.96,3.14c1.18,2.76,1.68,5.73,2.76,8.52
		c0.25,0.64,0.49,1.07,1.16,1.35c1.14,0.48,2.27-0.07,2.2-1.27c-0.05-1.02-0.23-2.05-0.51-3.04c-0.53-1.89-0.48-3.78-0.27-5.69
		c0.14-1.25,1.21-2.63,2.22-2.83c1.89-0.36,3.07-0.02,3.66,1.65c1.01,2.87,2.85,5.5,2.78,8.73c-0.01,0.53,0.23,1.08,0.39,1.61
		c0.43,1.44,1.38,2.04,2.87,1.72c0.44,0.14,0.54-0.07,0.47-0.46c-0.34-2.11-0.39-4.24-1.05-6.32c-0.29-0.94,0.12-2.17,0.4-3.22
		c0.5-1.82,1.28-3.54,2.17-5.2c0.84-1.58,3.08-2.45,5.31-1.96c3.6,0.78,6.62,2.68,8.62,5.72c1.24,1.88,1.73,4.22,1.45,6.59
		c-0.2,1.66-0.38,3.33-0.59,4.99c-0.08,0.63-0.16,1.31-0.7,1.72c-1.66,1.26-2.37,3.68-4.83,3.95c-1.05,2.09-3.64,0.9-5.01,2.33
		c-0.12,0.13-0.47,0.11-0.7,0.06c-2.91-0.64-5.82,0.11-8.72,0.05c-2.52-0.05-2.68-0.19-4.26-2.49c-1.12,0.2-2.18,0.61-3,1.51
		c-0.4,0.45-0.91,0.59-1.48,0.66c-1.88,0.22-2.14,0.62-2.42,2.43c-0.36,2.32-0.99,4.58-1.99,6.73c-0.34,0.74-0.74,1.17-1.58,1.15
		c-1.14-0.03-2.06,0.49-2.85,1.26C61.82,52.94,61.54,53.13,61.27,53.33z M90.22,28.35c0,0.76-0.01,1.62,0,2.49
		c0.02,0.97,0.6,1.33,1.34,0.68c0.98-0.86,1.87-1.86,2.46-3.06c0.29-0.6,0.21-1.04-0.48-1.31c-0.28-0.11-0.51-0.35-0.77-0.53
		c-0.81-0.58-1.21-2.29-2.18-1.86c-1.25,0.56-0.35,2.11-0.41,3.23C90.18,28.08,90.2,28.16,90.22,28.35z"/>
	<path d="M111.76,38.18c-2.09,0.03-4.19-1.11-4.62-3.11c-0.47-2.2-1.48-4.17-2.14-6.27c-0.29-0.92-0.5-1.78-0.54-2.74
		c-0.04-1.18-0.3-2.31-0.87-3.4c-0.71-1.34-0.9-2.86-1.03-4.35c-0.18-2.05-0.13-4.11-1.26-5.99c-0.44-0.73,0.28-1.54,0.62-2.15
		c0.75-1.34,4.69-2.44,6.18-1.97c0.46,0.15,0.55,0.51,0.74,0.84c0.46,0.81,1.08,1.74,1.2,2.48c0.5,3.22,2.7,5.76,3.2,9.01
		c0.48,3.11,1.81,6.08,2.23,9.23c0.14,1.09,0.55,2.1,0.54,3.26c-0.03,1.9-0.98,3.3-1.94,4.74
		C113.79,38.17,113.74,38.14,111.76,38.18z"/>
	<path d="M130.88,16.34c1.53-0.28,3.09,0.52,4.67,0.66c2.26,0.2,3.5-0.93,4.16-2.95c0.67-2.06,0.37-4.06-0.38-6.01
		c-0.2-0.53-0.73-0.84-1.24-1.07c-1.51-0.66-3.19-0.68-4.74-1.31c-0.75-0.3-1.15,0.91-1.87,1.19c-0.21,0.08-0.48,0.12-0.7,0.07
		c-1.23-0.31-2.49,0.06-3.71-0.12c-2.34-0.33-4.27,0.62-6.17,1.71c-1.44,0.83-2.22,1.96-2.08,3.76c0.09,1.14-0.05,2.4,0.94,3.06
		c1.17,0.77,2.11,2.05,3.72,2.03L130.88,16.34z"/>
</g>
</svg>
