<?xml version="1.0" encoding="UTF-8"?><svg id="Layer_1" xmlns="http://www.w3.org/2000/svg" viewBox="0 0 221.18 60"><path d="m148.15,31.4c-.07-.81-.04-1.64-.23-2.42-.33-1.34-.4-2.73-1.44-3.91-.97-1.1-1.57-2.52-2.37-3.78-.26-.41-.58-1.02-.94-1.07-1.6-.22-3.17-.9-4.83-.04-1.45.75-1.92,1.8-1.2,3.29.18.37.32.77.53,1.12.34.55.62,1.26,1.12,1.56.63.37.94.83,1.24,1.42.7,1.35.4,2.29-1.02,2.86-1.53.61-3.08,1.2-4.61,1.83-1.26.52-2.52.6-3.84.28-.64-.16-.92-.46-.89-1.13.1-2.19-.65-4.17-1.68-6.05-.29-.54-.6-1.18-1.36-1.32-.61-.11-1.21-.27-1.83-.37-2.14-.34-3.6.62-3.98,2.51-.2,1.02-.19,2.11-.44,3.15-.14.55-.14,1.15-.34,1.67-.26.63-1.08.39-1.44.66-.9.65-1.73.95-2.87.93-.99-.03-1.99.48-2.9.72-.54-2.15-.99-4.13-1.55-6.08-.18-.61-.5-1.43-.99-1.66-1.56-.72-3.21-.71-4.72.28-.28.19-.54.57-.61.91-.16.72-.25,1.47-.27,2.21-.08,2.08-.22,4.18.9,6.08-.76.6-1.42,1.09-2.33.48-.05-.79-.03-1.59-.16-2.36-.14-.87-.2-1.7-.07-2.59.18-1.26-.02-2.49-.85-3.55-.33-.42-.62-.87-1.01-1.43-.56.11-1.17.36-1.76.32-.8-.06-1.26.34-1.66.89-.4.57-1.06,1.17-1.07,1.76-.06,2.16-.78,4.36.17,6.49.08.17.08.37.14.66-.46.08-.84.15-1.18.21-.1-1.13-.3-2.16-.24-3.18.06-.98-.18-1.79-.68-2.59-.19-.29-.35-.68-.31-1,.13-1.36-.5-2.84-1.78-3.38-.82-.35-1.84-.6-2.66-.42-.91.21-1.7.96-2.39,1.38-.06,1.16.12,2.24-.24,3.1-.54,1.32-.68,2.61-.48,4.01-.18.07-.34.21-.47.19-.83-.12-1.56.11-2.26.54-.27.16-.64.18-.97.22-.64.09-1.4-.04-1.91.26-.76.45-1.42.56-2.2.25-.09-1.18-.53-2.36.01-3.55.06-.16-.07-.4-.11-.61-.17-.89-.51-1.79-.48-2.68.05-1.87-.69-3.31-1.84-4.72-.6-.74-1.14-.55-1.74-.38-1.13.34-2.18.85-3.19,1.49-.9.57-1.37,1.46-1.37,2.32.02,1.73.33,3.47.59,5.19.13.82.38,1.62-.02,2.36-1.32,0-2.57-.06-3.82,0-1.24.08-2.48.28-3.64.42-.14-.7-.27-1.3-.37-1.9-.05-.29-.07-.59-.05-.88.06-.86.15-1.72.24-2.57.09-.87.06-1.78.31-2.6.49-1.55.19-3.06-.55-4.3-.76-1.29-.34-2.46-.09-3.57.2-.89.18-1.72-.19-2.36-.56-.97-.77-1.99-.97-3.02-.43-2.24-3.43-3.67-5.5-2.4-.84.52-2.1.55-2.42,1.79-.02.08-.3.09-.45.14-.46.16-.91.43-1.38.47-.88.08-1.44.8-2.19,1.03-1.07.33-2.19.48-3.07,1.28-.22.21-.6.28-.92.36-.6.14-1.26.13-1.8.38-1.4.65-2.9.87-4.37,1.24-.95.25-1.9.63-2.73,1.16-1.07.67-2.04,1.53-3.01,2.35-.41.34-.9.72-1.04,1.18-.49,1.67-.89,3.37-.03,5.06.45.88.91,1.75,1.33,2.65.52,1.12,1.27,1.97,2.39,2.58,1.2.64,2.39,1.36,3,2.71.09.2.37.34.6.43.72.27,1.33.73,2.21.73,1.26-.01,2.54.44,3.78.33,1.23-.11,2.37.49,3.69-.01,1-.37,2.27-.23,3.42-.53.15.27.29.47.4.69.64,1.27.85,2.67,1.92,3.82,1.57,1.7,3.24,2.84,5.6,2.72.66-.03,1.43.05,1.92-.27.58-.38,1.12-.42,1.74-.48,1.13-.11,2.43.48,3.34-.72.06-.09.32-.04.49-.04.86-.03,1.8.17,2.56-.12,1.78-.69,3.42-.03,5.06.31,1.49.32,2.94.52,4.42.16,1.71-.41,3.41-.91,5.11-1.4.62-.18,1.29-.37,1.81-.73.83-.57,1.61-.51,2.27.08.76.69,1.65.99,2.57,1.14,1.38.22,2.72,1.12,4.18.3.1-.05.25-.01.37-.02.74-.03,1.44-.05,2.12-.5.72-.47,1.76-.53,2.39-.06,1.03.77,1.82.26,2.64-.15,1.15-.56,2.39-.75,3.61-1.02,1.13-.25,1.73.66,2.44,1.23.46.37.86.47,1.36.29.65-.23,1.27-.58,1.93-.74,2.37-.55,4.75-1.05,7.12-1.57.13-.03.3-.13.36-.08.76.6,1.5-.08,2.22-.03.5.63.98,1.25,1.49,1.85.12.14.36.27.54.27.86.01,1.72.01,2.58-.05,1.24-.09,2.52-.59,3.67.36.17.14.5.19.72.13.89-.25,1.77-.54,2.67-.83.83.69,1.95.86,2.68-.11.3.09.61.17.84.23.68-.7,1.02-1.6,2.1-1.68,1.23-.09,2.27-.62,3.17-1.5.71-.69,1.61-1.2,1.65-2.35,0-.12.24-.22.33-.36.78-1.22,1.56-2.44,2.31-3.68.09-.14,0-.38,0-.58Zm-93.41-4.5c-.65.43-1.21.84-1.83,1.15-.33.18-.75.2-1.14.26-.56.08-1.13.1-1.68.22-1.09.22-2.16.54-3.25.72-.6.1-1.13-.01-1.66-.56-.49-.51-1.38-.63-2.09-.92-.38-.16-.77-.32-1.36-.56.98-.7,1.61-1.24,2.33-1.62.46-.24,1.04-.26,1.57-.35,1.17-.2,2.32-.28,3.29-1.2.65-.61,1.55-.99,2.42-1.38.68-.31,1.49-.5,2.1-1.03.2-.17.47-.27.8-.44.48,2,.97,3.88.5,5.71Z"/><path d="m167.03,38.63c-1.27-.56-1.34-.55-2.15.06-1.12.07-1.97.12-2.87.17-.24.9-.08,1.72.28,2.53.45,1.02.61,2.03.12,3.12-.3.66-.45,1.4-.61,2.12-.14.65-.47,1.13-.97,1.55-.18.15-.39.41-.39.63-.02.88-.66,1.18-1.28,1.55-.66.39-1.52.52-1.85,1.36-.01.04-.05.09-.08.09-1.9.03-2.86,2.4-4.94,1.98-1.34.58-2.92.24-4.21,1.06-.14.09-.41,0-.6-.04q-1.26-.29-1.73.81c-.65.22-1.23.39-1.79.6-.66.25-1.24.4-1.85-.18-.23-.22-.79-.3-1.09-.18-.97.4-1.84.56-2.83-.06-.61-.38-1.45-.38-2.13-.69-1.75-.81-2.35-2.46-2.87-4.15-.43-1.4-.19-2.71.49-3.96.11-.21.25-.49.44-.57.87-.37,1.75-.69,2.64-1,.23-.08.5-.14.73-.1.97.15,1.93.46,2.9.48.71.01,1.43-.33,2.14-.54.35-.1.76-.42,1.02-.33,1.4.52,2.71-.4,4.08-.2.18.03.43-.07.59-.2.66-.53,1.34-.7,2.21-.55.31.05.73-.45,1.07-.73.43-.35.84-.73,1.25-1.09-1.17-1.13-1.48-2.66-1.4-4.34.02-.32-.04-.74-.23-.97-.98-1.24-1.05-2.6-.19-3.89.27-.4.46-.88.54-1.35.24-1.47,1.4-2.05,2.51-2.68.11-.06.33,0,.48.06,1.76.75,3.37-.14,5.04-.43.29-.05.67-.28.84-.17,1.25.78,2.57-.14,3.87.25.72.21,1.63,0,2.4-.23.88-.26,1.29-1.16,1.16-2.09-.05-.37-.12-.75-.1-1.12.08-1.36-.36-2.63-.7-3.91-.13-.52-.22-1.05-.34-1.57-.05-.24-.05-.54-.19-.7-.93-1.06-1.03-2.36-.97-3.63.08-1.69-.27-3.29-.64-4.91-.3-1.28.15-2.45.5-3.64.07-.24.19-.46.28-.69.61-1.66.37-1.73,2.46-1.81,2.34-.1,2.09-.31,3.07,1.99.15.34.28.7.47,1.01.88,1.42,1.38,2.93,1.28,4.62,0,.12-.03.27.02.37,1.1,1.95,1.01,4.17,1.43,6.27.24,1.17.65,2.31,1.08,3.43,1.12,2.94,1.64,5.97,1.14,9.07-.13.79-1.08,1.46-1.68,2.15-.14.16-.5.15-.64.31-.67.79-1.29,1.61-1.93,2.43-.1.13-.26.25-.29.4-.21.97-.98.9-1.73,1.08-1.13.28-2.54-.25-3.27,1.17Z"/><path d="m185.6,42.86c-.81-.1-1.47-.16-2.12-.28-.17-.03-.34-.21-.47-.35-.11-.12-.12-.34-.24-.43-1.44-1.1-1.24-2.79-1.53-4.29-.19-.95-.47-1.9-.52-2.86-.14-2.49-.48-4.95-1.02-7.37-.47-2.08-.54-4.15-.58-6.28-.03-2.01-.64-4.01-.93-6.03-.11-.76-.05-1.55,0-2.33.04-.75.2-1.49.24-2.24.1-2.07.93-2.77,2.94-2.41.29.05.58.14.86.11,1.18-.12,1.7.7,2.2,1.51.36.6.61,1.26.9,1.9.22.49.49.98.62,1.49.63,2.33,1.22,4.67,1.82,7.01.06.24.2.5.16.72-.22,1.34.35,2.45.95,3.58.33.61.58,1.3.69,1.99.37,2.17.68,4.36.53,6.58-.03.49.04,1,.16,1.48.55,2.2.42,4.29-.87,6.22-.27.4-.64.76-1.03,1.06-.46.35-.97.66-1.5.89-.43.19-.91.24-1.26.32Z"/><path d="m75.19,46.97c.18-.24.33-.46.5-.67.28-.34,3.14-.73,3.42-.41.51.58,1.08.89,1.86.9.18,0,.35.26.54.38.22.14.47.36.69.34.79-.08,1.22.45,1.48.97.44.9.88,1.84.48,2.94-.22.62-.24,1.31-.38,1.97-.04.18-.12.44-.25.51-.85.46-1.68,1.14-2.71.96-1.01-.18-1.87.33-2.81.42-.11,0-.2.16-.31.17-1.08.06-2.15.05-3.23.2-.84.12-1.64.36-2.42.47-1.17.15-2.51,1.22-3.64-.2-.79.64-1.62.75-2.53.56-.62-.13-1.19-.08-1.83.18-.5.2-1.31.04-1.8-.25-1.26-.76-2.67-1.47-3.06-3.11-.15-.65-.21-1.32-.32-2.01.88-.61,1.74-1.18,2.57-1.78.25-.18.44-.43.67-.65.17-.17.35-.48.5-.47.67.05,1.16-.37,1.74-.54.82-.24,1.75-.49,2.55-.33,1.25.26,2.21-.36,3.3-.6,1.19-.26,2.4-.45,3.61-.54.4-.03.83.35,1.38.6Z"/><path d="m132.43,8.66c-.65-.11-2.18-.05-2.46.33-.29.37-1.11,1.27-1.07,1.75,0,.13-.01.34-.03.57-.02.06-.02.13-.03.2-.08.62-.17,1.36.07,1.56.28.22,1.19.22,1.91-.14,1.15-.33,2.54-.97,3.33-.83.7.12,1.33.28,2.08.1.67-.15,1.42.07,1.78.85.23.49.54.95.69,1.45.44,1.39.18,1.83-1.03,2.7-1.16.84-2.35,1.26-3.81,1.23-.93-.01-1.93.34-2.78.77-1.45.74-3.01.96-4.53,1.4-1.35.38-2.7.19-4.04.48-1.02.22-1.96-.58-2.57-1.49-.2-.3-.3-.68-.4-1.04-.38-1.4-.31-1.81.85-2.54,1.13-.72,2.38-1.27,3.57-1.89-.17-1.58-.4-3.18-.49-4.8-.1-1.93,1.36-3.76,3.16-4.24,1.24-.34,2.44-.85,3.68-1.14,1-.23,2.08-.47,3.05-.3.86.14,1.62.86,2.43,1.3.27.14.58.25.88.27,1.02.05,1.55.75,2,1.49.32.52,0,1.45-.6,1.89-.32.23-.75.43-1.13.44-.99.02-1.99-.07-2.98-.12-.08,0-.17-.05-.24-.03l-1.29-.22Z"/><path d="m99.1,50.68c.58-.35,1.27-.61,1.72-1.08.78-.82,1.75-1.24,2.75-1.63.21-.08.48-.06.71-.03,1.02.13,1.44-.05,1.77-1.02.18-.53.57-.58.93-.6.82-.05,1.49-.3,2.21-.73.51-.31,1.3-.22,1.95-.2.65.02,1.19-.08,1.82-.37.75-.35,1.7-.32,2.56-.34.59-.02,1.2.08,1.77.24,1.71.45,3.15,2.57,3.53,4.29.38,1.72-.57,2.93-1.16,4.26-.26.58-1.15,1.11-1.83,1.24-1.31.24-2.59.8-4.03.29-.72-.25-1.64.06-2.47.13-.04,0-.08.04-.11.04-1.85-.45-3.4.57-5.02,1.1-1.02.33-1.9.03-2.82-.12-.87-.14-1.72-.41-2.58-.61-.19-.04-.42-.12-.59-.06-.69.27-1.39.13-1.74-.4-.52-.78-1.07-1.71-.74-2.69.23-.69.81-1.26,1.24-1.88.04.06.09.12.13.18Z"/><path d="m38.14,6.02c.49-.15.98-.29,1.47-.43.14-.04.3-.12.44-.1,1.78.24,3.47-.3,5.04-.91,1.11-.43,2.15-.71,3.31-.75.57-.02,1.12-.2,1.69-.24.41-.03.86,0,1.25.12.66.22,1.33.47,1.91.84.4.26.68.72.96,1.12.93,1.38.88,2.85.29,4.33-.09.21-.36.37-.58.5-.12.07-.35-.02-.44.06-.97.85-2.07,1.08-3.32.83-.19-.04-.43.11-.63.22-.34.19-.65.42-.98.63-1.09.69-2.2,1.18-3.37.22-.76.56-1.44,1.12-2.18,1.57-.29.18-.73.18-1.08.14-.42-.05-.86-.16-1.22-.37-.97-.57-1.79-.26-2.52.39-.56.5-1.02.51-1.66.12-.39-.24-.95-.29-1.42-.28-1.17.04-1.94-.39-2.39-1.43-.12-.27-.27-.54-.37-.81-.4-1.08-.04-2.03.6-2.87.51-.66.98-1.37,1.98-1.46.42-.04.81-.43,1.22-.66.2-.11.44-.34.6-.29.67.2,1-.21,1.38-.49Z"/></svg>