<?xml version="1.0" encoding="utf-8"?>
<!-- Generator: Adobe Illustrator 26.3.1, SVG Export Plug-In . SVG Version: 6.00 Build 0)  -->
<svg version="1.1" id="Layer_1" xmlns="http://www.w3.org/2000/svg" xmlns:xlink="http://www.w3.org/1999/xlink" x="0px" y="0px"
	 viewBox="0 0 221.18 60" style="enable-background:new 0 0 221.18 60;" xml:space="preserve">
<style type="text/css">
	.st0{fill:#0066CC;}
	.st1{fill:#FFFFFF;}
	.st2{fill:#3399FF;}
	.st3{fill:#FF0000;}
	.st4{fill:#FF0A0A;}
	.st5{fill:#003399;}
	.st6{fill:url(#SVGID_1_);}
	.st7{fill:url(#SVGID_00000036214079779812074040000009113627624575665025_);}
	.st8{fill:url(#SVGID_00000090282105841819498720000010173538493932689853_);}
	.st9{fill:#009933;}
	.st10{fill:url(#SVGID_00000182490652609630287840000014805775674751962761_);}
	.st11{fill:url(#SVGID_00000140711440258838098790000002499153660220808834_);}
	.st12{fill:url(#SVGID_00000072963099953419630910000010270695967817999539_);}
</style>
<g>
	<path d="M84.85,42.7c-2.21,0.45-4.28,0.33-5.89-1.54c-0.29-0.33-0.61-0.48-1.03-0.23c-1.82,1.07-3.8,1.35-5.87,1.1
		c-0.97-0.12-1.31,0.37-1.28,1.23c0.08,2.67-2.31,4.19-3.03,6.49c-0.07,0.23-0.48,0.38-0.76,0.52c-1.17,0.58-2.27,1.24-3.36,1.99
		c-0.97,0.67-2.47,0.98-3.75,1.38c-0.15,0.05-0.29,0.11-0.44,0.17c-0.34,0.03-0.69,0.07-1.03,0.1c-1.32-0.63-2.66-0.08-3.98-0.02
		c-1.26,0.05-2.51,0.54-3.6-0.5c-0.05-0.05-0.15-0.08-0.22-0.07c-2.62,0.29-4.64-1.34-6.87-2.22c-4.76-1.87-7.95-5.25-9.16-10.31
		c-0.92-3.84-1.32-7.72-1.08-11.69c0.17-2.8,1.18-5.39,2.08-7.91c0.61-1.69,1.82-3.71,4.32-4.06c1.54-0.22,3.18,0.05,3.82,1.01
		c0.92,1.37,2.25,3.02,1.34,4.99c-0.89,1.91-1.69,3.87-2.29,5.88c-1.24,4.15-1,8.15,1.58,11.81c0.53,0.76,1.37,1.21,2.17,1.3
		c1.21,0.14,2.16,0.78,2.9,1.5c0.93,0.89,1.88,1.17,3,0.93c1.49-0.31,3.04,0.1,4.44-0.15c3.07-0.54,5.5-2.31,6.88-5.22
		c0.49-1.04,0.63-2.13,0.59-3.36c-0.1-3.73-0.9-7.44-0.28-11.19c0.31-1.86,1.01-2.53,2.96-2.83c3.11-0.48,3.17,0.68,3.9,2.8
		c0.43,1.22,0.62,2.42,0.39,3.72c-0.31,1.75,0.73,2.84,2.03,3.75c0,0.38-0.11,0.85,0.43,0.94c0.47,0.07,0.73-0.19,0.71-0.68
		c-1.13-2.67-0.76-5.46-0.61-8.22c0.06-1.01,1.98-2.21,3.48-2.36c2.24-0.23,3.38,0.57,3.67,2.87c0.22,1.8,0.69,3.56,0.64,5.42
		c-0.04,1.61,0.88,2.92,2.22,3.87c0,0-0.02,0.1-0.02,0.1l0.01-0.08c0.76-0.75,1.01-1.57,1.02-2.71c0-2.1-0.71-4.1-0.62-6.18
		c0.1-2.47,2.06-3.62,4.4-2.72c0.82,0.32,1.06,0.94,1.29,1.56c0.53,1.48,0.87,3.02,1.42,4.49c0.8,2.11,0.64,1.98,2.67,1.81
		c1.03-0.08,2.07,0.04,3.1,0.01c2.27-0.08,3.18-0.96,2.58-3.12c-0.84-3-1.18-6.04-1.42-9.12c-0.06-0.71-0.13-1.43-0.1-2.15
		c0.1-2.53,1.8-3.89,4.36-3.53c0.23,0.03,0.57,0.23,0.65,0.15c1.39-1.35,3.4-0.74,5.01-1.61c1.07-0.58,2.2-1.33,3.69-1.33
		c0.8,0,2.14-0.58,2.7-1.57c0.39-0.7,0.95-0.7,1.55-0.83c1.03-0.22,2.06-0.22,2.94-1.16c0.61-0.65,1.92-0.7,2.71-0.18
		c0.94,0.61,1.25,1.78,0.99,2.9c-0.47,2.07-1.07,4.14-2.49,5.78c-1.97,2.28-4.33,4.07-7.14,5.23c-0.36-0.05-0.71-0.05-1.01,0.2
		c-1.88,0.38-3.53,1.3-5.26,2.07c-0.69,0.3-1.03,0.57-0.9,1.38c0.57,3.51,2.31,6.57,3.65,10.15c0.88-1.32,2.01-1.99,2.28-3.44
		c0.41-2.25,2.2-3.86,3.1-5.94c0.6-1.38,1.77-2.75,2.86-3.95c1.45-1.6,3.2-2.12,5.58-1.62c3.38,0.72,5.54,2.8,7.61,5.2
		c0.85,0.99,0.91,2.33,1.37,3.5c1.32,3.38,1.81,6.9,1.18,10.51c-0.21,1.2-0.8,2.26-1.72,3.04c-0.6,0.51-1.28,0.84-1.54,1.7
		c-0.14,0.47-0.73,0.49-1.2,0.63c-2.38,0.7-4.73,0.54-7.03-0.21c-1.7-0.55-2.83-1.86-3.75-3.39c-0.42-0.7-0.77-1.86-1.59-1.85
		c-0.93,0.01-1.56,0.97-1.88,1.92c-0.47,1.39-1.63,2.32-2.45,3.46c-1.46,2.04-6.46,0.93-7.25-1.5c-0.23-0.71-0.93-1.1-1.03-1.84
		c-0.36-1.15-0.36-1.15-1.38-0.22c-1.81,0.92-3.66,0.2-5.45,0.01c-0.9-0.1-1.62-0.18-2.41,0.27c-1.28,0.72-2.66,0.98-4.01,0.3
		c-0.98-0.49-1.38-0.09-1.85,0.7c-0.72,1.21-1.74,2.04-3.28,1.92C85.47,42.29,85.16,42.41,84.85,42.7z M127.58,35.02
		c0.66-2.07-0.42-3.62-0.52-5.36c-0.07-1.24-0.94-1.71-1.94-1.3c-1.44,0.59-2.2,2.5-1.9,4.73c0.15,1.13,1.07,1.95,2.51,2.18
		C126.44,35.39,127.12,35.17,127.58,35.02z"/>
	<path d="M150.62,43.06c-2.33,0.5-4.39-0.81-6.62-1.04c-1.19-0.12-1.76-1.35-1.87-2.42c-0.17-1.61-0.19-3.21,0.08-4.9
		c0.27-1.69,0.95-3.22,1.27-4.85c0.11-0.53,0.19-1.35,0.53-1.52c2.16-1.03,3.54-3.7,6.45-3.17c0.33,0.06,0.59,0.05,0.9-0.06
		c2.66-0.97,4.9,0.19,6.8,1.76c1.95,1.62,3.91,3.37,4.91,5.82c0.27,0.66,0.52,0.76,1.21,0.67c2.2-0.27,4.39-0.69,6.6-0.94
		c1.69-0.19,3.46-0.8,4.43-2.53c0.2-0.36,0.6-0.46,0.95-0.64c0.96-0.52,1.03-1.79,0.03-2.13c-1.69-0.58-3.22-2.11-5.38-0.6
		c-1.17,0.82-2.78,1.31-4.44,1.33c-1.92,0.03-3.7-1.14-4.21-3.07c-0.51-1.93-0.89-3.82,0.78-5.45c0.27-0.26,0.49-0.66,0.54-1.03
		c0.22-1.71,1.47-2.16,2.87-2.53c3.64-0.97,7.14-2.25,9.63-5.29c0.71-0.87,1.81-0.95,2.61-1.61c1.13-0.92,2.37-1.71,3.44-2.69
		c0.91-0.83,1.94-1.01,3.05-0.95c1.83,0.1,2.59,0.87,2.56,2.69c-0.04,3.29-2.01,5.83-3.45,8.58c-1.87,0.52-2.86,2.26-4.41,3.21
		c-0.14,0.02-0.37-0.01-0.41,0.07c-0.14,0.28,0.08,0.37,0.31,0.42c0.39,0.69,0.86,1.32,1.31,1.97c2.84,4.09,2.78,8.36,0.62,12.73
		c-0.3,0.61-0.73,1.1-1.3,1.35c-0.63,0.28-1.16,0.69-1.39,1.24c-0.63,1.5-1.8,1.88-3.25,1.83c-1.96-0.08-3.51,1.22-5.38,1.56
		c-1.22,0.22-2.42,0.73-3.69,0.74c-1.17,0-1.92,0.45-2.27,1.6c-0.8,2.55-2.79,4.24-4.5,6.11c-0.54,0.6-1.36,0.66-2.08,0.92
		c-1.63,0.58-3.29,1.02-4.63,2.28c-1.17,1.09-2.86,0.65-4.29,1.03c-1.64,0.43-3.38,0.54-5.01,1.08c-0.49,0.16-0.9,0.2-1.37-0.04
		c-0.97-0.49-1.98-0.3-3.02-0.27c-1.58,0.05-3.23-0.04-4.73-0.47c-1.98-0.57-2.37-2.5-2.81-4.24c-0.12-0.46-0.08-0.95-0.11-1.43
		c-0.13-2.92,1.52-4.51,4.4-4.24c0.33,0.03,0.62,0.15,0.82,0.42c1.22,1.63,3.17,1.56,4.6,1.16c2.37-0.66,4.74-0.19,7.05-0.67
		c0.65-0.14,1.48,0.17,1.91-0.63c1.34,0.23,2.16-0.64,3.18-1.45C152.64,42.3,151.66,43.1,150.62,43.06z M156.24,33.49
		c-1.21-0.58-1.97-0.98-2.75-1.31c-1.41-0.59-2.59,0.11-3.73,0.8c-0.28,0.17-0.58,0.56-0.39,1.01c0.14,0.33,0.45,0.44,0.78,0.41
		C152.03,34.21,153.98,34.48,156.24,33.49z"/>
</g>
</svg>
