<?xml version="1.0" encoding="utf-8"?>
<!-- Generator: Adobe Illustrator 26.3.1, SVG Export Plug-In . SVG Version: 6.00 Build 0)  -->
<svg version="1.1" id="Layer_1" xmlns="http://www.w3.org/2000/svg" xmlns:xlink="http://www.w3.org/1999/xlink" x="0px" y="0px"
	 viewBox="0 0 221.18 60" style="enable-background:new 0 0 221.18 60;" xml:space="preserve">
<style type="text/css">
	.st0{fill:#0066CC;}
	.st1{fill:#FFFFFF;}
	.st2{fill:#3399FF;}
	.st3{fill:#FF0000;}
	.st4{fill:#FF0A0A;}
	.st5{fill:#003399;}
	.st6{fill:url(#SVGID_1_);}
	.st7{fill:url(#SVGID_00000151510155084634706310000012349496936335044537_);}
	.st8{fill:url(#SVGID_00000099621842694830462590000011266131816801658540_);}
	.st9{fill:#009933;}
	.st10{fill:url(#SVGID_00000138545492923276762260000011152119076295718589_);}
	.st11{fill:url(#SVGID_00000093895449275499352200000016643292140004198789_);}
	.st12{fill:url(#SVGID_00000098908835315150861380000001498174974300605578_);}
</style>
<g>
	<path d="M125.68,19.38c-0.56-0.66-0.72-1.45-0.88-2.18c-0.46-2.01-2.49-2.43-3.54-3.8c-1.73,0.45-3.16-0.67-4.77-0.93
		c-2.05-0.33-3.87,0.3-5.8,0.74c-2.98,0.69-5.61,2.03-8.02,3.82c-1.18,0.87-2.58,1.51-3.34,2.88c-2.36,0.28-3.53,2.32-5.23,3.56
		c-1.79,1.3-2.57,3.49-3.21,5.34c-0.74,2.12-1.05,4.59-0.81,6.99c0.15,1.51,0.03,3.04,0.08,4.55c0.08,2.48,0.45,4.87,2.17,6.82
		c0.83,0.94,1.61,1.95,2.49,2.83c1.9,1.89,3.86,3.65,6.92,3.01c0.73-0.15,1.74-0.11,2.3,0.29c1.49,1.06,3.06,0.82,4.66,0.74
		c0.32-0.73,1-0.65,1.61-0.73c0.26-0.99,0.78-1.49,1.91-1.24c1.37,0.3,2.86-0.05,3.7-0.98c1.35-1.48,2.7-2.84,4.48-3.77
		c0.35-0.17,0.69-0.44,0.91-0.75c2.03-2.86,4.64-5.39,5.37-9.04c0.04-0.2,0.27-0.37,0.42-0.56c0.03-0.04,0.07-0.08,0.1-0.11
		c0.23-1.38,0.35-2.48,0.35-2.48l0.47-2.04c0-1.32-0.09-2.65,0-3.97C128.25,25.12,127.9,21.98,125.68,19.38z M120.18,28.51
		c-0.22,2.66-0.69,5.22-3,6.96c-0.79,0.59-0.59,1.61-1.23,2.26c-2.26,2.3-4.81,3.9-8.2,3.64c-0.34-0.03-0.63,0.02-0.87,0.25
		c-1.3,1.25-2.72,1.11-4.18,0.36c-0.43-0.22-0.89-0.3-1.36-0.4c-1.3-0.27-2.46-1.56-2.29-2.85c0.24-1.82,0.11-3.76,1.69-5.27
		c0.67-0.64,0.87-1.85,1.09-2.85c0.61-2.69,2.13-4.32,4.94-4.59c0.5-0.05,0.83-0.24,1.2-0.62c2.31-2.39,5.3-2.63,8.3-2.1
		C119.33,23.85,120.61,25.91,120.18,28.51z M189.56,41.07c-0.21-0.94-0.56-1.8-1.03-2.64c-1.13-1.99-1.12-1.99-3.38-1.55
		c-0.31,0.07-0.65,0.13-0.95,0.08c-3.31-0.59-6.29,0.43-8.73,2.43c-2.07,1.71-3.83,0.48-5.73,0.2c-0.2-0.03-0.36-0.26-0.37-0.54
		c-0.07-2.16-1.22-4.3-0.03-6.59c1.59,0.61,2.75-1.08,4.33-0.74c0.21-0.65,0.63-0.32,1-0.21c1.35-0.54,2.79-0.39,4.2-0.51
		c2.73-0.25,3.96-1.2,4.74-3.7c0.55-1.77,0.03-3.59-1.14-4.6c-1.2-1.03-2.46-2.61-4.77-1.82c-2.03,0.7-4.21,1.32-6.46,1.08
		c-0.1,0.23-0.35,0.34-0.5,0.21c-0.25-0.22-0.19-0.5,0.11-0.67c-0.04-0.96-0.08-1.91-0.11-2.86c-0.05-1.25,0.66-2.17,1.7-2.49
		c1.25-0.39,2.47-0.9,3.87-0.9c1.79,0.01,3.61-0.18,5.38-0.49c3.11-0.56,4.87-3.6,3.38-5.87c-0.76-1.14-1.73-2.19-3.46-1.92
		c-1.07,0.17-2.15,0.16-3.27-0.23c-1.46-0.52-3.05-0.81-4.6-0.94c-1.06-0.09-2.13,0.65-3.26,0.22c-1.08-0.42-2.21-0.23-3.31-0.26
		c-1.24-0.03-2.29,0.43-3.07,1.5c-0.76,1.05-1.32,2.21-1.44,3.45c-0.32,3.18-1.41,6.12-2.52,9.06c-0.27,0.71-0.76,1.31-0.89,2.14
		c-0.67,4.29-0.51,8.56,0.26,12.8c0.08,0.46,0.15,0.9,0.18,1.35c0.36,1.6,0.72,3.67,0.72,5.64c0,4,1.66,7.54,1.66,7.54l0.01,0.02
		c0.66,0.8,1.65,1.26,2.76,1.59c1.66,0.5,3.07,1.93,5.03,1.36c0.14-0.04,0.37,0.27,0.57,0.39c1.44,0.96,3.24,0.84,4.56-0.34
		c0.24-0.22,0.42-0.43,0.78-0.44c2.69-0.1,4.92-1.59,7.39-2.38c0.73-0.23,1.07-0.63,1.58-1.11c1.07-1.02,1.78-2.38,3.11-3.17
		C189.46,44.22,189.97,42.83,189.56,41.07z M158.85,40.11c-0.85-1.53-2.11-2.36-3.32-3.27c-1.67-1.25-3.48-2.42-4.44-4.44
		c-0.73-1.55-0.58-2.43,1.12-2.83c1.34-0.31,1.8-1.1,2.26-2.13c0.33-0.73,0.77-1.38,1.21-2.05c1.26-1.95,2.45-4.01,1.9-6.44
		c-0.5-2.26-0.59-4.6-1.15-6.82c-0.6-2.44-2.03-4.26-4.67-5.1c-4.07-1.3-8.11-0.8-12.16-0.23c-1.68,0.23-3.23,1.12-4.81,1.75
		c-2.1,0.84-3.58,2.32-3.62,5.03c-0.06,3.64-0.7,7.28-0.86,10.92c-0.07,1.58-0.03,3.19-0.44,4.68c-0.45,1.63-0.67,3.23-0.69,4.91
		c0,0.42-0.07,0.84-0.22,1.24c-0.24,2.25-0.55,5.58-0.77,8.08c0.06,1.32,0.19,2.65,0.71,3.96c0.67,1.67,1.6,2.35,2.96,2.92
		c0.42,0.18,0.95,0.09,1.4,0.22c3.35,0.96,5.53-0.64,5.44-4.04c-0.02-0.64,0.01-1.3-0.16-1.91c-0.67-2.47,0.42-4.8,0.55-7.2
		c0.03-0.41,0.22-0.76,0.72-0.81c0.5-0.04,0.62,0.31,0.81,0.68c0.36,0.67,0.68,1.52,1.27,1.91c2.49,1.63,4.99,3.22,6.65,5.81
		c0.2,0.31,0.58,0.65,0.93,0.71c1.3,0.23,1.97,1.18,2.77,2.08c1.31,1.46,2.89,1.95,4.89,1.24c1.28-0.46,1.36-1.64,2.02-2.46
		c0.04-0.05,0.08-0.09,0.12-0.14c-0.03-1.93-0.37-3.99-0.33-5.13C158.95,40.92,158.92,40.53,158.85,40.11z M148.14,19.67
		c-1.27,1.09-3.18,1.33-3.94,3.07c-0.27,0.63-3.96,1.5-4.36,1.08c-0.77-0.82-0.84-1.98-0.58-2.92c0.39-1.39,0.15-2.66-0.26-4.26
		c3.6-0.66,7-0.33,10.41-0.17C149.84,18.68,149.57,18.44,148.14,19.67z"/>
	<path d="M52.16,51.89c-0.85-0.33-1.66-0.25-2.54-0.01c-1.6,0.44-3.13,1.5-4.92,0.74c-0.12-0.05-0.39-0.01-0.44,0.08
		c-0.88,1.72-2.67,0.83-3.98,1.27c-1.82,0.61-3.91,0.34-5.28-1.48c-0.52-0.69-1.42-0.68-2.04-1.41c-1.72-2.05-1.48-4.4-1.47-6.74
		c0-0.96,0.96-1.4,1.36-2.13c0.51-0.91,1.3-0.83,2.04-1.17c1.49-0.69,2.88-0.38,4.33-0.3c0.95,0.05,1.84,0.08,2.62-0.71
		c0.52-0.52,1.17-0.95,2.08-0.52c0.68,0.32,1.71-0.08,1.87-0.58c0.4-1.26,1.34-0.93,2.18-1.21c1.8-0.6,3.74-0.89,5.3-2.11
		c0.39-0.34,1.18-0.57,0.84-1.2c-0.31-0.57-0.96-0.25-1.47-0.02c-1.17-0.74-2.3-1.6-3.8-1.41c-1.67,0.22-2.38-1.63-3.97-1.8
		c-0.58-0.06-1.46-0.42-2.11-0.79c-2.48-1.43-3.95-3.55-4.5-6.44c-0.41-2.17-0.06-4.28,0-6.41c0.03-0.95,0.3-1.61,1.19-1.78
		c0.91-0.17,1.07-0.7,1.48-1.47c0.99-1.86,2.39-3.61,4.46-4.38c1.12-0.42,2.14-0.94,3.19-1.49c2.18-1.14,4.55-1.77,7-1.84
		c3.61-0.09,6.16,3.27,5.5,6.86c-0.27,1.46-0.98,2.41-2.33,2.61c-2.93,0.43-4.96,2.36-7.23,3.95c-0.67,0.47-1.33,0.87-1.31,1.96
		c2.52-0.59,4.4,0.9,6.36,2.03c1.28,0.74,2.84,0.82,3.99,1.84c0.28,0.25,0.84,0.3,1,0.59c2.4,4.36,4.79,8.84,2.26,13.87
		c-0.85,1.69-1.83,3.34-2.5,5.12c-0.15,0.4-0.34,0.4-0.68,0.41c-0.46,0.02-0.91,0.13-1.34,0.39c-1.17,0.7-0.93,2.53-2.76,2.9
		c-1.1,0.22-1.96,1.65-2.93,2.54C53.17,52,52.67,51.99,52.16,51.89z"/>
	<path d="M93.89,20.51c-1.4,0.55-2.67,1.37-4.37,0.71c-0.93-0.36-2.14-0.4-3.19,0.11c-0.7,0-1.52-0.3-1.89,0.66
		c-0.81,1.99-0.99,4.01-0.81,6.17c0.11,1.3-0.4,2.73-0.9,3.99c-0.69,1.75-1.45,6.01-1.04,7.83c0.13,0.57,0.16,1.1,0.04,1.64
		c-0.21,0.95-0.15,1.84,0.05,2.81c0.63,2.99-1.53,5.21-4.49,4.76c-0.24-0.04-0.48-0.03-0.72-0.05c-0.76-0.06-1.78,0.4-2.23-0.29
		c-0.67-1.04-1.66-1.82-2.06-3.12c-0.84-2.75-1.58-5.51-2.07-8.35c-0.07-0.37-0.15-0.74-0.22-1.11c0.3-1.31,1.27-2.37,1.4-3.75
		c0.38-0.49,0.1-0.99,0.05-1.49c0.33-0.41,0.47-0.87,0.42-1.39c0.64-0.74,0-1.64,0.31-2.41c0.43-0.47,1.35-0.56,1.05-1.58
		c-0.26-0.91,0.75-1.57,0.67-2.48c-0.48-0.53-0.9-0.55-1.24,0.13c-1.01,0.11-2.06,0.09-3.03,0.36c-1.49,0.41-2.71-0.02-3.9-0.82
		c-0.19-0.14-0.37-0.29-0.56-0.43c-1.35-2.02-2.21-4.17-1.86-6.68c0.09-0.61,0.18-1.19,0.8-1.29c1.93-0.31,3.44-1.58,5.23-2.22
		c0.99-0.36,2.16-0.03,2.97-0.7c2.34-1.95,5.31-1.56,7.98-2.03c2.38-0.41,4.87-0.56,7.25-1.05c2.25-0.47,4.21,0.58,6.33,0.71
		c0.84,0.05,1.02,1,1.32,1.58c1.21,2.37,2.06,4.78,0.96,7.52c-0.38,0.94-0.93,1.39-1.76,1.71C94.03,19.95,93.85,20.13,93.89,20.51z"
		/>
</g>
</svg>
