<?xml version="1.0" encoding="utf-8"?>
<!-- Generator: Adobe Illustrator 26.3.1, SVG Export Plug-In . SVG Version: 6.00 Build 0)  -->
<svg version="1.1" id="Layer_1" xmlns="http://www.w3.org/2000/svg" xmlns:xlink="http://www.w3.org/1999/xlink" x="0px" y="0px"
	 viewBox="0 0 221.18 60" style="enable-background:new 0 0 221.18 60;" xml:space="preserve">
<style type="text/css">
	.st0{fill:#0066CC;}
	.st1{fill:#FFFFFF;}
	.st2{fill:#3399FF;}
	.st3{fill:#FF0000;}
	.st4{fill:#FF0A0A;}
	.st5{fill:#003399;}
	.st6{fill:url(#SVGID_1_);}
	.st7{fill:url(#SVGID_00000117673786565800872360000010083186421563614868_);}
	.st8{fill:url(#SVGID_00000132809810371198616010000001993260356191332781_);}
	.st9{fill:#009933;}
	.st10{fill:url(#SVGID_00000136399653544224001630000003118262699567896982_);}
	.st11{fill:url(#SVGID_00000137133767478584529630000010079749406904536498_);}
	.st12{fill:url(#SVGID_00000008120518402014227790000011163024157835201451_);}
</style>
<g>
	<path d="M99.86,40.69c-1.16-0.4-2.38-0.61-3.55-0.98c-0.94-0.29-2.01-0.34-3.18-0.06c-1.59,0.39-3.45,0.2-5.08-0.21
		c-1.5-0.38-2.98-0.27-4.46-0.45c-0.11-0.36-0.45-0.53-0.69-0.35c-0.41,0.3-0.18,0.66,0.12,0.95c0.02,1.49,0.38,3.01-0.5,4.41
		c-0.65,1.04-1.55,1.92-2.5,2.53c-2.9,1.89-5.58,4.2-9.07,5.07c-1.79,0.44-3.53,0.73-5.29,0.02c-0.14-0.06-0.32-0.16-0.44-0.12
		c-2.02,0.65-4.08-0.24-6.1,0.19c-0.34,0.1-0.69,0.21-1.03,0.31c-2.27-1.05-4.13-2.74-6.33-3.94c-2.64-1.45-3.82-3.98-3.61-7.04
		c0.11-1.55,1.98-2.44,3.44-1.88c2.29,0.89,4.58,1.83,7.1,1.93c1.1,0.05,2.14,0.63,3.28,0.44c0.34,0.37,0.66,0.33,0.96-0.06
		c0.08-0.01,0.16-0.04,0.24-0.04c3.35,0.4,6.36-1.52,9.7-1.38c0.97,0.04,1.41-1.18,1.99-1.89c0.42-0.52,0.08-1.14-0.55-1.55
		c-0.29-0.19-0.47-0.62-0.58-0.98c-1.25-3.88-3.7-7.18-5.39-10.85c-0.64-1.4-0.67-2.76-0.51-4.12c0.11-0.93,1.11-1.5,2.04-1.55
		c1.33-0.08,2.61,0.05,3.69,1.16c1.81,1.88,2.98,4.19,3.69,6.54c0.84,2.78,3.28,2.85,5.09,4c0.09,0.06,0.29-0.01,0.43-0.06
		c1.34-0.51,2.62-0.29,3.93,0.17c0.6,0.21,1.47,0.21,1.22-0.77c-0.4-1.55,0.66-3.15-0.3-4.65c-0.15-0.23-0.2-0.7-0.07-0.89
		c1.46-2,1.28-4.56,2.3-6.71c0.93-1.95,4.65-2.78,6.19-1.23c2.45,2.48,4.9,4.97,7.13,7.64c0.73,0.87,1.84,1.19,2.41,2.18
		c0.71,1.22,1.49,2.39,1.98,3.73c0.56,1.53,1.1,1.64,2.86,0.79c0.61,0.07,1.26,0.28,1.57-0.53c-0.03-0.98-0.4-1.82-0.9-2.67
		c-0.76-1.29-1.07-2.76-1.2-4.24c-0.14-1.53,0.93-3.67,1.98-4.06c1.44-0.54,3.58,0.2,4.65,1.6c0.83,1.09,1.23,2.35,1.67,3.63
		c0.34,0.99,0.37,2.17,1.4,2.88c0.58,0.39,1.08,0.76,1.46-0.12c1.08-2.5,2.84-4.67,3.48-7.36c0.06-0.24,0.11-0.54,0.33-0.54
		c1.65,0.01,2.27-1.86,3.81-2.04c0.15-0.02,0.39-0.05,0.43-0.15c1.13-2.67,2.95-1.43,4.68-0.87c1.04,0.34,1.97,0.99,3.13,1
		c0.65,0.01,1.1,0.42,1.4,1.1c1.06,2.37,1.9,4.85,3.54,6.92c0.37,0.46,0.21,1.08,0.33,1.62c0.46,1.99,2.48,2.98,4.31,2.04
		c1.28-0.66,2.41-1.42,3.99-0.86c0.71,0.25,0.89-0.56,0.76-1.12c-0.24-1.08-0.6-2.14-0.9-3.21c-0.7-2.56-1.38-5.12-2.09-7.68
		c-0.03-0.12-0.23-0.2-0.35-0.29c-0.14-0.18-0.29-0.37-0.43-0.55c0.19-0.33,0.64-0.54,0.54-0.98c-0.31-1.44,0.28-2.8,0.29-4.19
		c0.01-1.65,0.62-2.78,2-3.56c0.65-0.29,1.31,0.05,1.97-0.02c1.22-0.08,1.73,0.5,2.13,1.67c1.4,4.15,3.25,8.18,4.38,12.4
		c0.83,3.11,1.65,6.3,1.64,9.6c-0.01,1.76-0.54,3.29-1.7,4.49c-0.87,0.9-1.51,2.01-2.55,2.77c-0.51,0.37-0.87,0.93-1.6,0.87
		c-0.53-0.05-0.78,0.21-1.1,0.66c-1.09,1.55-2.29,1.78-4.13,1.39c-1.21-0.25-2.56-0.4-3.75-0.13c-2.08,0.47-3.94-0.23-5.84-0.67
		c-0.94-0.21-1.39-0.13-2.23,0.48c-1.29,0.93-2.92,1.49-4.59,1.61c-0.39,0.03-0.88,0.02-1.16-0.18c-2.19-1.64-4.71-2.85-6.46-5.04
		c-0.98-1.23-1.09-1.25-2.8-0.41c-0.55,0.27-1.28,0.16-1.67,0.78c-0.48,0.07-0.92,0.05-1.39-0.17c-0.69-0.33-1.29-0.16-1.98,0.3
		c-2.02,1.34-4.14,2.42-6.71,2.38c-1.03-0.02-2.19-0.09-2.98,1.07c-0.42,0.63-1.4,0.38-2.02,0.19c-1.63-0.52-3.23-0.15-4.84-0.12
		C100.54,40.7,100.2,40.69,99.86,40.69z M134.97,30.66c-0.41-1.47-0.25-3.39-2.37-4.2c-0.54-0.2-0.99-0.5-1.52-0.25
		c-0.69,0.32-0.74,1.05-0.67,1.64c0.19,1.68,0.65,3.17,2.47,3.97C134.4,32.48,134.93,32.37,134.97,30.66z M100.22,30.77
		c-2.41-1.35-3.48-3.38-5.25-4.88c-0.49,2.01-1.05,3.77-1.11,5.85C95.86,31.1,97.77,31.02,100.22,30.77z"/>
	<path d="M159.76,11.29c0.65-0.62,0.49-1.48,0.65-2.24c0.34-1.62,0.91-2.14,2.95-2.47c1.24-0.2,2.05,0.2,2.61,1.45
		c1.47,3.3,2.97,6.56,3.71,10.13c0.2,0.99,0.67,1.92,0.99,2.89c0.63,1.88,1.14,3.79,0.94,5.81c-0.15,1.49,0.57,2.76,0.98,4.11
		c0.71,2.37,0.72,4.61-0.6,6.84c-0.92,1.55-3.22,1.61-4.84,1.21c-1.24-0.31-2.39-1.95-2.44-3.37c-0.05-1.52-0.12-2.98-1.27-4.22
		c-0.45-0.48-0.64-1.29-0.74-1.98c-0.39-2.58-0.82-5.16-0.95-7.75c-0.05-0.96-0.61-1.55-0.86-2.33c-0.74-2.31-0.37-4.73-0.91-7.03
		C160.07,11.94,160.19,11.56,159.76,11.29z"/>
	<path d="M110.9,15c-2.83,0.18-5.53-0.02-8.03-1.41c-0.18-0.1-0.49-0.11-0.69-0.03c-0.95,0.35-2.03,0.5-2.63-0.34
		c-0.66-0.92-1.28-1.98-1.46-3.15c-0.29-1.93,0.71-3.34,2.66-3.76c2.26-0.49,4.55-0.41,6.84-0.29c0.38,0.02,0.73,0.22,1.14,0.09
		c3.57-1.12,6.84,0.32,10.17,1.22c1.12,0.3,1.99,2.1,1.66,3.22c-0.53,1.79-1.85,3.2-3.47,3.61C115.09,14.65,113.03,15.58,110.9,15z"
		/>
	<path d="M101.27,54.25c-1.73,0.38-3.01-1.52-4.64-2.72c-0.17-0.12-0.15-0.51-0.32-0.61c-2.36-1.31-1.45-3.39-1.16-5.23
		c0.27-1.76,2.82-3.23,4.42-2.55c3.01,1.29,5.51,3.09,5.9,6.76C105.69,51.99,103.84,54.41,101.27,54.25z"/>
</g>
</svg>
