<?xml version="1.0" encoding="UTF-8"?><svg id="Layer_1" xmlns="http://www.w3.org/2000/svg" viewBox="0 0 50 50"><defs><style>.cls-1{fill:#4b9bd2;}</style></defs><path class="cls-1" d="M50,18.95v11.98s-.07,.01-.11,.01c-3.31,0-6-2.68-6-6s2.69-6,6-6c.04,0,.07,0,.11,.01Z"/><circle class="cls-1" cx="24.94" cy="24.94" r="6"/><path class="cls-1" d="M6,24.94c0,3.32-2.69,6-6,6v-12c3.31,0,6,2.69,6,6Z"/><g><path class="cls-1" d="M43.42,0c0,3.31-2.69,6-6,6s-6-2.69-6-6h12Z"/><path class="cls-1" d="M18.47,0c0,3.31-2.68,6-6,6S6.47,3.31,6.47,0h12Z"/></g><g><path class="cls-1" d="M43.42,49.89s0,.07-.01,.11h-11.98s-.01-.07-.01-.11c0-3.32,2.68-6,6-6s6,2.68,6,6Z"/><path class="cls-1" d="M18.47,49.89s0,.07-.01,.11H6.48s-.01-.07-.01-.11c0-3.32,2.69-6,6-6s6,2.68,6,6Z"/></g></svg>