<?xml version="1.0" encoding="UTF-8"?><svg id="Layer_1" xmlns="http://www.w3.org/2000/svg" viewBox="0 0 1080 1080"><defs><style>.cls-1{fill:#fff;}.cls-2{fill:#f9c927;}.cls-3{fill:#b34e2d;}.cls-4{fill:#faf7c8;}.cls-5{fill:#55a7d8;}.cls-6{fill:#040404;}.cls-7{fill:#fdb8e5;}.cls-8{fill:#010100;}.cls-9{fill:#020202;}.cls-10{fill:#1b5981;}.cls-11{fill:#fefeff;}.cls-12{fill:#faf9f9;}.cls-13{fill:#a94a2b;}.cls-14{fill:#55a6d6;}.cls-15{fill:#010101;}</style></defs><path class="cls-15" d="m701.78,528.15h.01v-.04.04Zm265.87,131.41c-.36-1.15-.83-2.3-1.47-3.31-.91-1.45-2.59-.31-3.78-.87-5.55-2.59-11.59-2.35-17.46-3.07-.4.91-.82.86-1.26.03-1.27-.04-2.53-.08-3.79-.13-.67-.03-1.48.47-1.92-.48-3.62-.43-7.25-1.19-10.88-1.23-10.39-.13-20.73-.61-30.85-3.22-.08.15-.15.31-.23.46-.15-.15-.3-.3-.45-.45-4.57,1.6-9.29-.45-13.9.57-.59.13-1.5-.2-1.96-.63-2.21-2.1-4.5-2.17-7.39-1.39-1.42.39-3.34.28-4.94.41-5.33.45-10.08-3.92-15.58-1.58-1.06.46-2.59.36-3.72-.01-3.3-1.09-6.81-.06-10.06-1.2-.68.86-1.25-.35-1.9-.09-6.36-.42-12.69-.8-19.09-.75-4.28.04-8.48-.29-12.7.78-1.07.27-2.48.56-3.46-.76-.56-.76-1.64-.64-2.33-.3-1.14.56-2.29.98-3.11-.09-.79-1.03-.37-2.23.03-3.51,1.17-3.71,2.29-7.51.24-11.34-1.66-3.1-3.11-6.34-5.04-9.27-.55-.84-.42-1.96-1.65-2.7-5.26-3.15-9.47-7.78-16.26-8.64-5.53-.7-10.94-2.24-16.63-1.97-2.67.13-5.41.5-8.07-.54-.82-.32-2.33-.43-2.74.04-1.78,2.04-4.45,1.54-6.52,2.66-3.95,2.13-8.22,3.3-12.69,3.58-4.74.29-9.34,1.76-13.51,3.52-4.26,1.81-7.36,1.99-10.61-1.17-.14-.02-.29-.03-.43-.04.15-.11.3-.22.45-.34.73-1.85,3.12-2.04,3.89-3.85-.33-1.09.37-1.21,1.16-1.25,3.01-2,6.48-4.35,8.13-6.91,2.4-3.69,6.51-4.46,8.96-7.77,3.79-5.11,9.84-8.21,12.99-14.15.61-1.15,1.15-2.65,2.13-3.66,2.57-2.64,4.45-5.67,5.33-9.21.62-2.51,2.46-5.2,2.04-7.33-.93-4.61.62-9.61-2.24-13.88-1.91-2.86-3.64-5.84-5.48-8.75-.16-.26-.42-.48-.69-.63-2.79-1.52-5.54-3.1-8.11-4.99-.97-.72-2.13-1.81-3.13-1.73-4.43.33-8.59-1.21-12.93-1.53-3.97-.3-7.6,1.29-11.45.98-.27.09-.53.19-.81.28.13,1.6-.34,2.72-2.21,2.7-.22.2-.41.54-.66.59-4.34.83-8.04,3.18-11.53,5.59-3.61,2.49-6.9,5.58-9.85,8.83-.74.8-2.07.33-2.6,2.17-.85,2.99-2.38,6.44-6.48,6.89-.68.07-.88.9-1.31,1.16-2.83,1.71-3.42,4.97-4.85,7.46-2.12,3.71-6.5,5.24-8,9.31-.13.35-1.1.38-1.69.55-.15.16-.31.31-.46.46-1.55,1.65-2.44,3.7-4.48,5.17-3.33,2.41-8.81,3.29-12.49,1.09-4.57-2.73-8.27-6.9-13.7-8.24-.46-.11-1.08-1.22-.99-1.74.41-2.2-1.53-2.84-2.63-3.14-2.24-.63-2.84-2.08-3.14-3.97-.09-.54-.13-1.02-.59-1.38-4.07-3.15-7.1-7.63-12.14-9.53-.46.22-.55.03-.45-.38-.69-1.77-1.4-3.28-2.9-4.8-1.68-1.71-4.32-2.46-5.26-4.42-1.73-3.62-4.71-5.59-7.83-7.56-2.04-1.29-4.04-2.25-4.69-5.18-.26-1.19-1.07-3.73-3.66-4.27-.73-.16-3.52-.4-3.31-2.84.14-1.66-.74-2.34-2.38-2.65-2.98-.56-6.2-1.5-7.4-4.43-1.18-2.87-3.7-3.3-5.75-4.66-.93-.62-2.05-.42-3.05-1.46-3.9-4.08-8.26-7.68-13.41-10.17-2.04-.98-4.44-1.94-4.86-4.28-.36-2.04-1.4-2.39-2.96-2.8-3.38-.87-7.04-1.59-9.1-4.68-1.57-2.36-3.58-3.55-6.15-4.13-.54-.12-1.25-.26-1.29-.71-.32-3.43-2.67-4.99-5.5-6.14-.2-.08-.45-.17-.54-.33-1.23-2.25-3.54-2.85-5.68-3.71-.44.12-.63-.1-.67-.5-2.94.29-4.72-.83-5.98-3.7-1.17-2.67.93-6.06-2.05-8.16,1.28-4.02-4.05-6.81-2.08-10.98.04-.08-.21-.35-.37-.48-1.76-1.39-2.44-3.39-3.38-5.34-1.98-4.08-3.44-8.32-5-12.54-.42-1.11.91-1.93.22-2.9-3.69-5.12-5.65-11.27-9.94-16.08-1.19-1.34-2.55-3.01-2.52-5.39.04-3.61-2.72-6.19-4.7-8.79-.85-1.12-.13-3.22-2.03-3.39-2.05-.17-2.11-1.99-3.06-3.12-1.48-1.74-.6-4.64-2.36-5.71-2.89-1.76-4.26-4.74-6.51-6.98-3.77-3.72-4.53-9.63-8.41-13.5-.22-.22-.55-.57-.5-.76.74-2.31-.98-3.09-2.37-4.24-.5-.42-1.44-.32-1.57-1.28-.65-4.93-5.19-7.05-7.72-10.63-2.28-3.22-6.86-4.42-7.75-8.8-.47-2.35-2-3.63-3.98-4.65-.56-.29-1.05-.76-1.52-1.36-1.98-2.6-3.34-6-7.38-6.36-.72-.06-1.54-1.12-1.97-1.9-1.98-3.62-5.31-5.57-8.83-7.19-1.86-.86-3.38-1.95-4.23-3.73-.99-2.05-2.73-3.21-4.63-3.94-1.26-.49-2.91-.95-3.67-1.65-4.25-3.94-9.78-5.9-14.18-9.63-1.45-1.24-3.14-3.31-5.23-3.22-4,.16-6.81-2.12-9.92-3.88-.41-.07-.83-.13-1.24-.19-1.01.35-1.72-.15-2.54-.67-1.13-.71-3.01-1.69-3.72-.98-2.22,2.22-2.42-.01-3.22-1.09-.4-.16-.81-.33-1.22-.5-3.27-.14-6.35-1.5-9.76-1.16-2.93.29-5.97.58-8.85-1.02-1.15-.64-2.71-.61-4.14.58-1.71,1.42-3.69,2.27-6.26,1.35-1.56-.56-3.63-.75-5.08,1.28-.54.75-2.03,1.63-3.35.83-1.39-.85-1.77.36-1.96,1.09-.54,2.02-2.3,2.58-3.81,2.88-2.59.52-5.1,1.09-7.16,2.76-1.28,1.04-2.21-.04-3.17-.35-1.11-.36-1.19-1.29-.3-2.2.55-.57-.08-1.11-.41-1.24-3.89-1.5-.72-6.87-4.61-8.41-.24-.1-.29-1.65.08-2.07,1.45-1.67.1-2.85-.91-3.21-2.47-.88-2.54-2.99-2.95-4.86-.36-1.62-.45-4.1-1.49-4.52-2.81-1.14-3.11-4.05-4.93-5.62-2.39-2.08-3.3-5.19-6.72-6.82-3.43-1.63-6.58-4.81-9.35-7.73-2.58-2.72-5.7-5.36-8.74-5.93-5.88-1.11-9.85-6.02-15.78-6.68-1.56-.17-2.8.76-4.54.11-3.7-1.4-6.26-4.69-10.21-5.64-1.51-.36-2.86-1.35-4.31-.12-.82.71-1.74.66-2.66.63-4.24-.15-8.53.91-12.73-1.06-1.05-.49-2.93-.47-4.43.5-1.43.94-3.03.73-4.66-.24-1.21-.72-2.71-1.91-4.24-.72-3.87,3.02-8.63,3.98-13.13,4.92-4.72.99-8.5,3.35-11.79,6.28-2.24,2.01-4.57,3.18-7.22,4.08-.96.33-1.8.64-2.68,1.27-1.88,1.34-3.63,3.61-5.26,4.21-4.5,1.66-6.3,5.09-8.04,8.82-.49,1.04-1.13,1.87-2.02,2.26-2.28.98-3.87,2.88-6.25,3.89-2.66,1.14-5.03,3.67-6.32,6.46-1.07,2.3-2.09,4.48-3.81,6.4-1.42,1.59-2.43,3.51-3.42,5.48-1.72,3.41-3.34,6.97-6.13,9.78-4.42,4.46-7.98,9.28-6.41,16.17.19.83.03,1.74-.43,2.69-3.01,6.23-5.46,12.71-7.24,19.39-.57,2.15-1.76,4.06-1.35,6.77.44,2.93,2.27,6.03.99,8.94-1.49,3.39-2.16,6.54-.44,9.95.97,1.92,1.51,3.9.93,6.06-.05.19-.03.43.03.63,2.09,6.67,2.14,13.83,4.83,20.39.59,1.46.7,2.92,1.83,4.35,1.17,1.48,1.87,3.58,1.77,5.94-.16,3.53.48,7.7,2.48,10.14,2.69,3.29,4.41,7.59,8.21,9.83,3.16,1.87,3.43,5.9,6.59,7.83,1.2.72,2.63.52,3.86,1.91,1.98,2.23,3.96,5.13,7.8,5.12,2.44-.02,1.98,1.79,1.45,3.48-1.27,4.06-3.96,7.79-2.82,12.41.14.56-.24,1.09-.51,1.65-1.77,3.74-3.75,7.2-2.22,11.92.89,2.75.89,6.36-.34,9.48-.13.55-.26,1.1-.39,1.65.68,3.02.73,6.51.01,9.03-1.27,4.47-.37,9-1.6,13.31-.96,3.38,1.4,5.97,1.95,8.98.84,4.55,1.61,9.03.62,13.69-.68,3.22,1.74,5.99,1.96,9.13.37,5.25,1.47,10.38,2.7,15.48.96,3.94,1.81,7.91,2.97,11.8.64,2.16.68,5.99,1.56,6.25,3.3.98,2.58,3.34,2.91,5.45.17.22.34.45.51.68-.62,2.86,1.13,5.06,2.08,7.49,1.95,1.16,1.01,3.34,1.74,4.93,3.27,2.92,3.88,6.93,4.53,10.93.76.15,1.49.3.6,1.24-.18.9.24,1.04,1.07,1.39,1.7.73,3.87,1.2,4.5,3.26.97,3.17,3.66,5.11,5.42,7.69.88,1.29,2.5,2.45,2.96,4.01,1.14,3.86,4.3,5.75,6.98,8.27,2.96,2.8,6.23,5.51,7.98,9.32.59,1.3,1.08,2.3,2.39,2.95,2.19,1.09,4.29,2.65,5.92,4.2,5.22,4.97,11.2,8.78,17.13,12.72.71-.01,1.18.29,1.32,1.01.45.72.83,1.52,1.86,1.52.96.13,2.24-.44,2.51,1.16,1.14.21,1.06,1.54,2.06,2.06,3.57,1.87,7.43,3.29,10.34,6.26.78-.02,1.46.09,1.53,1.08.42.27.85.53,1.27.8,1.46-.75,2.89-1.43,3.16,1.14,1.23.17,2.48.42,3.37,1.35,2.38,2.48,5.6,3.51,8.7,3.9,1.82.23,4.65-1.03,5.74.19,2.13,2.37,4.52,1.25,6.78,1.72,2.96.62,6.2.07,8.87,1.89,2.93,2,6.15,2.6,9.64,2.55,2.7-.04,5.4-.17,8.13.2,3.18.42,6.29,2.49,9.63.68.84-.87,1.86-.76,2.9-.52,3.3-.45,6.54-.34,9.4,1.61,1.09.75,2.42.89,3.19.25,2.32-1.95,5-1.39,7.61-1.71,2.05-.26,4.31-.26,6.05-1.69,2.07-1.68,4.22-2.6,6.85-1.42.18.01.35.01.53.01,1.96-.91,4.15-.53,6.2-1.36,4.91-1.97,10.1-3.08,15.36-3.8.12-1.25,1.05-1.16,1.92-1.15,1.37-.83,2.54-1.88,4.03-2.62,3.76-1.87,7.88-1.61,11.76-2.6.13-1.22,1.02-1.14,1.88-1.12.21,0,.5.08.62-.02,3.8-3.26,8.42-4.96,12.84-7.11,1.99-.97,4.6-1.01,5.97-2.64,3-3.58,7.13-5.71,11.02-7.41,3.75-1.64,6.59-3.89,9.44-6.51,2-1.85,3.91-4.06,7.14-3.52.87.15,1.22-.65,1.81-1.01,4.31-2.66,6.68-7.58,11.43-9.71-.03-.36-.01-.66.47-.37,2.42-1.04,3.43-4.14,5.69-4.82,3.34-1,5.2-3.61,7.2-5.75,4.22-4.49,9.47-7.71,13.75-12.08,1.04-1.07,2.71-1.2,3.77.55,1.82,3.04,3.13,6.53,6.95,7.78.09-.62.29-1.14,1.06-1.07.61.05.75.51.84,1,2.02,2.12,3.23,5.23,6.5,5.85,2.79.54,4.06,2.52,5.52,4.63.81,1.17,1.19,2.86,2.32,3.5,4.99,2.79,9.37,6.27,13.31,10.37.63.66,1.96,1.2.93,2.36-.81.91-1.81.27-2.63-.28-2.83-1.91-5.65-4.21-9.22-3.91-2.81.23-3.97-2.44-6.35-2.75-3.17-.41-6.48-.41-9.51-.9-3.81-.61-6.71,1.29-10.07,1.65-1.46.16-1.28,2.94-3.13,3.11-2.5.22-3.56,2.27-4.44,3.94-1.19,2.28-2.87,3.93-4.74,5.51-.04.66.15,1.38-.53,1.86-.65,2.29-.95,4.77-2.06,6.81-1.4,2.57-1.59,5.09-.5,7.52.98,2.16.3,4.92,2.47,6.58,1.23.08,1.86.72,1.86,1.96,1.74,2.99,3.29,6.19,7.23,6.82.84.13,1.08.92,1.63,1.26,2.6,1.6,5.16,3.58,8.02,4.35,2.38.65,4.76,1.35,7.12,2.09.24.15.49.3.73.45l.18.21.21-.17c.72.21,1.64-.11,2.11.77,4.37-1.5,8.37.43,12.48,1.32h.01s.09.02.14.03c0,0-.09-.06-.09-.07,3.54.11,7.04-1.28,10.94-.38-1.25,1.05-2.14,1.82-3.42,2.43-2.82,1.35-4.63,3.78-5.59,6.94-1.42,4.68-6.65,7.08-7.62,12.14-.03.18-.74.4-1.08.33-2.76-.54-4.87,1.23-7.26,1.96-1.36.41-2.15,2.05-3.78,1.85-2.86-.36-5.06.72-6.82,2.92-.37.46-.86.77-1.55.93-2.8.62-5.59.57-8.35,2.32-4.13,2.6-9.15,3.62-13.7,5.61-5.99,2.61-12.36,4.27-18.44,6.73-1.62.66-3.02,1.67-4.72,2.23-1.69.56-3.14-.92-4.66.06-6.29,4.06-13.47,6.07-20.33,8.82-.37.15-.83.15-1.24.12-1.72-.13-3.1.55-4.64,1.32-2.69,1.34-5.61,2.54-8.55,2.97-1.95.28-3.67.57-5,1.91-1.3,1.32-2.74,1.73-4.53,2.21-3.12.84-6.79.72-9.16,3.72-.54.68-1.81,1.11-2.75,1.1-5.43-.02-9.49,3.76-14.47,5.12-3.77,1.03-7.22,3.49-11.14,4.68-3.03.91-5.85,2.47-8.52,4.21-1.52,1-2.19,2.58-2.16,4.32.01,1.25.81,2.42,2.11,2.52,3.74.28,7.56,1.56,11.19.61,4.02-1.06,7.76.62,11.68.55,3.46-.07,7.28.62,10.97.91,2.63.21,5.41-.33,7.8.27,3.41.87,7.18,1.5,10.21,1.18,5.91-.62,11.8-.3,17.54.03,9.16.53,18.43,1.07,27.41,3.77,7.89,2.36,16.46,1.66,24.26,4.76.54.22,1.4.26,1.86-.02,1.66-1.02,3.47-.19,4.62.35,1.85.87,3.32,1.45,5.19.41.3-.17,1.01-.14,1.19.08,1.63,1.94,3.96,1.32,6,1.77.22.17.45.34.67.51.22.03.43.06.65.09.86-.95,1.11-.34,1.26.5,1.93.34,3.85.08,5.78-.07.69-.06,1.31-.79,2.12.14,2.51,2.88,5.76,2.5,8.8,1.27,2.2-.89,3.91-.18,5.25,1.08,1.57,1.48,3.28,1.02,4.86.84.81-.09,1.49-.3,2.44-.24,5.23.31,10.04,2.54,15.29,3.02,3.77.35,7.76-.44,11.34,1.12,3.66,1.59,6.99,4.21,11.4,2.58.51-.19,1.45.23,1.97.65.96.79,2.01.36,3.02.47,1.6.57,3.73-1.07,4.93,1.2,3.31.08,6.37,1.39,9.76,1.53,5.92.25,11.79,1.63,17.71,2.18,3.39.31,6.22,2.18,9.78,2.36,3.86.2,7.91-.34,11.71,1,2.6.92,5.45,1.23,8.05,1.61,3.32.48,6.51,1.78,10,1.68,2.25-.06,4.88-.38,6.8.26,5.11,1.72,10,3.2,15.57,2.95,4.61-.21,9,2.16,13.92,2.17,3.91.01,8.05,1.94,11.99,3.09,6.45,1.89,12.84,1.9,19.3,1.88,1.09,0,1.62,1.98,2.83.51,1.54-1.87,4.2-2.4,5.69-4.12,3.62-4.14,9.36-4.5,13.31-8.05,1.82-1.63,3.98-3.14,6.54-3.84,3.33-.9,6.88-1.5,8.76-5.09.5-.95,1.63-1.46,2.96-1.3,2.65.33,4.71-.92,6.72-2.55,1.82-1.46,2.96-4.08,5.89-3.89.33-1.37.98-1.45,1.9-.49,1.89-1.45,4.21-1.97,6.31-2.93,1.54-.71,3.56-.96,4.58-2.12,3.39-3.87,8.13-3.98,12.53-5.12.4-.7,1.09-.59,1.73-.6.8-1.6,2-2.64,3.71-3.35,2.33-.96,4.95-1.84,6.66-3.55,4.15-4.15,9.88-5.25,14.53-8.33,2.73-1.8,6.14-1.43,8.79-3.26.25-1.55,1.49-1,2.41-1.12.54-.76,1.08-1.8,2-1.83,5.47-.18,8.4-5.12,13.14-6.87,3-1.11,5.64-3.77,8.73-4.93,2.31-.88,4.15-2.02,5.89-3.63,1.43-1.32,2.92-2.66,5.12-2.37.07-.37.22-.64.67-.51,2.36-1.76,5.25-2.48,7.74-3.89,5.16-2.9,10.37-5.71,15.61-8.47.76-.4,1.64.87,2.33-.4,1.6-2.89,4.82-2.75,7.38-3.91,1.76-.79,3.84-.65,5.31-1.91,3.05-2.59,6.72-3.94,10.24-5.65,1.66-.8,3.75-1.17,4.73-3.09-.15-.44.02-.58.44-.45,2.24-.93,4.62-1.62,6.67-2.87,1.15-.7,2.38.37,3.49-.95,2.81-3.32,8.05-3.16,10.6-7.04.1-.15.63.03.9-.08,3.95-1.72,8.52-2,11.69-5.56,1.57-1.76,3.6-4.01,5.65-4.27,5.84-.73,8.07-7.72,14.16-7.58.07.01.15-.14.21-.22,1.7-2.74,4.96-3.37,7.41-4.92,6.18-3.92,12.16-8.07,18.07-12.35.77-.57,2.63-.37,2.08-2.16ZM302.82,336.42c1.54-2.44,1.82-5.03,1.34-7.78-.04-.21-.16-.54-.07-.6,4.19-3.19,1.92-9.67,6.07-12.58,4.2-2.94,6.36-8.68,12.53-8.98,1.29-.07,2.49.29,3.66.18,2.41-.22,4.75-.57,7.17-1.33,2.73-.85,6.57-1.16,9.3,1.34,1.29,1.19,2.44,1.71,4.22,1.05,2.55-.93,5.24.17,7.22,1.25,2.36,1.28,4.97,1.84,7.29,3.23,4.6,2.74,9.37,5.25,14.25,7.45,3.07,1.38,4.03,4.63,6.66,6.34,1.9,1.23,3.7,2.66,5.84,3.4,2.92,1,5.41,2.23,6.33,5.57.33,1.22,1.75,2.06,2.7,2.83,3.17,2.52,5.88,6.42,9.4,7.47,5.04,1.5,5.5,5.84,7.91,8.9,1.74,2.22,4.77,2.65,6.15,5.14.09.15.47.17.53.32,1.92,4.85,7.17,7,9.44,11.57.09.18.2.39.35.52,5.31,4.58,8.11,11.08,12.41,16.46,2.41,3.01,4.81,6.13,7.12,9.27,2.51,3.63,4.88,7.37,7.61,10.83,1.18,1.48,2.06,3.26,2.17,4.74.39,5.26,6.05,7.42,6.72,12.38.52,3.82,3.04,6.93,3.61,10.94.3,2.12,1.99,5.33,4.56,6.92,1.53.95,1.81,2.33,1.43,3.8-.72,2.84-1.7,5.5,2.31,6.84,1.49.5.76,2.17.69,3.83-3.1-2.52-7.25-2.3-9.87-5.31-1.65-1.88-4.32-1.5-6.44-2.52-2.04-.98-4.36-2.13-7-1.84-1.05.12-2.78-.02-3.09-2-.2-1.24-1.65-1.25-2.58-1.4-4.64-.77-8.8-3.3-13.53-3.71-.28-.02-.71-.2-.79-.41-1.53-3.96-4.98-2.84-7.85-2.8-1.16.01-2.35-.06-2.87-.78-2.39-3.36-6-2.39-9.19-2.79-2.13-.26-4.19.05-6.01-1.85-1.64-1.71-4.27-.74-6.4-.68-1.5.04-2.77.04-4.07-.73-4.23-2.5-9.5-1.37-13.71-3.69-5.08-2.81-10.99-.74-15.97-2.92-6.63-2.9-13.61-.79-20.28-2.26-.41-.09-1.02.13-1.24-.09-3.27-3.28-6.48.23-9.7.04-3.54-.21-6.79.27-9.7,2.55-1.42,1.13-3.77,0-4.34-2.06-1.22-4.41-3.48-8.3-5.88-12.13-.67-1.07-1.33-2.15-1.07-3.5-.43-3.32-2.27-6.23-3.57-9.1-2.07-4.57-3.2-9.11-3.56-13.99-.12-1.73.14-3.6-1.96-4.56-.47-.21-.96-1.01-.96-1.54-.06-4.15-2.36-8.01-1.71-12.19.25-1.64-1.01-2.39-1.3-3.72-1.59-7.36-2.31-14.81-2.95-22.29-.1-1.11.12-2.17.67-3.03Zm-151.54,73.42c-.64,2.35-2.93,3.94-3.51,6.69-4.76-4.19-8.37-8.46-7.9-14.89.03-.37-.22-.91-.52-1.12-2.87-2.04-3.01-5.65-4.81-8.32-2.3-3.43-2.92-7.56-3.91-11.5-.43-1.69-1.5-2.83-2.85-3.5-1.48-.73-1.73-1.45-1.23-2.94.46-1.38.63-2.88.74-4.34.18-2.42.55-4.68-1.53-6.9-2.33-2.47-1.7-6.25-2.64-9.39-1.48-4.97-.14-9.93,1.15-14.81.56-2.1.95-4.16.29-6.43-.42-1.43.49-3.01.94-4.49,2.38-7.75,5.66-15.19,9.15-22.43,1.76-3.64,3.36-7.87,6.97-10.59,1.95-1.46,3.25-3.74,4.1-5.92,1.77-4.53,5.44-7.29,8.69-10.46,3.9-3.81,8.18-7.25,11.78-11.31,2.25-2.54,5.03-3.43,7.87-4.56.78-.31,2.01-.38,2.28-.93,1.72-3.54,5.35-3.62,8.31-4.98,1.87-.87,3.94-1.55,5.32-3.27.64-.82,1.51-.83,2.47-.99,1.98-.33,4.27.03,5.73-1.96.28-.37.74-.64,1.38-.37,2.5,1.04,5.28.81,7.71,1.29,2.97.59,6.01.35,8.85,1.16,1.44.41,2.51.21,3.86-.11,3.29-.79,6.39-.06,9.76.6,4.37.85,8.04,3,12.1,4.28,4.37,1.38,8.46,3.68,12.67,5.57.1.05.23.08.28.16,4.02,6.42,11.94,8.89,15.81,15.29,2.63,4.34,5.49,8.55,7.91,13.01.33.59.13,1.45.24,2.17.48,2.99,1.23,5.89,3.06,8.38,1,1.37.53,2.09-.99,2.38-.5.09-1.32-.05-1.49.23-2.41,3.99-6.98,2.5-10.24,4.17-2.42,1.24-4.56,3.11-6.6,4.96-1.98,1.8-4.11,2.89-6.72,3.64-4.83,1.39-9.51,3.34-12.99,8.28-.07-1.3-.37-2.1-.09-2.54,2.02-3.21,1.1-6.78,1.07-10.13-.03-2.16-1.32-4.38-2.35-6.42-.97-1.93-2.27-3.71-3.58-5.43-1.02-1.35-1.75-3.03-4.14-2.76-1.83.2-2.18-2.19-3.73-3.05-2.9-1.6-6.08-1.65-9.05-2.11-5.16-.81-10.16-2.67-15.72-1.8-2.69.42-5.82.17-8.75.16-2.09-.01-3.97.71-5.61,1.63-1.17.66-2.28,1.32-3.46,1.08-4.83-.96-7.66,1.95-10.98,4.7-1.98,1.65-4.37,3.18-6.83,4.31-1.28.59-2.45,1.25-3.27,2.35-3.53,4.71-7.88,8.66-11.23,13.66-3.96,5.89-6.02,12.5-9.33,18.58-1.52,2.78-2.54,5.92-1.29,9.33.5,1.34.14,2.98-.6,4.28-1.32,2.32-1.33,4.73-1.27,7.31.05,2.55.64,4.11,3.17,5.36,2.82,1.39,2.14,4.68,2.49,7.31.57.37.67.84.31,1.41.38,1,.33,2.02.13,3.05.62.24.8.71.71,1.32,1.15,1.3,2.01,2.81,2,4.53-.03,3.21,2.21,4.78,4.31,6.49.47.38,1.16.51,1.57.94,3.53,3.71,3.62,7.58.06,11.32-2.63,2.76-5,5.54-6.03,9.37Zm71.58-79.99c-1.04,2.65-2.33,5.2-3.17,7.97-.51,1.7-2.46,2.89-4.08,4.07-2.67,1.92-6.26,2.39-8.38,5.04-3.42,4.27-8.52,6.92-11.23,11.85-.35.63-.87,1.41-1.47,1.59-3.43,1.04-5.45,3.92-7.88,6.15-3.94,3.62-7.58,7.57-11.13,11.57-1.46,1.64-2.76,1.07-2.75-.33.02-2.45-2.42-3.8-2.33-5.75.19-4.33-3.26-6.85-4.39-10.44-.49-1.58-.57-3.35-.52-5.02.11-4.82.05-9.64.54-14.45.21-1.96.15-3.94.57-5.9.29-1.33.53-2.63,1.52-3.59,3.51-3.45,5.51-8.1,8.89-11.55,3.99-4.08,8.5-8.7,13.79-9.86,6.85-1.52,13.73-5.41,21.3-2.58,1.37.51,3.22.37,4.94-.04,3.81-.91,9.1,3.06,9.1,7.26,1.22,4.72-1.45,9.24-3.32,14.01Zm220.01,259.21c-1.28,2.98-4.18,4.34-6.52,6.16-4.34,3.37-8.92,6.44-13.45,9.56-4.16,2.86-9.14,4.22-13.31,7.01-6.41,4.3-14.29,6.16-19.82,11.92-.98,1.02-2.49.83-3.71,1.49-2.5,1.36-5.45,1.83-7.77,3.62-3.31,2.54-7.63,1.94-11.3,3.69-2.48,1.17-4.83,2.62-7.34,3.73-1.63.71-3.05,1-4.98.6-4.15-.87-8.08.75-11.72,2.59-1.71.87-2.8,2.02-5.01.61-1.3-.83-3.36-.3-5.41.49-4.2,1.65-8.57,4.16-13.56,2.28-1.73-.65-4.09-.69-5.41.35-2.71,2.13-5.39,1.06-8.21,1.12-2.59.05-5.12-1.03-7.7-.24-.69,1.01-1.04.62-1.27-.31-3.01.02-6.04-1.94-9.02.17-.41.29-.84.01-1.1-.3-1.47-1.79-3.57-1.73-5.58-2.25-2.16-.56-4.03-1.38-5.96.37-.51.45-1.23.33-1.79-.03-2.03-1.3-4.44-1.59-6.61-2.76-3.77-2.05-7.57-5.07-12.46-3.22-.16.1-.33.16-.52.17-1.51-1.05-3.01-2.11-4.52-3.16-1.23-.1-1.16-1.01-1.16-1.87-.43-1.88-1.9-1.18-3.08-1.27-2.8-.23-5.69.66-8.42-.89-1.25-.71-1.34-3.18-3.56-2.35h-.88c-2.87-.96-5.68-1.87-6.92-5.16-.57-1.5-1.99-2.33-3.71-2.38-1.25-.54-1.51-1.77-1.97-2.85-3.67-2.78-8.16-4.59-10.52-8.97-.43-.8-1.7-1.16-2.62-1.66-4.09-2.21-8.41-4.43-10.95-8.31-2.8-4.27-5.66-8.47-9.28-11.96-2.6-2.49-4.78-5.04-6.08-8.34-1.13-2.86-3.7-4.64-5.37-7.14-1.84-2.76-.41-5.35-.55-7.98-.09-1.77-.67-3.64-1.85-3.98-3.92-1.11-3.38-4.2-3.18-6.76.29-3.55-.74-6.13-3.71-7.97-.57-.36-.68-.73-.39-1.28-.78-1.52-.44-2.96.33-4.37l-.75-1.59c-.62-.06-1.19-.17-1.13-1-.16-3.47-.89-6.83-1.96-10.12-.01-.42-.01-.85-.01-1.27-.27-3.79-1.31-7.33-2.96-10.79-1.29-2.69-.81-5.8-.92-8.73-.09-2.54-1.03-4.93.18-7.71,1.87-4.32-.84-8.9-.24-13.43.87-6.54-.43-13.19.86-19.72.28-1.39.83-2.75,1.35-4.09.81-2.08,1.43-4.08-.38-6.04-1.47-1.6-.32-3.35.38-4.66,3.49-6.56,5.39-13.7,7.94-20.61.11-.29.43-.57.42-.84-.45-6.5,4.57-10.07,7.83-14.57,1.27-1.76,3-3.25,4.04-5.13,1.15-2.06,4.15-3.16,3.37-6.24,4.8-2.93,6.65-8.58,10.94-11.86,1.22-.94,2.74-1.72,4.12-2.62,3.18-2.09,4.58-5.65,7.45-7.87,2.51-1.95,5.03-3.9,7.52-5.87.64-.5,1.65-1.1,1.68-1.68.07-1.87,1.51-2.41,2.65-3.21,1.6-1.12,3.3-2.02,4.3-3.9.56-1.07,1.77-1.57,3.11-1.88,2.94-.69,5.87-1.6,7.28-4.75.16-.37.47-.84.8-.94,4.82-1.39,7.23-6.15,11.43-8.26,3.04-1.52,4.85-4.34,7.77-5.98,6.66-3.72,12.45-8.83,19.45-12.09,2.24-1.04,3.78-3.35,6.01-4.71,1.4-.85,2.68-1.93,4.23-2.57.92-1.52,2.54-.74,4-1.58-.13,1.53-.22,2.65-.31,3.76-.58,3.18-1.12,6.37-1.74,9.54-.41,2.1-1.74,4.17.08,6.25.26.3.62.86.51,1.11-1.75,3.84,1.67,7.92-.81,11.92-1.04,1.67,1.2,3.96.89,6.33-.49,3.77-.07,7.43,3.65,9.88.98.65,1.41,2.21.7,3.45-2.03,3.57-1.43,6.9.55,10.24,2.05,3.46,2.43,7.36,2.72,11.24.14,1.9.96,3.2,2.22,4.55,2.41,2.6,4.51,5.43,4.17,9.32-.22,2.45.38,4.4,2.28,6.36,1.89,1.95,1.46,5.05,1.5,7.69.02,1.64.66,2.65,1.74,3.78,1.96,2.04,3.76,3.93,4.36,7.22.47,2.6.93,6.53,4.87,7.49.69.17.92.78.88,1.49-.17,3.31,2.01,5.46,3.65,7.99,1.93,2.99,3.21,6.39,4.85,9.58.98,1.91,2.03,4.48,3.32,5.39,3.72,2.62,3.65,7.13,6.31,10.2,3.29,3.79,4.05,9.07,6.74,13.23,1.66,2.55,3.31,5.39,6.05,6.96,2.4,1.37,3.81,3.28,3.99,5.85.23,3.24,1.62,5.39,4.33,7.17.39.25.75.53,1.09.84.22.19.43.39.63.6.21.2.4.42.59.64.39.45.75.92,1.1,1.41.19.26.38.53.57.81.38.54.75,1.09,1.13,1.63.22.3.44.61.67.91.03.08.07.15.12.22.04.08.09.15.13.22.02.03.04.06.06.09.09.13.19.26.29.39.12.15.24.29.37.42.13.14.26.28.38.41.18.19.35.37.51.55.42.46.8.95,1.02,1.54.09.23.15.48.19.74.02.14.03.28.03.42.06.1.09.25.17.27,5.81,1.77,6.94,7.1,9.23,11.72,1.16,2.33,2.73,4.64,5.28,6.12,4.68,2.72,8.24,6.62,10.71,11.48.07.13.14.27.22.41.19.33.44.63.84.76.08.04.16.06.25.07.95-.59,1.62-.47,1.88.73,1.39,1.65,3.7,1.68,5.32,3.13,2.01,1.79,2.84,4.3,4.29,6.36,1.76,2.49,3.35,4.48,6.29,5.27.37.09.69.48.94.8,2.21,2.91,6.13,4.02,7.8,7.51.36.75,1.17,1.27,2.12,1.07,2.47-.51,4.08,1.1,5.37,2.62,2.74,3.21,5.64,5.2,10.15,5.92,2.89.46,6.16,1.5,9.08,2.77.55.1,1.28-.16,1.52.56.15.46-.29.64-.68.74Zm61.85,105.04c-.19-.53-.2-1.01.41-1.3,2.58-2.69,4.58-5.78,8.92-6.59,2.2-.41,4.17-2.9,6.83-3.28.51-.08,1.04-.03,1.56-.03,2.59-2.7,5.32-1.59,8.06-.32.35-1.38,1-1.47,1.92-.46,1.3.57,2.56-1.55,3.88-.06,4.36.62,7.08-2.05,9.54-4.97,1.54-1.84,1.07-3.87-.36-5.64-2.24-2.78-4.55-5.47-8.76-4.57-2.23.47-4.24-.38-6.23-1.25-.77.3-1.66,1.06-1.89-.53-2.32-1.48-5.27-.18-7.57-1.72-.22.06-.44.12-.66.18-4.36,1.05-8.78,1.27-13.23.78-3.99-.44-7.98.04-12-.45-3.34-.4-6.51-1.12-9.67-2.1-.56-.18-1.07-.9-1.7-.37-2.17,1.85-3.77.25-5.54-.77-2.36-1.36-4.68-2.8-7.46-3.23-2.95-.45-3.94-3.28-5.66-5.09-3.97-4.15-3.83-7.43-.45-12.15.8-1.12,1.75-2.16,2.27-3.56.96-2.56,3.28-2.06,5.36-1.86,2.56-1.46,5.21-.83,7.77-.12,5.2,1.44,10.55,2.51,15.11,5.66,4.45,1.29,8.9,2.55,13.34,3.89.81.24,1.57.57,2.44.42,1.2-.77,2.43-.23,3.65-.06,1.14.06,2.35.39,3.41.13,3.39-.85,5.96.29,8.06,2.88,1.64,2.02,4.03,2.49,6.36,3.08.42-.13.51.1.52.45,1.47.79,2.88,1.71,4.42,2.32.97.39,2.24.6,1.49-1.37-2.52-6.63-4.36-13.5-9.66-18.83-1.94-1.95-4.15-4.02-5.24-6.81-1.88-4.81-5.54-7.97-10.13-9.97-2.17-.95-3.57-2.4-4.57-4.4-1.15-2.31-3.32-3.6-5.02-5.35-2.52-2.6-6.6-3.77-7.42-8.15-.48-2.56-3.52-2.62-5.47-3.68-.61-.33-1.67-.26-1.77-1.05-.43-3.67-3.27-4.85-6.11-5.84-1.74-.6-3.06-1.55-4.21-2.88-.91-.22-1.06-.98-1.23-1.73-2.96-.78-4.94-2.9-6.57-5.23-1.27-1.81-2.63-3.07-4.85-3.28-1.31.31-1.69-.6-2.04-1.55-.36-.36-.68-.99-1.08-1.04-5.26-.65-7.75-5.12-11.47-7.92-2.29-1.73-4.49-4.02-7.6-4.61-.78-.15-1.66-.54-2.2-1.11-4.66-4.82-11.19-6.21-16.71-9.38-4.48-2.58-9.64-3.71-13.68-7.03-.32-.27-.77-.8-.98-.72-4.02,1.52-5.86-2.85-9.14-3.33-1.51-.23-1.91-1.49-1.72-2.91-.14-.25-.28-.51-.41-.76-.63-.87-1.44-1.51-2.35-2.07-.71-.43-1.82-1.05-1.84-1.61-.12-4.52-4.6-5.85-6.32-8.94-2.04-3.67-5.23-6.16-7.39-9.32-2.34-3.42-6.83-5.76-6.82-10.7-4.04-2.13-5.45-6.44-8.13-9.71-.39-.49-1.02-.88-1.2-1.42-1.73-5.19-6.21-8.88-8.23-13.46-2.26-5.11-6.17-8.29-9.16-12.45-.57-.8-1.03-1.57-.97-2.58.12-2.04-1.07-3.51-2.58-4.42-2.2-1.32-3.27-3.34-3.78-5.57-.6-2.65-1.48-5.58-2.74-7.51-2.11-3.25-3.89-7.02-7.15-9.47-1.13-.85-1.9-1.8-2.22-3.43,2.93,2.2,6.86-.67,9.61,2.37.4.44,1.8.03,2.72-.09,3.54-.44,6.92-.35,9.57,2.53.49.52,1.08.6,1.73.44,4.16-1.02,8.03-.01,11.81,1.65.19.08.4.33.54.29,5.31-1.74,9.99,2.31,15.13,1.64,1.05-.14,1.69.17,2.2.67,1.76,1.75,3.84,1.94,6.1,1.54,1.69-.3,3.17-.01,4.45,1.25,2.43,2.4,5.94,2.02,8.79,2.5,6.54,1.1,12.61,3.06,18.41,6.11.19.09.39.29.56.27,4.64-.44,8.11,3.21,12.72,3.41,4.73.2,8.25,3.76,11.94,6.42,1.16.84,2.16,1.56,3.59,1.61,1.37.05,2.61.7,3.16,1.83,1.19,2.42,3.1,2.89,5.47,2.61,1.43,0,2.48.47,3.8,1.3,4.7,2.96,9.05,6.54,14.19,8.74,1.48.63,2.13,1.91,3.02,2.96,1.33,1.58,2.68,2.64,4.85,1.99,1.33-.4,2.87.08,3.43.92,2.76,4.12,7.7,4.07,11.44,6.27,3.01,1.78,5.66,3.78,8.2,6.28,2.74,2.7,5.16,6.23,9.5,7.07,1.71.33,3.35,1.71,3.94,3.14.5,1.22,1.52,1.49,2.08,2.37,4.69,1.02,8,4.28,11.66,7.02,3.48,2.6,6.99,5.02,8.35,9.52.24.83,1.77,1.27,2.71,1.88,1.34.22,2.05,1.15,2.59,2.27,1.48.92,2.97,1.84,4.46,2.77.78.02,1.66-.12,1.86.99.45.04.9.07,1.35.11,1.13-.71,1.08.17,1.16.86,1.93,2.88,3.55,5.99,7.67,6.43,1.21.13,2.69,1.18,2.61,3,2.53.6,2.81,2.92,3.67,4.81,3.46-.26,5.87,1.12,7.53,4.25.61,1.16,1.73,2.14,3.44,2.43,3.07.52,4.51,3.3,6,5.61.91,1.4,1.75,2.66,3.36,2.82,2.67.27,2.39,2.99,3.84,4.34,2.6,2.4,5.16,4.88,7.69,7.38.74.09,1.02.56,1.04,1.26.2.71.72.63,1.26.52.06-.4.11-.87.62-.89.51-.02.58.45.65.85,2.49.45,4.04,2.14,5.09,4.23,2.26,4.48,6.48,6.74,10.32,9.44,2.32,1.63,4.1,3.74,5.61,6.1,1.67-.08,3.13.1,3.03,2.32,3.56,3.24,8.11,5.36,10.77,9.65.72,1.16,1.89,2.05,3.13,2.91,4.58,3.19,8.92,6.72,13.32,10.17.71.56,1.34,1.17,2.6,1.21-2.48-4.72-3.94-9.77-7.7-13.55-.78-.42-1.26-1.03-1.21-1.96-.72-2.54-2.81-4.01-4.31-5.92-1.31-1.67-2.44-3.87-3.77-5.71,2.35-1.48,5.2-.21,7.43-1.75.2-.18.41-.35.62-.52,4.34-1.67,7.99-4.18,10.56-8.19,1.04-1.62,2.71-2.49,4.58-3.26,3.02-1.24,3.93-4.61,5.85-6.97.39-.48.88-.87,1.33-1.3,1.22-2.01,2.17-4.05,4-5.83,3.24-3.13,6.44-6.32,9.55-9.52,1.92-1.97,4.54-3.96,5.71-7.01.7-1.82,2.64-3.32,4.33-4.56,2.41-1.76,4.55-3.69,6.65-5.84,2.34-2.4,6.08-2.43,9.42-2.67,1.65-2.72,3.87-3.02,6.63-1.75,2.32,1.07,5.06.62,7.38,1.82,1.39.12,1.88.97,1.85,2.25,3.14,1.82,6.06,8.92,4.92,13.34-.95,3.73-1.19,7.82-4.2,10.85-.71.71-1.08,1.83-2.2,2.02-1.22.21-1.66,1.29-1.59,2.01.34,3.34-2.14,4.75-4.31,5.89-1.88.98-3.17,2.21-4.26,3.91-.76,1.17-1.8,1.78-3.24,2.38-2.15.89-4.56,2.22-5.9,4.32-1.2,1.88-3.26,2.42-4.58,3.7-3.93,3.79-9.35,6.06-11.92,11.2-2.13,4.29-4.81,8.59-4.78,13.45.02,3.8,2.46,7.19,4.93,10.02,3.61,4.12,8.26,6.16,13.91,4.69.78-.2,1.46-.16,1.99.49,1.71,2.12,4.31,1.57,5.9.82,4.41-2.07,8.9-3.52,13.73-4.02.2-.02.5-.01.6-.13,3.09-3.84,7.31-2.47,11.24-2.47.31-.57.95-.57,1.36-.44,3.54,1.18,5.58-1.37,8.11-2.98,2.05-1.3,4.56-1.98,6.99-1.34,1.69.46,3.17.45,4.85.08,2.22-.49,4.19,1.51,6.5.96,3.79.28,7.31,1.98,10.8,3.07,2.85.88,4.27,5.32,5.35,8.7.86,2.67-1.87,3.75-2.97,5.49-3.19,5.06-8.06,8.23-13.25,11.01-1.1.6-2.01.96-3.19.74-.43-.01-.85-.02-1.28-.03-3.22,1.81-6.99,1.75-10.4,3.02-3.02,1.12-6.14-.35-9.23-.64-2.91-.28-5.88-.66-8.59,1.02-.43.27-1.05.62-1.42.49-4.03-1.46-7.71,1.38-11.74.76-5.18-.81-10.41.24-15.62.41h-.01c-.03.13-.07.23-.12.32-.13.21-.34.29-.57.31-.16.01-.33,0-.51-.02-2.95,1.34-5.86,2.74-8.85,3.97-.98.41-1,1.55-1.89,1.92-.43.42-.85.83-1.28,1.25-.07.2-.22.33-.42.38-.03.12-.1.2-.22.24-2.35,2.52-5.49,4.55-6,8.29-.61,4.35-.31,8.85,1.02,12.9,1.36,4.14,4.78,7.05,9.07,8.57.29.1.69.14.83.35,2.9,4.3,7.51,6.62,11.32,9.87.63.54,1.26,1.12,1.41,2.02.26,1.48,1.33,2.7,2.45,3.11,3.01,1.11,4.67,3.13,5.35,6.14.64.12,1.37.19.77,1.14,1.91,2.58,3.75,5.19,5.27,8.03,1.16,2.16,1.57,4.17-.52,6.01-.2.2-.4.41-.6.61-2.19,3.17-5.45,4.04-9.03,4.3-.65.05-1.23.17-1.79-.21-2.38-1.62-5.39-2.09-7.51-4.16-.74.05-1.56.31-1.79-.78-4.66-1.31-8.46-4.12-12.16-7.07-.89-.7-1.69-1.52-2.52-2.28-.4.06-.57-.11-.51-.51-2.51-1.29-3.39-3.99-5.17-5.91-1.37.14-1.92-.39-1.44-1.77-.8-.04-.98-.61-1.08-1.25-.37-.01-.59-.15-.51-.56-3.98-2.34-3.85-7.69-7.49-10.23-3.78-2.65-3.67-8.25-7.32-10.42-3.02-1.81-2.23-6.35-6.15-6.95-.61-.09-.62-.98-.7-1.63-.49-3.75-2.2-5.57-6.13-7.28-4.12-1.8-7.94-2.11-11.99-2-2.81.07-5.23,1.58-7.81,3.01-5.36,2.96-4.46,6.94-3.9,11.59.79,6.58,2.2,12.93,4.59,19.09v.06c1.42,2.92,4.89,4.72,4.67,8.54.76.2,1.21.5.42,1.23,1.51,3.81.73,7.92,1.48,11.88.72,3.76.93,7.92-.94,11.74-.73,1.48-2.37,1.15-3.22,2.18-1.41,1.72-2.01-.22-3.02-.59-2.61-.94-5.28-1.8-7.98-2.4-1.17-.25-1.99-.47-2.23-1.71-.32-1.57-1.64-2.69-2.73-3.28-2.48-1.36-3-3.73-3.98-5.9-1.25-2.78-3.17-5.24-3.47-8.48-.65-7.1-4.12-13.44-5.7-20.29-.41-1.78-2.15-2.11-2.98-3.36,0-.42.01-.85.01-1.27-2.7-4.13-4.64-9.48-10.09-10.36-4.39-.72-9.17-.95-13.31,2.08-2.49,1.82-5.4,3.07-7.78,5.1,1.02,1.04.19,1.15-.64,1.27-5.51,3.02-9.94,7.68-15.49,10.58-3.12,1.63-6.3,3.44-10.11,3.5-1.29.01-2.69,1.09-3.82,1.96-4,3.06-8.22,2.76-12.56,1.05-.57-.22-1.13-.92-1.62-.23-2.62,3.75-5.72,1.26-8.62.67-2.33-.48-4.42-1.61-6.93-1.89-3.19-.35-6.15-2.32-7.46-5.51-1.21-2.93.06-5.49,2.28-7.58Zm428.7-25.87c-4.42,3-9.68,4.34-13.92,7.53-5.44,4.09-12.87,4.3-17.86,9.27-.45.45-1.57.9-1.92.67-2.02-1.37-3.19.07-4.31,1.22-2.62,2.7-6.62,2.47-9.46,4.64-1.92,1.47-4.55,1.68-6.26,3.54-1.17,1.28-2.75-.04-4.24.76-2.55,1.37-5.11,2.6-7.49,4.35-1.88,1.38-4.23,3.3-6.82.85-1.88,1.78-5.12,1.36-6.53,3.53-2.08,3.18-5.41,4.44-8.5,5.13-3.99.89-7.31,2.88-10.42,5.02-3.17,2.19-6.45,4.13-9.86,5.77-1.1.53-2.16,1-3.09,1.79-1.27,1.07-2.71,2.25-4.32,2.08-2.91-.3-4.66,1.5-6.46,3.08-1.28,1.1-2.33,2.21-4.17,2.32-3.81.21-6.95,2.59-9.5,4.74-3.04,2.56-6.41,2.24-9.6,3.26-2.83.92-5.61,1.92-7.56,4.28-.38.46-.66.63-1.17.75-2.16.52-3.87,1.87-5.74,2.93-3.36,1.89-6.41,4.99-9.74,5.9-6.27,1.71-10.87,6.25-16.82,8.21-.29.1-.64.16-.85.35-3.71,3.31-8.27,4.81-12.91,6.17-.44.13-.76.69-1.11,1.07-4.41,4.72-10.25,7.29-15.87,10.04-1.98.97-3.84,2.35-5.36,3.54-3.33,2.59-7.96,2.57-10.71,6.04-1.83,2.3-4.75,2.61-7.43,3.1-3.75.69-5.65,3.95-8.25,6.08-4.14,3.39-7.97,3.2-12.46,1.24-4.85-2.13-10.01-2.86-15.35-3.07-3.78-.16-7.54-1.45-11.27-2.41-2.07-.53-3.97-1.23-6.23-.56-1.4.42-3.1.37-4.52-.57-2.41-1.62-5.25-1.76-7.96-1.83-4.06-.1-8.09-.19-11.8-2.03-3.79-1.87-8.15-2.07-11.96-2.12-6.16-.09-11.54-3.25-17.63-3.1-1.57.04-2.82.99-4.78.37-7.97-2.48-16.48-2.18-24.66-4.21-3.68-.91-7.74-2.48-11.88-1.61-3.87.81-7.06-1.89-10.78-2.26-1.65-.16-2.98.52-4.52.4-9.2-.73-18.42-1.2-27.61-1.99-2.75-.24-5.34-1.47-7.87-2.65-2.53-1.18-5.13-1.54-7.85-.7-1.22.38-2.55.62-3.62-.11-3.73-2.55-7.92-2.24-12.09-2.17-2,.04-3.74-.48-5.61-1.37-2.5-1.19-5.47-.45-8.23-.56-1.27-.05-2.7.08-3.53-.68-2.52-2.28-6.27-.01-8.61-2.54-4.99,2.46-9.89-1.44-14.97-.21-1.41.34-3.69.28-5.1-.46-3.52-1.85-7.38-1.62-10.9-1.52-4.65.13-9-1.93-13.72-.97-4.86.98-9.6-1.35-14.47-1.34-3.27,0-6.47-.63-9.83-.12-3.6.54-7.44,1.01-11.03-.42.1-1.23,1.39-1.53,1.81-1.53,4.88-.11,8.47-3.81,12.9-4.64,3.66-.68,6.67-2.91,10.33-3.27,1.64-.16,2.76-1.27,3.91-2.29.65-.8,1.53-.95,2.49-.84.64-.07,1.27-.14,1.91-.2.45-.57,1.08-.44,1.68-.45,1.4-1.42,2.92-2.29,5.04-2.67,2.08-.38,3.95-1.91,5.91-2.94,3.68-1.92,7.93-1.61,11.77-3.09,5.65-2.19,11.11-4.89,17-6.46,3.47-.93,6.77-2.53,9.91-4.05,3.43-1.65,6.86-3.22,10.49-3.58,4.32-.42,7.02-4.21,11.35-4.5,1.58-.11,3.02-1.79,4.57-2.66,3.72-2.06,7.46-4.09,11.22-6.07,1.08-.56,1.76-.72,2.91.69,2.07,2.53,2.54,5.88,4.85,8.2.8.81,1.37,2.16,2.63,1.86,3.08-.71,5.18,1.29,7.28,2.67,6.03,3.96,12.84,5.72,19.58,4.7,3.93-.59,7.71,1.01,11.48-.43,4.13-1.59,9.07-.61,12.6-4.23,1.58-1.62,4.04-1.2,6.05-1.85,3.98-1.29,7.67-3.44,11.2-5.52,2.74-1.62,5.23-4.03,7.87-6.04,2.18-1.67,4.1-3.58,6.67-4.84,2.2-1.07,3.49-3.44,4.65-6.38.72,2.47,2.8,2.62,3.8,4.3,2.17,3.61,2.67,7.54,3.09,11.53.13,1.22.38,2.38.73,3.53.16.23.32.47.47.7.87,1.76,1.7,3.53,2.61,5.26,1.23,2.36,2.83,4.6,1.53,7.53-.19.42.2,1.36.96,1.69,1.64.15,1.17,1.42,1.26,2.4,1.42,1.19.61,3.4,2.09,4.57.2.06.35.2.42.4,1.28.31,1.96,1,1.94,2.42-.04,3.59,2.13,5.51,5.24,6.68,1.83.7,3.5,1.51,4.42,3.54.61,1.36,2.4,1.47,3.67,2.11,7.27,3.67,14.65,2.46,22.03.38,4.71-1.33,8.44-3.56,10.62-8.44,1.2-2.69,3.64-4.82,3.85-8.11.07-1.04.37-2.11.01-3.09-.64-1.76-.72-3.16.42-4.95.78-1.22.63-3.35.25-4.91-.53-2.2-1.14-4.37-.96-6.62.18-2.36-.73-4.26-1.91-6.19-2.49-4.06-3.75-8.64-5.46-13.03-1.15-2.94-2.5-5.91-3.83-8.84-.31-.69-.76-1.4.13-1.85.53-.27,1.18-.1,1.66.51,1.98,2.52,4.49,4.77,5.85,7.58.94,1.96,2.11,3.48,3.54,4.92,1.27,1.28,2.43,2.57,2.34,4.53-.02.52.06.97.43,1.44,3.09,3.88,6.36,7.65,9.13,11.75,2.74,4.07,7.04,6.68,9.7,10.55,2.3,3.33,5.25,5.71,8.04,8.39.45.43.87.91,1.6.82,3.42-.42,5.64,1.34,7.87,3.74,4.21,4.51,10.13,5.02,15.79,5.72,4.19.53,8.37,1.01,12.69.12,5.26-1.08,10.48-1.79,13.27-7.23.14-.28.32-.56.56-.75,6.87-5.32,5.38-11.64,3.12-18.76-1.63-5.14-4.25-9.3-7.51-13.29-.39-.48-.71-1.17-1.22-1.38-2.98-1.22-4.24-3.93-5.63-6.47-1.71-3.09-4.42-4.97-7.06-7.17-3.53-2.93-7.42-5.55-10.44-9.04-1.47-1.7-3.94-2.18-4.76-4.89-.46-1.53-.65-2.25.38-3.35,2.01-2.14,4.54-3.47,7.33-3.54,2.84-.06,5.82-.12,8.49-.43,4.92-.58,9.94-.77,14.88-1.82,3.88-.81,7.8-2.15,11.76-2.21,3.9-.05,7.81-1.19,11.71-.11,1.42.39,2.82-.16,3.85-.77,3.36-2.01,7.28-1.29,10.71-2.49,4.06-1.41,8.18-3.02,11.71-5.39,1.92-1.29,3-3.98,5.4-5.12,2.09-1,4.34-1.4,6.22-.05,1.87,1.35,3.81,1.23,5.78,1.13,5.9-.31,11.78.16,17.6.84,3.86.45,7.9-.21,11.44.68,6.31,1.58,12.69,1.21,18.99,2.05,5.05.67,10.18.73,15.28.83,2.2.04,4.38,1,6.47.62,7.83-1.45,15.19,2.17,22.85,1.83,2-.08,4.48,1.28,6.25-.96.14-.18.67-.26.88-.14,4.38,2.45,9.74-.01,14.08,2.84.76.5,2.14.52,3.06.22,4.32-1.46,8.54-2.01,12.91-.03.94.42,2.37.18,3.65-.19,2.51-.71,5.15-.88,7.37,1.17-2.55.85-4.29,2.86-6.37,4.26Z"/><path class="cls-3" d="m782.14,632.45c-1.08-3.38-2.5-7.82-5.35-8.7-3.49-1.09-7.01-2.79-10.8-3.07-.81,3.44-3.89,4.45-6.52,4.82-5.1.72-9.74,2.96-14.87,3.62-3.29.43-4.57-.69-5.6-3.24-.21-.52.08-1.34-.82-1.48-3.93,0-8.15-1.37-11.24,2.47-.1.12-.4.11-.6.13-4.83.5-9.32,1.95-13.73,4.02-1.59.75-4.19,1.3-5.9-.82-.53-.65-1.21-.69-1.99-.49-5.65,1.47-10.3-.57-13.91-4.69-2.47-2.83-4.91-6.22-4.93-10.02-.03-4.86,2.65-9.16,4.78-13.45,2.57-5.14,7.99-7.41,11.92-11.2,1.32-1.28,3.38-1.82,4.58-3.7,1.34-2.1,3.75-3.43,5.9-4.32,1.44-.6,2.48-1.21,3.24-2.38,1.09-1.7,2.38-2.93,4.26-3.91,2.17-1.14,4.65-2.55,4.31-5.89-.07-.72.37-1.8,1.59-2.01,1.12-.19,1.49-1.31,2.2-2.02,3.01-3.03,3.25-7.12,4.2-10.85,1.14-4.42-1.78-11.52-4.92-13.34.03-1.28-.46-2.13-1.85-2.25-2.32-1.2-5.06-.75-7.38-1.82-2.76-1.27-4.98-.97-6.63,1.75,4.09,3.36,3.18,7.49-.6,8.91-1.91.72-3.12,2.51-4.26,3.87-3.5,4.18-9,6.17-11.74,11.09-.51.92-1.92,1.13-2.61,1.3-4.61,1.11-6.12,5.93-10.04,7.93-2.43,1.24-4.64,2.09-7.32,1.94-1.02-.06-2.06.25-3.09.39-.45.43-.94.82-1.33,1.3-1.92,2.36-2.83,5.73-5.85,6.97-1.87.77-3.54,1.64-4.58,3.26-2.57,4.01-6.22,6.52-10.56,8.19-.06.35-.22.58-.62.52-2.23,1.54-5.08.27-7.43,1.75,1.33,1.84,2.46,4.04,3.77,5.71,1.5,1.91,3.59,3.38,4.31,5.92,1.3.1,1.24,1.04,1.21,1.96,3.76,3.78,5.22,8.83,7.7,13.55-1.26-.04-1.89-.65-2.6-1.21-4.4-3.45-8.74-6.98-13.32-10.17-1.24-.86-2.41-1.75-3.13-2.91-2.66-4.29-7.21-6.41-10.77-9.65-.92-.88-2.51-.9-3.03-2.32-1.51-2.36-3.29-4.47-5.61-6.1-3.84-2.7-8.06-4.96-10.32-9.44-1.05-2.09-2.6-3.78-5.09-4.23-.42.01-.85.03-1.27.04-.54.11-1.06.19-1.26-.52-.68-.14-1.3-.34-1.04-1.26-2.53-2.5-5.09-4.98-7.69-7.38-1.45-1.35-1.17-4.07-3.84-4.34-1.61-.16-2.45-1.42-3.36-2.82-1.49-2.31-2.93-5.09-6-5.61-1.71-.29-2.83-1.27-3.44-2.43-1.66-3.13-4.07-4.51-7.53-4.25-2.51-.62-2.41-3.23-3.67-4.81.08-1.82-1.4-2.87-2.61-3-4.12-.44-5.74-3.55-7.67-6.43-.52-.1-1.13-.1-1.16-.86-.45-.04-.9-.07-1.35-.11-1.01.4-1.44-.28-1.86-.99-1.49-.93-2.98-1.85-4.46-2.77-1.91.44-2.15-1.02-2.59-2.27-.94-.61-2.47-1.05-2.71-1.88-1.36-4.5-4.87-6.92-8.35-9.52-3.66-2.74-6.97-6-11.66-7.02-2.47.28-4.72.17-6.27-2.32-.37-.59-1.24-1.16-2.36-1.19-2.16-.05-4.14-.41-5.06-3.13-.5-1.46-2.79-1.6-4.33-2.2-3.85-1.51-7.66-3.15-10.9-5.75-1.11-.88-2.58-.34-3.45-1.3-2.67-2.94-7.1-2.89-9.67-5.02-3.07-2.54-6.73-3.66-9.8-5.98-2.58-1.97-5.79-3.11-8.64-4.75-5.51-3.17-5.36-3.76-3.97-9.4-2.37.28-4.28-.19-5.47-2.61-.55-1.13-1.79-1.78-3.16-1.83-1.43-.05-2.43-.77-3.59-1.61-3.69-2.66-7.21-6.22-11.94-6.42-4.61-.2-8.08-3.85-12.72-3.41-.17.02-.37-.18-.56-.27-5.8-3.05-11.87-5.01-18.41-6.11-2.85-.48-6.36-.1-8.79-2.5-1.28-1.26-2.76-1.55-4.45-1.25-2.26.4-4.34.21-6.1-1.54-.51-.5-1.15-.81-2.2-.67-5.14.67-9.82-3.38-15.13-1.64-.14.04-.35-.21-.54-.29-3.78-1.66-7.65-2.67-11.81-1.65-.65.16-1.24.08-1.73-.44-2.65-2.88-6.03-2.97-9.57-2.53-.92.12-2.32.53-2.72.09-2.75-3.04-6.68-.17-9.61-2.37.32,1.63,1.09,2.58,2.22,3.43,3.26,2.45,5.04,6.22,7.15,9.47,1.26,1.93,2.14,4.86,2.74,7.51.51,2.23,1.58,4.25,3.78,5.57,1.51.91,2.7,2.38,2.58,4.42-.06,1.01.4,1.78.97,2.58,2.99,4.16,6.9,7.34,9.16,12.45,2.02,4.58,6.5,8.27,8.23,13.46.18.54.81.93,1.2,1.42,2.68,3.27,4.09,7.58,8.13,9.71-.01,4.94,4.48,7.28,6.82,10.7,2.16,3.16,5.35,5.65,7.39,9.32,1.72,3.09,6.2,4.42,6.32,8.94.02.56,1.13,1.18,1.84,1.61.91.56,1.72,1.2,2.35,2.07.34.14.54.36.41.76-.19,1.42.21,2.68,1.72,2.91,3.28.48,5.12,4.85,9.14,3.33.21-.08.66.45.98.72,4.04,3.32,9.2,4.45,13.68,7.03,5.52,3.17,12.05,4.56,16.71,9.38.54.57,1.42.96,2.2,1.11,3.11.59,5.31,2.88,7.6,4.61,3.72,2.8,6.21,7.27,11.47,7.92.4.05.72.68,1.08,1.04,1.13-.08,1.83.42,2.04,1.55,2.22.21,3.58,1.47,4.85,3.28,1.63,2.33,3.61,4.45,6.57,5.23,1.14.05,1.26.84,1.23,1.73,1.15,1.33,2.47,2.28,4.21,2.88,2.84.99,5.68,2.17,6.11,5.84.1.79,1.16.72,1.77,1.05,1.95,1.06,4.99,1.12,5.47,3.68.82,4.38,4.9,5.55,7.42,8.15,1.7,1.75,3.87,3.04,5.02,5.35,1,2,2.4,3.45,4.57,4.4,4.59,2,8.25,5.16,10.13,9.97,1.09,2.79,3.3,4.86,5.24,6.81,5.3,5.33,7.14,12.2,9.66,18.83.75,1.97-.52,1.76-1.49,1.37-1.54-.61-2.95-1.53-4.42-2.32-.17-.15-.35-.3-.52-.45-2.33-.59-4.72-1.06-6.36-3.08-2.1-2.59-4.67-3.73-8.06-2.88-1.06.26-2.27-.07-3.41-.13-1.19,1.36-2.41,1.54-3.65.06-.87.15-1.63-.18-2.44-.42-4.44-1.34-8.89-2.6-13.34-3.89-.64,3.24-4.07,5.34-7.78,4.32-1.67-.46-3.22-.48-4.85-.37-1.61,1.77-3.39,2.18-5.42.71-5.65-1.48-4.78-6.06-4.83-10.2-2.08-.2-4.4-.7-5.36,1.86-.52,1.4-1.47,2.44-2.27,3.56-3.38,4.72-3.52,8,.45,12.15,1.72,1.81,2.71,4.64,5.66,5.09,2.78.43,5.1,1.87,7.46,3.23,1.77,1.02,3.37,2.62,5.54.77.63-.53,1.14.19,1.7.37,3.16.98,6.33,1.7,9.67,2.1,4.02.49,8.01.01,12,.45,4.45.49,8.87.27,13.23-.78.13-.23.25-.46.38-.69.09.17.18.34.28.51,2.3,1.54,5.25.24,7.57,1.72.69-.03,1.38-.06,1.89.53,1.99.87,4,1.72,6.23,1.25,4.21-.9,6.52,1.79,8.76,4.57,1.43,1.77,1.9,3.8.36,5.64-2.46,2.92-5.18,5.59-9.54,4.97-.02,2.78-1.94,4.02-4.13,5.03-.19.44-.14,1.16-.86,1.1-.46-.03-.58-.52-.55-.97-6.79.94-7.5.08-8.32-4.32-.52,0-1.05-.05-1.56.03-2.66.38-4.63,2.87-6.83,3.28-4.34.81-6.34,3.9-8.92,6.59,1,.79.54,1.12-.41,1.3-2.22,2.09-3.49,4.65-2.28,7.58,1.31,3.19,4.27,5.16,7.46,5.51,2.51.28,4.6,1.41,6.93,1.89,2.9.59,6,3.08,8.62-.67.49-.69,1.05.01,1.62.23,4.34,1.71,8.56,2.01,12.56-1.05,1.13-.87,2.53-1.95,3.82-1.96,3.81-.06,6.99-1.87,10.11-3.5,5.55-2.9,9.98-7.56,15.49-10.58.83-.12,1.66-.23.64-1.27,2.38-2.03,5.29-3.28,7.78-5.1,4.14-3.03,8.92-2.8,13.31-2.08,5.45.88,7.39,6.23,10.09,10.36.41.06.88.12.88.64-.01.51-.49.57-.89.63.83,1.25,2.57,1.58,2.98,3.36,1.58,6.85,5.05,13.19,5.7,20.29.3,3.24,2.22,5.7,3.47,8.48.98,2.17,1.5,4.54,3.98,5.9,1.09.59,2.41,1.71,2.73,3.28.24,1.24,1.06,1.46,2.23,1.71,2.7.6,5.37,1.46,7.98,2.4,1.01.37,1.61,2.31,3.02.59.85-1.03,2.49-.7,3.22-2.18,1.87-3.82,1.66-7.98.94-11.74-.75-3.96.03-8.07-1.48-11.88.79-.73.34-1.03-.42-1.23.22-3.82-3.25-5.62-4.67-8.54-.08.02-.17.05-.25.07.08-.04.16-.09.25-.13-2.39-6.16-3.8-12.51-4.59-19.09-.56-4.65-1.46-8.63,3.9-11.59,2.58-1.43,5-2.94,7.81-3.01,4.05-.11,7.87.2,11.99,2,3.93,1.71,5.64,3.53,6.13,7.28.08.65.09,1.54.7,1.63,3.92.6,3.13,5.14,6.15,6.95,3.65,2.17,3.54,7.77,7.32,10.42,3.64,2.54,3.51,7.89,7.49,10.23.17.18.34.37.51.56.1.64.28,1.21,1.08,1.25.81.32,1.38.84,1.44,1.77,1.78,1.92,2.66,4.62,5.17,5.91l.51.51c.83.76,1.63,1.58,2.52,2.28,3.7,2.95,7.5,5.76,12.16,7.07,1-.69,1.58-.38,1.79.78,2.12,2.07,5.13,2.54,7.51,4.16.56.38,1.14.26,1.79.21,3.58-.26,6.84-1.13,9.03-4.3.2-.2.4-.41.6-.61,2.09-1.84,1.68-3.85.52-6.01-1.52-2.84-3.36-5.45-5.27-8.03.6-.95-.13-1.02-.77-1.14-.68-3.01-2.34-5.03-5.35-6.14-1.12-.41-2.19-1.63-2.45-3.11-.15-.9-.78-1.48-1.41-2.02-3.81-3.25-8.42-5.57-11.32-9.87-.14-.21-.54-.25-.83-.35-4.29-1.52-7.71-4.43-9.07-8.57-1.33-4.05-1.63-8.55-1.02-12.9.51-3.74,3.65-5.77,6-8.29-.41-.05-.86-.08-.96-.58-.02-.12.2-.3.32-.45.28.26.57.52.86.79.2-.05.35-.18.42-.38.22-.63-.48-2.2,1.28-1.25.89-.37.91-1.51,1.89-1.92,2.99-1.23,5.9-2.63,8.85-3.97.14-.71.3-1.39,1.2-.61h.01c5.21-.17,10.44-1.22,15.62-.41,4.03.62,7.71-2.22,11.74-.76.37.13.99-.22,1.42-.49,2.71-1.68,5.68-1.3,8.59-1.02,3.09.29,6.21,1.76,9.23.64,3.41-1.27,7.18-1.21,10.4-3.02.07-.41.13-.88.65-.86.51.01.56.48.63.89,1.18.22,2.09-.14,3.19-.74,5.19-2.78,10.06-5.95,13.25-11.01,1.1-1.74,3.83-2.82,2.97-5.49Zm-278.94-77.33c-2.7-1.08-3.91-4.43-7.29-4.34-.68.02-1.41-1.41-2.1-2.19-.48-.55-.99-1.64-1.38-1.59-3.12.39-4.32-2.45-6.41-3.72-1.72-1.05-3.46-2.53-4.46-4.25-2.04-3.51-5.79-4.67-8.68-6.94-5.03-3.93-10.35-7.52-15.48-11.28-3.48-2.55-7.18-5.37-11.06-7.66-3.81-2.24-7.16-5.92-10.26-9.4-1.44-1.62-.5-3.07,1.85-3.3,1.83-.18,3.72.1,5.23.76,6.62,2.91,13.45,5.5,19.02,10.34.69.6,1.41.8,2.3.83.59.02,1.42.16,1.73.56,5.39,7.04,13.3,11.02,19.86,16.61,4.14,3.53,8.74,6.67,12.29,10.72.15.17.31.34.47.51.26.27.54.54.83.8.28.26.57.52.87.77.28.24.56.48.84.71.04.03.08.07.12.1.32.27.63.53.94.81h0c.34.31.68.61,1.01.93.22.21.43.43.63.66.18.18.34.37.49.57.09.1.16.2.24.3.16.2.3.41.44.63.1.16.2.32.28.48.05.07.09.14.11.21.08.14.15.28.21.42.01,0,.01-.01.02-.01,1.85,3.12,5.03,5.07,6.99,8.11,1.95,3.02,4.17,5.86,6.1,8.97-4.05-1.83-8.01-3.89-11.01-7.07-1.43-1.53-3.24-2.45-4.75-3.05Zm66.93,96.3c-.4.58-.81.17-1.11-.26-5.48-1.72-9.48-5.69-13.84-9.12-.72-.01-1.13-.41-1.33-1.07-2.56-1.6-3.84-4.46-6.21-6.31-.94-.74-1.62-1.62-2.86-2.15-2.63-1.12-4.29-3.08-5.59-5.87-1.35-2.88-3.69-5.86-6.39-7.41-3.24-1.86-5.26-4.52-7.24-7.27-1.93-2.68-4.45-4.74-6.84-6.81-1.83-1.59-3.48-3.04-4.21-5.3-.44-1.34-1.08-2.45-2.15-3.3-3.38-2.71-5.23-6.54-7.46-10.1-.55-.87-.56-1.93-.06-2.68.62-.93,1.51-.02,2.26.15,6.93,1.6,11.38,6.66,16.15,11.38,3.22,3.17,6.85,5.92,10.35,8.79.4.32,1.21.15,1.82.21.88-.09,1.37.28,1.41,1.18,1.16,5.18,6.17,7.04,9.22,10.59.57.65,1.33,1.18,1.83,1.98,1.43,2.3,4.11,3.73,5.42,5.75,3.08,4.75,6.97,8.8,10.26,13.34,2.01,2.77,1.94,6.63,5.28,8.72,1.1.69-.2,3.23.64,4.81.38.13.86.44.65.75Zm32.01-45.47c-3.55-2.98-7.34-5.9-10.45-9.12-3.72-3.85-9.25-5.56-11.85-10.54-.6-1.16-2.03-1.44-3.15-1.95-1.85-.85-3.08-2.25-4.48-3.68-2.71-2.76-5.93-5.03-8.86-7.6-4.36-3.83-8.7-7.69-13.12-11.43-3.74-3.16-7.56-6.25-11.55-9.13-2.43-1.76-4.24-4.41-6.9-6-4.6-2.76-7.62-7.71-13.16-9.25-2.41-.67-3.64-3.32-5.99-4.44-5.18-2.48-9.15-6.81-13.8-9.91-5.22-3.49-9.73-7.98-15.52-10.85-2.91-1.44-6.25-3.27-8.51-6.12-.43-.54-1.15-1.02-1.81-1.17-5.6-1.22-10.07-4.43-14.2-8.13-2.04-1.82-4.99-2.11-6.72-4.32-1,.78-1.5.06-2-.67-1.56-1.49-3.6-2.33-5.28-3.47-3.24-2.2-7.58-2.71-9.93-6.33-.51-.8-1.61-1.44-2.56-1.7-3.14-.85-5.27-3.13-7.64-5.07-.86-.7-1.87-.91-2.84-1.28-1.47-.57-2.95-1.18-3.92-2.52-.5-.7-.89-1.51-.6-2.37.38-1.12,1.44-.72,2.17-.67,3.6.27,7.04,1.11,10.56,2.04,4.25,1.12,8.34,2.69,12.51,3.98,5.59,1.74,10.34,5.48,16.19,6.81,1.83.41,2.94,2.88,4.97,3.57,8.81,3,16.37,8.47,24.42,12.84,6.75,3.67,13.61,7.54,19.71,12.57,3.43,2.82,6.87,5.96,11.06,7.86.19.08.49.14.55.29,1.33,3.26,4.3,3.97,7.26,4.69.63.08.63.5.52.98.34,1.6,1.61,2.32,2.84,3.18,4.12,2.85,8.02,6.05,12.67,8.03.91.39,1.24,1.12,1.63,1.78.86,1.42,1.79,2.46,3.62,2.5,1.71.04,2.33,1.3,2.18,2.81-.14,1.45.42,2.53,1.55,3.19,5.05,2.96,8.86,7.19,12.49,11.66.26.32.97.24,1.43.44,2.22.93,4.84,1.36,5.17,4.51.11.97.96,1.59,1.62,2.27,4.27,4.36,9,8.3,12.36,13.51.31.48.99,1.08,1.47,1.06,2.83-.15,3.07,1.74,3.33,3.8.31,2.47,2.28,4.35,3.86,5.47,2.56,1.83,3.98,4.28,5.66,6.65,3.71,5.22,7.5,10.4,10.21,16.39-2.31-1.9-4.92-3.27-7.17-5.16Z"/><path class="cls-15" d="m514.6,644.55c-1.19,1.36-2.41,1.54-3.65.06,1.2-.77,2.43-.23,3.65-.06Z"/><path class="cls-15" d="m530.49,665.63c-.77.3-1.66,1.06-1.89-.53.69-.03,1.38-.06,1.89.53Z"/><path class="cls-15" d="m532.42,682.12c-.45.95-1.24.48-1.92.46.35-1.38,1-1.47,1.92-.46Z"/><path class="cls-3" d="m546.96,530.6c-1.91.44-2.15-1.02-2.59-2.27,1.34.22,2.05,1.15,2.59,2.27Z"/><path class="cls-3" d="m553.28,534.36c-1.01.4-1.44-.28-1.86-.99.78.02,1.66-.12,1.86.99Z"/><path class="cls-3" d="m555.79,535.33c-.52-.1-1.13-.1-1.16-.86,1.13-.71,1.08.17,1.16.86Z"/><path class="cls-3" d="m569.74,549.57c-2.51-.62-2.41-3.23-3.67-4.81,2.53.6,2.81,2.92,3.67,4.81Z"/><path class="cls-3" d="m602.64,577.66c-.68-.14-1.3-.34-1.04-1.26.74.09,1.02.56,1.04,1.26Z"/><path class="cls-3" d="m605.17,578.14c-.42.01-.85.03-1.27.04.06-.4.11-.87.62-.89.51-.02.58.45.65.85Z"/><path class="cls-3" d="m629.22,600.23c-.92-.88-2.51-.9-3.03-2.32,1.67-.08,3.13.1,3.03,2.32Z"/><path class="cls-9" d="m919.02,804.27c-.84.51-1.69.59-2.54.04-.4-.93-.99-1.07-1.76-.41-2.92.8-4.55,3.65-7.37,4.68-.53.19-1.15.98-1.61.57-2.95-2.7-5.73-.41-8.27.5-5.09,1.83-10.4,3.01-15.4,4.88-4.71,1.76-9.8.97-14.34,3.28-1.6.81-2.42,3.26-4.25,2.73-4.48-1.29-8.19.97-12.18,1.99-2.62.67-5.45.63-7.57,2.77-.87.88-1.93.87-3.29.51-2.32-.61-4.31,1.36-6.72,1.49-2.54.14-5.03,1.07-7.65.94-2.88-.14-5.23,1.12-7.59,2.68-2.78,1.83-6.07,2.61-9.24,3.62-3.98,1.27-8.31,1.22-12.12,2.77-3.1,1.25-6.07,2.6-9.43,2.96-2.37.26-3.5,2.59-5.82,3.42-2.81,1-5.8,1.61-8.5,1.98-4.32.59-8.47,2.33-12.83,2.22-3.76-.09-7.4,0-10.82,1.78-.31.16-.99.13-1.2-.1-3.17-3.42-7.03-.64-10.43-.79-3.53-.15-7.13-.3-10.65-.69-1.1-.12-1.89.26-2.83.29-1.6-.73-3.2-.62-4.8-.01-2.99-1.71-6.32-.19-9.5-1.09-3.01-.86-6.34-.55-9.52-.84-2.99-.28-5.34-5.13-4.05-8.25.51-1.24,1.1-2.4,2.09-3.36,4.26-4.15,8.26-8.77,13.57-11.48,5.38-2.74,9.42-7.06,14.15-10.54.72-.53,1.51-.48,2.25-.87,4.64-2.45,8.65-6.12,13.82-7.54,3.93-1.08,6.03-4.75,9.74-6.33,2.28-.97,4.39-2.69,6.52-3.5,2.65-1.01,5.43-1.4,8.1-2.44,5.3-2.06,9.84-5.76,15.35-7.12,2.46-.61,4.62-1.25,6.47-2.95.35-.32,1.03-.76,1.31-.63,3.1,1.5,5.64-.57,8.4-1.2,1.5-.34,2.74-1.08,4.09-1.88,2.48-1.48,4.87-3.57,8.47-3.04,1.76.26,4.19.25,6.06-1.6,1.93-1.92,4.5-2.73,7.43-3.14,3.96-.55,7.72-2.38,11.63-3.4,3.53-.92,6.42-2.94,9.48-4.74,1.99-1.17,4.42-.43,6.59-1.3,1.46-.59,1.61-2.62,3.53-2.53,4.46.19,8.35-1.94,12.46-3.23,1.99-.63,4.1-.89,5.86-2.14.39-.33.79-.66,1.18-1,1.08.62,1.83.55,3.22.04,3.9-1.42,7.52-3.93,11.93-3.82,3.23.08,5.87-1.89,8.57-3.14,1.42-.65,2.64-1.15,4.16-1.3,3.45-.34,6.62-1.77,9.74-3.08,4.76-2,9.27-4.3,14.5-5.32,5.05-.98,10.43-1.4,15.02-4.21.25-.16.53-.47.76-.44,4.86.61,9.27-2.26,13.98-2.01,4.51.24,8,3.29,10.9,6.37,2.11,2.25,4.42,4.38,6.3,7,2.19,3.06,2.24,6.19,2.87,9.42.7,3.63,1.06,7.32,2.22,10.87.54,1.66.52,3.34-.19,5.14-1.42,3.57-2.66,7.23-3.62,10.95-.52,2.01-1.53,2.93-3.38,3.54-2.3.75-4.56,1.59-6.35,3.43-1.6,1.64-4.16.94-6.04,1.97-5.05,2.77-10.46,4.77-15.44,7.8-2.81,1.71-6.27,3.65-10.13,3.03-.68-.11-1.44-.21-2.11.32-1.93,1.53-4.01,2.32-6.61,2.28-1.35-.02-2.73,1.27-4.09,1.97-.97.06-1.91.2-2.44,1.18Zm21.85-25.45c1.54-1.02.85-2.31.45-3.57-.19-8.69-3.89-16.03-8.88-22.83-.54-.74-1.01-2.58-2.49-1.75-2.3,1.3-5.05,1.21-7.35,2.59,5.53,3.59,6.49,9.93,9.35,15.08,1.12,2.02,2.15,4.2,1.56,6.58-.49,1.96-.83,3.89-.36,5.85.27,1.1-1.63,3.17,1.29,3.18,1.4,0,2.68,1.22,4.22.22.6-.39,1.21-.43,1.31-1.4.13-1.33.59-2.64.91-3.95Zm-17.94-6.17c-.12-.4-.15-.85-.37-1.19-1.63-2.57-2.39-5.44-3.27-8.32-.61-2.02-2.06-3.8-3.3-5.59-.29-.42-.51-1.62-1.55-1.03-1.88,1.08-4.2.18-6.08,1.63-1.43,1.09-3.25,2.06-5,2.28-6.55.82-12.6,3.4-18.25,6.32-3.7,1.91-7.63,2.21-11.33,3.65-4.88,1.9-10.41,1.93-14.8,5.55-1.48,1.22-3.92,2.17-5.71,1.9-3.03-.45-5.11,1-7.62,1.89-2.31.82-4.36,2.25-6.88,2.62-4.08.61-7.84,2.26-11.66,3.83-2.46,1.02-5.52,1.38-7.57,2.86-2.32,1.69-5.34,1.5-7.38,3.58-.47.48-2.22.49-2.7.02-2.04-2-3.29-.08-4.29.94-1.02,1.04-2.15,1.71-3.39,2.11-5.14,1.66-10.32,3.16-15.49,4.73-.4.12-.97.16-1.14.43-1.23,1.98-3.27,1.74-5.17,2.15-2.58.56-5.18.04-7.86,1.38-2.87,1.44-2.24,2.25-.67,3.87,3.8,3.93,6.89,8.06,5.93,14.11-.34,2.13-.26,4.54,3.53,4.29,2.35-.16,4.52.22,6.86-.96,2.88-1.45,5.73-3.05,9.04-3.74,2.45-.51,5.43-.26,7.27-1.58,4.72-3.39,10.84-.67,15.46-4.11.73-.55,2.01-.75,3.02-1.32,1.59-.91,3.38-1.96,5.12-2.01,6.4-.18,12.14-2.38,17.9-4.83,3.46-1.47,7.08-2.78,10.96-1.84.91.22,1.63.19,2.38-.19,3.76-1.91,7.93-2.69,11.79-4.3,1.98-.83,3.71-2.92,5.97-.56.11.11.58-.07.86-.18,7.26-2.91,14.59-5.55,22.15-7.62,1.64-.45,2.56.62,4.02.33,6.26-1.22,12.08-3.98,18.35-5.12.64-.12,1.65-.63,1.22-1.83-1.68-4.66.51-9.44-.34-14.15Zm44.77-11.02c-.03-4.09-1.5-7.03-1.69-10-.4-6.2-4.58-8.88-9.07-11.6-.78-.47-1.44-.05-1.59.39-.88,2.69-3.07,2.17-5.12,2.48-2.62.4-5.31.94-7.55,2.53-.64.45-2.09.9-1.11,2.01,1.32,1.48,1.82,3.49,3.43,4.78,3.56,2.87,4.7,7.33,6.07,11.24,1.49,4.25,1.56,9.1.84,13.75-.1.61-.62,1.56.77,1.44,4.96-.41,8.84-2.64,12.39-6.18,3.59-3.58.09-8.28,2.65-10.85Zm-208.53,72.86c2.88.69,4.23-.39,4.25-3.42.01-2,.3-4.05.81-5.99.22-.86,0-1.31-.27-1.98-2.08-5.31-6.12-9.42-8.78-14.39-1.15-2.15-3.49-1.99-4.8.08-.92,1.46-2.18,2.52-3.56,3.48-2.71,1.89-3.04,4.64-1.51,7.35,1.87,3.32,3.76,6.69,4.8,10.43.36,1.29,1.02,2.5,1.54,3.74,2.7-1.56,4.84,2.2,7.53.69Z"/><path class="cls-9" d="m786.97,419.08c3.41.67,6.92-.02,10.27.43,4.61.62,8.84,3.04,11.68,6.56,3.64,4.52,5.47,10.17,3.68,15.98-1.65,5.36-4.67,9.85-9.02,13.89-4.61,4.27-9.49,8.24-13.98,12.55-3.11,2.98-7.72,2.85-10.21,6.49-1.86,2.73-4.68,3.65-8.04,3.44-1.05-.07-2.36.4-3.33,1.63-1.52,1.93-3.91,2.78-6.1,3.94-5.06,2.68-10.69,3.79-15.77,6.51-3.52,1.89-6.26,4.6-9.45,6.78-1.31.89-2.82.93-4.03,1.4-2.68,1.04-4.38,2.57-6.39,4.46-1.22,1.15-4.49,1.53-6.94,1.67-.36.02-.82-.26-1.11-.53-1.63-1.54-1.78-9.74-.14-11.31,3.3-3.18,4.79-7.31,5.95-11.54.28-1.02.53-2.12,1.17-2.75,3.75-3.74,5.43-8.64,7.9-13.12,1.04-1.89,3.06-3.29,4.47-5.14,1.61-2.11,2.97-4.18,3.9-6.66.72-1.9,2.44-3.42,3.86-4.63,3.87-3.29,4.98-9.27,10.68-10.75.78-.2,1.42-1.47,1.85-2.37.85-1.79,1.52-3.59,4.07-3.38.63.05.74-.77,1.05-1.31.54-.95,1.24-2.05,2.43-2.27,3.03-.54,5.48-1.76,7.32-4.43,1.07-1.54,3.45-1.1,5.11-1.56,2.66-.73,4.72-2.29,7.09-3.36.68-.31,1.28-.67,2.05-.62Zm-2.78,16.33c-1.67-.4-2.93.5-3.75,1.66-.99,1.42-2.34,2.43-3.81,2.42-2.25-.01-3.21.81-3.83,2.89-.28.94-1.44,1.99-2.41,2.28-4.85,1.44-7.09,5.74-10.31,8.98-1.16,1.03-2.51,1.89-2.48,3.76.01.85-.68,1.39-1.39,1.94-3.16,2.44-5.67,5.45-6.07,9.56-.18,1.8-.86,2.49-2.43,3.12-2.95,1.17-3.42,1.77-4.18,4.02,3.86-2.62,8.79-1.61,11.95-5.16.31-.35,1.19-.23,1.8-.26,1.14-.05,2.15-.02,3-1.21.85-1.19,2.37-1.69,3.86-1.82.91-.08,1.95-.38,2.15-1.08.9-3.25,3.95-2.9,6.16-3.95,2.76-1.31,5.97-1.69,8.34-3.74,2.74-2.38,5-5.11,8.62-6.64,4.4-1.86,7.12-6.02,9.93-9.86,2.51-3.43,1.92-5.95-1.83-7.93-4.72-2.49-9.04-1.37-13.32,1.04Z"/><path class="cls-9" d="m808.37,504.35c1.39-.38,3.17-.29,4.91-.53,3.1-.43,6.39-.71,9.3,1.58,2.21,1.74,5.23.89,7.87,1.47,5.29,1.16,9.78,3.49,14.11,6.65,3.85,2.81,6.17,6.7,8.26,10.62,1.18,2.22,1.48,5.16.46,8.05-1.7,4.81-2.59,9.64-8.68,11.56-2.79.88-5.09,3.97-8.47,3.79-6.64-.36-13.43,2.45-19.87-.35-3.87-1.68-8.18-.64-11.79-2.49-5.13-2.63-10.91-2.89-16.17-4.98-5.59-2.22-11.01-4.9-16.42-7.45-3.16-1.49-6.42-3.72-9.22-6.24-1.27-1.15-3.4-1.2-3.19-3.88.14-1.82.23-3.7,1.49-4.78,1.73-1.48,3.16-3.28,5.43-4.3,5.11-2.3,10.71-3.03,15.8-5.08,5.21-2.1,10.54-1.51,15.77-2.42,3.34-.58,6.63-1.51,10.4-1.21Zm27.46,18.92c-3.03-1.89-6.62-2.48-9.89-3.57-4.74-1.57-10.05-1.45-15.11-2.04-10.44-.95-20.13,2.74-30.24,4.55,3.19.86,6.38,1.08,8.81,3.39.08.07.39-.09.59-.15,1.89-.55,3.56.5,4.51,1.63,3.11,3.71,7.16,3.83,11.37,3.59,1.27-.07,2.37.03,3.62.4,6.07,1.8,12.18,3.18,18.65,2.21,2.36-.35,4.81-.91,7.14-.8,2.96.14,4.25-2.02,5.53-3.58,1.03-1.25-.85-2.89-2.09-4.04-.85-.8-1.57-1.71-2.9-1.6Z"/><path class="cls-6" d="m499.51,327.71c1.35,4.63,2.2,9.35,2.43,14.16.09,1.88.29,3.69.85,5.48,0,.68-.5,1.51.56,1.89-1.21,9.29-.69,18.72-2.21,27.7-1.77-6.89-4.41-13.99-5.17-21.29-.5-4.8-4.16-9.02-2.37-14.09-3.13-3.4-1.95-7.98-3.02-11.94-.84-3.11-1.83-6.4-1.82-9.79,0-2.34-.62-4.41-1.89-6.58-1.23-2.12-1.16-5.01-2.14-7.45-.11-.27.04-.72-.28-1.04-2.42-2.41-2.67-5.94-4.45-8.74-1.06-1.66-.57-4.05-1.89-5.98-2.76-4.03-4.1-8.82-6.3-13.16-.05-.09-.11-.2-.1-.3.13-1.61-.79-3.78.67-4.69,1.34-.84,1.85,1.51,2.59,2.28,4.71,4.89,8.08,10.74,10.6,17.05.19.46.34.76.73,1.14,3.87,3.83,4.62,9.13,6.13,14,.47,1.51,1.71,2.25,2.1,3.77,1.48,5.7,3.29,11.31,4.97,16.96-.15.14-.3.29-.45.43.15.06.31.13.46.19Z"/><path class="cls-6" d="m481.48,330.47c.21.4.22.9-.31.92-.33.01-.93-.29-.99-.54-.88-4.18-4.39-6.91-5.71-11.03-1.11-3.49-4.12-6.47-5.32-10.15-1.22-3.73-4.51-6.51-4.54-10.82-.01-2.04-2.81-2.74-3.31-4.7-1.15-4.5-4.88-7.38-7.21-11.12-2.5-4.01-5.73-7.81-8.96-11.45-3.11-3.5-6.07-7.16-9.43-10.4-2.72-2.62-5.18-5.42-7.59-8.3-.88-1.05-1.3-2.46-.75-3.3.57-.87,1.79.4,2.81.5,2.92.26,4.32,3.02,6.66,4.38,8.1,4.71,15.36,10.88,20.56,18.54,5.35,7.88,10.83,15.74,15.13,24.43,4.54,9.17,6.52,18.71,8.02,28.55.23,1.51.63,2.99.94,4.48Z"/><path class="cls-10" d="m719.81,848.4c1.6-.6,3.2-.72,4.8.01-1.61,2.21-3.2,1.15-4.8-.01Z"/><path class="cls-10" d="m919.02,804.27c.53-.98,1.47-1.12,2.44-1.18-.31,1.44-.93,2.23-2.44,1.18Z"/><path class="cls-10" d="m914.72,803.9c.77-.66,1.36-.53,1.76.41-.75.57-1.19-.21-1.76-.41Z"/><path class="cls-6" d="m493.78,677.11s-.1-.07-.09-.07c-.06.05-.12.09-.19.13.09-.02.19-.04.28-.06Z"/><path class="cls-5" d="m164.95,537.23c-.25-.53-.5-1.06-.75-1.59-.12-.62-.49-.97-1.13-1-.15-3.47-.88-6.83-1.96-10.12.4-.06.88-.12.88-.64,0-.51-.48-.57-.89-.63-.27-3.79-1.3-7.33-2.96-10.79-1.29-2.7-.81-5.8-.92-8.73-.09-2.55-1.03-4.94.18-7.72,1.87-4.31-.84-8.9-.24-13.42.87-6.55-.43-13.2.86-19.72.28-1.4.83-2.75,1.35-4.09.81-2.09,1.43-4.09-.37-6.04-1.48-1.6-.32-3.35.37-4.66,3.49-6.56,5.39-13.7,7.94-20.61.11-.29.43-.57.42-.84-.45-6.51,4.58-10.07,7.83-14.57,1.28-1.77,3-3.25,4.05-5.13,1.14-2.06,4.15-3.16,3.37-6.25,4.8-2.93,6.65-8.58,10.94-11.86,1.22-.94,2.75-1.71,4.12-2.62,3.18-2.09,4.57-5.65,7.45-7.87,2.51-1.95,5.03-3.89,7.53-5.87.63-.5,1.65-1.1,1.68-1.68.07-1.86,1.51-2.41,2.65-3.2,1.61-1.12,3.3-2.03,4.3-3.91.57-1.07,1.77-1.57,3.11-1.88,2.94-.68,5.87-1.6,7.28-4.75.17-.37.47-.85.8-.94,4.82-1.39,7.23-6.15,11.43-8.26,3.04-1.52,4.85-4.35,7.78-5.98,6.65-3.72,12.45-8.83,19.45-12.09,2.24-1.04,3.78-3.35,6.01-4.71,1.4-.85,2.68-1.94,4.23-2.57,2.02-.6,2.38,1.59,3.69,2.18-.58,3.18-1.12,6.37-1.74,9.54-.41,2.1-1.74,4.17.08,6.25.27.3.63.86.51,1.11-1.75,3.84,1.67,7.93-.81,11.93-1.03,1.67,1.2,3.96.89,6.33-.49,3.77-.07,7.43,3.65,9.88.98.65,1.4,2.2.7,3.45-2.03,3.57-1.42,6.9.55,10.24,2.04,3.45,2.43,7.36,2.71,11.23.14,1.9.97,3.2,2.22,4.55,2.41,2.59,4.51,5.42,4.17,9.32-.21,2.45.39,4.4,2.28,6.36,1.89,1.95,1.46,5.05,1.5,7.7.02,1.64.66,2.65,1.74,3.78,1.95,2.04,3.76,3.93,4.36,7.22.47,2.6.94,6.53,4.87,7.49.69.17.91.78.88,1.49-.17,3.3,2.01,5.46,3.65,7.99,1.94,2.98,3.21,6.39,4.85,9.57.98,1.91,2.03,4.49,3.32,5.39,3.72,2.62,3.65,7.13,6.31,10.19,3.29,3.8,4.05,9.07,6.75,13.23,1.65,2.55,3.31,5.39,6.05,6.96,2.4,1.37,3.81,3.28,3.99,5.85.23,3.24,1.62,5.4,4.33,7.17,2.52,1.65,3.97,4.45,5.77,6.84-.49,2.62,1.11,3.94,3.11,5.01.05.09.09.24.16.26,5.82,1.78,6.95,7.11,9.24,11.72,1.16,2.33,2.73,4.65,5.27,6.13,4.68,2.72,8.24,6.62,10.71,11.48.28.55.58,1.13,1.31,1.23.28,1.12,1.15.75,1.88.73,1.4,1.65,3.7,1.68,5.33,3.13,2.01,1.79,2.84,4.31,4.29,6.36,1.75,2.49,3.34,4.48,6.29,5.26.36.1.69.48.94.81,2.21,2.91,6.13,4.02,7.8,7.51.36.74,1.16,1.27,2.12,1.07,2.47-.52,4.08,1.1,5.37,2.61,2.74,3.21,5.64,5.2,10.15,5.92,2.89.46,6.15,1.5,9.08,2.77l.84,1.3c-1.28,2.99-4.18,4.34-6.52,6.16-4.34,3.37-8.92,6.44-13.45,9.56-4.16,2.86-9.14,4.22-13.31,7.02-6.42,4.3-14.29,6.16-19.82,11.91-.98,1.03-2.5.83-3.72,1.49-2.5,1.36-5.45,1.82-7.77,3.62-3.31,2.55-7.63,1.95-11.29,3.69-2.48,1.18-4.83,2.62-7.34,3.73-1.63.72-3.05,1.01-4.98.6-4.14-.87-8.07.75-11.72,2.6-1.71.86-2.79,2.02-5.01.6-1.3-.83-3.36-.3-5.41.5-4.2,1.64-8.57,4.15-13.57,2.27-1.73-.65-4.09-.69-5.41.35-2.71,2.13-5.39,1.06-8.21,1.12-2.59.05-5.13-1.03-7.7-.24-.42-.1-.85-.2-1.27-.31-3.01.01-6.04-1.94-9.02.17-.41.29-.84.01-1.1-.3-1.47-1.78-3.57-1.73-5.58-2.25-2.16-.56-4.03-1.38-5.96.37-.5.45-1.23.33-1.78-.02-2.03-1.31-4.45-1.59-6.61-2.77-3.77-2.05-7.58-5.07-12.46-3.22-.22-.08-.39-.02-.52.17-1.51-1.05-3.02-2.1-4.52-3.16.29-1.04-.27-1.57-1.16-1.88-.43-1.88-1.9-1.17-3.07-1.27-2.81-.23-5.69.66-8.43-.89-1.25-.71-1.34-3.18-3.56-2.35-.29-.68-.59-.68-.88,0-2.87-.96-5.68-1.88-6.92-5.16-.57-1.5-1.99-2.33-3.7-2.38-.56-1.02-.11-2.74-1.97-2.85-3.67-2.78-8.15-4.59-10.52-8.97-.43-.79-1.7-1.15-2.62-1.65-4.09-2.21-8.41-4.43-10.96-8.32-2.79-4.26-5.66-8.47-9.28-11.95-2.59-2.49-4.77-5.04-6.08-8.35-1.13-2.86-3.7-4.64-5.37-7.14-1.84-2.76-.41-5.36-.55-7.98-.09-1.77-.67-3.64-1.85-3.97-3.92-1.11-3.39-4.2-3.18-6.76.28-3.55-.74-6.13-3.71-7.97-.57-.35-.67-.73-.39-1.28,1.67-1.34.07-2.92.33-4.36Zm13.03-106.19c.32,4.24,1.29,5.95,4.36,7.9,2.24,1.42,5.8.79,7.74-.93,5.21-4.61,9.45-10.24,15.54-13.99,1.78-1.09,4.72-1.46,5.24-4.08.39-1.95,1.76-2.5,3.18-3.03.8-.3,1.62-.42,2.1-1.2,1.6-2.66,4.52-3.94,6.1-6.96,2.27-4.33,6.62-7.06,11.35-8.94,1.84-.73,4.59-1.66,4.76-3.48.18-1.91,1.31-2.47,2.21-3.38,3.15-3.16,7.14-5.22,10.7-7.84,2.03-1.49,3.22-4.15,6.15-4.41.23-.02.52-.4.63-.67,1.21-2.89,3.38-5.19,5.01-7.81,3.44-5.52-1.45-10.38-6.75-10.27-3.26.07-6.79-1.06-9.65,1.61-.18.17-.67.21-.89.08-2.23-1.32-3.42.51-4.95,1.5-2.23,1.46-4.43,3.63-6.86,3.98-4.31.6-6.75,2.59-8.11,6.52-.35,1.01-1.52,1.28-2.58,1.56-3.11.8-5.88,2.34-7.91,4.82-2.72,3.33-5.52,6.51-9.39,8.57-.8.42-1.46.96-2.08,1.78-1.38,1.83-3,4.53-4.81,4.77-3.48.47-4.22,2.19-4.64,5.03-.21,1.42-1.28,2.58-2.37,3.58-1.02.92-2,1.9-2.36,3.27-.47,1.8-1.66,2.86-3.32,3.5-.68.26-1.48.43-1.8,1.17-1.79,4.05-3.75,8.04-5.21,12.2-.6,1.71-3.03,3.12-1.39,5.16Z"/><path class="cls-3" d="m505.87,548.16s-.01.01-.02.01c.01.02.02.03.03.05v-.06Z"/><path class="cls-1" d="m399.36,743.44c1.4-1.41,2.92-2.29,5.04-2.67,2.08-.37,3.95-1.91,5.91-2.93,3.68-1.92,7.93-1.61,11.77-3.1,5.65-2.19,11.12-4.89,17.01-6.46,3.47-.93,6.77-2.52,9.91-4.04,3.42-1.65,6.85-3.22,10.48-3.58,4.32-.43,7.03-4.21,11.36-4.5,1.58-.11,3.02-1.79,4.57-2.66,3.72-2.06,7.45-4.09,11.21-6.07,1.08-.57,1.76-.72,2.91.69,2.07,2.53,2.53,5.88,4.85,8.2.8.8,1.37,2.15,2.63,1.86,3.08-.72,5.18,1.29,7.29,2.67,6.02,3.96,12.84,5.71,19.58,4.7,3.93-.59,7.71,1.01,11.48-.44,4.13-1.58,9.07-.6,12.59-4.22,1.58-1.62,4.04-1.2,6.05-1.85,3.99-1.29,7.68-3.44,11.21-5.52,2.74-1.62,5.23-4.03,7.86-6.04,2.18-1.67,4.1-3.58,6.67-4.83,2.2-1.07,3.49-3.45,4.66-6.38.71,2.47,2.79,2.62,3.8,4.3,2.17,3.61,2.67,7.54,3.09,11.54.13,1.22.38,2.37.73,3.53-.16.45.13.6.47.7.86,1.75,1.7,3.53,2.6,5.26,1.23,2.36,2.83,4.6,1.53,7.52-.19.43.2,1.36.96,1.69.06.99-.18,2.14,1.27,2.4,1.42,1.19.6,3.41,2.08,4.57-.12.41,0,.57.43.4,1.28.3,1.96,1,1.94,2.42-.04,3.59,2.13,5.5,5.23,6.68,1.84.7,3.5,1.5,4.42,3.54.61,1.36,2.4,1.46,3.67,2.1,7.28,3.67,14.65,2.46,22.04.38,4.71-1.33,8.44-3.56,10.62-8.43,1.21-2.7,3.65-4.82,3.86-8.11.07-1.04.36-2.12,0-3.09-.64-1.76-.73-3.16.42-4.95.78-1.22.63-3.35.25-4.91-.53-2.2-1.14-4.36-.97-6.61.18-2.36-.72-4.26-1.91-6.2-2.49-4.06-3.74-8.63-5.46-13.03-1.15-2.94-2.5-5.91-3.83-8.84-.31-.69-.76-1.4.13-1.85.53-.27,1.18-.11,1.66.5,1.98,2.52,4.49,4.77,5.85,7.58.94,1.96,2.11,3.48,3.55,4.93,1.27,1.28,2.42,2.56,2.34,4.53-.02.52.06.97.43,1.44,3.09,3.88,6.36,7.65,9.13,11.75,2.74,4.06,7.04,6.67,9.71,10.54,2.3,3.33,5.24,5.72,8.04,8.4.45.43.87.91,1.6.82,3.42-.42,5.63,1.34,7.87,3.74,4.2,4.51,10.13,5.02,15.79,5.73,4.19.52,8.37,1,12.68.12,5.26-1.08,10.49-1.79,13.27-7.23.14-.27.32-.56.56-.75,6.87-5.32,5.38-11.64,3.12-18.76-1.63-5.14-4.25-9.29-7.52-13.29-.39-.48-.7-1.17-1.21-1.37-2.98-1.22-4.25-3.93-5.64-6.47-1.7-3.1-4.42-4.97-7.06-7.17-3.53-2.93-7.42-5.55-10.43-9.04-1.47-1.7-3.94-2.19-4.76-4.9-.46-1.53-.64-2.25.39-3.35,2-2.14,4.53-3.47,7.33-3.54,2.83-.07,5.82-.12,8.48-.43,4.93-.58,9.94-.77,14.88-1.82,3.89-.82,7.8-2.16,11.76-2.21,3.9-.05,7.81-1.19,11.72-.12,1.42.39,2.82-.16,3.84-.77,3.36-2.01,7.28-1.29,10.71-2.49,4.05-1.41,8.18-3.02,11.71-5.39,1.92-1.29,3-3.97,5.4-5.12,2.09-1,4.35-1.4,6.22-.05,1.88,1.35,3.81,1.23,5.78,1.13,5.9-.31,11.78.17,17.6.85,3.86.45,7.9-.21,11.44.67,6.31,1.58,12.69,1.21,18.99,2.05,5.04.67,10.18.74,15.27.83,2.2.04,4.38,1.01,6.47.62,7.83-1.44,15.2,2.17,22.85,1.84,2-.09,4.48,1.27,6.25-.96.14-.18.67-.27.89-.15,4.37,2.46,9.73,0,14.07,2.84.76.5,2.15.53,3.06.22,4.33-1.45,8.54-2.01,12.92-.03.93.42,2.36.18,3.65-.19,2.5-.71,5.15-.89,7.37,1.17-2.55.84-4.29,2.85-6.37,4.26-4.42,3-9.69,4.34-13.92,7.52-5.44,4.1-12.87,4.31-17.86,9.27-.45.45-1.57.91-1.92.67-2.02-1.37-3.19.07-4.31,1.22-2.62,2.7-6.62,2.47-9.46,4.64-1.92,1.47-4.55,1.68-6.25,3.54-1.18,1.28-2.76-.04-4.24.76-2.56,1.37-5.12,2.61-7.5,4.35-1.88,1.38-4.23,3.3-6.82.84-1.87,1.79-5.12,1.37-6.53,3.53-2.08,3.18-5.4,4.44-8.5,5.13-3.99.89-7.31,2.88-10.41,5.02-3.17,2.18-6.45,4.13-9.86,5.77-1.1.53-2.16,1-3.1,1.78-1.27,1.07-2.71,2.26-4.32,2.09-2.91-.31-4.65,1.5-6.46,3.07-1.27,1.11-2.33,2.22-4.17,2.32-3.81.21-6.95,2.59-9.5,4.74-3.04,2.56-6.41,2.24-9.6,3.26-2.82.91-5.61,1.91-7.56,4.28-.38.46-.65.62-1.17.75-2.16.52-3.87,1.87-5.74,2.93-3.36,1.89-6.41,5-9.74,5.9-6.28,1.71-10.87,6.25-16.82,8.21-.29.1-.64.16-.85.35-3.71,3.3-8.27,4.81-12.91,6.16-.44.13-.76.69-1.11,1.07-4.41,4.72-10.25,7.29-15.86,10.04-1.98.97-3.84,2.35-5.37,3.54-3.33,2.59-7.96,2.57-10.71,6.04-1.83,2.3-4.75,2.61-7.43,3.1-3.75.69-5.64,3.95-8.24,6.08-4.14,3.39-7.97,3.19-12.46,1.23-4.86-2.12-10.01-2.85-15.35-3.07-3.78-.15-7.54-1.44-11.27-2.4-2.07-.53-3.97-1.24-6.23-.57-1.4.42-3.11.38-4.52-.57-2.42-1.62-5.26-1.76-7.96-1.83-4.06-.11-8.09-.19-11.8-2.03-3.79-1.88-8.15-2.08-11.96-2.13-6.16-.08-11.54-3.25-17.62-3.1-1.57.04-2.82.99-4.79.37-7.97-2.49-16.47-2.18-24.65-4.21-3.68-.91-7.74-2.48-11.89-1.61-3.87.81-7.06-1.89-10.78-2.26-1.65-.16-2.98.52-4.52.4-9.2-.73-18.42-1.2-27.61-1.99-2.74-.24-5.34-1.47-7.86-2.65-2.53-1.18-5.14-1.54-7.85-.7-1.22.38-2.55.62-3.62-.11-3.73-2.55-7.92-2.25-12.09-2.17-2,.04-3.74-.48-5.61-1.37-2.5-1.19-5.47-.46-8.23-.56-1.27-.05-2.7.08-3.53-.68-2.52-2.28-6.27-.01-8.61-2.55-4.98,2.46-9.88-1.43-14.97-.21-1.42.34-3.69.28-5.1-.46-3.52-1.85-7.38-1.63-10.9-1.52-4.65.13-9-1.93-13.71-.97-4.86.99-9.6-1.35-14.48-1.34-3.27,0-6.46-.63-9.83-.12-3.6.54-7.43,1.02-11.03-.41.1-1.23,1.39-1.53,1.81-1.54,4.88-.1,8.47-3.8,12.9-4.63,3.65-.68,6.67-2.91,10.33-3.27,1.63-.16,2.75-1.27,3.9-2.29.96.1,1.88.06,2.5-.84.64-.07,1.27-.14,1.91-.2.68.3,1.33.48,1.68-.45Z"/><path class="cls-10" d="m318.16,406.83c-.42-3.32-2.27-6.22-3.57-9.1-2.07-4.57-3.2-9.11-3.56-13.99-.13-1.73.14-3.6-1.96-4.56-.47-.21-.96-1.01-.96-1.55-.05-4.15-2.36-8.01-1.71-12.18.26-1.65-1.01-2.4-1.29-3.72-1.6-7.36-2.31-14.82-2.96-22.3-.1-1.11.13-2.17.67-3.03,1.54-2.44,1.83-5.03,1.34-7.78-.04-.21-.15-.54-.07-.6,4.19-3.19,1.92-9.66,6.08-12.57,4.19-2.94,6.35-8.69,12.53-8.99,1.29-.06,2.49.29,3.66.18,2.4-.22,4.75-.57,7.16-1.33,2.73-.85,6.57-1.16,9.3,1.34,1.3,1.19,2.44,1.7,4.22,1.05,2.55-.94,5.24.17,7.22,1.25,2.37,1.28,4.97,1.84,7.29,3.23,4.6,2.74,9.37,5.25,14.25,7.45,3.07,1.38,4.02,4.63,6.65,6.34,1.9,1.24,3.7,2.67,5.85,3.4,2.92,1,5.41,2.23,6.33,5.57.33,1.21,1.75,2.06,2.7,2.82,3.16,2.52,5.88,6.42,9.4,7.47,5.04,1.5,5.5,5.84,7.9,8.9,1.75,2.22,4.77,2.65,6.16,5.14.09.16.46.17.52.32,1.93,4.86,7.17,7,9.44,11.57.09.19.2.39.35.52,5.31,4.58,8.11,11.09,12.41,16.46,2.41,3.01,4.8,6.14,7.12,9.27-.59-.19-1.22-.3-1.77-.57-3.48-1.65-5.96-4.56-8.75-7.07-4.3-3.86-10.18-5.37-14.19-9.65-.54-.58-1.28-.67-2.1-.04,3.29,5.4,9.5,8.63,12.04,15.72-8.29-3.61-14.6-8.94-22.18-12.54,1.96,4.89,6.79,6.96,8.98,11.31-5.86-2.61-10.83-6.99-17.98-8.86,2.87,4.12,6,6.92,8.36,11.12-8.68-2.69-15.81-7.31-23.93-9.57,3.81,2.19,6.81,5.12,9.82,8.82-1.41,0-2.52.34-3.22-.05-5.01-2.81-11.06-2.93-15.88-6.29-2.23-1.55-4.94-2.27-8.23-2.62,5.45,4.78,12.37,6.63,16.27,12.51-10.59-.4-19.32-7.08-29.7-8.21,2.48,2.31,5.48,3.91,7.23,6.84.36.6,1.42,1.06.92,1.8-.55.8-1.53.46-2.26-.03-3.03-2.01-6.63-2.73-9.98-3.68-2.81-.8-5.41-3.23-9.49-1.85,5.35,3.04,9.83,6.35,13.65,10.62-9.16-1.39-16.65-7.26-25.69-8.39,3.11,3.08,6.65,5.56,8.75,9.43l.02-.02c-5.48-1.48-10.96-2.97-16.43-4.45-.21-.16-.42-.33-.65-.46-.02-.01-.17.21-.26.32.26.11.51.21.77.32-.13,2.74,3.08,2.95,3.83,5.04.29.8,1.77,1.23.99,2.34-.85,1.21-2.07.71-3.12.22-2.65-1.25-5.43-2.06-8.29-2.67Zm94.62-24.01c-.1-.17-.17-.43-.31-.49-.15-.06-.38.06-.57.1.15.23.29.46.46.66.02.02.27-.17.42-.27Zm-8.58,2.76c-.09-.03-.18-.08-.27-.08-.03,0-.06.12-.09.19.09.03.18.08.27.08.03,0,.06-.12.09-.18Z"/><path class="cls-14" d="m149.37,377.19c1.15,1.3,2.01,2.81,2,4.52-.03,3.21,2.21,4.78,4.31,6.49.47.38,1.16.51,1.57.94,3.54,3.71,3.62,7.58.06,11.32-2.63,2.76-4.99,5.53-6.03,9.37-.64,2.35-2.93,3.94-3.51,6.69-4.77-4.19-8.38-8.46-7.9-14.89.03-.37-.23-.91-.52-1.12-2.87-2.04-3.01-5.64-4.81-8.32-2.3-3.43-2.93-7.56-3.92-11.5-.42-1.69-1.49-2.83-2.84-3.5-1.49-.73-1.73-1.45-1.23-2.95.46-1.38.63-2.88.74-4.34.18-2.42.55-4.68-1.54-6.9-2.32-2.47-1.7-6.25-2.63-9.39-1.48-4.97-.14-9.93,1.15-14.81.56-2.1.95-4.17.29-6.43-.42-1.43.49-3.01.94-4.49,2.38-7.75,5.66-15.19,9.15-22.43,1.76-3.65,3.35-7.87,6.97-10.59,1.95-1.47,3.25-3.74,4.1-5.92,1.77-4.53,5.44-7.29,8.69-10.47,3.9-3.8,8.18-7.25,11.78-11.31,2.25-2.53,5.03-3.43,7.87-4.56.78-.31,2.01-.38,2.28-.93,1.73-3.53,5.35-3.62,8.31-4.98,1.87-.86,3.94-1.54,5.32-3.27.65-.81,1.51-.82,2.48-.98,1.98-.33,4.27.02,5.73-1.96.27-.37.74-.64,1.38-.37,2.49,1.04,5.28.81,7.71,1.29,2.97.59,6,.34,8.84,1.15,1.44.41,2.52.22,3.86-.1,3.29-.79,6.39-.06,9.76.6,4.38.85,8.04,3,12.1,4.28,4.38,1.38,8.46,3.68,12.67,5.57.1.04.22.08.27.15,4.02,6.42,11.94,8.89,15.82,15.29,2.63,4.34,5.49,8.55,7.91,13.01.32.59.12,1.45.24,2.17.48,2.99,1.23,5.89,3.06,8.38,1,1.37.53,2.09-.99,2.38-.51.1-1.33-.04-1.49.23-2.41,3.99-6.98,2.5-10.24,4.17-2.42,1.24-4.57,3.11-6.6,4.96-1.98,1.8-4.1,2.89-6.72,3.64-4.83,1.39-9.51,3.34-12.99,8.28-.07-1.3-.37-2.1-.09-2.54,2.02-3.21,1.11-6.78,1.07-10.13-.02-2.16-1.31-4.39-2.35-6.43-.97-1.92-2.27-3.7-3.58-5.43-1.02-1.35-1.76-3.03-4.14-2.76-1.83.21-2.18-2.18-3.73-3.04-2.9-1.61-6.08-1.65-9.05-2.11-5.16-.81-10.16-2.67-15.71-1.8-2.69.42-5.82.17-8.75.16-2.09,0-3.97.7-5.61,1.63-1.17.66-2.28,1.31-3.46,1.08-4.82-.96-7.66,1.95-10.97,4.7-1.98,1.64-4.37,3.18-6.83,4.31-1.28.59-2.45,1.25-3.27,2.35-3.53,4.72-7.88,8.66-11.23,13.66-3.95,5.89-6.02,12.5-9.33,18.58-1.52,2.78-2.53,5.92-1.28,9.33.49,1.35.14,2.98-.61,4.29-1.32,2.31-1.32,4.73-1.27,7.3.05,2.56.64,4.11,3.17,5.36,2.82,1.39,2.14,4.69,2.49,7.32-.65.64-.27,1.04.31,1.41.38,1,.33,2.02.12,3.05-.55.87.03,1.12.71,1.32Zm92.51-98.9c3.19.86,4.86-1.07,5.28-3.77.43-2.78-.08-5.62-2.69-7.5-5.61-4.05-12.11-5.88-18.66-7.69-2.59-.72-4.56.99-6.7,1.09-4.13.18-6.32,2.17-8.16,5.5-2.19,3.97-.32,7.64,4.18,8.13,5.68.62,11.56-.04,17,2.33,3.07,1.34,6.32,1.89,9.73,1.91Z"/><path class="cls-14" d="m324.89,401.72c5.48,1.48,10.96,2.97,16.43,4.45.08.11.17.21.25.32,0-.06.01-.15-.02-.19-.07-.06-.16-.08-.24-.12-2.09-3.87-5.64-6.35-8.75-9.43,9.04,1.13,16.53,7,25.69,8.39-3.82-4.26-8.29-7.58-13.65-10.62,4.08-1.38,6.68,1.05,9.49,1.85,3.35.95,6.95,1.67,9.98,3.68.74.49,1.72.83,2.26.03.5-.74-.56-1.2-.92-1.8-1.75-2.93-4.75-4.54-7.23-6.84,10.37,1.13,19.11,7.81,29.7,8.21-3.9-5.88-10.83-7.73-16.27-12.51,3.29.35,6,1.07,8.23,2.62,4.83,3.36,10.87,3.47,15.88,6.29.7.39,1.8.05,3.22.05-3.01-3.71-6.01-6.63-9.82-8.82,8.12,2.26,15.25,6.88,23.93,9.57-2.36-4.21-5.49-7-8.36-11.12,7.15,1.87,12.12,6.25,17.98,8.86-2.2-4.35-7.02-6.42-8.98-11.31,7.59,3.6,13.9,8.93,22.18,12.54-2.54-7.09-8.75-10.32-12.04-15.72.82-.63,1.56-.54,2.1.04,4.01,4.28,9.89,5.79,14.19,9.65,2.79,2.51,5.27,5.42,8.75,7.07.56.26,1.18.38,1.77.57,2.51,3.63,4.88,7.37,7.61,10.82,1.18,1.48,2.06,3.27,2.17,4.74.39,5.26,6.04,7.42,6.72,12.38.52,3.81,3.04,6.93,3.61,10.93.3,2.12,1.99,5.34,4.56,6.93,1.53.94,1.81,2.33,1.43,3.8-.73,2.83-1.7,5.5,2.31,6.84,1.49.5.76,2.16.69,3.82-3.1-2.51-7.25-2.3-9.88-5.31-1.64-1.88-4.31-1.5-6.43-2.52-2.05-.98-4.36-2.13-7.01-1.84-1.05.12-2.78-.03-3.09-2-.2-1.25-1.65-1.25-2.58-1.4-4.65-.77-8.8-3.3-13.53-3.71-.28-.02-.71-.2-.79-.41-1.53-3.96-4.97-2.84-7.85-2.8-1.16.01-2.35-.06-2.87-.78-2.4-3.35-6.01-2.38-9.2-2.78-2.13-.27-4.18.05-6.01-1.85-1.64-1.71-4.27-.74-6.4-.68-1.5.04-2.77.05-4.07-.72-4.23-2.5-9.5-1.37-13.7-3.7-5.08-2.81-10.99-.74-15.97-2.92-6.63-2.91-13.62-.79-20.29-2.26-.4-.09-1.01.13-1.23-.09-3.28-3.28-6.48.23-9.7.04-3.54-.21-6.79.27-9.7,2.56-1.43,1.12-3.77,0-4.34-2.06-1.22-4.41-3.48-8.3-5.88-12.13-.67-1.07-1.33-2.15-1.07-3.51,2.85.61,5.64,1.42,8.29,2.67,1.05.5,2.28,1,3.12-.22.78-1.11-.7-1.54-.99-2.34-.75-2.09-3.96-2.3-3.83-5.04l.15-.18Z"/><path class="cls-12" d="m711.48,548.52c-1.91.72-3.12,2.51-4.26,3.87-3.5,4.18-9,6.17-11.74,11.09-.51.92-1.92,1.13-2.61,1.3-4.61,1.11-6.12,5.93-10.04,7.93-2.43,1.24-4.64,2.09-7.32,1.94-1.02-.06-2.06.25-3.09.39,1.22-2.01,2.17-4.05,4-5.83,3.24-3.13,6.44-6.32,9.55-9.52,1.92-1.97,4.54-3.96,5.71-7.01.7-1.82,2.64-3.32,4.33-4.56,2.41-1.76,4.55-3.69,6.65-5.84,2.34-2.4,6.08-2.43,9.42-2.67,4.09,3.36,3.18,7.49-.6,8.91Z"/><path class="cls-12" d="m521.65,509.91c-2.47.28-4.72.17-6.27-2.32-.37-.59-1.24-1.16-2.36-1.19-2.16-.05-4.14-.41-5.06-3.13-.5-1.46-2.79-1.6-4.33-2.2-3.85-1.51-7.66-3.15-10.9-5.75-1.11-.88-2.58-.34-3.45-1.3-2.67-2.94-7.1-2.89-9.67-5.02-3.07-2.54-6.73-3.66-9.8-5.98-2.58-1.97-5.79-3.11-8.64-4.75-5.51-3.17-5.36-3.76-3.97-9.4,1.43,0,2.48.47,3.8,1.3,4.7,2.96,9.05,6.54,14.19,8.74,1.48.63,2.13,1.91,3.02,2.96,1.33,1.58,2.68,2.64,4.85,1.99,1.33-.4,2.87.08,3.43.92,2.76,4.12,7.7,4.07,11.44,6.27,3.01,1.78,5.66,3.78,8.2,6.28,2.74,2.7,5.16,6.23,9.5,7.07,1.71.33,3.35,1.71,3.94,3.14.5,1.22,1.52,1.49,2.08,2.37Z"/><path class="cls-12" d="m495.17,640.3c-.64,3.24-4.07,5.34-7.78,4.32-1.67-.46-3.22-.48-4.85-.37-1.82.09-3.54,1-5.42.71-5.65-1.48-4.78-6.06-4.83-10.2,2.56-1.46,5.21-.83,7.77-.12,5.2,1.44,10.55,2.51,15.11,5.66Z"/><path class="cls-12" d="m765.99,620.68c-.81,3.44-3.89,4.45-6.52,4.82-5.1.72-9.74,2.96-14.87,3.62-3.29.43-4.57-.69-5.6-3.24-.21-.52.08-1.34-.82-1.48.31-.57.95-.57,1.36-.44,3.54,1.18,5.58-1.37,8.11-2.98,2.05-1.3,4.56-1.98,6.99-1.34,1.69.46,3.17.45,4.85.08,2.22-.49,4.19,1.51,6.5.96Z"/><path class="cls-12" d="m536.3,682.06c-.02,2.78-1.94,4.02-4.13,5.03-.47.04-.94.09-1.41.13-6.79.94-7.5.08-8.32-4.32,2.59-2.7,5.32-1.59,8.06-.32.68.02,1.47.49,1.92-.46,1.3.57,2.56-1.55,3.88-.06Z"/><path class="cls-5" d="m285.4,324.68c-1.31-.59-1.67-2.79-3.69-2.18.92-1.52,2.54-.74,3.99-1.58-.12,1.53-.22,2.64-.31,3.76Z"/><path class="cls-10" d="m362.09,520.75c-2-1.07-3.6-2.39-3.11-5.01.86,1.78,3.09,2.71,3.11,5.01Z"/><path class="cls-14" d="m164.95,537.23c-.26,1.44,1.34,3.03-.33,4.36-.78-1.52-.44-2.96.33-4.36Z"/><path class="cls-6" d="m219.12,615.94c1.86.11,1.41,1.83,1.97,2.85-1.25-.54-1.51-1.76-1.97-2.85Z"/><path class="cls-13" d="m466.61,574.84c-1.31.31-1.69-.6-2.04-1.55,1.13-.08,1.83.42,2.04,1.55Z"/><path class="cls-13" d="m680.47,713.51c-1.37.14-1.92-.39-1.44-1.77.81.32,1.38.84,1.44,1.77Z"/><path class="cls-13" d="m702.62,730.06c-.74.05-1.56.31-1.79-.78,1-.69,1.58-.38,1.79.78Z"/><path class="cls-6" d="m395.77,744.1c-.62.91-1.54.94-2.5.84.66-.8,1.53-.95,2.5-.84Z"/><path class="cls-13" d="m651.34,610.62c-.78-.42-1.26-1.03-1.21-1.96,1.3.1,1.24,1.04,1.21,1.96Z"/><path class="cls-13" d="m479.26,585.08c-.91-.22-1.06-.98-1.23-1.73,1.14.05,1.26.84,1.23,1.73Z"/><path class="cls-6" d="m247.66,630.84c.9.31,1.45.83,1.16,1.88-1.23-.1-1.16-1.01-1.16-1.88Z"/><path class="cls-6" d="m442.87,589.06l-.84-1.3c.54.11,1.27-.16,1.52.56.15.45-.29.64-.68.74Z"/><path class="cls-6" d="m399.36,743.44c-.35.93-1,.75-1.68.45.45-.57,1.08-.43,1.68-.45Z"/><path class="cls-13" d="m691.22,662.47c.22-.63-.48-2.2,1.28-1.25-.43.42-.85.83-1.28,1.25Z"/><path class="cls-13" d="m601.75,694.1c-.01.51-.49.57-.89.63,0-.42.01-.85.01-1.27.41.06.88.12.88.64Z"/><path class="cls-10" d="m148.53,372.82c-.58-.36-.96-.77-.31-1.41.57.37.67.84.31,1.41Z"/><path class="cls-10" d="m149.37,377.19c-.68-.2-1.27-.46-.71-1.32.62.23.8.71.71,1.32Z"/><path class="cls-14" d="m161.1,523.25c.4.06.88.12.89.63,0,.52-.47.57-.88.64,0-.42,0-.84-.01-1.27Z"/><path class="cls-6" d="m296.38,643.73c.42.1.85.2,1.27.31-.69,1.01-1.05.62-1.27-.31Z"/><path class="cls-13" d="m762.73,649.69c-.43-.01-.85-.02-1.28-.03.07-.41.13-.88.65-.86.51.01.56.48.63.89Z"/><path class="cls-14" d="m163.07,534.64c.65.03,1.01.38,1.13,1-.61-.07-1.19-.18-1.13-1Z"/><path class="cls-13" d="m704.45,654.72c-.03.13-.07.23-.13.32-.13.21-.34.29-.57.31-.16.01-.33,0-.51-.02.14-.71.3-1.39,1.2-.61h.01Z"/><path class="cls-13" d="m690.8,662.85c-.03.12-.1.2-.22.24-.41-.05-.86-.08-.96-.58-.02-.12.2-.3.32-.45.28.26.57.52.86.79Z"/><path class="cls-13" d="m504.72,694.1c-.19-.53-.2-1.01.41-1.3,1,.79.54,1.12-.41,1.3Z"/><path class="cls-13" d="m521.03,663.38c-.22.06-.44.12-.66.18.13-.23.25-.46.38-.69.09.17.18.34.28.51Z"/><path class="cls-13" d="m532.95,651.09c-.17-.15-.35-.3-.52-.45.42-.13.51.1.52.45Z"/><path class="cls-6" d="m630.54,705.11v.06c-.08.02-.17.05-.25.07.08-.04.16-.09.25-.13Z"/><path class="cls-13" d="m677.95,710.49c-.37-.01-.59-.15-.51-.56.17.18.34.37.51.56Z"/><path class="cls-6" d="m231.72,626.34c.29-.68.59-.68.88,0-.29,0-.59,0-.88,0Z"/><path class="cls-6" d="m253.34,635.87c.13-.19.3-.25.52-.17-.16.1-.33.16-.52.17Z"/><path class="cls-9" d="m399.99,535.24c-.14-.25-.28-.51-.41-.76.34.14.54.36.41.76Z"/><path class="cls-9" d="m592.48,716.32c-.35-.11-.63-.26-.47-.7.16.23.32.47.47.7Z"/><path class="cls-13" d="m686.15,719.93c-.4.06-.57-.11-.51-.51l.51.51Z"/><path class="cls-2" d="m922.93,772.65c.85,4.71-1.34,9.49.34,14.15.43,1.2-.58,1.72-1.22,1.83-6.27,1.15-12.09,3.9-18.35,5.12-1.47.29-2.38-.78-4.02-.33-7.56,2.07-14.9,4.71-22.15,7.62-.28.11-.75.29-.86.18-2.26-2.36-3.99-.27-5.97.56-3.86,1.62-8.03,2.39-11.79,4.3-.75.38-1.47.41-2.38.19-3.88-.94-7.5.36-10.96,1.84-5.76,2.45-11.5,4.65-17.9,4.83-1.73.05-3.53,1.1-5.12,2.01-1.01.57-2.28.77-3.02,1.32-4.62,3.45-10.73.72-15.46,4.11-1.84,1.32-4.82,1.07-7.27,1.58-3.3.69-6.15,2.29-9.04,3.74-2.33,1.17-4.51.8-6.86.96-3.8.25-3.87-2.16-3.53-4.29.96-6.05-2.13-10.18-5.93-14.11-1.57-1.62-2.2-2.43.67-3.87,2.68-1.34,5.28-.82,7.86-1.38,1.89-.41,3.93-.17,5.17-2.15.17-.27.74-.31,1.14-.43,5.17-1.57,10.35-3.07,15.49-4.73,1.24-.4,2.37-1.07,3.39-2.11,1-1.02,2.25-2.93,4.29-.94.48.47,2.23.46,2.7-.02,2.04-2.08,5.06-1.9,7.38-3.58,2.04-1.48,5.1-1.85,7.57-2.86,3.82-1.58,7.58-3.23,11.66-3.83,2.52-.37,4.57-1.81,6.88-2.62,2.51-.89,4.6-2.34,7.62-1.89,1.8.27,4.24-.68,5.71-1.9,4.39-3.61,9.92-3.65,14.8-5.55,3.7-1.44,7.63-1.74,11.33-3.65,5.65-2.92,11.7-5.5,18.25-6.32,1.75-.22,3.57-1.18,5-2.28,1.89-1.45,4.21-.55,6.08-1.63,1.03-.59,1.26.61,1.55,1.03,1.23,1.78,2.68,3.57,3.3,5.59.88,2.88,1.64,5.75,3.27,8.32.21.34.25.79.37,1.19Z"/><path class="cls-7" d="m967.7,761.63c-2.56,2.57.94,7.27-2.65,10.85-3.55,3.54-7.43,5.77-12.39,6.18-1.39.12-.86-.83-.77-1.44.73-4.65.66-9.5-.84-13.75-1.37-3.91-2.51-8.37-6.07-11.24-1.61-1.29-2.1-3.3-3.43-4.78-.99-1.11.46-1.56,1.11-2.01,2.25-1.59,4.93-2.13,7.55-2.53,2.05-.31,4.24.21,5.12-2.48.14-.44.81-.86,1.59-.39,4.49,2.72,8.67,5.4,9.07,11.6.19,2.97,1.66,5.91,1.69,10Z"/><path class="cls-4" d="m759.17,834.49c-2.69,1.51-4.83-2.25-7.53-.69-.52-1.25-1.18-2.45-1.54-3.74-1.04-3.74-2.93-7.1-4.8-10.43-1.53-2.71-1.19-5.47,1.51-7.35,1.38-.96,2.64-2.02,3.56-3.48,1.31-2.08,3.65-2.23,4.8-.08,2.66,4.97,6.7,9.07,8.78,14.39.26.67.5,1.13.27,1.98-.51,1.94-.79,3.98-.81,5.99-.02,3.03-1.37,4.11-4.25,3.42Z"/><path class="cls-12" d="m940.88,778.82c-.32,1.32-.78,2.62-.91,3.95-.1.97-.71,1.01-1.31,1.4-1.53,1-2.82-.22-4.22-.22-2.92-.01-1.02-2.08-1.29-3.18-.47-1.96-.13-3.89.36-5.85.59-2.37-.44-4.56-1.56-6.58-2.86-5.15-3.82-11.48-9.35-15.08,2.3-1.39,5.05-1.29,7.35-2.59,1.48-.84,1.95,1.01,2.49,1.75,4.99,6.8,8.69,14.15,8.88,22.83-1.39,1.03-.86,2.31-.45,3.58Z"/><path class="cls-10" d="m940.88,778.82c-.41-1.26-.94-2.54.45-3.58.4,1.26,1.09,2.56-.45,3.58Z"/><path class="cls-3" d="m784.18,435.42c4.28-2.41,8.6-3.53,13.32-1.04,3.75,1.98,4.34,4.49,1.83,7.93-2.8,3.84-5.53,8-9.93,9.86-3.62,1.53-5.88,4.26-8.62,6.64-2.37,2.06-5.58,2.44-8.34,3.74-2.21,1.05-5.26.7-6.16,3.95-.19.7-1.24,1-2.15,1.08-1.49.13-3.02.63-3.86,1.82-.85,1.19-1.85,1.16-3,1.21-.62.03-1.49-.09-1.8.26-3.16,3.55-8.09,2.54-11.95,5.16.76-2.25,1.23-2.84,4.18-4.02,1.57-.62,2.25-1.32,2.43-3.12.4-4.11,2.91-7.12,6.07-9.56.71-.55,1.41-1.08,1.39-1.94-.03-1.88,1.32-2.73,2.48-3.77,1.78,3.18,5.85,3.83,8.57,2.01,2.79-1.87,5.63-3.94,8.53-5.36,4.65-2.28,7.58-4.95,8.8-10.13.6-2.54-.12-3.56-1.79-4.74Z"/><path class="cls-12" d="m784.18,435.42c1.67,1.18,2.38,2.2,1.79,4.74-1.22,5.18-4.15,7.85-8.8,10.13-2.9,1.42-5.74,3.49-8.53,5.36-2.72,1.82-6.79,1.17-8.57-2.01,3.21-3.24,5.46-7.54,10.31-8.98.97-.29,2.14-1.34,2.41-2.28.62-2.08,1.58-2.9,3.83-2.89,1.48,0,2.82-1,3.81-2.42.81-1.16,2.08-2.06,3.75-1.66Z"/><path class="cls-3" d="m835.84,523.27c1.33-.11,2.05.81,2.9,1.6,1.24,1.16,3.11,2.8,2.09,4.04-1.28,1.55-2.57,3.72-5.53,3.58-2.33-.11-4.78.44-7.14.8-6.47.97-12.58-.42-18.65-2.21-1.26-.37-2.35-.47-3.62-.4-4.21.23-8.26.12-11.37-3.59-.95-1.13-2.62-2.18-4.51-1.63-.2.06-.51.22-.59.15-2.44-2.31-5.62-2.54-8.81-3.39,10.11-1.81,19.8-5.51,30.24-4.55.25,1.07.02,2.48,1.04,3.08,2.66,1.56,5.34,3.12,8.41,3.83,5.33,1.24,10.48.44,15.55-1.29Z"/><path class="cls-12" d="m835.84,523.27c-5.07,1.74-10.22,2.53-15.55,1.29-3.07-.71-5.75-2.27-8.41-3.83-1.01-.6-.78-2.01-1.04-3.08,5.06.6,10.37.47,15.11,2.04,3.27,1.08,6.86,1.68,9.89,3.57Z"/><path class="cls-11" d="m177.98,431.04c-1.64-2.04.79-3.45,1.39-5.16,1.46-4.16,3.42-8.15,5.21-12.2.33-.74,1.12-.91,1.8-1.17,1.67-.64,2.85-1.7,3.32-3.5.36-1.37,1.34-2.35,2.36-3.27,1.1-1,2.16-2.16,2.37-3.58.42-2.84,1.16-4.56,4.64-5.03,1.8-.24,3.43-2.94,4.81-4.77.61-.81,1.28-1.35,2.08-1.78,3.87-2.06,6.66-5.24,9.39-8.57,2.03-2.48,4.8-4.02,7.91-4.82,1.07-.27,2.24-.54,2.58-1.56,1.35-3.93,3.79-5.92,8.11-6.52,2.43-.34,4.63-2.52,6.86-3.98,1.53-1,2.72-2.82,4.95-1.5.21.13.71.08.89-.08,2.86-2.68,6.39-1.55,9.65-1.61,5.3-.11,10.19,4.75,6.75,10.27-1.63,2.62-3.81,4.92-5.01,7.81-.11.27-.4.65-.63.67-2.93.26-4.12,2.92-6.15,4.41-3.56,2.62-7.56,4.68-10.7,7.84-.91.91-2.03,1.47-2.21,3.38-.17,1.82-2.92,2.75-4.76,3.48-4.72,1.88-9.08,4.61-11.35,8.94-1.58,3.02-4.5,4.31-6.1,6.96-.47.79-1.3.91-2.1,1.2-1.42.53-2.79,1.08-3.18,3.03-.52,2.62-3.46,2.99-5.24,4.08-6.09,3.75-10.32,9.38-15.54,13.99-1.94,1.72-5.5,2.35-7.74.93-3.07-1.95-4.04-3.66-4.36-7.9Z"/><path class="cls-15" d="m609.31,611.11c-2.31-1.9-4.92-3.27-7.17-5.16-3.55-2.98-7.34-5.9-10.45-9.12-3.72-3.85-9.25-5.56-11.85-10.54-.6-1.16-2.03-1.44-3.15-1.95-1.85-.85-3.08-2.25-4.48-3.68-2.71-2.76-5.93-5.03-8.86-7.6-4.36-3.83-8.7-7.69-13.12-11.43-3.74-3.16-7.56-6.25-11.55-9.13-2.43-1.76-4.24-4.41-6.9-6-4.6-2.76-7.62-7.71-13.16-9.25-2.41-.67-3.64-3.32-5.99-4.44-5.18-2.48-9.15-6.81-13.8-9.91-5.22-3.49-9.73-7.98-15.52-10.85-2.91-1.44-6.25-3.27-8.51-6.12-.43-.54-1.15-1.02-1.81-1.17-5.6-1.22-10.07-4.43-14.2-8.13-2.04-1.82-4.99-2.11-6.72-4.32-.47-.82-1.26-.68-2-.67-1.56-1.49-3.6-2.33-5.28-3.47-3.24-2.2-7.58-2.71-9.93-6.33-.51-.8-1.61-1.44-2.56-1.7-3.14-.85-5.27-3.13-7.64-5.07-.86-.7-1.87-.91-2.84-1.28-1.47-.57-2.95-1.18-3.92-2.52-.5-.7-.89-1.51-.6-2.37.38-1.12,1.44-.72,2.17-.67,3.6.27,7.04,1.11,10.56,2.04,4.25,1.12,8.34,2.69,12.51,3.98,5.59,1.74,10.34,5.48,16.19,6.81,1.83.41,2.94,2.88,4.97,3.57,8.81,3,16.37,8.47,24.42,12.84,6.75,3.67,13.61,7.54,19.71,12.57,3.43,2.82,6.87,5.96,11.06,7.86.19.08.49.14.55.29,1.33,3.26,4.3,3.97,7.26,4.69.17.32.35.65.52.98.34,1.6,1.61,2.32,2.84,3.18,4.12,2.85,8.02,6.05,12.67,8.03.91.39,1.24,1.12,1.63,1.78.86,1.42,1.79,2.46,3.62,2.5,1.71.04,2.33,1.3,2.18,2.81-.14,1.45.42,2.53,1.55,3.19,5.05,2.96,8.86,7.19,12.49,11.66.26.32.97.24,1.43.44,2.22.93,4.84,1.36,5.17,4.51.11.97.96,1.59,1.62,2.27,4.27,4.36,9,8.3,12.36,13.51.31.48.99,1.08,1.47,1.06,2.83-.15,3.07,1.74,3.33,3.8.31,2.47,2.28,4.35,3.86,5.47,2.56,1.83,3.98,4.28,5.66,6.65,3.71,5.22,7.5,10.4,10.21,16.39Z"/><path class="cls-8" d="m569.48,650.67c-.15.16-.31.33-.46.49-5.48-1.72-9.48-5.69-13.84-9.12-.07-.82-.57-1.11-1.33-1.07-2.56-1.6-3.84-4.46-6.21-6.31-.94-.74-1.62-1.62-2.86-2.15-2.63-1.12-4.29-3.08-5.59-5.87-1.35-2.88-3.69-5.86-6.39-7.41-3.24-1.86-5.26-4.52-7.24-7.27-1.93-2.68-4.45-4.74-6.84-6.81-1.83-1.59-3.48-3.04-4.21-5.3-.44-1.34-1.08-2.45-2.15-3.3-3.38-2.71-5.23-6.54-7.46-10.1-.55-.87-.56-1.93-.06-2.68.62-.93,1.51-.02,2.26.15,6.93,1.6,11.38,6.66,16.15,11.38,3.22,3.17,6.85,5.92,10.35,8.79.4.32,1.21.15,1.82.21.34.55.62,1.18,1.41,1.18,1.16,5.18,6.17,7.04,9.22,10.59.57.65,1.33,1.18,1.83,1.98,1.43,2.3,4.11,3.73,5.42,5.75,3.08,4.75,6.97,8.8,10.26,13.34,2.01,2.77,1.94,6.63,5.28,8.72,1.1.69-.2,3.23.64,4.81Z"/><path class="cls-8" d="m518.96,565.24c-4.05-1.83-8.01-3.89-11.01-7.07-1.43-1.53-3.24-2.45-4.75-3.05-2.7-1.08-3.91-4.43-7.29-4.34-.68.02-1.41-1.41-2.1-2.19-.48-.55-.99-1.64-1.38-1.59-3.12.39-4.32-2.45-6.41-3.72-1.72-1.05-3.46-2.53-4.46-4.25-2.04-3.51-5.79-4.67-8.68-6.94-5.03-3.93-10.35-7.52-15.48-11.28-3.48-2.55-7.18-5.37-11.06-7.66-3.81-2.24-7.16-5.92-10.26-9.4-1.44-1.62-.5-3.07,1.85-3.3,1.83-.18,3.72.1,5.23.76,6.62,2.91,13.45,5.5,19.02,10.34.69.6,1.41.8,2.3.83.59.02,1.42.16,1.73.56,5.39,7.04,13.3,11.02,19.86,16.61,4.14,3.53,8.74,6.67,12.29,10.72.15.17.31.34.47.51.26.27.54.54.83.8.28.26.57.52.87.77.28.24.56.48.84.71.04.03.08.07.12.1.32.27.63.53.94.81h0c.34.3.68.61,1.01.93.22.21.43.43.63.66.17.18.33.37.49.57.09.1.16.2.24.3.15.2.3.41.44.63.1.16.2.32.28.48.04.07.08.14.11.21.08.14.15.28.21.42.01,0,.01-.01.02-.01,1.85,3.12,5.03,5.07,6.99,8.11,1.95,3.02,4.17,5.86,6.1,8.97Z"/><path class="cls-7" d="m482.54,644.25c-1.61,1.77-3.39,2.18-5.42.71,1.88.29,3.6-.62,5.42-.71Z"/><path class="cls-7" d="m532.17,687.09c-.19.44-.14,1.16-.86,1.1-.46-.03-.58-.52-.55-.97.47-.04.94-.09,1.41-.13Z"/><path class="cls-8" d="m452.07,492.31c-1,.78-1.5.06-2-.67.74-.01,1.53-.15,2,.67Z"/><path class="cls-6" d="m555.18,642.04c-.72-.01-1.13-.41-1.33-1.07.76-.04,1.26.25,1.33,1.07Z"/><path class="cls-13" d="m536.83,605.48c-.79,0-1.07-.63-1.41-1.18.88-.09,1.37.28,1.41,1.18Z"/><path class="cls-8" d="m527.22,523.86c-.17-.33-.35-.66-.52-.98.63.08.63.5.52.98Z"/><path class="cls-8" d="m570.13,651.42c-.4.58-.81.17-1.11-.26.15-.16.31-.33.46-.49.38.13.86.44.65.75Z"/><path class="cls-13" d="m505.88,548.22c-.06.01-.13.02-.2.02.05-.02.11-.04.17-.07.01,0,.01-.01.02-.01v.06Z"/><path class="cls-14" d="m412.78,382.82c-.15.1-.41.29-.42.27-.18-.2-.32-.44-.46-.66.19-.04.42-.17.57-.1.15.07.21.32.31.49Z"/><path class="cls-14" d="m324.74,401.9c-.26-.11-.51-.21-.77-.32.09-.11.24-.33.26-.32.23.13.44.3.65.46,0,0-.15.18-.15.18Z"/><path class="cls-14" d="m404.2,385.58c-.03.07-.06.18-.09.18-.09,0-.18-.05-.27-.08.03-.07.06-.19.09-.19.09,0,.18.05.27.08Z"/><path class="cls-11" d="m241.88,278.29c-3.42-.01-6.66-.57-9.73-1.91-5.45-2.38-11.32-1.71-17-2.33-4.51-.49-6.37-4.16-4.18-8.13,1.83-3.33,4.03-5.32,8.16-5.5,2.15-.1,4.11-1.81,6.7-1.09,6.55,1.81,13.05,3.64,18.66,7.69,2.61,1.88,3.12,4.72,2.69,7.5-.42,2.7-2.1,4.63-5.28,3.77Z"/><path class="cls-10" d="m341.3,406.2c.08.04.18.06.24.12.04.03.02.12.02.19-.08-.11-.17-.21-.25-.32,0,0-.02.02-.02.02Z"/></svg>