<?xml version="1.0" encoding="UTF-8"?><svg id="Layer_1" xmlns="http://www.w3.org/2000/svg" viewBox="0 0 1080 1080"><defs><style>.cls-1{fill:#fff;}.cls-2{fill:#cb3366;}</style></defs><polygon class="cls-1" points="476.28 363.87 478.56 360.05 481.93 356.96 484.73 353.44 487.89 350.24 489.86 345.89 494.08 343.72 496.66 339.87 499.4 336.12 502.79 333.06 506.83 330.83 511.28 329.27 515.2 327.06 518.03 323.06 522.15 321.11 526.24 319.14 530.5 317.57 534.59 315.61 538.46 312.95 542.77 311.41 547.66 312.04 551.72 309.44 556.56 310.81 560.77 308.13 565.42 309.28 569.91 309.07 574.42 308.77 578.88 309.69 583.5 308.87 587.91 310.05 592.67 309.33 596.81 311.66 601.4 312.09 605.3 314.81 609.46 316.57 614.81 316.42 615.59 321.52 616.88 325.92 620.25 329.4 622.57 333.34 622.24 338.43 624.27 342.5 627.92 345.9 628.61 350.54 629.33 355.14 631.26 359.26 632.51 363.65 635.02 367.56 635.94 372.07 639.19 375.73 639.53 380.43 642.34 384.28 643.26 388.77 645.28 392.9 645.09 397.75 647.81 401.66 647.87 406.4 649.71 410.6 650 415.25 651.65 419.51 652.53 423.98 654.44 428.18 654.95 432.74 655.88 437.2 657.03 441.6 657.75 446.1 658.87 450.51 660.24 454.88 660 459.54 663.11 463.63 662.59 468.33 664.4 472.68 664.1 477.32 663.39 481.98 665.3 486.37 666.3 490.87 665.07 495.52 665.84 500.04 665.75 504.6 665.87 509.2 668.44 505.46 670.45 501.35 673.17 497.71 675.99 494.11 680.67 492.5 683.39 488.71 687.98 487.95 691.86 485.09 695.92 487.55 699.62 489.4 702.62 492.51 706.2 495.6 706.32 500.48 708.88 504.3 709.48 508.81 711.22 513 713.33 517.2 713.16 521.82 714.27 526.26 712.98 530.85 712.43 535.31 713.15 539.82 712.78 544.3 711.72 548.67 711.11 553.13 711.11 557.82 708.69 561.8 708.13 566.45 706.18 570.58 703.55 574.34 701.41 578.33 698.59 581.91 694.86 584.75 692.06 588.21 689.51 591.9 687.38 596.09 683.41 598.47 679.51 600.78 676.78 604.41 674.48 600.29 670.19 598.06 667.28 594.5 663.69 591.58 660.25 589.08 661.16 592.74 659.9 597.15 658.16 601.46 656.83 605.85 656.45 610.42 654.98 614.78 655.92 619.63 653.98 623.89 652.26 628.18 651.92 632.78 649.39 636.87 648.53 641.35 647.57 645.81 646.29 650.19 647.32 655.21 643.71 658.93 643.3 663.57 643 668.27 640.68 672.31 638.38 676.32 638.33 681.23 635.87 685.16 632.51 688.5 630.58 692.58 628.28 696.54 624.8 699.41 621.27 702.19 617.94 705.18 613.84 707.2 610.82 710.59 607.51 713.64 603.43 715.62 599.57 717.89 595.99 720.57 592.33 723.16 588.36 725.24 584.85 728.13 581.15 730.72 576.3 731.08 573.21 734.99 568.56 735.62 564.1 736.53 560.28 739.02 555.73 739.55 551.77 741.79 547.38 742.7 543.46 745.58 538.94 746.01 534.47 746.7 529.83 746.21 525.17 747.21 520.88 744.81 516.28 744.59 512.31 742.07 507.31 742.53 503.18 740.48 499.95 736.75 496.04 734.51 491.4 733.46 487.32 731.38 483.6 728.72 480.88 724.74 476.42 723.08 472.92 720.17 469.42 717.25 466.52 713.67 463.15 710.61 460.49 706.86 456.98 703.98 452.54 701.62 451.03 697.04 449.94 692.61 449.84 687.91 447.47 683.84 446.68 679.34 446.02 674.81 444.21 670.58 443.02 666.18 442.4 661.64 440.37 657.47 439.9 652.88 438.85 648.45 438.81 643.75 436.98 639.53 434.72 635.42 433.68 630.98 433.74 626.25 430.85 622.29 431.05 617.53 430.19 613.04 427.25 609.1 426.77 604.51 426.7 599.82 426.19 595.25 424.76 590.91 423.32 586.58 422.46 582.09 421.46 577.65 418.54 573.7 416.93 569.42 416.53 564.82 415.41 560.29 415.6 555.62 417.48 551.42 419.12 547.16 419.07 542.47 421.97 538.52 423.29 534.17 423.35 529.51 424.45 525.11 425.08 520.6 425.97 516.15 427.79 511.93 427.73 507.24 430.16 503.17 431.19 498.76 430.79 493.99 432.63 489.77 433.09 485.21 434.63 480.92 436.96 476.82 437.15 472.19 438.48 467.85 438.48 463.17 440.12 458.9 441.22 454.5 441.84 449.96 442.81 445.44 445.95 441.85 447.56 437.75 449.58 433.81 450.45 429.44 452.11 425.36 454.71 421.64 455.78 417.34 455.56 412.53 458.67 409.02 459.54 404.63 462.4 401.02 463.82 396.84 465.8 392.88 466.49 388.42 467.24 383.99 470.26 380.44 470.56 375.83 473.81 372.36 475.2 368.22 476.28 363.87"/><g><path d="m630.82,670.16c-3.56.53-5.48,4.27-9.45,4.86,3.08-11.97,7.9-22.9,13.41-33.77-5.11,3.42-10.92,4.45-16.71,5.61-4.09.82-8.22.05-12.34.87-5.01.99-10.17-.01-15.31.7-6.1.85-11.93-1.62-17.55-3.64-2.56-.92-5.21-1.43-7.77-2.17-4.52-1.3-7.48-3.93-9.53-8-.67-1.33-.97-2.71-.02-3.68.89-.9,2.04-1.77,3.79-.89,2.34,1.18,4.82-.28,7.17-.57,2.95-.37,5.79.21,8.25,1.08,2.65.93,5.16.97,7.79,1.14,2.52.16,5.18-.46,7.47,1.25.29.22.94.2,1.32.04,4.32-1.87,8.41.18,12.6.62,1.6.17,3.31-.3,4.92-.72,2.72-.7,5.2-1.62,8.18-.17,1.44.7,3.83-.22,5.68-.78,5.15-1.57,10.5-1.65,15.77-2.28,2.46-.29,5.07-2.69,5.14-5.25.06-2.09-.27-4.27,1.44-5.91,1.48-1.42-.1-2.87.17-4.28.38-1.97,1.49-3.63,2.52-5.23,2.11-3.28,1.46-6.82,1.54-10.32.06-2.61,2.08-4.46,2.95-6.79.58-1.56.86-2.88.71-4.76-2.79,1.06-5.52,1.97-8.14,3.13-2.47,1.09-4.93,1.41-7.31.12-1.52-.83-3.18-.97-4.54-.53-4.24,1.37-8.29,1.75-12.56.01-1.15-.47-2.74-.15-4.22.39-2.85,1.04-6.46-1.74-7.52-5.35-.89-3.04.46-6.22,3.29-7.05,1.98-.58,4.11-.65,6.16-1.04,5.65-1.06,11.33.34,17.07-.27,3.3-.35,7.22-.08,10.75.88,2.78.76,5.03-1.29,7.64-1.48.32-.02.9-1.16.79-1.65-.74-3.4,1.36-5.9,2.78-8.48,1.81-3.3,5.2-3.05,6.73.34,1.42,3.15,2.68,6.38,3.87,9.62.33.9.29,2,.21,2.99-.39,5.28.67,7.27,5.2,9.66,1.38.73,2.17,2.08,2.95,3.33,1.18,1.87,2.51,1.97,3.64.08,1.06-1.77,2.25-3.5,3.05-5.38.89-2.1,2.13-3.58,4.1-4.85,1.48-.95,2.57-2.49,2.92-4.78.51-3.33,2.29-6.34,4.47-9.2,1.98-2.6,5.06-4.77,3.86-9.49-.65-2.56,2.38-5.92,3.35-9.05,1.27-4.05,4.2-7.86,1.78-12.56-.78-1.51.52-3.14,1.16-4.65.33-.8,1.12-1.91.85-2.38-2.34-4.03.55-8.89-2.33-13.09-.76-1.1-.35-4.48-.45-6.8-.15-3.37-.95-6.71-3.05-9.36-1.83-2.31-4.8-3.52-6.5-6.12-.49-.75-1.69-.59-2.49-.14-1.81,1.02-4.22,1.75-5.2,3.33-1.86,2.99-5.33,4.3-6.89,7.37-.82,1.61-.72,3.49-1.5,5.23-1.54,3.41-2.98,6.87-4.45,10.31-1.88,4.38-2.23,9.33-1.62,14.02.5,3.85-1.37,5.48-4.29,6.47-2.38.81-3.94,2.07-4.71,4.49-.25.78-1.15,1.33-1.7,2.03-1.04,1.32-2.6,1.44-4.04,1.86-.29-1.38-.93-2.64-1.01-4.12-.2-3.64-.15-7.22-1.6-10.84-1.4-3.5-.41-7.87.79-11.1,1.95-5.22,1.51-10.15.76-15.18-.74-5-2.16-9.9-3.24-14.85-.11-.52-.15-1.29.14-1.62,1.73-1.96,1.1-3.95.64-6.21-.89-4.46-2.37-9.03-1.56-13.53.8-4.48.72-8.73-.65-12.96-.99-3.05-.79-6.68-4.12-8.68-1.14-.69-1.07-1.44-.5-2.94.93-2.43,1.39-5.44.81-7.92-.49-2.1-1-3.87-.27-5.96.26-.73.07-1.64-.41-2.54-1.93-3.63-2.63-7.74-4.08-11.57-.7-1.87-.75-4.49-1.07-6.69-.66-4.43.06-9.13-2.18-13.29-.41-.76-.82-1.67-1.5-2.12-4.45-2.91-4.84-7.45-4.89-12.06-.03-2.35-.41-4.25-3.1-4.72-.47-.08-.96-.13-.96-.68,0-2.44-1.56-4.93-.61-7.22,1.42-3.41-.21-5.3-2.57-7.12-1.57-1.21-1-2.95-.83-4.38.21-1.79,0-2.78-1.97-3.18-1.75-.35-2.2-1.6-1.71-3.34.77-2.74-.37-4.81-2.88-5.81-1.22-.49-1.62-1.61-1.54-2.19.61-4.37-1.87-7.96-2.65-11.94-.25-1.28-1.12-1.82-1.63-2.48-2.22-2.9-2.65-6.02-2.75-9.56-.07-2.5-1.61-4.94-4.15-6.21-.61-.31-.96-.61-1.29-1.24-1.83-3.54-4.23-6.67-7.19-9.37-.31-.28-.71-.71-.7-1.07.04-4.46-3.01-7.63-5.05-11.07-1.91-3.22-3.1-6.8-4.88-10.04-1.68-3.06-5.05-5.11-5.53-8.84-.16-1.22-1.01-2.7.07-3.52,1.03-.79,2.45-.24,3.76.31,3.8,1.6,6.58,4.48,9.52,7.16,1.64,1.49,3.57,2.64,5.16,4.04,3.99,3.52,7.43,7.65,11.12,11.52,2.99,3.14,5.12,6.78,6.91,10.72.59,1.31,2.24,2.15,3.44,3.16,2.16,1.82,4.26,3.63,3.86,6.9-.18,1.49,1.23,2.05,2.02,2.91,3.13,3.42,4.86,7.71,7.29,11.55,2.98,4.72,5.91,9.59,7.96,14.76,1.56,3.95,4.88,6.79,5.77,11.16.7,3.41.55,6.97,1.89,10.3.55,1.36.97,2.81,2.07,3.67,1.17.91,1.17,2.06,1.34,3.23.08.54-.27,1.25-.03,1.63,3.59,5.78,2.82,12.52,4.3,18.74.72,3.04,3.03,5.68,4.07,8.81.94,2.82,2.4,5.48,4.68,7.52.61.55.61,1.18.55,1.83-.5,5,.73,10.02,1.74,14.64,1.53,7.04,1.51,14.06,2.5,21.03.78,5.5,2.15,10.89,1.86,16.5-.05,1.06,1.17,1.35,1.32,2.23.43,2.61,1.9,4.9.88,7.93-.83,2.47.82,5.4-.1,8.28,1.99-1.57,5.38-.48,5.89-4.52.22-1.74,3.89-2.57,5.9-1.45,1.38.77,2.7.88,3.73.56,3.81-1.19,7.37.17,11,.68,3.89.55,6.51,3.15,8.54,6.25.87,1.32,2.11,2.47,3.28,2.47,1.43,0,1.47-1.79,1.53-3.1.04-.89.88-1.25,1.39-1.82.52-.59,1.52-1.07,1.59-1.69.84-6.72,8.44-8.17,10.74-13.8.31-.76,2.89-.42,3.48-1.26,2.64-3.75,7.32-4.28,10.63-7.22,3.8-3.38,9.15-4.86,14.34-6.28,5.22-1.43,10.53-.08,15.67-1.72,2.11-.67,4.64-.42,6.47,1.61,1.46,1.61,3.69,1.28,5.55,1.56,2.51.37,4.49,1.29,5.99,3.25,2.27,2.97,5.43,5.13,8.66,6.36,4.02,1.53,4.25,5.18,6.07,7.9,1.73,2.58,3.11,5.26,5.46,7.52,1.81,1.73,2.81,4.44,3.47,7.12.52,2.1,1.55,4.09,1.47,6.31-.19,5,3.3,9.34,2.96,14.1-.25,3.53.26,7.07-.35,10.56-.12.66-.36,1.57-.05,1.98,2.58,3.36,1.34,7.65,2.86,11.28.91,2.18-.92,4.61.45,6.93,2.52,4.29-.46,8.19-1.1,12.25-.23,1.43-.42,2.78-.4,4.29.05,3.2.27,6.42-.17,9.72-.35,2.63,0,5.84.52,8.73.11.62.68,1.61.23,1.8-4.18,1.72-2.4,6-3.44,8.89-.99,2.74-3.01,6.51.07,9.97.64.72-.71,3.34-.74,5.16-.09,5.75-3.02,10.96-3.17,16.74-.03,1.22-1.15,2.52-1.23,3.98-.1,1.62-1.35,3.27.53,4.84.51.42.3,1.87-.17,2.86-1.67,3.58-2.56,7.13-2.86,11.29-.3,4.1,1.18,8.16-.08,12.27-.54,1.78-.5,3.69-2.04,5.02-.66.57-.89,1.25-.8,2.08.33,2.85,1.06,5.62.74,8.58-.38,3.57-.79,7.1-1.55,10.61-.87,4.04-2.49,7.93-2.72,12.18,2.1.25,1.86-2.51,3.4-2.22,1.35.26,2.58,1.14,3.91,1.59,1.31.44,2.26-.22,3.26-1.13,2.9-2.63,5.8-2.82,9.29-1.15,1.33.64,2.83,1.57,4.36-.16.75-.85,2.29-1.36,3.4-.79,3.58,1.83,7.4.41,11.03,1.05,5.67,1,11.39,1.89,16.93,3.4,2.4.66,4.33,3.2,6.95,3.44,5.08.48,8.65,4.2,13.26,5.64,2.36.74,4.57,1.96,6.45,3.79,3.45,3.34,7.7,5.68,11.45,8.68,4.13,3.31,3.98,11.8,1.99,15.23-.68,1.17-1.09,2.38-1.49,3.58-1.52,4.58-4.15,7.71-9.36,7.91-.47.02-1.07.44-1.35.85-1.69,2.56-3.61,4.64-7.05,4.49-.37-.02-.93.66-1.12,1.13-.27.67.42.82.89,1.13,2.4,1.58,5.15,2.27,7.82,3.17,5.54,1.86,11.11,3.65,16.61,5.64.76.28,1.14,1.53,1.78,2.25,2.57,2.85,6.44,4.09,8.96,6.93,2.06,2.33,5.65,3.21,6.88,5.77,3.14,6.53,9.53,11.39,9.81,19.42.11,3,3.29,5.25,2.65,8.63-.51,2.68-.53,5.53-1.53,8-.55,1.36-2.27,2.56-3.44,3.65-2.64,2.48-3.84,6.48-7.8,7.61-1.86.53-1.29,3.13-3.52,3.93-5.03,1.8-10.15,1.46-15.1.8-3.13-.42-6.39-1.43-9.53-1.95-2.83-.47-4.51-2.11-6.33-3.65-.88-.75-1.65-1.01-2.52-1.49-.69,1.58.71,1.94,1.12,2.75,1.91,3.8,5.06,7.05,4.55,11.82-.61,5.68,2.93,11.18.26,17.11-1.72,3.83-8.26,11.4-12.13,10.72-5.26-.93-11.59.66-15.51-5.11-1.6-2.36-4.94-1.87-7.44-2.54-1.46-.39-1.83,2.07-1.51,3.53,1.25,5.56.92,10.65-3.44,14.94-.9.88-1.43,2.18-1.97,3.36-2.5,5.45-6.26,9.34-12.42,10.45-.74.13-1.46.47-1.9,1.22-.68,1.19-2.03,1.81-3.08,1.37-2.64-1.1-5.51-.73-8.09-1.57-1.11-.36-1.83-1.05-3.14-.44-1.99.93-2.75-1.44-3.44-2.24-1.41-1.63-3.57-2.37-4.65-3.9-2.45-3.45-5.78-5.67-9.05-8.07-.39-.29-.53-.94-.76-1.43-.61-1.35-1.25-2.59-3.06-2.58-1.78,0-1.34,1.75-2.12,2.49-1.56,1.47-2.19,3.9-4.74,4.4-.66.13-1.52.9-1.69,1.54-1.73,6.28-7.63,8.53-11.85,12.36-6.26,5.69-13.35,9.84-21.46,12.63-2.73.94-5.74,2.54-8.36,4.57-1.87,1.45-5.17,1.76-7.85,2.47-2.73.72-5.61.95-8.37,1.76-1.49.44-3.04.76-4.58,0-.38-.18-.99-.42-1.24-.26-5.05,3.46-10.41.81-14.92-.47-5.19-1.47-10.16-1.36-15.27-1.58-.98-.04-.92-.83-1.25-1.3-2.58-3.65-6.45-4.41-10.52-4.82-2.35-.24-3.29-2.18-3.93-3.99-.36-1.02-.95-1.73-1.4-2.56-2.06-3.77-4.66-2.28-6.89-.81-5.81,3.83-12.4,5.49-18.94,7.37-.1.03-.26-.04-.33.02-3.93,3.14-8.94,3.56-13.42,5.34-.4.16-.77.73-1.08.68-4.44-.67-7.36,3.16-11.3,3.76-2.75.42-5.6.24-8.41.35-5.27.21-10.13,2.21-15.14,3.52-.73.19-1.5.94-2.12.31-3.28-3.33-6.65-1-10.08-.41-6.13,1.06-12.13,2.94-18.47,2.69-4.64-.18-8.97,1.79-13.52,2.33-2.46.29-4.91.67-7.32,1.6-2.67,1.03-5.47-.29-8.15-.84-2.45-.5-4.78-.56-7.21.01-1.39.33-3.19.73-4.27.13-2.59-1.44-4.18.1-6.33.96-2.48.99-5.39.36-7.62-1.23-.76-.55-1.31-.96-2.22-.97-7.06-.03-14.14-.82-21.16.5-.73.14-1.27-.03-1.73-.64-1.3-1.71-3.12-1.49-4.9-1.2-4.98.82-9.58-.4-13.84-2.8-1.21-.68-2,.11-2.94-.03-4.97-.72-9.86-1.4-14.91-.11-2.21.56-4.93,1.21-6.44-2.35-.54-1.28-3.61-1.75-5.61-2.09-2.13-.36-4.05-.24-6.17-1.71-1.92-1.34-5.14-.58-7.78-.96-2.95-.43-5.34-2.06-8.03-2.98-1.29-.44-2.93-1.22-3.87-1.02-3.45.73-5.47-1.11-7.86-2.97-1.43-1.11-3.92-.89-5.31-2.02-4.69-3.83-10.62-4.03-15.91-6.05-2.26-.86-3.72.13-5.03,1.46-3.68,3.73-8.05,6.18-12.89,8.15-5.59,2.27-11.51,3.54-16.99,6.19-2.33,1.13-5.3,3.02-8.46.68-.95-.71-2.83-.16-4.28-.2-2.02-.04-4.07.25-5.61-1.71-.38-.48-1.71-.36-2.58-.29-2.93.23-6.12.18-8.47-1.14-3.53-1.98-7.11-4.16-10.6-6.09-3.93-2.17-6.04-6.24-10.23-7.86-1.76-.68-3-2.72-5.35-1.55-.35.17-.89-.45-1.05-1.07-1.19-4.63-4.56-7.55-8.07-10.42-1.45-1.18-1.88-3.15-2.71-4.81-.81-1.61-1.69-2.39-2.91-.24-.9,1.58-1.78,3.51-2.82,4.63-3.06,3.27-5.52,7.22-9.51,9.58-1.1.65-1.95,1.54-2.83,2.55-4.69,5.36-10.32,8.82-17.92,6.97-.32-.08-.72-.14-1-.01-6.19,2.75-10.84-1.8-15.98-3.6-1.49-.52-2.71-2.93-3.19-5-.17-.75-.28-1.55-.62-2.23-1.67-3.39-2.11-3.29-4.47-.49-3.39,4.02-5.67,9.1-10.91,11.41-1.57.69-1.3,2.99-2.83,3.94-2.28,1.42-4.65,2.3-7.42,2.09-1.52-.11-3.29-.64-4.23,1.48-.41.92-1.73.69-2.49.45-2.91-.94-5.76-2.05-8.62-3.14-5.66-2.16-8.06-7.92-12.49-11.45-.62-.49-.76-1.81-.8-2.75-.1-2.22-.76-3.91-2.2-5.82-1.75-2.31-1.23-5.67-1.52-8.64-.31-3.14,2.24-5.43,1.72-8.54-.27-1.65-.64-1.71-2.1-1.25-5.61,1.76-11.33,1.35-16.46-1.13-2.81-1.36-7.11-2.76-5.89-7.77.19-.78-.46-1.64-.86-2.45-.87-1.75-.81-3.56-.38-5.55.6-2.77.8-5.68.79-8.52-.02-4.4,1.31-8.52,2.02-12.76.75-4.47,4.28-7.97,3.7-12.8-.33-2.74.95-5.25,2.65-7.45.4-.52.83-.95.94-1.71.5-3.59,1.23-6.97,3.91-9.9,1.14-1.25,1.05-3.73,1.98-5.63,3.01-6.14,5.84-12.53,9.45-18.17,2.27-3.55,3.54-8.52,8.04-10.65,1.09-.52,2.03-1.37,2.73-2.63-4.11-.43-7.93-1.54-11.62.13-3.53,1.59-11.02.21-13.91-2.16-2.16-1.76-5.2-2.3-7.86-2.51-2.75-.21-2.67-2-2.79-3.45-.29-3.48-.13-6.96-1.06-10.42-.39-1.45.36-3.16.25-4.73-.17-2.61,1.91-2.55,3.41-3.09,1.56-.56,1.58-1.87,1.52-3.02-.18-3.22,1.01-5.38,4.34-5.72,2.67-.27,4.31-1.86,5.57-3.88,3.65-5.84,8.66-9.96,15-12.54,1.9-.77,3.63-2.24,5.02-3.42,2.78-2.36,6.33-2.59,9.07-4.61.17-.13.33-.42.47-.41,5.67.71,9.31-3.96,14.25-5.38,8.7-2.51,17.37-4.71,26.46-5.12,5.62-.26,10.51,2.58,15.88,3.27,4.91.63,9.46,2.25,13.46,5.3.52.4,1.66.48,2.25.18,1.24-.64-.09-1.25-.31-1.84-.98-2.64-.06-5.74-1.98-8.17-.19-.23-.06-.98.19-1.25,3.6-3.93,2.62-7.85.62-12.21-.63-1.38-.89-3.63-.2-5.63.99-2.87.52-5.84.32-8.87-.36-5.28-.02-10.62.26-15.94.25-4.77.46-9.42,2.83-13.72.33-.6.29-1.7-.05-2.31-2.94-5.29-.3-10.46.2-15.67.04-.43.14-1.07-.08-1.27-3.92-3.47-1.81-7.96-.41-10.94,1.43-3.05.75-6.43,2.76-9.25,1.18-1.66-.7-4.13-.21-6.08.68-2.71.67-5.59,2.48-8.1,1.77-2.46,1.43-6.04,2.9-8.52,2.53-4.28,1.06-8.86,2.14-13.08.51-1.98,0-5.34,3.44-5.92.09-.01.21-.16.22-.25.23-4.11,2.85-7.33,4.1-11.03,1.2-3.56,1.9-7.25,5.2-9.62.81-.58,1.02-1.36.99-2.33-.09-3.13,1.55-4.76,4.13-6.66,2.85-2.09,4.24-6.03,4.57-9.81.16-1.75.33-3.05,2.05-4.02,3.98-2.25,6.76-5.89,9.92-9.07,4.74-4.75,11.05-5.47,17-7.5,6.76-2.3,12.87.7,19.29.48,1.67-.06,3.71.18,5.56.53,4.49.85,8.07,3.51,11.9,5.69,4.67,2.64,9.32,5.31,13.99,7.94,3.98,2.25,7.1,5.63,10.88,8.15,3.14,2.09,5.63,4.92,8.36,7.48,2.51,2.34,5.81,3.82,7.92,6.72.48.65,1.67.6,1.76.3.39-1.26.59-2.61.65-3.93.04-.98-.03-2.07-.44-2.92-.49-1.01-.13-1.45.64-1.76,3.95-1.61,4.94-5.01,5.26-8.74.41-4.83.68-9.67,1.01-14.51.04-.55-.02-1.2.24-1.63,2.48-4.07,2.38-7.82,3.58-13.07.62-2.74-.2-5.56.64-7.44,1.76-3.89,3.86-7.83,5.29-11.76,1.27-3.47,3.97-6.54,3.36-11.04-.44-3.24-.72-7.66,4-9.61,2.01-.83,2.95-3.38,2.36-5.37-.62-2.11.16-3,1.47-4.2,1.76-1.62,2.31-4.07,2.56-6.2.24-2,.95-3.52,2.27-4.66,2.18-1.89,3.5-4.8,3.59-6.96.19-4.48,4.03-6.68,5.06-10.48.35-1.3,1.48-2.47,1.77-3.99.9-4.67,3.89-7.78,7.58-10.55,1.1-.83,1.15-2.86,1.45-4.47.54-2.87,3.25-4.81,5.23-6.25,3.38-2.46,4.56-6.23,7.21-8.99,2.93-3.04,5.41-6.6,9.02-8.84,3.4-2.1,5.87-5.1,8.74-7.59,3.38-2.93,6.06-6.74,10.3-8.95,4.48-2.34,8.81-5.1,13.13-7.8,1.47-.92,2.94-1.48,5.23-2.11-3.28,3.47-6.65,6.1-8.77,9.49-3.12,4.99-7.87,8.49-11.06,13.51-1.73,2.72-2.82,6.56-6.28,8.24-.39.19-.19,1.03.2,1.5-2.56,1.01-5.01,2.12-4.72,5.56-1.8,2.01-3.7,3.93-4.14,6.81-.11.69-.62,1.62-1.2,1.89-1.89.88-2.44,2.51-3.31,4.21-.98,1.92-1.61,4.27-4.01,5.33-1.8.79-1.5,2.77-1.71,4.35-.58,4.5-3.87,7.56-5.92,11.28-1.91,3.48-3.8,6.75-3.31,11.17.29,2.61-3.08,4.24-4.79,7.82,6.19-4.72,11.3-.51,16.6.22,2.55.35,4.9,2.81,5.82,5.21,1.99,5.21,3.94,10.62,4.57,16.1.29,2.51,1.36,5.31.34,8.31-.42,1.23.76,3.85.76,5.91,0,3.13-1.15,6.8.1,9.28,3.26,6.45.66,12.87,1.14,19.24.24,3.19.68,6.38-.93,9.4-.29.56-.4,1.27-.41,1.91-.03,1.62-.53,4.02.97,4.51,1.47.49,1.57-2,2.24-3.17,1.67-2.93,4.03-5.39,5.43-8.55,1.01-2.29,3.93-2.53,5.85-3.96,5.84-4.33,10.71-4.08,16.25.52.3.25.54.89,1.08.53.88-.6,1.03-1.64.93-2.53-.67-5.9.95-11.74.41-17.63-.03-.33-.05-.74.12-.99,3.2-4.9,1.93-10.31,2.19-15.64.17-3.42.06-6.87.39-10.29.03-.34-.05-.91.09-.97,3.96-1.64,3.08-6.19,5.34-8.77.9-1.03.3-2.05.36-2.83.5-5.76,4.86-10.42,4.54-16.35-.02-.27.25-.72.5-.83,3.31-1.43,4.01-4.57,5.08-7.51.37-1.01,1.54-2,1.42-2.87-.7-5.11,3.39-7.6,5.71-11.05.12-.18.46-.33.45-.47-.38-4.61,3.81-6.41,6.12-9.11,2.14-2.49,5.61-4.04,8.75-5.39,1.91-.82,2.72-2.66,4.86-3.41,4.58-1.59,8.52-1.58,12.87.66,3.23,1.66,6.84,2.52,10,4.55,2.21,1.42,4.27,2.64,4.23,5.58-.01.95.48,1.56,1.11,1.94,2.71,1.6,4.43,3.49,4.61,7.03.11,2.17,2.79,3.82,2.48,6.57-.38,3.29.86,6.15,2.4,9.06,1.01,1.91-1.46,3.93-.91,6.4.64,2.89.17,5.94,2.44,8.48,2.09,2.34.49,5.44-.2,7.54-.96,2.91-.22,5.62-.49,8.35-.55,5.61,1.53,11.45-.89,16.92-.86,1.93.21,3.63.56,4.72,1.68,5.26-1.65,9.61-1.96,14.45-.17,2.6.17,4.95.7,7.31.58,2.6-.94,5.05-.21,7.56.87,3.01-1.96,5.89-.25,8.93.13.23.06.8-.13.97-3.28,2.96-2.06,6.72-2.02,10.32,0,.91-1.38,1.76-1.62,2.76-.67,2.85-1.25,5.59-.05,8.68.88,2.29,2.13,4.89.12,7.85-1.18,1.73-.89,4.7-.69,7.06.39,4.69-2.2,9.21-.61,13.89.19.55.02.75-.18,1.06-2.12,3.25-2.47,7.13-3.84,10.66-1.05,2.69-1.36,5.65-1.04,8.62.65,6.05-2.15,11.23-4.59,16.39-3.92,8.27-11.96,12.18-19.07,16.96-2.37,1.59-5.41,1.29-7.86-.41-2.52-1.75-5.21-3.12-7.98-4.37-.49-.22-1.28-.47-1.36-.82-.64-3.13-3.44-4.59-5.07-6.93-2.65-3.81-6.68-6.4-9.25-9.98-3.13-4.38-8.03-7.69-8.03-14.5,0-5.09-3.48-9.91-6.12-14.53-.27-.47-1.01-.96-.93-1.3,1.31-5.86-3.9-9.99-4.01-15.37-.04-1.93.16-3.73-.72-5.55-.34-.7-.24-2.33.17-2.54,3.52-1.8,1.22-4.6.85-6.57-.6-3.18-.91-6.06.28-9.18.63-1.65-.37-3.57-.47-5.4-.09-1.79-.43-3.5.56-5.06.62-.98.13-1.68-.55-1.64-1.62.11-2.75-.84-3.97-1.5-3.54-1.92-5.79.76-7.78,2.57-3.34,3.01-6.09,6.68-6.05,11.58.01,1.21-.29,2.35-.98,3.13-5.05,5.75-4.24,13.2-5.65,19.92-1.04,4.96-1.76,10.25-.12,15.39.32,1.01-.6,1.61-.76,2.49-.83,4.5.28,8.87.73,13.29.36,3.52-.17,7.06.66,10.62.84,3.64-.13,8.1,1.65,10.99,1.77,2.85,2.07,5.9,3.37,8.71.97,2.09,2.92,3.85,1.4,6.91-.71,1.43.66,4.14,1.55,6.05.76,1.63.42,4.49,3.7,4.15.82-.08,1.66,1.08,1.69,1.91.19,4.47,3.88,6.09,6.78,8.12,2.74,1.92,5.95,3.15,8.97,4.68.82.41,1.65.78,2.48,1.17-1.21,1.36.36,3.45-1.19,4.68-2.17,1.72-4.29,3.54-7.1,4.16-1.62-.21-3.06.08-4.08,1.52-2.48.29-4.7.18-7.27-.8-3.99-1.52-7.29-3.32-9.54-7.01-.64-1.04-2.19-.19-3.47-1.23-2.92-2.38-2.6-5.98-4.3-8.73-.55-.9-.97-1.8-1.69-2.65-1.53-1.82-3.05-3.46-3.48-6.28-.86-5.6-3.21-10.87-2.15-16.88.45-2.55-1.25-5.52-2.23-8.11-.59-1.57-.44-2.8-.46-4.46-2.5.92-3.1,3.48-4.02,5.19-1.96,3.68-5.37,5.07-8.66,6.03-4.46,1.3-9.75,1.27-13.32-1.57-2.13-1.69-4.91-4.08-5.87-7-1.04-3.18-2.87-6.06-4.49-8.67-2.26-3.64-3.95-7.07-5.08-11.25-.92-3.4-3.22-6.72-4.71-10.08-1.38-3.13-1.31-6.93-1.62-10.47-.06-.63-.02-1.2-.35-1.76-.45-.78.57-2.81-1.41-2.2-1.14.35-1.62,1.66-1.13,3.24,1.53,4.99,2.43,10,.21,15.13-.65,1.51-1.11,3.4.33,4.98,1.12,1.22-1.21,1.37-.77,2.41,1.26,2.97-.29,6.4,1.05,9.14,1.05,2.16.88,4.21.1,5.78-.99,1.99-.76,3.69-.45,5.59,0,0-.06.11-.06.11l.13-.03c.94.74.57,1.68.4,2.58-.46.6-1.4.94-1.1,1.97,1.32.92.64,2.27.75,3.44-.28.65-.33,1.3.02,1.94.7,1.6,1.28,3,.13,4.89-.73,1.2-1.04,3.23.47,4.61,1.72,1.58,1.83,3.57,2,5.77.42,5.2.48,10.65,2.22,15.44,1.53,4.23,2.74,8.73,5.14,12.67,1.33,2.17,1.06,4.67,1.03,7.07-.05,4.11,2.12,7.33,4.47,10.28,2.84,3.57,2.79,8.12,4.66,12.01.72,1.49,1.78,2.48,2.67,3.66,1.55,2.07,1.48,4.67,2.75,6.84,2.06,3.53,5.89,5.57,7.72,9.07,1.86,3.55,5.78,5.23,6.98,9.68.79,2.93,3.69,6.17,7.46,7.54,2.56.94,4.78,2.35,5.89,5.33.71,1.89,2.36,3.28,4.79,4.07,2.32.76,3.94,3.4,6.11,4.87,4.89,3.32,9.7,6.77,15.51,8.49,2.23.66,4.16,2.25,6.3,3.27,5.91,2.83,12.32,4.18,18.54,6.06,2.44.74,4.41,1.66,4.02,4.71-3.07,3-10.43,4.47-14.17,2.86-.7-.3-1.56-.77-2.2-.61-6.4,1.62-11.92-.59-17.44-3.49-5.4-2.84-11.68-3.78-16.68-7.55-.67-.5-1.37-.6-2.18-.65-1.35-.09-2.55-.65-3.58-1.58-2.94-2.64-6.03-5.08-9.81-6.41-.94-.33-1.59-.65-1.84-1.66-.65-2.54-2.43-2.97-4.69-2.38,0-.08,0-.16,0-.24l.05.2c.7.86,1.71,1.44,2.1,2.58,2.08,6.11,6.03,11.2,9.59,16.41,3,4.39,4.88,9.57,9.25,13.08,1.41,1.13,2.39,2.36,4.41,2.59,2.58.3,5.68,4.03,5.74,6.7.03,1.51.88,1.81,1.93,2.26,3.32,1.44,6.89,2.52,9.86,4.5,6.19,4.13,13.61,5.1,20.09,8.42.63.32,1.57.3,2.3.14,3.41-.78,6.83-1.27,10.35-1.34,7.4-.15,14.22-2.87,21.14-5.08,3.39-1.08,6.83-2.03,10.22-3.14,1.88-.62,3.92-1.94,4.22-3.61.47-2.69,2.32-3.06,4.14-3.73.73-.27,1.8-.2,2.01-.99,1.02-3.82,3.97-5.27,7.32-6.44.94-.33,1.46-1.81,2.01-2.21,3.63-2.63,2.53-9.08,8.15-9.95.15-.02.4-.34.38-.48-.63-3,2.01-4.07,3.35-5.98,2.61-3.73,5.01-7.59,8.29-10.8.47-.46,1.01-.99,1.22-1.58,2.15-6.08,7.47-9.88,10.84-15.07.33-.51,1.48-1.01,1.9-.8.52.26.47,1.19.43,2.02-.11,2.61-1.16,4.96-1.69,7.45-1.66,7.93-6.08,15.1-6.58,23.38-.04.61-.41,1.4-.89,1.75-2.31,1.72-3.25,4.11-3.84,6.81-.75,3.45-4.18,5.11-5.64,8.07-2.56,5.21-6.07,9.83-9.05,14.76-1.51,2.49-4.08,4.27-6.58,5.35-2.76,1.2-4.27,3.55-6.53,5.16-2.55,1.82-3.24,4.38-1.47,7.31.29.49.17,1.38-.03,1.99-.76,2.33-.49,4.54.52,6.72.22.48.48,1.18.29,1.57-2.04,4.23.96,8.39.05,12.68-.62,2.91,1.91,5.69,1.82,8.49-.26,8.12.33,16.08,2.58,23.9.12.41.39.95.23,1.23-1.98,3.61-1.88,7.73-2.71,11.59-.69,3.23-3.47,5.25-4.02,8.17-1.69,8.96-8.48,12.91-15.41,17.07-2.88,1.73-5.88.77-8.74,1.56-2.74.76-5.23,2.13-8.54,1.3-1.93-.49-3.69-.26-4.77-2.29-.44-.83-1.45-.96-2.07-.52-1.17.81-2.07.22-3.14-.11-3.48-1.09-6.87-2.19-10.58-.24-1.13.59-1.75,1.58-2.82,2.08-5.88,2.79-12,4.87-18.39,6.13-.74.15-1.75.81-2.46-.22-2.54-3.71-6.38-2.45-9.58-2.01-5.08.7-8.29-.24-11.27-4.34-.57-.78-.72-2.18-2.27-2.14-2.04.06-2.62-1.74-3.53-3.06-2.64-3.85-3.84-8.5-6.75-12.2-.45-.58-.2-.99-.01-1.5.73-1.91.5-3.96.84-5.9.41-2.32.07-5.07,2.08-6.83,3.51-3.07,3.9-7.83,4.41-11.53.43-3.08,2.65-6.42,1.07-9.93-.21-.46.28-2.3,1.54-3.1,2.26-1.44,2.41-4.26,3.69-6.37,1.85-3.05-1.11-7.98,3.74-10.07.27-.12.31-1.06.25-1.59-.12-1.18.34-2.17.78-3.2,1.4-3.33,5.31-5.82,3.3-10.3-.47-1.05,1.03-1.28,1.49-1.97.99-1.48,2.2-2.63-.32-4.33-1.84-1.24-3.73-1.72-5.67-2.19-1.23-.3-1.78-.63-2.38-1.82-.79-1.55-1.24-3.34-3.75-3.96-1.86-.46-4.11-1.76-5.08-4.35-.79-2.11-2.31-4.28-4.11-5.6-3.75-2.76-7.67-5.03-8.8-10.15-.42-1.9-1.71-3.88-4.11-4.44-.34-.08-.72-.59-.82-.97-1.37-5.23-5.6-9.49-4.97-15.45.16-1.52-.45-3.67-1.51-4.67-3.7-3.51-3.92-8.43-5.04-12.71-1.37-5.25-1.4-10.92-.81-16.48.32-3,.49-7.07-1.56-8.52-4.29-3.05-6.86-6.62-7.8-11.62-.03-.19-.29-.33-.45-.49-3.19-3.07-4.52-7.4-6.88-11-2.57-3.91-4.22-8.74-6.26-13.17-.63-1.37-1.22-2.48-2.53-3.37-2.26-1.52-.87-4.59-2.22-6.36-1.79-2.34-2.31-5.03-2.75-7.67-.88-5.32-2.08-10.46-5.67-14.65-3.03-3.53-1.41-8.42-3.76-12.12-.11-.18.3-.81.6-1.11,1.59-1.63,1.33-3.25.49-5.23-1.7-4.04-2-8.59-1.63-12.7.41-4.62-.52-9.32.8-13.87.24-.83-.3-1.62-.9-2.04-2.86-2.02-2.45-4.82-1.8-7.56,1.05-4.45,1.73-9.25.7-13.4-1.34-5.38.31-10.61-.74-15.92-.38-1.95-1-2.91-2.26-3.77-2.43-1.66-4.96-3-7.19-5.14-2.4-2.3-4.83-4.91-7.75-6.58-4.63-2.65-8.33-6.48-12.83-9.28-3.72-2.31-6.89-5.41-10.73-7.62-4.8-2.75-9.55-5.51-15.23-6.04-.76-.07-1.74-.27-2.18-.78-2.85-3.32-6.62-1.45-9.97-1.99-5.62-.91-9.8,2.96-14.76,4.17-1.95.48-3.23,1.91-3.71,3.57-.64,2.22-2.32,3.42-3.93,4.3-2.16,1.18-2.31,3.19-3.03,4.96-1.34,3.29-2.93,6.6-3.53,10.06-.65,3.76-7.67,5.31-3.55,10.54.03.04-.08.21-.14.29-2.39,3.05-2.78,7.2-5.64,10.05-2.32,2.32-2.58,5.69-2.79,8.64-.25,3.48.13,6.9-2.76,9.54-.87.79-1.05,2.21-.52,2.8,2.68,2.97.45,5.74-.22,8.48-.69,2.77-1.44,5.56-2.22,8.3-.81,2.87,1.73,5.66,2.3,8.65.14.73.76,1.28.02,2.01-3.72,3.68-2.27,8.73-3.25,13.11-.68,3.06.69,6.42-.57,9.62-.59,1.49-.14,2.97.39,4.55.99,2.97,2.65,6.06.5,9.24-.69,1.02-1.46,1.99-2.24,2.94-.68.82-1.15,1.56-.51,2.7,1.02,1.81.74,3.91,1.11,5.86.47,2.45.8,5.09,2.4,7.06.93,1.14.96,1.66.31,2.93-2.34,4.59-4.65,8.89-2.24,14.7,1.52,3.65,2.44,8.3.38,12.62-1.39,2.9-1.63,5.71.32,8.82,2.81,4.48-1.11,9.84,1.2,14.58.08.17-.46.59-.43.86.11,1.04-2.19,1.49-.71,2.78.92.8,2.01,2.09,2.97,2.05,3.71-.14,5.69,2.29,7.79,4.6,3.76,4.15,8.02,7.38,13.38,9.39,2.77,1.03,6.31,2.37,7.35,5.28,2.22,6.16,5.94,11.03,10.58,15.44,1.98,1.88,2.66,4.89,3.34,7.2.84,2.84.59,6.03,2.74,8.52.42.49.6,1.12.26,1.53-2.26,2.7-.71,5.86-1.12,8.77-.2,1.42.02,2.85-.62,4.28-1.27,2.84-2.15,5.76-2.17,8.98-.02,2.53-.29,5.26-1.3,7.52-1.49,3.33-1.86,6.95-3.32,10.27-1.06,2.42-1.36,5.08-3.92,6.71-1.48.94-2.2,2.49-2.54,4.47-.43,2.47-1.34,4.97-4.46,6-1.17.38-3.03.25-3.58,1.38-1.8,3.62-5.13,5.44-8.18,7.62-.66.47-1.03,1-.65,1.99.95,2.49-.72,4.22-2.05,5.99-.59.79-1.52,1.29-1.75,2.4-.85,4.1-2,7.92-6.41,9.89-1.05.47-3.11,2.09-1.39,3.91,2.96,3.14,6.18,6.03,10.02,8.12.97.53,2.5.82,2.83,1.61,1.81,4.35,6.11,5.08,9.63,6.55,6.58,2.75,13.29,5.19,19.65,8.44.91.46,1.86.56,2.58.25,1.45-.62,2.52-.13,3.71.55,4.02,2.32,8.23,1.79,12.23.23,4.9-1.91,8.95-5.7,14.36-6.56.82-.13,1.44-.86,1.58-1.63.83-4.45,4.61-6.45,7.53-9.13,2.35-2.16,6.13-3.59,7.15-6.18,1.61-4.08,3.87-7.35,6.76-10.42.26-.27.41-.88.29-1.22-1.24-3.74,1.09-6.45,3.08-8.87,2.91-3.53,5.5-7.09,5.3-11.81-.11-2.7.86-5,1.61-7.43.13-.41.37-1.02.19-1.27-2.34-3.22.38-5.36,1.84-7.51.87-1.28.96-2,.23-3.22-1.93-3.22-3.05-6.03-1.69-10.42,2.06-6.64-.61-13.74-1.45-20.56-.74-6.07-1.87-11.78-.42-17.99.6-2.58,1.6-6.57-1.88-8.97-1.72-1.19-1.54-3.01-.64-4.5.64-1.07.71-1.99.65-3.14-.25-4.55-1.47-9.05-.67-13.67.18-1.06-.88-1.99-1.25-2.97-1.93-5.04-3.63-10.17-5.33-15.29-.23-.7-.12-1.56-.04-2.33.36-3.62.01-7.16-.67-10.73-.35-1.8-2.64-1.95-2.57-4.04.12-3.52-3.48-6.52-1.59-10.4.21-.43-.09-.95-.66-1.35-2.57-1.84-4.48-7.5-3.29-10.24.77-1.76.58-2.57-1.29-3.29-1.25-.49-1.41-1.74-1.76-3.25-.97-4.19,1.84-9.32-2.85-12.64-.31-.22-.35-1.12-.21-1.61,1.25-4.35-.23-8.59-.77-12.78-.69-5.33-.6-10.36,1.63-15.29.84-1.84,1.56-2.32,2.82-.26,2.86,4.67,6.11,9.05,8.24,14.21.9,2.18.79,4.53,2.16,6.65,2.05,3.18,4.72,6.07,5.53,10.02.85,4.19,3.76,7.43,5.51,11.21,1.12,2.41,2,4.82,4.41,6.3.38.24.76,1.06.64,1.45-1.08,3.37.56,5.6,2.8,7.83.95.95,1.31,2.5,1.51,4.02.69,5.09,2.21,10.04,2.44,15.22.04.82.59,1.7,1.09,2.41,2.07,2.94,2.98,6.15,3.28,9.76.29,3.51-.29,7.18,2.39,10.41,2.37,2.87,3.28,6.97,3.56,10.43.25,3.18,1.16,6.28,1.41,9.46.22,2.86-1.07,6.75,2.54,8.93.46.28-.29,1.23-.34,1.83-.46,5.26-1.51,10.64,1.18,15.58.67,1.22.27,2.09-.15,2.69-2.14,3.07-1.06,6.25-.65,9.44.36,2.87,1.11,5.83.77,8.63-.77,6.18-2.21,12.28-1.3,18.59.09.63-.2,1.31-.32,1.97-1.49,8.44-4.65,16.75-2.06,25.53.17.58-.06,1.35-.3,1.96-2.08,5.15-4.93,10.06-4.9,15.87,0,.71-.64,1.12-1.03,1.66-1.96,2.71-5.48,4.5-5.11,8.63.04.39-.56.96-.98,1.26-3.41,2.44-4.26,6.5-6.64,9.62,4.07,1.63,7.66,3.48,11.47,4.5,4.92,1.31,9.32,4.19,14.87,3.81,4.51-.31,8.55,4.16,13.57,2.23.34-.13.99.04,1.27.3,4.03,3.98,9.77,2.48,14.47,4.45,1.67.7,4.24,1.94,6.19-.35.17-.2,1.1.06,1.53.33,4.23,2.61,9.51,1.68,13.79,4.14.38.22,1.16.11,1.57-.14,3.17-1.96,6.8-1,10.18-1.65,1.23-.24,2.23.36,3.06,1.58,1.51,2.23,7.2,4.25,9.46,3,6.1-3.37,12.89-.67,19.11-2.54.49-.15,1.29.33,1.81.7,2.96,2.15,6.02,2.36,9.42,1.03,1.71-.67,3.81-1.32,5.48-.92,3.94.95,7.42.11,10.8-1.66.98-.51,2.24-1,2.84-.49,2.21,1.88,4.13.81,5.91-.37,2.11-1.41,3.24,1.63,4.92.9,2.77-1.18,5.46-.98,8.37-.67,2.7.29,5.54-.8,8.25-.55,4.38.4,8.42-.18,12.33-2.16.76-.38,2.14-.76,2.56-.38,1.93,1.74,3.89.82,5.47-.06,2.56-1.43,5.1-.75,7.61-.47,1,.11,1.74-.05,2.5-.42,3.68-1.81,7.8-2.03,11.63-2.03,6.02,0,11.4-2.4,16.85-3.95,4.45-1.27,9.47-.51,13.5-3.42.49-.35,1.56-.09,2.29.12.96.27,2.06,1.04,2.71-.05.52-.87.4-1.92-.26-3.09-3.75-6.62-5.35-14.22-9.33-20.75-.2-.33-.09-.87-.07-1.32.18-7.11-2.14-13.58-5.07-19.91-1.11-2.39-3.31-5.26-2.73-7.25,1.18-4.07.51-7.1-1.87-10.24-.55-.73-.78-1.93-.71-2.88.21-2.92-.68-5.68.19-8.82,1.48-5.37.23-11.06-.07-16.62-.33-6.07-.14-12.2,1.36-18.13.65-2.57-1.18-4.46-1.06-7,.14-2.98,2.66-5.61,1.54-8.38-1.87-4.59-.63-8.93.09-13.37.07-.44.38-.99.22-1.31-1.61-3.17,2.46-6.42-.14-9.58-.11-.13.2-.6.3-.91,2.04-6.34,6.93-11.94,5.04-19.31-.08-.3,0-.71.14-.98,3.03-5.51,2.73-11.63,3.27-17.6.06-.65.07-1.38.38-1.92,1.89-3.26,3.42-6.6,4.08-10.39.36-2.05,1.67-4.06,3.97-4.53,1.93-.39,3.37,1.14,3.82,2.68,1.11,3.82,2.83,7.92,2.31,11.62-.46,3.3-.3,6.41-.41,9.62-.08,2.28-1.03,4.5.04,6.81.26.56-.12,1.25-.49,1.87-1.17,1.95-1.2,4.18-1.53,6.38-.79,5.22,1.87,10.24.69,15.42-.49,2.13-1.27,4.21-.63,6.43,1.06,3.67-.31,7.21-1.16,10.58-.55,2.18-.41,3.47,1.1,4.61,1.58,1.19,1.72,2.62,1.13,4.17-.83,2.2-.72,4.66-2.87,6.51-1.61,1.39-1.07,3.67.83,4.91,1.34.87,1.98,2,1.66,3.37-.55,2.33-.34,4.69-1.26,7.09-1.09,2.84-1.7,6.72.36,9.14,2.04,2.4-.38,5.9,2.72,7.53-1.69,3.55-.59,7.59-1.66,11.03-.86,2.76.05,3.79,1.56,5.35,2.2,2.26,3.26,5.05,2.26,8.13-.6,1.84-.67,3.27.94,4.45.97.71,1,1.73,1.04,2.72.1,2.48,1.83,4.85.14,7.51-.53.83-.07,2.46.67,3.52,1.08,1.54,2.02,3.13,2.7,4.91,1.21,3.2,2.67,6.32,3.82,9.54,1.3,3.67,5.4,5.63,5.71,9.98.19,2.72,3.34,4.03,3.73,7.21.27,2.18,1.48,5.6,4.17,6.37,2.99.85,4.55,2.4,6.41,4.85,4.38,5.78,11.7,7.24,18.13,8.67,4.69,1.04,10.19-1.05,15.25-2.3,3.36-.83,5.86-3.78,9.44-3.8,2.61-.02,5.11-.7,6.8-2.35,7.42-7.25,18.29-10.55,23.39-20.43.13-.26.6-.32.81-.57,2.74-3.24,6.49-5.32,9.78-8.17-2.02-.51-4.17-.66-5.09-2.2-2.42-4.07-6.64-5.63-10.26-8.04-.37-.24-1.05-.42-1.08-.7-.33-2.37-2.32-3.11-4.01-3.92-2.26-1.09-4.05-3.04-5.41-4.69-3.31-3.99-5.47-8.9-8.41-13.23-1.61-2.36-2.09-5.72-4.59-7.11-4.38-2.44-4.2-7.21-5.41-10.79-1.21-3.6-1.57-8.09-.77-12.26.18-.94-.16-1.85-.82-2.78-1.16-1.62-.53-8.14.95-9.36,2.41-1.98,2.67-4.54,2.44-7.26-.14-1.62.17-3.06.6-4.6,2.14-7.7,6.95-13.96,10.91-20.68.84-1.43,1.07-3.12,2.32-4.37,2.97-2.98,5.34-6.45,7.87-9.79.99-1.31,1.27-3.29,2.9-3.97,2.69-1.13,3.89-3.69,5.46-5.73,1.37-1.77,5.18-1.81,4.09-5.57-.22-.75,1.25-1.76,2.29-2.25,1.01-.48,2.09-.8,3.1-1.26,2.07-.93,3.11-2.32,2.11-4.68-.94-2.23-1.84-4.48-2.65-6.76-.5-1.43-1.11-3.1.25-4.31,3.4-3.03,2.87-6.5,1.39-10.12-.43-1.04-1.37-2.29-.75-3.14,1.88-2.56.95-5.15.65-7.79-.11-.99-.19-2.09.1-3.01,1.99-6.22,1.9-12.61,1.84-19.01-.01-1.22-.2-2.68.37-3.61,1.81-2.91,2.1-6.25,2.04-9.33-.09-5.06,2.14-10.19-.21-15.2,2.2-3.44.24-8.01,3.23-11.34,1.23-1.37,1.01-3.58.93-5.36-.19-4.29-1.24-8.61,1.95-12.39.42-.5.41-1.51.33-2.26-.55-5.57-1.33-11.07-.04-16.72.43-1.86,2.03-4.25.95-5.73-2.88-3.96-.29-7.78,1.19-10.19,3.49-5.67.64-11.01.76-16.42.08-3.41-.87-7.12.9-10.01,1.25-2.05,1.45-3.88.88-5.62-1.38-4.26-2.26-8.4-2.01-13,.15-2.71,1.15-5.64-.32-8.49-2.02-3.91-5.28-7.29-5.37-12.07,0-.29-.26-.65-.49-.86-2.9-2.54-5.57-5.18-5.35-9.49.03-.61-.46-1.08-1.03-1.17-2.21-.36-3.71-1.91-5.49-3.03-4.34-2.72-9.32-1.84-13.87-1.46-3.29.28-6.64,1.54-10.09,1.59-1.07.02-1.98.2-2.58,1.23-1.17,2.04-3.09,2.78-5.31,2.95-.85.06-1.67.32-1.87,1.16-1.18,4.88-6.27,5.64-9.43,7.31-5.55,2.92-8.88,7.61-13.11,11.59-.39.36-.41,1.26-.38,1.9.25,5.2,1.16,10.51,3.22,15.06,2.41,5.31,1.91,10.83,1.39,15.69-.56,5.23-.33,10.99-2.91,15.99-.23.45-.17.76.09,1.18,2.81,4.49-1.21,8.57-.84,12.94.02.28-.95.55-1.25.97-1.97,2.81-4.79,4.93-4.81,9.07-.01,3.79-.47,7.83-3.06,11.03-3.28,4.06-5.4,8.78-7.27,13.52-1.64,4.16-4.18,7.99-7.09,10.7-3.99,3.72-8.92,6.93-14.2,8.96-4.37,1.68-8.99,2.57-13.45-.03-2.87-1.67-3.26-1.37-4.02,1.93-.95,4.15-1.88,8.37-3.44,12.3-1.25,3.14-3.22,5.98-3.6,9.47-.09.82-.87,1.14-1.5,1.63-2.84,2.23-5.06,5.07-7.25,7.91-1.63,2.12-.46,5.1-2.74,7.3-3.38,3.27-7.66,5.84-9.81,10.16-1.49,3-5.15,3.49-6.46,6.45-.15.18-.3.36-.45.53l.02-.11Zm-384.18,185.01c.07,1.1.13,2.19.2,3.29-.17.15-.35.31-.52.46l.32.32c-.63,2.02-.37,3.88.42,5.87.49,1.24,1.18,2.6.88,4.13-.24,1.22.8,1.83,1.66,2.29,3.31,1.77,5.99,1.14,8.64-1.66,1.79-1.89,2.24-4.72,4.38-6.25,1.31-.94,1.62-2.02,1.53-3.45-.05-.78-.25-2,.15-2.29,2.95-2.14,3.75-5.78,5.74-8.25,3.41-4.23,7.49-7.8,9.49-13.12.94-2.51,4.8-3.79,2.96-7.55-.49-1,.99-1.79,1.6-2.28,2.88-2.32,4.5-5.76,7.42-7.98,1.38-1.05,2.1-1.98,1.17-3.85-.4-.79-.65-2.92.23-3.1,2.74-.55,3.57-3.46,6.07-4.25,1.98-.62,3.05-2.33,3.79-4.35.7-1.9,1.52-4.34,3.05-5.23,2.34-1.36,2.74-2.7,2.35-5.11-.24-1.47-.89-3.41,1.29-4.4,3.74-1.7,2.62-5.77,4.04-8.61.28-.55-.16-1.11-.83-1.58-1-.71-2.21-10.04-1.66-11.11.05-.09.16-.15.25-.21,2.49-1.55,1.06-3.59.44-5.29-.73-2.03-1.31-3.92-1.48-6.16-.2-2.7-.76-6.13-4.46-6.67-1.92-.28-2.54-1.28-2.57-2.83-.09-4.56-4.57-6.32-6.18-9.92-.84-1.88-2.85-2.64-4.59-3.73-1.25-.78-4.14,0-3.95-3.08.22-3.57-2.04-5.37-5.29-6.27-1.85-.51-3.62-1.01-4.91-2.86-2.38-3.4-5.32-6.26-9.88-6.5-.32-.02-.78-.15-.91-.37-2.27-3.95-6.48-4.49-10.22-5.79-2.66-.93-5.1-2.41-7.71-3.31-5.13-1.77-10.38-3.79-15.99-2.09-1.59.48-2.29-1.1-4.07-.97-5.24.38-9.78,2.86-14.75,3.86-1.3.26-2.52.83-3.3,2.07-.59.94-1.58,1.03-2.63,1.16-4.32.53-8.95.21-12.11,4.15-.41.51-1.1.29-1.5.55-2.52,1.63-5.98.52-8.24,2.83-3.29,3.37-7.69,5.13-11.45,7.85-3.99,2.88-7.53,6.19-11.79,9.72,7.42,1.23,14.12-.14,20.8-.77,2.7-.26,5.66-.25,8.11-1.71,2.65-1.58,5.36-1.08,8.05-.61,1.36.24,2.61.11,3.94-.03,5.28-.58,10.23-2.52,15.35-3.73,3.23-.76,6.07.54,8.71,2.19,1.98,1.24,3.2,4.18,3.22,5.5.04,3.95-1.51,7.94-4.94,10.49-2.12,1.58-2.65,2.57-.75,4.89,3.37,4.12,6.17,8.55,12.36,8.94,2.37.15,3.94-1.28,5.85-1.84,3.25-.96,6.83-.74,9.81-3.33,4.26-3.7,9.59-6,13.98-9.64,1.93-1.6,4.59-1.55,6.75-.7,2.1.82,2.21,3.12,2.11,5.23-.06,1.23-.09,2.48.08,3.69.32,2.24-.31,4.04-1.29,6.15-2.37,5.07-6.77,7.83-10.78,11.16-3.49,2.9-7.44,5.07-11.35,7.23-5.65,3.11-12.06,1.8-18.14,2.31-.92.08-2.1.13-3.23-.44-3.76-1.89-7.71-3.28-11.92-3.9-4.24-.63-6.18-2.3-6.26-5.5-.06-2.66-1.85-4.37-3.55-5.56-1.13-.78-1.51-1.56-1.63-2.51-.41-3.13-1.41-5.98-3.47-8.68-1.8,2.88-5.04,4.35-6.92,7.19-2.17,3.28-3.79,7.26-6.72,9.61-4.76,3.82-6.58,9.06-8.77,14.15-1.72,4-3.48,7.99-4.83,12.22-1.6,5.03-3.36,10.08-4.53,15.22-.52,2.3-1.09,4.43-2.45,6.22-.83,1.09-1.03,2.02-1,3.32.11,4.96-.77,9.84-1.62,14.71-.22,1.26-2.01,2.63-.87,3.61,1.17,1.01,2.77-.56,4.21-.87.58-.13,1.01-.84,1.54-1.23,2.54-1.84,5.19-3.41,7.63-5.53,3.46-3.02,6.19-6.07,7.13-10.46.28-1.32.9-3.06,1.42-3.46,3.96-3.06,7.18-6.56,8.28-11.56.81-3.69,2.99-6.41,5.65-8.88.08-.07.09-.2.15-.3,3.05-4.81,4.76-10.36,9.31-14.38,4.02-3.56,10.94-4.12,14.32-.17,2.25,2.63,2.24,9.78-.26,12.42-3.14,3.31-5.33,7.32-8.63,10.6-4,3.99-5.74,9.71-8.03,14.86-.89,2-3.84,2.76-3.59,4.34.8,4.99-4.43,6.82-5.12,10.98-.18,1.07-1.32,2.99-2.99,3.14-2.17.19-3.06,1.57-3.81,3.21-1.25,2.76-3.2,4.9-5.84,6.3-1.51.8-1.62,1.78-1.3,3.27.75,3.44,1.24,6.91,1.35,10.45.17,5.32,1,10.43,6.27,13.46.48.28.9,1.09.93,1.67.09,2.42,1.54,1.88,2.7,1.15,1.67-1.07,3.16-2.44,4.72-3.68,3.11-2.47,6.28-5.02,4.98-9.64-.68-2.4.92-3.63,2.26-4.33,3.99-2.09,5.39-6.28,8.15-9.34,2.58-2.87,3.87-6.82,7.24-9.18.76-.54,1.24-1.54,1.13-2.67-.35-3.34,2.19-5.45,3.71-7.87,1.48-2.36,4.91-3.57,3.81-7.34-.24-.83.74-.93,1.3-1.26,4.62-2.81,8.52-6.58,12.67-9.99,2.07-1.7,3.86-3.56,6.38-4.76,4.63-2.2,7.7-.63,8.82,4.27.53,2.32-.72,4.01-.75,5.99-.07,4.83-2,8.57-5.99,11.23-.81.54-.83,1.21-.84,2-.05,3.01-1.99,5.09-3.97,6.87-4.34,3.92-8.42,7.8-6.78,14.46.13.54.16,1.11.23,1.66-.1.55-.35,1.14.47,1.38Zm626.45-17.98c-.47-2.46.39-4.76-.63-7.04-.41-.92-.28-1.96.07-2.95.95-2.62.32-4.66-2.02-6.34-1.43-1.02-2.79-2.31-2.29-4.48.15-.63-.22-1.13-.66-1.72-2.91-3.88-5.66-7.87-8.47-11.83-2.44-3.43-5.38-6.38-9.09-8.38-3.02-1.62-3.48-3.9-3.4-7.12.08-3.39,2.4-4.86,4.22-6.79,2.39-2.54,6.33-2.81,9.06-.68,4.3,3.35,9.02,5.79,14.18,7.53,1.19.4,2.49,1.27,3.15,2.3,2.52,3.93,7.26,4.56,10.55,7.38,2.52,2.16,5.85,3.18,9.39,2.9,3.8-.3,7.5,1.13,11.33.76,2.86-.28,6.89-3.12,6.35-4.74-1.28-3.83-3.16-7.47-3.78-11.52-.06-.42-.18-1.05-.46-1.2-3.7-1.87-5.57-5.56-8.39-8.3-4.22-4.1-9.74-6.35-14.27-10.01-3.98-3.21-8.65-4.91-13.49-6.46-3.13-1-6.08-2.69-8.96-4.53-5.66-3.62-10.6-8.57-17.82-9.6-2.38-.34-3.16-.27-3.06,2.06.12,2.79-1.29,4.86-2.74,7.09-1.44,2.2-4.92,2.68-5.23,5.19-.68,5.42-7.2,5.5-8.5,10.1-7.11,1.56-12.92,7.21-20.9,6.29-3.79-.44-7.34-1.32-10.69-2.96-2.72-1.34-5.58-6.92-4.61-8.88,1.36-2.73,3.05-5.29,4.49-7.98.44-.82.73-.73,1.64-.77,2.66-.13,4.44,2,6.83,2.18,5.59.43,9.49-3.58,13.89-5.94,1.99-1.07,3.9-3.25,5.9-4.76,2.42-1.82,2.31-4.15,1.22-5.92-2.04-3.33-.35-6.02.9-8.62,1.66-3.43,4.86-4.86,8.58-3.73,2.55.78,5.06.52,7.59.61.67.03,1.6-.21,1.97.14,2.89,2.76,6.34,2.22,9.78,1.86,2.83-.3,6.22.57,8.38-.32,3.54-1.45,7.66-.53,10.95-3.57,1.88-1.73,4.24-3.52,6.71-4.78.66-.34,1.4-.56.73-1.35-2.34-2.75-5.05-5.83-7.94-7.13-3.42-1.54-6.96-3.3-10.6-4.37-3.13-.92-6.14-2.39-9.4-2.71-2.43-.24-4.78-.72-7.16-1.17-3.88-.73-7.51-3.32-11.44-2.76-5.72.81-11.39.25-17.08.53-2.16.11-4.25.45-6.16,1.64-5.98,3.74-12.25,7.17-16.92,12.58-2.17,2.51-4.44,4.94-6.5,7.57-2.16,2.77-3.67,6.38-6.28,8.33-6.64,4.95-11.64,11.27-16.43,17.76-1.43,1.93-3.2,3.99-3.94,6.36-1.34,4.33-3.12,8.56-3.59,13.13-.2,1.92-2.91,3.36-1.95,5.13,1.45,2.67.51,5.4,1.17,7.97.48,1.89-1.46,3.55-.39,5.19,2.87,4.42,4.63,9.47,8.4,13.43,2.09,2.19,4.86,4.52,5.67,7.13,1.03,3.3,3.52,3.71,5.47,5.4,2.04,1.77,4.28,3.29,6.41,4.86,2.72,2.01,3.65,5.21,6.31,7.34,5.49,4.4,8.88,10.78,13.25,16.25,1.14,1.42,2.79,1.86,3.92,3.39,3.29,4.4,6.97,8.55,10.88,12.41,1.2,1.19,2.24,2.77,3.65,3.54,4.8,2.65,10.59.55,13.74-4.17,2.03-3.04,1.12-6.64,2.57-9.71.09-.18.11-.55,0-.65-3.07-2.7-2.9-7.66-6.94-9.74-1.54-.79-3.32-2.08-2.38-4.2.65-1.47.29-1.94-.95-2.49-1.03-.46-1.47-1.6-2.19-2.35-1.74-1.81-1.74-4.54-3.07-6.13-3.28-3.94-4-6.62-1.37-10.69.41-.64,1.31-1.26,1.27-1.85-.19-2.84,1.65-3.49,3.82-3.83,2.13-.33,4.23-.47,6.05,1.13,2.37,2.07,4.39,4.56,6.43,6.86,2.35,2.65,4.01,5.9,6.72,8.48,3.82,3.63,8.04,6.14,12.99,7.85,1.95.67,4.43.63,5.82,2.04,2.67,2.71,6.11,3.29,9.76,4.55Zm-288.94-437.42c.31-1.29-.2-2.85-1.73-3.57-1.3-.62-1.22-1.64-1.14-2.5.19-1.91-.66-2.94-2.36-3.37-.71-.18-1.58-.46-1.46-1.1.64-3.3-2.39-4.65-3.48-6.99-.86-1.84-1.75-1.8-3.02-.56-2.7,2.63-5.54,5.13-8.03,7.95-1.25,1.42-2.3,3.23-1.85,5.45.16.8-.01,1.51-.73,2.34-4.65,5.42-9.13,10.96-9.32,18.68-.02.91-1.13,1.77-1.67,2.69-.32.55-1.39.5-1.21,1.36,1.04,5.12-2.65,9.23-2.96,13.98-.21,3.21-3.01,5.3-2.58,8.86.46,3.86-.69,7.86-1.72,11.68-.97,3.61-2.49,7.16-3.31,10.68-.5,2.15-1.19,4.8-1.13,7.45.1,4.18,4.07,8.67-.33,12.71-.05.05-.03.25.02.32,2.1,2.96-.16,5.91-1.06,8.07-2.03,4.88.95,9.44-.32,14.05-.06.22.24.63.48.81,1.96,1.47,1.26,3.83.51,4.95-2.23,3.32-.17,6.28,1.04,8.48,2.49,4.55,2.73,9.77,5.28,14.24,1.54,2.69,1.33,6.33,3.35,8.75,1.79,2.14,3.2,4.41,4.62,6.76,2.06,3.4,4.18,6.69,6.97,9.74,2.16,2.35,5.74,3.6,6.76,7.12.19.66,1.9,1.59,2.18,1.39,1.17-.85,3.02-2.21,2.9-3.15-.59-4.34,1.87-8.3,1.13-12.65-.36-2.1-.15-4.4,1.36-6.39.85-1.12,1.32-2.82.83-4.2-.92-2.6-2.55-5.12,1.29-6.75.21-.09.4-.61.35-.9-.31-2.03.79-3.82.36-6.09-.6-3.13,0-6.67.82-9.84.86-3.32,2.75-6.37,2.35-10.02-.09-.84-.3-1.77.48-2.54,3.22-3.15-.67-8.08,2.77-11.2.02-.02-.2-.34-.32-.5-1.6-2.23-.98-5.12-2.2-7.49-.28-.54-.31-1.48.31-2.2,2.08-2.42.48-5.76,2-8.5.31-.55-.16-2.33.92-3.26.82-.7.5-1.6.63-2.46.34-2.3-.86-5,.71-6.83,1.47-1.73,1.25-3.48,1.41-5.32.34-3.7.41-7.45,1.07-11.09.36-1.99.26-3.68-.35-5.54-1.12-3.44-1.71-6.91-1.04-10.62.84-4.63,1.11-9.42,1.36-14.05.17-3.16.66-7.09-1.65-10.29-1.96-2.73.85-5.35.65-8.54Zm-140.03,127.74c.48,2.35.94,4.7,1.43,7.04.9,4.31,1.44,8.75,2.84,12.89.92,2.72,2.84,5.1,3.33,8.09.47,2.89,1.44,5.5,4.75,6.34.39.1.93.4,1.03.72.43,1.48.58,3.43,2.56,3.3,2.01-.14,2.05-2.24,2.59-3.75.14-.39.77-.63.85-1.01.89-3.96,3.93-7.73,1.04-12.11-.21-.32-1.59-1.54-.25-2.51,1.3-.95,1.06-2.23.81-3.61-.2-1.08-.5-2.8.06-3.25,2.53-2.09,2.83-4.83,2.97-7.72.29-6.23,2.16-12.37,1.03-18.69-.23-1.29-.31-2.74,1.37-3.39,1.74-.68,1.59-2.36,1.07-3.42-2.31-4.69-1.84-9.19.04-13.87.8-1.99,1.5-4.34,1.21-6.37-.47-3.24-.26-6.43-.26-9.63,0-4.73-.45-9.43-.31-14.18.12-4.07.92-8.12-.16-12.45-1.25-5.03.04-10.67-3.14-15.35-.71-1.04-.04-1.56.1-2.36.28-1.52-1.9-3.67-3.13-3.07-4.1,2.01-7.27,4.92-8.21,9.62-.46,2.31-1.63,4.3-2.55,6.4-.32.72-1.65.3-1.56,1.45.35,4.66-.84,9.32-2.78,13.18-2.97,5.93-3.28,12.24-4.74,18.38-1.06,4.48-1.4,9.07-.87,13.55.28,2.33-1.27,3.9-1.13,5.94.27,3.9-.03,7.81.08,11.7.17,6.05-.45,12.09-.06,18.12Zm66.4,262.41c-.09.5-.19.92-.26,1.35-.93,5.86-.45,12.07-4.45,17.16-.47.6.34,1.33.1,2.19-.73,2.53.24,5.21-1.79,7.79-2.23,2.83-2.69,6.75-4.43,10.07-1.24,2.36-.36,5.79-2.7,8.12-.6.6-.59,1.44-.25,2.46.95,2.92,1.18,5.74-1.41,8.3-1.67,1.65-3.3,3.88-2.97,6.36.35,2.63,6.45,6.75,9.14,6.4,4.72-.62,9.49-.53,14.22-1.21,2.91-.42,4.1-1.31,5-4.2.79-2.52-.35-5.78,1.09-7.19,2.57-2.52,2.17-5.35,2.47-8.15.41-3.88.33-7.85,3.35-10.91.14-.14.14-.42.2-.64.88-3.19.92-6.54,2.15-9.7,1-2.58,1.67-5.45,1.73-8.2.07-3.09.71-5.51,2.82-7.95,1.71-1.97,2.33-4.85,2.86-7.52.12-.6-.2-1.22-.89-1.11-3.9.64-7.4-1.26-11.13-1.73-4.92-.62-9.98.17-14.87-1.69Zm56.25,2.81c.7-1.64-.19-3.26-.2-4.93,0-1.61-1.06-1.68-1.97-.86-2.52,2.25-5.82,2.73-8.79,3.65-6.47,2-6.55,1.72-6.87,8.69-.03.56-.06,1.12-.12,1.68-.6,5.52-1.65,11.05.5,16.49.36.9.04,1.76-.6,2.5-1.5,1.74-1.48,3.96-1.42,5.99.03,1.23-.21,2.17-.47,3.31-.75,3.39-1.27,6.88-1.64,10.32-.39,3.68.83,7.43-.18,11.24-1.08,4.08.02,4.75,4.18,5.98,6.7,1.98,12.28-.63,17.86-3.43,2.6-1.3,4.71-3.21,4.27-6.76-.64-5.13-.61-10.37-1.59-15.43-1.49-7.76-.78-15.61-1.59-23.4-.52-4.97-1-9.98-1.39-15.04Z"/><path class="cls-2" d="m631.24,669.73c1.31-2.96,4.97-3.45,6.46-6.45,2.15-4.32,6.43-6.89,9.81-10.16,2.28-2.2,1.1-5.18,2.74-7.3,2.19-2.85,4.41-5.68,7.25-7.91.63-.49,1.41-.81,1.5-1.63.38-3.49,2.35-6.33,3.6-9.47,1.57-3.94,2.49-8.15,3.44-12.3.76-3.3,1.15-3.59,4.02-1.93,4.47,2.6,9.08,1.7,13.45.03,5.28-2.03,10.21-5.23,14.2-8.96,2.91-2.71,5.46-6.54,7.09-10.7,1.86-4.74,3.98-9.46,7.27-13.52,2.58-3.2,3.04-7.24,3.06-11.03.02-4.13,2.84-6.26,4.81-9.07.3-.42,1.27-.69,1.25-.97-.38-4.37,3.64-8.45.84-12.94-.27-.43-.33-.73-.09-1.18,2.58-5,2.35-10.77,2.91-15.99.52-4.86,1.03-10.38-1.39-15.69-2.06-4.54-2.97-9.86-3.22-15.06-.03-.64,0-1.53.38-1.9,4.23-3.98,7.56-8.67,13.11-11.59,3.16-1.67,8.26-2.43,9.43-7.31.2-.84,1.03-1.1,1.87-1.16,2.22-.16,4.15-.91,5.31-2.95.59-1.04,1.51-1.22,2.58-1.23,3.46-.05,6.8-1.31,10.09-1.59,4.55-.38,9.54-1.26,13.87,1.46,1.78,1.12,3.28,2.67,5.49,3.03.57.09,1.06.57,1.03,1.17-.22,4.3,2.46,6.95,5.35,9.49.24.21.49.57.49.86.09,4.78,3.35,8.16,5.37,12.07,1.47,2.85.47,5.78.32,8.49-.25,4.6.63,8.74,2.01,13,.57,1.75.37,3.58-.88,5.62-1.77,2.89-.82,6.6-.9,10.01-.13,5.4,2.73,10.75-.76,16.42-1.48,2.41-4.08,6.23-1.19,10.19,1.08,1.48-.52,3.87-.95,5.73-1.3,5.65-.52,11.15.04,16.72.07.75.09,1.76-.33,2.26-3.19,3.78-2.14,8.1-1.95,12.39.08,1.78.31,3.98-.93,5.36-2.99,3.33-1.02,7.9-3.23,11.34,2.34,5.01.11,10.14.21,15.2.06,3.08-.23,6.42-2.04,9.33-.58.93-.38,2.39-.37,3.61.07,6.4.15,12.8-1.84,19.01-.3.92-.22,2.02-.1,3.01.3,2.64,1.23,5.23-.65,7.79-.62.85.33,2.1.75,3.14,1.48,3.62,2.01,7.09-1.39,10.12-1.36,1.21-.75,2.88-.25,4.31.8,2.28,1.71,4.53,2.65,6.76,1,2.37-.03,3.75-2.11,4.68-1.02.46-2.1.78-3.1,1.26-1.04.49-2.5,1.51-2.29,2.25,1.1,3.75-2.72,3.79-4.09,5.57-1.58,2.04-2.78,4.6-5.46,5.73-1.64.69-1.91,2.66-2.9,3.97-2.53,3.34-4.9,6.81-7.87,9.79-1.25,1.25-1.48,2.94-2.32,4.37-3.96,6.71-8.77,12.98-10.91,20.68-.43,1.55-.74,2.98-.6,4.6.23,2.71-.03,5.28-2.44,7.26-1.48,1.22-2.11,7.74-.95,9.36.66.92,1,1.84.82,2.78-.8,4.17-.44,8.66.77,12.26,1.21,3.58,1.02,8.35,5.41,10.79,2.5,1.39,2.98,4.75,4.59,7.11,2.95,4.32,5.11,9.24,8.41,13.23,1.36,1.65,3.14,3.6,5.41,4.69,1.7.81,3.68,1.55,4.01,3.92.04.28.72.45,1.08.7,3.62,2.41,7.84,3.98,10.26,8.04.92,1.55,3.07,1.69,5.09,2.2-3.29,2.86-7.04,4.94-9.78,8.17-.21.24-.67.31-.81.57-5.1,9.88-15.97,13.18-23.39,20.43-1.68,1.64-4.19,2.33-6.8,2.35-3.57.02-6.08,2.97-9.44,3.8-5.06,1.25-10.56,3.35-15.25,2.3-6.43-1.43-13.76-2.89-18.13-8.67-1.86-2.45-3.42-4-6.41-4.85-2.69-.77-3.9-4.19-4.17-6.37-.39-3.19-3.55-4.49-3.73-7.21-.3-4.35-4.4-6.31-5.71-9.98-1.15-3.23-2.61-6.34-3.82-9.54-.67-1.78-1.61-3.37-2.7-4.91-.75-1.06-1.2-2.69-.67-3.52,1.69-2.65-.04-5.03-.14-7.51-.04-.99-.07-2-1.04-2.72-1.61-1.18-1.54-2.61-.94-4.45,1.01-3.08-.06-5.87-2.26-8.13-1.51-1.56-2.42-2.58-1.56-5.35,1.07-3.44-.03-7.48,1.66-11.03-3.11-1.62-.68-5.13-2.72-7.53-2.06-2.42-1.45-6.3-.36-9.14.92-2.4.71-4.76,1.26-7.09.32-1.37-.32-2.49-1.66-3.37-1.9-1.24-2.44-3.53-.83-4.91,2.15-1.85,2.04-4.31,2.87-6.51.58-1.55.44-2.98-1.13-4.17-1.51-1.14-1.66-2.43-1.1-4.61.85-3.36,2.22-6.91,1.16-10.58-.64-2.22.14-4.3.63-6.43,1.18-5.18-1.48-10.2-.69-15.42.33-2.2.36-4.43,1.53-6.38.38-.62.75-1.31.49-1.87-1.07-2.32-.11-4.53-.04-6.81.11-3.21-.05-6.33.41-9.62.52-3.71-1.2-7.8-2.31-11.62-.45-1.54-1.89-3.07-3.82-2.68-2.3.46-3.6,2.48-3.97,4.53-.67,3.79-2.2,7.13-4.08,10.39-.31.53-.32,1.27-.38,1.92-.54,5.97-.24,12.09-3.27,17.6-.15.28-.22.68-.14.98,1.89,7.37-3,12.97-5.04,19.31-.1.31-.41.78-.3.91,2.59,3.16-1.47,6.4.14,9.58.16.32-.15.87-.22,1.31-.72,4.44-1.96,8.78-.09,13.37,1.12,2.76-1.4,5.39-1.54,8.38-.12,2.54,1.71,4.43,1.06,7-1.5,5.93-1.69,12.06-1.36,18.13.31,5.57,1.55,11.25.07,16.62-.86,3.14.02,5.9-.19,8.82-.07.95.16,2.14.71,2.88,2.38,3.14,3.05,6.18,1.87,10.24-.58,1.99,1.62,4.86,2.73,7.25,2.94,6.33,5.25,12.8,5.07,19.91-.01.44-.13.98.07,1.32,3.98,6.53,5.58,14.13,9.33,20.75.66,1.17.79,2.21.26,3.09-.65,1.09-1.76.32-2.71.05-.74-.21-1.8-.47-2.29-.12-4.03,2.91-9.04,2.15-13.5,3.42-5.45,1.55-10.83,3.95-16.85,3.95-3.83,0-7.95.22-11.63,2.03-.76.37-1.5.53-2.5.42-2.51-.28-5.04-.96-7.61.47-1.58.88-3.53,1.8-5.47.06-.42-.38-1.8,0-2.56.38-3.91,1.98-7.95,2.57-12.33,2.16-2.71-.25-5.55.84-8.25.55-2.91-.32-5.6-.52-8.37.67-1.68.72-2.81-2.31-4.92-.9-1.78,1.18-3.7,2.25-5.91.37-.6-.51-1.86-.02-2.84.49-3.38,1.77-6.86,2.61-10.8,1.66-1.67-.4-3.77.25-5.48.92-3.4,1.34-6.46,1.13-9.42-1.03-.52-.38-1.32-.85-1.81-.7-6.23,1.87-13.01-.83-19.11,2.54-2.26,1.25-7.95-.77-9.46-3-.83-1.22-1.83-1.82-3.06-1.58-3.37.65-7.01-.31-10.18,1.65-.41.25-1.19.36-1.57.14-4.28-2.46-9.57-1.53-13.79-4.14-.44-.27-1.37-.52-1.53-.33-1.95,2.29-4.52,1.05-6.19.35-4.7-1.97-10.44-.48-14.47-4.45-.27-.27-.92-.43-1.27-.3-5.02,1.93-9.06-2.54-13.57-2.23-5.55.39-9.95-2.5-14.87-3.81-3.81-1.02-7.4-2.87-11.47-4.5,2.38-3.12,3.23-7.18,6.64-9.62.43-.31,1.02-.87.98-1.26-.37-4.12,3.15-5.92,5.11-8.63.39-.54,1.03-.96,1.03-1.66-.03-5.81,2.82-10.72,4.9-15.87.24-.6.47-1.38.3-1.96-2.58-8.79.58-17.09,2.06-25.53.12-.66.41-1.34.32-1.97-.91-6.3.54-12.4,1.3-18.59.35-2.8-.4-5.76-.77-8.63-.4-3.19-1.49-6.37.65-9.44.42-.61.82-1.47.15-2.69-2.69-4.94-1.64-10.32-1.18-15.58.05-.6.81-1.55.34-1.83-3.61-2.18-2.33-6.07-2.54-8.93-.24-3.18-1.15-6.28-1.41-9.46-.28-3.46-1.18-7.56-3.56-10.43-2.68-3.24-2.1-6.9-2.39-10.41-.3-3.61-1.21-6.82-3.28-9.76-.5-.72-1.06-1.59-1.09-2.41-.23-5.18-1.75-10.13-2.44-15.22-.21-1.52-.57-3.08-1.51-4.02-2.24-2.24-3.88-4.46-2.8-7.83.12-.39-.26-1.21-.64-1.45-2.41-1.48-3.3-3.89-4.41-6.3-1.75-3.78-4.66-7.03-5.51-11.21-.8-3.95-3.48-6.84-5.53-10.02-1.37-2.13-1.26-4.48-2.16-6.65-2.13-5.16-5.38-9.54-8.24-14.21-1.26-2.06-1.99-1.58-2.82.26-2.24,4.93-2.32,9.97-1.63,15.29.54,4.2,2.02,8.43.77,12.78-.14.49-.1,1.39.21,1.61,4.69,3.33,1.88,8.46,2.85,12.64.35,1.51.51,2.77,1.76,3.25,1.87.73,2.06,1.53,1.29,3.29-1.2,2.73.71,8.4,3.29,10.24.57.4.87.92.66,1.35-1.89,3.88,1.71,6.88,1.59,10.4-.07,2.1,2.22,2.24,2.57,4.04.69,3.57,1.04,7.11.67,10.73-.08.77-.19,1.62.04,2.33,1.7,5.12,3.41,10.25,5.33,15.29.37.98,1.44,1.9,1.25,2.97-.79,4.62.42,9.12.67,13.67.06,1.14,0,2.07-.65,3.14-.9,1.49-1.08,3.31.64,4.5,3.48,2.4,2.48,6.39,1.88,8.97-1.45,6.21-.33,11.92.42,17.99.83,6.82,3.5,13.92,1.45,20.56-1.36,4.39-.24,7.2,1.69,10.42.73,1.22.65,1.93-.23,3.22-1.46,2.15-4.18,4.28-1.84,7.51.18.25-.07.85-.19,1.27-.75,2.43-1.72,4.73-1.61,7.43.2,4.73-2.39,8.28-5.3,11.81-1.99,2.42-4.32,5.12-3.08,8.87.11.35-.04.95-.29,1.22-2.89,3.06-5.16,6.33-6.76,10.42-1.02,2.59-4.8,4.03-7.15,6.18-2.92,2.68-6.7,4.68-7.53,9.13-.14.77-.76,1.5-1.58,1.63-5.41.86-9.46,4.65-14.36,6.56-4.01,1.56-8.22,2.09-12.23-.23-1.19-.69-2.26-1.17-3.71-.55-.72.31-1.67.21-2.58-.25-6.36-3.25-13.07-5.69-19.65-8.44-3.52-1.47-7.82-2.2-9.63-6.55-.33-.79-1.86-1.08-2.83-1.61-3.84-2.09-7.06-4.98-10.02-8.12-1.72-1.82.34-3.44,1.39-3.91,4.4-1.97,5.56-5.79,6.41-9.89.23-1.11,1.15-1.61,1.75-2.4,1.33-1.77,3-3.5,2.05-5.99-.38-.99-.01-1.52.65-1.99,3.05-2.19,6.38-4,8.18-7.62.56-1.12,2.42-.99,3.58-1.38,3.12-1.03,4.03-3.53,4.46-6,.35-1.98,1.07-3.53,2.54-4.47,2.56-1.63,2.86-4.29,3.92-6.71,1.46-3.32,1.83-6.94,3.32-10.27,1.01-2.26,1.28-4.99,1.3-7.52.02-3.23.91-6.15,2.17-8.98.64-1.42.42-2.85.62-4.28.41-2.91-1.15-6.07,1.12-8.77.34-.4.16-1.04-.26-1.53-2.15-2.49-1.9-5.68-2.74-8.52-.68-2.3-1.36-5.31-3.34-7.2-4.64-4.41-8.36-9.28-10.58-15.44-1.05-2.91-4.59-4.24-7.35-5.28-5.36-2.01-9.62-5.24-13.38-9.39-2.1-2.31-4.08-4.74-7.79-4.6-.97.04-2.05-1.25-2.97-2.05-1.48-1.28.82-1.74.71-2.78-.03-.27.52-.69.43-.86-2.31-4.74,1.6-10.1-1.2-14.58-1.95-3.12-1.71-5.93-.32-8.82,2.07-4.32,1.14-8.97-.38-12.62-2.41-5.81-.11-10.11,2.24-14.7.65-1.27.62-1.79-.31-2.93-1.6-1.97-1.93-4.61-2.4-7.06-.37-1.95-.09-4.05-1.11-5.86-.64-1.14-.17-1.88.51-2.7.78-.95,1.55-1.92,2.24-2.94,2.15-3.18.48-6.27-.5-9.24-.52-1.58-.97-3.06-.39-4.55,1.26-3.2-.11-6.57.57-9.62.98-4.38-.47-9.43,3.25-13.11.74-.73.12-1.27-.02-2.01-.57-2.99-3.12-5.79-2.3-8.65.78-2.74,1.53-5.53,2.22-8.3.68-2.73,2.9-5.5.22-8.48-.54-.59-.35-2.01.52-2.8,2.89-2.64,2.52-6.05,2.76-9.54.21-2.95.46-6.32,2.79-8.64,2.86-2.85,3.25-7,5.64-10.05.07-.09.17-.25.14-.29-4.12-5.23,2.9-6.78,3.55-10.54.59-3.46,2.18-6.76,3.53-10.06.72-1.77.88-3.78,3.03-4.96,1.61-.88,3.3-2.08,3.93-4.3.48-1.66,1.76-3.09,3.71-3.57,4.96-1.21,9.14-5.08,14.76-4.17,3.34.54,7.12-1.33,9.97,1.99.44.51,1.42.71,2.18.78,5.68.53,10.43,3.29,15.23,6.04,3.84,2.2,7.01,5.31,10.73,7.62,4.5,2.8,8.2,6.63,12.83,9.28,2.91,1.67,5.34,4.28,7.75,6.58,2.24,2.14,4.76,3.48,7.19,5.14,1.25.86,1.87,1.82,2.26,3.77,1.05,5.31-.6,10.54.74,15.92,1.03,4.15.35,8.95-.7,13.4-.65,2.74-1.06,5.55,1.8,7.56.6.42,1.14,1.21.9,2.04-1.32,4.55-.39,9.25-.8,13.87-.37,4.11-.06,8.66,1.63,12.7.83,1.98,1.1,3.6-.49,5.23-.29.3-.71.93-.6,1.11,2.35,3.7.72,8.58,3.76,12.12,3.59,4.18,4.79,9.33,5.67,14.65.44,2.64.96,5.33,2.75,7.67,1.36,1.77-.03,4.84,2.22,6.36,1.31.88,1.89,1.99,2.53,3.37,2.05,4.43,3.7,9.26,6.26,13.17,2.37,3.6,3.69,7.93,6.88,11,.16.16.42.3.45.49.94,5,3.52,8.58,7.8,11.62,2.05,1.46,1.88,5.52,1.56,8.52-.59,5.55-.56,11.22.81,16.48,1.12,4.28,1.34,9.2,5.04,12.71,1.06,1.01,1.67,3.15,1.51,4.67-.62,5.95,3.6,10.22,4.97,15.45.1.38.48.89.82.97,2.4.55,3.69,2.54,4.11,4.44,1.13,5.12,5.05,7.4,8.8,10.15,1.8,1.32,3.32,3.5,4.11,5.6.97,2.59,3.22,3.89,5.08,4.35,2.51.62,2.96,2.4,3.75,3.96.6,1.18,1.15,1.52,2.38,1.82,1.94.47,3.83.95,5.67,2.19,2.52,1.7,1.31,2.85.32,4.33-.47.69-1.96.92-1.49,1.97,2.01,4.49-1.9,6.98-3.3,10.3-.43,1.03-.9,2.02-.78,3.2.06.54.02,1.47-.25,1.59-4.85,2.1-1.89,7.03-3.74,10.07-1.28,2.11-1.43,4.93-3.69,6.37-1.26.8-1.75,2.64-1.54,3.1,1.57,3.51-.65,6.85-1.07,9.93-.51,3.69-.9,8.46-4.41,11.53-2.01,1.76-1.67,4.51-2.08,6.83-.34,1.94-.11,3.99-.84,5.9-.19.5-.44.92.01,1.5,2.91,3.7,4.1,8.35,6.75,12.2.91,1.32,1.49,3.12,3.53,3.06,1.54-.05,1.7,1.36,2.27,2.14,2.99,4.1,6.19,5.04,11.27,4.34,3.2-.44,7.05-1.7,9.58,2.01.71,1.03,1.71.37,2.46.22,6.39-1.25,12.51-3.34,18.39-6.13,1.07-.51,1.69-1.49,2.82-2.08,3.72-1.95,7.1-.85,10.58.24,1.06.33,1.97.93,3.14.11.63-.43,1.63-.3,2.07.52,1.07,2.04,2.83,1.81,4.77,2.29,3.31.83,5.8-.54,8.54-1.3,2.87-.79,5.86.17,8.74-1.56,6.93-4.16,13.72-8.12,15.41-17.07.55-2.92,3.32-4.95,4.02-8.17.83-3.86.73-7.99,2.71-11.59.16-.28-.11-.82-.23-1.23-2.24-7.82-2.84-15.78-2.58-23.9.09-2.8-2.44-5.58-1.82-8.49.91-4.29-2.09-8.45-.05-12.68.19-.39-.07-1.09-.29-1.57-1.01-2.19-1.28-4.39-.52-6.72.2-.61.33-1.5.03-1.99-1.78-2.94-1.09-5.49,1.47-7.31,2.25-1.61,3.76-3.96,6.53-5.16,2.49-1.08,5.07-2.86,6.58-5.35,2.99-4.94,6.49-9.55,9.05-14.76,1.45-2.96,4.89-4.62,5.64-8.07.58-2.69,1.52-5.09,3.84-6.81.48-.35.85-1.14.89-1.75.5-8.28,4.91-15.45,6.58-23.38.52-2.49,1.58-4.84,1.69-7.45.03-.83.09-1.76-.43-2.02-.42-.21-1.57.29-1.9.8-3.37,5.2-8.69,9-10.84,15.07-.21.6-.74,1.12-1.22,1.58-3.28,3.21-5.68,7.07-8.29,10.8-1.34,1.91-3.98,2.97-3.35,5.98.03.13-.22.45-.38.48-5.61.87-4.51,7.32-8.15,9.95-.56.4-1.07,1.89-2.01,2.21-3.35,1.16-6.3,2.62-7.32,6.44-.21.79-1.28.73-2.01.99-1.83.67-3.67,1.04-4.14,3.73-.29,1.66-2.34,2.99-4.22,3.61-3.38,1.11-6.82,2.06-10.22,3.14-6.93,2.21-13.74,4.93-21.14,5.08-3.52.07-6.94.56-10.35,1.34-.73.17-1.67.19-2.3-.14-6.47-3.33-13.9-4.29-20.09-8.42-2.97-1.98-6.54-3.07-9.86-4.5-1.05-.46-1.9-.75-1.93-2.26-.06-2.67-3.16-6.41-5.74-6.7-2.02-.23-3-1.46-4.41-2.59-4.37-3.51-6.26-8.69-9.25-13.08-3.56-5.22-7.51-10.3-9.59-16.41-.39-1.14-1.4-1.72-2.1-2.58l-.04.04c2.27-.58,4.04-.16,4.69,2.38.26,1.01.91,1.33,1.84,1.66,3.78,1.33,6.87,3.77,9.81,6.41,1.03.93,2.23,1.49,3.58,1.58.81.06,1.51.15,2.18.65,5,3.76,11.28,4.71,16.68,7.55,5.52,2.9,11.05,5.11,17.44,3.49.64-.16,1.5.31,2.2.61,3.74,1.61,11.1.14,14.17-2.86,6.63-1.85,14.05-1.39,19.93-4.97,3.62-2.2,8.33-2.25,11.09-5.88.57-.75,1.45-.61,2.19-.5,2.97.45,4.81-1.02,6.3-3.38,1.58-2.51,3.84-3.83,6.78-4.76,4.23-1.34,7.5-4.63,11.2-7.05,3.94-2.57,7.01-6.74,10.91-8.46,4.09-1.8,5.38-4.61,7.2-7.75,1.22-2.09,3.97-2.36,5.59-4.26,1.13-1.33,2.19-2.37,2.07-4.21-.14-2.13,1-3.71,2.97-3.8,2.49-.11,2.76-1.91,2.92-3.38.25-2.22.96-3.79,3.13-4.56,1.34-.48.82-1.66.94-2.6,0,0-.02.11-.02.11.15-.18.3-.36.45-.53Z"/><path d="m469.63,628.24c-.01-1.3.08-2.8,1.35-3.17,1.14-.34,1.82,1.07,2.44,1.96,2.98,4.31,6.95,7.57,11.12,10.62,2.64,1.93,4.36,4.67,5.97,7.33,1.93,3.18,4.25,5.32,7.81,6.58,2.49.88,5.19,2.12,6.02,5.25.47,1.77,2.4,1.94,3.63,2.73,4.67,2.98,7.28,8.08,11.88,11.11,1.83,1.2,3.3,2.82,5.68,3.24,3.74.65,5.45,4.27,8.31,6.26,2.86,1.99,5.8,3.9,8.21,6.45.86.91,1.92.29,2.85.55,5.58,1.56,10.97,3.65,16.11,6.31.66.34,1.27.52,1.87.4,3.72-.77,7.36.61,10.94.52,5.21-.13,10.48.99,15.66-.44,1.52-.42,2.07,1.09,2.95,1.85,1.21,1.04.19,2.09-.24,2.98-1.59,3.23-4.97,4.4-7.84,5.71-4.59,2.1-9.32,4.28-14.59,4.27-1.49,0-2.36,1.32-3.89,1.59-1.42.25-2.98.15-3.59-.39-1.59-1.43-3.33-1.38-5.03-1.13-3.39.48-6.73-.24-10.09-.06-4.9.27-8.69-2.23-12.34-5.04-3.78-2.91-7.57-5.9-12.04-7.61-3.49-1.34-7.18-2.82-8.95-5.88-2.18-3.77-6.17-4.67-8.87-7.39-2-2.01-4.59-3.59-5.4-6.6-.08-.28-.37-.63-.64-.73-6.26-2.29-8.4-8.88-13.18-12.62-3.47-2.71-4.2-6.86-6.59-10.05-1.44-1.93-2.67-3.83-3.84-5.93-1.45-2.6-2.45-5.23-2.98-8.02-.69-3.61-1.89-7.07-2.71-10.63Z"/><path d="m599.27,350.84c-3.34-2.53-5.95-5.34-7.81-9.41-1.32-2.89-2.12-7.11-6.24-8.32-.98-.29-1.52-.97-1.82-2.13-.65-2.56.09-6.03-3.9-6.76-.36-.07-.52-1.13-.79-1.72-1.03-2.19-1.97-4.49-4.59-5.26-1.5-.44-1.56-1.77-1.93-2.88-.97-2.97-2.65-5.4-4.9-7.59-1.4-1.36-2.79-3.08-3.32-4.9-1.07-3.71-4.43-5.21-6.56-7.85-1.32-1.64-3.4-3.34-3.91-4.76-1.74-4.88-7.28-6.97-8.49-11.24-1.01-3.56-3.74-4.15-5.38-6.32-1.36-1.8-2.7-3.75-3.41-5.84-.53-1.56-1.55-2.37-2.61-3.29-1.79-1.54-3.1-7.48-2.02-9.43.94-1.71,4.33-1.87,6.31-.63,3.34,2.09,6.78,4.39,9.35,7.07,2.75,2.88,5.97,5.31,8.7,8.24,3.4,3.65,5.01,8.89,9.97,11.3,1.09.53,2,2.82,2.87,4.34,1.5,2.62,1.92,6.12,5.38,7.62,2.08.9,2.01,3.73,3.2,5.54,2.03,3.1,4.11,6.17,6.09,9.3,3.86,6.11,6.74,12.72,9.36,19.41,2.48,6.34,4.67,12.81,6.62,19.34.51,1.7,1.45,3.75.3,5.71-.16.15-.31.32-.45.49Z"/><path d="m852.07,567.12c-.73,1.47-.12,2.96-.14,4.45-.03,4.33-.27,8.67-.72,12.97-.24,2.3.74,5.17-2.47,6.61-.48.21-.42,2.42-.07,3.54.97,3.11.49,5.66-2.15,7.68-.51.39-.59.89-.6,1.47-.11,4.52-1.64,8.75-2.69,13.08-.68,2.8-3.19,4.44-4.23,7.06-2.21,5.56-6.25,9.75-10.78,13.51-.81.67-1.8,1.33-2.75.85-1.1-.56-.52-1.83-.44-2.74.26-2.81.52-5.57,0-8.41-.29-1.56-.39-3.4,1.27-4.59.34-.25.85-.78.77-1.01-1.32-4.1,1.86-7.32,2.16-11.17.26-3.32,2.15-6.46,3-9.82.52-2.06-.55-4.35,1.34-6.27,2.6-2.65,1.88-6.35,2.05-9.64.08-1.63,1.49-2.45,1.56-3.97.03-.54.96-1.06.66-1.77-1.48-3.58,1.66-7.1.08-10.67,3.31-5.68,1.05-12.13,2.5-18.09.65-2.69.16-5.63.03-8.3-.21-4.41,1.33-8.54,1.09-12.99-.14-2.58-1.53-6.06,1.17-8.89,1.36-1.43,1.73-.56,2.13.14.68,1.18,1.58,3.03,1.48,3.74-.58,3.81,1.58,6.83,2.28,10.23,1.29,6.35,1.99,12.79,2.87,19.2.53,3.9.23,7.75.65,11.59-.86.71-.61,1.46-.07,2.21Z"/><path d="m239.67,628.08c-.34,3.77-.64,7.53,1.38,10.99.51.87.26,1.73.04,2.52-.96,3.47-1,6.88.86,10.69-2.82-1.25-4.02-3.1-4.85-5.25-1.92-4.99-3.57-10.07-4.69-15.3-.89-4.16-1.42-8.39-2.09-12.59-.09-.54.12-1.23-.15-1.64-1.76-2.77-2.23-5.51-1.35-8.84.63-2.38.56-5.02-.38-7.67-.72-2.03-1.2-4.52.55-6.82,1.6-2.11-.55-4.57.01-7.13,1.15-5.22,1.4-10.63,1.99-15.97.09-.82.49-1.45.84-2.15,1.22-2.43,2.61-4.47,2.48-7.77-.08-2.07.92-5.59,2.69-8.12,1.47-2.11,1.03-5.07,2.19-7.46.18-.36.09-1.02.52-1.37,4.77-3.86,6.69-9.63,9.79-14.6,1.28-2.05,3.66-2.99,4.74-5.81,1.25,4.39-1.52,7.41-1.78,10.9-.34,4.65-3.32,8.82-3.45,13.3-.13,4.45-3.22,7.65-3.44,11.83-.19,3.7-.49,7.39-.61,11.09-.01.41.03.78-.14,1.17-1.95,4.4-2.27,9.2-3.4,13.79-1.24,5.04-.43,10.33-1.57,15.24-1.11,4.76-1.07,9.6-1.04,14.2.02,3.65-1.35,7.46.06,11.12-.43.87-.68,1.66.78,1.65Z"/><path d="m557.65,337.4c-4.96-.07-6.84-4.44-10.19-6.64-3.65-2.4-4.37-6.79-7.86-9.2-2.82-1.94-5.24-4.57-7.47-7.21-1.95-2.31-4.42-4.3-5.47-7.31-.18-.5-.38-1.24-.76-1.38-2.28-.86-3.56-2.89-4.62-4.7-1.39-2.36-3.47-3.63-5.44-5.22-1.41-1.14-.89-3.3-2.23-4.92-3.26-3.95-7.88-6.71-10.04-11.63-.89-2.03-1.16-4.14.32-5.58,1.54-1.51,3.78-2.02,6.01-.79,9.49,5.23,17.31,12.15,23.78,20.98,2.72,3.71,5.38,7.81,9.28,10.75,1.29.97,1.55,3.22,2.46,4.78,4.32,7.42,9.17,14.54,11.74,22.88.56,1.81.48,3.44.49,5.19Z"/><path d="m839.66,659.88c1.25-4.27,1.64-7.84,2.53-11.11.73-2.68.29-5.77,2.3-8.28,1.91-2.37,1.2-5.7,1.88-8.57.62-2.61,2.02-4.95,2.25-7.64.26-2.97,2.53-5.6,2.91-7.93,1.01-6.08,3.98-11.4,5.26-17.3,1.1-5.11,3.35-10.07,3.79-15.21.62-7.2,4.71-13.55,4.39-20.91-.07-1.5.81-3.15,1.87-4.46.45-.56.72-1.27,1.82-.67.76.42,1.48.37,1.67,1.59,1.26,7.92-.05,15.62-1.25,23.43-.95,6.19-2.26,12.38-3.92,18.27-1.2,4.28-.86,9.08-3.6,13.05-1.72,2.48-1.12,5.8-2.6,8.7-2.87,5.63-4.18,12.08-7.18,17.63-3.47,6.43-5.63,13.78-12.12,19.39Z"/><path d="m244.03,346.34c3.16-.12,6.5.34,9.54,2.11,1.45.85,2.96.64,4.5.62,2.86-.04,5.28.69,7.03,3.29,1.38,2.04,3.62,3.09,6.07,2.81,2.45-.28,4.01.7,5.37,2.54,1.85,2.49,4.81,3.95,4.7,8.02-.12,4.1-2.84,8.14-7.13,8.34-2.82.13-5.2-.77-7.83-2-3.93-1.83-8.17-3.4-12.58-4.1-.58-.09-1.16.15-1.7-.61-1.58-2.23-3.98-2.87-6.52-3.86-6.3-2.46-10.61-6.82-8.32-14.84.83-2.91,3.24-2.11,5.23-2.29.45-.04.9,0,1.65,0Z"/><path d="m252.61,491.72c-3.11,4.62-4.32,9.64-7.01,13.93-.62.99-.82,1.94-1.16,2.98-2.3,7.01-5.21,13.74-8.76,20.26-1.29,2.37-.96,5.72-1.06,8.63-.05,1.53.4,2.98-1.14,4.13-1.41,1.06-1.3,2.92-1.94,4.35-2.95,6.56-3.84,13.73-6.42,20.4-.78,2.01.23,4.43-.9,6.5-.5.92-1.45,2.14-2.09.73-.87-1.92-2.3-3.8-1.56-6.33.49-1.66.66-3.69.18-5.32-1.72-5.89-.5-11.61.33-17.42.61-4.25,1.34-8.48,3.05-12.39,1.1-2.51,1.3-5.39,3.31-7.61.92-1.01,2-2.27,1.06-4.39-.95-2.15,1.27-4.52,2.25-6.1,1.42-2.27,2.19-5.14,4.89-6.95,2.43-1.63,3.65-4.91,6.06-6.99,3.35-2.88,5.72-6.98,10.91-8.4Z"/><path d="m385.58,264.49c-2.6.06-4.95.52-6.51-1.21-2.54-2.81-6.7-4.27-7.35-8.7-.11-.73-.39-1.63-.91-2.07-4.63-3.87-4.4-10.18-7.57-14.9-1.92-2.84-.89-7.28.63-10.44,1.01-2.08,4.31-1.76,6.39-.84,3.97,1.76,6.48,5.24,8.89,8.76,1.67,2.43,4.18,4.13,6.62,5.6,1.11.67,1.97,1.23,2.51,2.32,1.96,3.97,4.67,7.79,4.19,12.44-.23,2.21-.13,4.52-1.03,6.71-1.33,3.24-4.06,2.05-5.85,2.31Z"/><path d="m554.81,188.32c.74-7.07.18-12.83,1.51-18.5.73-3.09,2.73-4.89,5.49-5.38,2.32-.42,3.69,1.66,5.3,3.28,4.29,4.31,4.9,10.6,8.62,15.15.13.16.28.45.22.61-1.52,4.56.47,9.58-1.75,14.03-2.28,4.57-7.46,6.36-11.99,4-2.03-1.06-3.84-3.14-4.35-5.09-.83-3.19-3.6-5.83-3.05-8.1Z"/><path d="m738.26,265.19c-3.06.1-5.68-.18-7.18-2.88-1.94-3.5-1.11-7.3,1.1-9.8,2.19-2.46,1.85-6.34,5.08-7.92,3.27-1.6,4.73-5.24,8.08-6.88,2.2-1.08,3.27-3.8,6.25-4.25,4.02-.6,7.73,3.01,6.82,7.06-.56,2.52-1.61,4.83-2.98,6.97-1.05,1.64-1.79,3.28-1.52,5.27.13.97-.31,1.63-1.08,2.25-3.32,2.68-6.91,5.15-9.75,8.28-1.64,1.81-3.18,1.97-4.82,1.9Z"/><path d="m825.61,353.76c3.09.26,6.5.82,9.96.84,2.27.01,3.52,3.56,3.18,6.73-.59,5.48-5.02,6.72-8.92,7.85-5.38,1.57-10.68,3.51-16.32,4.28-5.94.82-9.07-2.14-7.1-7.74.76-2.17-.03-5.59,2.47-6.4,5.47-1.79,10.27-5.59,16.72-5.56Z"/><path class="cls-2" d="m239.67,628.08c-1.46,0-1.21-.78-.78-1.65.86.27,1.88.46.78,1.65Z"/><path class="cls-2" d="m852.07,567.12c-.54-.76-.8-1.5.07-2.21.23.75,1.35,1.52-.07,2.21Z"/><path d="m599.72,350.36c.54.08.79.49.47.86-.4.46-.63-.18-.92-.37.14-.17.29-.33.45-.49Z"/><polygon class="cls-2" points="428.67 579.43 428.55 579.45 428.6 579.34 428.67 579.43"/><path class="cls-1" d="m246.17,853.79c-.08-.55-.1-1.12-.23-1.66-1.64-6.66,2.44-10.54,6.78-14.46,1.98-1.79,3.93-3.86,3.97-6.87.01-.8.03-1.46.84-2,3.99-2.66,5.92-6.4,5.99-11.23.03-1.98,1.28-3.67.75-5.99-1.13-4.9-4.19-6.47-8.82-4.27-2.52,1.19-4.32,3.06-6.38,4.76-4.15,3.41-8.05,7.17-12.67,9.99-.55.34-1.54.43-1.3,1.26,1.1,3.76-2.33,4.97-3.81,7.34-1.52,2.42-4.05,4.54-3.71,7.87.12,1.12-.36,2.13-1.13,2.67-3.37,2.37-4.66,6.31-7.24,9.18-2.75,3.06-4.16,7.25-8.15,9.34-1.34.7-2.94,1.93-2.26,4.33,1.31,4.61-1.86,7.17-4.98,9.64-1.56,1.24-3.05,2.61-4.72,3.68-1.15.74-2.6,1.27-2.7-1.15-.02-.58-.44-1.39-.93-1.67-5.27-3.03-6.1-8.15-6.27-13.46-.12-3.54-.6-7.01-1.35-10.45-.33-1.49-.21-2.47,1.3-3.27,2.64-1.4,4.59-3.54,5.84-6.3.75-1.64,1.64-3.01,3.81-3.21,1.67-.15,2.81-2.07,2.99-3.14.69-4.16,5.92-5.99,5.12-10.98-.25-1.58,2.69-2.34,3.59-4.34,2.29-5.15,4.03-10.87,8.03-14.86,3.3-3.28,5.49-7.29,8.63-10.6,2.5-2.64,2.51-9.78.26-12.42-3.37-3.95-10.3-3.39-14.32.17-4.55,4.03-6.26,9.57-9.31,14.38-.06.09-.08.23-.15.3-2.66,2.46-4.84,5.18-5.65,8.88-1.1,5-4.32,8.49-8.28,11.56-.52.4-1.14,2.14-1.42,3.46-.94,4.4-3.67,7.44-7.13,10.46-2.43,2.12-5.09,3.69-7.63,5.53-.54.39-.97,1.1-1.54,1.23-1.44.31-3.04,1.88-4.21.87-1.14-.98.65-2.35.87-3.61.84-4.87,1.72-9.75,1.62-14.71-.03-1.3.18-2.23,1-3.32,1.36-1.79,1.93-3.92,2.45-6.22,1.16-5.14,2.93-10.19,4.53-15.22,1.34-4.23,3.1-8.22,4.83-12.22,2.19-5.09,4.02-10.34,8.77-14.15,2.93-2.35,4.55-6.34,6.72-9.61,1.89-2.84,5.12-4.31,6.92-7.19,2.06,2.69,3.06,5.55,3.47,8.68.13.95.5,1.72,1.63,2.51,1.71,1.19,3.49,2.9,3.55,5.56.08,3.2,2.02,4.87,6.26,5.5,4.21.63,8.16,2.02,11.92,3.9,1.12.56,2.3.51,3.23.44,6.08-.51,12.49.8,18.14-2.31,3.91-2.16,7.85-4.33,11.35-7.23,4.01-3.33,8.41-6.09,10.78-11.16.98-2.1,1.61-3.9,1.29-6.15-.17-1.21-.14-2.46-.08-3.69.1-2.1-.01-4.4-2.11-5.23-2.16-.85-4.82-.9-6.75.7-4.39,3.64-9.72,5.94-13.98,9.64-2.97,2.58-6.55,2.36-9.81,3.33-1.91.56-3.48,1.99-5.85,1.84-6.19-.39-8.99-4.81-12.36-8.94-1.89-2.32-1.37-3.31.75-4.89,3.43-2.55,4.98-6.54,4.94-10.49-.01-1.32-1.23-4.26-3.22-5.5-2.64-1.65-5.48-2.95-8.71-2.19-5.12,1.21-10.06,3.15-15.35,3.73-1.33.15-2.58.27-3.94.03-2.69-.47-5.4-.97-8.05.61-2.45,1.46-5.41,1.45-8.11,1.71-6.68.63-13.38,2-20.8.77,4.26-3.53,7.8-6.84,11.79-9.72,3.76-2.71,8.16-4.48,11.45-7.85,2.25-2.31,5.71-1.2,8.24-2.83.4-.26,1.09-.04,1.5-.55,3.16-3.94,7.79-3.62,12.11-4.15,1.04-.13,2.03-.22,2.63-1.16.78-1.23,2-1.81,3.3-2.07,4.98-1,9.51-3.48,14.75-3.86,1.78-.13,2.49,1.45,4.07.97,5.61-1.7,10.86.32,15.99,2.09,2.61.9,5.05,2.38,7.71,3.31,3.74,1.31,7.95,1.84,10.22,5.79.13.23.59.36.91.37,4.56.24,7.51,3.1,9.88,6.5,1.3,1.85,3.06,2.34,4.91,2.86,3.24.9,5.5,2.7,5.29,6.27-.19,3.07,2.69,2.3,3.95,3.08,1.74,1.08,3.75,1.85,4.59,3.73,1.62,3.6,6.1,5.37,6.18,9.92.03,1.54.66,2.55,2.57,2.83,3.7.54,4.25,3.97,4.46,6.67.17,2.24.75,4.14,1.48,6.16.62,1.71,2.06,3.74-.44,5.29-.09.06-.2.12-.25.21-.56,1.07.65,10.4,1.66,11.11.67.48,1.11,1.03.83,1.58-1.42,2.84-.3,6.91-4.04,8.61-2.18.99-1.53,2.93-1.29,4.4.39,2.41,0,3.75-2.35,5.11-1.53.89-2.35,3.33-3.05,5.23-.74,2.03-1.82,3.73-3.79,4.35-2.5.79-3.34,3.7-6.07,4.25-.88.18-.62,2.3-.23,3.1.94,1.87.21,2.8-1.17,3.85-2.91,2.22-4.54,5.66-7.42,7.98-.61.49-2.09,1.28-1.6,2.28,1.84,3.76-2.02,5.04-2.96,7.55-2,5.32-6.08,8.89-9.49,13.12-1.99,2.46-2.79,6.11-5.74,8.25-.4.29-.19,1.51-.15,2.29.08,1.43-.22,2.51-1.53,3.45-2.14,1.53-2.59,4.36-4.38,6.25-2.65,2.8-5.33,3.43-8.64,1.66-.85-.46-1.9-1.07-1.66-2.29.3-1.53-.39-2.89-.88-4.13-.79-1.99-1.05-3.86-.42-5.87.49-.16.6-.41.19-.79-.07-1.1-.13-2.19-.2-3.29,1.23-.92.41-1.16-.47-1.38Z"/><path class="cls-1" d="m873.08,837.19c-3.65-1.26-7.09-1.84-9.76-4.55-1.4-1.42-3.87-1.37-5.82-2.04-4.95-1.71-9.17-4.22-12.99-7.85-2.72-2.58-4.37-5.83-6.72-8.48-2.04-2.3-4.06-4.78-6.43-6.86-1.83-1.6-3.92-1.45-6.05-1.13-2.17.33-4,.99-3.82,3.83.04.58-.86,1.21-1.27,1.85-2.63,4.07-1.91,6.75,1.37,10.69,1.33,1.6,1.32,4.32,3.07,6.13.72.75,1.16,1.89,2.19,2.35,1.24.55,1.59,1.02.95,2.49-.94,2.12.84,3.41,2.38,4.2,4.04,2.08,3.88,7.04,6.94,9.74.11.1.09.47,0,.65-1.45,3.07-.54,6.67-2.57,9.71-3.15,4.73-8.94,6.83-13.74,4.17-1.4-.78-2.45-2.36-3.65-3.54-3.9-3.87-7.59-8.01-10.88-12.41-1.14-1.52-2.79-1.97-3.92-3.39-4.37-5.47-7.77-11.85-13.25-16.25-2.66-2.13-3.59-5.33-6.31-7.34-2.13-1.57-4.37-3.09-6.41-4.86-1.95-1.69-4.44-2.1-5.47-5.4-.81-2.61-3.58-4.95-5.67-7.13-3.78-3.96-5.53-9.01-8.4-13.43-1.07-1.64.87-3.3.39-5.19-.66-2.57.28-5.31-1.17-7.97-.96-1.77,1.75-3.21,1.95-5.13.47-4.57,2.25-8.8,3.59-13.13.73-2.37,2.51-4.42,3.94-6.36,4.79-6.48,9.79-12.8,16.43-17.76,2.61-1.95,4.12-5.56,6.28-8.33,2.06-2.63,4.34-5.06,6.5-7.57,4.67-5.41,10.93-8.84,16.92-12.58,1.9-1.19,3.99-1.54,6.16-1.64,5.68-.28,11.36.28,17.08-.53,3.93-.56,7.56,2.03,11.44,2.76,2.38.45,4.73.93,7.16,1.17,3.26.32,6.28,1.8,9.4,2.71,3.64,1.07,7.18,2.83,10.6,4.37,2.9,1.3,5.61,4.38,7.94,7.13.68.8-.06,1.02-.73,1.35-2.47,1.25-4.83,3.04-6.71,4.78-3.29,3.03-7.41,2.11-10.95,3.57-2.16.89-5.54.02-8.38.32-3.44.36-6.89.91-9.78-1.86-.37-.35-1.3-.11-1.97-.14-2.53-.1-5.04.16-7.59-.61-3.72-1.13-6.92.3-8.58,3.73-1.26,2.59-2.94,5.29-.9,8.62,1.09,1.77,1.2,4.1-1.22,5.92-2.01,1.51-3.91,3.69-5.9,4.76-4.4,2.35-8.3,6.37-13.89,5.94-2.39-.18-4.17-2.31-6.83-2.18-.91.04-1.2-.06-1.64.77-1.44,2.69-3.13,5.25-4.49,7.98-.98,1.96,1.89,7.54,4.61,8.88,3.35,1.64,6.89,2.52,10.69,2.96,7.98.92,13.79-4.73,20.9-6.29,1.3-4.6,7.82-4.68,8.5-10.1.31-2.51,3.79-2.99,5.23-5.19,1.46-2.23,2.86-4.3,2.74-7.09-.1-2.33.68-2.4,3.06-2.06,7.22,1.03,12.16,5.98,17.82,9.6,2.88,1.84,5.83,3.53,8.96,4.53,4.84,1.54,9.51,3.24,13.49,6.46,4.53,3.66,10.05,5.91,14.27,10.01,2.82,2.74,4.69,6.43,8.39,8.3.29.14.4.77.46,1.2.62,4.05,2.5,7.69,3.78,11.52.54,1.63-3.49,4.47-6.35,4.74-3.83.37-7.53-1.05-11.33-.76-3.54.28-6.88-.74-9.39-2.9-3.29-2.83-8.03-3.45-10.55-7.38-.66-1.03-1.96-1.89-3.15-2.3-5.15-1.74-9.88-4.18-14.18-7.53-2.73-2.12-6.66-1.86-9.06.68-1.82,1.93-4.14,3.4-4.22,6.79-.07,3.22.39,5.5,3.4,7.12,3.71,1.99,6.65,4.94,9.09,8.38,2.81,3.95,5.56,7.95,8.47,11.83.45.6.81,1.09.66,1.72-.5,2.17.86,3.46,2.29,4.48,2.34,1.68,2.97,3.72,2.02,6.34-.36.99-.48,2.03-.07,2.95,1.02,2.28.16,4.58.63,7.04Z"/><path class="cls-1" d="m584.14,399.76c.2,3.18-2.61,5.81-.65,8.54,2.31,3.2,1.82,7.13,1.65,10.29-.25,4.64-.53,9.42-1.36,14.05-.67,3.71-.08,7.18,1.04,10.62.61,1.86.71,3.56.35,5.54-.66,3.64-.73,7.39-1.07,11.09-.17,1.84.06,3.59-1.41,5.32-1.57,1.84-.37,4.53-.71,6.83-.13.86.19,1.76-.63,2.46-1.09.93-.61,2.71-.92,3.26-1.53,2.73.08,6.08-2,8.5-.62.72-.6,1.66-.31,2.2,1.23,2.37.6,5.26,2.2,7.49.12.17.35.48.32.5-3.44,3.12.44,8.06-2.77,11.2-.78.76-.57,1.7-.48,2.54.39,3.65-1.49,6.69-2.35,10.02-.82,3.17-1.42,6.71-.82,9.84.43,2.27-.67,4.06-.36,6.09.04.28-.14.8-.35.9-3.84,1.63-2.21,4.15-1.29,6.75.49,1.37.02,3.07-.83,4.2-1.51,1.99-1.72,4.29-1.36,6.39.74,4.35-1.72,8.31-1.13,12.65.13.94-1.73,2.3-2.9,3.15-.28.2-1.98-.73-2.18-1.39-1.02-3.52-4.6-4.77-6.76-7.12-2.8-3.04-4.91-6.33-6.97-9.74-1.42-2.35-2.83-4.62-4.62-6.76-2.03-2.42-1.82-6.06-3.35-8.75-2.55-4.47-2.79-9.69-5.28-14.24-1.21-2.2-3.27-5.16-1.04-8.48.75-1.11,1.45-3.48-.51-4.95-.24-.18-.54-.6-.48-.81,1.27-4.61-1.72-9.17.32-14.05.9-2.16,3.16-5.11,1.06-8.07-.06-.08-.08-.28-.02-.32,4.39-4.04.42-8.53.33-12.71-.06-2.66.63-5.3,1.13-7.45.82-3.51,2.34-7.07,3.31-10.68,1.03-3.82,2.18-7.82,1.72-11.68-.43-3.57,2.37-5.66,2.58-8.86.32-4.75,4-8.86,2.96-13.98-.17-.86.89-.81,1.21-1.36.54-.92,1.65-1.78,1.67-2.69.18-7.71,4.67-13.25,9.32-18.68.71-.83.89-1.54.73-2.34-.45-2.22.59-4.03,1.85-5.45,2.49-2.82,5.33-5.32,8.03-7.95,1.27-1.24,2.16-1.28,3.02.56,1.09,2.35,4.12,3.69,3.48,6.99-.13.64.75.92,1.46,1.1,1.7.43,2.55,1.45,2.36,3.37-.08.86-.17,1.88,1.14,2.5,1.53.72,2.04,2.28,1.73,3.57Z"/><path class="cls-1" d="m444.12,527.5c-.38-6.04.23-12.07.06-18.12-.11-3.89.2-7.79-.08-11.7-.14-2.04,1.41-3.6,1.13-5.94-.53-4.48-.19-9.07.87-13.55,1.46-6.15,1.76-12.45,4.74-18.38,1.94-3.86,3.13-8.52,2.78-13.18-.09-1.15,1.25-.73,1.56-1.45.92-2.11,2.09-4.09,2.55-6.4.94-4.7,4.11-7.61,8.21-9.62,1.23-.6,3.41,1.55,3.13,3.07-.14.8-.81,1.32-.1,2.36,3.18,4.68,1.9,10.32,3.14,15.35,1.07,4.32.27,8.37.16,12.45-.14,4.75.31,9.45.31,14.18,0,3.19-.21,6.39.26,9.63.3,2.03-.41,4.38-1.21,6.37-1.88,4.68-2.35,9.18-.04,13.87.52,1.05.67,2.74-1.07,3.42-1.68.66-1.6,2.1-1.37,3.39,1.12,6.32-.74,12.46-1.03,18.69-.14,2.89-.44,5.64-2.97,7.72-.55.46-.25,2.17-.06,3.25.25,1.38.49,2.66-.81,3.61-1.34.97.04,2.19.25,2.51,2.89,4.37-.15,8.15-1.04,12.11-.09.38-.71.62-.85,1.01-.54,1.51-.58,3.62-2.59,3.75-1.98.13-2.13-1.82-2.56-3.3-.09-.32-.64-.62-1.03-.72-3.3-.84-4.27-3.44-4.75-6.34-.49-2.99-2.4-5.38-3.33-8.09-1.41-4.14-1.94-8.58-2.84-12.89-.49-2.35-.95-4.69-1.43-7.04Z"/><path class="cls-2" d="m510.52,789.92c4.88,1.86,9.95,1.07,14.87,1.69,3.73.47,7.23,2.36,11.13,1.73.69-.11,1.01.51.89,1.11-.54,2.67-1.15,5.55-2.86,7.52-2.11,2.44-2.76,4.85-2.82,7.95-.06,2.76-.73,5.62-1.73,8.2-1.23,3.17-1.27,6.51-2.15,9.7-.06.22-.06.5-.2.64-3.02,3.06-2.94,7.03-3.35,10.91-.29,2.81.1,5.63-2.47,8.15-1.44,1.42-.31,4.67-1.09,7.19-.91,2.89-2.1,3.78-5,4.2-4.73.68-9.5.59-14.22,1.21-2.69.35-8.78-3.77-9.14-6.4-.33-2.48,1.29-4.71,2.97-6.36,2.59-2.56,2.36-5.38,1.41-8.3-.33-1.02-.35-1.86.25-2.46,2.34-2.33,1.46-5.76,2.7-8.12,1.74-3.32,2.2-7.24,4.43-10.07,2.03-2.57,1.06-5.25,1.79-7.79.25-.86-.56-1.59-.1-2.19,4-5.08,3.52-11.3,4.45-17.16.07-.43.16-.85.26-1.35Z"/><path class="cls-2" d="m566.77,792.72c.39,5.06.87,10.07,1.39,15.04.81,7.79.1,15.64,1.59,23.4.97,5.06.95,10.3,1.59,15.43.44,3.55-1.67,5.46-4.27,6.76-5.58,2.79-11.17,5.41-17.86,3.43-4.16-1.23-5.26-1.91-4.18-5.98,1.01-3.81-.22-7.56.18-11.24.37-3.44.89-6.94,1.64-10.32.25-1.14.5-2.07.47-3.31-.06-2.03-.07-4.25,1.42-5.99.64-.74.95-1.59.6-2.5-2.15-5.45-1.1-10.97-.5-16.49.06-.56.09-1.12.12-1.68.32-6.98.4-6.69,6.87-8.69,2.97-.92,6.27-1.39,8.79-3.65.92-.82,1.96-.75,1.97.86.01,1.67.9,3.29.2,4.93Z"/><path class="cls-2" d="m246.17,853.79c.87.22,1.7.46.47,1.38-.81-.24-.57-.84-.47-1.38Z"/><path class="cls-2" d="m246.84,858.46c.41.38.3.63-.19.79-.11-.11-.22-.22-.32-.33.17-.15.35-.31.52-.46Z"/><path class="cls-1" d="m631.24,669.73c-.15.18-.3.36-.45.53.15-.18.3-.36.45-.53Z"/><path class="cls-2" d="m465.03,714.21l-.05-.2c0,.08,0,.16,0,.24,0,0,.04-.04.04-.04Z"/></g></svg>