<?xml version="1.0" encoding="UTF-8"?><svg id="Layer_1" xmlns="http://www.w3.org/2000/svg" viewBox="0 0 1080 1080"><defs><style>.cls-1{fill:#fff;}.cls-2{fill:#e63b41;}.cls-3{fill:#f9d057;}.cls-4{fill:#f9ee5e;}</style></defs><path d="m362.14,431.95c-5.29,1.36-10.08,4.01-15.14,5.94-3.06,1.16-6.21,1.96-8.96,3.9-.8.57-2.1.91-3.29.62-1.51-.36-2.63.58-3.93,1.07-4.62,1.74-8.69,4.78-13.77,5.47-2.02.27-3.84,1.26-5.41,2.83-1.51,1.51-3.86,1.34-5.82,1.98-4.31,1.4-9,1.99-12.83,4.41-2.67,1.68-5.01,2.78-8.17,2.1-2.02-.43-3.34,1.71-5.25,1.99-.69.1-1.21.93-1.95.64-4.85-1.91-9.55,1.17-14.56.3-2.92-.51-5.27-1.89-7.91-2.71-1.71-.53-3.03-6.42-2.2-8.22.88-1.91.81-3.88.87-5.93.09-2.93-.08-6.01,2.53-8.34,2.69-2.41,3.86-5.94,6-8.8,1.88-2.52,3.2-5.42,5.58-7.63,2.01-1.87,3.56-4.29,5.71-5.93,3.79-2.88,6.45-6.71,9.48-10.24.23-.27.49-.66.78-.71,3.77-.68,4.64-4.23,6.46-6.74.95-1.31,2.49-1.55,3.45-1.79,2.8-.69,3.07-3.18,4.25-4.9.96-1.4,1.49-2.56,3.49-3.03,2.4-.57,5.07-1.35,6.42-3.96.16-.3.47-.68.76-.74,4.47-.89,6-5.47,9.54-7.6,1.88-1.13,2.72-4.02,5.73-3.19,3.79-3.94,10.29-4.47,12.77-10.07.27-.6.84-.89,1.28-.77,3.22.86,4.48-1.86,6.1-3.53,1.65-1.71,3.95-.96,5.78-2.18,1.13-.75,2.48-1.39,3.45-2.34,2.41-2.37,4.89-4.56,8.22-5.53.23-.07.5-.32.57-.54,1.08-3.36,4.01-2.79,6.54-3.17.72-.11,1.55-.54,2.02-1.08.97-1.11,1.58-2.56,3.52-2.15.67.14.81-.83.83-1.15.12-2.04,2.99-3.31,1.6-5.76-.1-.18.23-.63.39-.93.89-1.7,2.98-2.68,2.33-5.37-.21-.85,1.63-2.93,2.79-3.85,1.98-1.56,2.5-3.7,3.28-5.7.44-1.14.79-2.24,1.54-3.24,1.39-1.86,2.6-3.77,3.47-6.01,1.76-4.57,5.52-7.42,9.47-10.1,1.55-1.05,3.48-2.62,3.75-4.21.37-2.15,1.73-2.56,3.04-3.07,1.72-.67,3.06-1.86,3.22-3.41.37-3.54,3.35-4.88,5.56-6.06,3.96-2.1,7.47-4.57,10.51-7.79.71-.75,1.47-1.51,2.46-1.25,1.73.45,2.95-.64,4.24-1.26,2.7-1.3,5.3-2.83,7.81-4.48.85-.56,1.38-.9,2.27-.29.25.17.9.17,1.03,0,1.98-2.66,5.47-1.54,7.84-3.18,1.29-.89,2.9-1.1,4.32-1.52,3.38-1.02,6.81-1.53,9.36-4.46.99-1.14,2.74-.68,4.21-.02,2.38,1.06,4.62.7,6.99-.52,3.01-1.55,5.97-2.84,9.79-1.3,2.46.99,5.67.17,8.54.12.31,0,.68-.45.92-.38,6.16,1.82,12.52-.57,18.88,1.31,3.98,1.17,8.35,1.45,12.37,2.96.32.12.72.08,1.07.02,5.65-1.04,9.86,2.18,14.26,4.82,1.75,1.05,3.58,1.71,5.63,1.66,3.83-.08,7.28.92,10.71,2.76,3.47,1.87,7.04,3.57,10.39,5.67.65.41,1.39.19,2.09.05,1.43.25,2.87.5,4.3.76,1.66.4,2.45,1.92,3.7,2.86,3.84,2.89,8.36,4.52,12.57,6.7,1.37.71,2.29,2.23,4.03,2.27,1.06.03,1.97-.47,3.21-.07,4.69,1.54,8.28,4.61,11.45,8.1,1.59,1.75,3.69,2.18,5.51,3.17,2.79,1.51,5.17,3.5,7.72,5.29,1.49,1.05,2.78,2.1,5.16,1.52,2.34-.57,4.63,1.48,6.83,2.57,2.03,1.01,3.76,2.59,5.75,3.68,1.34.73,1.03,2.55,2.27,3.08,5.27,2.26,9.3,6.73,15.27,7.88,2.99.58,5.69,2.76,7.68,5.19,2.16,2.63,4.76,3.92,7.91,5.11,3.56,1.35,7.24,2.85,9.89,6.24,1.78,2.28,4.45,3.89,7.73,4.52,2.9.56,5.33,2.73,7.74,4.62,1.58,1.24,3.47,2.07,5.23,3.08-.04.73.51.72.99.8.05.18.1.36.15.54-.1.35,0,.5.37.36,2.49,1.17,4.87,3.4,7.77.86,4.57,1.55,7.52-3.56,11.93-2.9,1.33.2,1.83-1.66,3.36-1.8,3.38-.31,5.94-2.9,9.18-3.67,1.54-.36,1.22-1.96,2.21-2.64,1.71-1.18,3.51-2.15,5.49-2.76.37-.11.74-.22,1.12-.33.18-.1.35-.19.53-.29.53.03,1.06.05,1.59.08,1.58.37,2.85-.32,4.17-1.07,2.25-1.28,4.53-2.53,6.88-3.61.62-.28,1.09-.59,1.39-1.11.75-1.3,1.88-1.63,3.31-1.69,3.54-.14,6.7-1.03,9.38-3.74,1.1-1.12,3.26-1.2,4.93-1.75,1.33-.43,2.7-.56,3.7-1.89.9-1.19,2.42-1.48,3.95-1.91,2.95-.85,6.01-1.31,8.9-2.5,2.43-1,5.34-.79,7.36-2.9,1.22.31,1.08-.96,1.64-1.42,2.48-2.29,4.84-4.3,8.8-3.91,1.99.19,4.36-1.36,6.22-2.62,1.49-1.02,2.68-2.06,4.56-1.23.3.13.82.26,1.01.1,2.61-2.17,6.77-1.69,8.55-5.46,1.25-2.65,4.43-1.1,6.59-2.01.69-.29,1.61,0,2.39-.15,2.08-.4,3.58-1.19,5.1-3.11,1.87-2.35,4.94-4.48,8.33-4.14,3.88.39,6.48-2.01,9.66-3.22,3.42-1.3,6.66-2.53,9.22-5.37,1.37-1.52,3.76-.14,5.6-.76.1.27.17.57.57.35,2.68-2.36,6.1-2.48,9.37-3.04.7-.12,1.19-.36,1.41-.99.54-1.54,1.97-2.24,3.23-2.41,2.34-.31,4.44-1.71,6.85-1.47,2.24.22,3.74-1.97,5.94-1.75,3.98.4,7.75-1.05,11.6-1.33,3.93-.29,7.78,1.79,11.82,2.06.92.06,1.47,5.09.56,6.04-1.07,1.1-1.52,2.06-.64,3.51.31.52-.05,1.3-.36,2-1.84,4.14-4.03,8.21-3.42,13-1.74.53-.71,1.91-.91,2.92-1.47,2.69-2.95,5.38-4.42,8.07-.68.34-.76,1.02-.93,1.65-2.29.91-.6,3.36-1.82,4.69-.66.18-.79.66-.7,1.26-1.19,2.28-2.26,5.03-3.88,6.58-2.23,2.13-2.04,4.59-2.93,6.89-.57.4-1.27.74-.88,1.65-2.8,1.89-4.22,4.67-5.1,7.83-.57,2.07-2.6,3.15-3.51,5.07-.5,1.06-.95,2.33-1.48,3.12-2.21,3.29-2.52,7.8-6.29,10.07-.78-.12-1.16.44-1.58.93h-.02c-.33.02-.54.13-.42.51,0,.38,0,.75-.01,1.13-.58.16-.49.62-.48,1.04-2.44,3.1-3.42,6.75-3.96,10.57-.18,1.28-1.28,2.02-2.17,2.58-2.07,1.3-2.89,3.23-3.87,5.33-.68,1.46-1.37,2.98-2.15,4.39-2.72,4.91-5.51,9.8-8.55,14.51-1.27,1.97-1.36,4.25-2.54,6.24-1.3,2.21-2.05,4.63-3.89,6.67-2.84,3.17-6.54,5.88-6.69,10.97-.04,1.26-2.2,2.76-2.53,4.44-.73,3.73-4.35,5.38-5.73,8.48-1.35,3.06-3.45,5.67-4.63,8.85-.87,2.33-1.76,5.02-3.97,6.56-2.51,1.75-1.91,4.62-2.85,6.91-.69,1.69-1.23,3.18-3.23,3.62-.56.12-1.52.73-1.47.94.94,4.28-5.23,5.67-4.02,10-2.11.96-1.21,4.07-3.7,4.96-1.22.44-1.89,1.79-1.8,3.51.06,1.18-.38,2.53-1.96,3.35-2.68,1.39-3.4,4.37-4.35,6.99-.5,1.36-1.46,2.53-1.9,3.71-1.5,4.06-5.62,6.29-6.8,10.49-.62,2.22-1.57,4.22-3.62,5.7-3.45,2.48-5.01,6.21-5.47,10.31-.15,1.3-.85,2.49-1.55,2.85-2.11,1.06-2.11,3.01-2.22,4.7-.1,1.39-.13,2.38-1.51,3.06-1.6.79-2.61,2.3-3.2,3.87-1.6,4.23-5.07,7.15-7.38,10.89-1.18,1.92-1.21,4.1-2.37,6.02-.73,1.21-1.65,2.39-2.34,3.67-1.96,3.62-4.46,6.97-5.42,11.08-.09.39-.4.83-.73,1.06-1.64,1.15-3.06,2.37-2.5,4.69.05.19-.11.53-.28.66-3.1,2.34-4.51,5.92-6.67,8.97-3.15,4.47-5.39,9.4-8.01,14.12-2.07,3.73-2.77,8.28-6.13,11.26-3.23,2.87-6.08,6.18-9.86,8.42-2.67,1.58-5.56,2.17-8.54,2.93-4.22,1.08-8.32,2.41-12.72,2.47-.71.01-1.1.61-1.43,1.1-.62.91-1.69,1.39-2.49,1.28-3.77-.5-6.63,1.66-9.8,2.97-2.63,1.09-5.46.75-8.16.41-2.05-.25-3.92-.8-5.86.46-.65.42-1.74.24-2.63.23-2.31-.03-4.33.74-6.13,2.11-1.37,1.05-2.91.53-4.36.57-2.32.07-4.58-.15-6.33,1.98-.6.72-1.85.84-2.98.78-4.78-.25-9.41.26-14.08,1.66-4.28,1.28-8.88,1.53-13.33,2.26-4.18.68-8.42-.36-12.63,1.2-1.7.63-4.14.42-6.25.72-1.49.21-2.16.89-3.11,1.93-2.19,2.37-3.5,5.39-6.2,7.44-1.8,1.37-3.04,3.6-3.37,6.11-.22,1.7-.37,3.34-2.88,3.7-1.76.25-3.6,1.38-3.59,3.85,0,1.63-1.69,2.26-2.61,2.99-3.68,2.88-6.04,6.4-7.18,10.9-.24.93-1.22,1.61-2.28,2.07-2.76,1.2-5.48,2.75-6.38,5.8-.84,2.85-3.47,3.93-5.18,5.85-1.1,1.24-1.92,2.4-2.2,3.87-.32,1.7-.35,3.07-2.62,3.68-1.51.4-3.46,2.19-3.84,3.38-1.21,3.79-5.23,5.25-6.45,9.27-.8,2.65-3.87,5.09-6.55,7-.42.3-1.17.63-1.18.96-.11,3.74-4.27,3.6-5.73,6.11-1.44,2.47-3.31,4.65-5.68,6.46-1.72,1.32-2.99,3.32-4.24,5.16-1.68,2.47-4.25,4.13-5.82,6.7-.45.73-.93,1.17-.66,2.23.29,1.14-.64,2.16-1.55,2.88-2.08,1.65-3.8,3.3-3.87,6.36-.04,2.14-2.45,2.74-4.06,3.63-1.5.83-2.76,1.45-3.54,3.28-.64,1.5-2.68,2.23-3.05,4.29-.12.64-.52,1.38-.6,2.17-.14,1.39-.7,2.62-2.18,2.98-2.91.71-4.95,2.89-7.46,4.27-1.55.85-1.7,2.79-1.66,3.92.07,2.01-1.31,2.65-2.21,3.73-1.84,2.2-4.24,3.83-5.55,6.64-.69,1.49-2.68,2.46-4.36,3.3-1.45.73-2.43,1.77-3.36,3.29-.86,1.4-2.38,2.83-3.74,4.01-3.07,2.69-5.12,6.27-8.37,8.84-1.46,1.16-2.64,2.99-3.86,4.51-1.06,1.33-2.69.78-3.39,2.01-1.01,1.78-2.54,2.92-4.16,4.11-1.91,1.39-6.94,2.61-8.95,1.59-3.73-1.89-6.63-4.06-6.81-9.08-.06-1.76,1.79-3.29.4-4.98,1.74-1.37.55-2.64-.11-3.95-.22-.44-.57-1.11-.4-1.41,2.48-4.23-.38-8.12-.95-12.09-.17-1.15-2.53-2.08-2.72-3.98-.23-2.31-.71-4.56-1.32-6.81-.45-1.64,2.13-2.29,1.78-4.38-.34-2.04-.12-4.28-1.56-5.84-1.29-1.4-1.16-3.16-.9-4.35.71-3.3-.11-6.28-.5-9.45-.24-1.99.46-4.56.82-6.86.45-2.95-.1-5.62-2.27-7.78-.41-.41-.75-.72-.69-1.33.03-.36.15-.86-.03-1.06-2.18-2.31-2.47-4.9-1.85-7.96.15-.71.06-1.82.35-2.63.49-1.36.74-2.53-.46-3.67-.32-.31-.65-1.12-.48-1.34,3.27-4.41.52-8.69-.26-12.98-.53-2.93-1.94-5.7-1.64-8.79.07-.71-.23-1.29-.83-1.52-.6-.22-1.04.33-1.22.82-1.09,3.12-3.78,4.49-6.55,5.25-1.85.51-2.64,1.75-3.75,2.87-1.75,1.75-3.24,4-5.34,5.09-2.29,1.2-4.65,2.28-6.79,3.75-.67.46-1.35.88-1.7,1.79-.52,1.38-1.54,2.35-3.13,2.54-.33.04-.75.18-.95.42-2.2,2.62-5.43,3.81-8.14,5.69-4.84,3.37-8.7,8.24-14.64,9.94-.86.25-1.54.83-1.81,1.44-1.25,2.86-3.47,4.54-6.26,5.62-3.12,1.21-4.89,4.07-7.31,6.13-1.14.98-2.52,1.44-3.69,2.37-3.04,2.42-6.72,4.02-9.98,6.19-4.64,3.09-9.28,6.23-13.66,9.68-2.9,2.28-6.2,3.94-9.02,6.31-3.41,2.87-7.86,3.96-11.36,6.67-1.13.87-2.19,1.86-3.26,2.77-2.18,1.86-4.91,2.65-7.28,4.02-3.68,2.12-7.66,3.95-11.66,5.58-.35.14-.82-.03-1.71-.08,6.05-4.01,11-8.72,16.67-12.58,2.78-1.89,6.42-3.33,7.87-6.95.12-.3.47-.69.76-.72,4.13-.5,5.97-3.99,8.6-6.46,2.09-1.97,5.11-2.71,7.02-4.91,2.82-3.24,6.76-5.05,9.61-8.53,2.26-2.75,6.29-4.33,8.6-7.63.33-.48,1.72-.11,2.56-.35,3.06-.87,4.5-3.7,6.57-5.72,3.36-3.29,6.68-6.62,10.65-9.17.87-.55,1.47-1.09,1.94-1.99.82-1.57,1.93-2.45,3.84-3.13,2.27-.81,4.37-2.87,5.63-5.14.54-.98,1.17-1.37,1.99-1.72,2.98-1.28,5.29-3.23,6.87-6.14.55-1,1.46-1.79,2.94-2.03,1.4-.23,2.78-.94,3.78-2.45,1.36-2.06,3.64-3.48,5.26-5.24,2.99-3.27,7-5.46,9.49-9.19.19-.29.5-.65.79-.69,3.8-.54,5.65-4.15,8.81-5.61,2.31-1.07,3.87-3.14,6.26-4.09,1.53-.61,1.65-2.77,3.05-3.76.4-.28.03-.85-.43-1.04-3.11-1.29-1.63-3.38-1.09-5.45.74-2.82.97-5.82-.59-8.37-1.57-2.56-.73-5.14-.39-7.57.18-1.3.51-2.34-.29-3.41-.48-.64-.5-1.12-.2-1.91.69-1.79.67-3.6.36-5.59-.66-4.23-.85-8.55-1.15-12.83-.11-1.52-.22-2.05-2.17-1.68-2.18.41-4.54.41-6.88-.25-2.97-.84-5.91.61-8.84,1.07-2.01.31-3.71-.36-5.54-.46-1.93-.1-3.98-1.15-5.81,1.02-.78.92-2.85.56-4.38.59-4.56.08-9.09.37-13.68.09-2.64-.16-5.48.71-8.12.16-5.49-1.14-10.97-2.06-16.59-2.07-1.43,0-2.89-.19-4.12.77-.41.32-.82.26-1.26.17-6.52-1.23-13.06-2.05-19.7-.96-1.04.17-2.29.24-3.18-.18-4.48-2.12-9.02-1.81-13.71-.95-1.83.33-3.88.5-5.71-.62-2.52-1.54-5.52-.61-8.16-1.48-3.61-1.19-7.16-.62-10.73.03-2.71.5-5.2-1.17-7.72-.97-3.97.32-7.99-.11-11.78-.46-3.65-.34-7.61.77-11.13-1.14-.43-.23-1.22-.34-1.56-.1-4.21,3.06-8.6-1.29-12.96.31-.93.34-2.83-1-4.43-.46-.68-.15-1.37-.35-2.01.13-1.5.46-2.71,1.37-4.55.02-2.78-2.04-6.77-1-9.78-3.1-.38-.27-2.45-.06-3.47.49-2.41,1.29-4.69.5-7.03.02-.26-.05-.55-.2-.77-.14-5.2,1.47-10.22-.46-15.16-1.3-5.39-.92-10.81,1.07-16.04-.88-3.63,1.73-6.94-.5-10.14-1.33-3.14-.81-6.18-1.19-9.35-1.44-1.53-.12-2.35,1-3.67,1.23-4.72.84-8.71-1.46-12.76-2.98-1.85-.69-4.41-1.48-5.26-3.86-.63-1.76-1.57-3.47-.12-5.49,1.57-2.19,2.13-5.16,5.18-6.14.54-.17.75-.85.87-1.54.35-1.9,1.51-2.91,3.55-2.71,1.81.17,3.3-.48,4.46-1.86,1.46-1.74,3.48-1.75,5.49-1.96,2.69-.27,5.54-.06,7.39-2.8,1.2-1.78,3.58-2.21,5.29-2.39,2.29-.24,4.37-.97,6.17-1.95,3.09-1.68,7.2-1.76,9.1-5.46.39-.76,1.2-.8,2.06-.9,1.42-.17,3.15-.34,3.79-1.89.74-1.78,1.97-1.45,3.27-1.14,2.03.49,3.86.78,5.61-1.01,2.03-2.08,5.42-2.12,7.36-4.52.22-.27,1.13-.25,1.55-.03,1.43.74,2.2.2,2.96-1.04,1.13-1.84,3.12-1.21,4.64-1.03.99.12,1.65-.01,1.94-.67.83-1.87,2.31-2.22,4.09-2.17,1.16.03,2.25-.07,2.82-1.36.13-.29.55-.72.76-.68,2.73.55,4.19-1.47,5.97-2.86.26-.21.62-.5.89-.46,4.58.76,6.64-2.94,9.45-5.29.98-.82,2.27-1.73,3.33-1.15,2.9,1.61,4.59-1.29,6.97-1.64,2.11-.31,3.97-2.16,6.32-2.19.94-.01,1.45-.47,2.03-1.05,1.29-1.3,2.58-2.6,4.73-1.91.7.22.98-.62,1.42-1.01,1.57-1.42,2.84-3.33,5.49-2.72.49.11,1.24-.58,1.78-1.01.47-.38.75-1.24,1.23-1.34,3.3-.68,5.66-3.87,9.39-3.44,1.18.14,1.8-.58,2.41-1.79.84-1.66,1.82-3.37,4.71-2.41,1.71.57,4.13-.45,6.07-1.19,2.4-.93,4.42-2.57,7.22-2.81,1.63-.14,2.68-2.55,4.68-2.52,1.69.02,2.94-.78,4.4-1.41,1.32-.58,2.03-1.49,2.34-2.47.72-2.23,2.62-2.53,4.33-3.15,1.61-.59,3.4-.64,5.06-.94,3.11-.55,5.26-2.53,7.62-4.07,2.69-1.76,5.64-3.14,8.56-3.48,4.25-.49,7.16-3.04,10.33-5.15,2.03-1.35,3.63-3.19,6.36-2.59,1.53.33,2.74-.56,3.93-1.23.67-.37,2.39-1.17.2-2.06-.19-.08-.45-.4-.41-.55.54-2.56-.94-4.81-1.1-7.25-.1-1.65.04-3.14-1.25-4.69-1.07-1.29.45-3.21.64-4.88.23-1.93.32-3.88-.2-5.62-.79-2.64-.35-5.65-1.51-7.91-2.01-3.94.06-8.09-1.41-11.95-.37-.98-.16-2.36.2-3.41.4-1.18.59-2.51.19-3.4-1.74-3.86-.74-7.9-.97-11.83-.17-2.79-1.71-5.59-.34-8.44.67-1.4.59-3.28-.46-3.78-1.27-.61-2.91.26-3.68,1.83-.5-.23-.74-.13-.61.47Zm436.27-92.15h0c-.54.17-1.27-.27-1.6.53-3.42,1.59-6.32,4.4-10.39,4.52-.42.01-.96.16-1.22.45-1.42,1.59-3.26,1.6-5.16,1.54-.51-.02-1.36-.01-1.49.26-1.63,3.26-5.52,2.62-8.1,4.65-2.56,2.01-5.9,4.23-9.38,5.03-2.83.65-5.28,3.07-8.52,1.98-1.07-.36-2.01.21-2.46,1.14-.96,1.95-2.97,2.59-4.62,3.01-4.61,1.18-8.6,3.59-12.72,5.75-1.01.53-1.88,1.19-3.05,1.45-3.72.8-7.72,1.01-10.22,4.6-.2.29-1.16-.04-1.52.24-2.56,1.93-5.42,3.36-8.3,4.67-1.97.89-3.23,3.42-5.3,3.26-4.75-.35-7.97,4.18-12.67,3.53-.05,0-.11.13-.18.19-3.97,3.16-8.26,5.64-13.45,6.15-.61.06-.49.63-.54,1.05-.69.11-1.42.18-1.59,1.07-1.27,1.41-2.22,2.93-4.5,3.34-5.75,1.05-11.58,2.01-16.62,5.34-.73.48-1.52.81-2.48.27-.54-.31-1.26-.31-1.44.6l-.05.08c-1.39,1.03-3.24.09-4.56.93-2.71,1.74-5.88,2.74-8.38,4.65-2.33,1.79-5.87,1.94-7.11,5.26-.33.87-1.34,1.27-2.5,1.09-5.85-.91-10.04,2.38-14.06,5.85-1.19,1.03-2.32,1.51-3.84,1.82-2.25.46-5.02-.22-6.65,1.78-2.1,2.57-5.08,3.01-7.85,3.41-2.56.37-4.38.95-5.27,3.51-.46,1.3-1.27,1.88-2.89,2.13-4.3.68-8.72,1.31-12.28,4.23-1.12.92-2.4,1.32-3.78,1.63-1.21.27-2.65.14-3.59.63-3.02,1.56-5.22,4.38-9.02,4.93-1.48.21-3.07,1.43-4.87,1.44-.53,0-1.26-.14-1.57.15-2.31,2.11-5,3.65-7.55,5.42-2.05,1.43-4.36,1.65-6.43,2.61-2.38,1.1-5.27-.08-7.39,2.97-2.38,3.43-7.01,4.2-11.02,4.25-2.17.03-3.86.45-5.24,1.68-3.07,2.73-7.37,2.95-10.51,5.47-.42.34-1.47.23-2.07-.03-2.41-1.06-4.17.84-4.98,2.05-1.75,2.63-4.03,3.21-6.77,3.54-2.41.29-5.33.47-6.69,2.44-2.09,3.02-5.14,2.84-7.97,3.51-.69.16-1.54.03-1.82.74-.56,1.45-1.71,1.24-2.87,1.41-2.16.32-4.82.21-6.31,1.45-3.16,2.63-7.21,3.6-10.31,6.23-.87.74-2.39.67-3.38,1.32-2.89,1.91-5.92,3.42-9.33,4.18-1.11.25-2.22.68-3.23,1.2-2.7,1.39-5.66,2.03-8.44,3.18-2.35.97-4.29,2.88-7,3.07-.17.01-.42.4-.45.63-.28,2.61-2.5,3.03-4.35,3.75-2.37.92-5.02,1.46-7.37,1.7-3.85.4-5.42,3.47-8.08,5.14-1.61,1.02-2.66,2.56-4.94,2.82-1.23.14-2.53.08-3.69.08-1.99.01-2.04,2.15-3.5,2.41-3.31.59-6.7.96-8.55,4.4-.48.89-1.46.42-2.22.49-1.32.11-2.68-.23-3.98.29-3.42,1.37-5.52,5.31-9.83,5.01-.49-.03-1.11.57-1.52,1.02-.46.51-.93.84-1.61.71-2.3-.43-3.86,1.29-5.44,2.3-2.24,1.43-4.71,2.08-7,3.2-2.09,1.02-5.05.18-6.34,2.91-.09.19-.65.18-1,.22-3.57.39-6.61,2.19-9.86,3.5-2.02.81-3.88,1.4-5.18,3.28-.64.93-1.79,1.12-2.96,1.42-3.39.88-7.34.99-9.08,5-.15.35-.68.78-1.02.76-2.26-.14-4.19,1.15-6.44,1.32-2.22.16-4.99.88-6.35,2.41-1.69,1.89-4.09,2.72-5.56,4.71-.5.67-1.23.91-2.13.76-1.64-.28-3.06.27-4.56.99-3.9,1.86-8.29,2.84-10.94,6.74-.57.84-1.49.36-2.25.45-2.49.29-5.15.02-7.01,2.29-.4.49-1.02.65-1.69.68-5.03.2-9.59,1.31-12.36,6.15-.41.72-1.39,1.63-2.06,1.59-3.07-.2-5.47,1.83-8.33,2.26-3.11.46-6.17,1.05-8.04,4.03-.32.51-.84,1.01-1.56.82-2.17-.59-4.13,1.06-6.3.57-.77-.18-1.14.35-1.21,1.09-.69.11-.46.65-.5,1.07-3.12-.24-5.44,2.28-8.57,2.4-1.38.05-4.58-.95-4.16,2.67,0,.06-.44.17-.67.27-4.37,1.75-9.86,1.57-12.08,7.01-.22.55-.64.54-1.07.55-.98.02-1.97-.11-2.89.42-.46.27-1.07.37-.98,1.07.09.71.67.71,1.21.71,1.08,0,2.17.12,3.23-.02,6.21-.83,12.4,3.26,18.62.05.24-.12.67.2,1.02.24,3.16.32,5.89,2.15,9.42,1.67,5.14-.7,10.28,1.21,15.56.9,2.47-.15,5.2-.79,7.53,0,3.23,1.11,6.58,1.17,9.82,2,.84.21,1.62.24,2.28-.8.8-1.27,1.76-2.03,3.81-1.54,1.46.35,2.88,2.05,5.16.62,1.13-.71,3.75-.81,5.85-.53,4.35.57,8.54,4,13.16,1.05.12-.08.36-.17.4-.12,1.96,2.2,4.91,1.08,7.19,2.17.88.42,1.79.44,2.56-.06,2.96-1.94,6.26-.24,9.28-.94,2.22-.51,4.08,1.4,6.18.61,2.07-.77,3.8-.18,5.65.74.99.49,1.98,1.8,3.19,1.12,1.33-.74,2.46-.51,3.78-.18,1.77.44,3.45.54,5.39-.12,2.39-.81,5.07-.83,7.54.61.69.41,1.74.32,2.7.32,2.92-.02,5.73-1.7,8.61-.73,3.05,1.02,5.95,1.01,8.87-.23.29.37.62.41.99.12,1.37-.86,2.99.55,4.03-.03,3.4-1.91,6.02.13,8.9,1.18,2.78,1.01,5.77,1.48,8.61,1.02,3.86-.63,7.7.22,11.53-.48,2.37-.43,4.55,1.8,6.86,1.25,2.51-.59,5.28.99,7.58-1.01.18-.15.81.22,1.22.34,2.49.72,4.85.96,7.38-.28,1.35-.66,3.08-.95,4.76-.11,1.4.7,6.37-1.16,6.86-2.6,1.01-2.96,3.93-3.83,6-5.47,2.37-1.89,6.46-1.45,7.37-5.52.11-.48,1.1-.72,1.62-1.14,4.28-3.44,9.84-5.12,13.1-9.99,1.45-2.16,3.57-3.82,6.32-4.49,2.21-.54,3.96-1.89,5.41-3.72,1.19-1.5,2.16-3.55,4.77-2.95.66.15.78-.7.9-1.15.34-1.23,1.28-1.86,2.23-2.5,1.66-1.13,3.32-2.44,4.73-3.71,3.47-3.12,6.26-6.98,11.27-7.83.3-.05.5-.5.8-.68,2.54-1.56,3.85-4.03,4.86-6.69.46-1.21,1.12-1.68,2.51-1.72,2.51-.06,5.27-1.04,6.55-2.83,2.15-3,4.33-5.36,8.09-5.89.56-.08.46-.65.67-1.02,2.09-3.75,5.78-6.03,8.53-9.18.32-.37.84-.56,1.46-.39,2.83.76,5.09-.89,6.59-2.66,1.54-1.82,2.99-3.51,5.17-4.44.69-.29.88-.83,1.2-1.33,1.12-1.73,2.08-3.67,4.76-2.63.32.13,1.04-.07,1.21-.34,1.75-2.87,5.77-3.71,6.6-7.45.16-.74,1.08-1.44,1.81-1.91,4.26-2.72,8.41-5.65,12.91-7.9,1.98-.99,1.45-3.03,2.86-3.96,3.22-2.13,6.74-3.83,9.66-6.42,1.36-1.2,3.63-.51,4.62-2,1.15-1.73,3.24-2.81,3.47-5.25.07-.73,1.09-2.18,1.99-1.83,1.95.76,2.73-.86,3.97-1.48.45-.22.78-.94,1.33-.74,2.14.77,2.53-.86,3.22-2.18.62-1.18,1.13-2.79,2.7-2.68,1.32.09,2.06-.52,2.71-1.29,2.23-2.64,5.34-4.22,8.09-6.02,2.88-1.89,5.43-3.96,7.6-6.5.96-1.12,1.78-1.97,3.25-2.39,3.01-.86,5.97-2.37,7.32-5.15.99-2.04,2.53-3.16,4.15-3.66,3.21-.99,5.37-3.5,8.27-4.87.55-.26,1.07-.8,1.36-1.56.61-1.62,5.64-4.67,7.29-4.6,2.43.11,6.2-2.48,6.42-4.86.17-1.75,1.3-2.33,2.29-3.32,1.62-1.62,3.93-.53,5.66-1.74,3.36-2.35,6.02-5.56,9.55-7.69,1.12-.68,2.68-1.24,3.15-2.26,1.32-2.87,4.79-3.44,6.08-6.22.23-.5.82-.15,1.24-.24,5.08-1.13,8.58-5.1,13.07-7.29.15-.07.37-.25.37-.38-.03-2.11,2.14-2.18,2.94-3.21,2.98-3.81,8.4-4.26,10.95-8.45.29-.47.77-1.07,1.53-.89,1.4.33,2.14-.63,2.93-1.47,1.29-1.37,3.02-2.13,4.21-3.85.73-1.06,3.1-2.01,5.04-1.67,2.61.46,3.86-.95,4.79-3.05.39-.87.91-1.55,1.88-2.06,3.42-1.83,7.27-2.52,10.32-5.48,2.38-2.31,5.46-3.91,7.2-6.99.65-1.14,1.53-2.17,3.02-2.42,2.84-.47,5.8-.41,7.95-3.04.69-.84,2.15-1.39,3.61-1.35,1.01.03,2.66-.54,2.53-1.43-.39-2.68,2.42-2.46,3.15-4.01.26-.55.99-.38,1.3-1.14,1.01-2.43,2.99-3.05,5.44-2.22,1.3.44,2.33.27,3.34-.78,2.39-2.5,4.89-4.91,7.35-7.35.54.21,1.07.39,1.62.05,1.07.24,2.36.53,3-.48,1.13-1.79,2.87-2.69,4.42-3.93,1.58-1.26,3.63-1.89,4.86-3.62,1.94-2.75,5.28-3.69,7.69-5.92,1.73-1.6,3.97-2.83,6.09-3.95,1.81-.96,3.22-2.9,5.37-2.87,1.41.01,2.3-.35,3.16-1.34,1.16-1.33,2.28-3.53,3.86-3.44,3.64.21,5.68-2.35,8.35-3.8.31-.13.68-.2.69-.65.58-.37,1.01-.84,1.14-1.54,2.51-1.39,4.93-2.88,6.9-5.07-2.57.83-5.09,1.72-6.97,3.82-.49.16-1.15-.14-1.47.43-1.72,3.01-4.26,3.24-7.3,2.39-1.11-.31-2.24-.24-3.1,1.17-1.31,2.12-4.14,2.38-5.86,4.16-1.86,1.93-4.67,2-6.91,3.26-2.04,1.14-3.99,2.84-5.99,3.48-2.86.91-5.8,1.92-8.82,2.42-.79.13-1.65.48-1.75,1-.32,1.65-1.64.97-2.51,1.31-.58.07-.84.5-1.08.95Zm-143.97,266.97c-.84.05-1.4.57-2.08,1-1.94,1.2-1.28,3.83-2.53,4.86-2.88,2.37-5.07,5.63-8.71,7.09-.64.26-1.42.8-1.17,1.6.26.86,1.16,1.03,2.01.94.62-.07,1.23-.21,1.83-.36,4.37-1.09,8.36-3.78,13.19-2.97.69.12,1.61-.23,2.22-.65,2.57-1.78,5.14-2.77,8.02-.72.61.44,1.2.05,1.79-.02,3.69-.45,7.18-2.21,11.09-1.29,1.07.25,2.46-.32,3.32-1.62.96-1.44,2.26-2.29,4.24-1.28,1.18.6,2.42.44,3.92-.17,2.08-.85,4.66-.37,6.47-2.29.27-.29,1.02-.16,1.51.19.73.52,1.47.39,2.27.07,4.01-1.6,8.05-2.9,12.48-1.93.94.21,1.9-.38,2.69-.94.43-.3.76-.83,1.35-.76,3.79.41,7.36.1,10.23-2.83.23-.23.79-.5.92-.4,1.8,1.41,2.75-.54,3.41-1.26,1.83-2.01,4.44-3.51,4.91-6.58.1-.65.54-1.43,1.07-1.82,2.43-1.77,2.77-4.25,2.87-6.98.05-1.24.06-2.86,2.31-2.77,1.09.04,2.5-.72,2.5-2.22,0-2.32.61-4.5,1.74-6.38,1.62-2.7,4.01-4.92,5.03-8.03.11-.33.7-.57,1.11-.71,1.56-.56,2.31-2.06,2.24-3.27-.21-3.62,2.92-5.75,3.55-8.95.19-.96,1.18-1.55,2.02-2.24,1.64-1.35,3.4-2.64,4.14-5.07,1.02-3.35,2.06-6.88,4.56-9.52,1.15-1.21,2.99-1.86,2.95-3.9-.05-2.47,1.56-4.5,1.66-6.95.05-1.16.85-2.12,2.06-2.56.98-.35,1.62-1.12,2.22-1.9,2.16-2.8,3.39-6.32,6.65-8.29.88-.54,1.11-1.77,1.28-2.86.22-1.34.67-2.43,2.08-3.16,1.53-.79,2.73-2.38,2.36-4.07-.26-1.18,0-1.82.53-2.64.58-.92.99-1.88.9-3.03-.04-.56-.32-1.25.45-1.66,3.3-1.73,5.22-4.76,6.95-7.83,1.56-2.77,2.64-5.82,4.06-8.68,1.07-2.17,2.06-4.34,2.4-6.75.08-.57.21-1.11.86-1.19,1.75-.2,2.16-1.53,2.65-2.89.33-.9.81-1.86,1.78-2.23,1.7-.64,2.6-1.82,2.89-3.57.41-2.55,1.75-4.87,1.72-7.58-.01-1.12.6-2.36,2.35-2.59,1.29-.17,3.12-.38,3.51-1.99.75-3.06,2.49-5.7,3.3-8.75.67-2.53,1.49-5.87,3.37-7.01,2.55-1.55,2.93-3.68,3.75-5.84.2-.52.48-.83.77-1.2,1.82-2.31,3.6-4.59,5.04-7.21,1.46-2.65.6-7.01,5.16-7.62.29-.04.43-.91.71-1.36,1.63-2.72,4.42-4.88,4.03-8.56-.01-.11.44-.24.63-.42,1.13-1.06,1.66-2.41,1.82-3.92.26-2.5,1.28-4.6,3.28-6.15,1.31-1.01,3.02-2.42,2.89-3.68-.16-1.58.73-1.81,1.41-2.42.73-.66,1.41-1.23,1.77-2.25.46-1.3,1.19-2.5,2.84-2.76,1.07-.16,2.04-1.05,1.74-2.01-.39-1.25.29-1.94.69-2.81.98-2.14,2.06-4.23,3-6.39,1.21-2.78,2.89-5.69,5.16-7.15,3.46-2.22,3.36-6.07,5.54-8.71-1.41-.47,1.76-2.86-.84-2.45-2.17.34-4.44,1.42-4.46,4.31,0,.91-.38,1.31-1.13,1.56-.39-.4-.62-.3-.71.23-.74.95-1.82,1.39-2.86,1.87-3.38,1.57-5.89,4.5-8.06,7.12-3.06,3.72-6.6,6.99-9.59,10.75-.7.88-1.28,2.2-1.06,2.74,1.1,2.67-1.36,3.63-2.46,4.65-2.03,1.89-4.76,3.02-7.15,4.53-.59.37-1.08.74-1.46,1.59-.91,2.04-2.1,4.29-4.21,5.22-3.41,1.51-5.22,4.29-7.05,7.24-1.05,1.69-2.1,3.93-3.7,4.61-3.17,1.34-3.21,5.75-6.86,6.29-.09.01-.12.49-.18.74-.57,2.59-2.42,4.05-4.71,4.9-.78.29-1.46.52-1.98,1.17-1.99,2.47-2.68,6.12-6.35,7.09-.18.05-.35.36-.41.59-1.27,4.68-4.68,7.16-8.94,8.78-1.55.59-2.66,1.59-3.34,3.18-1.34,3.12-4.38,5.08-5.7,8.25-.46,1.09-1.89.82-2.85,1.2-1.45.59-2.79,1.29-3.44,2.71-1.15,2.52-2.07,5.01-5.06,6.19-1.2.47-2.64,1.75-2.21,3.71.06.26-.35.78-.67.95-1.28.67-1.48,1.94-2.05,3.09-1.03,2.08-1.23,5.05-4.24,5.49-2.29.34-3.78,1.58-5.02,3.33-.28.39-.23.97-.98,1.06-3.31.43-3.7,3.68-5.07,5.79-1.07,1.66-2.41,3.26-3.56,4.72-1.77,2.26-4.03,4.04-4.75,7.05-.33,1.38-1.06,2.41-2.89,2.49-1.1.05-2.61.73-3.16,1.62-1.65,2.63-3.61,5.03-5.33,7.6-1.65,2.47-3.85,4.6-4.54,7.71-.35,1.56-1.21,2.64-3.26,3.13-2.17.51-4.29,1.83-5.44,4.32-.81,1.76-1.24,3.97-2.55,5.18-2.3,2.14-6.08,2.69-6.8,6.53-2.76.35-2.8,3.05-4.09,4.68-2.27,2.86-4.45,5.81-6.99,8.42-2,2.06-3.27,4.78-6.01,6.23-1.36.72-2.67,1.9-2.4,4.01.07.54-.67,1.92-1.77,1.99-2.22.14-3.23,1.56-4,3.36-.82,1.93-1.72,3.74-3.97,4.48-.54.18-1.46.52-1.33,1.69.23,2.06-.83,3.49-2.7,4.34-2.31,1.04-4.58,1.9-4.6,5.25-.01,1.29-.81,2.77-1.08,4.25-.2,1.06-.78,2.56-2.34,2.55-4.21-.01-5.82,3.45-7.59,6.14-1.67,2.54-2.71,5.41-5.8,6.66-.64.26-1.41.75-1.27,1.56.25,1.56-.84,2.69-1.08,4.07-.36.89-.71,1.8-1.62,2.32Zm-48.85,19.78c1.18-2.01,2.75-3.83,3.24-6.17.4-1.87,1.35-2.49,3.3-2.56,3.39-.12,5.1-.84,5.55-5.28.18-1.82.45-3.99,3.28-3.86,1.35.07,1.96-1.12,2.56-2.06.44-.69.91-2.03,1.18-2.12,2.61-.84,4.02-2.92,5.08-5.08,1.51-3.05,4.84-4.63,5.87-8.15.48-1.63,2.42-2.9,3.27-4.66.6-1.24,2.83-.96,2.79-1.45-.17-1.96,1.23-3.12,1.7-4.64,1.32-4.26,3.13-7.89,7.49-9.7.31-.13.58-.42.81-.7,3.49-4.14,8.5-6.82,11.23-11.67.28-.5.7-.54,1.04-.67,1.95-.76,2.6-2.18,2.82-4.21.2-1.86.59-3.92,3.42-3.77,1.23.06,1.83-1.18,2.46-2.16,1.93-3,3.43-6.32,6.28-8.66,1.62-1.33,2.94-2.84,3.83-4.83.74-1.67,1.67-3.61,3.1-4.54,3.92-2.55,7.24-5.75,10.23-9.18,1.71-1.97,4.38-3.31,5.29-5.47,1.27-3.03,3.95-5.07,4.86-8.19.37-1.26,1.31-1.64,2.49-2.07,1.75-.63,3.83-.75,4.94-2.71.9-1.59,2.3-2.95,2.97-4.61,1.56-3.89,5.27-5.93,7.59-9.24,3.3-4.7,7.24-9.01,10.24-13.99.92-1.53,1.61-3.01,3.9-2.65,1.31.2,2.86-.6,2.41-2.07-1.29-4.17,2.57-5.51,4.14-8.06.48-.78,1.71-1.45,3.03-1.18,1.03.21,1.85-.31,2.43-1.23,1.59-2.49,3.48-4.88,5.31-7.05,1.88-2.23,3.6-4.73,5.76-6.78,1.51-1.44,2.69-3.18,4.54-4.36,1.18-.76,2.61.16,3.58-1.06,1.36-1.72,2.51-3.7,3.69-5.42,2.01-2.92,4.97-5.07,6.49-8.39,1.21-2.63,3.56-4.47,5.84-6.39,3.21-2.71,5.65-6.29,9.05-8.89.76-.58,1.03-1.95,2.01-2.04,2.67-.24,3.48-2.43,4.84-4.12,1.3-1.6,1.21-4.06,2.39-5.29,2.1-2.18,4.3-4.51,7.14-5.87,2.55-1.22,4.82-2.56,6.02-5.41.51-1.21.96-3.2,2.77-3.18,2.23.02,2.62-1.27,2.91-2.96.3-1.68.91-3.17,2.69-3.88.41-.16.91-.24,1.12-.94.5-1.69,1.81-2.86,3.38-3.44,3.49-1.28,5.26-4.38,6.61-7.25,1.08-2.28,1.98-3.42,4.44-3.83,1.19-.2,2.62-1.07,3.06-2.59,1.17-4.12,4.72-6.24,7.8-8.48,1.52-1.1,3.02-2.38,4.64-3.31,2.84-1.63,3.6-5.14,6.49-6.63,2.39-1.23,2.73-4.21,4.76-5.77,3.33-2.55,7.07-4.69,8.21-9.26.18-.72,1.01-1.78,2.21-1.64,2.84.34,3.94-1.66,5.16-3.65,1.16-1.9,2.67-4,4.61-4.59,2.27-.7,3.61-1.95,4.87-3.65,1.54-2.08,4.63-2.78,5.16-5.8.04-.26.51-.62.8-.63,2.49-.1,3.08-2.09,3.93-3.84.73.12,1.21-.26,1.45-.89.15-.39-.1-.64-.54-.68-.86-.09-1.32.33-1.46,1.15-2.91,1.04-5.61,2.59-8.64,3.37-.7.18-1.56.17-2.1.96-2.53,3.69-5.48,6.87-10.11,7.9-.33.07-.76.23-.91.48-1.84,3.12-6.32,3.1-7.82,6.63-.3.7-1.14.33-1.7.51-2.29.75-5.21.9-6.27,3.33-1.51,3.47-4.88,4.88-7.54,6.4-2.03,1.16-4.19,2.68-6.55,3.65-3.49,1.44-6.86,3.82-9.83,6.55-1.7,1.56-3.16,3.75-5.61,4.3-4.12.93-7.58,3-9.76,6.49-1.82,2.91-4.59,4.52-7.2,6.17-1.45.92-2.85,2.63-4.72,2.57-1.57-.05-2.26.65-2.95,1.76-.36.58-.76,1.41-1.3,1.56-4.04,1.14-5.88,5.53-10.57,6.3-3.57.59-6.53,4.03-8.65,7.41-.34.54-.58,1.32-1.22,1.21-2.69-.43-4.46,2.23-7.24,1.91-1.27-.15-3.16.65-3.03,2.91.05.83-.86,1.24-1.51,1.72-1.96,1.43-4.32,2.18-6.28,3.45-3.02,1.94-5.4,4.8-8.25,7.09-3.37,2.72-7.09,4.91-10.79,6.82-4.47,2.31-9.47,3.55-12.66,7.89-.4.55-.97.7-1.65.68-.49-.02-1.03-.19-1.42.4-2.03,3.03-4.06,6.05-8.19,6.43-.94.09-1.45.97-2.12,1.54-.73.62-1.47,1.48-2.32,1.67-1.98.45-3.35,1.46-4.13,3.31-.36.85-1.04,1.21-1.91,1.22-5.53.06-8.18,4.62-11.85,7.57-.67.54.28,1.95-.74,2.06-6.3.69-8.63,8.44-15.23,8.53-.24,0-.53.16-.71.33-1.79,1.77-4.36,2.46-5.79,4.92-.83,1.44-2.97,2.38-4.71,2.96-2.68.9-4.54,3.04-6.2,4.81-1.42,1.52-2.72,2.99-4.51,4.12-1.26.79-2.36,2.93-3.36,2.83-3.72-.4-4.81,2.36-6.5,4.51-.93.46-1.23,1.19-.96,2.18-1.9.55-3.7,1.44-5.08,2.77-2.46,2.35-5.3,4.15-8.28,5.53-2.49,1.15-5.22,1.55-5.74,4.9-.1.66-.93.7-1.47.99-1,.53-2.09,1.07-2.84,1.88-2.51,2.73-5.22,5.24-8.15,7.49-2.06,1.58-3.97,3.54-7.02,2.99-1.52-.27-1.15,1.23-1.48,2.04-.59.14-.43.67-.55,1.05-1.98,1.6-4.8,2.1-6.02,4.71-.27.58-1.07.52-1.58.77-1.76.87-3.81,1.63-5.12,2.82-1.69,1.52-3.21,2.99-5.4,3.72-1.53.51-3.39,1.3-3.82,2.7-.79,2.57-2.64,5-4.56,5.04-3.7.09-4.94,2.91-7.2,4.59-.44.32-.77.72-1.37.69-.39-.2-.46.06-.5.35-1.3,1.51-1.78,4.13-4.72,3.44-.15-.03-.63.64-.68,1.02-.35,2.46-2.14,3.27-4.2,3.82-2.09.56-3.22,3.01-4.96,3.4-2.94.64-4.06,2.44-5.05,4.78-.38.9-.94,2.13-1.89,2.09-2.05-.09-2.69,1.53-3.6,2.66-.46.56-.95,1.21-1.49,1.27-2.68.28-4.46,1.79-6.63,3.26-2.6,1.77-3.96,4.1-5.75,6.28-.99,1.21-1.92,2.24-3.76,2.02-1.61-.19-2.69.76-3.31,2.33-.19.47-.28,1.21-1.06,1.4-2.08.51-3.75,1.9-5.68,2.72-1.31.56-2.34,1.81-2.93,2.7-1.21,1.83-2.47,3.7-4.25,4.7-4.11,2.33-7.8,5.27-11.89,7.6-1.21.69-1.65,2.29-3.17,2.79-2.68.89-4.38,2.89-5.33,5.49-.19.53-.22.89-.89,1.08-6.15,1.75-11.24,4.91-14.56,10.63-1.66,2.86-5.12,3.54-7.59,5.47-1.35,1.05-2.54,2.16-4.5,2.46-1.41.22-3.17,1.42-3.23,3.41-.03,1.07-.63,1.28-1.38,1.65-5.14,2.46-10.35,4.84-12.24,10.98-.33,1.07-1.34,1.66-2.58,1.51-.85-.1-1.52.29-1.6,1.07-.47,4.61-1.64,9.38,2.5,13.12.59.53.9,1.38.65,1.95-1.06,2.4.19,4.71.13,7.07-.05,1.95.24,4.14,1.13,5.82,1.08,2.03,1.97,4.03,2.54,6.26.27,1.07.97,2.66,1.74,2.84,1.08.25,2.33-.88,2.9-2,1.68-3.37,3.95-5.92,7.9-6.5.31-.05.74-.36.82-.64.97-3.37,4.66-3.53,6.65-5.7,1.37-1.5,3.57-1.39,5.36-2.12,1.74-.7,3.69,1.07,3.8,3.01.12,2.32-.54,4.32-1.86,6.29-1.87,2.79-4.48,4.87-6.51,7.5-.88,1.14-2.99,1.52-3.52,2.71-1.43,3.16-4.41,4.4-6.66,6.52-.97.91-2.71.93-3.01,2.43-.52,2.65-2.1,4.52-4.32,5.76-1.54.86-1.38,1.88-1.06,3.2.57,2.36.93,4.77,1.61,7.1,1.47,5.03.41,10.3,1.93,15.43,1.72,5.81.85,12.2,3.39,17.96,1.01,2.29.75,4.68.66,7.22-.12,3.34,1.5,6.93,2.17,10.45.37,1.97,2.27,3.68.64,6.05-.7,1.02,0,2.61.99,3.54,3.74,3.48,2.01,7.61,1.48,11.6-.27,2.02.06,4.26,1.4,5.41,1.3,1.12,1.33,2.13,1.32,3.41,0,1.53-.09,3.06,1.13,4.24.41.39.77,1.23,1.5.56,3.29-3.05,7.72-5.12,8.73-10.14.25-1.25.92-1.91,2.32-2.14,1.7-.28,3.55-1.31,4.16-2.7,1.61-3.67,4.71-6.11,7.05-9.12,1.17-1.5,2.43-3.29,4.07-4.47,2.17-1.57,2.23-5.2,5.55-5.61.05,0,.11-.33.09-.5-.47-4.02,4.38-4.91,4.98-8.42.13-.75.87-1.54.98-2.58.13-1.28.78-3.01,2.09-2.98,3.05.07,4.17-1.91,5.11-4.09.78-1.81,3.25-1.65,3.78-3.68.28-1.07.71-2.24,1.44-3.02,3.39-3.63,6.84-7.21,9.96-11.08.71-.89,1.01-2.36,2.18-2.59,4.14-.82,4.81-4.92,6.96-7.49,1.85-2.21,4.96-4,4.78-7.62,0-.18.32-.43.54-.57,3.46-2.11,4.93-6.01,7.77-8.81,3.94-3.88,8.19-7.98,10.65-13.11,1.58-3.29,5.28-4.7,6.36-8.22.07-.22.34-.49.56-.55,4.23-1.16,5.12-5.09,6.75-8.33.37-.73.64-1.64,1.31-1.87,1.7-.58,2.31-2.08,3.15-3.36.73-1.12,1.74-1.97,2.55-2.94,1.67-2,3.74-3.57,5.17-5.92,1.58-2.6,2.84-5.63,5.27-7.61.96-.78,1.51-1.63,2.06-2.61.32.01.52-.08.39-.46Zm-214.1-150.38c.05,1.07-.1,1.95.17,2.66,1.11,2.85,2.74,5.5,3.07,8.63.04.35,0,.79.46.84,2.75.33,2.24,2.4,2.24,4.17,0,1.66.55,1.42,1.72.75,2.2-1.26,4.28-3.07,7.03-2.75,2.13.24,3.45-1.03,4.91-2.09.71-.51,1.6-.82,2.18-1.26,1.65-1.23,3.88-1.28,5.28-2.67,1.03-1.03,1.9-1.26,3.14-.75,1.78.73,3.15.3,4.23-1.34.57-.87,1.23-1.81,2.54-1.64,2.12.26,3.98-.48,5.53-1.82.89-.77,2.66.48,2.93-1.52.2-1.47,1.46-1.74,2.74-2.05,2.94-.71,5.42-2.49,8.07-3.84,1.6-.82,2.83-2.09,4.85-1.1.86.42,2.06.49,2.88-.07,3.44-2.34,7.12-4.12,11.02-5.56,3.07-1.13,6.06-2.55,8.94-4.13,1.27-.7,2.55-.28,3.83-.82,2.43-1.02,3.98-2.97,5.87-4.56,1.2-1.01,2.58-2.08,4.11-1.1,1.33.86,1.87.55,2.83-.51,1.78-1.97,3.34-4.22,6.76-3.81,1.57.18,3.99-.29,3.95-3.08,0-.19.5-.39.76-.59,2.23-1.69,4.32-2.96,7.56-2.81,5.59.27,10.5-2.49,15.16-5.39.68-.42,1.18-.9,2.08-.96,3.44-.24,6.83-.75,9.64-3.05.23-.19.71-.05,1.04-.16,1.57-.54,3.42-.42,4.27-2.45.39-.92,1.59-1.26,2.72-1.34,2.27-.16,4.27-1.08,6.2-2.26,2.72-1.67,4.91-4.67,8.77-3.69.44.11.73-.29,1.07-.61,1.27-1.21,3-1.75,4.26-3.12.74-.8,2.03-1.69,3.57-.74,1.02.62,1.93.23,2.49-1.07,1.12-2.59,3.93-3.45,6.09-3.96,3.28-.76,6.42-1.53,9.63-2.66,3.56-1.26,5.21-5.55,9.42-5.24.81-2.64,3.32-2.69,5.3-3.67,3.36-1.66,6.79-2.54,10.52-2.73,1.85-.1,3.9-.53,5.42-1.5,2.14-1.37,4.67-1.28,6.86-2.63,2.93-1.8,5.86-4.03,9.62-4.05.13,0,.3-.2.39-.34,1.89-2.85,5.92-2.1,7.94-4.73.08-.11.35-.13.52-.11,4.01.4,5.86-3.18,8.74-4.84,1.92-1.11,3.82-3.53,5.84-2.7,4.16,1.7,6.46-1.6,9.03-3.05,3.24-1.83,6.37-3.48,9.89-4.78,3.14-1.15,6.83-1.23,9.36-4.18,1.2-1.39.51-1.83-.35-2.39-1.39-.9-3.21-1.26-4.13-2.7-1.7-2.66-4.37-2.98-7.09-3.59-1.46-.33-3.18.06-4.42-1.32-1.61-1.78-3-4.01-6.02-3.6-.36.05-1.07-.74-1.56-1.08-2.82-1.96-4.34-5.38-7.61-6.77-2.13-.91-4.18-1.95-6.05-3.34-3.44-2.54-8.15-3.05-11.1-6.08-2.86-2.94-6.43-4.22-9.89-5.72-2.72-1.18-4.79-3.2-7.34-4.49-2.66-1.35-3.45-4.81-6.79-5.53-1.41-.3-3.02-.69-4.43-1.13-2.17-.67-2.31-3.18-4.1-3.43-2.05-.29-3.55-1.2-5.11-2.41-2.11-1.64-4.02-3.53-6.62-4.6-2.11-.87-4.63-1.34-6.05-3.36-.86-1.23-2.25-1.93-3.24-1.88-2.7.13-4.62-1.25-6.8-2.33-.98-.48-1.84-1.17-2.71-1.71-2.92-1.78-6.29-2.91-8.78-5.3-1.23-1.18-2.49-1.92-4.1-2.17-4.58-.71-9.09-1.68-12.6-4.98-2-1.88-3.15-1.07-4.37.83-.54.85-.88,2.47-1.88,2.33-2.48-.36-3.9,1.2-5.35,2.53-1.72,1.58-3.83,2.1-5.88,2.39-3.39.49-4.92,3.59-7.75,4.91-3.55,1.65-6.77,3.92-10.97,3.27-.97-.15-1.99-.11-2.82.54-2.85,2.23-5.6,4.66-9.65,4.07-.19-.03-.41.37-.65.44-2.42.69-4.2,2.92-6.84,3-2.76.08-4.74,2.27-7.56,2.52-1.15.1-2.45,1.92-4.22,1.82-1.53-.08-2.89.41-4.35.85-2.83.87-4.96,4.4-8.59,2.43-.11-.06-.46.23-.64.41-1.59,1.54-3.75,1.93-5.63,2.88-2.69,1.36-6.15,1.05-8.17,3.85-.51.7-1.35.43-2.01.41-1.31-.05-2.45.46-3.54.96-2.68,1.21-5.31,2.55-7.91,3.92-1.29.68-2.91.03-4.02,1.02-4.11,3.68-9.05,5.69-14.24,7.14-1.68.47-2.43,2.19-4.38,2.33-4.14.3-7.81,1.82-10.35,5.4-.47.66-1.3.98-2.17.85-.88-.13-1.47.32-2.19.75-2.66,1.62-5.29,3.41-8.16,4.51-1.69.65-3.62.32-4.03,2.79-.09.56-.88,1.32-1.46,1.42-2.44.46-2.68,2.34-2.37,4.04.47,2.56-.56,4.54-1.61,6.63-.3.6-.62,1.19-.72,1.94-.62,4.7-1.19,9.42-2.18,14.05-.24,1.12-.16,1.87.39,2.51,1.69,1.98,1.34,3.93.53,6.16-.41,1.11-1.18,2.32-.62,3.72.75,1.89.76,3.86.31,5.84-.31,1.38-.26,2.75-.25,4.18.03,3.66.52,7.31-.18,11.02-.44,2.37-.85,5.2.32,7.38.72,1.34,1.31,2.49,1.14,3.9-.43,3.48,0,6.69,2.31,9.47.49.59.72,1.33.52,2.02-1.27,4.33-.81,8.68-.06,13,.43,2.46.33,5.25,2.98,6.78,1.44.84,1.07,2.57.52,3.18-1.72,1.91-.57,4.21-.43,5.84.19,2.18,1.01,4.41.66,6.49Zm-21.83-114.21c-1.78,1.63-3.16,1.68-4.69,1.82-2.01.18-4.48,1.05-5.26,3.08-1.12,2.93-4.29,3.53-5.76,5.94-.27.43-1.08.69-1.67.74-2.66.23-4.9,1.96-6.72,3.29-2.8,2.03-5.94,3.55-8.8,5.27-7.17,4.29-12.75,10.32-19.06,15.54-.88.73-2.63.84-2.62,2.02.01,2.45-1.74,2.59-3.29,3.1-3.33,1.09-6.14,3.36-8.24,5.76-2.29,2.62-3.84,5.53-7.85,5.47-.52,0-1.33.48-1.52.94-1.13,2.78-5.08,3.82-4.61,7.58.07.55-.84.58-1.21.92-3,2.84-7.8,3.38-9.82,7.37-1.24,2.45-4.02,3.57-4.89,6.25-.95,2.93-2.66,5.5-3.92,8.29-.25.55-1.17,1.12-.4,1.88.7.69,1.47.41,2.23.02,2.08-1.04,4.28-1.04,6.45-.47,1.07.28,2.14-.03,3.04.11,3.57.57,5.88-2.25,8.94-3.08,6.01-1.64,11.36-5.41,17.57-6.89.4-.09.73-.5,1.08-.77.94-.72,1.85-.95,3.15-.82,3.5.36,6.68-.23,8.73-3.74.92-1.57,2.91-2.99,4.46-2.98,3.63.04,6.88-1.36,10.33-1.87,1.02-.15,1.82-.55,2.55-1.27,1.61-1.59,3.69-2.16,5.84-2.05,1.63.09,2.68-.34,3.52-1.72.34-.57.76-1.13,1.49-1.47,4.12-1.95,8.34-3.49,12.95-3.81,1.03-.07,2.04-.51,3.03-.88,1.07-.41,1.52-.86,1.23-2.38-.35-1.85-.59-3.8-.38-5.87.22-2.19.51-4.67-.04-6.87-1.05-4.2-.76-8.46-.1-12.49.58-3.55,1.52-7.04,1.9-10.68.2-1.89-.09-4.01.81-5.74,1.48-2.84.87-5.83,1.56-9.53Zm162.41-80.62c-3.46-.43-5.92-2.71-9.5-1.67-1.51.44-4.07.39-5.53-.93-2.4-2.16-4.96-1.82-7.5-.97-1.17.39-2.49.86-3.32.35-2.06-1.27-4.33-.83-6.45-1.17-1.97-.32-4.45-.36-6.07.58-2.56,1.48-5.32,1.26-7.63.96-3.83-.49-7.45-1.41-11.03.69-.67.39-1.4.23-2.11.17-1.38-.12-2.72.09-3.81.95-2.51,1.99-5.44,2.25-8.48,2.34-1.97.05-4.18.04-5.7,1.22-2.43,1.88-5.28,2.86-7.98,3.93-3.04,1.21-5.12,3.28-7.14,5.53-1.22,1.36-2.29,2.48-4.32,1.81-.62-.2-1.55-.4-2.01.3-2.55,3.86-7.75,5.05-9.49,9.89-.8,2.23-3.44,3.76-4.4,5.97-1.44,3.34-4.48,3.62-6.99,3.77-2.88.17-3.51,1.69-4.01,3.72-.15.59-.26,1.18-.62,1.62-2.32,2.76-3.81,6.24-7.09,8.16-.24.14-.34.5-.51.76,2.69-1.21,5.39-2.13,8.22-2.68.27-.05.55-.47.67-.78.7-1.82,2.3-2.16,3.91-2.25,1.67-.09,3.01-.7,4.48-1.49,3.39-1.82,6.9-3.53,10.55-4.72,2.05-.67,4.22-.78,5.69-2.65.35-.44.86-.6,1.44-.31,3.43,1.69,5.44-1.48,8.01-2.52,2.63-1.07,4.36-4.41,7.97-3.05.18.07.52-.11.72-.26,3.16-2.35,6.71-3.76,10.58-4.43,1.98-.34,3.56-2.48,5.94-1.19.62.34,1.35-.34,1.88-.83,2.73-2.52,6.04-3.52,9.63-3.34,2.29.12,3.8-1.2,5.49-2.26,2.18-1.36,4.22-3.08,7.04-2.73,1.67.21,3.07.03,4.01-1.66.39-.72,1.07-1.82,2.04-1.41,4.33,1.79,8.06-1.04,12.07-1.56,3.93-.51,7.3-3,10.8-4.88,1.7-.91,3.5-2.37,5.47-1.64,1.91.7,3.24.29,5.11-1.38Zm-338.44,325.66c1.24.93,2.2,1.36,3.34,1.03.32-.09.31-.5.02-.84-.96-1.15-1.94-.61-3.36-.18Z"/><path d="m230.62,822.04c3.71-2.03,6.26-4.97,9.09-7.58,3.71-3.42,8.23-5.85,11.66-9.58,1.01-1.1,2.61-.93,3.6-2.01,1.1-1.2,2.28-2.33,3.47-3.44,3-2.79,6.24-5.22,10-6.96.83-.38,2.01-.88,2.13-2.14.05-.53.33-.84.74-1.02,3.42-1.49,5.13-4.93,8-7.07.98-.74,2.09-.79,3.1-1.26,1.65-.77,2.15-2.41,3.35-3.46,1.51-1.32,3.26-2.18,5.11-2.86,2.05-.75,3.08-2.62,4.35-4.14,1.83-2.2,4.39-3.1,6.64-4.58,2.9-1.9,5.48-4.33,7.96-6.78.57-.56.93-1.43,1.79-1.65,4.01-1.01,5.9-4.93,9.54-6.74,3.25-1.62,6.41-4.3,8.62-7.64.96-1.44,2.49-2.38,4.29-2.84,2.9-.74,4-3.7,6.31-5.29,4.44-3.05,8.43-6.75,12.8-9.89,3.52-2.53,6.96-5.13,10.14-8.06,1.22-1.13,2.14-2.49,3.97-3.02,1.48-.43,2.66-1.55,3.85-2.9,3.02-3.44,6.77-6.19,10.85-8.47,4.07-2.28,7.86-5.07,11.87-7.46,1.68-1,3.59-1.72,5.48-2.23,2.11-.56,3.31.82,2.11,2.53-1.97,2.83-2.93,6.61-6.49,8.08-1.68.7-.96,2.66-2.61,3.57-2.51,1.38-4.48,3.71-6.82,5.44-2.34,1.73-3.56,4.61-6.3,5.87-3.77,1.73-6.02,5.53-9.89,7.19-2.25.97-2.89,3.74-5.03,5.06-2.43,1.5-4.49,3.53-7.07,4.88-1.23.65-1.99,2.13-3.13,3.02-2.49,1.92-5.52,3.15-7.66,5.52-3.05,3.38-7.29,5.16-10.65,8.12-.62.54-.78,1.32-1.04,1.8-1.5,2.71-4.44,3.04-6.63,4.54-1.82,1.25-3.5,2.48-4.2,4.74-.85,2.74-3.74,2.53-5.71,3.44-3.1,1.43-5.81,2.79-7.4,6.16-.67,1.41-2.76,2.35-4.4,3.01-.93.37-1.71.82-2.49,1.37-3.5,2.48-7.36,4.4-10.4,7.64-1.2,1.29-3.01,2.44-4.9,3.2-1.42.57-2.82,1.46-3.77,2.97-1.15,1.83-3.35,2.54-5.24,3.19-1.92.66-3.4,1.68-4.81,3.01-2.43,2.3-5.29,3.86-8.33,5.25-2.29,1.05-4.45,2.52-6.38,4.15-2.27,1.91-4.95,3.15-7.37,4.76-6.28,4.2-13.21,7.34-20.12,10.44-.44.2-.84.77-2,.08Z"/><path class="cls-2" d="m245.58,628.7c.64-.48,1.33-.29,2.01-.13-.61,1.02-1.34.22-2.01.13Z"/><path class="cls-3" d="m362.14,431.95c-.13-.59.11-.7.61-.47.09.55-.14.66-.61.47Z"/><path class="cls-4" d="m616.51,500.18c.32-.81-.04-2.32,1.48-2.04,3.05.55,4.96-1.42,7.02-2.99,2.93-2.25,5.64-4.76,8.15-7.49.75-.81,1.83-1.35,2.84-1.88.54-.29,1.37-.33,1.47-.99.52-3.35,3.25-3.75,5.74-4.9,2.98-1.37,5.83-3.18,8.28-5.53,1.38-1.32,3.19-2.21,5.08-2.77,1.38-.26.86-1.36.96-2.18,1.69-2.15,2.77-4.91,6.5-4.51,1,.11,2.11-2.03,3.36-2.83,1.79-1.13,3.09-2.6,4.51-4.12,1.66-1.77,3.52-3.91,6.2-4.81,1.74-.58,3.88-1.53,4.71-2.96,1.43-2.46,4-3.15,5.79-4.92.18-.18.47-.33.71-.33,6.61-.09,8.93-7.84,15.23-8.53,1.02-.11.07-1.52.74-2.06,3.67-2.95,6.32-7.52,11.85-7.57.87,0,1.55-.37,1.91-1.22.78-1.85,2.14-2.86,4.13-3.31.86-.2,1.59-1.05,2.32-1.67.67-.57,1.18-1.45,2.12-1.54,4.14-.38,6.17-3.4,8.19-6.43.39-.59.93-.42,1.42-.4.68.02,1.25-.13,1.65-.68,3.18-4.34,8.18-5.58,12.66-7.89,3.7-1.91,7.42-4.1,10.79-6.82,2.84-2.29,5.23-5.15,8.25-7.09,1.96-1.26,4.32-2.02,6.28-3.45.65-.48,1.56-.89,1.51-1.72-.13-2.26,1.76-3.06,3.03-2.91,2.78.32,4.56-2.34,7.24-1.91.64.1.88-.67,1.22-1.21,2.12-3.38,5.08-6.83,8.65-7.41,4.69-.77,6.53-5.16,10.57-6.3.54-.15.94-.98,1.3-1.56.69-1.11,1.38-1.81,2.95-1.76,1.88.06,3.28-1.65,4.72-2.57,2.6-1.64,5.38-3.26,7.2-6.17,2.18-3.48,5.64-5.56,9.76-6.49,2.44-.55,3.91-2.74,5.61-4.3,2.97-2.73,6.33-5.1,9.83-6.55,2.35-.97,4.52-2.49,6.55-3.65,2.66-1.53,6.03-2.94,7.54-6.4,1.06-2.43,3.98-2.58,6.27-3.33.56-.18,1.4.19,1.7-.51,1.5-3.53,5.98-3.52,7.82-6.63.15-.25.58-.41.91-.48,4.63-1.03,7.58-4.21,10.11-7.9.54-.79,1.39-.78,2.1-.96,3.02-.78,5.73-2.33,8.64-3.37.18.14.37.28.55.42-.84,1.75-1.44,3.74-3.93,3.84-.28.01-.75.37-.8.63-.52,3.02-3.62,3.72-5.16,5.8-1.26,1.7-2.6,2.96-4.87,3.65-1.94.59-3.44,2.69-4.61,4.59-1.22,1.99-2.32,3.99-5.16,3.65-1.2-.14-2.03.92-2.21,1.64-1.13,4.57-4.88,6.71-8.21,9.26-2.03,1.56-2.37,4.54-4.76,5.77-2.89,1.49-3.65,5-6.49,6.63-1.62.93-3.12,2.21-4.64,3.31-3.08,2.24-6.63,4.35-7.8,8.48-.43,1.53-1.87,2.4-3.06,2.59-2.45.41-3.36,1.55-4.44,3.83-1.35,2.86-3.12,5.96-6.61,7.25-1.57.58-2.89,1.75-3.38,3.44-.21.7-.71.77-1.12.94-1.78.71-2.39,2.21-2.69,3.88-.3,1.69-.68,2.99-2.91,2.96-1.81-.02-2.26,1.97-2.77,3.18-1.2,2.85-3.47,4.19-6.02,5.41-2.84,1.36-5.04,3.69-7.14,5.87-1.18,1.23-1.1,3.68-2.39,5.29-1.36,1.69-2.17,3.88-4.84,4.12-.98.09-1.25,1.46-2.01,2.04-3.4,2.6-5.84,6.18-9.05,8.89-2.28,1.92-4.63,3.75-5.84,6.39-1.53,3.33-4.48,5.48-6.49,8.39-1.19,1.72-2.34,3.7-3.69,5.42-.97,1.23-2.39.31-3.58,1.06-1.85,1.18-3.02,2.92-4.54,4.36-2.15,2.05-3.87,4.55-5.76,6.78-1.83,2.17-3.72,4.56-5.31,7.05-.58.91-1.4,1.43-2.43,1.23-1.33-.27-2.55.4-3.03,1.18-1.57,2.55-5.43,3.89-4.14,8.06.46,1.47-1.1,2.27-2.41,2.07-2.28-.35-2.97,1.13-3.9,2.65-3,4.97-6.94,9.28-10.24,13.99-2.32,3.32-6.03,5.35-7.59,9.24-.67,1.67-2.07,3.02-2.97,4.61-1.11,1.96-3.19,2.08-4.94,2.71-1.18.43-2.12.81-2.49,2.07-.92,3.12-3.59,5.16-4.86,8.19-.91,2.16-3.57,3.5-5.29,5.47-2.99,3.43-6.32,6.63-10.23,9.18-1.43.93-2.36,2.87-3.1,4.54-.88,1.99-2.21,3.5-3.83,4.83-2.85,2.34-4.35,5.66-6.28,8.66-.63.98-1.23,2.22-2.46,2.16-2.83-.15-3.22,1.91-3.42,3.77-.22,2.03-.86,3.45-2.82,4.21-.34.13-.75.17-1.04.67-2.73,4.85-7.74,7.53-11.23,11.67-.23.27-.5.57-.81.7-4.36,1.81-6.17,5.44-7.49,9.7-.47,1.52-1.87,2.69-1.7,4.64.04.49-2.19.21-2.79,1.45-.84,1.76-2.79,3.03-3.27,4.66-1.03,3.52-4.36,5.1-5.87,8.15-1.06,2.16-2.47,4.23-5.08,5.08-.27.09-.74,1.42-1.18,2.12-.6.94-1.21,2.13-2.56,2.06-2.82-.14-3.09,2.04-3.28,3.86-.44,4.44-2.15,5.16-5.55,5.28-1.95.07-2.9.68-3.3,2.56-.5,2.34-2.06,4.17-3.24,6.17-.13.15-.26.3-.39.46-.55.97-1.1,1.83-2.06,2.61-2.44,1.98-3.69,5.01-5.27,7.61-1.43,2.35-3.5,3.92-5.17,5.92-.81.97-1.82,1.82-2.55,2.94-.84,1.28-1.44,2.78-3.15,3.36-.67.23-.94,1.13-1.31,1.87-1.64,3.23-2.53,7.16-6.75,8.33-.23.06-.5.32-.56.55-1.08,3.52-4.77,4.93-6.36,8.22-2.46,5.13-6.72,9.23-10.65,13.11-2.84,2.8-4.3,6.7-7.77,8.81-.22.14-.55.39-.54.57.17,3.62-2.93,5.41-4.78,7.62-2.15,2.57-2.81,6.68-6.96,7.49-1.17.23-1.46,1.71-2.18,2.59-3.12,3.88-6.57,7.45-9.96,11.08-.73.78-1.16,1.95-1.44,3.02-.54,2.02-3.01,1.87-3.78,3.68-.94,2.19-2.06,4.16-5.11,4.09-1.31-.03-1.95,1.69-2.09,2.98-.11,1.04-.85,1.83-.98,2.58-.6,3.51-5.45,4.4-4.98,8.42.02.17-.04.5-.09.5-3.32.41-3.37,4.04-5.55,5.61-1.63,1.18-2.89,2.97-4.07,4.47-2.35,3-5.45,5.45-7.05,9.12-.61,1.39-2.45,2.42-4.16,2.7-1.39.23-2.06.9-2.32,2.14-1.01,5.02-5.44,7.1-8.73,10.14-.73.68-1.09-.17-1.5-.56-1.22-1.18-1.14-2.71-1.13-4.24,0-1.29-.02-2.3-1.32-3.41-1.34-1.15-1.67-3.39-1.4-5.41.53-3.99,2.26-8.12-1.48-11.6-1-.93-1.69-2.52-.99-3.54,1.62-2.37-.27-4.07-.64-6.05-.67-3.53-2.29-7.11-2.17-10.45.09-2.54.35-4.93-.66-7.22-2.54-5.76-1.67-12.15-3.39-17.96-1.52-5.13-.46-10.4-1.93-15.43-.68-2.32-1.04-4.74-1.61-7.1-.32-1.32-.48-2.35,1.06-3.2,2.22-1.24,3.8-3.11,4.32-5.76.3-1.5,2.04-1.51,3.01-2.43,2.25-2.13,5.24-3.36,6.66-6.52.53-1.19,2.64-1.57,3.52-2.71,2.03-2.63,4.64-4.72,6.51-7.5,1.32-1.97,1.99-3.97,1.86-6.29-.1-1.94-2.06-3.71-3.8-3.01-1.79.73-3.99.62-5.36,2.12-1.99,2.18-5.69,2.34-6.65,5.7-.08.28-.51.59-.82.64-3.95.58-6.21,3.13-7.9,6.5-.56,1.12-1.81,2.25-2.9,2-.77-.18-1.47-1.77-1.74-2.84-.57-2.22-1.46-4.22-2.54-6.26-.9-1.68-1.18-3.87-1.13-5.82.06-2.36-1.18-4.67-.13-7.07.25-.58-.06-1.42-.65-1.95-4.14-3.74-2.97-8.51-2.5-13.12.08-.78.75-1.18,1.6-1.07,1.24.15,2.25-.44,2.58-1.51,1.89-6.14,7.1-8.52,12.24-10.98.76-.36,1.35-.57,1.38-1.65.06-1.99,1.82-3.19,3.23-3.41,1.96-.3,3.15-1.41,4.5-2.46,2.46-1.93,5.92-2.61,7.59-5.47,3.32-5.73,8.41-8.89,14.56-10.63.67-.19.7-.55.89-1.08.95-2.6,2.64-4.6,5.33-5.49,1.52-.5,1.97-2.11,3.17-2.79,4.1-2.33,7.79-5.27,11.89-7.6,1.78-1.01,3.04-2.87,4.25-4.7.59-.89,1.62-2.15,2.93-2.7,1.93-.82,3.6-2.21,5.68-2.72.78-.19.87-.93,1.06-1.4.62-1.56,1.7-2.52,3.31-2.33,1.85.21,2.78-.82,3.76-2.02,1.79-2.19,3.16-4.52,5.75-6.28,2.17-1.48,3.96-2.98,6.63-3.26.55-.06,1.04-.71,1.49-1.27.92-1.13,1.55-2.75,3.6-2.66.95.04,1.51-1.19,1.89-2.09,1-2.33,2.11-4.13,5.05-4.78,1.74-.38,2.87-2.83,4.96-3.4,2.06-.55,3.84-1.37,4.2-3.82.06-.38.53-1.06.68-1.02,2.95.69,3.43-1.93,4.72-3.44.17-.12.33-.23.5-.35.59.04.93-.36,1.37-.69,2.26-1.68,3.5-4.5,7.2-4.59,1.92-.04,3.77-2.47,4.56-5.04.43-1.4,2.29-2.19,3.82-2.7,2.19-.73,3.71-2.19,5.4-3.72,1.32-1.19,3.37-1.95,5.12-2.82.51-.25,1.31-.19,1.58-.77,1.21-2.61,4.04-3.11,6.02-4.71.67-.09,1.45-.13.55-1.05Z"/><path class="cls-4" d="m228.54,592.53c.07-.74.44-1.26,1.21-1.09,2.17.5,4.13-1.15,6.3-.57.72.2,1.24-.31,1.56-.82,1.87-2.98,4.94-3.57,8.04-4.03,2.86-.42,5.25-2.45,8.33-2.26.66.04,1.65-.87,2.06-1.59,2.77-4.84,7.33-5.96,12.36-6.15.68-.03,1.29-.19,1.69-.68,1.86-2.27,4.52-2,7.01-2.29.76-.09,1.67.39,2.25-.45,2.65-3.89,7.04-4.87,10.94-6.74,1.5-.72,2.93-1.27,4.56-.99.9.15,1.63-.09,2.13-.76,1.47-1.99,3.88-2.82,5.56-4.71,1.36-1.52,4.14-2.25,6.35-2.41,2.25-.16,4.18-1.45,6.44-1.32.33.02.86-.41,1.02-.76,1.74-4.01,5.69-4.12,9.08-5,1.17-.3,2.31-.49,2.96-1.42,1.3-1.88,3.16-2.47,5.18-3.28,3.25-1.31,6.29-3.1,9.86-3.5.35-.04.91-.03,1-.22,1.29-2.74,4.25-1.9,6.34-2.91,2.3-1.12,4.76-1.77,7-3.2,1.58-1.01,3.14-2.72,5.44-2.3.68.12,1.15-.21,1.61-.71.41-.45,1.03-1.05,1.52-1.02,4.31.31,6.41-3.64,9.83-5.01,1.3-.52,2.66-.18,3.98-.29.76-.07,1.74.41,2.22-.49,1.86-3.44,5.25-3.81,8.55-4.4,1.46-.26,1.51-2.4,3.5-2.41,1.15,0,2.46.06,3.69-.08,2.27-.26,3.32-1.81,4.94-2.82,2.66-1.67,4.23-4.75,8.08-5.14,2.35-.24,5.01-.78,7.37-1.7,1.84-.71,4.07-1.14,4.35-3.75.03-.23.28-.62.45-.63,2.71-.19,4.64-2.1,7-3.07,2.78-1.15,5.74-1.79,8.44-3.18,1.02-.52,2.12-.96,3.23-1.2,3.4-.76,6.43-2.27,9.33-4.18.99-.65,2.51-.58,3.38-1.32,3.1-2.63,7.15-3.6,10.31-6.23,1.49-1.24,4.15-1.13,6.31-1.45,1.16-.17,2.31.04,2.87-1.41.28-.72,1.12-.58,1.82-.74,2.83-.67,5.88-.5,7.97-3.51,1.36-1.97,4.28-2.15,6.69-2.44,2.74-.33,5.02-.91,6.77-3.54.81-1.22,2.56-3.12,4.98-2.05.6.26,1.64.37,2.07.03,3.15-2.52,7.45-2.74,10.51-5.47,1.38-1.23,3.07-1.66,5.24-1.68,4.01-.05,8.64-.82,11.02-4.25,2.11-3.05,5.01-1.87,7.39-2.97,2.08-.96,4.38-1.19,6.43-2.61,2.54-1.77,5.24-3.3,7.55-5.42.31-.28,1.04-.14,1.57-.15,1.8-.02,3.39-1.23,4.87-1.44,3.81-.54,6-3.36,9.02-4.93.95-.49,2.38-.36,3.59-.63,1.38-.31,2.66-.71,3.78-1.63,3.56-2.93,7.98-3.56,12.28-4.23,1.62-.26,2.44-.83,2.89-2.13.89-2.56,2.71-3.14,5.27-3.51,2.77-.4,5.75-.84,7.85-3.41,1.63-1.99,4.4-1.32,6.65-1.78,1.52-.31,2.65-.8,3.84-1.82,4.02-3.47,8.21-6.76,14.06-5.85,1.16.18,2.17-.21,2.5-1.09,1.24-3.32,4.78-3.48,7.11-5.26,2.5-1.92,5.67-2.92,8.38-4.65,1.32-.84,3.18.1,4.56-.93.16.01.19.53.46.12-.14-.07-.27-.13-.41-.2.18-.91.9-.91,1.44-.6.95.54,1.74.21,2.48-.27,5.04-3.33,10.88-4.3,16.62-5.34,2.27-.41,3.23-1.93,4.5-3.34.49-.42,2.21,1.01,1.59-1.07.06-.42-.06-.99.54-1.05,5.19-.51,9.47-2.99,13.45-6.15.07-.06.13-.2.18-.19,4.7.65,7.92-3.88,12.67-3.53,2.07.15,3.33-2.37,5.3-3.26,2.89-1.3,5.74-2.74,8.3-4.67.37-.28,1.32.05,1.52-.24,2.5-3.6,6.5-3.81,10.22-4.6,1.17-.25,2.05-.92,3.05-1.45,4.11-2.17,8.1-4.57,12.72-5.75,1.65-.42,3.66-1.07,4.62-3.01.46-.93,1.39-1.5,2.46-1.14,3.25,1.09,5.69-1.33,8.52-1.98,3.48-.8,6.82-3.02,9.38-5.03,2.58-2.03,6.47-1.39,8.1-4.65.14-.27.98-.27,1.49-.26,1.9.06,3.73.04,5.16-1.54.26-.29.8-.44,1.22-.45,4.07-.12,6.97-2.93,10.39-4.52.9.93,1.39.64,1.6-.53,0,0,0,0,0,0,1.2.63,1.1-.21,1.08-.95.87-.34,2.18.34,2.51-1.31.1-.52.96-.87,1.75-1,3.02-.49,5.96-1.5,8.82-2.42,2-.64,3.94-2.34,5.99-3.48,2.25-1.26,5.05-1.33,6.91-3.26,1.71-1.78,4.55-2.04,5.86-4.16.86-1.4,1.99-1.48,3.1-1.17,3.04.85,5.58.62,7.3-2.39.32-.56.98-.27,1.47-.43.02.42.05.84.07,1.26-.13.7-.56,1.17-1.14,1.54-.27-.44-.66-.59-1.03-.23-.44.44-.14.72.34.87-2.68,1.46-4.71,4.01-8.35,3.8-1.58-.09-2.7,2.12-3.86,3.44-.87.99-1.75,1.36-3.16,1.34-2.15-.02-3.56,1.92-5.37,2.87-2.12,1.12-4.36,2.35-6.09,3.95-2.41,2.22-5.75,3.17-7.69,5.92-1.22,1.73-3.27,2.36-4.86,3.62-1.55,1.24-3.3,2.13-4.42,3.93-.63,1.01-1.92.72-3,.48-.51-1.21-1.05-1.23-1.62-.05-2.46,2.44-4.95,4.85-7.35,7.35-1.01,1.05-2.05,1.22-3.34.78-2.44-.84-4.42-.21-5.44,2.22-.32.76-1.04.59-1.3,1.14-.73,1.55-3.54,1.33-3.15,4.01.13.89-1.51,1.47-2.53,1.43-1.46-.04-2.92.5-3.61,1.35-2.15,2.63-5.11,2.58-7.95,3.04-1.49.24-2.37,1.27-3.02,2.42-1.74,3.08-4.82,4.67-7.2,6.99-3.05,2.96-6.91,3.66-10.32,5.48-.96.52-1.49,1.2-1.88,2.06-.94,2.09-2.18,3.51-4.79,3.05-1.93-.34-4.31.61-5.04,1.67-1.18,1.71-2.92,2.47-4.21,3.85-.79.84-1.53,1.8-2.93,1.47-.76-.18-1.24.42-1.53.89-2.55,4.19-7.97,4.64-10.95,8.45-.8,1.02-2.97,1.09-2.94,3.21,0,.13-.21.3-.37.38-4.49,2.19-8,6.15-13.07,7.29-.42.09-1-.26-1.24.24-1.29,2.77-4.77,3.34-6.08,6.22-.47,1.02-2.03,1.59-3.15,2.26-3.53,2.13-6.19,5.34-9.55,7.69-1.73,1.21-4.04.13-5.66,1.74-.99.99-2.12,1.56-2.29,3.32-.23,2.39-4,4.97-6.42,4.86-1.65-.07-6.68,2.97-7.29,4.6-.28.76-.81,1.31-1.36,1.56-2.9,1.37-5.06,3.88-8.27,4.87-1.62.5-3.16,1.62-4.15,3.66-1.35,2.78-4.32,4.29-7.32,5.15-1.47.42-2.29,1.26-3.25,2.39-2.16,2.54-4.71,4.61-7.6,6.5-2.75,1.8-5.86,3.38-8.09,6.02-.65.77-1.39,1.38-2.71,1.29-1.57-.11-2.08,1.5-2.7,2.68-.69,1.32-1.09,2.95-3.22,2.18-.55-.2-.89.52-1.33.74-1.25.62-2.02,2.24-3.97,1.48-.9-.35-1.92,1.1-1.99,1.83-.23,2.44-2.32,3.52-3.47,5.25-.99,1.49-3.26.8-4.62,2-2.92,2.59-6.43,4.28-9.66,6.42-1.4.93-.87,2.97-2.86,3.96-4.5,2.25-8.66,5.18-12.91,7.9-.73.47-1.64,1.17-1.81,1.91-.83,3.75-4.85,4.58-6.6,7.45-.17.27-.89.47-1.21.34-2.68-1.04-3.64.9-4.76,2.63-.32.5-.51,1.04-1.2,1.33-2.18.93-3.63,2.63-5.17,4.44-1.5,1.77-3.76,3.42-6.59,2.66-.62-.17-1.14.02-1.46.39-2.75,3.15-6.44,5.43-8.53,9.18-.2.36-.11.94-.67,1.02-3.76.53-5.94,2.89-8.09,5.89-1.28,1.78-4.03,2.77-6.55,2.83-1.39.03-2.05.5-2.51,1.72-1.01,2.66-2.31,5.13-4.86,6.69-.3.18-.5.63-.8.68-5.02.86-7.8,4.72-11.27,7.83-1.41,1.27-3.07,2.57-4.73,3.71-.94.65-1.88,1.28-2.23,2.5-.13.45-.25,1.3-.9,1.15-2.61-.6-3.58,1.45-4.77,2.95-1.45,1.83-3.2,3.18-5.41,3.72-2.75.67-4.88,2.33-6.32,4.49-3.27,4.88-8.83,6.56-13.1,9.99-.52.42-1.51.67-1.62,1.14-.91,4.06-5,3.63-7.37,5.52-2.07,1.65-4.99,2.51-6,5.47-.49,1.44-5.46,3.3-6.86,2.6-1.68-.84-3.42-.55-4.76.11-2.53,1.23-4.89.99-7.38.28-.42-.12-1.05-.49-1.22-.34-2.31,2-5.07.42-7.58,1.01-2.31.54-4.49-1.69-6.86-1.25-3.83.7-7.68-.15-11.53.48-2.83.46-5.83,0-8.61-1.02-2.88-1.05-5.51-3.09-8.9-1.18-1.03.58-2.65-.83-4.03.03-.28-.47-.6-.58-.99-.12-2.93,1.24-5.83,1.26-8.87.23-2.88-.97-5.7.71-8.61.73-.96,0-2.01.09-2.7-.32-2.46-1.45-5.14-1.43-7.54-.61-1.93.66-3.62.56-5.39.12-1.33-.33-2.45-.56-3.78.18-1.21.67-2.2-.63-3.19-1.12-1.85-.92-3.58-1.51-5.65-.74-2.1.79-3.96-1.13-6.18-.61-3.03.7-6.32-1.01-9.28.94-.77.51-1.69.48-2.56.06-2.28-1.09-5.23.02-7.19-2.17-.04-.05-.29.04-.4.12-4.63,2.95-8.81-.48-13.16-1.05-2.1-.27-4.73-.17-5.85.53-2.28,1.43-3.7-.27-5.16-.62-2.05-.49-3.01.27-3.81,1.54-.66,1.04-1.44,1.02-2.28.8-3.24-.82-6.59-.88-9.82-2-2.33-.8-5.06-.16-7.53,0-5.28.32-10.43-1.6-15.56-.9-3.53.48-6.25-1.35-9.42-1.67-.35-.04-.78-.36-1.02-.24-6.22,3.21-12.41-.88-18.62-.05-1.06.14-2.16.02-3.23.02-.54,0-1.12,0-1.21-.71-.09-.71.52-.81.98-1.07.92-.53,1.91-.4,2.89-.42.43-.01.85,0,1.07-.55,2.22-5.45,7.71-5.26,12.08-7.01.23-.09.68-.2.67-.27-.42-3.62,2.79-2.62,4.16-2.67,3.14-.12,5.46-2.63,8.57-2.4.71-.11,1.28-.28.5-1.07Z"/><path class="cls-1" d="m391.48,476.16c.35-2.08-.47-4.31-.66-6.49-.14-1.63-1.29-3.93.43-5.84.55-.61.92-2.35-.52-3.18-2.65-1.54-2.55-4.32-2.98-6.78-.75-4.32-1.21-8.67.06-13,.2-.7-.03-1.44-.52-2.02-2.32-2.78-2.74-6-2.31-9.47.18-1.41-.42-2.57-1.14-3.9-1.17-2.17-.76-5.01-.32-7.38.7-3.71.21-7.37.18-11.02-.01-1.42-.06-2.79.25-4.18.45-1.98.43-3.95-.31-5.84-.55-1.4.22-2.61.62-3.72.81-2.23,1.16-4.18-.53-6.16-.54-.64-.63-1.39-.39-2.51.99-4.63,1.55-9.35,2.18-14.05.1-.75.42-1.34.72-1.94,1.05-2.1,2.08-4.07,1.61-6.63-.31-1.7-.07-3.59,2.37-4.04.57-.11,1.37-.87,1.46-1.42.41-2.47,2.34-2.14,4.03-2.79,2.88-1.1,5.5-2.89,8.16-4.51.72-.43,1.31-.88,2.19-.75.87.13,1.71-.19,2.17-.85,2.54-3.58,6.21-5.1,10.35-5.4,1.95-.14,2.7-1.86,4.38-2.33,5.18-1.45,10.13-3.46,14.24-7.14,1.11-.99,2.74-.34,4.02-1.02,2.6-1.37,5.23-2.7,7.91-3.92,1.1-.5,2.24-1.01,3.54-.96.66.03,1.51.3,2.01-.41,2.02-2.8,5.48-2.49,8.17-3.85,1.88-.95,4.04-1.35,5.63-2.88.19-.18.53-.47.64-.41,3.63,1.97,5.76-1.57,8.59-2.43,1.45-.44,2.81-.94,4.35-.85,1.77.1,3.07-1.72,4.22-1.82,2.82-.25,4.8-2.44,7.56-2.52,2.65-.08,4.42-2.31,6.84-3,.24-.07.46-.47.65-.44,4.04.58,6.8-1.85,9.65-4.07.83-.65,1.85-.69,2.82-.54,4.2.66,7.42-1.62,10.97-3.27,2.83-1.32,4.36-4.42,7.75-4.91,2.06-.3,4.16-.81,5.88-2.39,1.45-1.33,2.87-2.89,5.35-2.53,1,.15,1.33-1.48,1.88-2.33,1.22-1.9,2.37-2.71,4.37-.83,3.51,3.31,8.02,4.27,12.6,4.98,1.61.25,2.87.99,4.1,2.17,2.49,2.39,5.86,3.52,8.78,5.3.88.54,1.74,1.23,2.71,1.71,2.19,1.08,4.11,2.46,6.8,2.33,1-.05,2.38.65,3.24,1.88,1.42,2.02,3.93,2.49,6.05,3.36,2.6,1.07,4.51,2.96,6.62,4.6,1.56,1.21,3.06,2.12,5.11,2.41,1.79.25,1.93,2.75,4.1,3.43,1.41.44,3.02.83,4.43,1.13,3.34.72,4.12,4.17,6.79,5.53,2.55,1.29,4.62,3.31,7.34,4.49,3.45,1.5,7.02,2.78,9.89,5.72,2.95,3.03,7.66,3.54,11.1,6.08,1.88,1.39,3.92,2.43,6.05,3.34,3.27,1.39,4.79,4.81,7.61,6.77.49.34,1.2,1.13,1.56,1.08,3.02-.41,4.41,1.81,6.02,3.6,1.24,1.37,2.96.99,4.42,1.32,2.72.61,5.39.93,7.09,3.59.92,1.45,2.75,1.81,4.13,2.7.87.56,1.55,1,.35,2.39-2.53,2.95-6.22,3.02-9.36,4.18-3.52,1.29-6.66,2.95-9.89,4.78-2.57,1.45-4.87,4.75-9.03,3.05-2.02-.82-3.92,1.59-5.84,2.7-2.87,1.67-4.72,5.25-8.74,4.84-.17-.02-.43,0-.52.11-2.02,2.63-6.06,1.88-7.94,4.73-.09.14-.26.34-.39.34-3.76.02-6.69,2.25-9.62,4.05-2.19,1.35-4.72,1.26-6.86,2.63-1.52.97-3.57,1.4-5.42,1.5-3.73.2-7.17,1.08-10.52,2.73-1.99.98-4.5,1.03-5.3,3.67-4.21-.31-5.86,3.98-9.42,5.24-3.21,1.14-6.36,1.91-9.63,2.66-2.17.5-4.97,1.36-6.09,3.96-.56,1.3-1.47,1.69-2.49,1.07-1.55-.95-2.83-.06-3.57.74-1.26,1.36-2.98,1.91-4.26,3.12-.34.32-.63.73-1.07.61-3.86-.98-6.04,2.02-8.77,3.69-1.93,1.18-3.93,2.1-6.2,2.26-1.14.08-2.34.42-2.72,1.34-.85,2.03-2.71,1.91-4.27,2.45-.33.11-.8-.03-1.04.16-2.81,2.31-6.2,2.81-9.64,3.05-.9.06-1.4.54-2.08.96-4.66,2.9-9.57,5.66-15.16,5.39-3.23-.15-5.32,1.11-7.56,2.81-.26.2-.77.4-.76.59.04,2.79-2.38,3.27-3.95,3.08-3.42-.4-4.98,1.85-6.76,3.81-.96,1.06-1.5,1.37-2.83.51-1.53-.99-2.91.09-4.11,1.1-1.89,1.59-3.44,3.54-5.87,4.56-1.28.54-2.56.12-3.83.82-2.87,1.58-5.86,3-8.94,4.13-3.91,1.44-7.58,3.22-11.02,5.56-.83.56-2.02.5-2.88.07-2.01-.99-3.24.28-4.85,1.1-2.65,1.35-5.13,3.13-8.07,3.84-1.28.31-2.55.58-2.74,2.05-.27,2.01-2.05.75-2.93,1.52-1.54,1.34-3.4,2.09-5.53,1.82-1.31-.16-1.97.77-2.54,1.64-1.08,1.65-2.45,2.08-4.23,1.34-1.24-.51-2.11-.28-3.14.75-1.4,1.39-3.63,1.44-5.28,2.67-.58.43-1.47.74-2.18,1.26-1.46,1.06-2.79,2.33-4.91,2.09-2.75-.31-4.84,1.5-7.03,2.75-1.17.67-1.72.92-1.72-.75,0-1.77.52-3.85-2.24-4.17-.45-.05-.42-.49-.46-.84-.33-3.13-1.96-5.78-3.07-8.63-.28-.71-.12-1.59-.17-2.66Zm90.11-112.63c2.62.55,4.22-1.26,5.26-3.55.4-.87.8-1.75,1.19-2.64,1.85-4.2.57-9.1-3.34-11.85-4.69-3.3-8.22-8-13.3-10.8-.44-.24-.89-.73-1.03-1.2-.78-2.65-2.88-3.38-5.22-3.41-4.67-.04-10.06,6.26-9.51,10.93.02.18.01.4.12.51,1.9,2.05,2.75,4.8,4.9,6.78,2.15,1.99,4.58,3.78,6.37,6.1,2.69,3.49,6.14,5.94,9.87,8.07,1.29.74,2.75,1.31,4.67,1.05Zm99.84-47.68c.26-3.97-2.68-6.13-5.35-8.39-1.36-1.15-3.22-2.1-3.71-3.74-1.82-6.07-6.93-8-12.02-9.67-4.18-1.37-7.39.72-8.78,4.82-.25.74-.67,1.42-.9,2.17-.49,1.61.13,3.02.78,4.47,1.24,2.76,3.67,4.71,5.88,6.18,2.35,1.57,3.59,4.04,6.03,5.48,2.43,1.44,5.14,2.47,7.32,4.27,2.59,2.14,4.97.87,7.34-.18,2.21-.98,3.44-2.76,3.42-5.42Z"/><path class="cls-3" d="m873.73,359.31c.74-.25,1.12-.65,1.13-1.56.01-2.89,2.29-3.97,4.46-4.31,2.61-.41-.57,1.98.84,2.45-2.18,2.64-2.08,6.49-5.54,8.71-2.27,1.46-3.95,4.37-5.16,7.15-.94,2.16-2.02,4.25-3,6.39-.4.87-1.08,1.57-.69,2.81.3.96-.67,1.85-1.74,2.01-1.65.25-2.38,1.45-2.84,2.76-.36,1.02-1.03,1.59-1.77,2.25-.69.62-1.57.84-1.41,2.42.13,1.26-1.58,2.66-2.89,3.68-2,1.55-3.02,3.65-3.28,6.15-.16,1.51-.69,2.86-1.82,3.92-.19.18-.64.3-.63.42.39,3.68-2.4,5.85-4.03,8.56-.27.45-.42,1.32-.71,1.36-4.56.61-3.7,4.97-5.16,7.62-1.44,2.62-3.22,4.9-5.04,7.21-.29.37-.57.68-.77,1.2-.82,2.16-1.2,4.29-3.75,5.84-1.87,1.14-2.7,4.48-3.37,7.01-.81,3.05-2.55,5.69-3.3,8.75-.39,1.61-2.23,1.83-3.51,1.99-1.75.23-2.36,1.47-2.35,2.59.03,2.71-1.3,5.03-1.72,7.58-.28,1.75-1.19,2.93-2.89,3.57-.97.37-1.45,1.32-1.78,2.23-.5,1.36-.9,2.7-2.65,2.89-.65.07-.78.61-.86,1.19-.34,2.41-1.32,4.59-2.4,6.75-1.42,2.86-2.49,5.9-4.06,8.68-1.73,3.07-3.65,6.11-6.95,7.83-.78.41-.5,1.1-.45,1.66.09,1.15-.32,2.11-.9,3.03-.52.82-.79,1.47-.53,2.64.37,1.69-.83,3.28-2.36,4.07-1.4.73-1.86,1.82-2.08,3.16-.18,1.09-.4,2.32-1.28,2.86-3.25,1.97-4.49,5.49-6.65,8.29-.6.78-1.24,1.55-2.22,1.9-1.21.44-2.02,1.4-2.06,2.56-.1,2.45-1.71,4.48-1.66,6.95.04,2.04-1.8,2.69-2.95,3.9-2.51,2.64-3.54,6.17-4.56,9.52-.74,2.42-2.49,3.72-4.14,5.07-.84.69-1.83,1.28-2.02,2.24-.63,3.2-3.76,5.33-3.55,8.95.07,1.21-.68,2.71-2.24,3.27-.41.15-1,.39-1.11.71-1.02,3.11-3.41,5.33-5.03,8.03-1.13,1.88-1.74,4.07-1.74,6.38,0,1.5-1.41,2.26-2.5,2.22-2.25-.09-2.26,1.54-2.31,2.77-.1,2.73-.44,5.22-2.87,6.98-.53.38-.97,1.16-1.07,1.82-.47,3.08-3.08,4.58-4.91,6.58-.66.72-1.6,2.67-3.41,1.26-.13-.1-.69.17-.92.4-2.87,2.93-6.44,3.24-10.23,2.83-.58-.06-.91.46-1.35.76-.8.56-1.75,1.15-2.69.94-4.43-.97-8.48.34-12.48,1.93-.81.32-1.54.45-2.27-.07-.49-.35-1.24-.48-1.51-.19-1.81,1.92-4.39,1.44-6.47,2.29-1.49.61-2.74.77-3.92.17-1.98-1.01-3.28-.16-4.24,1.28-.86,1.29-2.25,1.87-3.32,1.62-3.91-.91-7.41.85-11.09,1.29-.6.07-1.18.46-1.79.02-2.88-2.05-5.46-1.06-8.02.72-.61.42-1.53.77-2.22.65-4.82-.82-8.82,1.87-13.19,2.97-.6.15-1.22.29-1.83.36-.85.09-1.75-.08-2.01-.94-.24-.8.53-1.34,1.17-1.6,3.63-1.46,5.82-4.72,8.71-7.09,1.25-1.03.58-3.66,2.53-4.86.68-.42,1.24-.95,2.08-.99,2.09.32,2.33-.66,1.62-2.32.23-1.39,1.33-2.52,1.08-4.07-.13-.81.63-1.3,1.27-1.56,3.1-1.26,4.13-4.13,5.8-6.66,1.77-2.69,3.39-6.15,7.59-6.14,1.56,0,2.14-1.49,2.34-2.55.27-1.48,1.07-2.96,1.08-4.25.03-3.36,2.29-4.21,4.6-5.25,1.88-.85,2.93-2.27,2.7-4.34-.13-1.17.8-1.51,1.33-1.69,2.25-.74,3.15-2.56,3.97-4.48.77-1.8,1.78-3.22,4-3.36,1.1-.07,1.83-1.44,1.77-1.99-.27-2.11,1.04-3.29,2.4-4.01,2.74-1.45,4.01-4.17,6.01-6.23,2.53-2.61,4.72-5.56,6.99-8.42,1.29-1.63,1.33-4.33,4.09-4.68.72-3.84,4.5-4.39,6.8-6.53,1.31-1.21,1.74-3.43,2.55-5.18,1.15-2.49,3.27-3.81,5.44-4.32,2.05-.48,2.91-1.57,3.26-3.13.69-3.1,2.88-5.24,4.54-7.71,1.72-2.57,3.68-4.97,5.33-7.6.56-.88,2.06-1.57,3.16-1.62,1.82-.08,2.55-1.11,2.89-2.49.72-3.01,2.98-4.79,4.75-7.05,1.15-1.46,2.48-3.07,3.56-4.72,1.37-2.11,1.76-5.37,5.07-5.79.75-.1.71-.67.98-1.06,1.24-1.76,2.74-3,5.02-3.33,3.01-.44,3.21-3.41,4.24-5.49.57-1.15.77-2.42,2.05-3.09.32-.17.73-.69.67-.95-.44-1.97,1.01-3.24,2.21-3.71,2.98-1.18,3.91-3.67,5.06-6.19.65-1.42,1.99-2.12,3.44-2.71.96-.39,2.39-.11,2.85-1.2,1.33-3.18,4.37-5.13,5.7-8.25.68-1.59,1.8-2.59,3.34-3.18,4.26-1.63,7.67-4.11,8.94-8.78.06-.22.23-.54.41-.59,3.68-.98,4.36-4.62,6.35-7.09.52-.65,1.19-.88,1.98-1.17,2.29-.85,4.14-2.32,4.71-4.9.06-.26.08-.73.18-.74,3.65-.54,3.69-4.95,6.86-6.29,1.6-.68,2.66-2.92,3.7-4.61,1.83-2.95,3.64-5.73,7.05-7.24,2.11-.93,3.31-3.18,4.21-5.22.38-.86.87-1.22,1.46-1.59,2.4-1.51,5.12-2.64,7.15-4.53,1.1-1.03,3.57-1.98,2.46-4.65-.22-.54.36-1.85,1.06-2.74,2.99-3.76,6.52-7.03,9.59-10.75,2.16-2.62,4.67-5.55,8.06-7.12,1.04-.48,2.12-.93,2.86-1.87.31.17.59.21.71-.23Z"/><path class="cls-2" d="m369.65,361.95c-.7,3.7-.08,6.69-1.56,9.53-.91,1.73-.62,3.85-.81,5.74-.38,3.64-1.32,7.13-1.9,10.68-.66,4.03-.95,8.29.1,12.49.55,2.2.26,4.69.04,6.87-.21,2.06.03,4.02.38,5.87.29,1.52-.16,1.97-1.23,2.38-.98.37-2,.81-3.03.88-4.61.32-8.83,1.86-12.95,3.81-.73.34-1.15.91-1.49,1.47-.83,1.38-1.88,1.81-3.52,1.72-2.14-.12-4.23.46-5.84,2.05-.73.72-1.54,1.12-2.55,1.27-3.45.51-6.7,1.9-10.33,1.87-1.54-.01-3.54,1.41-4.46,2.98-2.05,3.51-5.23,4.1-8.73,3.74-1.3-.13-2.21.1-3.15.82-.35.27-.68.67-1.08.77-6.21,1.48-11.56,5.25-17.57,6.89-3.06.83-5.37,3.65-8.94,3.08-.9-.14-1.97.17-3.04-.11-2.17-.57-4.37-.58-6.45.47-.76.38-1.53.67-2.23-.02-.77-.76.15-1.33.4-1.88,1.26-2.78,2.97-5.36,3.92-8.29.87-2.69,3.65-3.8,4.89-6.25,2.02-3.98,6.82-4.53,9.82-7.37.37-.35,1.28-.37,1.21-.92-.47-3.76,3.48-4.8,4.61-7.58.19-.46,1-.95,1.52-.94,4.01.06,5.56-2.85,7.85-5.47,2.1-2.4,4.91-4.67,8.24-5.76,1.55-.51,3.31-.64,3.29-3.1,0-1.18,1.74-1.29,2.62-2.02,6.3-5.22,11.88-11.25,19.06-15.54,2.87-1.71,6.01-3.24,8.8-5.27,1.82-1.32,4.06-3.06,6.72-3.29.59-.05,1.4-.3,1.67-.74,1.47-2.4,4.63-3.01,5.76-5.94.78-2.04,3.26-2.9,5.26-3.08,1.53-.14,2.91-.19,4.69-1.82Z"/><path class="cls-2" d="m532.07,281.33c-1.87,1.67-3.2,2.08-5.11,1.38-1.97-.73-3.77.73-5.47,1.64-3.5,1.88-6.87,4.37-10.8,4.88-4.01.52-7.73,3.35-12.07,1.56-.97-.4-1.65.7-2.04,1.41-.94,1.7-2.33,1.87-4.01,1.66-2.82-.35-4.86,1.37-7.04,2.73-1.69,1.06-3.2,2.38-5.49,2.26-3.6-.19-6.91.82-9.63,3.34-.53.49-1.26,1.16-1.88.83-2.38-1.29-3.96.85-5.94,1.19-3.87.66-7.42,2.08-10.58,4.43-.2.15-.53.33-.72.26-3.61-1.37-5.33,1.98-7.97,3.05-2.57,1.04-4.57,4.21-8.01,2.52-.58-.29-1.1-.13-1.44.31-1.47,1.87-3.64,1.97-5.69,2.65-3.64,1.2-7.15,2.91-10.55,4.72-1.47.79-2.81,1.39-4.48,1.49-1.61.09-3.21.43-3.91,2.25-.12.31-.4.73-.67.78-2.83.54-5.53,1.47-8.22,2.68.17-.26.27-.62.51-.76,3.29-1.92,4.78-5.4,7.09-8.16.37-.44.48-1.03.62-1.62.51-2.03,1.13-3.55,4.01-3.72,2.51-.14,5.55-.43,6.99-3.77.96-2.21,3.6-3.74,4.4-5.97,1.74-4.85,6.94-6.04,9.49-9.89.46-.7,1.39-.5,2.01-.3,2.03.66,3.1-.45,4.32-1.81,2.02-2.26,4.09-4.32,7.14-5.53,2.7-1.07,5.55-2.05,7.98-3.93,1.52-1.17,3.73-1.16,5.7-1.22,3.03-.08,5.96-.35,8.48-2.34,1.09-.86,2.43-1.07,3.81-.95.71.06,1.44.22,2.11-.17,3.59-2.1,7.21-1.18,11.03-.69,2.31.29,5.07.52,7.63-.96,1.62-.94,4.09-.9,6.07-.58,2.13.35,4.39-.1,6.45,1.17.83.51,2.15.04,3.32-.35,2.54-.85,5.11-1.19,7.5.97,1.46,1.31,4.02,1.36,5.53.93,3.58-1.04,6.04,1.24,9.5,1.67Z"/><path class="cls-3" d="m843.26,320.49c-.02-.42-.05-.84-.07-1.26,1.88-2.1,4.4-2.99,6.97-3.82-1.97,2.19-4.39,3.69-6.9,5.07Z"/><path class="cls-3" d="m193.62,606.99c1.42-.43,2.4-.97,3.36.18.28.34.3.75-.02.84-1.14.34-2.1-.1-3.34-1.03Z"/><path class="cls-2" d="m656.05,604.45c.71,1.65.47,2.63-1.62,2.32.91-.52,1.26-1.42,1.62-2.32Z"/><path class="cls-3" d="m902.63,302.57c-.18-.14-.37-.28-.55-.42.15-.82.6-1.23,1.46-1.15.44.04.69.3.54.68-.24.62-.72,1-1.45.89Z"/><path class="cls-3" d="m677.5,393.81c.62,2.07-1.1.65-1.59,1.07.17-.89.9-.95,1.59-1.07Z"/><path class="cls-3" d="m657.54,469.4c-.1.83.42,1.92-.96,2.18-.27-.99.03-1.72.96-2.18Z"/><path class="cls-3" d="m793.01,351.98c.58-1.19,1.12-1.16,1.62.05-.55.34-1.09.16-1.62-.05Z"/><path class="cls-3" d="m798.39,339.8c-.21,1.16-.7,1.46-1.6.53.33-.81,1.06-.37,1.6-.53Z"/><path class="cls-3" d="m841.44,322.67c-.48-.15-.79-.43-.34-.87.37-.36.77-.21,1.03.23-.01.45-.38.52-.69.65Z"/><path class="cls-3" d="m873.73,359.31c-.12.44-.4.4-.71.23.1-.52.32-.63.71-.23Z"/><path class="cls-3" d="m228.54,592.53c.79.8.21.97-.5,1.07.03-.42-.2-.96.5-1.07Z"/><path class="cls-3" d="m799.48,338.84c.02.75.12,1.59-1.08.95.24-.45.5-.88,1.08-.95Z"/><path class="cls-3" d="m616.51,500.18c.89.92.12.96-.55,1.05.13-.38-.03-.91.55-1.05Z"/><path class="cls-3" d="m365.65,615.54c.39-.46.71-.35.99.12-.37.29-.7.25-.99-.12Z"/><path class="cls-3" d="m605.2,627c.13-.15.26-.3.39-.46.13.38-.07.47-.39.46Z"/><path class="cls-3" d="m580.89,526.28c-.17.12-.33.23-.5.35.04-.29.12-.55.5-.35Z"/><path class="cls-3" d="m650.87,404.44c.14.07.27.13.41.2-.27.41-.3-.11-.46-.12,0,0,.05-.08.05-.08Z"/><path d="m481.6,363.53c-1.93.27-3.38-.31-4.67-1.05-3.73-2.13-7.18-4.58-9.87-8.07-1.79-2.32-4.21-4.11-6.37-6.1-2.15-1.99-3-4.73-4.9-6.78-.1-.11-.1-.34-.12-.51-.55-4.67,4.84-10.97,9.51-10.93,2.33.02,4.44.75,5.22,3.41.14.47.59.96,1.03,1.2,5.08,2.81,8.61,7.51,13.3,10.8,3.91,2.75,5.18,7.64,3.34,11.85-.39.88-.79,1.77-1.19,2.64-1.05,2.29-2.64,4.1-5.26,3.55Z"/><path d="m581.44,315.85c.02,2.66-1.21,4.44-3.42,5.42-2.37,1.05-4.75,2.32-7.34.18-2.18-1.8-4.89-2.83-7.32-4.27-2.44-1.44-3.68-3.92-6.03-5.48-2.2-1.47-4.64-3.42-5.88-6.18-.65-1.45-1.27-2.86-.78-4.47.23-.74.65-1.43.9-2.17,1.39-4.1,4.6-6.19,8.78-4.82,5.09,1.67,10.2,3.6,12.02,9.67.49,1.63,2.35,2.58,3.71,3.74,2.67,2.26,5.61,4.42,5.35,8.39Z"/></svg>