<?xml version="1.0" encoding="UTF-8"?><svg id="Layer_1" xmlns="http://www.w3.org/2000/svg" viewBox="0 0 517 152.13"><defs><style>.cls-1{fill:#fff;}.cls-2{fill:red;}</style></defs><g><path d="M67.23,102.54v.29c0,.29-.09,.56-.25,.8,0,.04,0,.08,0,.12,.01,.22,.01,.43-.01,.63-.04,.33-.18,.63-.42,.86l-1.21,1.21c-.27,.27-.64,.42-1.02,.42h-.34c-.14,0-.29,0-.45-.01-.06,.02-.17,.02-.28,.02-.4,0-.72-.1-.97-.24h-.06c-.11,0-.34-.02-.45-.05-.23-.05-.45-.16-.64-.31-.27-.09-.62-.27-.9-.67-.04-.04-.1-.09-.15-.13-.19-.17-.46-.4-.68-.76-.3-.18-.54-.45-.68-.79-.06-.14-.1-.25-.13-.36-.02-.06-.03-.11-.06-.16-.03-.05-.09-.1-.12-.12-.52-.33-.74-.79-.85-1.05-.17-.15-.33-.31-.49-.48l-.18-.18c-.27-.27-.43-.64-.43-1.03v-.09l-.07-.06c-.34-.28-.65-.78-.65-1.22v-.42c0-.29,0-.55,0-.81,0-.25,.03-.46,.09-.64-.14-.48-.08-.9-.05-1.11,.02-.22,.09-.45,.2-.66,0-.12,0-.25,.02-.39,.02-.13,.05-.26,.1-.38,.12-.28,.29-.48,.43-.62,.12-.39,.4-.71,.79-.88l.8-.36c.19-.08,.39-.12,.59-.12h1.69c.29,.01,.62,.13,.88,.32,.21,.06,.38,.16,.49,.24,.51,.15,.81,.52,.93,.67,.06,.06,.17,.17,.28,.29l.03,.03c.47,.14,.84,.51,.98,.99,.02,.02,.05,.04,.07,.06,.23,.2,.62,.54,.84,1.08,.08,.09,.16,.18,.26,.26,.42,.33,.59,.7,.69,.92,.22,.23,.35,.54,.38,.85l.19,.19s.09,.1,.1,.11c.25,.27,.46,.71,.46,1.08v.66c.18,.34,.26,.75,.22,1.23,.01,.31,0,.55,0,.79Z"/><path d="M101.67,80.59c.11,.46,.05,.94-.19,1.4,0,.53-.29,1.02-.77,1.27l-.13,.08c-.22,.13-.51,.32-.9,.4-.06,.02-.12,.03-.18,.04-.27,.16-.6,.27-.89,.27-.04,0-.2-.01-.23-.01h-1.8c-.38,0-.75-.15-1.02-.42l-.43-.43c-.28-.28-.56-.58-.86-.85-.1-.09-.18-.18-.27-.28-.23-.07-.44-.2-.61-.36l-.16-.15c-.2-.18-.47-.42-.69-.77l-.14-.23c-.06-.1-.13-.22-.17-.26-.29-.24-.48-.61-.53-1l-.1-.1c-.21-.22-.34-.51-.39-.81-.01-.12-.02-.24-.02-.37-.2-.31-.28-.69-.21-1.07-.04-.23-.11-.79,.19-1.36,.01-.14,.03-.28,.02-.35-.07-.63,.15-1.11,.27-1.37,0,0,0-.01,0-.02,.01-.55,.31-.98,.72-1.23,.05-.09,.11-.17,.18-.25,.28-.32,.67-.5,1.09-.5h2.6c.35,0,.69,.13,.95,.36,.09,.07,.16,.15,.24,.23h0c.71,.28,1.05,.76,1.22,1.21,.12,.13,.25,.27,.39,.38,.32,.27,.48,.58,.56,.79,.16,.14,.29,.28,.41,.4,.05,.06,.11,.12,.17,.18,.38,.35,.62,.75,.71,1.17,.26,.29,.37,.6,.42,.76,.31,.48,.31,.95,.31,1.2,.01,.22,.01,.4,0,.57,.26,.46,.32,.98,.2,1.46Z"/><path d="M150.79,79.11c.12-.32,.25-.74,.26-1.16,.01-.57-.23-1.04-.41-1.38-.07-.13-.19-.38-.2-.45,0-.12,.09-.35,.16-.57,.13-.36,.29-.78,.28-1.26-.02-.36-.03-.73-.06-1.1l-.04-.7c-.03-.32-.07-.63-.16-1.07-.04-.23-.09-.48-.1-.71-.03-.42-.13-.81-.24-1.15-.06-.22-.11-.42-.14-.62-.01-.26,0-.52,0-.77,.02-.36,.02-.73-.01-1.06-.04-.32-.11-.62-.22-1.09-.06-.22-.1-.45-.14-.71-.04-.23-.03-.48-.03-.71,0-.33,0-.71-.07-1.07-.03-.18,0-.41,.03-.65,.03-.36,.07-.77-.02-1.2-.1-.54-.44-.94-.67-1.23-.1-.13-.28-.33-.29-.4-.04-.18-.03-.41-.03-.75,.01-.32,.01-.7-.07-1.07-.05-.18-.05-.41-.05-.68,.02-.35,.02-.76-.1-1.16l-.25-.9c-.07-.27-.14-.57-.23-.86-.1-.32-.23-.64-.39-1-.1-.22-.2-.46-.29-.69-.09-.29-.2-.57-.39-1-.1-.22-.19-.44-.29-.7-.06-.19-.11-.38-.16-.56l-.03-.12c-.08-.38-.19-.71-.3-1.05-.1-.23-.16-.46-.26-.78-.1-.34-.2-.66-.3-.93-.16-.4-.41-.72-.62-1.01-.14-.22-.28-.41-.35-.55l-.28-.7c-.13-.32-.27-.65-.43-1-.14-.29-.3-.58-.49-.9-.13-.22-.26-.44-.38-.67-.12-.23-.24-.46-.34-.7-.14-.32-.29-.62-.44-.93-.2-.38-.46-.66-.74-.97-.17-.18-.32-.34-.39-.46-.09-.15-.13-.41-.16-.59-.07-.35-.16-.78-.39-1.17-.2-.36-.46-.67-.71-.95-.13-.18-.26-.34-.38-.52-.19-.29-.39-.57-.68-.93-.13-.17-.26-.35-.38-.52-.09-.11-.14-.35-.21-.59-.1-.36-.22-.77-.47-1.16-.15-.2-.28-.41-.41-.64-.19-.3-.36-.6-.56-.87l-.25-.35c-.28-.38-.55-.75-.84-1.13-.25-.32-.54-.57-.84-.81-.16-.15-.33-.28-.48-.45-.27-.35-.61-.58-.96-.79-.22-.14-.38-.26-.46-.36-.07-.07-.14-.3-.23-.55-.12-.35-.24-.78-.58-1.14-.41-.45-.81-.91-1.22-1.32-.25-.27-.49-.54-.84-.87l-.44-.45c-.31-.32-.68-.52-1.04-.71-.2-.12-.38-.22-.47-.32-.1-.08-.2-.3-.32-.52-.18-.34-.36-.73-.7-1.01-.35-.34-.77-.51-1.1-.65-.21-.09-.42-.18-.52-.26-.13-.12-.25-.3-.42-.55-.19-.29-.4-.62-.74-.9-.36-.29-.77-.46-1.09-.58-.19-.09-.4-.18-.55-.27-.26-.22-.54-.42-.82-.6l-.17-.13c-.16-.1-.32-.22-.46-.32-.1-.09-.25-.32-.36-.51-.19-.3-.42-.68-.79-.96-.38-.28-.8-.41-1.18-.5-.19-.06-.43-.13-.55-.22-.19-.13-.36-.27-.61-.49-.27-.22-.52-.44-.81-.62-.18-.12-.34-.23-.49-.35l-.12-.07c-.29-.22-.58-.42-.87-.61-.25-.16-.5-.3-.77-.45,0,0-.59-.35-.81-.46-.18-.1-.75-.46-.75-.46-.26-.16-.52-.32-.78-.46-.32-.18-.65-.32-1.06-.46-.19-.09-.41-.16-.61-.28-.22-.11-.43-.25-.63-.36-.32-.19-.62-.36-.94-.52-.14-.07-.3-.2-.61-.43-.25-.2-.55-.42-.89-.58-.48-.22-.98-.22-1.33-.22-.2-.01-.45-.01-.54-.06-.07-.03-.24-.23-.35-.35-.24-.3-.59-.73-1.09-.91-.38-.14-.77-.22-1.14-.29-.2-.03-.42-.07-.62-.15-.32-.13-.65-.23-1-.33-.25-.07-.48-.14-.74-.23-.32-.1-.65-.19-1.06-.29-.22-.06-.45-.1-.68-.18-.31-.1-.62-.18-1.06-.25-.23-.04-.46-.08-.71-.16-.23-.07-.46-.16-.71-.24-.34-.13-.66-.25-.99-.34-.23-.06-.48-.14-.74-.23-.33-.12-.65-.22-1-.3-.15-.04-.34-.16-.54-.28-.31-.17-.7-.4-1.1-.49-.19-.04-.39-.07-.62-.07-.18,0-.36,.02-.64,.04-.14,.01-.29,.03-.45,.03h-.16c-.22-.06-.43-.07-.72-.07l-.77,.02c-.15,0-.26,0-.32-.02-.07-.02-.28-.18-.41-.27-.33-.26-.74-.58-1.29-.67l-.94-.14c-.29-.04-.57-.09-.99-.13h-.14c-.36,0-.68,.07-.97,.15-.23,.04-.42,.08-.58,.1-.19-.03-.38-.06-.55-.09h-.18c-.38-.09-.74-.14-1.09-.16-.23-.01-.46-.07-.72-.12-.38-.07-.72-.13-1.18-.16-.4,0-.77,.11-1.14,.23-.26,.09-.44,.13-.58,.13-.09,0-.32-.1-.49-.17-.35-.16-.8-.37-1.31-.37-.24,0-.51-.03-.75-.04-.32-.03-.64-.06-1.06-.06h-.02c-.54,.02-.98,.28-1.39,.55-.13,.09-.32,.2-.44,.22-.22,0-.43-.03-.71-.07-.29-.04-.57-.07-.82-.07-.03,0-.19,.02-.22,.02-.47,.03-.93,.07-1.39,.11l-.42,.04h-.14c-.19,0-.36-.02-.54-.04-.25-.02-.5-.04-.74-.04-.09,0-.18,.02-.41,.03-.34,.04-.69,.13-1.07,.25-.74,.03-1.89,.35-2.91,.68-.06,0-.12-.01-.18-.01-.19-.02-.36-.02-.55-.02-.25,0-.45,.02-.62,.05-.1,.03-.22,.03-.36,.03h-.7c-.22-.01-.51,0-.78,.06-.38,.09-.73,.24-1.07,.4-.2,.1-.41,.21-.62,.25-.25,.07-.51,.1-.75,.13-.36,.06-.71,.1-1.06,.2-.42,.11-.77,.35-1.09,.55-.23,.15-.39,.26-.54,.29-.14,.05-.35,.06-.65,.09-.35,.01-.76,.03-1.18,.17-.4,.13-.75,.35-1.04,.54-.22,.13-.4,.25-.58,.31-.32,.11-.62,.29-.97,.47-.2,.12-.4,.25-.64,.34-.03,.01-.11,.03-.32,.03h-.51c-.25,0-.64,.01-1.02,.16-.33,.13-.65,.3-.97,.46l-.16,.09c-.17,.08-.35,.17-.51,.24-.42,.19-.77,.46-1,.67-.2,.18-.38,.3-.54,.38-.14,.07-.36,.12-.62,.16-.38,.07-.75,.16-1.13,.35-.36,.18-.67,.42-.94,.67-.19,.16-.38,.3-.55,.41-.22,.12-.45,.22-.7,.32-.31,.15-.62,.29-.93,.45-.23,.13-1.55,.91-1.55,.91-.11,.07-.32,.13-.56,.19-.41,.09-.8,.2-1.19,.43-.27,.18-.54,.38-.87,.65-.19,.15-.38,.29-.58,.42-.34,.22-.59,.49-.86,.72-.16,.16-.32,.33-.52,.46-.27,.2-.55,.45-.87,.75-.16,.15-.32,.29-.5,.42-.19,.14-.4,.23-.61,.32-.29,.13-.65,.29-1.02,.56-.29,.22-.58,.46-.95,.77l-.45,.36c-.26,.22-.51,.46-.78,.77-.16,.16-.32,.33-.51,.5-.16,.13-.34,.25-.5,.37l-.12,.07c-.3,.2-.58,.39-.86,.64-.19,.16-.39,.32-.61,.46-.28,.22-.55,.42-.81,.66-.41,.39-.81,.78-1.29,1.23-.19,.19-.38,.36-.6,.55-.27,.25-.52,.46-.72,.68-.29,.29-.49,.59-.7,.91-.13,.19-.25,.39-.4,.57-.1,.09-.31,.21-.51,.3-.35,.18-.73,.38-1.03,.72-.27,.32-.54,.64-.77,.93l-.39,.46c-.23,.26-.44,.54-.71,.9-.14,.19-.29,.38-.42,.55-.29,.36-.45,.77-.58,1.14-.09,.23-.16,.42-.23,.52-.21,.28-.38,.58-.58,.94-.11,.21-.23,.42-.35,.6-.16,.2-.33,.39-.49,.55-.26,.28-.5,.54-.73,.84-.11,.19-.27,.33-.49,.55-.22,.23-.48,.49-.68,.81-.21,.3-.41,.62-.58,.93l-.36,.61-.45,.68c-.19,.28-.38,.56-.55,.86-.12,.22-.28,.4-.45,.65-.22,.27-.42,.56-.58,.84-.19,.34-.3,.66-.42,1.01-.07,.22-.14,.45-.26,.67-.19,.36-.29,.72-.38,1.12-.07,.23-.12,.45-.22,.64-.14,.3-.26,.61-.41,1.01-.07,.22-.16,.43-.24,.64-.12,.23-.23,.45-.36,.65,0,0-.07,.14-.09,.14-.14,.28-.29,.54-.4,.8-.1,.22-.23,.42-.39,.7-.19,.3-.37,.59-.49,.91-.16,.4-.2,.82-.23,1.17-.03,.26-.06,.46-.11,.62-.03,.07-.2,.23-.34,.35-.3,.28-.67,.62-.86,1.16-.16,.46-.13,.91-.1,1.27,0,.19,.01,.45-.02,.57-.03,.1-.2,.29-.32,.45-.24,.29-.56,.67-.69,1.13-.1,.34-.14,.68-.22,1.16-.03,.2-.06,.42-.11,.62-.06,.21-.13,.41-.21,.61l-.04,.1c-.14,.36-.26,.68-.35,1.02-.06,.21-.1,.42-.16,.62-.1,.38-.2,.75-.27,1.12-.1,.38-.09,.74-.09,1.17,.01,.25,.01,.5-.02,.67-.07,.41-.06,.78-.03,1.16,.01,.26,.03,.5,0,.67-.04,.22-.09,.44-.13,.64l-.04,.22c-.06,.3-.13,.61-.16,.91-.03,.16-.13,.38-.23,.61-.13,.33-.29,.7-.35,1.14-.04,.29-.06,.57-.07,.86v.16c-.01,.26-.03,.54-.04,.78-.03,.25-.07,.49-.13,.75-.07,.36-.13,.71-.16,1.04-.03,.48,.1,.9,.21,1.27,.06,.2,.13,.42,.11,.54,0,.18-.07,.39-.16,.68-.1,.33-.22,.71-.22,1.11-.01,.25-.06,.48-.1,.73-.06,.32-.13,.7-.13,1.1s.09,.79,.16,1.13c.06,.22,.11,.43,.11,.65l.02,.3c0,.51,.02,1.01,.05,1.53,.01,.3,.06,.61,.13,1.03,.05,.25,.09,.49,.1,.76,.03,.24,.03,.5,.04,.79,0,.33,.01,.68,.05,1,.04,.35,.11,.71,.23,1.11,.06,.22,.12,.42,.15,.67,0,.09-.09,.32-.13,.48-.16,.43-.3,.88-.23,1.37,.07,.51,.34,.91,.59,1.29,.06,.09,.24,.34,.26,.41,.03,.19,.02,.41-.02,.7-.01,.33-.04,.73,.03,1.14,.04,.25,.04,.48,.04,.7,0,.35,0,.74,.08,1.13,.07,.34,.16,.65,.28,1.03,.07,.23,.15,.46,.22,.74,.12,.48,.38,.82,.62,1.14,.11,.16,.26,.36,.29,.48,.05,.11,.02,.35,0,.61-.03,.35-.07,.8,.07,1.25,.07,.25,.11,.48,.18,.77,.07,.35,.14,.68,.24,1,.12,.36,.29,.68,.48,1.03,.12,.19,.23,.39,.32,.64,.17,.46,.47,.79,.74,1.07,.13,.14,.3,.33,.35,.45,.09,.22,.16,.46,.23,.69,0,.02,.06,.16,.06,.16,.09,.28,.19,.55,.3,.84,.05,.1,.06,.33,.08,.55,.01,.41,.03,.84,.22,1.26,.16,.39,.39,.7,.62,1.01,.16,.2,.29,.38,.37,.52,.06,.16,.1,.36,.14,.62,.06,.41,.13,.8,.33,1.19,.22,.42,.55,.74,.83,.98,.14,.15,.3,.3,.36,.42,.12,.22,.23,.43,.33,.66l.06,.13c.13,.29,.26,.56,.41,.81,.07,.14,.13,.38,.18,.59,.07,.36,.16,.77,.39,1.16,.19,.35,.43,.62,.68,.93,0,0,.25,.29,.27,.32,.06,.07,.1,.14,.16,.23,.12,.19,.2,.38,.3,.62,.13,.3,.29,.67,.51,.97,.25,.41,.61,.68,.91,.9,.2,.16,.36,.29,.44,.39,.09,.11,.14,.23,.2,.34l.19,.36c.18,.3,.34,.61,.52,.88,.11,.14,.2,.36,.3,.61,.14,.32,.29,.68,.52,.97,.31,.42,.73,.67,1.09,.86,.13,.07,.36,.2,.45,.3,.1,.12,.17,.32,.28,.55,.14,.33,.3,.72,.59,1.07,.13,.16,.25,.3,.38,.46l.17,.22c.19,.24,.38,.49,.61,.74,.16,.17,.3,.36,.51,.63,.2,.28,.4,.52,.62,.77,.35,.36,.78,.54,1.19,.7,.14,.06,.4,.16,.45,.2,.18,.18,.29,.36,.45,.58,.19,.28,.41,.6,.7,.86,.17,.18,.35,.36,.52,.55,0,0,.09,.1,.1,.1,.2,.23,.42,.45,.63,.65,.12,.1,.54,.52,.54,.52,.25,.25,.5,.49,.77,.74,.26,.22,.55,.43,.86,.64,.2,.13,.4,.26,.59,.42,.25,.22,.55,.41,.91,.63,.19,.12,.39,.24,.58,.4,.11,.1,.26,.31,.38,.52,.19,.29,.42,.65,.8,.94l.5,.4c.31,.25,.61,.48,.91,.7,.3,.23,.64,.45,.94,.66l.55,.36c.36,.26,.75,.38,1.19,.5,.2,.06,.42,.12,.55,.2,.11,.07,.24,.23,.4,.43,.23,.28,.51,.61,.9,.86,.39,.25,.83,.35,1.19,.44,.22,.06,.44,.12,.57,.19,.22,.13,.41,.28,.62,.45,.29,.22,.56,.44,.84,.58,.16,.08,.32,.19,.46,.27,.04,.05,.09,.08,.13,.09,.1,.07,.17,.1,.17,.1,.26,.17,.52,.33,.81,.49l.39,.21c.41,.22,.8,.42,1.22,.62,.42,.2,.87,.24,1.26,.29,.16,0,.42,.03,.54,.07,.22,.12,.42,.25,.61,.38,.33,.22,.64,.41,.95,.55,.1,.05,.28,.22,.42,.35,.29,.3,.61,.61,1.1,.83,.25,.09,.51,.13,.84,.13,.16,0,.34-.02,.57-.03,.1-.02,.2-.03,.3-.03,.12,0,.14,.02,.16,.03,.12,.04,.29,.17,.46,.31,.26,.22,.62,.51,1.09,.67,.32,.12,.68,.19,1.07,.26,.23,.03,.46,.07,.68,.15,.42,.14,.84,.17,1.16,.19,.25,.01,.49,.04,.65,.09,.22,.06,.45,.14,.66,.22,.36,.13,.7,.25,1.06,.35,.1,.03,.3,.17,.49,.3,.3,.23,.67,.48,1.15,.61,.24,.06,.48,.13,.72,.22,.35,.11,.68,.23,.93,.27,.22,.06,.45,.09,.72,.09,.14,0,.29-.01,.44-.01,.02,0,.18-.02,.18-.02,.11-.01,.24-.03,.38-.03,.07,0,.14,.02,.2,.03,.17,.03,.36,.11,.62,.25,.3,.16,.68,.35,1.03,.39,.11,.03,.36,.06,.46,.06,.32,0,.61-.07,.91-.13,.16-.03,.32-.07,.52-.07h.03c.15,.03,.37,.14,.54,.23,.3,.16,.72,.38,1.29,.45,.04,0,.22,.02,.26,.02,.23,0,.46-.03,.71-.07,0,0,.07,0,.19-.03v.02c.14-.03,.29-.04,.54-.04,.03,0,.29,.02,.33,.02,.26,0,.52-.04,.88-.09,.18-.03,.38-.07,.65-.07,.19,.01,.39,.07,.67,.17,.34,.09,.71,.2,1.13,.22,.25,.01,.48,.06,.84,.13,.34,.06,.66,.1,.98,.1l.7,.03c.36,.02,.74,.03,1.1,.03,.45,0,.87-.13,1.2-.23,.25-.07,.45-.13,.61-.14,.13,0,.35,.09,.52,.14,.35,.13,.77,.27,1.2,.27h.09c.46-.03,.87-.18,1.2-.29,.23-.08,.45-.17,.58-.19,.4-.01,.77-.14,1.18-.27,.22-.09,.43-.16,.63-.17,.23-.03,.48-.04,.73-.07,.33-.02,.68-.04,1.04-.09,.09,0,.35,.1,.49,.16,.3,.11,.7,.26,1.12,.26,.07,0,.16-.01,.25-.03,.32-.03,.64-.1,.95-.16l.14-.03c.24-.06,.45-.1,.74-.14,.29-.06,.58-.15,1.03-.29,.22-.07,.44-.16,.68-.2,.48-.1,.86-.35,1.2-.56,.18-.11,.38-.23,.51-.26,.12,0,.29,.04,.61,.11,.23,.04,.48,.1,.77,.1,.12,0,.38-.03,.49-.06,.49-.13,.87-.45,1.19-.71,.13-.1,.33-.28,.4-.3l.78-.2c.32-.07,.64-.16,.94-.26l.72-.2c.35-.09,.68-.19,1.02-.29,.17-.06,.4-.09,.71-.11,.33-.03,.7-.07,1.11-.21,.22-.08,.45-.15,.67-.23,.33-.1,.68-.22,1.03-.35l.66-.24c.35-.12,.7-.25,1-.38l.48-.19c.4-.16,.83-.33,1.2-.51,.23-.09,.46-.19,.71-.28,.35-.12,.68-.24,.98-.39,.18-.08,.36-.15,.54-.22l.19-.07c.35-.13,.66-.25,.96-.39,.38-.19,.67-.45,.98-.72,.19-.19,.34-.32,.5-.41,.2-.12,.4-.21,.68-.35,.3-.16,.61-.3,.9-.48,.22-.1,.44-.2,.68-.32,.35-.15,.68-.3,.96-.46,.38-.22,.65-.51,.93-.81,.16-.19,.32-.35,.44-.44,.11-.06,.33-.11,.66-.2,.34-.09,.71-.19,1.1-.45,.39-.26,.64-.62,.86-.96,.11-.16,.26-.38,.33-.43,.12-.09,.38-.14,.58-.2,.36-.1,.78-.2,1.16-.48,.32-.23,.55-.49,.81-.78,.16-.17,.32-.35,.52-.51,.12-.1,.57-.43,.57-.43,.29-.2,.58-.42,.84-.64,.19-.16,.41-.26,.61-.36,.33-.19,.64-.36,.96-.62,.32-.28,.55-.59,.75-.9,.15-.22,.28-.39,.41-.52,.09-.07,.3-.16,.51-.25,.33-.13,.77-.29,1.13-.63,.29-.26,.49-.58,.71-.9,.15-.22,.28-.41,.39-.54l.22-.2c.36-.35,.73-.71,1.09-1.07,.17-.17,.36-.33,.56-.49,.29-.24,.55-.46,.79-.72,.28-.3,.48-.65,.64-.95,.13-.24,.23-.44,.35-.57,.18-.19,.35-.36,.54-.54,.26-.26,.51-.51,.74-.78,.28-.33,.45-.71,.61-1.06,.08-.22,.17-.41,.27-.52l.39-.5,1.14-1.45c.22-.29,.45-.6,.67-.9,.06-.06,.29-.18,.46-.26,.35-.19,.79-.42,1.1-.86,.1-.16,.22-.34,.32-.52,.42-.55,.75-1.19,.81-1.32,.02-.01,.02-.03,.02-.03,.05-.06,.07-.12,.12-.18l.14-.19c.2-.27,.39-.54,.57-.82l.42-.64c.19-.29,.38-.59,.55-.88,.17-.29,.31-.61,.51-1.04,.08-.19,.17-.39,.29-.57,.13-.23,.26-.44,.39-.65,.17-.26,.33-.51,.51-.79,0,0,.05-.09,.06-.12,.23-.43,.27-.89,.32-1.27,.02-.19,.03-.43,.09-.55,.09-.18,.25-.35,.39-.52,.25-.3,.49-.6,.64-.92,.07-.14,.13-.29,.18-.46,.07-.24,.11-.5,.14-.73,0,0,.03-.21,.03-.22,.04-.2,.07-.35,.12-.45,.06-.14,.19-.32,.35-.52,.26-.3,.49-.62,.65-1.01,.09-.22,.22-.42,.35-.61,.17-.29,.38-.62,.52-1l.08-.19c.19-.49,.38-1,.56-1.51,.1-.32,.19-.63,.29-1.07,.06-.22,.12-.45,.21-.7,.1-.32,.16-.68,.2-1.05,.04-.24,.07-.48,.14-.72,.09-.32,.14-.67,.19-1.11,.03-.22,.06-.45,.11-.68,.09-.34,.16-.67,.26-1.07l.16-.67c.03-.13,.19-.33,.3-.52,.2-.3,.46-.68,.56-1.15,.09-.33,.11-.68,.16-1.06,.03-.24,.04-.49,.1-.74,.08-.38,.06-.74,.06-1.14-.02-.23-.03-.45,.02-.67,.03-.17,.13-.39,.24-.61,.15-.34,.32-.7,.39-1.16,.06-.46-.06-.92-.17-1.32-.04-.15-.11-.42-.1-.54,.02-.13,.09-.34,.19-.57,.18-.38,.32-.75,.35-1.16,.04-.36,.06-.72,.07-1.07,0-.26,.01-.51,.03-.75,.03-.32,.01-.65,0-1.04-.02-.26-.03-.52-.02-.77,0-.16,.07-.38,.14-.62Zm-36.99-15.39s-.04,.09-.04,.1c-.03,.06-.06,.13-.07,.19-.13,.07-.24,.14-.39,.26-.07,.06-.22,.2-.28,.28-.08,.11-.16,.23-.22,.36-.03,.06-.07,.19-.07,.19-.09,.22-.13,.45-.12,.74-.03,.06-.04,.1-.07,.16-.05,.06-.09,.13-.13,.2-.13,.09-.25,.19-.35,.3-.13,.16-.3,.42-.38,.82-.02,.04-.02,.09-.02,.13-.03,.03-.05,.07-.06,.1-.04,.06-.07,.13-.1,.2-.06,.07-.13,.18-.23,.32v.02c-.38,.07-.72,.29-.94,.59-.12,.12-.33,.3-.5,.6-.13-.13-.31-.29-.51-.42-.04-.07-.09-.13-.15-.2-.15-.19-.35-.38-.49-.52-.09-.08-.16-.16-.28-.24-.22-.18-.56-.45-1.09-.65-.12-.13-.26-.25-.4-.34-.12-.06-.22-.1-.32-.14-.23-.2-.46-.33-.65-.45-.07-.04-.16-.08-.2-.12-.14-.19-.32-.34-.54-.48-.12-.09-.23-.16-.34-.2-.24-.13-.54-.23-.81-.33-.09-.03-.17-.06-.17-.06-.06-.01-.1-.03-.16-.04-.02-.03-.18-.19-.18-.19-.1-.12-.2-.22-.31-.32-.13-.12-.29-.23-.57-.38-.46-.26-.98-.55-1.57-.74-.52-.16-1-.41-1.42-.64-.3-.19-.62-.23-.86-.25-.3-.28-.68-.44-1.09-.46-.11-.06-.25-.12-.36-.14,.04-.04,.09-.1,.13-.15,.19-.08,.49-.23,.74-.49,.02-.02,.12-.06,.13-.07,.06-.03,.14-.07,.2-.12,0,0,.18-.07,.2-.09,.19-.07,.35-.17,.44-.23,.04-.03,.1-.07,.14-.11,.32-.06,.55-.2,.71-.32,.29-.08,.56-.26,.75-.46,.22-.23,.34-.36,.34-.39,.04-.01,.11-.03,.19-.06,.33-.09,.59-.26,.77-.39,.02-.02,.03-.02,.04-.03,.84-.16,1.32-.77,1.57-1.07,.05-.06,.09-.1,.12-.14,.01-.02,.03-.03,.04-.05,.07-.04,.14-.07,.32-.16,.03-.01,.35-.19,.45-.23,.02,0,.35-.03,.35-.03,.11-.02,.23-.03,.33-.07,.22-.07,.43-.19,.61-.36l.03-.03c.07-.04,.22-.14,.39-.27t.02-.02c.09-.03,.16-.06,.25-.1,.12-.06,.22-.1,.35-.17l.16-.07c.18-.06,.41-.14,.64-.29,.13-.02,.23-.04,.27-.06,.18-.03,.34-.09,.48-.17,.48-.03,.82-.22,1.1-.38,.2-.06,.44-.15,.62-.36h.82c.31,0,.61-.1,.87-.27,.04,0,.1,.02,.16,.03,.14,.03,.28,.03,.42,.03,.07,0,.27-.01,.33-.01,.19-.03,.38-.03,.58-.03h.33c.27-.02,.54-.09,.75-.25,.03,.02,.06,.02,.08,.02,.13,.01,.26,.03,.39,.04,.02,.02,.04,.03,.06,.04,.22,.19,.44,.39,.64,.61v.78c0,.18-.01,.41,.04,.71,.03,.12,.06,.2,.09,.3-.03,.07-.04,.16-.06,.25-.01,.03-.03,.09-.03,.09-.09,.4-.06,.79-.03,1.07v.02s-.03,.06-.03,.07c-.05,.09-.07,.19-.1,.29-.07,.25-.06,.54,.03,.82-.04,.06-.13,.2-.15,.22l-.11,.23c-.03,.07-.06,.14-.07,.2-.03,.1-.06,.2-.06,.3-.15,.26-.22,.49-.23,.71-.05,.09-.1,.17-.15,.27-.19,.23-.32,.48-.42,.66,0,0-.03,.03-.06,.07-.36,.27-.58,.71-.58,1.16,0,.09,0,.18,.01,.28Zm-81.32,30.29s.13-.16,.13-.16c.08-.12,.15-.23,.22-.35,.04-.07,.09-.16,.16-.25,.22-.14,.39-.35,.51-.6,0,0,.01-.01,.03-.01,.13-.07,.25-.16,.34-.26,.09-.09,.21-.23,.26-.33,.04-.06,.1-.16,.14-.29,.02-.03,.48-.46,.68-.68,.16-.18,.29-.38,.35-.61,.17-.16,.3-.34,.42-.57,.04-.09,.09-.21,.12-.3,.09-.13,.16-.26,.22-.39,0,0,.12-.28,.13-.32,.04-.06,.09-.13,.13-.19,.02,0,.02-.01,.03-.01,.11-.03,.26-.09,.39-.16,0,0,.14-.02,.22-.03l.19-.06c.23-.09,.47-.25,.64-.43,.18-.19,.26-.38,.3-.52,.06-.12,.11-.24,.16-.41,.46-.39,.58-.88,.62-1.07,0,0,0-.03,.02-.06,.01-.06,.03-.12,.06-.17,.13-.04,.26-.13,.38-.23,.11-.06,.23-.12,.3-.16,.05-.03,.16-.12,.2-.15,.21-.14,.38-.33,.51-.54,.02,0,.18-.12,.22-.14,.27-.22,.47-.49,.61-.87,.03-.03,.07-.08,.13-.13,.38-.03,.72-.19,.98-.48,0,0,.19-.22,.21-.23,.03-.03,.57-.56,.57-.56,.19-.19,.3-.42,.38-.67,.14-.04,.29-.11,.42-.2,.09-.06,.16-.12,.23-.17,.04-.03,.07-.06,.09-.07,.07-.07,.14-.13,.22-.2,0,0,.34-.35,.35-.36l.06-.06s.07-.01,.1-.03c.18-.07,.35-.2,.48-.33,.16-.16,.26-.34,.33-.48,.02-.03,.04-.11,.04-.11,.12-.06,.22-.12,.35-.2,.14-.09,.29-.19,.33-.25,.15-.1,.26-.22,.36-.35,.16-.2,.35-.38,.55-.55l.02-.03c.16-.06,.29-.12,.36-.18,.09-.06,.23-.17,.3-.25,.08-.07,.15-.14,.2-.22,.03-.02,.28-.23,.38-.32,.38-.14,.74-.45,.94-.95,0-.02,.02-.02,.02-.02,.07-.03,.14-.07,.2-.1h.06c.22,0,1.18-.06,1.58-1.04,.36-.11,.66-.38,.84-.73l.09-.19s.04-.06,.06-.07c.06-.05,.12-.07,.3-.16,.22-.09,.54-.22,.86-.49,.02,0,.03-.02,.03-.02,.16-.04,.31-.1,.46-.17h.23c.35,0,.68-.12,.94-.35,.06-.04,.1-.09,.14-.13,.41-.06,.84-.26,1.15-.72,.19-.02,.38-.07,.58-.18,.09-.04,.19-.1,.26-.16,.05-.03,.09-.07,.15-.12,.03-.03,.07-.07,.12-.1,.13-.13,.23-.28,.3-.4,.04-.03,.14-.1,.14-.1,.13-.1,.25-.22,.35-.36,.05-.03,.25-.16,.26-.16,.03-.02,.15-.07,.18-.09,.17-.1,.36-.19,.54-.3l.25-.16c.1-.07,.2-.15,.29-.23,.72-.03,1.03-.18,1.96-.62,.2-.1,.44-.18,.67-.25l.59-.21c.45-.16,.76-.33,.99-.58h.02c.22,0,.7,0,1.14-.24,.09-.02,.18-.02,.32-.02,.13-.02,.25-.03,.38-.06,.29-.04,.55-.19,.77-.38h1.13c.39,0,.8-.2,1.09-.51,.03,0,.06-.01,.09-.01,.1-.02,.22-.04,.22-.04,.12-.03,.29-.09,.41-.15,.02,0,.03-.01,.04-.03,.06,.02,.1,.02,.13,.02,.1,0,.2-.02,.23-.02,.03,0,.32-.01,.32-.01,.1,0,.48,.01,.51,.01,.46,0,.88-.13,1.23-.38,.07-.03,.16-.06,.22-.09h.19c.54,0,.94-.22,1.18-.36,.03,0,.14-.07,.17-.07,.04-.03,.1-.06,.15-.06,.16,.02,.3,.03,.46,.03,.29,0,.55-.06,.76-.13,.13,.04,.23,.06,.26,.06,.1,.03,.26,.04,.36,.04,.29,0,.56-.09,.8-.23h.03c.26,0,.48-.04,.67-.12,.19,.06,.4,.12,.68,.12,.38,.22,.73,.28,.97,.28,.13,0,.26-.02,.38-.05,.03,.07,.04,.16,.02,.26l-.04,.02s-.22,.16-.23,.16h-.09c-.29,0-.58,.08-.82,.26-.1,.06-.19,.14-.26,.21-.07,.06-.13,.13-.2,.2l-.04,.04h-.13c-.61,0-1.12,.36-1.33,.89l-.06,.1s-.07,.02-.1,.02c-.33,.06-.71,.35-.93,.61-.1,.12-.2,.25-.28,.36-.03,.06-.06,.1-.07,.14-.16,.07-.33,.17-.51,.35l-.75,.75c-.2,.08-.38,.18-.57,.32-.09,.06-.17,.15-.21,.18-.08,.09-.17,.17-.22,.22l-.24,.29s-.15,.07-.31,.12l-.49,.17c-.06,.02-.18,.07-.23,.09-.3,.13-.77,.36-1.16,.88l-.04,.05c-.25,.06-.48,.19-.67,.38l-.29,.29c-.21,.2-.41,.39-.6,.61-.04,.02-.19,.07-.23,.1-.42,.01-.81,.17-1.06,.52-.04,.03-.1,.06-.14,.09-.23,.11-.56,.3-.87,.63l-.08,.12c-.09,.04-.18,.09-.25,.13-.49,.14-.93,.43-1.23,.84-.04,.04-.07,.08-.1,.14-.05,.01-.09,.03-.12,.04-.12,.04-.23,.1-.33,.19-.04,.01-.07,.01-.1,.03-.11,.04-.2,.09-.3,.14-.22,.03-.42,.09-.61,.19s-.3,.18-.43,.34c-.09,.07-.16,.13-.16,.13-.09,.08-.19,.17-.33,.35-.04,.06-.09,.11-.12,.17-.45,.07-.86,.29-1.2,.66-.13,.13-.27,.28-.5,.51l-.12,.12c-.1,.09-.2,.2-.32,.27-.43,.17-.8,.44-1.09,.67-.14,.12-.26,.23-.39,.36,0,0-.23,.25-.25,.26-.22,.03-.43,.1-.61,.23-.12,.08-.23,.15-.35,.2-.09,.05-.17,.07-.22,.1-.5,.13-.95,.49-1.2,.94-.1,.06-.19,.13-.26,.19-.39,.06-.77,.25-1,.57-.04,.03-.1,.06-.16,.09-.13,.07-.26,.14-.38,.23-.16,.12-.3,.23-.42,.35h-.02c-.26,.06-.49,.16-.7,.3-.07,.04-.13,.1-.2,.17-.02,.02-.05,.04-.08,.07-.06,.03-.14,.06-.23,.12h-.51c-.39,0-.77,.16-1.03,.43l-.29,.29c-.16,.14-.32,.3-.47,.48h-.04c-.41,.03-.78,.23-1.05,.55l-.12,.15h-.04c-.25,0-.48,.06-.7,.17-.12,.07-.23,.15-.35,.25-.09,.06-.17,.14-.26,.23,0,.02-.03,.03-.04,.06-.64,.03-1.18,.34-1.53,.83-.13,.06-.29,.13-.45,.25-.09,.03-.16,.06-.23,.1-.11,.04-.27,.14-.43,.3-.04,.04-.1,.11-.16,.19-.16,0-.31,.03-.45,.06-.06-.02-.13-.02-.19-.02-.36,0-.88,.11-1.3,.67-.18,.16-.32,.34-.42,.46l-.05,.04s-.03,.02-.04,.02c-.29,.06-.57,.17-.8,.33-.12,.07-.23,.17-.35,.27-.02,.02-.03,.03-.05,.04h-.22c-.13,0-.27,.03-.4,.06-.09,.03-.28,.1-.36,.16-.12,.04-.22,.11-.25,.14-.07,.05-.17,.13-.23,.19l-.03,.03s-.14,.16-.18,.2c-.01,.03-.12,.19-.13,.2-.12,.06-.22,.14-.3,.22-.36,.03-.65,.12-.89,.25h-.46c-.49,0-.94,.24-1.21,.66-.05,.06-.25,.21-.41,.31-.19,.12-.4,.27-.63,.46-.32,.06-.57,.19-.73,.3-.07,.04-.13,.1-.22,.17-.19,.03-.39,.1-.57,.2-.1,.07-.22,.14-.38,.26-.12,.03-.22,.06-.35,.09-.09,.04-.22,.09-.35,.16-.12,.05-.2,.1-.23,.12-.1,.06-.19,.13-.35,.23,.16-.23,.27-.51,.32-.8Zm102.52,14.24c-.16,.32-.33,.64-.5,.94-.23,.43-.35,.87-.43,1.22-.05,.17-.1,.4-.13,.45-.04,.06-.22,.2-.33,.29-.29,.23-.66,.54-.94,.97-.29,.45-.41,.91-.49,1.29-.05,.14-.09,.35-.12,.39-.04,.09-.23,.23-.38,.35-.26,.23-.59,.51-.87,.89-.3,.42-.45,.86-.57,1.2-.06,.14-.13,.38-.17,.43-.18,.24-.34,.48-.49,.71-.18,.25-.34,.49-.48,.68-.06,.04-.23,.14-.35,.2-.35,.21-.78,.44-1.14,.87-.35,.41-.52,.86-.65,1.22-.06,.13-.13,.33-.16,.38-.17,.19-.36,.35-.55,.53-.24,.22-.49,.43-.72,.68-.2,.22-.42,.42-.64,.62-.2,.19-.4,.39-.59,.58l-.51,.52c-.23,.25-.46,.5-.72,.74-.22,.23-.46,.44-.7,.66-.2,.17-.39,.35-.57,.52-.25,.22-.48,.46-.69,.72-.16,.19-.32,.38-.51,.55-.23,.19-.46,.36-.7,.54-.22,.18-.45,.35-.67,.54-.1,.09-.3,.19-.51,.29-.3,.14-.67,.32-1.02,.6-.45,.38-.71,.85-.9,1.18-.04,.09-.1,.19-.15,.26-.08,.03-.17,.03-.27,.04-.41,.07-.97,.16-1.49,.52-.34,.25-.59,.52-.84,.77-.16,.18-.31,.34-.45,.42-.23,.16-.46,.34-.7,.51-.23,.18-.46,.35-.71,.51-.26,.18-.52,.36-.78,.57-.2,.16-.42,.32-.63,.45-.28,.18-.55,.36-.81,.57-.2,.16-.39,.3-.61,.43-.24,.13-.48,.23-.73,.35-.29,.13-.58,.28-.85,.42-.23,.13-.49,.24-.74,.35-.29,.12-.58,.25-.82,.38-.08,.03-.31,.06-.47,.09-.36,.06-.82,.12-1.27,.33-.46,.22-.8,.52-1.07,.77-.12,.1-.29,.26-.35,.29-.41,.17-.73,.4-1.02,.61-.17,.13-.36,.26-.36,.27-.1,0-.23-.03-.35-.04-.25-.03-.49-.06-.74-.06-.33,0-.62,.04-.91,.15-.38,.15-.77,.28-1.16,.41l-.46,.16c-.51,.18-.87,.46-1.18,.7-.11,.09-.29,.22-.33,.25-.26,.09-.52,.14-.8,.2-.3,.08-.61,.15-.88,.22-.23,.07-.48,.1-.71,.13-.35,.04-.7,.1-1.02,.19-.51,.13-.91,.41-1.23,.61-.12,.09-.29,.2-.3,.22-.11,0-.25-.03-.36-.06-.32-.06-.64-.12-.94-.12-.19,0-.38,.01-.55,.06-.23,.05-.5,.06-.74,.09-.32,.02-.65,.04-.98,.11-.67,.12-1.14,.53-1.49,.81-.07,.07-.13,.13-.2,.19h-.1c-.13,0-.28-.01-.41-.01-.2-.02-.41-.03-.61-.03-.19,0-.36,0-.55,.03-.57,.07-1.15,.14-1.81,.22-.17,0-.33-.03-.5-.04-.29-.04-.58-.07-.85-.07-.1,0-.21,0-.29,.02-.35,.01-.7,.08-1.06,.17-.22,.04-.43,.1-.66,.11-.36,.02-.74,.1-1.1,.18-.2,.05-.42,.1-.65,.12-.12,0-.32-.06-.52-.1-.33-.07-.74-.18-1.2-.18-.12,0-.33-.06-.54-.11-.33-.09-.74-.19-1.19-.2h-.1c-.35,0-.7,.06-1.06,.11-.18,.03-.36,.07-.58,.07-.24-.01-.49-.06-.74-.1-.32-.07-.65-.13-.98-.16h-.23c-.41,0-.77,.07-1.07,.14-.17,.04-.36,.07-.46,.07-.1,0-.31-.08-.5-.16-.32-.12-.71-.27-1.18-.33-.16-.03-.32-.03-.5-.03-.23,0-.48,.01-.71,.04-.13,0-.25,.01-.45,.01h-.1c-.29-.04-.6-.06-.9-.06h-.44c-.14,0-.29,0-.38-.02-.06-.02-.22-.13-.33-.2-.34-.23-.75-.51-1.33-.63-.29-.06-.6-.1-.9-.14-.27-.03-.54-.08-.81-.13-.36-.09-.71-.1-.99-.1l-.45,.02c-.16,0-.28-.02-.32-.03-.1-.03-.3-.14-.48-.25-.31-.17-.67-.39-1.1-.51-.45-.13-.87-.16-1.2-.19-.22-.01-.45-.03-.55-.06-.25-.09-.49-.19-.74-.29-.3-.13-.6-.26-.88-.36l-.57-.19c-.36-.12-.72-.25-1.09-.38-.07-.03-.24-.17-.38-.28-.28-.23-.62-.52-1.09-.71-.3-.11-.62-.22-.93-.32-.25-.07-.49-.15-.72-.25-.34-.14-.7-.25-1.04-.33-.22-.06-.43-.1-.64-.19-.3-.14-.62-.26-.96-.36-.23-.07-.46-.15-.67-.25-.11-.06-.29-.2-.46-.35-.26-.23-.56-.48-.96-.69l-.45-.23c-.36-.19-.72-.38-1.09-.58-.29-.18-.61-.3-.93-.44-.22-.1-.45-.19-.66-.3-.21-.13-.39-.29-.58-.45-.26-.2-.52-.42-.81-.59-.22-.14-.42-.3-.61-.48-.26-.2-.51-.39-.77-.58-.48-.32-.96-.65-1.44-.98-.24-.18-.47-.38-.71-.57-.22-.17-.42-.35-.64-.52-.33-.25-.67-.42-.97-.57-.22-.12-.42-.22-.54-.3-.04-.06-.14-.23-.22-.35-.2-.34-.45-.75-.86-1.1l-.52-.42c-.27-.22-.55-.45-.81-.67-.21-.19-.41-.36-.61-.54-.25-.19-.48-.39-.71-.61-.38-.35-.8-.54-1.13-.7-.14-.06-.34-.16-.39-.2-.24-.23-.54-.45-.81-.67-.19-.14-.39-.28-.54-.44-.17-.16-.29-.36-.44-.55-.2-.29-.4-.58-.65-.84-.1-.11-.23-.3-.35-.52-.18-.28-.38-.61-.65-.92l-.48-.54c-.23-.25-.45-.49-.68-.75-.19-.24-.38-.49-.57-.75-.16-.2-.32-.42-.48-.62-.16-.19-.27-.41-.39-.61-.18-.29-.35-.6-.55-.86-.22-.29-.48-.54-.72-.8-.16-.14-.34-.3-.47-.47-.24-.37-.55-.64-.81-.87-.16-.14-.33-.3-.4-.42-.03-.03-.06-.07-.09-.12v-.11c0-.1,0-.2-.03-.29,.09-.19,.19-.42,.25-.71l.3-.23c.27-.23,.45-.54,.52-.87,.14-.12,.26-.23,.35-.36,.46-.26,.65-.68,.74-.96,.09-.16,.23-.43,.27-.77,.09-.13,.14-.26,.19-.38l.13-.13s.03-.02,.06-.03c.12-.06,.23-.12,.35-.17,.45-.26,.71-.74,.71-1.25v-.13l.1-.1c.25-.26,.39-.62,.39-.98v-.03c.19-.38,.62-1.14,.73-1.3,.1-.11,.35-.42,.42-.84,.09-.1,.16-.2,.22-.3,.26-.14,.51-.38,.7-.7h.29c.35,0,.66-.09,.94-.26,.26-.03,.48-.11,.66-.22h.35c.13-.01,.27-.01,.41-.01h.77c.17,.01,.62,.01,1.1-.26,.3-.03,.54-.11,.74-.23,.26-.03,.48-.1,.67-.2,.1,0,.3-.02,.4-.04,.54-.12,.99-.44,1.26-.86,.06-.02,.12-.04,.17-.07h.06c.33,0,.63-.07,.9-.22,.03,.02,.04,.02,.06,.02,.48,0,.83-.19,1.04-.33,.49-.13,1.03-.38,1.42-.67,.38-.09,.66-.26,.88-.39,.17-.09,.33-.18,.52-.26h.08c.52,0,.91-.2,1.18-.36,.41-.1,.7-.32,.93-.49,.07-.03,.13-.06,.25-.12,.1,.01,.22,.03,.32,.03,.54,0,.91-.22,1.16-.38,.41-.13,.77-.39,1.02-.75,.1-.13,.18-.28,.23-.44,.26-.07,.59-.16,.96-.39,.74-.1,1.2-.61,1.48-.91,.06-.04,.1-.09,.14-.14,.29-.1,.51-.27,.64-.39,.36-.07,.7-.25,.94-.48,.23-.03,.44-.1,.6-.19h.02c.63,0,1.08-.3,1.31-.48,.38-.16,.62-.39,.8-.59,.23-.1,.45-.24,.61-.43,.03-.03,.12-.1,.41-.23l.19-.09c.2-.09,.42-.19,.67-.34,.55-.04,1-.28,1.32-.7,.09-.12,.19-.2,.29-.3l.35-.32c.06-.06,.15-.13,.23-.23,.07-.03,.16-.06,.23-.1,.06-.02,.13-.02,.16-.02,.06,0,.13,.02,.19,.02,.55,0,1.03-.25,1.42-.75,.09-.08,.14-.17,.21-.26,.22-.06,.43-.17,.65-.33,.06-.06,.13-.12,.23-.23,.49-.14,.75-.48,.84-.59,0,0,.41-.39,.51-.49,.19-.06,.35-.13,.46-.18,.2-.07,.39-.17,.57-.27,.46-.05,.78-.28,.93-.38,.08-.06,.16-.11,.23-.18,.38-.13,.74-.39,.95-.85,.16-.09,.35-.21,.54-.38,.16-.06,.3-.13,.41-.2,.36-.11,.62-.33,.79-.52,.19-.07,.34-.16,.45-.23,.52-.18,.98-.62,1.16-1.19l.09-.08c.13-.12,.26-.25,.39-.39,0,0,.03-.03,.18-.11,.3-.03,.58-.1,.83-.23,.12-.02,.24-.03,.36-.06,.25-.07,.48-.22,.67-.4l.15-.16c.06-.06,.11-.13,.2-.2,.06-.06,.11-.1,.16-.14,.29-.06,.51-.19,.66-.29,.14-.04,.28-.08,.38-.14,.89-.02,1.61-.54,1.89-1.34,.05-.06,.1-.13,.15-.23,.09-.03,.16-.06,.23-.1,.62-.04,1.14-.35,1.5-.86,.01-.03,.04-.06,.06-.1,.07-.03,.13-.07,.19-.11,.52-.19,1.01-.61,1.21-1.18,.32-.12,.61-.33,.8-.67,.26-.11,.61-.29,.91-.59,.32-.15,.55-.34,.71-.55,.25-.06,.45-.14,.61-.23,.74-.04,1.19-.48,1.41-.75,.43-.1,.91-.38,1.16-.84,.06-.03,.1-.06,.14-.07,.52-.07,1.15-.36,1.58-1.23,0,0,.02,0,.03-.02,.19-.05,.35-.12,.51-.19,.55-.02,.97-.32,1.23-.71,.76-.1,1.37-.61,1.55-1.28,.06-.06,.3-.16,.56-.29,.32-.14,.55-.36,.77-.57,.16-.13,.27-.29,.36-.46,.03-.02,.06-.03,.09-.04,.12-.07,.23-.13,.35-.19,.33-.16,.78-.38,1.16-.74h.14c.34,0,.67-.14,.94-.36,.13,.03,.28,.06,.44,.06,.07,0,.16,0,.25-.02,.28,.35,.7,.57,1.16,.57h1.41c.08,.04,.17,.08,.24,.11,.25,.26,.64,.54,1.16,.58,.11,.06,.25,.11,.42,.2,.22,.11,.61,.3,1.12,.32,.19,.1,.38,.19,.58,.27,.24,.12,.49,.22,.58,.32,.36,.39,.78,.48,.96,.51,.22,.17,.45,.3,.66,.4,.41,.51,.93,.73,1.28,.89l.36,.17c.45,.2,.82,.39,1.01,.62,.3,.41,.68,.61,1.03,.78,.35,.36,.78,.52,1.1,.65,.65,.25,1.1,.55,1.45,.97,.1,.13,.23,.25,.42,.41,.29,.42,.68,.61,.94,.71,.13,.13,.65,.67,.65,.67,.18,.18,.39,.3,.64,.38,.02,.02,.04,.04,.06,.07,.09,.1,.17,.2,.27,.3,.38,.39,.8,.64,1.18,.82,.22,.36,.5,.59,.7,.75,.15,.22,.36,.38,.59,.48,.22,.1,.46,.35,.74,.63,.2,.22,.41,.44,.54,.55,.1,.13,.38,.48,.88,.62,.03,.03,.19,.22,.26,.29,.08,.1,.19,.19,.35,.32,.06,.25,.2,.46,.38,.64l1.11,1.07c.18,.16,.35,.29,.54,.35l.16,.16c.1,.34,.34,.71,.86,1.03,.13,.09,.26,.14,.39,.19,.13,.13,.34,.3,.65,.45,.12,.3,.29,.52,.45,.68,.14,.43,.45,.71,.56,.79,.16,.16,.32,.32,.48,.46,.25,.3,.54,.46,.79,.52,.1,.06,.22,.11,.35,.17l.93,.91c.17,.46,.5,.75,.68,.93,.17,.17,.39,.39,.71,.6,.1,.38,.32,.71,.65,.98,.12,.1,.22,.22,.3,.32,.46,.58,.79,.93,1.36,1.27,.22,.35,.49,.6,.7,.77,.18,.2,.36,.38,.55,.57l.51,.52c.2,.57,.65,.9,.87,1.07,.16,.2,.45,.54,.9,.77,.27,.54,.68,.84,.82,.95,.05,.04,.07,.12,.1,.18,.12,.19,.28,.46,.52,.72,.03,.1,.09,.23,.17,.36,.04,.14,.13,.35,.31,.55,.11,.15,.24,.26,.36,.4,.06,.04,.19,.19,.2,.2,.07,.22,.19,.43,.36,.59,.16,.16,1.48,1.48,1.48,1.48,.13,.66,.55,1.23,1.18,1.5,.16,.26,.33,.48,.45,.64,.07,.16,.15,.3,.23,.47,.06,.18,.15,.44,.34,.73,.14,.2,.33,.39,.52,.59,.02,0,.29,.26,.32,.29-.19,.38-.87,1.68-.87,1.68Z"/><path class="cls-2" d="M115.82,57.02c-.03,.07-.04,.16-.06,.25-.01,.03-.03,.09-.03,.09-.09,.4-.06,.79-.03,1.07v.02s-.03,.06-.03,.07c-.05,.09-.07,.19-.1,.29-.07,.25-.06,.54,.03,.82-.04,.06-.13,.2-.15,.22l-.11,.23c-.03,.07-.06,.14-.07,.2-.03,.1-.06,.2-.06,.3-.15,.26-.22,.49-.23,.71-.05,.09-.1,.17-.15,.27-.19,.23-.32,.48-.42,.66,0,0-.03,.03-.06,.07-.36,.27-.58,.71-.58,1.16,0,.09,0,.18,.01,.28-.01,.04-.04,.09-.04,.1-.03,.06-.06,.13-.07,.19-.13,.07-.24,.14-.39,.26-.07,.06-.22,.2-.28,.28-.08,.11-.16,.23-.22,.36-.03,.06-.07,.19-.07,.19-.09,.22-.13,.45-.12,.74-.03,.06-.04,.1-.07,.16-.05,.06-.09,.13-.13,.2-.13,.09-.25,.19-.35,.3-.13,.16-.3,.42-.38,.82-.02,.04-.02,.09-.02,.13-.03,.03-.05,.07-.06,.1-.04,.06-.07,.13-.1,.2-.06,.07-.13,.18-.23,.32v.02c-.38,.07-.72,.29-.94,.59-.12,.12-.33,.3-.5,.6-.13-.13-.31-.29-.51-.42-.04-.07-.09-.13-.15-.2-.15-.19-.35-.38-.49-.52-.09-.08-.16-.16-.28-.24-.22-.18-.56-.45-1.09-.65-.12-.13-.26-.25-.4-.34-.12-.06-.22-.1-.32-.14-.23-.2-.46-.33-.65-.45-.07-.04-.16-.08-.2-.12-.14-.19-.32-.34-.54-.48-.12-.09-.23-.16-.34-.2-.24-.13-.54-.23-.81-.33-.09-.03-.17-.06-.17-.06-.06-.01-.1-.03-.16-.04-.02-.03-.18-.19-.18-.19-.1-.12-.2-.22-.31-.32-.13-.12-.29-.23-.57-.38-.46-.26-.98-.55-1.57-.74-.52-.16-1-.41-1.42-.64-.3-.19-.62-.23-.86-.25-.3-.28-.68-.44-1.09-.46-.11-.06-.25-.12-.36-.14,.04-.04,.09-.1,.13-.15,.19-.08,.49-.23,.74-.49,.02-.02,.12-.06,.13-.07,.06-.03,.14-.07,.2-.12,0,0,.18-.07,.2-.09,.19-.07,.35-.17,.44-.23,.04-.03,.1-.07,.14-.11,.32-.06,.55-.2,.71-.32,.29-.08,.56-.26,.75-.46,.22-.23,.34-.36,.34-.39,.04-.01,.11-.03,.19-.06,.33-.09,.59-.26,.77-.39,.02-.02,.03-.02,.04-.03,.84-.16,1.32-.77,1.57-1.07,.05-.06,.09-.1,.12-.14,.01-.02,.03-.03,.04-.05,.07-.04,.14-.07,.32-.16,.03-.01,.35-.19,.45-.23,.02,0,.35-.03,.35-.03,.11-.02,.23-.03,.33-.07,.22-.07,.43-.19,.61-.36l.03-.03c.07-.04,.22-.14,.39-.27t.02-.02c.09-.03,.16-.06,.25-.1,.12-.06,.22-.1,.35-.17l.16-.07c.18-.06,.41-.14,.64-.29,.13-.02,.23-.04,.27-.06,.18-.03,.34-.09,.48-.17,.48-.03,.82-.22,1.1-.38,.2-.06,.44-.15,.62-.36h.82c.31,0,.61-.1,.87-.27,.04,0,.1,.02,.16,.03,.14,.03,.28,.03,.42,.03,.07,0,.27-.01,.33-.01,.19-.03,.38-.03,.58-.03h.33c.27-.02,.54-.09,.75-.25,.03,.02,.06,.02,.08,.02,.13,.01,.26,.03,.39,.04,.02,.02,.04,.03,.06,.04,.22,.19,.44,.39,.64,.61v.78c0,.18-.01,.41,.04,.71,.03,.12,.06,.2,.09,.3Z"/><path class="cls-1" d="M79.37,65.98l-.04,.02s-.22,.16-.23,.16h-.09c-.29,0-.58,.08-.82,.26-.1,.06-.19,.14-.26,.21-.07,.06-.13,.13-.2,.2l-.04,.04h-.13c-.61,0-1.12,.36-1.33,.89l-.06,.1s-.07,.02-.1,.02c-.33,.06-.71,.35-.93,.61-.1,.12-.2,.25-.28,.36-.03,.06-.06,.1-.07,.14-.16,.07-.33,.17-.51,.35l-.75,.75c-.2,.08-.38,.18-.57,.32-.09,.06-.17,.15-.21,.18-.08,.09-.17,.17-.22,.22l-.24,.29s-.15,.07-.31,.12l-.49,.17c-.06,.02-.18,.07-.23,.09-.3,.13-.77,.36-1.16,.88l-.04,.05c-.25,.06-.48,.19-.67,.38l-.29,.29c-.21,.2-.41,.39-.6,.61-.04,.02-.19,.07-.23,.1-.42,.01-.81,.17-1.06,.52-.04,.03-.1,.06-.14,.09-.23,.11-.56,.3-.87,.63l-.08,.12c-.09,.04-.18,.09-.25,.13-.49,.14-.93,.43-1.23,.84-.04,.04-.07,.08-.1,.14-.05,.01-.09,.03-.12,.04-.12,.04-.23,.1-.33,.19-.04,.01-.07,.01-.1,.03-.11,.04-.2,.09-.3,.14-.22,.03-.42,.09-.61,.19s-.3,.18-.43,.34c-.09,.07-.16,.13-.16,.13-.09,.08-.19,.17-.33,.35-.04,.06-.09,.11-.12,.17-.45,.07-.86,.29-1.2,.66-.13,.13-.27,.28-.5,.51l-.12,.12c-.1,.09-.2,.2-.32,.27-.43,.17-.8,.44-1.09,.67-.14,.12-.26,.23-.39,.36,0,0-.23,.25-.25,.26-.22,.03-.43,.1-.61,.23-.12,.08-.23,.15-.35,.2-.09,.05-.17,.07-.22,.1-.5,.13-.95,.49-1.2,.94-.1,.06-.19,.13-.26,.19-.39,.06-.77,.25-1,.57-.04,.03-.1,.06-.16,.09-.13,.07-.26,.14-.38,.23-.16,.12-.3,.23-.42,.35h-.02c-.26,.06-.49,.16-.7,.3-.07,.04-.13,.1-.2,.17-.02,.02-.05,.04-.08,.07-.06,.03-.14,.06-.23,.12h-.51c-.39,0-.77,.16-1.03,.43l-.29,.29c-.16,.14-.32,.3-.47,.48h-.04c-.41,.03-.78,.23-1.05,.55l-.12,.15h-.04c-.25,0-.48,.06-.7,.17-.12,.07-.23,.15-.35,.25-.09,.06-.17,.14-.26,.23,0,.02-.03,.03-.04,.06-.64,.03-1.18,.34-1.53,.83-.13,.06-.29,.13-.45,.25-.09,.03-.16,.06-.23,.1-.11,.04-.27,.14-.43,.3-.04,.04-.1,.11-.16,.19-.16,0-.31,.03-.45,.06-.06-.02-.13-.02-.19-.02-.36,0-.88,.11-1.3,.67-.18,.16-.32,.34-.42,.46l-.05,.04s-.03,.02-.04,.02c-.29,.06-.57,.17-.8,.33-.12,.07-.23,.17-.35,.27-.02,.02-.03,.03-.05,.04h-.22c-.13,0-.27,.03-.4,.06-.09,.03-.28,.1-.36,.16-.12,.04-.22,.11-.25,.14-.07,.05-.17,.13-.23,.19l-.03,.03s-.14,.16-.18,.2c-.01,.03-.12,.19-.13,.2-.12,.06-.22,.14-.3,.22-.36,.03-.65,.12-.89,.25h-.46c-.49,0-.94,.24-1.21,.66-.05,.06-.25,.21-.41,.31-.19,.12-.4,.27-.63,.46-.32,.06-.57,.19-.73,.3-.07,.04-.13,.1-.22,.17-.19,.03-.39,.1-.57,.2-.1,.07-.22,.14-.38,.26-.12,.03-.22,.06-.35,.09-.09,.04-.22,.09-.35,.16-.12,.05-.2,.1-.23,.12-.1,.06-.19,.13-.35,.23,.16-.23,.27-.51,.32-.8,.01-.02,.13-.16,.13-.16,.08-.12,.15-.23,.22-.35,.04-.07,.09-.16,.16-.25,.22-.14,.39-.35,.51-.6,0,0,.01-.01,.03-.01,.13-.07,.25-.16,.34-.26,.09-.09,.21-.23,.26-.33,.04-.06,.1-.16,.14-.29,.02-.03,.48-.46,.68-.68,.16-.18,.29-.38,.35-.61,.17-.16,.3-.34,.42-.57,.04-.09,.09-.21,.12-.3,.09-.13,.16-.26,.22-.39,0,0,.12-.28,.13-.32,.04-.06,.09-.13,.13-.19,.02,0,.02-.01,.03-.01,.11-.03,.26-.09,.39-.16,0,0,.14-.02,.22-.03l.19-.06c.23-.09,.47-.25,.64-.43,.18-.19,.26-.38,.3-.52,.06-.12,.11-.24,.16-.41,.46-.39,.58-.88,.62-1.07,0,0,0-.03,.02-.06,.01-.06,.03-.12,.06-.17,.13-.04,.26-.13,.38-.23,.11-.06,.23-.12,.3-.16,.05-.03,.16-.12,.2-.15,.21-.14,.38-.33,.51-.54,.02,0,.18-.12,.22-.14,.27-.22,.47-.49,.61-.87,.03-.03,.07-.08,.13-.13,.38-.03,.72-.19,.98-.48,0,0,.19-.22,.21-.23,.03-.03,.57-.56,.57-.56,.19-.19,.3-.42,.38-.67,.14-.04,.29-.11,.42-.2,.09-.06,.16-.12,.23-.17,.04-.03,.07-.06,.09-.07,.07-.07,.14-.13,.22-.2,0,0,.34-.35,.35-.36l.06-.06s.07-.01,.1-.03c.18-.07,.35-.2,.48-.33,.16-.16,.26-.34,.33-.48,.02-.03,.04-.11,.04-.11,.12-.06,.22-.12,.35-.2,.14-.09,.29-.19,.33-.25,.15-.1,.26-.22,.36-.35,.16-.2,.35-.38,.55-.55l.02-.03c.16-.06,.29-.12,.36-.18,.09-.06,.23-.17,.3-.25,.08-.07,.15-.14,.2-.22,.03-.02,.28-.23,.38-.32,.38-.14,.74-.45,.94-.95,0-.02,.02-.02,.02-.02,.07-.03,.14-.07,.2-.1h.06c.22,0,1.18-.06,1.58-1.04,.36-.11,.66-.38,.84-.73l.09-.19s.04-.06,.06-.07c.06-.05,.12-.07,.3-.16,.22-.09,.54-.22,.86-.49,.02,0,.03-.02,.03-.02,.16-.04,.31-.1,.46-.17h.23c.35,0,.68-.12,.94-.35,.06-.04,.1-.09,.14-.13,.41-.06,.84-.26,1.15-.72,.19-.02,.38-.07,.58-.18,.09-.04,.19-.1,.26-.16,.05-.03,.09-.07,.15-.12,.03-.03,.07-.07,.12-.1,.13-.13,.23-.28,.3-.4,.04-.03,.14-.1,.14-.1,.13-.1,.25-.22,.35-.36,.05-.03,.25-.16,.26-.16,.03-.02,.15-.07,.18-.09,.17-.1,.36-.19,.54-.3l.25-.16c.1-.07,.2-.15,.29-.23,.72-.03,1.03-.18,1.96-.62,.2-.1,.44-.18,.67-.25l.59-.21c.45-.16,.76-.33,.99-.58h.02c.22,0,.7,0,1.14-.24,.09-.02,.18-.02,.32-.02,.13-.02,.25-.03,.38-.06,.29-.04,.55-.19,.77-.38h1.13c.39,0,.8-.2,1.09-.51,.03,0,.06-.01,.09-.01,.1-.02,.22-.04,.22-.04,.12-.03,.29-.09,.41-.15,.02,0,.03-.01,.04-.03,.06,.02,.1,.02,.13,.02,.1,0,.2-.02,.23-.02,.03,0,.32-.01,.32-.01,.1,0,.48,.01,.51,.01,.46,0,.88-.13,1.23-.38,.07-.03,.16-.06,.22-.09h.19c.54,0,.94-.22,1.18-.36,.03,0,.14-.07,.17-.07,.04-.03,.1-.06,.15-.06,.16,.02,.3,.03,.46,.03,.29,0,.55-.06,.76-.13,.13,.04,.23,.06,.26,.06,.1,.03,.26,.04,.36,.04,.29,0,.56-.09,.8-.23h.03c.26,0,.48-.04,.67-.12,.19,.06,.4,.12,.68,.12,.38,.22,.73,.28,.97,.28,.13,0,.26-.02,.38-.05,.03,.07,.04,.16,.02,.26Z"/><path class="cls-1" d="M135.55,106.28c-.19-.2-.38-.39-.52-.59-.19-.29-.28-.55-.34-.73-.08-.17-.16-.32-.23-.47-.12-.16-.29-.38-.45-.64-.64-.27-1.06-.84-1.18-1.5,0,0-1.32-1.32-1.48-1.48-.18-.16-.29-.38-.36-.59-.02-.01-.14-.16-.2-.2-.12-.13-.25-.25-.36-.4-.18-.2-.26-.4-.31-.55-.08-.13-.14-.26-.17-.36-.25-.26-.41-.54-.52-.72-.03-.06-.06-.13-.1-.18-.14-.12-.55-.42-.82-.95-.45-.23-.74-.57-.9-.77-.22-.18-.66-.51-.87-1.07l-.51-.52c-.19-.19-.38-.36-.55-.57-.2-.17-.48-.42-.7-.77-.57-.35-.9-.7-1.36-1.27-.09-.1-.19-.22-.3-.32-.34-.27-.55-.61-.65-.98-.32-.2-.54-.42-.71-.6-.18-.18-.51-.46-.68-.93l-.93-.91c-.13-.06-.24-.12-.35-.17-.26-.06-.55-.22-.79-.52-.16-.14-.32-.3-.48-.46-.12-.09-.42-.36-.56-.79-.16-.16-.34-.38-.45-.68-.32-.14-.52-.32-.65-.45-.13-.04-.26-.1-.39-.19-.52-.32-.75-.7-.86-1.03l-.16-.16c-.19-.06-.36-.19-.54-.35l-1.11-1.07c-.18-.18-.32-.39-.38-.64-.16-.13-.26-.22-.35-.32-.08-.08-.23-.26-.26-.29-.51-.14-.78-.49-.88-.62-.13-.12-.33-.33-.54-.55-.27-.29-.52-.54-.74-.63-.23-.1-.45-.26-.59-.48-.2-.16-.48-.39-.7-.75-.38-.19-.8-.43-1.18-.82-.1-.1-.19-.2-.27-.3-.02-.03-.04-.06-.06-.07-.25-.07-.46-.2-.64-.38,0,0-.52-.54-.65-.67-.26-.1-.65-.29-.94-.71-.19-.16-.32-.28-.42-.41-.35-.42-.8-.73-1.45-.97-.32-.13-.76-.29-1.1-.65-.35-.18-.72-.38-1.03-.78-.19-.23-.57-.42-1.01-.62l-.36-.17c-.35-.16-.87-.38-1.28-.89-.22-.1-.45-.23-.66-.4-.17-.03-.6-.12-.96-.51-.09-.1-.34-.2-.58-.32-.2-.09-.39-.17-.58-.27-.5-.01-.9-.21-1.12-.32-.17-.09-.3-.15-.42-.2-.52-.05-.91-.32-1.16-.58-.07-.03-.16-.07-.24-.11h-1.41c-.46,0-.88-.22-1.16-.57-.09,.02-.18,.02-.25,.02-.16,0-.3-.03-.44-.06-.27,.22-.61,.36-.94,.36h-.14c-.38,.36-.83,.58-1.16,.74-.11,.06-.23,.12-.35,.19-.03,.02-.06,.03-.09,.04-.09,.18-.2,.33-.36,.46-.22,.21-.45,.42-.77,.57-.26,.13-.5,.23-.56,.29-.18,.67-.79,1.18-1.55,1.28-.26,.39-.68,.7-1.23,.71-.16,.07-.32,.14-.51,.19-.02,.02-.03,.02-.03,.02-.43,.87-1.06,1.16-1.58,1.23-.04,.01-.09,.04-.14,.07-.25,.46-.72,.74-1.16,.84-.22,.28-.67,.71-1.41,.75-.16,.09-.36,.17-.61,.23-.16,.22-.39,.4-.71,.55-.3,.3-.65,.48-.91,.59-.19,.34-.48,.55-.8,.67-.21,.57-.7,.99-1.21,1.18-.06,.04-.12,.09-.19,.11-.02,.05-.05,.07-.06,.1-.36,.51-.88,.82-1.5,.86-.08,.04-.15,.07-.23,.1-.04,.1-.1,.17-.15,.23-.29,.81-1.01,1.33-1.89,1.34-.1,.06-.23,.1-.38,.14-.16,.1-.38,.23-.66,.29-.05,.04-.1,.09-.16,.14-.09,.07-.14,.14-.2,.2l-.15,.16c-.19,.19-.42,.33-.67,.4-.12,.03-.24,.04-.36,.06-.25,.13-.52,.21-.83,.23-.14,.09-.18,.11-.18,.11-.13,.14-.26,.28-.39,.39l-.09,.08c-.18,.57-.64,1.01-1.16,1.19-.12,.07-.26,.16-.45,.23-.17,.19-.43,.41-.79,.52-.1,.08-.25,.15-.41,.2-.19,.18-.38,.29-.54,.38-.22,.46-.58,.72-.95,.85-.07,.06-.15,.12-.23,.18-.14,.1-.46,.33-.93,.38-.18,.1-.36,.2-.57,.27-.12,.04-.28,.12-.46,.18-.1,.1-.51,.49-.51,.49-.09,.12-.34,.45-.84,.59-.1,.12-.18,.17-.23,.23-.22,.16-.43,.27-.65,.33-.06,.09-.12,.18-.21,.26-.39,.51-.87,.75-1.42,.75-.06,0-.13-.02-.19-.02-.03,0-.1,0-.16,.02-.07,.05-.16,.07-.23,.1-.08,.1-.17,.18-.23,.23l-.35,.32c-.1,.1-.2,.19-.29,.3-.32,.42-.77,.66-1.32,.7-.25,.15-.46,.25-.67,.34l-.19,.09c-.29,.13-.38,.2-.41,.23-.16,.19-.38,.33-.61,.43-.18,.2-.42,.43-.8,.59-.23,.18-.68,.48-1.31,.48h-.02c-.16,.09-.36,.16-.6,.19-.24,.23-.58,.41-.94,.48-.13,.12-.35,.29-.64,.39-.04,.06-.09,.1-.14,.14-.28,.3-.74,.81-1.48,.91-.36,.23-.7,.32-.96,.39-.06,.16-.13,.3-.23,.44-.24,.36-.61,.62-1.02,.75-.24,.16-.62,.38-1.16,.38-.1,0-.22-.02-.32-.03-.12,.06-.18,.09-.25,.12-.23,.17-.52,.39-.93,.49-.27,.16-.66,.36-1.18,.36h-.08c-.19,.08-.35,.17-.52,.26-.22,.13-.51,.3-.88,.39-.39,.29-.93,.54-1.42,.67-.22,.14-.56,.33-1.04,.33-.02,0-.03,0-.06-.02-.26,.15-.57,.22-.9,.22h-.06c-.06,.03-.11,.06-.17,.07-.27,.42-.73,.74-1.26,.86-.1,.03-.3,.04-.4,.04-.19,.1-.41,.17-.67,.2-.2,.12-.43,.2-.74,.23-.48,.28-.93,.28-1.1,.28h-.77c-.13-.01-.28-.01-.41,0h-.35c-.19,.1-.4,.19-.66,.22-.28,.17-.59,.26-.94,.26h-.29c-.19,.32-.44,.55-.7,.7-.06,.1-.13,.2-.22,.3-.07,.42-.32,.73-.42,.84-.1,.16-.54,.93-.73,1.3v.03c0,.36-.14,.73-.39,.98l-.1,.1v.13c0,.51-.26,.98-.71,1.25-.11,.06-.23,.12-.35,.17-.03,.02-.04,.03-.06,.03l-.13,.13c-.04,.11-.1,.25-.19,.38-.04,.33-.19,.61-.27,.77-.09,.28-.28,.7-.74,.96-.09,.13-.2,.25-.35,.36-.07,.33-.25,.63-.52,.87l-.3,.23c-.06,.29-.16,.52-.25,.71,.03,.09,.03,.19,.03,.29v.11s.06,.09,.09,.12c.07,.12,.24,.28,.4,.42,.26,.23,.57,.5,.81,.87,.13,.17,.31,.33,.47,.47,.24,.26,.5,.51,.72,.8,.2,.26,.38,.56,.55,.86,.12,.2,.23,.42,.39,.61,.16,.2,.32,.42,.48,.62,.19,.26,.38,.51,.57,.75,.23,.26,.45,.51,.68,.75l.48,.54c.27,.3,.47,.64,.65,.92,.12,.22,.25,.4,.35,.52,.25,.26,.45,.55,.65,.84,.14,.19,.26,.39,.44,.55,.14,.16,.35,.29,.54,.44,.27,.22,.57,.43,.81,.67,.05,.04,.25,.14,.39,.2,.34,.16,.76,.35,1.13,.7,.23,.22,.46,.42,.71,.61,.2,.18,.4,.35,.61,.54,.26,.22,.54,.45,.81,.67l.52,.42c.4,.35,.65,.77,.86,1.1,.07,.12,.17,.29,.22,.35,.12,.09,.32,.19,.54,.3,.3,.14,.64,.32,.97,.57,.22,.17,.42,.35,.64,.52,.23,.19,.46,.39,.71,.57,.48,.33,.96,.66,1.44,.98,.26,.19,.51,.38,.77,.58,.19,.18,.39,.34,.61,.48,.29,.17,.55,.39,.81,.59,.19,.16,.38,.32,.58,.45,.22,.11,.45,.2,.66,.3,.32,.13,.64,.26,.93,.44,.36,.2,.72,.39,1.09,.58l.45,.23c.4,.22,.7,.46,.96,.69,.17,.14,.35,.29,.46,.35,.21,.1,.44,.18,.67,.25,.33,.1,.65,.22,.96,.36,.2,.09,.42,.13,.64,.19,.35,.09,.71,.19,1.04,.33,.23,.1,.48,.18,.72,.25,.3,.1,.62,.2,.93,.32,.46,.19,.81,.48,1.09,.71,.13,.1,.3,.25,.38,.28,.36,.13,.73,.26,1.09,.38l.57,.19c.29,.1,.58,.23,.88,.36,.25,.1,.49,.2,.74,.29,.1,.03,.34,.04,.55,.06,.33,.03,.75,.06,1.2,.19,.43,.12,.79,.34,1.1,.51,.17,.1,.38,.22,.48,.25,.04,.01,.16,.03,.32,.03l.45-.02c.28,0,.62,.02,.99,.1,.27,.06,.54,.1,.81,.13,.3,.04,.61,.08,.9,.14,.58,.13,1,.4,1.33,.63,.12,.08,.28,.19,.33,.2,.09,.02,.23,.02,.38,.02h.44c.3,0,.61,.01,.9,.06h.1c.21,0,.32-.01,.45-.01,.23-.03,.48-.04,.71-.04,.18,0,.34,0,.5,.03,.46,.06,.86,.22,1.18,.33,.19,.07,.4,.16,.5,.16,.1,0,.29-.03,.46-.07,.31-.07,.67-.14,1.07-.14h.23c.33,.03,.66,.09,.98,.16,.25,.04,.5,.09,.74,.1,.22,0,.41-.05,.58-.07,.36-.06,.71-.11,1.06-.11h.1c.45,.02,.86,.11,1.19,.2,.2,.06,.42,.11,.54,.11,.46,0,.87,.1,1.2,.18,.2,.04,.41,.1,.52,.1,.23-.02,.45-.07,.65-.12,.36-.07,.74-.16,1.1-.18,.23-.01,.45-.07,.66-.11,.36-.09,.71-.16,1.06-.17,.09-.02,.19-.02,.29-.02,.27,0,.56,.03,.85,.07,.17,.02,.33,.04,.5,.04,.67-.07,1.25-.14,1.81-.22,.19-.03,.36-.03,.55-.03,.2,0,.4,.02,.61,.03,.13,0,.28,.01,.41,.01h.1c.07-.06,.13-.11,.2-.19,.35-.29,.82-.7,1.49-.81,.34-.07,.67-.1,.98-.11,.25-.03,.51-.04,.74-.09,.17-.04,.36-.06,.55-.06,.3,0,.62,.06,.94,.12,.12,.03,.25,.06,.36,.06,.02-.01,.19-.13,.3-.22,.32-.2,.72-.48,1.23-.61,.32-.09,.67-.15,1.02-.19,.23-.03,.48-.06,.71-.13,.27-.07,.58-.14,.88-.22,.27-.06,.54-.11,.8-.2,.05-.03,.22-.16,.33-.25,.3-.23,.67-.52,1.18-.7l.46-.16c.39-.13,.78-.26,1.16-.41,.29-.11,.58-.15,.91-.15,.25,0,.49,.03,.74,.06,.11,.02,.25,.04,.35,.04,0-.02,.19-.14,.36-.27,.29-.21,.61-.44,1.02-.61,.06-.03,.23-.19,.35-.29,.27-.24,.61-.55,1.07-.77,.45-.22,.91-.28,1.27-.33,.16-.03,.39-.06,.47-.09,.24-.13,.54-.26,.82-.38,.25-.11,.51-.22,.74-.35,.27-.14,.57-.29,.85-.42,.25-.12,.49-.22,.73-.35,.22-.13,.4-.27,.61-.43,.26-.21,.54-.39,.81-.57,.22-.13,.43-.29,.63-.45,.26-.2,.52-.39,.78-.57,.25-.16,.48-.33,.71-.51,.23-.17,.46-.35,.7-.51,.13-.09,.29-.25,.45-.42,.25-.24,.51-.52,.84-.77,.52-.36,1.09-.45,1.49-.52,.1-.01,.19-.01,.27-.04,.04-.08,.1-.18,.15-.26,.19-.33,.45-.81,.9-1.18,.35-.28,.71-.45,1.02-.6,.2-.1,.41-.2,.51-.29,.22-.19,.45-.36,.67-.54,.23-.17,.46-.35,.7-.54,.19-.17,.35-.36,.51-.55,.22-.26,.45-.5,.69-.72,.18-.17,.37-.35,.57-.52,.23-.22,.47-.42,.7-.66,.26-.24,.49-.49,.72-.74l.51-.52c.19-.19,.39-.39,.59-.58,.22-.2,.44-.41,.64-.62,.23-.25,.48-.46,.72-.68,.19-.18,.38-.34,.55-.53,.03-.04,.1-.25,.16-.38,.13-.36,.3-.81,.65-1.22,.36-.43,.8-.66,1.14-.87,.12-.06,.29-.16,.35-.2,.14-.19,.3-.43,.48-.68,.16-.23,.32-.47,.49-.71,.04-.06,.11-.29,.17-.43,.11-.35,.26-.78,.57-1.2,.27-.38,.61-.66,.87-.89,.15-.12,.34-.26,.38-.35,.03-.04,.07-.24,.12-.39,.08-.38,.2-.84,.49-1.29,.29-.43,.65-.74,.94-.97,.12-.09,.29-.23,.33-.29,.03-.04,.09-.27,.13-.45,.09-.35,.2-.78,.43-1.22,.17-.3,.35-.62,.5-.94,0,0,.68-1.3,.87-1.68-.03-.03-.3-.29-.32-.29Zm-68.32-3.74v.3c0,.29-.09,.57-.25,.8,0,.04,0,.08,0,.12,0,.22,.01,.43-.01,.63-.03,.33-.18,.63-.42,.86l-1.21,1.21c-.27,.27-.64,.42-1.02,.42h-.34c-.14,0-.3,0-.45-.01-.06,.02-.17,.02-.28,.02-.4,0-.72-.1-.97-.24h-.06c-.11,0-.34-.03-.45-.05-.23-.05-.45-.15-.64-.31-.27-.09-.62-.27-.9-.67-.04-.04-.1-.08-.15-.13-.19-.17-.46-.41-.68-.76-.3-.18-.54-.45-.69-.79-.06-.14-.1-.25-.13-.36-.02-.06-.03-.11-.06-.16-.03-.05-.09-.1-.13-.12-.52-.34-.74-.8-.85-1.05-.17-.14-.33-.31-.49-.47l-.18-.18c-.27-.27-.42-.64-.42-1.03v-.09l-.08-.06c-.34-.28-.65-.78-.65-1.22v-.42c0-.29,0-.55,0-.81,0-.25,.03-.46,.09-.64-.14-.47-.08-.9-.05-1.11,.02-.22,.09-.45,.2-.66,0-.12,0-.25,.02-.39,.02-.13,.05-.26,.1-.38,.12-.28,.29-.48,.42-.62,.12-.39,.41-.71,.79-.88l.8-.36c.19-.08,.39-.12,.59-.12h1.69c.29,0,.62,.14,.88,.31,.21,.06,.38,.16,.49,.24,.51,.14,.81,.52,.93,.67,.06,.06,.18,.17,.28,.29l.03,.03c.47,.14,.84,.52,.98,.99,.02,.02,.05,.04,.07,.06,.23,.2,.62,.54,.84,1.08,.08,.09,.16,.18,.26,.26,.42,.33,.59,.7,.69,.92,.22,.23,.35,.54,.38,.85l.19,.19s.08,.1,.1,.11c.25,.27,.46,.71,.46,1.08v.66c.18,.34,.26,.75,.22,1.23,0,.3,0,.55,0,.79Zm34.25-20.56c0,.53-.3,1.02-.77,1.27l-.13,.08c-.22,.14-.51,.32-.91,.4-.06,.02-.12,.03-.18,.04-.27,.16-.6,.27-.89,.27-.04,0-.19-.01-.23-.02h-1.8c-.38,0-.75-.15-1.02-.42l-.42-.43c-.28-.28-.57-.58-.86-.85-.1-.08-.18-.18-.26-.28-.23-.07-.44-.19-.61-.36l-.16-.15c-.2-.18-.47-.42-.69-.77l-.14-.23c-.06-.1-.14-.22-.17-.26-.29-.24-.47-.62-.53-1-.03-.04-.06-.07-.1-.1-.21-.22-.34-.51-.38-.81-.02-.12-.02-.24-.02-.37-.2-.31-.28-.69-.21-1.07-.04-.22-.11-.79,.19-1.36,.02-.14,.03-.29,.02-.36-.07-.63,.15-1.11,.27-1.37,0,0,0-.02,0-.02,.01-.55,.31-.98,.72-1.23,.05-.09,.11-.17,.18-.25,.28-.31,.67-.5,1.09-.5h2.61c.35,0,.69,.13,.95,.36,.09,.07,.16,.15,.24,.23h0c.7,.28,1.05,.76,1.21,1.21,.13,.13,.25,.26,.39,.38,.32,.27,.48,.58,.56,.79,.16,.14,.3,.29,.41,.41,.06,.06,.11,.12,.18,.18,.38,.35,.62,.74,.71,1.17,.26,.3,.37,.6,.42,.76,.31,.48,.31,.95,.3,1.2,0,.22,.02,.4,0,.58,.26,.46,.32,.98,.2,1.46,.11,.46,.05,.94-.19,1.4Z"/></g><g><g><g><path class="cls-1" d="M173.17,124.09c.51,.02,1.01,.12,1.52,.19,.65,.08,2.73-1.04,2.89-1.65,.19-.74,.31-1.51,.37-2.27,.05-.65,.12-1.2,.44-1.84,.5-.98,.44-2.22,1.24-3.13,.07-.08-.07-.32-.02-.44,.41-.99,.14-2.23,1.22-3.25,.57,1.15,1.05,2.2,1.62,3.21,.92,1.65,1.81,3.32,2.87,4.88,1.54,2.27,3.76,3.89,5.89,5.55,.99,.77,2.08,1.62,3.61,1.35,2.04-.36,3.37-1.48,4.17-3.32,.1-.23,.19-.55,.1-.75-.43-.97-.52-2.07-1.38-2.87-1.07-1.01-2.22-2.03-2.96-3.27-1.04-1.74-2.22-3.32-3.66-4.71-.22-.21-.49-.41-.63-.67-.79-1.48-1.54-2.97-2.33-4.52,.36-1.32,1.77-1.57,2.69-1.7,1.34-.19,2.39-.45,3.14-1.62,.18-.28,.54-.5,.87-.61,.98-.33,1.76-1.33,2.99-.92,.12,.04,.33-.21,.5-.31,.97-.56,1.9-1.23,2.93-1.64,1.71-.67,2.53-1.77,2.47-3.54-.08-2.24-1.41-3.68-3.04-4.94-.22-.17-.6-.26-.86-.2-1.16,.25-2.53,.11-3.16,1.49-.06,.13-.21,.21-.34,.3-1.75,1.28-3.95,1.75-5.69,3.06-.34,.26-.87,.36-1.32,.37-.59,.01-.92,.31-1.32,.67-.61,.55-1.22,1.23-1.95,1.45-.68,.21-1.19,.47-1.67,.96-.23,.24-.63,.3-.96,.45-.11-.07-.21-.13-.32-.2,.84-1.18,.49-2.4,.35-3.62-.05-.46,0-.92-.02-1.38-.03-.76-.05-1.51-.11-2.27-.09-1.17-1.08-1.5-1.93-1.72-.71-.18-1.43,.05-2.03,.72-.68,.75-1.12,1.56-1.36,2.52-.07,.29-.08,.75-.26,.84-1.28,.63-1.37,1.79-1.45,2.99-.02,.3-.06,.64-.22,.89-.45,.7-.76,1.33-.59,2.26,.09,.52-.47,1.17-.76,1.76-.2,.4-.62,.78-.61,1.17,.02,1.82-.81,3.2-2.04,4.43-.21,.21-.37,.48-.49,.76-.49,1.1-1.01,2.19-1.42,3.32-.22,.6-.31,1.28-.31,1.93,0,1.6-.32,3.13-.86,4.62-.19,.51-.54,1.24-.33,1.58,1.06,1.74,2.13,3.56,4.54,3.67Z"/><path class="cls-1" d="M292,117.03c.12,.46,.15,1,.05,1.64-.46,.77-.88,1.53-1.5,2.05-1.16,1-2.56,1.73-3.88,2.58-.36,.23-.74,.4-1.08,.65-.59,.45-1.14,.63-1.95,.49-1.5-.28-3-.03-4.48,.39-.97,.29-2.04,.25-3.01,.52-1.7,.46-3.41,.11-5.08,.25-2.81,.23-4.31-1.37-5.65-3.3-.68-.96-.71-1.98-.36-3.29,.39-1.44,.86-3,.48-4.68-.31-1.33-.15-2.76-.51-4.14-.09-.39,.31-1,.63-1.39,.68-.77,1.3-1.47,1.28-2.64,0-.68,.56-1.34,.74-2.05,.12-.45,.17-.99,.02-1.42-.57-1.75-.06-3.47,.29-5.1,.31-1.39,1.27-2.69,2.13-3.89,.54-.74,1.45-1.22,2.24-1.85,1.68,1.05,2.22,2.5,2.63,4.05,.05,.15-.03,.34,.03,.48,1.11,2.52,.52,5.05,.23,7.61-.15,1.33-.14,2.7,.14,4.08,.17,.86,.11,1.93-.6,2.75-.26,.31-.48,.77-.45,1.14,.11,1.22,.32,2.44,.53,3.75,1.47-.31,3,.09,4.35-.9,.65-.48,1.59-.62,2.42-.77,.48-.08,1.17-.05,1.48,.25,.51,.51,1.07,.6,1.62,.43,1.84-.59,3.54,.26,5.23,.6,.71,.14,1.3,1.02,2.01,1.71Z"/><path class="cls-1" d="M304.34,107.63c-.08,.98-.08,1.97-.21,2.95-.18,1.27-.45,2.55-.67,3.82-.27,1.58-.57,3.16-.83,4.74-.16,1.03-.27,2.07-.42,3.11-.03,.19-.12,.41-.24,.58-1.35,1.91-4.63,1.94-6.2,.21-1.18-1.27-1.61-2.7-1.7-4.26,0,0,.67-2.76,.49-4.09t-.01-.03c.02-.21,.04-.42,.04-.63,.12-2.64,.26-5.26,.4-7.9,.79-1.12,.49-2.37,.5-3.69,1.38-.67,1.5-2.1,1.69-3.42,.15-1.04,.48-1.91,1.07-2.72,.97-1.34,3.12-1.78,4.46-.89,1.11,.72,1.96,2.82,1.76,4.12-.1,.61-.23,1.25-.1,1.83,.39,1.85-.21,3.7,.14,5.52,.06,.23-.13,.5-.15,.75Z"/><path class="cls-1" d="M204.2,111.81c-1.7,.8-1.22,2.58-1.8,3.87,.49,.78,.04,1.57,0,2.35-.04,1.1-.11,2.2-.15,3.3,0,.15,.07,.32,.14,.46,1.06,2.09,2.48,3.61,5.09,3.58,2-.02,3.31-1.02,3.68-3,.21-1.1,.47-2.18,.67-3.28,.3-1.63,1.09-3.17,.84-4.9-.04-.24,.12-.52,.21-.78,.3-.94,.75-1.36,1.65-1.06,1.75,.6,3.17-.56,4.77-.7,.99-.09,1.94-.65,2.93-.88,.68-.16,1.4-.11,2.11-.15,.05,.1,.1,.19,.15,.29-1.66,1.12-1.32,2.86-1.29,4.36,.01,.78-.09,1.39-.3,2.11-.31,1.03-.65,2.19-.47,3.2,.24,1.4,1.01,2.65,1.97,3.82,.72,.88,1.62,1.15,2.46,1.69,1.18,.76,1.91,.07,2.77-.46,.25-.16,.61-.14,.99-.21,.13-.78,.48-1.39,1.27-1.7,.25-.1,.52-.46,.56-.73,.17-1.17,.26-2.35,.39-3.53,.13-1.17,.33-2.33,.42-3.5,.08-1.1,.48-2.15,.17-3.33-.31-1.19-.11-2.45,.7-3.53,.28-.37,.46-.85,.55-1.3,.3-1.58,.51-3.17,.81-4.75,.13-.68,.48-1.32,.63-2,.22-1.03,.42-2.08,.5-3.13,.07-.9-.13-1.82-.07-2.73,.07-1.02,.33-2.02,.47-3.04,.16-1.14-.42-2.2-1.32-2.23-1.07-.04-2.31-.18-3.18,.28-1.08,.57-1.86,1.7-2.77,2.6-.07,.06-.1,.2-.09,.3,.25,1.8-1.01,3.11-1.53,4.66-.56,1.68-1.94,3.01-2.18,4.85-.01,.09-.13,.16-.18,.21-.63,.05-1.31-.07-1.78,.19-1.11,.6-2.3,.49-3.47,.64-.59,.08-1.3-.03-1.74,.27-1.2,.81-2.47,.46-4.09,.59,.17-1.3,.3-2.39,.47-3.48,.16-1,.37-1.95-.13-2.98-.31-.64-.29-1.45-.35-2.19-.1-1.12-.87-2.42-1.63-2.64-.53-.15-3.11,.68-3.25,1.19-.5,1.8-1.93,3.07-2.58,4.72-.48,1.2-1.44,2.41-.85,3.93,.13,.34-.3,.89-.43,1.35-.26,.93-.74,1.88-.66,2.78,.1,1.31-.48,2.47-.45,3.74,0,.29-.32,.74-.61,.87Z"/><path class="cls-1" d="M336.14,103.67c-.41-1.3-1.14-2.51-1.79-3.71-.16-.28-.53-.57-.84-.62-1-.15-1.48-.78-1.92-1.58-.44-.85-1.05-1.51-2.18-1.26-.31,.06-.67-.13-.98-.26-.84-.34-1.67-.7-2.49-1.07-.82-.38-1.6-.88-2.45-1.17-1.23-.41-2.53-.63-3.77-1.03-1.23-.4-2.39-.73-3.75-.34-.69,.21-1.36,.23-1.82,.89-.15,.23-.47,.47-.73,.51-1.05,.12-1.47,.94-1.76,1.73-.32,.88-.44,1.86-.59,2.8-.18,1.3-.29,2.62-.44,3.93-.07,.56,.03,1.26-.28,1.64-.82,1.08-.54,2.18-.34,3.31,.07,.45,.31,1.13,.1,1.33-.81,.81-.64,1.88-.94,2.81-.64,1.99-.92,4.04-1.11,6.12-.09,.88,.13,1.6,.44,2.33,.42,1.04,.94,2.05,1.33,3.11,.89,2.29,2.12,3.09,4.56,2.94,.25-.01,.5,.06,.75,.06,.79,0,1.63,.15,2.33-.09,.81-.26,1.66-.73,2.18-1.36,.88-1.07,1.98-1.41,3.22-1.55,.32-.38,.63-.79,.98-1.14,1.27-1.22,2.59-2.39,4.01-3.43,.18-.12,.4-.25,.45-.41,.54-1.83,2.48-2.17,3.65-3.33,.63-.63,1.07-1.25,1.52-1.96,.44-.72,1.2-1.22,1.79-1.85,.15-.18,.13-.48,.18-.75,.23-1.25,.51-2.49,.66-3.75,.1-.95,.26-1.99,0-2.87Zm-8.13,2.53c-.34,.44-.92,.78-1.47,1-.6,.23-1.04,.51-1.44,1.06-.38,.5-1.01,.81-1.54,1.19-.28,.2-.72,.31-.85,.57-.45,.91-1.3,1.11-2.11,1.44-.86,.34-1.73,.69-2.56,1.01-.07-1.86-.19-3.85-.2-5.86-.03-1.96,.04-3.93,.09-6.02,1.29,.34,2.67,.69,4.03,1.1,.48,.15,.97,.37,1.38,.67,1.23,.89,2.48,1.71,4.13,1.61,.29-.01,.84,.42,.86,.7,.06,.5-.03,1.14-.32,1.54Z"/><path class="cls-1" d="M262.28,117.7c-.08-.17,.05-.49,.17-.71,.92-1.67,.44-3.46,.31-5.15-.08-1.2-.23-2.37-.06-3.58,.19-1.17,.42-2.3-.11-3.54-.37-.84-.45-1.91-.19-2.93,.27-1.1,.56-2.27-.2-3.38-.25-.35-.23-.87-.27-1.31-.09-1-.08-2.01-.22-2.99-.3-2.17-2.25-2.77-4.09-2.38-2.97,.64-5,2.56-6.61,4.85-.92,1.33-1.47,2.93-3.28,3.61-.33,.13-.56,.62-.7,1-.61,1.54-1.66,2.82-2.8,4.04-.63,.68-1.5,1.27-1.8,2.05-.19,.51-.44,.98-.66,1.47-.27,.59-.69,1.11-.55,1.85,.06,.32-.36,.94-.7,1.04-1,.27-1.27,1.07-1.75,1.72-.23,.33-.45,.66-.72,.97-.75,.84-1.8,1.47-1.83,2.74,0,.25-.28,.55-.52,.74-1.59,1.34-1.39,2.99-.95,4.66,.09,.35,.44,.68,.75,.94,.86,.71,1.47,.71,2.44,.07,.98-.64,2-1.23,2.92-1.92,.67-.51,1.36-1.07,1.81-1.73,.94-1.4,1.55-3.1,3.87-2.95,.17,.01,.36-.23,.56-.29,1.66-.48,3.31-1,5.12-.78,.64,2.24,.94,4.49,1.92,6.55,.31,.68,.41,1.44,.59,2.17,.36,1.34,1.42,2.12,2.92,2.15,.55,0,1.09,.07,1.64,.04,.36-.01,.84-.01,1.06-.22,.92-.79,2.02-1.44,2.14-2.84,.09-1.05,.3-2.05,.05-3.13-.2-.91,.16-1.91-.3-2.83Zm-9.66-8.5c-.33-.06-.72,.04-1.05,.14-.2,.04-.33,.26-.52,.36-.17,.09-.37,.13-.64,.22,.56-1.39,1.08-2.67,1.62-3.96,.31-.74,.89-1.2,1.56-1.41,.11,1.23,.19,2.41,.33,3.61,.13,1.11-.08,1.27-1.31,1.04Z"/></g><g><path class="cls-1" d="M447.75,117.28c-.29-1.19-.56-2.36,0-3.57,.1-.21-.09-.57-.17-.86-.37-1.28-.59-2.57,0-3.84,.39-.84,.32-1.64,.08-2.51-.21-.77-.25-1.59-.28-2.4-.04-1.16,.02-2.32,.01-3.48,0-1.07-.25-2.18-.02-3.19,.37-1.65-.22-2.88-1.2-4.04-1.08-1.27-3.18-1.31-4.34-.14-.69,.7-1.37,1.42-2.1,2.09-1.37,1.24-2.76,2.46-4.17,3.65-1.02,.86-2.09,1.67-3.1,2.47-.07-1.04-.08-2.03-.21-3.01-.37-2.72-2.17-3.36-4.67-1.89-.13,.08-.22,.23-.34,.3-.56,.33-1.1,.84-1.7,.92-.94,.13-1.6,.66-2.23,1.21-.95,.83-1.73,1.87-2.72,2.66-1.38,1.11-2.23,2.78-3.85,3.63-.24,.12-.38,.45-.52,.71-.86,1.56-1.6,3.19-2.58,4.67-.82,1.24-1.92,2.3-2.88,3.44-.19,.23-.38,.47-.48,.74-.19,.5-.31,1.02-.48,1.53-.27,.83-.89,1.35-1.48,1.97-1.32,1.38-.61,4.55,1.1,5.41,.52,.26,1.18,.39,1.76,.35,.36-.03,.68-.51,1.03-.76,1.03-.74,1.9-1.64,2.63-2.68,.46-.66,.95-1.29,1.44-1.93,.18-.24,.36-.62,.58-.66,1.42-.25,1.31-1.46,1.2-2.28-.22-1.64,.76-2.5,1.72-3.47,.42-.42,.97-.83,1.14-1.35,.3-.91,.86-1.59,1.44-2.3,.35-.43,.72-.89,.9-1.4,.36-1,1.07-1.25,2.21-1.25-.11,1.13-.02,2.28-.38,3.26-.28,.77-.34,1.45-.25,2.2,.14,1.1,.43,2.21-.4,3.21-.16,.19-.09,.59-.1,.89-.03,.8,.07,1.62-.11,2.38-.5,2.14,.53,3.64,2,4.9,.5,.42,1.34,.72,1.98,.64,1.77-.22,3.84-1.8,3.66-3.89-.07-.79,.11-1.48,.5-2,.88-1.2,.91-2.64,1.38-3.95,.46-1.28,.91-2.6,1.62-3.75,1.3-2.09,2.7-4.12,3.55-6.46,.17-.48,.3-1,1.15-.95,.07,.36,.13,.66,.19,.95,.24,1.15,.47,2.22-.49,3.29-.52,.59-.95,1.62-.82,2.35,.24,1.37,0,2.76,.23,4.06,.28,1.61-.14,3.11-.2,4.65-.05,1.29,.23,2.36,.78,3.46,.66,1.33,1.93,1.89,3.11,2.58,.83,.49,2.69,.02,3.46-.51,1.83-1.28,.37-3.46,1.48-4.91,.14-.19,.02-.58,0-.87,0-.1-.03-.2-.05-.3Z"/><path class="cls-1" d="M377.16,119.8c-1.07-1-2.2-2.02-2.94-3.24-1.03-1.72-2.2-3.29-3.63-4.67-.22-.21-.48-.4-.62-.66-.78-1.47-1.52-2.95-2.31-4.48,.35-1.3,1.75-1.55,2.67-1.69,1.33-.19,2.37-.44,3.11-1.61,.18-.28,.54-.5,.86-.6,.98-.33,1.75-1.32,2.96-.91,.12,.04,.33-.2,.5-.3,.96-.55,1.88-1.22,2.91-1.62,1.69-.66,2.51-1.76,2.45-3.51-.08-2.22-1.39-3.65-3.01-4.89-.21-.17-.59-.25-.85-.2-1.15,.25-2.51,.1-3.13,1.48-.06,.13-.21,.21-.33,.3-1.74,1.27-3.91,1.73-5.64,3.04-.34,.26-.87,.36-1.31,.37-.58,.01-.92,.31-1.3,.66-.6,.54-1.21,1.21-1.93,1.44-.67,.21-1.18,.46-1.66,.95-.23,.23-.63,.3-.95,.44l-.32-.19c.83-1.17,.48-2.38,.35-3.59-.05-.45,0-.91-.02-1.37-.03-.75-.05-1.5-.11-2.25-.09-1.16-1.07-1.49-1.92-1.7-.7-.18-1.42,.05-2.02,.71-.67,.75-1.11,1.55-1.35,2.49-.07,.29-.08,.74-.26,.83-1.27,.63-1.36,1.77-1.44,2.96-.02,.3-.06,.64-.21,.88-.44,.69-.75,1.32-.58,2.24,.09,.52-.47,1.16-.75,1.74-.2,.4-.61,.78-.61,1.16,.02,1.81-.81,3.17-2.02,4.39-.21,.21-.37,.48-.49,.75-.49,1.09-1,2.17-1.41,3.3-.22,.6-.31,1.27-.31,1.91,0,1.59-.32,3.1-.86,4.58-.18,.51-.53,1.23-.33,1.56,1.05,1.73,2.11,3.53,4.51,3.64,.5,.02,1,.12,1.51,.19,.65,.08,2.7-1.03,2.86-1.64,.19-.73,.31-1.5,.37-2.25,.05-.64,.11-1.19,.44-1.82,.49-.97,.44-2.2,1.23-3.1,.07-.08-.07-.32-.02-.44,.4-.99,.14-2.21,1.21-3.22,.57,1.14,1.05,2.18,1.6,3.18,.91,1.63,1.8,3.29,2.85,4.84,1.53,2.25,3.73,3.85,5.84,5.5,.98,.76,2.06,1.61,3.58,1.34,2.03-.36,3.34-1.47,4.13-3.29,.1-.22,.18-.54,.1-.74-.43-.96-.51-2.05-1.37-2.85Z"/><path class="cls-1" d="M409.65,106.64c-.04-.44-.13-.89-.2-1.34,.13-2.22-.96-5.01-2.69-6.91-.99-1.09-1.73-2.54-3.53-2.53-.26,0-.51-.35-.77-.48-.44-.22-.89-.44-1.34-.58-.87-.29-1.76-.45-2.66-.03-.26,.12-.7,.16-.9,.03-.83-.57-1.61-.32-2.45-.06-.87,.26-1.8,.32-2.67,.55-.46,.13-.89,.42-1.29,.7-1.05,.7-1.93,1.55-3.22,1.96-1.02,.33-2.19,.93-2.6,2.15-.32,.94-1,1.48-1.79,1.99-.49,.32-1.16,.68-1.34,1.18-.73,2.06-2.32,3.53-3.41,5.33-.58,.97-1.51,1.99-.61,3.34,.19,.28,0,.9-.17,1.29-.89,2.03-.62,3.92,.55,5.75,.25,.38,.45,.8,.7,1.19,2.32,3.73,5.65,5.84,10.07,6.1,1.19,.07,2.4-.01,3.59-.03,.74-.01,1.38-.01,2.12-.44,.83-.48,1.7-1.38,2.92-.87,.2,.09,.62-.25,.91-.45,.78-.57,1.32-1.61,2.56-1.29,.16,.03,.41-.12,.55-.25,.68-.64,1.7-.91,1.93-2.03,.07-.38,.57-.7,.93-.97,1.25-.92,2.19-2.05,2.6-3.59,.07-.25,.25-.6,.45-.68,1.34-.57,1.47-1.73,1.44-2.89-.04-1.67-.39-3.33,.36-4.95,.15-.32,.01-.78-.03-1.19Zm-7.25,.78c-.33,1.05-.15,2.27-1.21,3.02-.13,.1-.09,.39-.17,.57-.32,.61-.62,1.22-.97,1.82-.29,.49-.64,.96-1.05,1.53-1.29,.09-2.11,1.25-2.85,2.24-1.09,1.47-2.53,1.63-4.1,1.71-1.09,.06-2.09-.12-2.98-.84-.2-.17-.67-.06-1-.03-1.89,.1-2.56-.55-2.37-2.41,.1-1.06,.3-2.09,.45-3.14,.01-.1-.06-.25-.01-.31,1.21-1.73,1.1-3.98,2.28-5.71,.75-1.1,1.5-2.18,2.9-2.43,1.45-.25,2.51-1.22,3.73-1.87,.42-.22,.68-.44,1.22-.33,.74,.13,1.51,.01,2.27,.06,1.16,.06,2.25,.26,2.7,1.55,.03,.09,.06,.22,.13,.26,1.66,1.13,1.55,2.64,1.02,4.31Z"/><path class="cls-1" d="M513.1,108.93c-.22-.1-.48-.23-.62-.42-.55-.77-1.19-1.35-2.14-1.59-.66-.17-1.34-.4-1.91-.76-1.47-.92-3.2-1.04-4.77-1.65-1.24-.48-2.31-.94-3.03-2.09-.22-.35-.62-.59-.97-.92,.37-.62,.57-1.4,1.07-1.69,1.13-.65,2.37-1.27,3.74-.98,.64,.14,1.06,.06,1.66-.27,1.64-.91,2.51-.42,2.91,1.48,.15,.7,.18,1.41,.32,2.11,.24,1.2,.63,1.49,1.81,1.2,.5-.13,1.1-.43,1.35-.84,1.15-1.89,1.96-3.91,1.5-6.2-.37-1.83-2.05-2.91-3.94-2.49-.57-.77-1.4-1.01-2.38-.96-1.15,.07-2.3,.08-3.45,.05-1.05-.03-2,.21-2.96,.63-.73,.32-1.56,.73-2.29,.65-1.25-.13-2.26,.3-3.31,.77-.87,.39-1.79,.75-2.51,1.35-.75,.62-1.3,1.48-1.9,2.27-.24,.31-.28,.82-.56,1.05-.89,.73-.95,1.71-.78,2.65,.25,1.4,.61,2.79,1.07,4.13,.26,.75,.81,1.37,1.57,1.8,1.62,.93,3.19,1.95,4.8,2.9,.69,.41,1.39,.9,2.15,1.05,.71,.14,1.32,.35,1.98,.66,.89,.43,1.72,1.34,2.96,.68,.3-.16,.94,.32,1.42,.51-.04,.17-.08,.35-.12,.52-.84,.07-1.68,.14-2.51,.23-.35,.04-.7,.09-1.04,.18-.73,.18-1.45,.47-2.18,.55-1.1,.12-2.23,.05-3.33,.16-1.1,.11-2.18,.43-3.27,.49-1.13,.07-2.12,.37-3.16,.85-1.74,.81-2.05,1.83-1.28,3.9,1.29,3.47,4.56,3.79,7.5,4.57,.15,.04,.36-.2,.55-.23,.83-.15,1.67-.37,2.51-.39,.78-.02,1.53,.28,2.27-.33,.29-.24,.9-.23,1.31-.12,.51,.14,.81-.05,1.24-.25,1.37-.64,2.71-1.47,4.26-1.54,.75-.04,1.2-.37,1.71-.82,1.03-.92,1.92-1.96,3.4-2.4,.91-.28,1.71-1.26,1.89-2.39,.16-1,.26-2,.35-3.01,.19-2.09-1.01-4.16-2.88-5.03Z"/><path class="cls-1" d="M485.63,113.72c-1.15-.06-2.32,0-3.46,.18-1.19,.18-2.39,.47-3.52,.89-1.02,.37-1.96,.24-2.75-.3-.53-.37-.93-.28-1.4-.12-.38,.12-.74,.32-1.12,.49-.96-.62-.96-1.49-1-2.28-.06-1.11-.03-2.23,.09-3.33,.05-.45,.33-.96,.67-1.29,.81-.8,.86-2.19,2.08-2.65,.03,0,0-.1,.03-.14,.26-.43,.48-.88,.78-1.27,1.1-1.37,2.14-2.8,3.38-4.04,.7-.7,1.7-1.14,2.62-1.56,.24-.11,.72,.21,1.06,.38,.72,.35,1.4,.84,2.15,1.06,1.71,.49,2.81-.65,2.35-2.38-.19-.74-.42-1.47-.68-2.18-.51-1.45-2.39-2.65-3.89-2.36-1.43,.28-2.9,.15-4.3,.69-2.12,.82-4.51,1.01-6.2,2.79-.23,.25-.6,.37-.89,.57-1.5,1.01-3.01,2.01-4.5,3.05-.21,.15-.44,.53-.39,.73,.16,.65-.24,.94-.64,1.26-1.25,1.03-2.39,2.11-3.19,3.59-.5,.92-.71,1.8-.58,2.69,.43,2.9,.68,5.87,2.13,8.52,.78,1.41,1.13,3.08,2.38,4.21,.74,.68,1.69,1.16,2.32,1.92,.97,1.16,2.17,1.38,3.54,1.33,.78-.03,1.57,0,2.36,0,.48,0,1,.09,1.45-.04,1.45-.42,2.86-.98,4.31-1.39,.85-.24,1.63-.4,2.42-.96,1.91-1.36,3.36-2.98,4.18-5.18,.66-1.75,.08-2.79-1.8-2.89Z"/><path class="cls-1" d="M458.69,94.16c-1.66-.87-4.84,.9-4.69,2.76,.08,1-.27,1.9-1.17,2.5-.15,.1-.32,.3-.34,.47-.2,1.69-.44,3.38-.52,5.08-.06,1.26,0,2.44-.42,3.73-.58,1.77-.97,3.67-.94,5.6,.01,.65-.1,1.31,0,1.93,.18,1.1,.48,2.18,.72,3.27,.2,.88,.56,1.65,1.48,1.98,.43,.15,.94,.16,1.3,.41,.78,.54,1.48,.26,2.13-.13,.64-.37,1.46-.74,1.74-1.33,.62-1.29,1.47-2.61,.92-4.2-.08-.22-.02-.51,.02-.76,.18-1.1,.36-2.19,.57-3.28,.1-.54,.43-1.09,.37-1.61-.23-1.88-.2-3.71,.15-5.59,.31-1.71,.32-3.46,.52-5.86-.17-.85-.41-2.35-.81-3.8-.13-.46-.61-.95-1.06-1.18Z"/></g></g><g><g><path class="cls-1" d="M439.25,44.32c-.19-1.2-.27-2.43-.3-3.66-.03-1.51,.14-3.03,.04-4.52-.13-1.94-.33-3.88-1.33-5.53-1.89-1.01-3.84-1.24-5.98-.32-.21,.67-.51,1.45-.7,2.25-.26,1.15-.5,2.32-.63,3.5-.15,1.3-.19,2.61-.23,3.92-.06,1.78-.09,3.57-.36,5.34-.17,1.09-.28,2.19-.35,3.29-.05,.71,.07,1.44-.02,2.14-.2,1.57-.49,3.14-.74,4.71-.25,1.59-.49,3.19-.74,4.86-.38-.03-.66-.09-.92-.05-.68,.1-1.38,.09-1.75,.95-.33,.74-1.01,.94-1.72,.6-1.13-.53-2.34,.25-3.45-.29-.04-.03-.16,.03-.22,.09-.17,.15-.34,.28-.53,.37-.2,0-.42-.1-.64-.15-.62-.12-1.3-.36-1.75,.23-.09,.12-.18,.22-.28,.31-.19,.19-.4,.29-.63,.28-.17,0-.37-.08-.59-.22-.17-.11-.46,0-.7-.05-.37-.08-.74-.15-1.09-.3-.66-.26-1.25-.51-2-.03-.77,.5-1.62,.92-2.67,.8-.51-.06-1.08,.4-1.6,.65-.28,.14-.48,.47-.77,.54-.71,.18-1.45,.26-2.34,.41-.1-.67-.23-1.36-.3-2.05-.11-1.15-.58-2.28-1.38-2.93-.78-.65-1.15-1.33-1.44-2.2-.08-.25-.23-.54-.45-.66-.77-.45-1-1.15-1.19-1.96-.19-.8-.5-1.58-.86-2.31-.59-1.2-1.38-2.32-1.88-3.55-.49-1.2-.83-2.45-1.77-3.54-1.77,.3-2.33,.4-4.1,.7-.28,.68-.4,1.25-.68,1.72-.7,1.15-.45,2.25,0,3.41,.19,.5,.4,1.07,.34,1.57-.19,1.52,.22,2.96,.66,4.34,.51,1.55,.82,3.24,2,4.52,.08,.08,.09,.22,.12,.33,.13,.61,.25,1.21,.39,1.85-.05,.03-.16,.1-.27,.09-.9-.05-1.8-.15-2.7-.17-.63-.02-1.27-.06-1.82,.43-.18,.17-.57,.34-.75,.27-.89-.4-1.62,.09-2.38,.35-.77-.44-1.53-.52-2.37-.11-.33,.16-.76,.2-1.13,.17-.55-.05-1.09-.27-1.64-.32-.54-.05-1.2-.19-1.61,.05-.66,.4-1.12,.14-1.66-.11-.31-.14-.72-.36-.98-.26-.56,.22-1.01,.75-1.57,.94-.58,.19-1.25,.09-1.87,.19-.21,.03-.37,.28-.58,.4-.22,.13-.47,.28-.72,.34-1.53,.36-2.04,1.02-2.14,2.57-.12,2,.02,3.97,.53,5.91,.22,.84,.62,1.55,1.26,2.12,.23,.22,.58,.37,.71,.64,.53,1.15,1.57,1.06,2.55,1.14,.58,.04,1.15,0,1.92,0,.11-.13,.38-.41,.55-.6,.6,.05,1.1,.07,1.59,.14,.26,.03,.58,.09,.76,.27,.64,.58,1.34,.56,2.12,.42,.44-.08,.96-.09,1.37,.08,.63,.23,.99,.11,1.24-.48,.09-.21,.24-.39,.42-.67,.46,.27,.87,.49,1.26,.73,.52,.3,1.02,.45,1.53,0,.47-.4,1.05-.74,1.64-.44,.77,.4,1.04-.71,1.7-.46,.22,.08,.45,.14,.66,.24,.2,.1,.38,.25,.55,.36,.21-.11,.4-.15,.48-.27,.69-.99,1.54-1.45,2.74-.95,.03,0,.09,0,.12,0,.77-.19,1.47,0,2.12,.52l1.1-1.32,1.17,.38c.97-.6,1.97-1.02,2.94-1.04,1.09-.02,2.16-.32,3.22-.6,.41-.11,.87-.07,1.46,.24,.09,.04,.25,.03,.34-.03l2.3-.63c.72,.63,1.39,.43,2.12,.1,.61-.27,1.3-.39,1.97-.46,.31-.03,.75,.11,.99,.31,.59,.51,1.19,.47,1.85,.18,.24-.1,.56-.24,.77-.16,.4,.15,.72,.2,1.08-.11,.13-.1,.46-.08,.65,0,.72,.34,1.38,0,1.7-.47,.52-.77,1.02-.73,1.66-.33,.36-.27,.67-.5,1.06-.79,.56,1.21,1.61,.54,2.44,.71,.98,.2,1.91,0,2.28-1.11,1.21-.22,2.35-.42,3.49-.65,.19-.03,.34-.19,.53-.26,1.16-.43,1.8-1.44,2.43-2.37,1.02-1.48,2.07-2.93,2.43-4.77,.36-1.8,.77-3.57,.81-5.41,.02-.43,.17-.85,.26-1.28,.07-.35,.19-.71,.17-1.05-.13-1.95,.67-3.82,.54-5.77,0-.04,0-.08,.02-.12,.43-2,.36-4.01,.03-6.03Z"/><path class="cls-1" d="M500.4,68.98c-.78-.21-1.32-.38-1.88-.49-.46-.08-.81,.05-1.09,.51-.18,.29-.62,.59-.94,.58-.8,0-1.61-.18-2.41-.3-.23-.03-.55-.2-.69-.11-.74,.52-1.63,.12-2.39,.45-.14,.06-.34,.14-.46,.09-.94-.37-1.89-.37-2.9-.35-1.12,.03-2.19-.11-2.75,.98-1.67,.31-3.32-.11-4.85,.61-.23,.11-.55,.12-.81,.06-.43-.1-.83-.25-1.26,.03-.12,.08-.43,.04-.52-.06-.56-.65-1.06-.31-1.56,.06-.32,.24-.63,.48-1.01,.77-.58-.48-1.2-.48-1.86-.15-1.01,.5-2.04,.07-3.06,.02-.29-.01-.65,.04-.85,.2-.38,.3-.68,.36-1.18,.25-.54-.12-1.21-.04-1.72,.17-.82,.34-1.56,.87-2.14,1.2-1.19,.05-2.21,.09-3.23,.14-.12,0-.24,.05-.36,.05-.92,0-1.82,.06-2.44,.94-.68-.5-1.3-.37-1.98-.19-.84,.21-1.72,.23-2.58,.33-.7,.08-1.44,.04-2.1,.24-.54,.16-.92,.11-1.29-.27-.45-.45-.97-.68-1.62-.57-.11,.02-.25,.02-.35-.03-1.11-.52-2.23-1.03-3.31-1.6-.25-.13-.47-.45-.56-.73-.41-1.24-.86-2.48-1.14-3.75-.22-.99-.2-1.95,.41-2.95,.44-.71,.39-1.76,.42-2.66,.03-1.19-.11-2.38-.12-3.57,0-.58,.12-1.17,.22-1.75,.18-1.08,.5-2.13,.47-3.25-.09-2.78-.21-5.56-.14-8.34,.04-1.61-.32-3.15-.42-4.73-.15-2.34-.29-4.67-.38-7.01-.03-.75,.07-1.51,.22-2.24,.15-.74,.84-1.01,1.43-1.33,.24-.13,.6-.1,.78-.27,1.63-1.48,3.08-.51,4.53,.3,1.25,.7,1.64,1.99,2.12,3.19,.32,.8,.41,1.67,.47,2.56,.05,.85,.51,1.66,.68,2.51,.24,1.18,.63,2.36,.39,3.61-.06,.3-.03,.65,.07,.93,.72,1.97,.85,4.05,1.06,6.09,.11,1.1-.26,2.26-.41,3.39-.03,.19-.11,.39-.08,.58,.15,.94,.26,1.89,.51,2.8,.13,.47,.11,.85-.1,1.25-.48,.92-.52,1.9-.42,2.91,.05,.51-.02,1.03,0,1.54,.02,.5,.07,1,.11,1.44,1.57,.42,2.84-.12,4.17-.48,1.13-.3,2.13-1.14,3.4-.9,.07,.01,.18,0,.23-.04,.74-.63,1.54-.41,2.47-.06,.3-1.59,.58-3.09,.87-4.59,.18-.9,.37-1.79,.58-2.68,.05-.22,.14-.47,.29-.64,.43-.48,.61-1.01,.48-1.65-.02-.11-.02-.24,0-.36,.38-1.78,.68-3.59,1.19-5.34,.32-1.08,.55-2.13,.55-3.25,.01-2.77,2.24-4.69,4.79-4.95,.83-.08,1.84,.33,2.54,.83,.5,.35,.66,1.22,.91,1.87,.3,.77,.4,1.66,.84,2.33,.65,.99,1.13,2,1.46,3.15,.15,.51,.69,.97,1.16,1.31,1.6,1.16,3.06,2.55,4.88,3.34,1.11,.48,2.17,1.04,3.22,1.61,.24,.13,.45,.3,.67,.46,.26,.18,.5,.46,.78,.52,2,.42,3.7,1.58,5.64,2.15,.76,.22,1.55,.33,2.3,.59,.77,.26,1.48,.76,2.27,.91,.77,.14,1.58,0,2.28,.5,.31,.23,.65,.43,.99,.63,.2,.11,.42,.3,.61,.28,.71-.08,1.29,.3,1.94,.45,1.46,.35,2.95,.78,4.46,.21,.43-.16,.73-.03,1.09,.21,.86,.56,1.78,1.04,2.67,1.55,.07,.04,.19,.03,.22,.08,.48,1.06,1.28,2.01,1.09,3.31-.18,1.18-1,1.61-2.03,1.85-.81,.19-1.61,.38-2.64,.62-.47-.18-1.15-.59-1.87-.66-.71-.06-1.47,.21-2.19,.37-.49,.11-1.01,.22-1.44,.46-.94,.55-2.32,.22-2.9,1.52-.11,.25-.76,.31-1.17,.36-.52,.06-1.06,.01-1.33,.01Zm-26.67-8.05c.85-.14,1.69-.33,2.54-.4,.85-.07,1.75-.2,2.55,0,1.09,.26,1.99,.14,2.91-.46,.24-.16,.7-.19,.97-.08,1.18,.48,1.17,.51,2.65,.1-.7-.4-1.33-.78-1.98-1.13-.12-.07-.32-.04-.46,0-.62,.16-1.07-.11-1.49-.52-.25-.24-.57-.42-.86-.61-.96-.63-1.87-1.31-2.57-2.25-.26-.35-.59-.65-.92-.93-.93-.78-2.06-.5-2.44,.65-.19,.59-.21,1.24-.3,1.87-.06,.39,0,.83-.18,1.15-.46,.8-.5,1.64-.41,2.62Z"/><path class="cls-1" d="M482.12,39.09c.07-.95,.08-1.91,.22-2.85,.08-.55,.07-1.21,.77-1.49,.12-.05,.22-.26,.23-.4,.1-.94,.57-1.52,1.51-1.75,.25-.06,.49-.29,.65-.51,1.1-1.45,2.66-2.19,4.32-2.75,.14-.05,.35-.11,.45-.04,1.18,.73,2.8,.28,3.8,1.46,1.14,.03,1.28,1.1,1.86,1.72,1.31,1.4,1.38,3.16,1.65,4.88,.04,.23,.03,.49-.05,.71-.71,1.86-1.5,3.69-3.17,4.91-.96,.7-2.03,1.18-3.23,1.34-.27,.04-.58,.09-.78,.25-.48,.39-1.04,.3-1.57,.42-1.16,.27-1.94-.52-2.89-.83-.99-.32-1.73-.94-2.33-1.76-.14-.19-.28-.44-.48-.52-.9-.34-.92-1.06-.88-1.83,.02-.32,0-.63,0-.95h-.09Z"/></g><g><path class="cls-1" d="M308.29,73.41c-.86-.44-1.71-.65-2.62-.27-.6-.6-1.24-.9-2.12-.58-.5,.18-.92-.11-1.32-.58-.71-.83-1.25-1.73-1.74-2.69-.14-.26-.35-.53-.37-.81-.04-.71-.26-1.29-.79-1.78-.17-.15-.19-.47-.26-.72-.14-.46-.26-.93-.41-1.39-.45-1.33-.42-2.72-.38-4.09,.03-1.29,.06-2.58,.46-3.85,.22-.69,.26-1.49,.15-2.21-.11-.77,.3-1.14,.79-1.45,.69-.42,1.14-.94,1.13-1.89l1.65-.26c.56-.33,.98-.58,1.41-.83,1.03-.6,2.3-.48,3.35-1.1,.47-.28,1.15-.2,1.73-.31,.43-.08,.86-.22,1.29-.3,.24-.04,.5-.05,.74-.02,1.25,.13,2.51,.26,3.76,.4,.33,.04,.66,.09,.98,.16,.25,.05,.49,.17,.75,.21,1.24,.17,2.49,.31,3.8,1.16,.12,.3,.33,.89,.61,1.44,.18,.35,.45,.67,.74,.94,.53,.5,1.17,.9,1.65,1.44,.38,.42,.59,.99,.88,1.5,.06,.1,.08,.24,.16,.29,1.39,.89,1.23,2.39,1.48,3.72,.11,.58,.15,1.17,.22,1.75,.03,.26,.07,.52,.09,.77,.03,.32-.06,.86,.08,.92,.45,.2,.98,.35,1.46,.31,1.03-.09,2.05-.36,3.08-.46,.66-.07,1.33,.06,2,.03,.43-.01,.86-.12,1.28-.21,.17-.04,.33-.25,.49-.24,1.06,0,2.14-.06,3.17,.13,.55,.1,.94,.13,1.3-.25,.53-.56,1.17-.74,1.91-.75,.25,0,.5-.11,.76-.13,.54-.05,1.02-.07,1.6,.18,.87,.38,1.91,.77,2.74-.24,.14-.16,.34-.33,.54-.37,.94-.2,1.9-.34,2.84-.54,.35-.07,.79-.16,.99-.4,.7-.86,1.68-1.15,2.67-1.45,.49-.15,.68-.41,.53-.9-.02-.07-.09-.12-.01-.02-.74-.2-1.35-.3-1.92-.52-.59-.23-1.12-.5-1.81-.26-.34,.12-.82-.02-1.19-.16-.76-.3-1.47-.7-2.22-1.02-.3-.12-.64-.16-.97-.17-.63-.02-1.27-.03-1.9,.02-.46,.04-.88,.07-1.26-.27-.1-.09-.27-.16-.4-.16-.96,.01-1.92,.02-2.88,.07-.85,.04-1.7,.15-2.54,.19-.2,0-.44-.09-.62-.21-1.04-.71-2.07-.92-3.15-.05-.15,.12-.4,.17-.61,.18-.51,.04-1.04-.02-1.53,.1-.5,.12-.78-.07-1.05-.41-.28-.34-.53-.71-.85-1.02-.73-.71-1.11-1.64-1.27-2.57-.26-1.57-.33-3.16,.04-4.77,.23-.99,.76-1.53,1.59-1.81,.53-.18,.83-.45,.99-.95,.16-.5,.47-.78,.96-1.01,.36-.17,.66-.55,.9-.9,.22-.32,.21-.88,.48-1.04,.49-.29,1.14-.56,1.67-.48,1.51,.24,2.66-.56,3.91-1.09,.07-.03,.14-.07,.18-.13,.79-1.39,2.34-1.44,3.58-2.03,.36-.17,.78-.24,1.17-.36,.5-.15,.84-.44,.97-.98,.05-.23,.2-.58,.37-.63,1.49-.41,2.66-1.51,4.28-1.71,1.09-.13,2.08-.9,2.46-2.05,.21-.62,.56-.82,1.13-.86,.73-.05,1.34-.32,1.86-.87,.26-.29,.68-.45,1.04-.63,.66-.32,1.34-.58,1.98-.93,.37-.2,.78-.32,.99-.83,.12-.3,.64-.57,1-.61,.53-.05,.87-.31,1.24-.63,1.1-.97,2.19-.81,3.31-.2,.99,.54,1.13,1.59,.78,2.95-.28,1.08-.65,2.05-1.53,2.78-.09,.07-.18,.16-.21,.26-.53,1.65-2.08,2.66-2.68,4.25-.48,1.27-1.36,2.2-2.3,3.1-.25,.24-.6,.53-.92,.55-.85,.06-1.27,.61-1.59,1.24-.27,.53-.6,.82-1.19,.85-.21,.01-.56,.1-.59,.22-.3,1.03-1.58,1.12-1.94,2.07-.04,.11-.23,.23-.35,.24-1.31,.09-2.02,1.07-2.88,1.85-.67,.6-1.37,1.14-2.05,1.72-.1,.09-.17,.22-.29,.39,.4,.33,.71,.24,.99-.06,.29-.31,.61-.35,1.01-.27,.31,.07,.65,0,.97,0,.59,0,1.18-.05,1.51,.61,.07,.14,.26,.3,.41,.32,.6,.06,1.21,.07,1.82,.1,.11,0,.26-.03,.32,.03,.79,.74,1.93,.79,2.76,1.57,.82,.77,1.97,1.16,3.21,1.14,1.87,2.37,2.23,5.08,1.89,7.96-.02,.15-.06,.3-.06,.44-.04,1.97-1.08,3.37-2.45,4.69-.67,.64-1.35,1.12-2.16,1.51-.43,.2-.9,.5-1.14,.88-.56,.87-1.46,1.11-2.32,1.4-.8,.28-1.64,.42-2.46,.63-.1,.03-.23,.05-.3,.13-.51,.56-1.13,.79-1.89,.77-.19,0-.39,.2-.66,.34-.56-.68-1.11-.49-1.69,.05-.26,.24-.65,.35-.99,.48-.51,.18-1.03,.33-1.69,.53-.71-.52-1.45-.28-2.03,.47-1.61-.54-3.09-.49-4.56,.3-.35,.19-.91,.23-1.27,.08-.77-.31-1.46-.89-2.32-.25-.69-.36-1.38,.08-2.07,.02-.67-.06-1.29-.03-1.55,.65-.59,0-1.06,0-1.54,0-.33,0-.65,.03-.98,.03-.18,0-.43-.1-.54-.02-.62,.45-1.3,.17-2.05,.17,.11,.77-.33,1.26-.83,1.71-.13,.12-.3,.28-.32,.44-.14,1.1-.97,1.83-1.46,2.74-.36,.67-1.11,.94-2.04,.75-.25,.61-.6,1.2-.72,1.83-.13,.71-.54,1.12-1.14,1.23-1.04,.19-1.61,.85-2.08,1.69-.05,.1-.14,.17-.27,.33-.63-.22-1.18-.06-1.57,.57-.32,.52-.87,.64-1.44,.74-.43,.08-.84,.25-1.26,.39-.07,.02-.13,.14-.17,.13-1.29-.28-1.73,.83-2.35,1.45-1.54,0-3.01-.16-4.4,.51-.63,.3-1.3,.53-1.95,.79-.07,.03-.15,.08-.21,.06-.94-.36-1.75,.17-2.6,.37-.48,.11-.92,.38-1.58,.66-.75-.04-1.75-.09-2.74-.15-.33-.02-.66-.07-.98-.12-.73-.11-1.43-.3-2.16,.12-.45,.26-.94-.01-1.45-.15-1.22-.33-2.16-1.25-3.41-1.42-.83-.11-1.15-.87-1.76-1.27-.8-.52-1.4-1.33-2.14-1.95-.51-.43-.82-.92-.95-1.57-.17-.88-.42-1.74-.54-2.62-.18-1.32,.81-2.64,2.13-2.78,.56-.06,1.1-.34,1.59-.34,1.05,0,2.18-.19,3.16,.38,.41,.24,.81,.24,1.26,.27,.86,.07,1.73,.24,2.56,.5,.8,.25,1.5,.34,2.37,.18,.94-.17,1.87-.33,2.8-.6,.58-.17,1.17,.21,1.83-.07,.91-.38,1.94-.45,2.88-.77,.39-.13,.71-.52,.99-.85,.3-.35,.55-.68,1.1-.64,.24,.02,.5-.14,.74-.23,.14-.06,.27-.24,.38-.22,1.52,.28,1.99-1.31,3.13-1.74Zm8.85-13.92c-.81-1.46-2.48-1.65-3.72-2.45-.32-.21-.91,.02-1.38,.03-.26,0-.52,0-.78-.06-1.32-.28-2.52,.2-3.64,.45-.29,.85-.54,1.54-.78,2.25,.32,.45,.65,.89,.96,1.34,.39,.58,1.09,.36,1.6,.63,.1,.05,.22,.07,.3,.14,.41,.36,.9,.47,1.44,.49,.36,.01,.71,.18,1.07,.28,.17,.04,.36,.13,.52,.1,1.89-.42,3.67-1,4.41-3.2Z"/><path class="cls-1" d="M293.53,58.21c-.02-.11-.09-.23-.07-.32,.47-1.49-.33-2.57-1.14-3.66-.46-.61-1.05-1.14-1.39-1.81-.4-.8-1.18-1.15-1.74-1.75-.56-.59-1.41-.9-2.13-1.34-.15-.09-.36-.21-.41-.35-.22-.67-.81-.62-1.3-.63-1.23-.04-2.46-.05-3.69,0-1.24,.06-2.49,.21-3.73,.34-.28,.04-.69,.14-.81,.34-.53,.88-1.51,1.03-2.23,1.42-.32,.95-.41,1.99-.97,2.63-.62,.73-.79,1.5-.87,2.32-.13,1.47-.35,2.94,.28,4.41,.44,1.03,.58,2.19,.88,3.41-.77,.18-1.48,.36-2.2,.48-.46,.08-1.67,.06-1.82-.44-.85,.02-1.64,.02-2.36,.02,.62-.89,1.03-1.89,1.05-3.1,0-.14,.05-.29,.07-.44,.33-2.88-.03-5.6-1.9-7.96-1.23,.02-2.39-.37-3.21-1.14-.83-.78-1.97-.82-2.76-1.57-.06-.05-.21-.02-.32-.02-.61-.03-1.22-.04-1.82-.1-.15-.02-.34-.18-.4-.32-.34-.66-.92-.62-1.51-.61-.33,0-.66,.07-.98,0-.4-.08-.72-.05-1.01,.27-.28,.3-.59,.39-.99,.06,.12-.16,.18-.3,.29-.38,.69-.58,1.39-1.13,2.06-1.72,.86-.78,1.57-1.76,2.87-1.85,.13,0,.31-.12,.36-.24,.37-.95,1.65-1.04,1.94-2.07,.04-.12,.38-.21,.59-.22,.59-.04,.91-.33,1.18-.86,.32-.62,.74-1.18,1.59-1.23,.32-.02,.66-.3,.91-.55,.94-.9,1.82-1.84,2.29-3.1,.6-1.59,2.15-2.61,2.68-4.25,.03-.1,.13-.18,.21-.26,.88-.72,1.25-1.7,1.53-2.77,.34-1.36,.21-2.42-.78-2.96-1.13-.61-2.22-.76-3.31,.21-.37,.32-.71,.58-1.24,.63-.37,.04-.88,.3-1,.61-.21,.5-.62,.62-.99,.82-.64,.35-1.33,.61-1.98,.93-.37,.18-.78,.34-1.04,.63-.51,.56-1.12,.83-1.85,.88-.58,.03-.92,.24-1.14,.85-.38,1.15-1.36,1.92-2.46,2.05-1.62,.2-2.8,1.3-4.28,1.71-.17,.05-.32,.4-.37,.62-.12,.55-.47,.83-.97,.98-.39,.12-.81,.18-1.17,.36-1.23,.59-2.79,.65-3.57,2.03-.04,.06-.11,.11-.18,.14-1.25,.53-2.4,1.33-3.91,1.1-.53-.08-1.18,.18-1.67,.47-.27,.16-.27,.73-.49,1.04-.24,.35-.53,.73-.9,.91-.48,.22-.8,.5-.95,1.01-.16,.5-.46,.76-.99,.94-.83,.28-1.36,.82-1.59,1.81-.37,1.62-.3,3.2-.04,4.78,.15,.92,.53,1.85,1.26,2.56,.31,.31,.57,.68,.85,1.02,.27,.34,.56,.53,1.05,.41s1.03-.05,1.54-.1c.21-.02,.45-.06,.6-.18,1.07-.88,2.1-.66,3.15,.05,.18,.12,.41,.22,.62,.21,.85-.04,1.7-.14,2.54-.18,.96-.05,1.92-.06,2.88-.08,.14,0,.31,.07,.4,.16,.37,.35,.79,.31,1.26,.27,.63-.06,1.27-.05,1.9-.02,.33,0,.67,.05,.97,.17,.75,.32,1.46,.72,2.22,1.02,.37,.14,.85,.28,1.19,.16,.69-.24,1.21,.02,1.81,.26,.56,.22,1.17,.33,1.92,.53,0,0,.02,.02,.02,.02,.14,.49-.04,.75-.53,.9-.98,.3-1.97,.59-2.67,1.46-.2,.24-.64,.32-.99,.4-.94,.2-1.9,.34-2.84,.54-.2,.05-.4,.21-.54,.37-.83,1.01-1.87,.62-2.74,.24-.58-.25-1.06-.23-1.6-.18-.25,.02-.5,.13-.75,.13-.69,0-1.3,.17-1.8,.65-4.26,0-8.27,.05-9.61,.12-4.17,.45-5.81-.26-7-.56v-.18c-.25,.02-.4,.04-.46,.06-.68,.21-1.12-2.44-1.17-3.15-.09-1.19-.14-2.38-.3-3.56-.08-.56-.35-1.12-.59-1.65-.28-.6-.61-1.19-.94-1.76-.24-.41-.47-.77-.94-1.03-.75-.43-1.34-.23-2.1-.1-1.73,.3-3.21,2.06-2.79,4,.43,2.05,.21,4.17,.72,6.2,.06,.27-.11,.62-.17,.93-.49,0-.91-.08-1.22,.05-.66,.28-1.22,.18-1.87-.32,.03-.36,.06-.8,.13-1.22,.08-.55,.2-1.04,.04-1.64-.35-1.25-.6-2.54-.78-3.82-.11-.88-.6-1.49-1.11-2.13-.43-.55-.98-.62-1.59-.59-.11,0-.22-.06-.33-.08-.94-.13-1.87-.16-2.86,.23-.1,.86-.16,1.71-.29,2.55-.31,1.94-.02,3.85,.27,5.76,.07,.46,.17,.88-.36,1.32-.43-.15-.91-.43-1.39-.45-.89-.05-1.1-.61-1.18-1.32-.12-1.21-.24-2.43-.34-3.64-.02-.3-.02-.62,.08-.89,.54-1.35,.12-2.55-.54-3.72-.54-.94-1-1.16-2.07-.98-.22,.04-.43,.06-.66,.09-1.36,.2-2.44,.98-3.01,2.09-.44,.88-.46,2.02-.84,3.01-.26,.67-.27,1.44-.43,2.15-.17,.8-.25,1.54-.03,2.4,.34,1.33,.72,2.74,0,4.11-.07,.14,0,.36,.02,.54,.06,1.21,0,2.44-.98,3.27-.62,.53-.78,1.04-.73,1.81,.02,.39-.18,1.01-.46,1.17-.63,.35-.9,.89-1.12,1.47-.08,.2-.17,.37-.28,.54h0c-.02,1.3-2.07,2.25-2.07,2.25,0,0-1.26-.09-5.3,1.07-4.04,1.17-5.74-.98-7.84-1.02h0c-.39,.15-.71,.19-.88,0-.34-.4-.56-.72-1.11-.75-.55-.03-.91-.33-1.22-.85-.5-.85-1.13-1.65-1.73-2.45-.31-.4-.47-.81-.47-1.33,0-.81-.08-1.62-.14-2.42-.06-.88-.24-1.78,.64-2.41,.11-.08,.15-.25,.2-.39,.22-.83,.45-1.65,.66-2.48,.12-.48,.26-.89,.77-1.14,.24-.12,.48-.5,.5-.78,.04-.56,.35-.89,.72-1.22,.17-.14,.37-.27,.47-.46,.46-.84,.92-1.68,1.36-2.54,.3-.59,.34-1.21,.11-1.84-.22-.63-.35-1.31-.66-1.9-.39-.76-.75-1.72-1.39-2.1-.9-.52-2.03-1.31-3.13-.14-.08,.08-.28,.06-.43,.07-.48,.02-.82,.24-1.14,.6-.27,.32-.67,.64-1.06,.75-.75,.2-1.36,.41-1.3,1.35,0,.11-.14,.25-.24,.37-.5,.59-.96,1.22-1.5,1.77-.3,.32-.43,.59-.45,1.06-.04,.91-.24,1.82-.4,2.72-.03,.14-.12,.27-.21,.39-.78,.92-1.54,1.85-1.23,3.19,0,.04,0,.08-.02,.11-.42,1.26-.31,2.58-.31,3.87,0,.98-.35,1.85-.56,2.77-.21,.88-.26,1.74-.08,2.6,.37,1.9,1.45,3.49,2.24,5.2,.25,.53,.46,1.08,1.03,1.42,.32,.2,.56,.58,.8,.9,.46,.65,.92,1.29,1.38,1.94h0s.02,.03,.03,.05c0,0,.01,.02,.02,.03,.46,.66,.93,1.31,1.4,1.96,.23,.31,.5,.66,.82,.85,.24,.14,.54,.19,.87,.18,1.04,.76,2.2,1.36,3.28,1.36,2.21,0,5.01,1.85,7.34,1.09,.91,.27,1.87,.33,2.83-.06,1.24-.5,1.57,.04,2.83-.43,.3-.11,.75-.08,1.12-.26,.32-.15,.66-.34,1.06-.1,.17,.11,.58-.06,.69-.16,.48-.4,1.1-.31,1.49-.33,.46-.21,1.61-.68,2.08-.85,.43-.16,.94-.3,1.25-.62,.43-.43,.68-1.04,1.05-1.55,.64-.88,1.06-1.97,2.29-2.29,.23-.06,.38-.49,.56-.76,.21-.33,.36-.71,.6-1.01,.41-.52,.83-1.03,1.49-1.31,.21-.1,.36-.46,.43-.73,.3-1.07,.52-2.16,.83-3.24,.13-.45,.37-.91,1.03-.74,.15,.05,.41,.03,.5-.06,.45-.52,1.03-.36,1.57-.33,.49,.02,.97,.07,1.44,.17,1.23,.24,2.44,.53,3.51,.76,.61-.17,1.13-.3,1.65-.45,.74-.22,1.44-.12,2.18,.08,.41,.1,.91,.09,1.33-.04,.4-.14,.72-.08,1.04,.11,.47,.28,.94,.56,1.42,.85,.5-.3,.98-.43,1.46-.47,.91-.08,1.84,.26,2.77,.14,7.39,.66,12.65,.45,12.68,.45,4.75,0,12.04-.02,16.65-.03h.02c.14,0,.29,0,.44,0,5.42,0,8.06-.65,8.58-.78,.07-.02,.1-.03,.1-.03h.02c.24-.07,.48-.1,.71-.08,.55,.06,1.09,.05,1.64,.08,.98,.04,2-.25,2.89,.4,1.19-1.06,2.49-1.09,3.86-.58,.93-.56,2.01-.66,3.2-.23,.17-.2,.28-.45,.46-.51,.69-.24,1.4-.42,2.1-.62,.2-.06,.49-.05,.57-.18,.27-.44,.68-.53,1.14-.62,.21-.04,.49-.16,.56-.33,.27-.62,.8-.8,1.37-1,.26-.09,.43-.39,.68-.56,.8-.56,1.39-1.42,2.5-1.55,.56-.06,1.1-.4,1.62-.66,.19-.08,.42-.27,.46-.45,.15-.56,.5-.88,1.02-1.08,.23-.08,.47-.28,.59-.5,.42-.82,.98-1.58,.98-2.58,0-.48,0-1.01,.17-1.44,.31-.73,.2-1.45,.14-2.19Zm-7.57,1.52c-.51,.69-1.16,.98-2.03,.99-.51,0-1.03,.29-1.53,.47-.94,.34-1.49,.13-2.06-.73-.17-.25-.46-.46-.75-.59-.4-.19-.83-.3-1.23-.43-.59-2.48-.14-3.52,2.03-4.64,.76,.68,1.62,.78,2.67,.46,1.31-.38,2.26,.15,3.01,1.33,.34,.53,.72,1.04,1.13,1.62-.37,.46-.83,.98-1.23,1.52Z"/></g></g></g></svg>