<?xml version="1.0" encoding="UTF-8"?><svg id="Layer_1" xmlns="http://www.w3.org/2000/svg" viewBox="0 0 60 60"><defs><style>.cls-1{fill:#355686;}.cls-2{fill:#fff;}</style></defs><path class="cls-2" d="m57.96,33.29c0-.6.06-1.17-.14-1.8-.27-.86-.26-1.82-.33-2.74-.02-.19.04-.46.16-.57.4-.34.28-.69.09-1.07-.09-.17-.26-.32-.19-.55.36-1.1-.46-1.97-.65-2.96-.07-.39-.41-.69-.15-1.17.31-.58-.41-.9-.46-1.4-.09-.95-.63-1.75-1.04-2.55-.63-1.22-1-2.54-1.71-3.74-.38-.63-.67-1.26-1.29-1.69-.97-.68-1.71-1.65-2.37-2.56-.73-1-1.67-1.75-2.56-2.48-1-.82-2.05-1.68-3.34-2.15-.99-.37-1.7-1.26-2.72-1.68-1.05-.44-2.07-.93-3.23-1.04-.77-.08-1.54-.13-2.23-.57-.31-.2-.7-.16-1.08-.1-.82.14-1.62.11-2.4-.23-.25-.11-.51-.24-.82-.21-2.36.24-4.75.12-7.07.89-.93.31-1.93.54-2.94.65-.64.08-1.37-.02-1.94.42-.7.56-1.43,1.05-2.38,1.06-.1,0-.2.13-.29.19-1.08.71-2.05,1.55-3.07,2.31-.94.68-1.53,1.69-2.57,2.3-.55.31-1.23.8-1.53,1.44-.86,1.82-2.41,3.15-3.34,4.91-.29.56-.69.99-.84,1.68-.16.76-.72,1.46-1.2,2.11-.66.9-1.33,1.72-.87,2.95.12.33.02.7-.26,1.02-.75.84-1.12,1.83-.98,2.97.14.16.12.32.02.49.05.16.12.33-.02.49.28.27,0,.34-.17.44.26.11.28.31.18.54.13.42.28.83-.02,1.23.05.41.22.77.28,1.18.17,1.09.08,2.22.43,3.28.13.15.21.31.04.49-.12,1.26.14,2.43.84,3.48.31.47.12.78-.02,1.2-.14.41.8.47.5,1.1-.16.34.18.48.4.64.21-.04.28.05.24.25.05.97.76,1.64,1.15,2.45.44.91,1.48,1.41,1.74,2.43.29,1.13,1.03,2.02,1.79,2.74.99.94,1.95,1.96,3.1,2.7.49.32,1.05.5,1.42,1.01.32.45.79.67,1.33.89.56.22,1.19.27,1.69.69.53.46,1.19.7,1.88.84.4.08.79.16,1.16.37,1.85,1,3.88,1.38,5.94,1.69.52.08,1.03-.01,1.57.11,1.44.34,2.93.26,4.39.28,1.79.03,3.55-.3,5.33-.48.57-.06,1.02-.16,1.52-.57.69-.56,1.44-1.37,2.5-1.03.59.19.95-.01,1.29-.39.77-.86,1.86-1.28,2.85-1.61.75-.25,1.27-.57,1.76-1.1.34-.35.66-.84,1.08-.98,1.25-.41,1.69-1.57,2.5-2.4.2-.2.31-.47.49-.69,1.17-1.45,2.63-2.71,2.99-4.67,1.15-1.38,1.3-3.31,2.54-4.65.12-.13.11-.39.17-.58-.04-.22.08-.37.22-.5-.15-.53-.22-1.01-.1-1.61.23-1.14.76-2.22.75-3.41Z"/><g><path class="cls-1" d="m9.86,42.7v-25.33c.11,0,.21-.02.31-.02,1.51,0,3.03,0,4.54,0,2.31,0,4.62,0,6.94,0,.9,0,1.79.04,2.68.18.92.15,1.81.37,2.64.8,1.47.75,2.38,1.93,2.73,3.54.22,1,.25,2.01.08,3.02-.23,1.37-.93,2.45-2.05,3.27-.32.24-.68.43-1.02.64-.06.04-.12.07-.23.13.12.04.21.07.29.1.79.27,1.53.63,2.17,1.17.92.78,1.53,1.77,1.85,2.92.38,1.36.42,2.74.08,4.12-.42,1.73-1.42,3.04-2.93,3.98-1.07.67-2.25,1.06-3.48,1.28-.82.15-1.64.21-2.47.21-3.92,0-7.83,0-11.75,0-.12,0-.24,0-.38-.01Zm5.57-7.81c0,1.04,0,2.07,0,3.11,0,.07,0,.15,0,.22,0,.09.05.14.14.14.07,0,.15,0,.22,0,1.4,0,2.8,0,4.2,0,.57,0,1.13,0,1.7-.01.67-.02,1.34-.11,1.97-.37.94-.38,1.54-1.06,1.74-2.06.15-.75.11-1.5-.08-2.24-.2-.73-.62-1.3-1.29-1.67-.3-.17-.62-.3-.95-.39-.56-.15-1.13-.2-1.7-.2-1.88,0-3.76,0-5.64,0-.32,0-.32,0-.32.32,0,1.05,0,2.1,0,3.15Zm.03-7.31c.09,0,.16.01.24.01,1.86,0,3.73,0,5.59,0,.53,0,1.05-.11,1.55-.31.84-.35,1.38-.94,1.56-1.85.09-.46.1-.92.04-1.38-.12-.92-.6-1.59-1.46-1.96-.26-.11-.55-.2-.83-.26-.5-.11-1.02-.14-1.53-.14-1.62,0-3.24,0-4.85,0-.05,0-.1,0-.16,0-.11,0-.16.06-.17.16,0,.04,0,.09,0,.13,0,1.77,0,3.55,0,5.32,0,.09.02.17.03.27Z"/><path class="cls-1" d="m36.9,34.3c-.01.08-.03.13-.02.17.04.75.16,1.48.45,2.18.41.99,1.13,1.66,2.14,1.99,1.18.38,2.38.41,3.56,0,.7-.24,1.29-.65,1.78-1.2.19-.21.36-.44.45-.71.05-.16.15-.19.3-.19,1.15,0,2.3,0,3.45,0,.24,0,.47,0,.72,0,0,.07.01.11,0,.15-.44,1.34-1.07,2.58-2.05,3.61-.91.95-2.02,1.58-3.27,1.94-2.09.61-4.2.64-6.29.04-2.69-.76-4.53-2.49-5.57-5.08-.45-1.12-.67-2.29-.73-3.49-.06-1.28.05-2.53.41-3.76.51-1.74,1.42-3.23,2.81-4.41,1.39-1.17,2.98-1.87,4.79-2.09,1.29-.16,2.58-.12,3.84.22,2.03.54,3.61,1.73,4.76,3.49.81,1.24,1.29,2.62,1.52,4.08.15.93.21,1.87.15,2.81,0,.07-.01.13-.03.22-.1,0-.19.02-.28.02-.88,0-1.76,0-2.64,0-3.3,0-6.61,0-9.91,0-.11,0-.22,0-.35,0Zm8.14-3.24c-.04-.17-.06-.31-.09-.44-.16-.69-.4-1.36-.79-1.96-.44-.69-1.06-1.14-1.86-1.33-.56-.14-1.14-.15-1.71-.12-.89.05-1.69.35-2.37.94-.85.73-1.21,1.69-1.33,2.77,0,.05.02.1.03.15h8.13Z"/><path class="cls-1" d="m46.19,21.47h-10.16c-.06-.18-.08-2.55-.02-2.79.17-.05,9.92-.07,10.18-.01.07.19.07,2.61,0,2.81Z"/></g></svg>
