<?xml version="1.0" encoding="UTF-8"?><svg id="Layer_1" xmlns="http://www.w3.org/2000/svg" viewBox="0 0 143.93 143.94"><defs><style>.cls-1{fill:#fff;}.cls-2{fill:#039;}</style></defs><path d="M90.69,68.69c-2.21,2.34-4.34,4.76-6.55,7.11-.64,.67-1.27,.45-1.85-.24-1.22-1.47-2.09-3.16-3.12-4.74-2.75-4.25-6.92-5.64-11.51-6.25-1.96-.25-4-.28-5.9,.53-.58,.24-1.35,.37-1.68,.82-1.92,2.55-5.31,3.51-6.89,6.39-.33,.61-.81,.93-1.46,1.09-.75,.2-1.28,.78-1.72,1.35-3.63,4.68-7.89,8.88-11.04,13.93-1.28,2.04-1.28,4.43-1.98,6.63,1.59,3.1,1.5,7,4.62,9.4,3.9,2.98,8.11,4.8,13.17,4.37,2-.17,3.45-1.5,5.15-2.25,2.13-.95,4.31-2.3,5.62-4.46,.52-.87,1.54-1.11,2.02-1.95,.4-.66,.95-.64,1.64-.44,3.77,1.06,7.66,1.22,12.15,1.35-1.52,1.65-2.49,2.95-3.86,3.98-2.34,1.76-4.23,4.06-6.3,6.11-3.63,3.63-7.87,6.07-12.7,7.23-3.19,.75-6.55,.79-9.91,.5-7.03-.6-11.49-4.83-15.63-9.92-4.86-5.94-5.52-12.86-5.35-20.07,.03-1.52,.75-2.73,1.38-4.08,1.97-4.25,6.1-6.83,8.11-10.98,4.21-2.85,6.18-7.99,10.81-10.44,1.85-.98,3.1-2.82,4.49-4.3,3.61-3.85,8.05-5.41,13.03-6.19,4.33-.69,8.39,.32,12.35,1.71,1.8,.64,3.65,1.88,4.84,3.36,2.46,3.02,5.25,5.72,7.82,8.61,.5,.57,1.05,1.02,.26,1.84Z"/><path d="M119.77,56.43c-.36,.98-.5,2.04-.61,3.08-.13,1.3-.56,2.33-1.43,3.37-1.34,1.57-1.8,3.76-3.18,5.39-.69,.79-1.18,1.91-2.02,2.41-2.24,1.31-3.73,3.43-5.2,5.32-2.74,3.52-6.38,6.13-9.05,9.61-3.15,4.12-7.42,6.4-12.11,7.97-3.51,1.18-7.21,1.48-10.92,1.2-.73-.04-1.44-.11-2.18-.13-2.86-.13-5.69-.32-7.49-3.11-.32-.49-1.02-.73-1.56-1.06-3.03-1.85-5.04-4.75-7.23-7.4-1.98-2.43-1.68-2.98,.41-5.32,1.89-2.14,4.06-3.88,7.03-5.28,.71,3.63,2.3,6.21,4.96,8.2,5.13,3.84,10.49,3.72,15.95,1.02,3.71-1.84,6.35-5.09,9.53-7.65,4.63-3.72,7.48-9.05,11.84-13.05,1.42-1.3,2.16-3.1,1.91-5.17-.09-.73-.17-1.54,.07-2.21,.89-2.59-.28-5.03-1.52-6.76-2.41-3.35-5.2-6.39-9.92-7.12-5.49-.86-9.86,.9-13.87,4.22-1.44,1.2-2.95,2.33-4.06,3.94-.82,1.19-2.2,1.57-3.69,1.14-2.83-.82-5.68-1.57-8.69-1.19-.64,.08-1.31-.22-1.57-.79-.25-.53,.2-.99,.62-1.34,1.32-1.07,2.13-2.59,3.28-3.8,4.37-4.54,8.85-8.92,14.9-11.26,1.55-.6,2.83-1.76,4.5-2.22,6.82-1.93,12.82,.22,18.62,3.51,3.47,1.95,5.69,5.06,7.95,8.24,1.79,2.49,3.71,4.86,4.39,7.87,.64,2.73,1.39,5.5,.36,8.36Z"/><g><path class="cls-2" d="M143.55,75.43c-.67-2.24,.2-4.63-.94-6.8-.13-.24,.22-.75,.38-1.14,1.22-2.96,.57-5.82-.69-8.58-.28-.58-.44-1.06-.48-1.72-.11-1.98-1.87-3.78-.67-5.94,.03-.07-.04-.22-.11-.29-1.63-1.64-1.46-4.05-2.61-5.95-2.3-3.82-3.57-8.18-5.74-12.12-1.01-1.85-1.88-3.52-3.57-4.82-2.3-1.77-3.41-4.74-6.03-6.22-.29-2.32-2.51-2.91-3.89-4.25-.25-.25-.74-.28-.95-.7-1.59-3.22-5.57-3.55-7.56-6.29-3-.62-5.12-2.7-7.44-4.47-.7,.34-1.26,.19-1.65-.5-2.7-1.39-5.41-2.65-8.51-2.94-2.17-.21-4.38-.33-6.34-1.57-.83-.54-1.84-.24-2.78-.11-1.57,.2-3.27,.53-4.67-.17-2.88-1.46-5.82-.61-8.73-.64-2.83-.01-5.61,.65-8.4,.78-2.43,.13-4.7,.98-6.83,1.65-2.29,.73-4.66,.99-6.92,1.42-2.12,.4-3.82,1.19-5.49,2.32-.42,.29-.73,.77-1.28,.83-3.98,.41-6.56,3.41-9.42,5.6-3.07,2.36-5.77,5.23-9.17,7.21,.13,.95-.62,1.34-1.19,1.84-.65,.66-1.3,1.31-1.93,1.97-.15,.28-.29,.56-.44,.82-1.22,2.87-3.3,5.16-5.21,7.54-1.77,2.21-3.86,4.3-4.79,6.97-1.15,3.28-2.26,6.47-5.04,8.77-.4,.6-.24,1.47-.99,1.88-.53,1.19-.46,2.32-.01,3.56,.2,.57,.66,1.44,.05,2.08-1.75,1.81-2.09,4.3-3.14,6.44-.2,.38-.91,.66-.21,1.24,1.15,.94,.71,2.29,.79,3.49,.17,2.77-.6,5.61,.65,8.32,.29,.62,.41,1.52,.21,2.17-1.07,3.51,1.63,7,.04,10.51-.12,.25,.19,.86,.46,1.1,1.64,1.48,1.12,4.05,2.82,5.5,.25,.21,.3,.79,.26,1.19-.22,2.26,1.1,4.01,2,5.88,.26,.57,.4,.9-.09,1.31-.04,.22-.08,.45-.12,.66,.69,.79,1.38,1.59,2.06,2.38,.58-.03,.67,.29,.56,.78,1.15,2.94,3.53,5.05,5.21,7.65,.65,.99-.38,1.79,.57,2.65,2.24,2.01,3.61,4.92,6.46,6.37,.44,.21,1.01,.67,1.07,1.09,.19,1.35,1.31,1.76,2.12,2.54,1.84,1.8,4.68,2.25,6.23,4.09,2.83,3.36,7.13,3.76,10.52,5.95,1.57,1.02,3.82,1.16,5.53,2.4,.64,.46,1.44,.71,2.3,.86,2.18,.34,4.45,.6,6.43,1.44,2.12,.9,4.29,1.1,6.44,1.27,2.91,.22,5.82,.28,8.67,1.05,.6,.17,1.27,.28,1.83-.19,.77-.64,1.59-.46,2.4-.16,.71,.28,1.4,.26,2.16,.24,4.47-.17,8.89-.77,13.34-1.24,1.6-.17,2.87-.54,4.19-1.63,1.73-1.43,3.59-3.31,6.18-2.5,1.51,.46,2.45-.01,3.33-1.01,1.96-2.22,4.79-3.27,7.33-4.14,1.93-.66,3.14-1.55,4.49-2.86,1.1-1.06,2.12-2.42,3.68-2.88,.65-.19,1.19-.36,1.6-.87,2.53-3.12,4.91-6.38,7.64-9.33,3.81-4.12,5.4-9.4,7.93-14.19,.9-1.71,1.01-4.12,2.3-5.28,2.13-1.92,2.28-4.02,2.14-6.44-.12-2.14,.45-4.17,1.12-6.15,1.07-3.2,1.52-6.47,.54-9.73Zm-66.06,29.88c-2.34,1.76-4.23,4.06-6.3,6.11-3.63,3.63-7.87,6.07-12.7,7.23-3.19,.75-6.55,.79-9.91,.5-7.03-.6-11.49-4.83-15.63-9.92-4.86-5.94-5.52-12.86-5.35-20.07,.03-1.52,.75-2.73,1.38-4.08,1.97-4.25,6.1-6.83,8.11-10.98,4.21-2.85,6.18-7.99,10.81-10.44,1.85-.98,3.1-2.82,4.49-4.3,3.61-3.85,8.05-5.41,13.03-6.19,4.33-.69,8.39,.32,12.35,1.71,1.8,.64,3.65,1.88,4.84,3.36,2.46,3.02,5.25,5.72,7.82,8.61,.5,.57,1.05,1.02,.26,1.84-2.21,2.34-4.34,4.76-6.55,7.11-.64,.67-1.27,.45-1.85-.24-1.22-1.47-2.09-3.16-3.12-4.74-2.75-4.25-6.92-5.64-11.51-6.25-1.96-.25-4-.28-5.9,.53-.58,.24-1.35,.37-1.68,.82-1.92,2.55-5.31,3.51-6.89,6.39-.33,.61-.81,.93-1.46,1.09-.75,.2-1.28,.78-1.72,1.35-3.63,4.68-7.89,8.88-11.04,13.93-1.28,2.04-1.28,4.43-1.98,6.63,1.59,3.1,1.5,7,4.62,9.4,3.9,2.98,8.11,4.8,13.17,4.37,2-.17,3.45-1.5,5.15-2.25,2.13-.95,4.31-2.3,5.62-4.46,.52-.87,1.54-1.11,2.02-1.95,.4-.66,.95-.64,1.64-.44,3.77,1.06,7.66,1.22,12.15,1.35-1.52,1.65-2.49,2.95-3.86,3.98Zm42.28-48.88c-.36,.98-.5,2.04-.61,3.08-.13,1.3-.56,2.33-1.43,3.37-1.34,1.57-1.8,3.76-3.18,5.39-.69,.79-1.18,1.91-2.02,2.41-2.24,1.31-3.73,3.43-5.2,5.32-2.74,3.52-6.38,6.13-9.05,9.61-3.15,4.12-7.42,6.4-12.11,7.97-3.51,1.18-7.21,1.48-10.92,1.2-.73-.04-1.44-.11-2.18-.13-2.86-.13-5.69-.32-7.49-3.11-.32-.49-1.02-.73-1.56-1.06-3.03-1.85-5.04-4.75-7.23-7.4-1.98-2.43-1.68-2.98,.41-5.32,1.89-2.14,4.06-3.88,7.03-5.28,.71,3.63,2.3,6.21,4.96,8.2,5.13,3.84,10.49,3.72,15.95,1.02,3.71-1.84,6.35-5.09,9.53-7.65,4.63-3.72,7.48-9.05,11.84-13.05,1.42-1.3,2.16-3.1,1.91-5.17-.09-.73-.17-1.54,.07-2.21,.89-2.59-.28-5.03-1.52-6.76-2.41-3.35-5.2-6.39-9.92-7.12-5.49-.86-9.86,.9-13.87,4.22-1.44,1.2-2.95,2.33-4.06,3.94-.82,1.19-2.2,1.57-3.69,1.14-2.83-.82-5.68-1.57-8.69-1.19-.64,.08-1.31-.22-1.57-.79-.25-.53,.2-.99,.62-1.34,1.32-1.07,2.13-2.59,3.28-3.8,4.37-4.54,8.85-8.92,14.9-11.26,1.55-.6,2.83-1.76,4.5-2.22,6.82-1.93,12.82,.22,18.62,3.51,3.47,1.95,5.69,5.06,7.95,8.24,1.79,2.49,3.71,4.86,4.39,7.87,.64,2.73,1.39,5.5,.36,8.36Z"/><path class="cls-1" d="M90.69,68.69c-2.21,2.34-4.34,4.76-6.55,7.11-.64,.67-1.27,.45-1.85-.24-1.22-1.47-2.09-3.16-3.12-4.74-2.75-4.25-6.92-5.64-11.51-6.25-1.96-.25-4-.28-5.9,.53-.58,.24-1.35,.37-1.68,.82-1.92,2.55-5.31,3.51-6.89,6.39-.33,.61-.81,.93-1.46,1.09-.75,.2-1.28,.78-1.72,1.35-3.63,4.68-7.89,8.88-11.04,13.93-1.28,2.04-1.28,4.43-1.98,6.63,1.59,3.1,1.5,7,4.62,9.4,3.9,2.98,8.11,4.8,13.17,4.37,2-.17,3.45-1.5,5.15-2.25,2.13-.95,4.31-2.3,5.62-4.46,.52-.87,1.54-1.11,2.02-1.95,.4-.66,.95-.64,1.64-.44,3.77,1.06,7.66,1.22,12.15,1.35-1.52,1.65-2.49,2.95-3.86,3.98-2.34,1.76-4.23,4.06-6.3,6.11-3.63,3.63-7.87,6.07-12.7,7.23-3.19,.75-6.55,.79-9.91,.5-7.03-.6-11.49-4.83-15.63-9.92-4.86-5.94-5.52-12.86-5.35-20.07,.03-1.52,.75-2.73,1.38-4.08,1.97-4.25,6.1-6.83,8.11-10.98,4.21-2.85,6.18-7.99,10.81-10.44,1.85-.98,3.1-2.82,4.49-4.3,3.61-3.85,8.05-5.41,13.03-6.19,4.33-.69,8.39,.32,12.35,1.71,1.8,.64,3.65,1.88,4.84,3.36,2.46,3.02,5.25,5.72,7.82,8.61,.5,.57,1.05,1.02,.26,1.84Z"/><path class="cls-1" d="M119.77,56.43c-.36,.98-.5,2.04-.61,3.08-.13,1.3-.56,2.33-1.43,3.37-1.34,1.57-1.8,3.76-3.18,5.39-.69,.79-1.18,1.91-2.02,2.41-2.24,1.31-3.73,3.43-5.2,5.32-2.74,3.52-6.38,6.13-9.05,9.61-3.15,4.12-7.42,6.4-12.11,7.97-3.51,1.18-7.21,1.48-10.92,1.2-.73-.04-1.44-.11-2.18-.13-2.86-.13-5.69-.32-7.49-3.11-.32-.49-1.02-.73-1.56-1.06-3.03-1.85-5.04-4.75-7.23-7.4-1.98-2.43-1.68-2.98,.41-5.32,1.89-2.14,4.06-3.88,7.03-5.28,.71,3.63,2.3,6.21,4.96,8.2,5.13,3.84,10.49,3.72,15.95,1.02,3.71-1.84,6.35-5.09,9.53-7.65,4.63-3.72,7.48-9.05,11.84-13.05,1.42-1.3,2.16-3.1,1.91-5.17-.09-.73-.17-1.54,.07-2.21,.89-2.59-.28-5.03-1.52-6.76-2.41-3.35-5.2-6.39-9.92-7.12-5.49-.86-9.86,.9-13.87,4.22-1.44,1.2-2.95,2.33-4.06,3.94-.82,1.19-2.2,1.57-3.69,1.14-2.83-.82-5.68-1.57-8.69-1.19-.64,.08-1.31-.22-1.57-.79-.25-.53,.2-.99,.62-1.34,1.32-1.07,2.13-2.59,3.28-3.8,4.37-4.54,8.85-8.92,14.9-11.26,1.55-.6,2.83-1.76,4.5-2.22,6.82-1.93,12.82,.22,18.62,3.51,3.47,1.95,5.69,5.06,7.95,8.24,1.79,2.49,3.71,4.86,4.39,7.87,.64,2.73,1.39,5.5,.36,8.36Z"/></g></svg>