<?xml version="1.0" encoding="UTF-8"?><svg id="Layer_1" xmlns="http://www.w3.org/2000/svg" viewBox="0 0 143.93 143.94"><defs><style>.cls-1{fill:#fff;}.cls-2{fill:#06c;}</style></defs><path class="cls-2" d="M143.91,80.45c-.01-1.55,.15-3.01-.36-4.62-.69-2.22-.66-4.69-.86-7.06-.04-.49,.09-1.18,.41-1.47,1.02-.89,.73-1.79,.24-2.74-.24-.45-.66-.83-.48-1.42,.91-2.83-1.19-5.06-1.67-7.61-.19-1.01-1.06-1.77-.38-3.02,.81-1.5-1.06-2.3-1.18-3.61-.23-2.45-1.62-4.5-2.67-6.57-1.62-3.14-2.58-6.54-4.41-9.61-.97-1.63-1.72-3.23-3.31-4.36-2.49-1.76-4.4-4.24-6.09-6.58-1.87-2.58-4.29-4.5-6.58-6.37-2.58-2.11-5.28-4.32-8.59-5.53-2.54-.95-4.38-3.24-7-4.33-2.71-1.13-5.32-2.38-8.3-2.67-1.97-.2-3.96-.34-5.73-1.47-.81-.52-1.81-.42-2.78-.25-2.11,.37-4.17,.29-6.18-.6-.64-.29-1.32-.62-2.12-.54-6.06,.62-12.22,.32-18.18,2.29-2.38,.79-4.97,1.38-7.57,1.67-1.64,.2-3.52-.05-4.99,1.09-1.81,1.43-3.68,2.71-6.13,2.73-.25,0-.5,.33-.75,.49-2.77,1.83-5.27,3.99-7.9,5.94-2.41,1.76-3.93,4.36-6.62,5.91-1.4,.81-3.16,2.07-3.95,3.71-2.22,4.67-6.21,8.1-8.61,12.64-.75,1.43-1.77,2.56-2.17,4.32-.42,1.95-1.84,3.76-3.09,5.44-1.69,2.3-3.42,4.44-2.25,7.59,.32,.85,.04,1.81-.68,2.63-1.92,2.17-2.89,4.71-2.53,7.65,.36,.41,.3,.83,.04,1.27,.12,.42,.3,.86-.04,1.27C1.15,67.35,.44,67.53,0,67.79c.66,.29,.71,.79,.46,1.39,.34,1.07,.72,2.13-.05,3.18,.12,1.05,.57,1.99,.73,3.03,.44,2.81,.2,5.71,1.11,8.43,.34,.4,.53,.79,.11,1.26-.3,3.23,.37,6.26,2.17,8.95,.81,1.2,.3,2-.05,3.1-.36,1.06,2.07,1.2,1.28,2.82-.41,.87,.46,1.23,1.03,1.66,.53-.09,.73,.12,.61,.64,.13,2.5,1.96,4.21,2.97,6.3,1.14,2.33,3.8,3.63,4.48,6.25,.74,2.9,2.65,5.19,4.61,7.06,2.54,2.41,5,5.03,7.98,6.95,1.26,.82,2.71,1.28,3.64,2.61,.83,1.17,2.03,1.73,3.42,2.28,1.43,.56,3.07,.69,4.34,1.79,1.36,1.19,3.06,1.8,4.83,2.17,1.02,.2,2.03,.42,2.98,.94,4.77,2.57,9.98,3.56,15.28,4.34,1.34,.2,2.65-.03,4.04,.29,3.69,.87,7.53,.66,11.31,.71,4.59,.07,9.14-.78,13.7-1.24,1.47-.16,2.63-.42,3.92-1.46,1.79-1.44,3.71-3.52,6.43-2.65,1.51,.48,2.44-.03,3.32-1.01,1.97-2.21,4.79-3.28,7.34-4.14,1.92-.64,3.26-1.47,4.53-2.82,.87-.9,1.69-2.17,2.78-2.53,3.2-1.05,4.34-4.05,6.42-6.17,.5-.52,.81-1.22,1.27-1.79,3.01-3.73,6.78-6.96,7.71-12.02,2.95-3.56,3.34-8.53,6.54-11.97,.32-.34,.29-.99,.44-1.5-.11-.56,.2-.94,.57-1.28-.38-1.36-.57-2.6-.26-4.14,.58-2.94,1.96-5.71,1.93-8.77ZM97.38,29.58c-.69,2.08,.17,4.24-.81,6.21-.48,.97,.41,1.8,.52,2.74,.19,1.76-.2,2.36-1.93,2.57-1.26,.16-2.56,.28-3.8,.15-4.29-.45-7.71,1.73-10.53,4.26-1.83,1.66-2.75,4.77-2.36,7.44,.34,2.33,.3,4.54,.09,6.83-.24,2.61,.78,3.51,3.36,2.87,1.52-.37,2.89-.3,4.34,.07,.81,.2,1.79,.33,2.5,.04,2.22-.9,4.08,.05,6.1,.69,1.15,.36,1.64,.87,1.59,1.93-.2,4.42-.23,8.87-2.2,13-.23,.46-.38,.98-.53,1.48-.73,2.62-.73,2.49-3.35,2.71-3.26,.28-6.5,.69-9.77,.68-1.35,0-2.09,.7-1.87,1.93,.72,3.89-.75,7.69-.23,11.63,.46,3.51,.01,7.15-.24,10.72-.11,1.58-.41,3.19-.15,4.73,.7,4.06-.25,8.18,.53,12.25,.45,2.34-.57,3.15-2.94,3.28-3.65,.2-7.31-.19-10.99,.28-4.04,.53-6.98-3.11-6.22-7.2,.11-.62,.32-1.26,.26-1.87-.66-7.57,.17-15.12,.2-22.69,.01-3.99-.12-7.97,.34-11.96,.13-1.1-.45-1.95-1.71-1.63-3.85,.95-7.68-.57-11.56-.08-1.99,.25-2.83-1.02-3.12-3.12-.52-3.75-.89-7.47-.08-11.25,.97-4.57,1.11-4.81,5.63-5.53,.62-.11,1.24-.32,1.87-.34,1.27-.07,2.53-.03,3.8-.03v-.11c.64,0,1.27-.04,1.91,0,3.71,.2,3.89,.17,3.91-3.38,.03-5.53,.72-11.08-.3-16.6-.25-1.36,.4-2.52,.89-3.63,.87-2,2.07-3.85,3.03-5.81,.61-1.22,1.34-2.15,2.82-2.18,.2,0,.42-.11,.58-.23,3.32-2.78,7.61-3.23,11.44-4.78,1.92-.77,3.84-1.13,5.71-.09,.98,.53,2,.33,2.75,.09,2.81-.91,5.4,.08,8.04,.61,2.04,.4,3.06,1.55,2.46,3.32Z"/><path class="cls-1" d="M97.38,29.58c-.69,2.08,.17,4.24-.81,6.21-.48,.97,.41,1.8,.52,2.74,.19,1.76-.2,2.36-1.93,2.57-1.26,.16-2.56,.28-3.8,.15-4.29-.45-7.71,1.73-10.53,4.26-1.83,1.66-2.75,4.77-2.36,7.44,.34,2.33,.3,4.54,.09,6.83-.24,2.61,.78,3.51,3.36,2.87,1.52-.37,2.89-.3,4.34,.07,.81,.2,1.79,.33,2.5,.04,2.22-.9,4.08,.05,6.1,.69,1.15,.36,1.64,.87,1.59,1.93-.2,4.42-.23,8.87-2.2,13-.23,.46-.38,.98-.53,1.48-.73,2.62-.73,2.49-3.35,2.71-3.26,.28-6.5,.69-9.77,.68-1.35,0-2.09,.7-1.87,1.93,.72,3.89-.75,7.69-.23,11.63,.46,3.51,.01,7.15-.24,10.72-.11,1.58-.41,3.19-.15,4.73,.7,4.06-.25,8.18,.53,12.25,.45,2.34-.57,3.15-2.94,3.28-3.65,.2-7.31-.19-10.99,.28-4.04,.53-6.98-3.11-6.22-7.2,.11-.62,.32-1.26,.26-1.87-.66-7.57,.17-15.12,.2-22.69,.01-3.99-.12-7.97,.34-11.96,.13-1.1-.45-1.95-1.71-1.63-3.85,.95-7.68-.57-11.56-.08-1.99,.25-2.83-1.02-3.12-3.12-.52-3.75-.89-7.47-.08-11.25,.97-4.57,1.11-4.81,5.63-5.53,.62-.11,1.24-.32,1.87-.34,1.27-.07,2.53-.03,3.8-.03v-.11c.64,0,1.27-.04,1.91,0,3.71,.2,3.89,.17,3.91-3.38,.03-5.53,.72-11.08-.3-16.6-.25-1.36,.4-2.52,.89-3.63,.87-2,2.07-3.85,3.03-5.81,.61-1.22,1.34-2.15,2.82-2.18,.2,0,.42-.11,.58-.23,3.32-2.78,7.61-3.23,11.44-4.78,1.92-.77,3.84-1.13,5.71-.09,.98,.53,2,.33,2.75,.09,2.81-.91,5.4,.08,8.04,.61,2.04,.4,3.06,1.55,2.46,3.32Z"/></svg>