<?xml version="1.0" encoding="UTF-8"?><svg id="Layer_1" xmlns="http://www.w3.org/2000/svg" viewBox="0 0 143.93 143.94"><defs><style>.cls-1{fill:#fff;}.cls-2{fill:#39f;}</style></defs><path class="cls-2" d="M143.98,80.38c-.01-1.55,.16-3.01-.34-4.63-.7-2.23-.66-4.69-.86-7.06-.05-.49,.08-1.18,.41-1.47,1.02-.89,.72-1.79,.23-2.73-.23-.46-.66-.85-.48-1.43,.91-2.84-1.18-5.06-1.66-7.62-.2-1.01-1.06-1.79-.4-3.02,.81-1.5-1.06-2.31-1.18-3.62-.21-2.45-1.62-4.51-2.68-6.57-1.6-3.14-2.58-6.55-4.41-9.62-.97-1.63-1.82-3.14-3.29-4.4-1.3-1.14-2.6-2.31-3.66-3.79-1.23-1.71-2.62-3.47-4.24-4.82-2.66-2.25-5.06-4.78-8.1-6.71-2.2-1.39-4.68-2.29-6.67-3.88-1.87-1.48-3.78-2.82-5.95-3.68-1.75-.69-3.26-2.03-5.21-2.12-5-.2-9.65-3.01-14.81-2-.74,.13-1.42-.34-2.11-.62-1.27-.48-2.54-.64-3.98-.52-3.95,.33-7.89,.4-11.84,.9-2.51,.32-4.76,1.38-7.25,1.67-1.33,.17-2.76,.65-4.19,.87-2.09,.36-4.37,.33-6.22,1.47-1.95,1.22-3.71,2.66-6.16,2.68-.25,0-.5,.32-.76,.49-2.76,1.83-5.28,3.99-7.93,5.95-2.4,1.76-3.94,4.36-6.63,5.91-1.4,.81-3.15,2.08-3.94,3.71-2.23,4.68-6.23,8.11-8.63,12.66-.76,1.43-1.82,2.53-2.16,4.32-.36,1.87-1.66,3.66-2.88,5.22-1.82,2.36-3.61,4.55-2.47,7.82,.29,.86,.04,1.82-.69,2.64C.97,58.53,0,61.08,.35,64.02c.36,.41,.32,.85,.04,1.29,.12,.42,.3,.85-.04,1.26,.72,.7,.01,.87-.42,1.14,.66,.3,.72,.8,.45,1.4,.36,1.06,.73,2.13-.04,3.18,.11,1.03,.57,1.97,.73,3.02,.42,2.81,.19,5.71,1.1,8.46,.34,.38,.53,.8,.11,1.25-.29,3.23,.38,6.28,2.17,8.96,.81,1.21,.3,2-.05,3.1-.34,1.06,2.08,1.22,1.3,2.84-.42,.86,.46,1.23,1.03,1.64,.53-.09,.72,.13,.6,.64-.09,2.49,1.97,3.99,2.77,6.08,.85,2.16,3.26,3.21,4.19,5.35,.42,1.03,.54,2.21,1.09,3.15,1.52,2.57,9.73,10.59,12.19,12.26,.85,.6,2.07,.29,2.7,1.4,1.05,1.82,2.7,2.88,4.71,3.49,.56,.16,1.27,.23,1.6,.87,.28,.13,.54,.25,.82,.38,.42-.15,.8-.12,1.19,.15,.91,.64,1.82,1.55,2.84,1.75,2.21,.45,4.16,1.48,6.11,2.45,1.48,.74,2.86,1.46,4.6,1.42,1.56-.03,3.09,.29,4.39,1.31,.58,.45,1.26,.73,2.05,.62,5.35-.66,10.6,1.79,16,.6,2.56,1.06,5.16-.17,7.75,.19,2.84,.37,5.53-1.13,8.35-.98,1.56,.07,2.66-.44,3.95-1.38,2.19-1.62,4.36-3.88,7.62-2.49,.68,.29,1.26-.2,1.66-.66,1.9-2.19,4.8-2.72,6.99-4.4,.54-.41,1.1-.8,1.72-.61,1.33,.41,1.91-.56,2.65-1.26,1.44-1.38,2.66-3.29,4.39-3.99,1.72-.72,2.72-1.86,3.76-3.11,1.21-1.44,2.24-3.05,3.45-4.48,3.18-3.75,6.87-7.14,7.9-12.26,2.97-3.57,3.33-8.54,6.55-11.97,.3-.34,.29-.99,.42-1.5-.09-.56,.21-.93,.57-1.29-.37-1.37-.57-2.58-.27-4.15,.58-2.94,1.96-5.71,1.94-8.77Zm-27.01-34c-.44,3.15-1.59,6.23-4.11,7.97-3.63,2.51-3.88,6.03-4.25,9.73-.24,2.39-.03,4.84-.76,7.17-1.23,3.94-2.01,8.03-4.56,11.45-.3,.41-.56,.94-.62,1.44-.46,3-3.09,4.84-3.95,7.61-2.82,1.46-3.87,5.02-7.17,5.98-1.07,.32-2.17,1.02-2.94,1.86-2.31,2.53-5.55,3.65-8.27,5.54-1.5,1.05-3.51,1.56-5.35,1.8-2.86,.36-5.45,1.66-8.27,2.04-3.9,.53-7.71,1.86-11.74,1.02-.82-.17-1.75-.24-2.53-.01-3.72,1.01-7.02-.53-10.46-1.46-2.13-.57-4.2-1.3-6.28-2-1.9-.64-3.23-1.71-4.61-2.94,.13-.2,.24-.49,.33-.49,6.2,.29,11.58-2.2,16.89-4.97,.78-.41,1.64-.37,2.43-.64,1.15-.4,2.48-.65,3.14-1.92-.46-.77-1.33-.58-1.96-.77-6-1.83-9.57-6.4-12.9-11.27-.65-.94-.33-1.63,.86-1.64,1.15-.01,2.31,.24,3.46,.29,1.14,.05,2.24,.62,3.76,.16-1.67-1.09-3.21-1.96-4.56-3.04-2.69-2.13-5.53-4.07-7.66-6.85-1.39-1.83-1.97-3.84-2.16-6-.12-1.55,.66-2.12,2.23-1.62,1.44,.46,2.82,.52,4.43,.4-.76-2.54-2.97-3.84-4-6.02-1.26-2.62-2.16-5.41-3.66-7.97-.73-1.26-.38-3.47,.21-5.2,.45-1.29,1.01-2.54,1.59-3.78,.61-1.27,1.7-1.54,2.43-.49,1.94,2.77,5.1,4.02,7.45,6.27,2.97,2.85,6.77,4.57,10.15,6.88,2.93,2,6.24,3.74,10.06,4.12,2.05,.2,4.02,1.19,6.14,1.44,1.86,.23,2.33,.12,2.19-1.56-.4-4.53,1.83-8.3,3.37-12.23,.76-1.96,2.78-3.1,4.41-4.44,.81-.65,1.83-.98,2.11-2.23,.15-.65,4.6-2.31,5.5-2.21,1.63,.16,3.23,.23,4.92,.08,2.37-.2,4.65,.98,6.81,2.16,1.88,1.03,3.74,2.29,6.08,2.23,2.51-.08,4.6-1.34,6.83-2.19,.49-.19,.85-.65,1.33-.87,.54-.25,1.09-.76,1.75-.27,.65,.49,.36,1.07,.21,1.71-.36,1.59-1.17,2.96-1.97,4.31-.28,.45-.56,.9-.81,1.35h.01c.32,.08,.61,.15,.91,.23,.73-.44,1.46-.87,2.19-1.29,.37-.2,.8-.36,1.17-.04,.36,.32,.29,.73,.24,1.17Z"/><path class="cls-1" d="M116.97,46.38c-.44,3.15-1.59,6.23-4.11,7.97-3.63,2.51-3.88,6.03-4.25,9.73-.24,2.39-.03,4.84-.76,7.17-1.23,3.94-2.01,8.03-4.56,11.45-.3,.41-.56,.94-.62,1.44-.46,3-3.09,4.84-3.95,7.61-2.82,1.46-3.87,5.02-7.17,5.98-1.07,.32-2.17,1.02-2.94,1.86-2.31,2.53-5.55,3.65-8.27,5.54-1.5,1.05-3.51,1.56-5.35,1.8-2.86,.36-5.45,1.66-8.27,2.04-3.9,.53-7.71,1.86-11.74,1.02-.82-.17-1.75-.24-2.53-.01-3.72,1.01-7.02-.53-10.46-1.46-2.13-.57-4.2-1.3-6.28-2-1.9-.64-3.23-1.71-4.61-2.94,.13-.2,.24-.49,.33-.49,6.2,.29,11.58-2.2,16.89-4.97,.78-.41,1.64-.37,2.43-.64,1.15-.4,2.48-.65,3.14-1.92-.46-.77-1.33-.58-1.96-.77-6-1.83-9.57-6.4-12.9-11.27-.65-.94-.33-1.63,.86-1.64,1.15-.01,2.31,.24,3.46,.29,1.14,.05,2.24,.62,3.76,.16-1.67-1.09-3.21-1.96-4.56-3.04-2.69-2.13-5.53-4.07-7.66-6.85-1.39-1.83-1.97-3.84-2.16-6-.12-1.55,.66-2.12,2.23-1.62,1.44,.46,2.82,.52,4.43,.4-.76-2.54-2.97-3.84-4-6.02-1.26-2.62-2.16-5.41-3.66-7.97-.73-1.26-.38-3.47,.21-5.2,.45-1.29,1.01-2.54,1.59-3.78,.61-1.27,1.7-1.54,2.43-.49,1.94,2.77,5.1,4.02,7.45,6.27,2.97,2.85,6.77,4.57,10.15,6.88,2.93,2,6.24,3.74,10.06,4.12,2.05,.2,4.02,1.19,6.14,1.44,1.86,.23,2.33,.12,2.19-1.56-.4-4.53,1.83-8.3,3.37-12.23,.76-1.96,2.78-3.1,4.41-4.44,.81-.65,1.83-.98,2.11-2.23,.15-.65,4.6-2.31,5.5-2.21,1.63,.16,3.23,.23,4.92,.08,2.37-.2,4.65,.98,6.81,2.16,1.88,1.03,3.74,2.29,6.08,2.23,2.51-.08,4.6-1.34,6.83-2.19,.49-.19,.85-.65,1.33-.87,.54-.25,1.09-.76,1.75-.27,.65,.49,.36,1.07,.21,1.71-.36,1.59-1.17,2.96-1.97,4.31-.28,.45-.56,.9-.81,1.35h.01c.32,.08,.61,.15,.91,.23,.73-.44,1.46-.87,2.19-1.29,.37-.2,.8-.36,1.17-.04,.36,.32,.29,.73,.24,1.17Z"/></svg>