<?xml version="1.0" encoding="UTF-8"?><svg id="Layer_1" xmlns="http://www.w3.org/2000/svg" xmlns:xlink="http://www.w3.org/1999/xlink" viewBox="0 0 143.93 143.94"><defs><style>.cls-1{fill:url(#linear-gradient-2);}.cls-2{fill:#fff;}.cls-3{fill:url(#linear-gradient-3);}.cls-4{fill:url(#linear-gradient);}</style><linearGradient id="linear-gradient" x1="-16.49" y1="166.51" x2="164.62" y2="-23.43" gradientTransform="matrix(1, 0, 0, 1, 0, 0)" gradientUnits="userSpaceOnUse"><stop offset="0" stop-color="#fdc100"/><stop offset=".08" stop-color="#fdbe01"/><stop offset=".14" stop-color="#fdb406"/><stop offset=".19" stop-color="#fda40f"/><stop offset=".24" stop-color="#fd8e1b"/><stop offset=".29" stop-color="#fd712a"/><stop offset=".33" stop-color="#fd4e3e"/><stop offset=".37" stop-color="#fd2454"/><stop offset=".39" stop-color="#fe135e"/><stop offset=".82" stop-color="#af0ae4"/></linearGradient><linearGradient id="linear-gradient-2" x1="-14.93" y1="165.13" x2="166.19" y2="-24.81" gradientTransform="matrix(1, 0, 0, 1, 0, 0)" gradientUnits="userSpaceOnUse"><stop offset="0" stop-color="#fdc100"/><stop offset=".51" stop-color="#fe135e"/><stop offset="1" stop-color="#af0ae4"/></linearGradient><linearGradient id="linear-gradient-3" x1="-15.12" y1="164.98" x2="166.02" y2="-25" xlink:href="#linear-gradient-2"/></defs><path class="cls-4" d="M143.34,74.93c-.32-.61-.28-1.45-.22-2.18,.17-2.37-1.49-4.9,.61-7.11,.05-.05,0-.21-.01-.3-.41-3.36-1.22-6.61-2.41-9.76-.44-1.11-1-2.09-.38-3.27,.21-.4,.34-.86,.05-1.2-1.28-1.48-1.24-3.52-2.12-5.13-1.8-3.31-3.05-6.85-4.73-10.18-1.14-2.27-1.77-4.94-3.79-6.69-3.11-2.67-5.41-6.12-8.3-8.87-2.37-2.25-4.53-4.89-7.63-6.6-2.58-1.44-5.05-3.23-7.69-4.67-1.07-.58-1.94-1.56-2.91-2.35-.75-.3-1.77,.15-2.25-.85-2.63-1.28-5.21-2.64-8.22-2.92-2.27-.2-4.61-.3-6.66-1.61-.4-.26-1.04-.32-1.53-.22-2.86,.54-5.62,.38-8.28-.9-.53-.25-1.02-.04-1.53-.03-2.9,.09-5.78,.25-8.67,.38-2.35,.09-4.97,.21-7.09,1.03-3.6,1.41-7.32,2.08-11,2.72-2.25,.4-4.03,1.19-5.79,2.41-.33,.24-.66,.63-1.02,.66-3.93,.3-6.39,3.34-9.23,5.38-3.05,2.19-5.57,5.18-8.94,7.07-.59,.34-1.14,.99-1.44,1.63-.5,1.1-1.28,1.88-2.21,2.58-.15,.28-.29,.54-.44,.82-1.07,2.58-2.7,4.88-4.61,6.82-3.52,3.57-5.42,8.01-7.39,12.44-.46,1.06-.69,1.98-1.73,2.75-2.21,1.64-3.24,3.81-2.29,6.68,.2,.58,.66,1.45,.05,2.08-1.76,1.82-2.09,4.31-3.15,6.45-.19,.38-.91,.66-.21,1.24,1.15,.94,.73,2.29,.79,3.49,.19,2.76-.59,5.59,.66,8.3,.29,.63,.41,1.52,.21,2.17-1.08,3.52,1.63,6.99,.03,10.51-.11,.25,.19,.85,.46,1.1,1.64,1.48,1.12,4.05,2.83,5.5,.25,.21,.29,.79,.25,1.19-.21,2.26,1.11,4.01,2,5.87,.28,.57,.4,.9-.09,1.31-.04,.22-.07,.44-.11,.66,.69,.79,1.38,1.59,2.06,2.38,.58-.03,.67,.29,.54,.77,1.15,2.95,3.54,5.06,5.22,7.65,.65,.99-.38,1.78,.56,2.64,2.25,2.01,3.61,4.92,6.46,6.35,.36,.19,.83,.49,.93,.83,.62,2.29,2.59,3.03,4.38,4.05,1.45,.82,3.15,1.56,4.11,2.8,2.7,3.48,7.1,3.78,10.48,5.98,1.57,1.02,3.82,1.16,5.53,2.39,.63,.46,1.44,.71,2.31,.86,2.17,.36,4.43,.61,6.41,1.44,2.12,.89,4.28,1.11,6.44,1.27,2.91,.21,5.82,.3,8.66,1.06,.59,.16,1.27,.29,1.82-.17,.75-.63,1.59-.49,2.39-.17,.71,.28,1.4,.25,2.15,.24,4.57-.12,9.1-.86,13.64-1.27,1.38-.12,2.45-.5,3.61-1.41,1.84-1.43,3.72-3.49,6.44-2.68,1.49,.44,2.38-.05,3.34-.97,1.23-1.18,2.6-2.05,4.2-2.71,3.49-1.43,7.09-2.74,9.49-5.94,.37-.49,.93-1.1,1.45-1.15,1.35-.16,1.82-1.16,2.63-1.98,2.15-2.21,3.86-4.8,5.96-7.07,2.29-2.49,4.31-5.33,5.79-8.51,2.1-4.53,3.42-9.48,6.7-13.43,.41-.5,.33-1.22,.56-1.78,.95-2.3-.11-4.75,.71-7.11,.48-1.38,1.43-2.83,1.39-4.06-.12-2.88,1.23-5.83-.26-8.67Zm-25.91-4.56c-.3,.5-.2,.98-.05,1.51,1.23,4.55,.44,9.16,.48,13.75,.01,2.62-.26,5.2,.16,7.84,.33,2.02,.16,4.34-.53,6.25-1.3,3.62-2.42,7.32-4.53,10.64-4.06,6.36-10.02,8.49-17.23,8.32-1.08-.4-2.23-.16-3.38-.07-3.75,.34-7.47,.44-11.29,.08-3.36-.33-6.89,.5-10.35,.3-3-.16-6.03,.85-8.99-.3-2.31,1.22-4.73,.34-7.11,.45-5.43,.26-10.3-1.86-15.34-3.34-.38-.11-.79-.34-1.07-.65-1.65-1.76-3.46-3.29-5.54-4.55-1.59-.97-1.44-2.96-2.1-4.44-1.49-3.32-3.23-6.62-3.45-10.39-.08-1.34-.46-2.64,.12-4.03,.41-.97,.2-2.13-.16-3.12-.54-1.55-.74-3.04-.11-4.59,.26-.63,.04-1.22-.2-1.82-1.07-2.71-1.07-5.46-.62-8.33,.49-3.15,.89-6.28,.37-9.53-.36-2.21,.37-4.57,.26-6.85-.2-3.83,1.4-7.58,.4-11.45-.37-1.41,.75-2.59,1.19-3.86,.86-2.49,1.08-5.12,3.11-7.35,1.89-2.08,4.18-3.34,6.37-4.81,4.31-2.87,9.37-3.86,14.4-4.39,2.83-.29,5.78-.63,8.7,.2,3.09,.87,6.32,.08,9.41-.2,3.16-.28,6.23,.33,9.32,.17,1.44-.07,2.9,.53,4.28-.49,.4-.29,1.41-.26,1.82,.05,2.76,2.06,5.92,1.04,8.86,1.04,3.93,.01,7.38,1.08,10.64,3.05,.45,.26,.86,.7,1.35,.81,3.9,.81,6.27,3.68,8.02,6.77,1.8,3.13,3.36,6.56,2.91,10.39-.2,1.69-.03,3.45,.2,5.01,.44,3.01-.15,5.99,.45,9.06,.53,2.75,.87,6.04-.77,8.87Z"/><path class="cls-2" d="M117.85,85.63c-.04-4.59,.75-9.2-.48-13.75-.15-.53-.25-1,.05-1.51,1.64-2.83,1.3-6.12,.77-8.87-.59-3.07-.01-6.04-.45-9.06-.22-1.56-.4-3.32-.2-5.01,.45-3.83-1.11-7.26-2.91-10.39-1.76-3.09-4.12-5.96-8.02-6.77-.49-.11-.9-.54-1.35-.81-3.27-1.97-6.72-3.04-10.64-3.05-2.93,0-6.09,1.02-8.86-1.04-.41-.32-1.43-.34-1.82-.05-1.39,1.02-2.84,.42-4.28,.49-3.09,.16-6.16-.45-9.32-.17-3.09,.28-6.32,1.07-9.41,.2-2.92-.83-5.87-.49-8.7-.2-5.02,.53-10.09,1.52-14.4,4.39-2.19,1.47-4.48,2.74-6.37,4.81-2.02,2.23-2.25,4.87-3.11,7.35-.44,1.27-1.56,2.45-1.19,3.86,1,3.87-.59,7.62-.4,11.45,.11,2.27-.62,4.64-.26,6.85,.52,3.25,.12,6.39-.37,9.53-.45,2.87-.45,5.62,.62,8.33,.24,.61,.46,1.19,.2,1.82-.63,1.55-.44,3.04,.11,4.59,.36,.99,.57,2.15,.16,3.12-.58,1.39-.2,2.7-.12,4.03,.22,3.77,1.96,7.07,3.45,10.39,.66,1.48,.52,3.48,2.1,4.44,2.08,1.26,3.89,2.79,5.54,4.55,.28,.3,.69,.54,1.07,.65,5.04,1.48,9.9,3.61,15.34,3.34,2.38-.11,4.8,.77,7.11-.45,2.96,1.15,5.99,.15,8.99,.3,3.46,.2,6.99-.63,10.35-.3,3.82,.36,7.54,.26,11.29-.08,1.15-.09,2.3-.33,3.38,.07,7.21,.17,13.17-1.96,17.23-8.32,2.12-3.32,3.24-7.02,4.53-10.64,.69-1.92,.86-4.23,.53-6.25-.42-2.64-.15-5.22-.16-7.84Zm-7.67,15.16c-1.47,2.67-2.71,5.63-5.92,6.81-.62,.21-1,.69-1.48,1.08-2.78,2.25-6.02,2.84-9.41,1.97-2.09-.54-4.16-.13-6.23-.22-2.76-.12-5.63-.7-8.4,.37-.62,.24-1.48-.01-2.18-.19-2.91-.71-5.76-.03-8.65,.22-.62,.05-1.32,.28-1.88,.11-3.93-1.3-7.85-.62-11.81-.15-2.42,.3-4.76-.4-7.1-1.03-4.71-1.28-7.11-4.93-9.19-8.86-.52-.97-.89-1.98-1.94-2.33-1.84-.59-1.86-2-1.32-3.28,1.23-2.83,.59-5.78,.78-8.66,.21-3.4-.22-6.85,.09-10.22,.15-1.47-.56-2.63-.49-3.99,.08-1.55,1.22-2.74,1.35-4.14,.15-1.37-1.51-2.46-1.22-4.1,.32-1.78,.05-3.56-.32-5.33-.69-3.33-.3-6.77-.01-10.06,.17-2.06,.54-4.65,1.94-6.39,1.56-1.93,3.57-3.54,5.59-5,2.04-1.45,4.16-2.94,6.91-2.66,4.26,.34,8.53,.2,12.78,.54,2.55,.2,5.21-.52,7.84-.3,4.26,.33,8.53,.16,12.78,.21,1.28,.01,2.46-.07,3.7-.45,2.8-.86,5.76-.08,8.62-.53,5.25,2.37,10.8,4.35,13.04,10.5,.61,1.67,1.15,3.38,2.37,4.79,.74,.87,.52,2.01,.36,3.04-.42,2.67-1.18,5.34-.01,8.02,.08,.17,.05,.42-.03,.62-1.1,3.09-.75,6.45-.3,9.43,.56,3.66-1.59,7.23,.17,10.75-.66,4.05,.49,8.04,.32,12.1-.11,2.49,.48,5.04-.77,7.31Z"/><path class="cls-1" d="M110.95,93.48c.17-4.06-.98-8.05-.32-12.1-1.76-3.52,.38-7.09-.17-10.75-.45-2.97-.79-6.33,.3-9.43,.08-.2,.11-.45,.03-.62-1.16-2.68-.41-5.35,.01-8.02,.16-1.03,.38-2.17-.36-3.04-1.22-1.4-1.76-3.12-2.37-4.79-2.23-6.15-7.79-8.13-13.04-10.5-2.86,.45-5.82-.33-8.62,.53-1.24,.38-2.42,.46-3.7,.45-4.26-.05-8.53,.12-12.78-.21-2.63-.21-5.29,.5-7.84,.3-4.26-.34-8.53-.2-12.78-.54-2.75-.28-4.88,1.2-6.91,2.66-2.02,1.45-4.03,3.07-5.59,5-1.4,1.73-1.77,4.32-1.94,6.39-.29,3.29-.67,6.73,.01,10.06,.37,1.77,.63,3.54,.32,5.33-.29,1.64,1.36,2.72,1.22,4.1-.13,1.4-1.27,2.59-1.35,4.14-.07,1.36,.63,2.53,.49,3.99-.32,3.37,.12,6.82-.09,10.22-.19,2.88,.45,5.83-.78,8.66-.54,1.28-.52,2.68,1.32,3.28,1.06,.34,1.43,1.36,1.94,2.33,2.08,3.93,4.48,7.58,9.19,8.86,2.34,.63,4.68,1.34,7.1,1.03,3.95-.48,7.88-1.15,11.81,.15,.56,.17,1.26-.05,1.88-.11,2.88-.25,5.74-.94,8.65-.22,.7,.17,1.56,.42,2.18,.19,2.76-1.07,5.63-.49,8.4-.37,2.06,.09,4.14-.32,6.23,.22,3.4,.87,6.64,.28,9.41-1.97,.48-.4,.86-.87,1.48-1.08,3.21-1.18,4.46-4.14,5.92-6.81,1.24-2.27,.66-4.83,.77-7.31Zm-16.62-8.69c-.93,1.73-2.21,3.64-4.35,4.65-1.64,.78-2.51,2.62-4.01,3.79-4.19,3.25-9.03,4.18-14.04,4.83-3.77,.5-7.24-.44-10.71-1.77-4.42-1.69-6.97-5.14-8.92-9.19-.28-.57-.45-1.19-.9-1.64-2.06-2.14-2.72-4.9-3.5-7.62-.9-3.12-.81-6.27,.29-9.25,1.57-4.35,3.32-8.67,6.89-11.89,1.32-1.19,1.51-2.99,2.86-4.32,1.86-1.88,3.98-2.58,6.28-3.16,1.22-.32,2.39-.37,3.41-1.35,1.16-1.11,2.83-.7,4.24-.57,2.92,.25,5.84,.63,8.73,1.22,2.35,.48,4.36,1.56,6.24,3.31,2.82,2.59,5.14,5.66,8.1,8.08,.69,.57,1.12,1.22,1.31,2.08,.67,3.04,2.75,5.8,1.81,8.49,.36,5.66-1.49,10.13-3.73,14.32Zm3.93-30.63c-3.04-.21-6.24-3.28-6.24-5.95,0-2.17,3.29-5.25,5.54-5.18,2.82,.09,5.74,3.09,5.76,5.91,.03,2.09-3.15,5.35-5.06,5.22Z"/><path class="cls-2" d="M96.25,61.99c-.19-.86-.62-1.51-1.31-2.08-2.96-2.42-5.29-5.49-8.1-8.08-1.88-1.75-3.89-2.83-6.24-3.31-2.88-.58-5.8-.97-8.73-1.22-1.41-.13-3.08-.54-4.24,.57-1.02,.98-2.19,1.03-3.41,1.35-2.3,.58-4.42,1.28-6.28,3.16-1.35,1.34-1.53,3.13-2.86,4.32-3.57,3.21-5.31,7.54-6.89,11.89-1.1,2.99-1.19,6.13-.29,9.25,.78,2.71,1.44,5.47,3.5,7.62,.45,.45,.62,1.07,.9,1.64,1.96,4.05,4.51,7.5,8.92,9.19,3.46,1.34,6.94,2.27,10.71,1.77,5.01-.65,9.85-1.57,14.04-4.83,1.49-1.18,2.37-3.01,4.01-3.79,2.14-1.02,3.42-2.92,4.35-4.65,2.23-4.19,4.09-8.66,3.73-14.32,.94-2.68-1.14-5.45-1.81-8.49Zm-7.65,9.48c-.28,.97-.08,2.08-.05,3.12,.03,1.19-.13,2.45-.74,3.36-2.51,3.72-4.76,7.67-9.37,9.4-1.14,.42-2.19,.56-3.33,.61-3.53-.08-6.81-1.32-10.14-2.25-1.76-.48-2.87-2.21-3.87-3.61-.9-1.23-1.75-2.54-2.64-3.81-2.41-3.37-1.47-6.98-.5-10.54,.62-2.27,2.08-3.95,3.78-5.63,1.92-1.89,4.22-3.21,6.23-4.93,1.02-.87,2.99-.93,4.51-.89,6.04,.15,10.89,2.46,13.7,8.13,.13,.28,.32,.59,.56,.75,2.5,1.55,2.59,3.73,1.89,6.28Z"/><path class="cls-2" d="M103.32,48.94c.03,2.09-3.15,5.35-5.06,5.22-3.04-.21-6.24-3.28-6.24-5.95,0-2.17,3.29-5.25,5.54-5.18,2.82,.09,5.74,3.09,5.76,5.91Z"/><path class="cls-3" d="M88.59,71.47c-.28,.97-.08,2.08-.05,3.12,.03,1.19-.13,2.45-.74,3.36-2.51,3.72-4.76,7.67-9.37,9.4-1.14,.42-2.19,.56-3.33,.61-3.53-.08-6.81-1.32-10.14-2.25-1.76-.48-2.87-2.21-3.87-3.61-.9-1.23-1.75-2.54-2.64-3.81-2.41-3.37-1.47-6.98-.5-10.54,.62-2.27,2.08-3.95,3.78-5.63,1.92-1.89,4.22-3.21,6.23-4.93,1.02-.87,2.99-.93,4.51-.89,6.04,.15,10.89,2.46,13.7,8.13,.13,.28,.32,.59,.56,.75,2.5,1.55,2.59,3.73,1.89,6.28Z"/></svg>