<?xml version="1.0" encoding="UTF-8"?><svg id="Layer_1" xmlns="http://www.w3.org/2000/svg" xmlns:xlink="http://www.w3.org/1999/xlink" viewBox="0 0 60 60"><defs><style>.cls-1{fill:url(#linear-gradient-2);}.cls-2{fill:#fff;}.cls-3{fill:url(#linear-gradient-3);}.cls-4{fill:url(#linear-gradient);}</style><linearGradient id="linear-gradient" x1="-4.37" y1="66.74" x2="66.01" y2="-7.07" gradientUnits="userSpaceOnUse"><stop offset="0" stop-color="#fdc100"/><stop offset=".08" stop-color="#fdbe01"/><stop offset=".14" stop-color="#fdb406"/><stop offset=".19" stop-color="#fda40f"/><stop offset=".24" stop-color="#fd8e1b"/><stop offset=".29" stop-color="#fd712a"/><stop offset=".33" stop-color="#fd4e3e"/><stop offset=".37" stop-color="#fd2454"/><stop offset=".39" stop-color="#fe135e"/><stop offset=".82" stop-color="#af0ae4"/></linearGradient><linearGradient id="linear-gradient-2" x1="-3.77" y1="66.21" x2="66.62" y2="-7.61" gradientUnits="userSpaceOnUse"><stop offset="0" stop-color="#fdc100"/><stop offset=".51" stop-color="#fe135e"/><stop offset="1" stop-color="#af0ae4"/></linearGradient><linearGradient id="linear-gradient-3" x1="-3.84" y1="66.15" x2="66.55" y2="-7.69" xlink:href="#linear-gradient-2"/></defs><path class="cls-4" d="m57.74,31.15c-.12-.24-.11-.57-.09-.85.07-.92-.58-1.91.24-2.76.02-.02,0-.08,0-.12-.16-1.31-.47-2.57-.94-3.79-.17-.43-.39-.81-.15-1.27.08-.15.13-.33.02-.47-.5-.58-.48-1.37-.82-1.99-.7-1.28-1.19-2.66-1.84-3.96-.44-.88-.69-1.92-1.47-2.6-1.21-1.04-2.1-2.38-3.23-3.45-.92-.87-1.76-1.9-2.96-2.56-1-.56-1.96-1.25-2.99-1.81-.42-.23-.76-.61-1.13-.91-.29-.12-.69.06-.87-.33-1.02-.5-2.02-1.03-3.2-1.14-.88-.08-1.79-.12-2.59-.63-.15-.1-.41-.12-.6-.09-1.11.21-2.18.15-3.22-.35-.21-.1-.4-.02-.6-.01-1.13.04-2.25.1-3.37.15-.91.04-1.93.08-2.75.4-1.4.55-2.85.81-4.27,1.06-.87.15-1.57.46-2.25.94-.13.09-.26.25-.4.26-1.53.12-2.48,1.3-3.59,2.09-1.19.85-2.16,2.01-3.47,2.75-.23.13-.44.39-.56.63-.2.43-.5.73-.86,1-.06.11-.11.21-.17.32-.42,1-1.05,1.9-1.79,2.65-1.37,1.39-2.11,3.11-2.87,4.83-.18.41-.27.77-.67,1.07-.86.64-1.26,1.48-.89,2.59.08.23.26.57.02.81-.68.71-.81,1.68-1.22,2.51-.07.15-.35.26-.08.48.45.36.28.89.31,1.36.07,1.07-.23,2.17.26,3.23.11.25.16.59.08.84-.42,1.37.63,2.72.01,4.08-.04.1.07.33.18.43.64.58.44,1.57,1.1,2.14.1.08.11.31.1.46-.08.88.43,1.56.78,2.28.11.22.15.35-.04.51-.02.09-.03.17-.04.26.27.31.53.62.8.92.23-.01.26.11.21.3.45,1.15,1.38,1.97,2.03,2.97.25.39-.15.69.22,1.03.87.78,1.4,1.91,2.51,2.47.14.07.32.19.36.32.24.89,1.01,1.18,1.7,1.57.57.32,1.22.61,1.6,1.09,1.05,1.35,2.76,1.47,4.07,2.32.61.4,1.48.45,2.15.93.25.18.56.28.9.33.84.14,1.72.24,2.49.56.82.34,1.66.43,2.5.49,1.13.08,2.26.12,3.37.41.23.06.49.11.71-.07.29-.25.62-.19.93-.07.28.11.54.1.84.09,1.78-.05,3.53-.33,5.3-.49.53-.05.95-.2,1.4-.55.71-.55,1.44-1.36,2.5-1.04.58.17.92-.02,1.3-.38.48-.46,1.01-.8,1.63-1.05,1.36-.55,2.75-1.06,3.69-2.31.14-.19.36-.43.57-.45.52-.06.71-.45,1.02-.77.84-.86,1.5-1.87,2.32-2.75.89-.97,1.68-2.07,2.25-3.31.82-1.76,1.33-3.68,2.6-5.22.16-.2.13-.47.22-.69.37-.89-.04-1.84.28-2.76.18-.53.55-1.1.54-1.58-.05-1.12.48-2.27-.1-3.37Zm-10.07-1.77c-.12.2-.08.38-.02.59.48,1.77.17,3.56.18,5.34,0,1.02-.1,2.02.06,3.05.13.79.06,1.69-.21,2.43-.5,1.41-.94,2.85-1.76,4.14-1.58,2.47-3.89,3.3-6.69,3.23-.42-.15-.87-.06-1.32-.03-1.46.13-2.9.17-4.39.03-1.31-.13-2.68.2-4.02.12-1.17-.06-2.34.33-3.49-.12-.9.47-1.84.13-2.76.17-2.11.1-4-.72-5.96-1.3-.15-.04-.31-.13-.42-.25-.64-.68-1.35-1.28-2.15-1.77-.62-.38-.56-1.15-.82-1.73-.58-1.29-1.25-2.57-1.34-4.04-.03-.52-.18-1.03.05-1.57.16-.38.08-.83-.06-1.21-.21-.6-.29-1.18-.04-1.78.1-.25.02-.47-.08-.71-.42-1.05-.42-2.12-.24-3.24.19-1.22.34-2.44.14-3.7-.14-.86.14-1.78.1-2.66-.08-1.49.54-2.94.15-4.45-.14-.55.29-1.01.46-1.5.33-.97.42-1.99,1.21-2.86.73-.81,1.62-1.3,2.48-1.87,1.68-1.11,3.64-1.5,5.6-1.71,1.1-.11,2.25-.25,3.38.08,1.2.34,2.46.03,3.66-.08,1.23-.11,2.42.13,3.62.07.56-.03,1.13.21,1.66-.19.15-.11.55-.1.71.02,1.07.8,2.3.41,3.44.41,1.53,0,2.87.42,4.14,1.19.17.1.33.27.52.31,1.52.31,2.44,1.43,3.12,2.63.7,1.22,1.31,2.55,1.13,4.04-.08.66-.01,1.34.08,1.95.17,1.17-.06,2.33.17,3.52.21,1.07.34,2.35-.3,3.45Z"/><path class="cls-2" d="m47.83,35.31c-.02-1.78.29-3.58-.18-5.34-.06-.21-.1-.39.02-.59.64-1.1.5-2.38.3-3.45-.23-1.19,0-2.35-.17-3.52-.09-.61-.15-1.29-.08-1.95.17-1.49-.43-2.82-1.13-4.04-.68-1.2-1.6-2.32-3.12-2.63-.19-.04-.35-.21-.52-.31-1.27-.77-2.61-1.18-4.14-1.19-1.14,0-2.37.4-3.44-.41-.16-.12-.55-.13-.71-.02-.54.4-1.1.16-1.66.19-1.2.06-2.39-.17-3.62-.07-1.2.11-2.46.42-3.66.08-1.14-.32-2.28-.19-3.38-.08-1.95.21-3.92.59-5.6,1.71-.85.57-1.74,1.06-2.48,1.87-.79.87-.87,1.89-1.21,2.86-.17.49-.61.95-.46,1.5.39,1.51-.23,2.96-.15,4.45.04.88-.24,1.8-.1,2.66.2,1.26.05,2.48-.14,3.7-.17,1.11-.17,2.18.24,3.24.09.24.18.46.08.71-.25.6-.17,1.18.04,1.78.14.39.22.84.06,1.21-.23.54-.08,1.05-.05,1.57.09,1.46.76,2.75,1.34,4.04.26.58.2,1.35.82,1.73.81.49,1.51,1.08,2.15,1.77.11.12.27.21.42.25,1.96.58,3.85,1.4,5.96,1.3.92-.04,1.87.3,2.76-.17,1.15.45,2.33.06,3.49.12,1.35.08,2.72-.25,4.02-.12,1.48.14,2.93.1,4.39-.03.45-.04.89-.13,1.32.03,2.8.07,5.12-.76,6.69-3.23.82-1.29,1.26-2.73,1.76-4.14.27-.75.33-1.64.21-2.43-.16-1.03-.06-2.03-.06-3.05Zm-2.98,5.89c-.57,1.04-1.05,2.19-2.3,2.65-.24.08-.39.27-.58.42-1.08.87-2.34,1.1-3.66.77-.81-.21-1.62-.05-2.42-.09-1.07-.05-2.19-.27-3.26.14-.24.09-.58,0-.85-.07-1.13-.28-2.24-.01-3.36.09-.24.02-.51.11-.73.04-1.53-.5-3.05-.24-4.59-.06-.94.12-1.85-.15-2.76-.4-1.83-.5-2.76-1.92-3.57-3.44-.2-.38-.34-.77-.76-.9-.71-.23-.72-.78-.51-1.27.48-1.1.23-2.25.3-3.37.08-1.32-.09-2.66.04-3.97.06-.57-.22-1.02-.19-1.55.03-.6.47-1.06.52-1.61.06-.53-.59-.96-.47-1.59.12-.69.02-1.38-.12-2.07-.27-1.29-.12-2.63,0-3.91.07-.8.21-1.81.76-2.48.61-.75,1.39-1.38,2.17-1.94.79-.57,1.62-1.14,2.69-1.03,1.65.13,3.31.08,4.97.21.99.08,2.02-.2,3.05-.12,1.65.13,3.31.06,4.97.08.5,0,.96-.03,1.44-.17,1.09-.33,2.24-.03,3.35-.21,2.04.92,4.2,1.69,5.07,4.08.24.65.45,1.32.92,1.86.29.34.2.78.14,1.18-.16,1.04-.46,2.08,0,3.12.03.07.02.16-.01.24-.43,1.2-.29,2.51-.12,3.66.22,1.42-.62,2.81.07,4.18-.26,1.57.19,3.12.12,4.7-.04.97.18,1.96-.3,2.84Z"/><path class="cls-1" d="m45.15,38.36c.07-1.58-.38-3.13-.12-4.7-.68-1.37.15-2.75-.07-4.18-.17-1.16-.31-2.46.12-3.66.03-.08.04-.17.01-.24-.45-1.04-.16-2.08,0-3.12.06-.4.15-.84-.14-1.18-.47-.54-.68-1.21-.92-1.86-.87-2.39-3.03-3.16-5.07-4.08-1.11.17-2.26-.13-3.35.21-.48.15-.94.18-1.44.17-1.65-.02-3.31.05-4.97-.08-1.02-.08-2.06.2-3.05.12-1.65-.13-3.31-.08-4.97-.21-1.07-.11-1.9.47-2.69,1.03-.79.57-1.57,1.19-2.17,1.94-.54.67-.69,1.68-.76,2.48-.11,1.28-.26,2.62,0,3.91.14.69.25,1.38.12,2.07-.11.64.53,1.06.47,1.59-.05.54-.49,1.01-.52,1.61-.03.53.25.98.19,1.55-.12,1.31.05,2.65-.04,3.97-.07,1.12.17,2.27-.3,3.37-.21.5-.2,1.04.51,1.27.41.13.55.53.76.9.81,1.53,1.74,2.94,3.57,3.44.91.25,1.82.52,2.76.4,1.54-.18,3.06-.45,4.59.06.22.07.49-.02.73-.04,1.12-.1,2.23-.36,3.36-.09.27.07.61.16.85.07,1.07-.42,2.19-.19,3.26-.14.8.04,1.61-.12,2.42.09,1.32.34,2.58.11,3.66-.77.18-.15.33-.34.58-.42,1.25-.46,1.73-1.61,2.3-2.65.48-.88.26-1.88.3-2.84Zm-6.46-3.38c-.36.67-.86,1.41-1.69,1.81-.64.3-.98,1.02-1.56,1.47-1.63,1.26-3.51,1.62-5.46,1.88-1.46.2-2.82-.17-4.16-.69-1.72-.66-2.71-2-3.47-3.57-.11-.22-.17-.46-.35-.64-.8-.83-1.06-1.91-1.36-2.96-.35-1.21-.31-2.44.11-3.6.61-1.69,1.29-3.37,2.68-4.62.51-.46.59-1.16,1.11-1.68.72-.73,1.55-1,2.44-1.23.47-.12.93-.14,1.33-.52.45-.43,1.1-.27,1.65-.22,1.14.1,2.27.25,3.39.47.91.18,1.7.61,2.43,1.28,1.09,1.01,2,2.2,3.15,3.14.27.22.44.47.51.81.26,1.18,1.07,2.26.7,3.3.14,2.2-.58,3.94-1.45,5.56Zm1.53-11.9c-1.18-.08-2.43-1.27-2.43-2.31,0-.84,1.28-2.04,2.15-2.01,1.09.04,2.23,1.2,2.24,2.3.01.81-1.22,2.08-1.97,2.03Z"/><path class="cls-2" d="m39.44,26.12c-.07-.33-.24-.59-.51-.81-1.15-.94-2.06-2.13-3.15-3.14-.73-.68-1.51-1.1-2.43-1.28-1.12-.23-2.26-.38-3.39-.47-.55-.05-1.2-.21-1.65.22-.4.38-.85.4-1.33.52-.89.23-1.72.5-2.44,1.23-.52.52-.6,1.22-1.11,1.68-1.39,1.25-2.07,2.93-2.68,4.62-.43,1.16-.46,2.38-.11,3.6.3,1.05.56,2.13,1.36,2.96.17.17.24.42.35.64.76,1.57,1.75,2.91,3.47,3.57,1.35.52,2.7.88,4.16.69,1.95-.25,3.83-.61,5.46-1.88.58-.46.92-1.17,1.56-1.47.83-.4,1.33-1.14,1.69-1.81.87-1.63,1.59-3.37,1.45-5.56.36-1.04-.44-2.12-.7-3.3Zm-2.97,3.68c-.11.38-.03.81-.02,1.21.01.46-.05.95-.29,1.31-.98,1.44-1.85,2.98-3.64,3.65-.44.16-.85.22-1.29.24-1.37-.03-2.65-.51-3.94-.87-.68-.18-1.11-.86-1.51-1.4-.35-.48-.68-.99-1.03-1.48-.94-1.31-.57-2.71-.2-4.09.24-.88.81-1.54,1.47-2.19.75-.73,1.64-1.25,2.42-1.92.4-.34,1.16-.36,1.75-.34,2.35.06,4.23.96,5.32,3.16.05.11.12.23.22.29.97.6,1.01,1.45.73,2.44Z"/><path class="cls-2" d="m42.19,21.05c.01.81-1.22,2.08-1.97,2.03-1.18-.08-2.43-1.27-2.43-2.31,0-.84,1.28-2.04,2.15-2.01,1.09.04,2.23,1.2,2.24,2.3Z"/><path class="cls-3" d="m36.46,29.81c-.11.38-.03.81-.02,1.21.01.46-.05.95-.29,1.31-.98,1.44-1.85,2.98-3.64,3.65-.44.16-.85.22-1.29.24-1.37-.03-2.65-.51-3.94-.87-.68-.18-1.11-.86-1.51-1.4-.35-.48-.68-.99-1.03-1.48-.94-1.31-.57-2.71-.2-4.09.24-.88.81-1.54,1.47-2.19.75-.73,1.64-1.25,2.42-1.92.4-.34,1.16-.36,1.75-.34,2.35.06,4.23.96,5.32,3.16.05.11.12.23.22.29.97.6,1.01,1.45.73,2.44Z"/></svg>