<?xml version="1.0" encoding="UTF-8"?><svg id="Layer_1" xmlns="http://www.w3.org/2000/svg" xmlns:xlink="http://www.w3.org/1999/xlink" viewBox="0 0 107 60"><defs><style>.cls-1{fill:#fff;}.cls-2{fill:#039;}.cls-3{clip-path:url(#clippath);}.cls-4{fill:red;}</style><clipPath id="clippath"><path class="cls-1" d="M100.4,52.84c-.51,.51-.77-.18-1.49-.18s-.72,.08-1.44,.08-.72,.25-1.44,.25-.72-.37-1.44-.37c-.72,0-.72,.25-1.44,.25s-.72-.3-1.44-.3-.72,0-1.44,0-.72,.06-1.44,.06-.72-.08-1.44-.08-.72,.35-1.44,.35-.72,.12-1.44,.12-.72-.25-1.44-.25-.72-.1-1.44-.1-.72,.12-1.44,.12-.72-.24-1.44-.24-.72,.42-1.44,.42-.72-.36-1.44-.36-.72,.34-1.44,.34-.72-.03-1.44-.03-.72-.12-1.45-.12-.72-.25-1.44-.25-.72,.18-1.44,.18-.72-.18-1.44-.18c-.72,0-.72,.34-1.44,.34s-.72,.1-1.44,.1-.72-.46-1.44-.46-.72,.1-1.45,.1-.72,.27-1.45,.27-.72-.34-1.44-.34-.72,.37-1.44,.37-.72-.37-1.44-.37-.72,.29-1.44,.29-.72-.02-1.44-.02-.72,.04-1.44,.04-.72-.03-1.44-.03-.72,.05-1.44,.05-.72-.32-1.44-.32-.72,.08-1.45,.08-.72,.2-1.44,.2-.72-.13-1.44-.13-.72,.14-1.44,.14-.72-.17-1.44-.17-.72-.07-1.44-.07-.72-.08-1.45-.08-.72-.02-1.45-.02-.72,.3-1.44,.3-.72-.24-1.44-.24-.72,.39-1.44,.39-.72,.02-1.45,.02-.72-.16-1.45-.16-.72-.17-1.45-.17-.72,.14-1.45,.14-.72,.12-1.45,.12-.72-.07-1.45-.07-.72-.29-1.45-.29-.72,.23-1.45,.23-.72,.19-1.45,.19-.72-.35-1.44-.35-.72,.28-1.44,.28c-.72,0-.72-.27-1.45-.27s-.72,.05-1.45,.05-.72,.03-1.45,.03-.73,.28-1.45,.28-.72-.11-1.45-.11-.73-.22-1.45-.22-.73,.1-1.45,.1-.76,.32-1.28-.19-.33-.53-.33-1.24,.17-.71,.17-1.42-.15-.71-.15-1.42,.03-.71,.03-1.42,.13-.71,.13-1.43-.05-.71-.05-1.42-.02-.71-.02-1.42,.2-.71,.2-1.42-.31-.71-.31-1.42,.33-.71,.33-1.42,0-.71,0-1.43-.23-.71-.23-1.43,.28-.71,.28-1.43-.28-.71-.28-1.42,.29-.71,.29-1.43-.26-.71-.26-1.43,0-.71,0-1.43-.08-.71-.08-1.43,.15-.71,.15-1.43,.1-.71,.1-1.43,.1-.71,.1-1.43-.4-.71-.4-1.43,.19-.71,.19-1.43,.1-.71,.1-1.43-.11-.71-.11-1.43,.03-.71,.03-1.43-.17-.72-.17-1.43,.13-.71,.13-1.43,.17-.71,.17-1.43-.33-.72-.33-1.43,.25-.71,.25-1.43-.07-.72-.07-1.43,.18-.72,.18-1.43-.79-1-.29-1.51,.79-.06,1.52-.06,.72,0,1.44,0,.72,.22,1.44,.22,.72-.1,1.44-.1,.72-.03,1.44-.03,.72,.03,1.44,.03,.72-.11,1.44-.11,.72,.32,1.44,.32,.72-.28,1.44-.28,.72,.15,1.44,.15,.72,.09,1.44,.09,.72-.26,1.44-.26,.72,.22,1.44,.22,.72-.22,1.44-.22,.72,.32,1.44,.32,.72,.03,1.44,.03,.72-.39,1.44-.39,.72-.06,1.44-.06,.72,.36,1.44,.36,.72,.09,1.45,.09,.72-.01,1.44-.01,.72-.16,1.44-.16,.72-.17,1.44-.17,.72,.13,1.44,.13,.72-.15,1.44-.15,.72-.04,1.44-.04,.72,.31,1.45,.31,.72-.18,1.45-.18,.72-.12,1.44-.12,.72,.11,1.44,.11,.72-.11,1.44-.11,.72,.33,1.44,.33,.72-.03,1.44-.03,.72,.08,1.44,.08,.72,.02,1.44,.02,.72-.23,1.44-.23,.72-.21,1.44-.21,.72,.4,1.45,.4,.72-.17,1.44-.17,.72-.19,1.44-.19,.72,.14,1.44,.14,.72-.21,1.44-.21,.72,.35,1.44,.35,.72-.22,1.45-.22,.72-.05,1.45-.05,.72,.38,1.44,.38,.72-.08,1.44-.08,.72-.04,1.44-.04,.72-.21,1.45-.21,.72,.25,1.45,.25,.72,.06,1.45,.06,.72-.37,1.45-.37,.72,.08,1.45,.08,.72,.3,1.45,.3,.72-.36,1.45-.36,.72,.37,1.45,.37,.72-.05,1.45-.05,.72-.36,1.44-.36,.72,.23,1.44,.23,.72,.19,1.45,.19,.72-.08,1.45-.08,.72-.08,1.45-.08,.73-.27,1.45-.27,.72,.11,1.45,.11,.73-.14,1.45-.14,.73,.22,1.45,.22,.99-.55,1.51-.04-.2,.76-.2,1.47,.07,.71,.07,1.42,.32,.71,.32,1.42-.47,.71-.47,1.42,.28,.71,.28,1.43,.16,.71,.16,1.42-.13,.71-.13,1.42-.18,.71-.18,1.42-.11,.71-.11,1.42,.21,.71,.21,1.42-.19,.71-.19,1.43,.29,.71,.29,1.43,0,.71,0,1.43,.15,.71,.15,1.42-.48,.71-.48,1.43,0,.71,0,1.43,.33,.71,.33,1.43-.1,.71-.1,1.43,.11,.71,.11,1.43-.18,.71-.18,1.43,.05,.71,.05,1.43,.14,.71,.14,1.43-.16,.71-.16,1.43,.05,.71,.05,1.43,.17,.71,.17,1.43-.35,.71-.35,1.43-.03,.72-.03,1.43-.02,.71-.02,1.43,.39,.71,.39,1.43,.03,.72,.03,1.43-.43,.71-.43,1.43,.3,.72,.3,1.43-.13,.72,.03,1.42c.18,.77,.48,1-.03,1.51Z"/></clipPath></defs><path d="M103.41,55.84c-.51,.51-.77-.18-1.49-.18s-.72,.08-1.44,.08-.72,.25-1.44,.25-.72-.37-1.44-.37-.72,.25-1.44,.25-.72-.3-1.44-.3-.72,0-1.44,0-.72,.06-1.44,.06-.72-.08-1.44-.08-.72,.35-1.44,.35-.72,.12-1.44,.12-.72-.25-1.44-.25-.72-.1-1.44-.1-.72,.12-1.44,.12-.72-.24-1.44-.24c-.72,0-.72,.42-1.44,.42s-.72-.36-1.44-.36-.72,.34-1.44,.34-.72-.03-1.44-.03-.72-.12-1.45-.12-.72-.25-1.44-.25-.72,.18-1.44,.18-.72-.18-1.44-.18-.72,.34-1.44,.34-.72,.1-1.44,.1-.72-.46-1.44-.46-.72,.1-1.45,.1-.72,.27-1.45,.27-.72-.34-1.44-.34-.72,.37-1.44,.37-.72-.37-1.44-.37-.72,.29-1.44,.29-.72-.02-1.44-.02-.72,.04-1.44,.04-.72-.03-1.44-.03-.72,.05-1.44,.05-.72-.32-1.44-.32-.72,.08-1.45,.08-.72,.2-1.44,.2-.72-.13-1.44-.13-.72,.14-1.44,.14-.72-.17-1.44-.17-.72-.07-1.44-.07-.72-.08-1.45-.08-.72-.02-1.45-.02-.72,.3-1.44,.3-.72-.24-1.44-.24-.72,.39-1.44,.39-.72,.02-1.45,.02-.72-.16-1.45-.16-.72-.17-1.45-.17-.72,.14-1.45,.14-.72,.12-1.45,.12-.72-.07-1.45-.07c-.72,0-.72-.29-1.45-.29-.72,0-.72,.23-1.45,.23s-.72,.19-1.45,.19-.72-.35-1.44-.35-.72,.28-1.44,.28-.72-.27-1.45-.27-.72,.05-1.45,.05-.72,.03-1.45,.03-.73,.28-1.45,.28-.72-.11-1.45-.11-.73-.22-1.45-.22-.73,.1-1.45,.1-.76,.32-1.28-.19-.33-.53-.33-1.24,.17-.71,.17-1.42-.15-.71-.15-1.42,.03-.71,.03-1.42,.13-.71,.13-1.43-.05-.71-.05-1.42-.02-.71-.02-1.42,.2-.71,.2-1.42-.31-.71-.31-1.42,.33-.71,.33-1.42,0-.71,0-1.43-.23-.71-.23-1.43,.28-.71,.28-1.43-.28-.71-.28-1.42,.29-.71,.29-1.43-.26-.71-.26-1.43,0-.71,0-1.43-.08-.71-.08-1.43,.15-.71,.15-1.43,.1-.71,.1-1.43,.1-.71,.1-1.43-.4-.71-.4-1.43,.19-.71,.19-1.43,.1-.71,.1-1.43-.11-.71-.11-1.43,.03-.71,.03-1.43-.17-.72-.17-1.43,.13-.71,.13-1.43,.17-.71,.17-1.43-.33-.72-.33-1.43,.25-.71,.25-1.43-.07-.72-.07-1.43,.18-.72,.18-1.43-.79-1-.29-1.51,.79-.06,1.52-.06,.72,0,1.44,0,.72,.22,1.44,.22,.72-.1,1.44-.1,.72-.03,1.44-.03,.72,.03,1.44,.03,.72-.11,1.44-.11,.72,.32,1.44,.32,.72-.28,1.44-.28,.72,.15,1.44,.15,.72,.09,1.44,.09,.72-.26,1.44-.26,.72,.22,1.44,.22,.72-.22,1.44-.22,.72,.32,1.44,.32,.72,.03,1.44,.03,.72-.39,1.44-.39,.72-.06,1.44-.06,.72,.36,1.44,.36,.72,.09,1.45,.09,.72-.01,1.44-.01,.72-.16,1.44-.16,.72-.17,1.44-.17,.72,.13,1.44,.13,.72-.15,1.44-.15,.72-.04,1.44-.04,.72,.31,1.45,.31,.72-.18,1.45-.18,.72-.12,1.44-.12,.72,.11,1.44,.11,.72-.11,1.44-.11,.72,.33,1.44,.33,.72-.03,1.44-.03,.72,.08,1.44,.08,.72,.02,1.44,.02,.72-.23,1.44-.23,.72-.21,1.44-.21,.72,.4,1.45,.4,.72-.17,1.44-.17,.72-.19,1.44-.19,.72,.14,1.44,.14,.72-.21,1.44-.21,.72,.35,1.44,.35,.72-.22,1.45-.22,.72-.05,1.45-.05,.72,.38,1.44,.38,.72-.08,1.44-.08,.72-.04,1.44-.04,.72-.21,1.45-.21,.72,.25,1.45,.25,.72,.06,1.45,.06,.72-.37,1.45-.37,.72,.08,1.45,.08,.72,.3,1.45,.3,.72-.36,1.45-.36,.72,.37,1.45,.37,.72-.05,1.45-.05,.72-.36,1.44-.36,.72,.23,1.44,.23,.72,.19,1.45,.19,.72-.08,1.45-.08,.72-.08,1.45-.08,.73-.27,1.45-.27,.72,.11,1.45,.11,.73-.14,1.45-.14,.73,.22,1.45,.22,.99-.55,1.51-.04-.2,.76-.2,1.47,.07,.71,.07,1.42,.32,.71,.32,1.42-.47,.71-.47,1.42,.28,.71,.28,1.43,.16,.71,.16,1.42-.13,.71-.13,1.42-.18,.71-.18,1.42-.11,.71-.11,1.42,.21,.71,.21,1.42-.19,.71-.19,1.43,.29,.71,.29,1.43,0,.71,0,1.43,.15,.71,.15,1.42-.48,.71-.48,1.43,0,.71,0,1.43,.33,.71,.33,1.43-.1,.71-.1,1.43,.11,.71,.11,1.43-.18,.71-.18,1.43,.05,.71,.05,1.43,.14,.71,.14,1.43-.16,.71-.16,1.43,.05,.71,.05,1.43,.17,.71,.17,1.43-.35,.71-.35,1.43-.03,.72-.03,1.43-.02,.71-.02,1.43,.39,.71,.39,1.43,.03,.72,.03,1.43-.43,.71-.43,1.43,.3,.72,.3,1.43-.13,.72,.03,1.42c.18,.77,.48,1-.03,1.51Z"/><g><path class="cls-1" d="M100.4,52.84c-.51,.51-.77-.18-1.49-.18s-.72,.08-1.44,.08-.72,.25-1.44,.25-.72-.37-1.44-.37c-.72,0-.72,.25-1.44,.25s-.72-.3-1.44-.3-.72,0-1.44,0-.72,.06-1.44,.06-.72-.08-1.44-.08-.72,.35-1.44,.35-.72,.12-1.44,.12-.72-.25-1.44-.25-.72-.1-1.44-.1-.72,.12-1.44,.12-.72-.24-1.44-.24-.72,.42-1.44,.42-.72-.36-1.44-.36-.72,.34-1.44,.34-.72-.03-1.44-.03-.72-.12-1.45-.12-.72-.25-1.44-.25-.72,.18-1.44,.18-.72-.18-1.44-.18c-.72,0-.72,.34-1.44,.34s-.72,.1-1.44,.1-.72-.46-1.44-.46-.72,.1-1.45,.1-.72,.27-1.45,.27-.72-.34-1.44-.34-.72,.37-1.44,.37-.72-.37-1.44-.37-.72,.29-1.44,.29-.72-.02-1.44-.02-.72,.04-1.44,.04-.72-.03-1.44-.03-.72,.05-1.44,.05-.72-.32-1.44-.32-.72,.08-1.45,.08-.72,.2-1.44,.2-.72-.13-1.44-.13-.72,.14-1.44,.14-.72-.17-1.44-.17-.72-.07-1.44-.07-.72-.08-1.45-.08-.72-.02-1.45-.02-.72,.3-1.44,.3-.72-.24-1.44-.24-.72,.39-1.44,.39-.72,.02-1.45,.02-.72-.16-1.45-.16-.72-.17-1.45-.17-.72,.14-1.45,.14-.72,.12-1.45,.12-.72-.07-1.45-.07-.72-.29-1.45-.29-.72,.23-1.45,.23-.72,.19-1.45,.19-.72-.35-1.44-.35-.72,.28-1.44,.28c-.72,0-.72-.27-1.45-.27s-.72,.05-1.45,.05-.72,.03-1.45,.03-.73,.28-1.45,.28-.72-.11-1.45-.11-.73-.22-1.45-.22-.73,.1-1.45,.1-.76,.32-1.28-.19-.33-.53-.33-1.24,.17-.71,.17-1.42-.15-.71-.15-1.42,.03-.71,.03-1.42,.13-.71,.13-1.43-.05-.71-.05-1.42-.02-.71-.02-1.42,.2-.71,.2-1.42-.31-.71-.31-1.42,.33-.71,.33-1.42,0-.71,0-1.43-.23-.71-.23-1.43,.28-.71,.28-1.43-.28-.71-.28-1.42,.29-.71,.29-1.43-.26-.71-.26-1.43,0-.71,0-1.43-.08-.71-.08-1.43,.15-.71,.15-1.43,.1-.71,.1-1.43,.1-.71,.1-1.43-.4-.71-.4-1.43,.19-.71,.19-1.43,.1-.71,.1-1.43-.11-.71-.11-1.43,.03-.71,.03-1.43-.17-.72-.17-1.43,.13-.71,.13-1.43,.17-.71,.17-1.43-.33-.72-.33-1.43,.25-.71,.25-1.43-.07-.72-.07-1.43,.18-.72,.18-1.43-.79-1-.29-1.51,.79-.06,1.52-.06,.72,0,1.44,0,.72,.22,1.44,.22,.72-.1,1.44-.1,.72-.03,1.44-.03,.72,.03,1.44,.03,.72-.11,1.44-.11,.72,.32,1.44,.32,.72-.28,1.44-.28,.72,.15,1.44,.15,.72,.09,1.44,.09,.72-.26,1.44-.26,.72,.22,1.44,.22,.72-.22,1.44-.22,.72,.32,1.44,.32,.72,.03,1.44,.03,.72-.39,1.44-.39,.72-.06,1.44-.06,.72,.36,1.44,.36,.72,.09,1.45,.09,.72-.01,1.44-.01,.72-.16,1.44-.16,.72-.17,1.44-.17,.72,.13,1.44,.13,.72-.15,1.44-.15,.72-.04,1.44-.04,.72,.31,1.45,.31,.72-.18,1.45-.18,.72-.12,1.44-.12,.72,.11,1.44,.11,.72-.11,1.44-.11,.72,.33,1.44,.33,.72-.03,1.44-.03,.72,.08,1.44,.08,.72,.02,1.44,.02,.72-.23,1.44-.23,.72-.21,1.44-.21,.72,.4,1.45,.4,.72-.17,1.44-.17,.72-.19,1.44-.19,.72,.14,1.44,.14,.72-.21,1.44-.21,.72,.35,1.44,.35,.72-.22,1.45-.22,.72-.05,1.45-.05,.72,.38,1.44,.38,.72-.08,1.44-.08,.72-.04,1.44-.04,.72-.21,1.45-.21,.72,.25,1.45,.25,.72,.06,1.45,.06,.72-.37,1.45-.37,.72,.08,1.45,.08,.72,.3,1.45,.3,.72-.36,1.45-.36,.72,.37,1.45,.37,.72-.05,1.45-.05,.72-.36,1.44-.36,.72,.23,1.44,.23,.72,.19,1.45,.19,.72-.08,1.45-.08,.72-.08,1.45-.08,.73-.27,1.45-.27,.72,.11,1.45,.11,.73-.14,1.45-.14,.73,.22,1.45,.22,.99-.55,1.51-.04-.2,.76-.2,1.47,.07,.71,.07,1.42,.32,.71,.32,1.42-.47,.71-.47,1.42,.28,.71,.28,1.43,.16,.71,.16,1.42-.13,.71-.13,1.42-.18,.71-.18,1.42-.11,.71-.11,1.42,.21,.71,.21,1.42-.19,.71-.19,1.43,.29,.71,.29,1.43,0,.71,0,1.43,.15,.71,.15,1.42-.48,.71-.48,1.43,0,.71,0,1.43,.33,.71,.33,1.43-.1,.71-.1,1.43,.11,.71,.11,1.43-.18,.71-.18,1.43,.05,.71,.05,1.43,.14,.71,.14,1.43-.16,.71-.16,1.43,.05,.71,.05,1.43,.17,.71,.17,1.43-.35,.71-.35,1.43-.03,.72-.03,1.43-.02,.71-.02,1.43,.39,.71,.39,1.43,.03,.72,.03,1.43-.43,.71-.43,1.43,.3,.72,.3,1.43-.13,.72,.03,1.42c.18,.77,.48,1-.03,1.51Z"/><g class="cls-3"><g><path class="cls-2" d="M78.16,53.39c-.73,.59-4.59,.48-5.23,1.14-1.46,1.53-6.75-1.39-8.69-.37-1.69,.89-3.44,1.44-5.22,1.78,0-2.7-.18-5.65,.06-8.57,.23-2.76-.54-5.53,.21-8.43,2.01,1.53,4.27,2.69,6.03,4.52,1.51,1.55,3.65,2.21,5.2,3.73,.56,.55,7.49,5.78,7.62,6.21Z"/><path class="cls-2" d="M41.53,16.04c-2.83-2.76-5.48-5.3-8.64-7.27-.4-.25-6.91-4.49-7.06-4.81,.13-.1,2.55,.09,2.68,0l2.09-.44c-2.03-4.26,2.9-.84,3.03-.9,.69-.58,2.12,1.45,2.85,.98,2.15-1.45,3-.3,5.49-1.04,.07,.38,.11,.88,.16,1.54,.23,2.96-.73,5.94,.25,8.93,.26,.79-.07,2.01-.85,3.01Z"/><path class="cls-2" d="M72.61,3.96c-2.55,3.21-10.26,8.06-12.95,11.2-.01,.26-.16,.4-.38,.29-.09-.04-.04-.34-.04-.51,.55-4.69,.33-9.38-.24-14.06,1.55,.15,2.94,1.03,4.09,1.9,.1,.08,.21,.15,.31,.24,1.75,1.29,7.48-.41,9.2,.94Z"/><path class="cls-4" d="M42.15,40.05c-3.34,2.65-6.63,5.39-9.76,8.29-.24,.13-12.13,8.91-12.37,9.04-1.09-1.06-2.06-2.21-2.93-3.44,1.6-.71,14.04-11.09,15.77-11.7,.48-.16,1.19-.45,1.63-1.16,2.08-3.48,5.43-3.29,8.79-2.99,.48,1.28-.55,1.5-1.14,1.96Z"/><path class="cls-2" d="M42.87,54.89c.03,.21,.01,.44-.06,.61-1.53-.28-3-.68-4.47-1.3-1.16-.5-6.44,1.77-7.38,.98,.06-.13,4.32-3.07,4.45-3.22,.19-.23,.23-.59,.44-.8,1.84-1.88,3.85-3.59,5.27-5.87,.35-.59,1.01-1.01,1.86-.89,.4,3.5-.45,6.99-.11,10.48Z"/><path class="cls-4" d="M42.13,22.96c-.41,.39-.94,.15-1.43-.04-1.25-.5-2.19-1.46-3.15-2.36-3.05-2.9-10.96-7.41-14.21-10.04,0-.21-13.21-8.04-13.31-8.19,.59-.75,7.92,1.61,8.66,.98,.03,0,10.69,7.29,10.71,7.29,3.31,3.04,7.14,5.4,10.58,8.26,.86,.73,1.9,1.29,2.36,2.38,.23,.55,.29,1.26-.21,1.73Z"/><path class="cls-2" d="M35.88,23.43H.97c.13-.76,1.1-8.54,1.28-9.1,.33-1.09-1.37-5.49-1.18-6.6,.08-.45,1.44-3.35,1.48-3.77,.01-.15,15.63,8.37,21.18,11.3,1.21,.64,2.35,1.4,3.43,2.25,2.72,2.14,5.81,3.77,8.72,5.92Z"/><path class="cls-2" d="M101.16,22.01c-2.29,0-27.31,.08-29.57,.38-.49,.08-1.08,.25-1.16-.49-.04-.44,.4-.63,.83-.66,1.16-1.4,2.98-1.81,4.37-2.9,.4-.33,20.79-14.47,21.15-14.81,.17,.34,6.01-1.33,6.18-.98,.06,.14,1.63,6.6,1.71,6.75h-.05c.44,1.15-3.74,11.68-3.45,12.71Z"/><path class="cls-2" d="M31.9,37.8l-.15,.71c-1.46,1.05-2.9,2.15-4.4,3.13-.16,.1-23.83,15.81-24.04,15.92-.65-1.26-1.84-18.13-2.3-19.5,.66-.33,25.78-.14,26.58-.19,1.44-.08,2.86-.05,4.32-.08Z"/><path class="cls-2" d="M101.48,37.67c-.28,.75,2.49,12.29,2.08,12.98-1.11,.09-27.89-10.35-28.63-11.43-.59-.85-1.7-.66-2.23-1.55,1.74-.93,3.53-.45,5.29-.31,.45,.05,23.26,0,23.49,.31Z"/><path class="cls-4" d="M102.79,33.05c-.18,.01-23.07,.03-23.25,.05-3.21,.04-6.47-.59-9.66,.4-3.46-1.34-6.93,.68-10.37,.01-1.38-.25-2.34,.55-3.46,.89-.68,.23-1.33,.88-1.26,1.61,.23,2.76-1.4,5.4-.31,8.22,.53,1.39-.44,2.8-.34,4.25,.14,2.16-.07,4.32,.09,6.47,.05,.61,.01,1.11-.1,1.51-1.21,.02-2.44-.03-3.65-.11-.83-.05-1.66-.13-2.5-.21v-.03c.2-4.13-.4-8.24-.43-12.36-.01-2.64-1.08-5.24-.25-7.95,.33-1.11-1.83-2.98-3.38-2.83-4.37,.43-8.71-.71-13.06,.01-2.28,.38-28.89-.65-31.15,.29-.17-1.63-.24-3.61-.16-5.55,3.59,.39,31.43,.19,35.03,.03,3.21-.13,6.44-.23,9.64-.23,2.38,0,2.35-.53,2.7-3,.28-2.08,.66-4.18,.83-6.27,.39-5.14,.09-10.28-.1-15.41-.01-.45-.05-.83-.09-1.15,1.08-.35,2.13-.86,3.29-1.04,.94-.14,1.86-.15,2.78-.1,0,4.8,0,9.62,.01,14.42,0,2.9-.03,5.82,.08,8.72,.06,1.69,1.08,3.09,2.41,3.01,2.83-.14,5.44,.96,8.22,.98,5.03,.01,32.78,.26,37.79-.25,.11,.58,.26,1.13,.44,1.65,.48,1.43,.48,2.73,.21,3.96Z"/><path class="cls-4" d="M89.69,3.96c-2.33,.45-18.73,12.23-20.42,13.63-1.31,1.06-2.75,2.04-3.79,3.49-1.39,1.96-3.6,1.39-5.62,1.35-1.13-2.75,1.15-3.78,2.69-4.62,2.76-1.49,5.13-3.36,7.17-5.64,.78-.86,16.34-11.14,17.36-11.9,.95,1.15,1.8,2.39,2.6,3.69Z"/><path class="cls-4" d="M99.72,54.7c-.39,.64-.76,1.29-1.05,1.98-.15,.35-.33,.68-.53,.99-.24-.13-23.55-12.94-23.89-13.17-2.21-1.48-3.64-2.44-6.36-3.98-.76-.43-2.05-.91-2.66-1.42-.29,.08-.03-.51,0-.75,.05-.56,.5-.25,.81-.2,2.94,.13,5.34,1.78,7.94,2.83,.75,.3,1.46,.73,2.24,.91,.19,.05,23.36,12.74,23.49,12.82Z"/></g></g></g></svg>