<?xml version="1.0" encoding="UTF-8"?><svg id="Layer_1" xmlns="http://www.w3.org/2000/svg" xmlns:xlink="http://www.w3.org/1999/xlink" viewBox="0 0 107 60"><defs><style>.cls-1{fill:#fff;}.cls-2{fill:#093;}.cls-3{clip-path:url(#clippath);}.cls-4{fill:none;}.cls-5{fill:red;}</style><clipPath id="clippath"><path class="cls-4" d="M100.4,52.84c-.51,.51-.77-.18-1.49-.18s-.72,.08-1.44,.08-.72,.25-1.44,.25-.72-.37-1.44-.37c-.72,0-.72,.25-1.44,.25s-.72-.3-1.44-.3-.72,0-1.44,0-.72,.06-1.44,.06-.72-.08-1.44-.08-.72,.35-1.44,.35-.72,.12-1.44,.12-.72-.25-1.44-.25-.72-.1-1.44-.1-.72,.12-1.44,.12-.72-.24-1.44-.24-.72,.42-1.44,.42-.72-.36-1.44-.36-.72,.34-1.44,.34-.72-.03-1.44-.03-.72-.12-1.45-.12-.72-.25-1.44-.25-.72,.18-1.44,.18-.72-.18-1.44-.18c-.72,0-.72,.34-1.44,.34s-.72,.1-1.44,.1-.72-.46-1.44-.46-.72,.1-1.45,.1-.72,.27-1.45,.27-.72-.34-1.44-.34-.72,.37-1.44,.37-.72-.37-1.44-.37-.72,.29-1.44,.29-.72-.02-1.44-.02-.72,.04-1.44,.04-.72-.03-1.44-.03-.72,.05-1.44,.05-.72-.32-1.44-.32-.72,.08-1.45,.08-.72,.2-1.44,.2-.72-.13-1.44-.13-.72,.14-1.44,.14-.72-.17-1.44-.17-.72-.07-1.44-.07-.72-.08-1.45-.08-.72-.02-1.45-.02-.72,.3-1.44,.3-.72-.24-1.44-.24-.72,.39-1.44,.39-.72,.02-1.45,.02-.72-.16-1.45-.16-.72-.17-1.45-.17-.72,.14-1.45,.14-.72,.12-1.45,.12-.72-.07-1.45-.07-.72-.29-1.45-.29-.72,.23-1.45,.23-.72,.19-1.45,.19-.72-.35-1.44-.35-.72,.28-1.44,.28c-.72,0-.72-.27-1.45-.27s-.72,.05-1.45,.05-.72,.03-1.45,.03-.73,.28-1.45,.28-.72-.11-1.45-.11-.73-.22-1.45-.22-.73,.1-1.45,.1-.76,.32-1.28-.19-.33-.53-.33-1.24,.17-.71,.17-1.42-.15-.71-.15-1.42,.03-.71,.03-1.42,.13-.71,.13-1.43-.05-.71-.05-1.42-.02-.71-.02-1.42,.2-.71,.2-1.42-.31-.71-.31-1.42,.33-.71,.33-1.42,0-.71,0-1.43-.23-.71-.23-1.43,.28-.71,.28-1.43-.28-.71-.28-1.42,.29-.71,.29-1.43-.26-.71-.26-1.43,0-.71,0-1.43-.08-.71-.08-1.43,.15-.71,.15-1.43,.1-.71,.1-1.43,.1-.71,.1-1.43-.4-.71-.4-1.43,.19-.71,.19-1.43,.1-.71,.1-1.43-.11-.71-.11-1.43,.03-.71,.03-1.43-.17-.72-.17-1.43,.13-.71,.13-1.43,.17-.71,.17-1.43-.33-.72-.33-1.43,.25-.71,.25-1.43-.07-.72-.07-1.43,.18-.72,.18-1.43-.79-1-.29-1.51,.79-.06,1.52-.06,.72,0,1.44,0,.72,.22,1.44,.22,.72-.1,1.44-.1,.72-.03,1.44-.03,.72,.03,1.44,.03,.72-.11,1.44-.11,.72,.32,1.44,.32,.72-.28,1.44-.28,.72,.15,1.44,.15,.72,.09,1.44,.09,.72-.26,1.44-.26,.72,.22,1.44,.22,.72-.22,1.44-.22,.72,.32,1.44,.32,.72,.03,1.44,.03,.72-.39,1.44-.39,.72-.06,1.44-.06,.72,.36,1.44,.36,.72,.09,1.45,.09,.72-.01,1.44-.01,.72-.16,1.44-.16,.72-.17,1.44-.17,.72,.13,1.44,.13,.72-.15,1.44-.15,.72-.04,1.44-.04,.72,.31,1.45,.31,.72-.18,1.45-.18,.72-.12,1.44-.12,.72,.11,1.44,.11,.72-.11,1.44-.11,.72,.33,1.44,.33,.72-.03,1.44-.03,.72,.08,1.44,.08,.72,.02,1.44,.02,.72-.23,1.44-.23,.72-.21,1.44-.21,.72,.4,1.45,.4,.72-.17,1.44-.17,.72-.19,1.44-.19,.72,.14,1.44,.14,.72-.21,1.44-.21,.72,.35,1.44,.35,.72-.22,1.45-.22,.72-.05,1.45-.05,.72,.38,1.44,.38,.72-.08,1.44-.08,.72-.04,1.44-.04,.72-.21,1.45-.21,.72,.25,1.45,.25,.72,.06,1.45,.06,.72-.37,1.45-.37,.72,.08,1.45,.08,.72,.3,1.45,.3,.72-.36,1.45-.36,.72,.37,1.45,.37,.72-.05,1.45-.05,.72-.36,1.44-.36,.72,.23,1.44,.23,.72,.19,1.45,.19,.72-.08,1.45-.08,.72-.08,1.45-.08,.73-.27,1.45-.27,.72,.11,1.45,.11,.73-.14,1.45-.14,.73,.22,1.45,.22,.99-.55,1.51-.04-.2,.76-.2,1.47,.07,.71,.07,1.42,.32,.71,.32,1.42-.47,.71-.47,1.42,.28,.71,.28,1.43,.16,.71,.16,1.42-.13,.71-.13,1.42-.18,.71-.18,1.42-.11,.71-.11,1.42,.21,.71,.21,1.42-.19,.71-.19,1.43,.29,.71,.29,1.43,0,.71,0,1.43,.15,.71,.15,1.42-.48,.71-.48,1.43,0,.71,0,1.43,.33,.71,.33,1.43-.1,.71-.1,1.43,.11,.71,.11,1.43-.18,.71-.18,1.43,.05,.71,.05,1.43,.14,.71,.14,1.43-.16,.71-.16,1.43,.05,.71,.05,1.43,.17,.71,.17,1.43-.35,.71-.35,1.43-.03,.72-.03,1.43-.02,.71-.02,1.43,.39,.71,.39,1.43,.03,.72,.03,1.43-.43,.71-.43,1.43,.3,.72,.3,1.43-.13,.72,.03,1.42c.18,.77,.48,1-.03,1.51Z"/></clipPath></defs><path d="M103.41,55.84c-.51,.51-.77-.18-1.49-.18s-.72,.08-1.44,.08-.72,.25-1.44,.25-.72-.37-1.44-.37-.72,.25-1.44,.25-.72-.3-1.44-.3-.72,0-1.44,0-.72,.06-1.44,.06-.72-.08-1.44-.08-.72,.35-1.44,.35-.72,.12-1.44,.12-.72-.25-1.44-.25-.72-.1-1.44-.1-.72,.12-1.44,.12-.72-.24-1.44-.24c-.72,0-.72,.42-1.44,.42s-.72-.36-1.44-.36-.72,.34-1.44,.34-.72-.03-1.44-.03-.72-.12-1.45-.12-.72-.25-1.44-.25-.72,.18-1.44,.18-.72-.18-1.44-.18-.72,.34-1.44,.34-.72,.1-1.44,.1-.72-.46-1.44-.46-.72,.1-1.45,.1-.72,.27-1.45,.27-.72-.34-1.44-.34-.72,.37-1.44,.37-.72-.37-1.44-.37-.72,.29-1.44,.29-.72-.02-1.44-.02-.72,.04-1.44,.04-.72-.03-1.44-.03-.72,.05-1.44,.05-.72-.32-1.44-.32-.72,.08-1.45,.08-.72,.2-1.44,.2-.72-.13-1.44-.13-.72,.14-1.44,.14-.72-.17-1.44-.17-.72-.07-1.44-.07-.72-.08-1.45-.08-.72-.02-1.45-.02-.72,.3-1.44,.3-.72-.24-1.44-.24-.72,.39-1.44,.39-.72,.02-1.45,.02-.72-.16-1.45-.16-.72-.17-1.45-.17-.72,.14-1.45,.14-.72,.12-1.45,.12-.72-.07-1.45-.07c-.72,0-.72-.29-1.45-.29-.72,0-.72,.23-1.45,.23s-.72,.19-1.45,.19-.72-.35-1.44-.35-.72,.28-1.44,.28-.72-.27-1.45-.27-.72,.05-1.45,.05-.72,.03-1.45,.03-.73,.28-1.45,.28-.72-.11-1.45-.11-.73-.22-1.45-.22-.73,.1-1.45,.1-.76,.32-1.28-.19-.33-.53-.33-1.24,.17-.71,.17-1.42-.15-.71-.15-1.42,.03-.71,.03-1.42,.13-.71,.13-1.43-.05-.71-.05-1.42-.02-.71-.02-1.42,.2-.71,.2-1.42-.31-.71-.31-1.42,.33-.71,.33-1.42,0-.71,0-1.43-.23-.71-.23-1.43,.28-.71,.28-1.43-.28-.71-.28-1.42,.29-.71,.29-1.43-.26-.71-.26-1.43,0-.71,0-1.43-.08-.71-.08-1.43,.15-.71,.15-1.43,.1-.71,.1-1.43,.1-.71,.1-1.43-.4-.71-.4-1.43,.19-.71,.19-1.43,.1-.71,.1-1.43-.11-.71-.11-1.43,.03-.71,.03-1.43-.17-.72-.17-1.43,.13-.71,.13-1.43,.17-.71,.17-1.43-.33-.72-.33-1.43,.25-.71,.25-1.43-.07-.72-.07-1.43,.18-.72,.18-1.43-.79-1-.29-1.51,.79-.06,1.52-.06,.72,0,1.44,0,.72,.22,1.44,.22,.72-.1,1.44-.1,.72-.03,1.44-.03,.72,.03,1.44,.03,.72-.11,1.44-.11,.72,.32,1.44,.32,.72-.28,1.44-.28,.72,.15,1.44,.15,.72,.09,1.44,.09,.72-.26,1.44-.26,.72,.22,1.44,.22,.72-.22,1.44-.22,.72,.32,1.44,.32,.72,.03,1.44,.03,.72-.39,1.44-.39,.72-.06,1.44-.06,.72,.36,1.44,.36,.72,.09,1.45,.09,.72-.01,1.44-.01,.72-.16,1.44-.16,.72-.17,1.44-.17,.72,.13,1.44,.13,.72-.15,1.44-.15,.72-.04,1.44-.04,.72,.31,1.45,.31,.72-.18,1.45-.18,.72-.12,1.44-.12,.72,.11,1.44,.11,.72-.11,1.44-.11,.72,.33,1.44,.33,.72-.03,1.44-.03,.72,.08,1.44,.08,.72,.02,1.44,.02,.72-.23,1.44-.23,.72-.21,1.44-.21,.72,.4,1.45,.4,.72-.17,1.44-.17,.72-.19,1.44-.19,.72,.14,1.44,.14,.72-.21,1.44-.21,.72,.35,1.44,.35,.72-.22,1.45-.22,.72-.05,1.45-.05,.72,.38,1.44,.38,.72-.08,1.44-.08,.72-.04,1.44-.04,.72-.21,1.45-.21,.72,.25,1.45,.25,.72,.06,1.45,.06,.72-.37,1.45-.37,.72,.08,1.45,.08,.72,.3,1.45,.3,.72-.36,1.45-.36,.72,.37,1.45,.37,.72-.05,1.45-.05,.72-.36,1.44-.36,.72,.23,1.44,.23,.72,.19,1.45,.19,.72-.08,1.45-.08,.72-.08,1.45-.08,.73-.27,1.45-.27,.72,.11,1.45,.11,.73-.14,1.45-.14,.73,.22,1.45,.22,.99-.55,1.51-.04-.2,.76-.2,1.47,.07,.71,.07,1.42,.32,.71,.32,1.42-.47,.71-.47,1.42,.28,.71,.28,1.43,.16,.71,.16,1.42-.13,.71-.13,1.42-.18,.71-.18,1.42-.11,.71-.11,1.42,.21,.71,.21,1.42-.19,.71-.19,1.43,.29,.71,.29,1.43,0,.71,0,1.43,.15,.71,.15,1.42-.48,.71-.48,1.43,0,.71,0,1.43,.33,.71,.33,1.43-.1,.71-.1,1.43,.11,.71,.11,1.43-.18,.71-.18,1.43,.05,.71,.05,1.43,.14,.71,.14,1.43-.16,.71-.16,1.43,.05,.71,.05,1.43,.17,.71,.17,1.43-.35,.71-.35,1.43-.03,.72-.03,1.43-.02,.71-.02,1.43,.39,.71,.39,1.43,.03,.72,.03,1.43-.43,.71-.43,1.43,.3,.72,.3,1.43-.13,.72,.03,1.42c.18,.77,.48,1-.03,1.51Z"/><g class="cls-3"><path class="cls-2" d="M118.17,37.39c-.76,2.67-2.8,4.66-3.85,7.17-1.28,3-4.22,4.44-6.34,6.63-1.51,1.58-3.42,2.77-5.42,3.82-2.59,1.36-62.55,1.97-65.32,2.22-.49,.06-.98,.09-1.47,.12-1.55,.09-3.11,.04-4.66-.08-1.28-.07-2.57-.2-3.85-.33-3.03-.3-5.9-.69-8.67-1.89-2.06-.89-8.2,1.47-9.27-.64,.12-.1,.26-.22,.41-.34,.22-.19,.51-.42,.84-.69,.16-.13,.33-.27,.5-.4,.09-.08,.19-.16,.28-.24h.01c.09-.07,.18-.15,.28-.23,.83-.68,1.67-1.36,2.21-1.79,.13-.1,.23-.19,.32-.26,.1-.08,.17-.14,.21-.17,.02-.02,.04-.03,.06-.05,.02,0,.04-.03,.07-.05,2.34-1.96,5.05-3.41,7.02-5.98,.34-.43,.67-.86,1.04-1.27,1.89-2.25,4.16-4.29,6.71-5.91,.41-.26,.64-.78,.95-1.18,.22-.05,.44-.09,.66-.13,1.87,.05,3.74-.02,5.6-.08h.01c.78-.03,1.57-.06,2.35-.07,1.61-.03,54.5,0,61.61,.14,.4,.01,.66,.02,.75,.03,.77,.07,1.53-.02,2.28-.16,1.15-.19,2.28-.5,3.43-.45,3.23,.14,6.42,.37,9.64,.03,.83-.1,1.34-.02,1.59,.25,.36,.34,.32,.97,.02,1.98Z"/><path d="M103.92,19.14l-3.65-.03-21.39-.18c-2.22,.23-24.51-.15-26.7-.03-2.36,.11-4.7,.18-7.05,.23h-.33c-1.32,.01-2.65,.04-3.96,.06-2.44,.02-4.86,.04-7.28,.1-.57,.02-1.13,.03-1.69,.05-1.91,.05-3.82,.12-5.72,.24-2.09-.9-3.6-2.45-5.07-4.15-2.07-2.38-7.45-7.68-10.92-11.19-.89-.89-1.65-1.66-2.2-2.24h-.01c.71-.6,5.87-.44,6.62-.93,2.54-1.71,5.92,1.14,8.91,.38,.39-.1,.79-.19,1.19-.28,.4,.44,.82,.41,1.28,.07,1.96,.06,3.61-1.13,5.54-1.43,2.71-.4,5.28,.23,7.91,.21h.04c1.78,0,3.38,.99,4.69,1.99,.1,.07,.22,.15,.32,.24,2.98,2.19,60.07-2.52,62.51,.3,2.2,2.57-4.2,6.72-2.58,9.98,.07,.14-.54,6.45-.46,6.61Z"/><path class="cls-5" d="M44.01,28.17c0-.1-.04-.19-.06-.28-.25-1.2-.66-1.4-1.38-2.44-.21-.29-2.02-1.16-2.22-1.43-.79-.98-1.38-.7-2.38-1.5-.87-.7-2.29-1.41-3.02-2.32-.13-.16-.28-.31-.47-.4-.26-.13-.57-.3-.92-.51-2.96-1.73-8.82-5.93-10.08-7.4-2.37-2.71-9.53-5.08-12.84-7.66-.26-.19-.49-.39-.69-.59-.11-.11-.19-.25-.27-.38-.31-.53-.95-.94-1.72-1.26h-.01c-1.82-.76-4.31-.98-4.4-.92l-1.39,.31c-.73,.17-1.22,.85-1.13,1.59,.22,1.77,.83,4.66,.59,4.94-.34,.38-.66,.76-1.03,1.09-.07,.06-.13,.13-.2,.18-2.22,1.83,1.99,3.55,1.74,6.93-.04,.44-.11,.9-.19,1.37-.19,1.13,.63,2.64,.3,3.76-.86,2.8-1.64,10.81-1.2,14.6,.08,.82-.26,4.75-.49,5.32-4.51,11.42-6.95,18.71,8.06,13.7,.18-.06,.34-.15,.48-.27,.06-.05,.14-.12,.23-.19,.12-.1,.26-.22,.41-.34,.25-.2,.53-.43,.84-.69,.16-.13,.33-.27,.5-.4,.09-.08,.18-.15,.28-.24h.01c.09-.07,.18-.15,.28-.23,.83-.68,1.67-1.36,2.21-1.79,.13-.1,.23-.19,.32-.26,.1-.08,.17-.14,.21-.17,.02-.02,.04-.03,.06-.05,.02,0,.04-.03,.07-.05,.83-.57,6.76-4.77,8.01-5.49,1.34-.76,6.51-3.7,7.91-4.59,1.41-.9,4.28-3.39,5.75-4.28,.09-.05,.19-.12,.31-.19h.01c1.81-1.2,6.56-4.79,6.56-4.79,.91-.72,1.16-1.61,.95-2.68Z"/><path class="cls-1" d="M100.33,34.21c0,.71,.13,.71,.13,1.43v.07c-7.11-.14-60-.17-61.61-.14-.78,.01-1.57,.04-2.35,.06,1.81-1.19,6.56-4.78,6.56-4.78,.91-.72,1.16-1.61,.95-2.68,0-.1-.04-.19-.06-.28-.25-1.2-.66-1.4-1.38-2.44-.21-.29-1.71-.76-1.91-1.03-.79-.98-2.31-1.34-3.25-2.15s-1.74-1.16-2.47-2.07c-.13-.16-.28-.31-.47-.4-.26-.13-.57-.3-.92-.51,2.42-.06,4.84-.08,7.28-.1,1.31-.02,2.64-.05,3.96-.06h.33c2.35-.05,4.69-.12,7.05-.23,2.19-.12,24.48,.26,26.7,.03l21.39,.18c-.05,.23-.12,.4-.12,.83,0,.71,.29,.71,.29,1.43s0,.71,0,1.42,.15,.72,.15,1.43-.48,.71-.48,1.42-.01,.72-.01,1.43,.33,.71,.33,1.43-.09,.71-.09,1.42,.1,.72,.1,1.43-.18,.72-.18,1.43,.06,.71,.06,1.43Z"/><path class="cls-1" d="M23.28,30.08c-1.24,.01-1.38,.58-1.1,1.57,.12,.46,.22,.94,.22,1.4,.01,1.13-.75,1.71-1.7,2.02-1.08,.35-1.48-.47-1.84-1.24,0-.01-.01-.01-.01-.02-.58-1.26-2.3-1.39-3-.2-.07,.1-.13,.2-.18,.3-.62,.99-1.54,1.56-2.71,1.26-1.24-.29-1.11-1.4-1.01-2.34,.1-.88-.24-1.05-1.05-1.38-.67-.27-1.11-.52-1.35-.82-.03-.02-.06-.06-.08-.09-.02-.03-.06-.08-.07-.13,0,0-.01-.02-.01-.03-.21-.51,.1-1.12,.89-1.95,.16-.17,.34-.37,.54-.47,1.47-.75,1.51-1.55,.73-3.08-1.01-1.94-.1-2.93,2.07-2.3,1.28,.38,1.39-.23,1.78-.95,1.39-2.61,2.01-2.76,3.25-.3,.73,1.46,1.7,.96,2.63,1.03,.29,.01,.6,.05,.9,.09l.22,.05,.21,.03c.07,.02,.15,.03,.21,.07,.3,.08,.57,.21,.75,.38,.07,.08,.13,.14,.17,.23,.05,.07,.08,.14,.1,.23,.03,.09,.05,.2,.05,.3,0,.05,0,.09-.01,.14,0,.06,0,.12-.02,.17-.36,1.7,.02,2.66,1.03,3.99,.76,.96-.32,2.01-1.61,2.02Z"/></g></svg>