<?xml version="1.0" encoding="UTF-8"?><svg id="Layer_1" xmlns="http://www.w3.org/2000/svg" viewBox="0 0 60 60"><defs><style>.cls-1{fill:#0066c8;}.cls-2{fill:#fafcfe;}</style></defs><path class="cls-1" d="m57.96,33.29c0-.6.06-1.17-.14-1.8-.27-.86-.26-1.82-.33-2.74-.02-.19.04-.46.16-.57.4-.34.28-.69.09-1.07-.09-.17-.26-.32-.19-.55.36-1.1-.46-1.97-.65-2.96-.07-.39-.41-.69-.15-1.17.31-.58-.41-.9-.46-1.4-.09-.95-.63-1.75-1.04-2.55-.63-1.22-1-2.54-1.71-3.74-.38-.63-.67-1.26-1.29-1.69-.97-.68-1.71-1.65-2.37-2.56-.73-1-1.67-1.75-2.56-2.48-1-.82-2.05-1.68-3.34-2.15-.99-.37-1.7-1.26-2.72-1.68-1.05-.44-2.07-.93-3.23-1.04-.77-.08-1.54-.13-2.23-.57-.31-.2-.7-.16-1.08-.1-.82.14-1.62.11-2.4-.23-.25-.11-.51-.24-.82-.21-2.36.24-4.75.12-7.07.89-.93.31-1.93.54-2.94.65-.64.08-1.37-.02-1.94.42-.7.56-1.43,1.05-2.38,1.06-.1,0-.2.13-.29.19-1.08.71-2.05,1.55-3.07,2.31-.94.68-1.53,1.69-2.57,2.3-.55.31-1.23.8-1.53,1.44-.86,1.82-2.41,3.15-3.34,4.91-.29.56-.69.99-.84,1.68-.16.76-.72,1.46-1.2,2.11-.66.9-1.33,1.72-.87,2.95.12.33.02.7-.26,1.02-.75.84-1.12,1.83-.98,2.97.14.16.12.32.02.49.05.16.12.33-.02.49.28.27,0,.34-.17.44.26.11.28.31.18.54.13.42.28.83-.02,1.23.05.41.22.77.28,1.18.17,1.09.08,2.22.43,3.28.13.15.21.31.04.49-.12,1.26.14,2.43.84,3.48.31.47.12.78-.02,1.2-.14.41.8.47.5,1.1-.16.34.18.48.4.64.21-.04.28.05.24.25.05.97.76,1.64,1.15,2.45.44.91,1.48,1.41,1.74,2.43.29,1.13,1.03,2.02,1.79,2.74.99.94,1.95,1.96,3.1,2.7.49.32,1.05.5,1.42,1.01.32.45.79.67,1.33.89.56.22,1.19.27,1.69.69.53.46,1.19.7,1.88.84.4.08.79.16,1.16.37,1.85,1,3.88,1.38,5.94,1.69.52.08,1.03-.01,1.57.11,1.44.34,2.93.26,4.39.28,1.79.03,3.55-.3,5.33-.48.57-.06,1.02-.16,1.52-.57.69-.56,1.44-1.37,2.5-1.03.59.19.95-.01,1.29-.39.77-.86,1.86-1.28,2.85-1.61.75-.25,1.27-.57,1.76-1.1.34-.35.66-.84,1.08-.98,1.25-.41,1.69-1.57,2.5-2.4.2-.2.31-.47.49-.69,1.17-1.45,2.63-2.71,2.99-4.67,1.15-1.38,1.3-3.31,2.54-4.65.12-.13.11-.39.17-.58-.04-.22.08-.37.22-.5-.15-.53-.22-1.01-.1-1.61.23-1.14.76-2.22.75-3.41Z"/><g><path class="cls-2" d="m46.75,32.96c0-1.06-.11-2.09-.47-3.09-.42-1.15-.91-2.27-1.74-3.21.02-.25-.11-.37-.36-.35-.79-.71-1.65-1.31-2.66-1.66-.03-.03-.07-.05-.1-.08-.41-.1-.82-.2-1.23-.3-.04-.02-.07-.05-.11-.07-.15,0-.31-.01-.46-.02-.06-.02-.13-.05-.19-.07-2.63-.22-5.04.36-7.13,2.03-.08.08-.15.17-.23.25-.34.35-.68.69-1.02,1.04-.05,0-.11,0-.16,0-.01-.95-.02-1.9-.03-2.85-.03-.02-.05-.05-.08-.07-2.06,0-4.12,0-6.18-.01h-.09c-.46-.07-.28.3-.28.47-.01,7.11,0,14.22,0,21.33,0,.11-.02.24.03.32.05.08.18.11.27.16,2.21,0,4.42-.02,6.64-.02.03-.03.06-.07.09-.1,0-.19.02-.38.02-.57,0-3.59,0-7.19,0-10.78,0-.62.12-1.25.18-1.87.03-.03.05-.07.08-.1.54-1.8,1.95-2.89,3.81-2.96.32,0,.63,0,.95,0,.19,0,.37.01.56.02l.11.07c.09,0,.18.01.27.02.04.02.07.05.11.07,1.02.31,1.79.91,2.21,1.92.03.03.05.07.08.1.13.78.35,1.56.36,2.34.04,2.63.01,5.25.01,7.88,0,1.22,0,2.44.01,3.65.03.1.06.2.09.29,2.13,0,4.25.02,6.38.03.24,0,.31-.1.25-.32,0-.19.02-.38.02-.57,0-4.31,0-8.61,0-12.92Z"/><path class="cls-2" d="m20.67,24.81c-.06-.14-.21-.33-.32-.34-2.2-.01-4.4,0-6.6,0-.49-.02-.28.37-.28.56-.01,7.03-.01,14.07,0,21.1,0,.13-.04.28.02.37.07.11.23.17.35.25h6.86v-.54c0-6.99,0-13.97,0-20.96,0-.16.04-.33-.02-.47Z"/><path class="cls-2" d="m21.09,16.48c-.02-.12-.03-.25-.06-.36-.36-1.24-1.1-2.15-2.33-2.6-.03-.03-.07-.05-.1-.08-.85-.24-1.71-.31-2.55-.04-2.47.79-3.68,3.74-2.06,6.02.96,1.36,2.54,2.07,4.19,1.6,1.3-.37,2.28-1.12,2.73-2.44.02-.03.05-.06.07-.1l.11-.66c.02-.06.05-.13.07-.19,0-.32,0-.63,0-.95-.02-.06-.05-.13-.07-.19Z"/></g></svg>
