<?xml version="1.0" encoding="UTF-8"?><svg id="Layer_1" xmlns="http://www.w3.org/2000/svg" viewBox="0 0 143.93 143.94"><defs><style>.cls-1{fill:#fff;}.cls-2{fill:#56a7d9;}</style></defs><path class="cls-2" d="M143.81,76.84c-.4-3.71-2.18-7.33-.18-11.08,.12-.24-.05-.62-.09-.92-.45-3.55-1.35-6.97-2.81-10.25-.28-.62-.22-1.21-.05-1.84,.15-.49,.66-1.06,.28-1.48-1.49-1.73-1.43-4.07-2.55-5.97-2.32-3.92-3.68-8.32-5.86-12.36-1-1.86-1.98-3.46-3.59-4.78-2.23-1.84-3.41-4.7-6.01-6.21-.3-2.3-2.48-2.9-3.88-4.21-.26-.25-.73-.32-.94-.73-1.58-3.2-5.07-4.2-7.68-6.03-2.3-1.61-4.96-2.9-7.26-4.67-.7,.34-1.25,.18-1.65-.5-2.69-1.39-5.4-2.64-8.49-2.93-2.17-.21-4.37-.33-6.32-1.57-.83-.54-1.84-.24-2.77-.11-1.57,.2-3.26,.53-4.66-.17-2.88-1.45-5.81-.61-8.71-.63-2.83-.01-5.6,.65-8.38,.78-2.43,.13-4.69,.98-6.81,1.65-2.28,.73-4.65,.99-6.9,1.41-2.11,.4-3.82,1.19-5.48,2.31-.42,.29-.73,.77-1.28,.83-3.97,.41-6.55,3.41-9.4,5.58-3.06,2.35-5.76,5.22-9.15,7.2,.13,.95-.62,1.33-1.19,1.84-.65,.66-1.29,1.31-1.93,1.97-.15,.28-.29,.55-.44,.82-1.21,2.87-3.29,5.15-5.2,7.53-1.77,2.2-3.86,4.29-4.78,6.96-1.15,3.27-2.26,6.46-5.03,8.75-.4,.59-.24,1.47-.99,1.87-.53,1.19-.46,2.31-.01,3.55,.2,.57,.66,1.44,.05,2.07-1.74,1.81-2.09,4.29-3.13,6.43-.2,.38-.91,.66-.21,1.24,1.15,.94,.71,2.28,.79,3.49,.17,2.76-.59,5.6,.65,8.3,.29,.62,.41,1.52,.21,2.17-1.07,3.5,1.62,6.98,.04,10.48-.12,.25,.18,.86,.46,1.1,1.64,1.48,1.12,4.04,2.81,5.49,.25,.21,.3,.79,.26,1.19-.22,2.26,1.1,4,1.99,5.86,.26,.57,.4,.9-.09,1.31-.04,.22-.08,.45-.12,.66,.69,.79,1.37,1.58,2.06,2.38,.58-.03,.67,.29,.55,.78,1.14,2.93,3.51,5.04,5.19,7.6,.67,1.02-.15,1.7,.51,2.64,2.51,3.6,6.19,6.01,8.98,9.33,1.24,1.49,3.01,2.79,5.12,3.49,.96,.32,2.19,1.07,2.72,2.38,.49,1.2,1.78,1.72,2.89,2.07,3.38,1.1,6.27,3.59,10.05,3.62,.09,0,.22,.05,.28,.12,1.78,2.27,4.58,2.3,7.01,2.89,1.36,.33,2.77,.62,4.04,1.15,1.32,.55,2.53,.74,3.97,.77,1.84,.04,3.71-.05,5.57,.4,2.1,.51,4.4,1.06,6.46,.71,2.09-.34,4.15,.77,6.19-.28,.63-.33,1.72-.17,2.46,.12,1.19,.49,2.31,.3,3.38-.09,2.1-.78,4.28-.92,6.48-.96,1.4-.03,2.44-.53,3.59-1.47,1.95-1.6,3.96-3.63,6.98-2.53,.25,.15,.49,.29,.74,.44,1.06-.84,2.11-1.7,3.18-2.55,2.18-1.72,4.75-2.61,7.37-3.3,1.04-.28,1.61-.88,2.28-1.49,1.23-1.12,2.48-2.23,3.59-3.46,.77-.86,1.99-.51,2.72-1.43,2.43-3.05,4.82-6.13,7.41-9.03,3.91-4.38,5.8-9.82,8.32-14.95,.79-1.58,.77-3.74,2.03-4.75,2.32-1.86,2.38-4.15,2.27-6.67-.09-2.13,.46-4.13,1.18-6.11,.95-2.67,1.21-5.49,.92-8.21Zm-28.93,34.26c-1.16,2.77-4.12,4.7-7.22,4.66-1.08-.01-2.19-.33-2.92-1.08-2.42-2.5-5.44-4.42-7.18-7.54-.15-.26-.41-.49-.66-.66-3.52-2.47-6.54-5.47-9.35-8.67-.79-.9-1.76-1.12-2.84-.49-.36,.21-.77,.34-1.14,.55-5.45,3.16-11.3,4.05-17.57,3.91-4.2-.09-8.21-1.23-12.37-1.4-1.1-.04-2.09-.91-3.13-1.41-5.41-2.67-9.82-6.48-13.27-11.38-3.14-4.45-6.17-8.98-6.48-14.75-.08-1.64-.65-3.27-.44-4.86-.67-4.88-.05-9.51,1.6-14.02,.73-1.97,1.6-3.83,3.05-5.39,.34-.38,.62-.83,.9-1.27,4.4-7.01,10.85-11.47,18.26-14.75,1.9-.84,3.97-1.2,5.93-1.97,1.39-.53,3-1.06,4.85-.4,1.7,.61,3.76,.26,5.65,.21,3.46-.09,6.72,.84,9.74,2.28,5.95,2.84,11.34,6.54,15.33,11.95,.3,.42,.53,.9,.77,1.36,3.23,5.94,5.44,12.23,5.45,19.04,0,6.42-.66,12.78-4.17,18.43-.9,1.44-.26,2.36,.7,3.29,2.68,2.57,5.45,5.02,7.93,7.83,2.18,2.5,4.79,4.67,7.18,7.04,2.73,2.71,3.1,5.41,1.4,9.48Z"/><path class="cls-1" d="M113.49,101.62c-2.39-2.36-5-4.54-7.18-7.04-2.48-2.81-5.25-5.25-7.93-7.83-.96-.92-1.6-1.85-.7-3.29,3.51-5.65,4.17-12.01,4.17-18.43-.01-6.81-2.22-13.1-5.45-19.04-.24-.46-.46-.94-.77-1.36-3.99-5.41-9.37-9.11-15.33-11.95-3.02-1.44-6.28-2.38-9.74-2.28-1.89,.05-3.95,.4-5.65-.21-1.85-.66-3.46-.13-4.85,.4-1.95,.77-4.03,1.12-5.93,1.97-7.41,3.27-13.86,7.74-18.26,14.75-.28,.44-.55,.88-.9,1.27-1.45,1.56-2.32,3.42-3.05,5.39-1.65,4.52-2.27,9.14-1.6,14.02-.21,1.58,.36,3.22,.44,4.86,.32,5.77,3.34,10.3,6.48,14.75,3.45,4.9,7.86,8.71,13.27,11.38,1.04,.5,2.03,1.37,3.13,1.41,4.16,.17,8.17,1.31,12.37,1.4,6.27,.15,12.12-.75,17.57-3.91,.37-.21,.78-.34,1.14-.55,1.08-.63,2.05-.41,2.84,.49,2.81,3.21,5.82,6.21,9.35,8.67,.25,.17,.52,.4,.66,.66,1.74,3.12,4.77,5.04,7.18,7.54,.73,.75,1.84,1.07,2.92,1.08,3.1,.04,6.06-1.89,7.22-4.66,1.7-4.07,1.33-6.77-1.4-9.48Zm-24.52-30.67c-.55,2.24-1.49,4.36-1.85,6.65-.3,1.95-1.78,3.41-3.04,4.73-4.03,4.25-8.45,7.79-14.95,7.08-2.85-.32-5.88,.84-8.63-.2-3.96-1.49-8.62-1.86-10.83-6.51-.75-1.56-2.31-2.72-3.38-4.15-1.8-2.38-2.54-5.02-2.88-8.08-.46-4.04,.25-7.88,.57-11.8,.25-3.06,2.38-5.33,4.03-7.72,2.55-3.66,6.21-5.74,10.59-6.54,.92-.16,1.89-.12,2.71-.74,2.03-1.52,4.16-1.32,6.57-.82,3.1,.65,6.03,1.81,9.04,2.68,1.54,.45,2.97,1.58,4.22,2.68,5.9,5.07,7.97,10.1,8.4,17.81,.32,1.47-.16,3.21-.58,4.92Z"/><path class="cls-2" d="M88.97,70.95c-.55,2.24-1.49,4.36-1.85,6.65-.3,1.95-1.78,3.41-3.04,4.73-4.03,4.25-8.45,7.79-14.95,7.08-2.85-.32-5.88,.84-8.63-.2-3.96-1.49-8.62-1.86-10.83-6.51-.75-1.56-2.31-2.72-3.38-4.15-1.8-2.38-2.54-5.02-2.88-8.08-.46-4.04,.25-7.88,.57-11.8,.25-3.06,2.38-5.33,4.03-7.72,2.55-3.66,6.21-5.74,10.59-6.54,.92-.16,1.89-.12,2.71-.74,2.03-1.52,4.16-1.32,6.57-.82,3.1,.65,6.03,1.81,9.04,2.68,1.54,.45,2.97,1.58,4.22,2.68,5.9,5.07,7.97,10.1,8.4,17.81,.32,1.47-.16,3.21-.58,4.92Z"/></svg>