<?xml version="1.0" encoding="UTF-8"?><svg id="Layer_1" xmlns="http://www.w3.org/2000/svg" viewBox="0 0 60 60"><defs><style>.cls-1{fill:#fff;}.cls-2{fill:#039;}</style></defs><path class="cls-2" d="m57.96,33.29c0-.6.06-1.17-.14-1.8-.27-.86-.26-1.82-.33-2.74-.02-.19.04-.46.16-.57.4-.34.28-.69.09-1.07-.09-.17-.26-.32-.19-.55.36-1.1-.46-1.97-.65-2.96-.07-.39-.41-.69-.15-1.17.31-.58-.41-.9-.46-1.4-.09-.95-.63-1.75-1.04-2.55-.63-1.22-1-2.54-1.71-3.74-.38-.63-.67-1.26-1.29-1.69-.97-.68-1.71-1.65-2.37-2.56-.73-1-1.67-1.75-2.56-2.48-1-.82-2.05-1.68-3.34-2.15-.99-.37-1.7-1.26-2.72-1.68-1.05-.44-2.07-.93-3.23-1.04-.77-.08-1.54-.13-2.23-.57-.31-.2-.7-.16-1.08-.1-.82.14-1.62.11-2.4-.23-.25-.11-.51-.24-.82-.21-2.36.24-4.75.12-7.07.89-.93.31-1.93.54-2.94.65-.64.08-1.37-.02-1.94.42-.7.56-1.43,1.05-2.38,1.06-.1,0-.2.13-.29.19-1.08.71-2.05,1.55-3.07,2.31-.94.68-1.53,1.69-2.57,2.3-.55.31-1.23.8-1.53,1.44-.86,1.82-2.41,3.15-3.34,4.91-.29.56-.69.99-.84,1.68-.16.76-.72,1.46-1.2,2.11-.66.9-1.33,1.72-.87,2.95.12.33.02.7-.26,1.02-.75.84-1.12,1.83-.98,2.97.14.16.12.32.02.49.05.16.12.33-.02.49.28.27,0,.34-.17.44.26.11.28.31.18.54.13.42.28.83-.02,1.23.05.41.22.77.28,1.18.17,1.09.08,2.22.43,3.28.13.15.21.31.04.49-.12,1.26.14,2.43.84,3.48.31.47.12.78-.02,1.2-.14.41.8.47.5,1.1-.16.34.18.48.4.64.21-.04.28.05.24.25.05.97.76,1.64,1.15,2.45.44.91,1.48,1.41,1.74,2.43.29,1.13,1.03,2.02,1.79,2.74.99.94,1.95,1.96,3.1,2.7.49.32,1.05.5,1.42,1.01.32.45.79.67,1.33.89.56.22,1.19.27,1.69.69.53.46,1.19.7,1.88.84.4.08.79.16,1.16.37,1.85,1,3.88,1.38,5.94,1.69.52.08,1.03-.01,1.57.11,1.44.34,2.93.26,4.39.28,1.79.03,3.55-.3,5.33-.48.57-.06,1.02-.16,1.52-.57.69-.56,1.44-1.37,2.5-1.03.59.19.95-.01,1.29-.39.77-.86,1.86-1.28,2.85-1.61.75-.25,1.27-.57,1.76-1.1.34-.35.66-.84,1.08-.98,1.25-.41,1.69-1.57,2.5-2.4.2-.2.31-.47.49-.69,1.17-1.45,2.63-2.71,2.99-4.67,1.15-1.38,1.3-3.31,2.54-4.65.12-.13.11-.39.17-.58-.04-.22.08-.37.22-.5-.15-.53-.22-1.01-.1-1.61.23-1.14.76-2.22.75-3.41Z"/><path class="cls-1" d="m40.46,46.92c-.34,0-.64-.25-.96-.3s-.66-.02-.97-.12-.69-.07-.98-.22-.52-.43-.78-.63-.4-.53-.62-.77-.64-.32-.83-.59-.19-.65-.34-.95-.3-.58-.39-.9-.34-.61-.38-.94-.06-.68-.05-1.01c.01-.27,0-.21-.18-.28-.29-.11-.55-.31-.85-.42s-.63-.1-.93-.22-.5-.46-.79-.57-.61-.16-.91-.27-.54-.34-.84-.45-.69.04-.98-.07-.54-.34-.84-.45-.6-.19-.89-.3-.59-.21-.89-.32-.52-.41-.81-.52-.6-.19-.89-.3-.6-.19-.89-.3c-.33-.13-.73-.46-1.04-.41-.28.04-.38.68-.63.9-.24.22-.64.24-.89.42-.27.19-.46.48-.74.62s-.65.08-.95.17-.56.37-.88.41-.64-.03-.96-.04-.6-.15-.92-.21c-.3-.06-.66.06-.97-.04-.32-.11-.59-.33-.87-.47-.3-.15-.52-.4-.78-.59s-.46-.44-.68-.68-.61-.33-.8-.61-.38-.55-.52-.85-.28-.61-.37-.93c-.08-.31.02-.67-.02-1.01-.04-.32-.19-.63-.19-.93s.04-.65.09-.95.18-.62.28-.91.22-.6.36-.87.46-.45.64-.7.4-.46.62-.68.39-.48.64-.67.45-.45.73-.6.64-.08.94-.18.52-.49.83-.55.65.2.97.2.64-.27.95-.23c.34.04.61.4.93.5s.63.2.93.35.54.35.82.55.62.28.86.53c.23.23.34.12.63,0,.29-.14.58-.29.87-.42s.67-.08.97-.22.51-.44.8-.58.67-.1.96-.24.6-.23.9-.37.55-.35.84-.49.58-.28.88-.42.56-.32.86-.46.56-.34.85-.48.67-.1.96-.23.5-.45.8-.59.68-.06.98-.19.49-.49.78-.63c.3-.14.42-.11.38-.45-.04-.34-.04-.69-.01-1.03s.09-.68.18-1.01.3-.61.44-.92.18-.68.37-.96.43-.54.66-.79.52-.45.79-.65.59-.32.9-.47c.29-.15.56-.34.86-.44s.64-.09.96-.14.63-.22.95-.22.66-.05.98,0,.58.35.89.45.66.07.95.21.52.37.79.56.51.38.74.61.53.39.72.65.31.57.46.86.4.53.51.84c.11.32.23.65.29.97s-.17.68-.17,1.01.21.68.15,1.01-.27.63-.37.94-.21.63-.37.93-.39.54-.59.8-.48.44-.72.67-.41.52-.68.71-.49.49-.79.64-.7,0-1.03.09-.61.15-.95.18c-.32.03-.61.12-.92.11s-.61-.05-.92-.11-.59-.14-.88-.25-.68-.01-.95-.16-.4-.53-.65-.72-.52-.33-.74-.56c-.16-.16-.34-.24-.57-.13-.3.14-.54.41-.83.54s-.64.18-.94.32-.58.31-.88.45-.62.22-.92.35-.56.36-.85.5-.64.18-.94.32-.56.35-.86.48-.61.25-.91.39-.64.17-.94.31-.58.32-.87.46-.59.28-.89.42-.56.36-.85.5-.56.35-.86.49c-.23.11-.4.1-.32.39.05.16.21.38.17.54-.09.4-.08.56.27.69.31.12.64.17.95.28s.55.41.86.52.66.12.97.24.65.15.96.26.63.21.94.32.61.24.92.36.6.27.91.39.62.24.92.36.64.18.95.3.51.5.82.62.69.05,1,.17.62.22.93.34c.31.12.38.04.58-.19.23-.25.47-.51.72-.72s.55-.41.84-.58.6-.35.91-.47.71.03,1.03-.04.64-.21.97-.22.67,0,1,.04.67.06,1,.16.6.29.91.44c.3.15.58.32.84.5s.62.29.86.52.25.65.44.91.36.52.51.81.54.49.64.8.03.68.09,1,.02.65.02.98-.11.63-.16.96.16.71.06,1.02-.4.55-.55.84-.44.47-.64.74-.3.57-.54.81c-.23.22-.48.42-.74.6s-.58.24-.86.38-.46.56-.76.66-.67-.04-.98.01-.62.2-.94.19Z"/></svg>