<?xml version="1.0" encoding="UTF-8"?><svg id="Layer_1" xmlns="http://www.w3.org/2000/svg" viewBox="0 0 60 60"><defs><style>.cls-1{fill:#fff;}</style></defs><path d="m57.96,33.29c0-.6.06-1.17-.14-1.8-.27-.86-.26-1.82-.33-2.74-.02-.19.04-.46.16-.57.4-.34.28-.69.09-1.07-.09-.17-.26-.32-.19-.55.36-1.1-.46-1.97-.65-2.96-.07-.39-.41-.69-.15-1.17.31-.58-.41-.9-.46-1.4-.09-.95-.63-1.75-1.04-2.55-.63-1.22-1-2.54-1.71-3.74-.38-.63-.67-1.26-1.29-1.69-.97-.68-1.71-1.65-2.37-2.56-.73-1-1.67-1.75-2.56-2.48-1-.82-2.05-1.68-3.34-2.15-.99-.37-1.7-1.26-2.72-1.68-1.05-.44-2.07-.93-3.23-1.04-.77-.08-1.54-.13-2.23-.57-.31-.2-.7-.16-1.08-.1-.82.14-1.62.11-2.4-.23-.25-.11-.51-.24-.82-.21-2.36.24-4.75.12-7.07.89-.93.31-1.93.54-2.94.65-.64.08-1.37-.02-1.94.42-.7.56-1.43,1.05-2.38,1.06-.1,0-.2.13-.29.19-1.08.71-2.05,1.55-3.07,2.31-.94.68-1.53,1.69-2.57,2.3-.55.31-1.23.8-1.53,1.44-.86,1.82-2.41,3.15-3.34,4.91-.29.56-.69.99-.84,1.68-.16.76-.72,1.46-1.2,2.11-.66.9-1.33,1.72-.87,2.95.12.33.02.7-.26,1.02-.75.84-1.12,1.83-.98,2.97.14.16.12.32.02.49.05.16.12.33-.02.49.28.27,0,.34-.17.44.26.11.28.31.18.54.13.42.28.83-.02,1.23.05.41.22.77.28,1.18.17,1.09.08,2.22.43,3.28.13.15.21.31.04.49-.12,1.26.14,2.43.84,3.48.31.47.12.78-.02,1.2-.14.41.8.47.5,1.1-.16.34.18.48.4.64.21-.04.28.05.24.25.05.97.76,1.64,1.15,2.45.44.91,1.48,1.41,1.74,2.43.29,1.13,1.03,2.02,1.79,2.74.99.94,1.95,1.96,3.1,2.7.49.32,1.05.5,1.42,1.01.32.45.79.67,1.33.89.56.22,1.19.27,1.69.69.53.46,1.19.7,1.88.84.4.08.79.16,1.16.37,1.85,1,3.88,1.38,5.94,1.69.52.08,1.03-.01,1.57.11,1.44.34,2.93.26,4.39.28,1.79.03,3.55-.3,5.33-.48.57-.06,1.02-.16,1.52-.57.69-.56,1.44-1.37,2.5-1.03.59.19.95-.01,1.29-.39.77-.86,1.86-1.28,2.85-1.61.75-.25,1.27-.57,1.76-1.1.34-.35.66-.84,1.08-.98,1.25-.41,1.69-1.57,2.5-2.4.2-.2.31-.47.49-.69,1.17-1.45,2.63-2.71,2.99-4.67,1.15-1.38,1.3-3.31,2.54-4.65.12-.13.11-.39.17-.58-.04-.22.08-.37.22-.5-.15-.53-.22-1.01-.1-1.61.23-1.14.76-2.22.75-3.41Z"/><path class="cls-1" d="m46.57,45.93c-3.24,0-6.13.03-9.02-.04-.36,0-.8-.45-1.06-.8-2.62-3.51-5.21-7.04-7.82-10.57-.93-1.26-.95-1.27-1.98-.15-3.1,3.4-6.2,6.8-9.29,10.2-1.36,1.49-1.66,1.59-3.97,1.17,2.07-2.25,4.08-4.44,6.1-6.63,2.03-2.2,4.02-4.44,6.1-6.59.74-.76.69-1.27.07-2.07-3.57-4.64-7.08-9.33-10.61-14-.39-.52-.77-1.04-1.36-1.83,1.37,0,2.51-.01,3.64,0,1.94.03,4.17-.5,5.75.27,1.54.75,2.42,2.85,3.57,4.37,1.65,2.17,3.29,4.34,5.18,6.82.52-.67.88-1.21,1.31-1.68,2.72-2.98,5.47-5.93,8.2-8.9q1.54-1.67,4.09-1.35c-.35.41-.63.76-.94,1.09-3.49,3.75-6.96,7.51-10.48,11.22-.68.72-.69,1.2-.11,1.98,3.9,5.32,7.75,10.67,11.62,16.01.27.37.52.75,1,1.44Zm-29.33-29.63c.53.78.79,1.2,1.1,1.61,6.19,8.3,12.39,16.6,18.6,24.89.43.57.95,1.4,1.51,1.46,1.44.16,2.93-.04,4.63-.1-.34-.6-.46-.87-.63-1.11-6.47-8.69-12.94-17.37-19.43-26.05-.2-.27-.48-.65-.74-.66-1.53-.06-3.07-.03-5.02-.03Z"/></svg>