<?xml version="1.0" encoding="UTF-8"?><svg id="Layer_1" xmlns="http://www.w3.org/2000/svg" viewBox="0 0 279.96 89.38"><path d="m93.21,8.73c.5-.25,1.24-.44,1.72-.91,1.59-1.55,3.42-2.24,5.64-2.57,2.05-.3,3.95-1.45,6.1-1.64.82-.07,1.55-.22,2.41,0,1.83.46,3.71.72,5.62.39.46-.08.99-.14,1.4.01,1.74.66,3.59,1.19,5.13,2.18,1.35.87,2.62,1.91,3.93,2.87,1.32.97,2.66,2.11,3.52,3.47.82,1.29,2.41,1.62,3.03,2.85.68,1.34,1.99,1.59,3.03,2.31.9.62,1.71,1.33,2.04,2.39.61,1.99,2.04,3.4,3.27,4.97,2.4,3.09,4.14,6.56,5.51,10.23,1.02,2.74,2.33,5.39,2.37,8.4,1.39,1.8.79,3.78.67,5.77-.11,1.74.05,3.51.28,5.24.21,1.59.02,3.05-.64,4.49-.94,2.06-1.45,4.24-1.81,6.47-.36,2.22-.85,4.42-2.57,6.09-.17.16-.38.36-.41.57-.38,2.37-1.91,3.99-3.56,5.53-.86.8-1.74,1.58-2.65,2.31-.73.59-1.73.97-2.26,1.69-1.28,1.75-3.11,2.49-5.01,3.13-3.34,1.14-6.56,2.68-10.12,3.17-1.37.19-2.67.97-4.04,1.14-1.62.19-3.3.11-4.93-.04-1.99-.19-4.02-.26-5.9-1.11-.32-.15-.67-.32-1.01-.32-1.84,0-3.46-.54-4.95-1.66-.53-.4-1.32-.47-2.16-.75-1.89.58-3.97,1.06-5.91,1.87-3.16,1.32-6.44,1.49-9.75,1.3-2.21-.13-4.45.09-6.63-.57-1.22-.37-2.52-.02-3.84-.25-3.62-.63-6.52-2.64-9.56-4.41-.48-.28-.91-.76-1.19-1.25-1.06-1.84-2.31-3.62-2.99-5.6-.83-2.42-1.48-4.98-.54-7.59.55-1.55,1.02-3.14,1.58-4.87-.68-.87-1.33-1.85-2.12-2.69-1.95-2.09-3.16-4.67-4.72-7.02-.38-.58-.64-1.29-.76-1.97-.35-1.97-.65-3.95-.88-5.94-.38-3.35.89-6.24,2.63-8.98.31-.49.63-.99.93-1.49.05-.09.02-.23.02-.36-1.6-.81-3.32-.36-4.87-.09-1.81.32-3.78.4-5.41,1.52-.63.43-1.27.34-2,.3-1.25-.05-2.5.31-3.76.41-1.16.09-2.35-.05-3.49.13-2.44.4-4.83.98-7.36.73-1.12-.11-2.28.33-3.43.44-2.71.25-5.42.07-8.12-.09-1.29-.08-2.61.03-3.88-.15-2.19-.32-5.18-1.78-6.91-3.27-1.37-1.18-2.33-2.67-2.93-4.38-1.28-3.7-1.47-7.36.44-10.94.33-.62.45-1.35.78-1.97.26-.5.61-1.04,1.07-1.32.74-.46,1.14-1.07,1.57-1.81,1.61-2.81,3.91-4.85,6.97-6.1,1.38-.56,2.57-1.59,3.84-2.42.39-.25.76-.75,1.14-.74,2.68.05,4.9-1.51,7.37-2.05,4.48-.99,8.86-2.53,13.52-2.61.24,0,.49,0,.7-.09,2.25-.96,4.6-.73,6.94-.64,1.28.04,2.61.27,3.84-.38,2.39.75,4.84-.24,7.3.38,2.71.68,5.53,1.35,8.39.51.31-.09.7.02,1.04.1,3.78.92,7.56,1.82,11.33,2.78,1.6.4,3.14,1.09,4.76,1.33,3.91.59,7.29,2.73,11.23,3.63Zm10.11,70.58c.2.33.23.47.31.52,2.15,1.18,4.58.89,6.88,1.28.96.16,2.03-.44,3.07-.62.69-.12,1.4-.11,2.11-.13.45-.01.93.14,1.35.03,2.72-.71,5.48-1.2,8.07-2.48,4.08-2,7.65-4.61,10.73-7.92.23-.25.4-.6.47-.93.47-2.22,1.42-4.22,2.52-6.19.51-.9.77-2.01.9-3.05.34-2.7.65-5.41.76-8.12.1-2.6-.24-5.21-.97-7.7-.83-2.82-1.87-5.59-2.85-8.37-.15-.44-.39-.87-.68-1.24-1.74-2.2-2.09-5.28-4.54-7.07-.45-.33-.39-1.32-.68-1.95-.43-.96-.73-2.18-1.48-2.74-1.12-.82-1.65-1.96-2.44-2.96-.98-1.25-1.48-3.05-3.47-3.26-.19-.02-.41-.27-.52-.46-.68-1.17-1.65-1.96-2.96-2.33-1.74-2.13-4.5-1.87-6.75-2.82-1.12-.47-2.54-.53-3.77-.37-2.45.3-4.86.87-7.28,1.36-.45.09-1.01.22-1.28.54-1.79,2.17-4.37,3.45-5.94,5.96-1.4,2.24-2.5,4.43-3.08,7.02-.32,1.47.22,2.81-.07,4.21-.48,2.37.61,4.5,1.71,6.35,1.82,3.09,4.77,5.19,7.98,6.73,1.86.89,3.91.91,5.84-.1.88-.46,1.62-1.13,1.81-2.09.83-4.25,2.55-8.49.26-13.21-.77-.74-1.87-1.8-2.93-2.81,0-.86-.16-1.62.03-2.25.51-1.64,1.44-3.17,3.21-3.48,1.68-.3,3.26.31,4.31,1.88.58.88,1.39,1.59,1.58,2.73.14.83.58,1.55,1.67,1.78.58-.63,1.18-1.34,1.84-1.99.68-.67,1.51-.61,2.15.17.36.44.76.97.86,1.5.35,1.89.32,3.8-.59,5.55-.6,1.15-1.24,2.31-2.05,3.31-.92,1.14-1.39,2.27-1.52,3.79-.16,1.82-.73,3.63-1.13,5.45-.27,1.25-.98,2.39-2.06,3.24-.74.58-1.36,1.33-2.08,1.93-2.29,1.9-4.66,3.65-7.86,3.57-.3,0-.61.28-.9.42.74,2.22.85,2.46.19,4.44-.47,1.42-1.27,2.74-1.87,4,1.58,2.83,4.24,4.83,5.42,7.57-.39,1.74-.93,3.21-.99,4.7-.04,1.01-.21,1.82-.8,2.58-1,1.3-1.75,2.74-2.51,4.01Zm-13.95-66c-1.17-.79-2.33-.84-3.47-1.07-4.61-.93-9.35-1.26-13.76-3.08-.64-.26-1.39-.33-2.09-.36-2.82-.11-5.65-.17-8.47-.27-.46-.02-.96-.04-1.37-.23-1.69-.79-3.41-.83-5.17-.32-.33.1-.75.19-1.04.07-1.76-.71-3.5-.21-5.26-.05-1.64.16-3.33.34-4.95.15-2.05-.24-4.01.09-5.99.39-2.04.31-4,1.66-6.17.56-.09-.05-.24-.02-.35.02-2.23.74-4.47,1.44-6.68,2.23-2.11.75-4.19,1.58-6.28,2.39-.65.25-1.31.52-1.91.87-2.22,1.3-3.74,3.61-6.31,4.44-.2.06-.37.3-.48.5-.9,1.66-1.9,3.28-2.64,5-.47,1.08-.37,2.34.14,3.46.34.74.79,1.43,1.23,2.22,4.73,1.58,9.51,2.78,14.58,1.68.57-.12,1.18-.15,1.76-.08,1.44.18,2.82.05,4.18-.48,1.03-.4,2.01-.22,3.08.18,1.12.41,2-1.2,3.32-.74,1.32.47,2.53.29,3.59-.77.25-.25.87-.15,1.32-.17.58-.02,1.25.19,1.72-.03,1.66-.81,3.47-.5,5.19-.83.68-.13,1.46.16,2.1-.04,3.54-1.1,7.25-1.08,10.87-1.61,1.84-.27,3.72-.41,5.63.07,1.33.34,2.79.36,4.17-.32.58-.28,1.41-.27,2.07-.12,2.51.59,5,1.29,7.5,1.94,1.24.32,2.4,1.04,3.73.73.6-2.9,1.07-5.81,1.83-8.64.77-2.85,2.97-5,4.4-7.71Zm7.7,41.2c-.82-1.76-1.06-3.51-2.3-4.92-1.99-2.27-4.34-3.92-7.16-4.9-1.22-.43-2.49-.73-3.69-1.21-1.02-.4-1.99-.55-3.1-.44-2.61.27-5.19-.05-7.69-.88-.5-.17-.93-.51-1.54-.84,1.81-2.24,3.51-4.11,6.37-4.35.19-.02.36-.35.6-.61-1.7-.36-3.19-.99-4.64-.9-1.77.11-3.24-.18-4.34-1.25-2.96.38-5.51,1.25-8.03,2.32-2.28.97-3.88,2.6-5.16,4.66-.78,1.26-1.04,2.63-.94,4.05.1,1.4.37,2.78.53,3.9,1.16,1.62,2.19,3.05,3.08,4.3,1.91,1.03,3.66,2,5.43,2.92.72.38,1.47.81,2.25.96,2.66.52,5.3,1.04,7.81,2.14,1.51.66,3.15.85,4.85.82,2.57-.05,5.15.16,7.73.23.69.02,1.39-.06,2.06-.18.92-.16,1.83-.36,2.72-.63.66-.19,1.29-.48,1.91-.77,1.78-.84,2.09-2.76,3.25-4.41Zm-32.23,22.82c.82.37,1.74.89,2.73,1.21,1.56.5,3.25.68,4.74,1.32,1.35.58,2.72.78,4.13.92,2.22.23,4.45.5,6.65-.19,4.08.22,7.53-1.62,10.96-3.43,1.23-.65,2.15-1.92,3.4-2.53,2.89-1.4,2.85-3.89,2.14-6.36-.33-1.14-.39-2.72-2.46-2.98-1.44,1.23-3.38,2.05-5.52,2.36-1.16.17-2.31.38-3.47.54-1.63.23-3.26.51-4.9.61-1.65.1-3.31,0-4.96-.03-1.66-.04-3.32-.03-4.96-.21-2.33-.24-4.65-.63-6.91-.94-2.13,3.04-2.53,5.48-1.56,9.72Z"/><g><path d="m224.49,69.26c-.15-.47-.22-.84-.38-1.16-.35-.69-.72-1.34.02-2.03.15-.14.12-.49.14-.75.03-.46-.16-1.06.07-1.35.62-.79,1.34-1.55,2.16-2.14.56-.4,1.88.68,2.36,1.53.96,1.69.82,3.63,1.44,5.37.29.81.8,1.61,1.39,2.24.66.71,1.43.06,2.06-.24.2-.1.25-.78.16-1.15-.4-1.69-.89-3.36-1.3-5.05-.27-1.13.58-1.79,1.25-2.44.55-.53,1.18-1.07,2.11-.55.81.45,1.82.62,2.5,1.2.62.54,1.05,1.42,1.32,2.23.36,1.09.4,2.27.72,3.38.31,1.08,1.09.5,1.77.38.83-.15.69-.64.56-1.17-.31-1.3-.67-2.59-.94-3.9-.25-1.21.61-2.71,1.77-3.25.87-.4,2.03-.04,2.94.81,1.08,1.02,1.58,2.22,1.53,3.7-.01.46.23.94.41,1.38.68,1.65,1.36,3.3,2.11,4.92.11.24.71.51.91.41.4-.2,1.01-.69.96-.97-.33-2.18.09-4.46-.9-6.56-.17-.35.07-.95.25-1.38.3-.74.22-1.33-.29-1.98-.87-1.11-1.32-2.35-1.32-3.84,0-1-.66-1.97-.86-2.99-.19-.96-.29-1.98-.23-2.96.07-1.11,2.17-2.98,3.26-3.02.29-.01.66.17.86.39,1.59,1.72,3.1,3.48,3.39,5.96.06.54.39,1.04.57,1.57.37,1.13.73,2.26,1.07,3.39.23.78.52,1.56.61,2.37.23,2.06.38,4.13.53,6.19.12,1.64.21,3.28.28,4.92.01.28-.03.67-.21.84-1.38,1.32-2.7,2.73-4.26,3.82-.73.51-1.94.27-2.9.52-.98.25-1.83.14-2.63-.44-.94-.69-1.85-1.43-2.81-2.09-.23-.15-.79-.19-.93-.03-.83.9-1.79,1.43-2.99,1.08-1.28-.36-2.51-.87-3.76-1.33-.2-.07-.36-.26-.54-.4-.63.47-1.17,1.07-1.84,1.33-2.58,1.03-5.21,1.2-7.68-.31-1.12-.68-2.16-.97-3.37-.41-.07.03-.15.05-.22.03-2.08-.46-4.15.55-6.14.24-1.73-.27-3.68-.59-4.74-2.5-1.01-1.83-2.26-3.52-3.29-5.34-.32-.57-.22-1.37-.4-2.04-.33-1.22-.8-2.41-1.07-3.65-.24-1.09-.22-2.24-.46-3.33-.28-1.25-.72-2.48-1.12-3.7-.38-1.16-.85-2.28-1.18-3.45-.26-.92,2.03-3.36,2.97-3.24,1.32.17,4.37,2.47,4.67,3.92.62,3,1.38,5.98,2.09,8.96.03.11.11.23.09.32-.68,2.77,1.16,4.79,2.1,7.06.33.79.91,1.14,1.91.91,1.04-.24,2.16-.18,3.47-.26Z"/><path d="m207.09,60.28c-.46-1.39-1.47-2.38-2.67-3.23-.89-.64-2.02-.82-2.96-.14-.89.64-.46,1.5-.26,2.27.16.58.49,1.11.65,1.69.29,1,.7,2.03.69,3.04,0,.59-.71,1.19-1.19,1.71-.08.08-.78-.15-.89-.38-.53-1.08-.94-2.21-1.44-3.3-.24-.54-.49-1.09-.85-1.55-.94-1.18-1.91-2.33-2.93-3.44-.33-.36-.84-.86-1.25-.84-1.5.07-2.98-.25-4.5.56-1.83.98-2.89,2.38-3.57,4.21-.31.82-.61,1.63-.89,2.47-.12.34-.29.77-.17,1.06,1,2.49,2.06,4.96,4.81,6.08,1.23.51,2.46,1.05,3.77,1.61-.64.77-1.07,1.67-1.79,2.08-1.06.6-2.14,1.32-3.49,1.28-.37,0-.75.3-1.14.42-.31.1-.71.3-.95.19-.91-.43-1.66.07-2.47.3-.23.07-.52.22-.7.14-1.02-.46-1.95-.13-2.93.14-.39.12-.86-.05-1.29-.1-1.29-.17-2.57-.31-3.86-.52-.51-.08-1.02-.3-1.5-.53-.42-.22-.85-.49-1.18-.82-.79-.79-1.71-1.53-2.21-2.48-.65-1.23-1.07-2.62-1.38-3.99-.18-.84-.31-1.96.11-2.59,1.1-1.69,1.82-3.65,3.56-4.95,1.41-1.05,1.45-2.95.34-4.09-1.19-1.22-4.31-1.38-5.65-.27-1.04.85-2.36,1.42-2.87,2.83-.08.22-.4.33-.56.53-.61.7-1.26,1.38-.97,2.47.07.27-.09.63-.19.94-.46,1.35-.94,2.69-1.39,4.04-.06.17-.05.37,0,.55.19.97.35,1.95.62,2.9.9,3.1,2.74,5.69,4.89,7.99,1.14,1.23,2.86,1.9,4.17,3,1.11.93,2.43,1.14,3.7,1.41,2.19.45,4.48-.02,6.65.92.76.33,1.83.16,2.72-.02,1.27-.26,2.6.1,3.83-.66,1.19-.73,2.54-1.03,3.98-1.26,1.66-.26,3.31-1.08,4.74-2.03,1.1-.74,1.88-2,2.73-3.08.47-.6.83-1.28,1.18-1.95.62-1.16,1.11-2.44,2.81-2.23.16.02.36-.1.49-.22,1.18-1.14,2.53-2.17,3.49-3.49.78-1.07,1.53-2.48,1.51-3.73-.02-1.65-.76-3.3-1.31-4.92Zm-12.4,6.3c-.24.18-.84.24-1.06.07-.91-.7-2.04-1.37-2.52-2.33-.36-.73.14-1.89.26-2.86.33-.06.67-.12,1-.17.84,1.42,1.7,2.84,2.48,4.3.13.25.02.84-.17,1Z"/><path d="m271.24,67.84c.24.62.37,1.3.73,1.84,1.15,1.74,1.31,3.67.68,5.52-.4,1.18-1.33,2.23-2.78,2.53-.69.14-1.17.7-2.08.36-2.63-.96-3.01-3.2-3.45-5.46-.04-.22.01-.48-.09-.66-1.03-1.76-.9-3.77-1.31-5.66-.55-2.56-1.27-5.09-1.89-7.63-.33-1.34-.74-2.64-.25-4.07.19-.55-.17-1.27-.09-1.89.05-.44.32-.98.66-1.23.58-.43,1.28-.82,1.97-.94,1.04-.18,2.99,1.24,3.4,2.23.66,1.62,1.37,3.21,2,4.84.28.72.4,1.5.61,2.24.65,2.27,1.31,4.54,1.95,6.81.1.35.11.73.17,1.1-.07.02-.15.05-.22.07Z"/><path d="m234.09,53.42c-.16-1.34-.38-2.68-.44-4.03-.02-.6.1-1.42.49-1.78,1.28-1.17,2.21-.88,2.92.75.54,1.23,1.06,2.48,1.65,3.68.13.26.56.37.85.54.14-.31.43-.65.38-.93-.2-1.14-.48-2.27-.77-3.4-.26-1,.33-1.88,1.6-2.29,1.13-.37,2.02-.04,2.24,1.03.39,1.84,1.46,3.57,1.05,5.56-.06.29.03.66-.12.87-1.31,1.78-2.86,3.24-5.19,3.51-.11.01-.25,0-.33-.06-1.38-1.15-2.59-.06-3.83.32-1.67.51-3.77-.26-4.62-1.79-.2-.36-.36-.78-.65-1.04-1.56-1.41-1.25-3.3-1.33-5.07-.03-.74,1.81-2.33,2.46-2.25.71.08,1.53,1.39,1.57,2.52.06,1.55.79,2.79,1.68,3.96.13-.03.27-.06.4-.09Z"/><path d="m186.16,54.84c-1.5-.19-2.87-.38-4.25-.54-.73-.08-1.5.02-2.19-.17-1.7-.46-2.27-1.93-2.53-3.43-.23-1.31.66-2.25,1.61-3.04.22-.19.52-.39.79-.4,1.67-.06,3.35-.04,5.02-.1.9-.03,1.8-.13,2.69-.28,2.68-.48,5.17,1.47,5.28,4.19.03.81-1.33,2.82-2.27,3.05-1.41.35-2.87.51-4.15.72Z"/><path d="m210.96,82.09c-.57,2.14-.99,4.34-2.72,5.66-2.76,2.1-5.72.98-7.08-2.33-.08-.2.06-.48.09-.72.07-.48.25-.97.17-1.42-.25-1.56.51-2.7,1.49-3.71.57-.59,1.26-1.09,1.96-1.51.49-.29,1.26-.69,1.62-.5,1.16.6,2.77.49,3.43,1.92.41.87.7,1.79,1.03,2.64Z"/></g><g><path d="m217.83,24.78c-.44-2.14-1.46-4.02-3.06-5.52-.64-.6-1.44-1.55-2.11-1.5-2.09.17-4.46-.9-6.25,1.09-.13.14-.4.27-.59.24-1.38-.17-2.28.48-2.99,1.56-.18.27-.51.46-.68.74-.4.66-.77,1.33-1.11,2.02-.2.38-.33.8-.47,1.2-.32.92-1.48,1.5-.99,2.81.09.25-1.03,1.05-1.69,1.43-.24.13-.81-.18-1.14-.4-.88-.61-.78-1.58-.96-2.51-.57-3.01-1.31-5.99-1.96-9-.21-.94-.27-1.92-.52-2.85-.48-1.83-.73-3.82-2.62-4.87-.33-.2-.77-.35-1.13-.3-1.43.17-3.07,1.95-2.74,3.47.44,2.09.8,4.19,1.15,6.29.2,1.23.59,2.52.43,3.72-.17,1.24.36,2.21.52,3.31.12.83-.09,2.08-.66,2.54-1.06.86-2.48,1.3-3.76,1.87-.36.16-.77.21-1.17.23-.47.04-.96-.08-1.42.01-1.68.32-3.2,1.29-5.06,1-1-.15-2.01.14-2.93-.61-.47-.37-.99-.67-1.52-.97-.56-.33-1.12-.65-1.6-1.07-.3-.26-.58-.55-.84-.86-.49-.57-.91-1.2-1.27-1.85-.18-.35.37-1.07.52-1.63.05-.18.11-.34.19-.5.47-1,1.39-1.62,2.56-1.81.16-.02.32-.05.48-.08.49-.08.98-.17,1.44-.32.34-.11.67-.24.97-.41,1.67-.93,3.24-.39,5.05-.15,0,0,1.2.29.64,1.52-.16.37-.46.62-.81.77h0c-.17.81-1.71.07-3.51.2-.8.05-1.65.56-2.34,1.1-.6,1.15-.65,2.32-.51,3.28.88,1.44,2.53,2.69,3.86,2.27,1.55-.52,3.25-.66,4.61-1.83.71-.62,2.02-.59,2.62-1.25.88-.97,1.48-2.26,1.99-3.49.31-.72.45-1.65.28-2.41-.43-1.86-1.68-3.31-2.92-4.7-.33-.38-.93-.6-1.45-.73-1.47-.36-2.95-.75-4.46-.93-1.09-.12-2.25-.02-3.34.19-1.47.28-2.9.98-4.38,1.11-2.19.2-3.43,1.73-4.87,3-.63.55-1.21,1.23-1.56,1.97-.53,1.09-1.09,2.28-1.2,3.46-.12,1.38-.32,2.88.41,4.21.59,1.05,1.19,2.08,1.87,3.08,1.13,1.69,2.6,2.9,4.44,3.93,1.84,1.04,3.74,1.77,5.69,2.43.96.32,2.05.28,3.08.32,1.11.05,2.24.65,3.31-.31.89-.8,2-.65,3.16-.63.86.02,1.74-.65,2.6-1.04.41-.18.77-.46,1.18-.64,1.15-.49,2.48-.74,3.41-1.5.8-.64,1.28-.67,2-.17.39.28.73.68,1.16.87.71.31,1.47.71,2.19.67,1.13-.06,2.23-.45,3.34-.7.19-.05.38-.08.53-.17,1.01-.6,2-1.24,3.01-1.85.16-.09.45-.12.6-.04.91.54,1.92,1,2.7,1.7,1.04.92,2.07,1.48,3.46,1.06.81-.25,1.6-.55,2.41-.8,1.67-.52,2.51-2.05,3.6-3.17.87-.9,1.31-2.39,1.53-3.68.18-1.09-.17-2.29-.4-3.42Zm-7.1,4.47c-1.27.27-3.05-.67-3.18-1.94-.07-.63.5-1.39.94-1.96.47-.61,1.14-1.07,1.67-1.57,1.3.53,1.87,1.48,2.18,2.76.41,1.61.07,2.35-1.61,2.71Z"/><path d="m260.16,30.2c-.02-.67-.52-1.44-.31-1.96.68-1.69-.35-3.07-.66-4.54-.38-1.88-1.47-3.62-1.91-5.51-.56-2.42-1.34-4.64-2.96-6.57-.91-1.08-2.73-1.34-3.87-.53-1.17.85-.85,2.02-.68,3.03.38,2.05.91,4.09,1.53,6.09.93,2.95,1.88,5.89,2.31,8.96.04.22,0,.46,0,1.04-.63-.58-1.01-.96-1.44-1.29-.72-.56-1.46-1.08-2.17-1.65-.54-.42-1.12-.83-1.54-1.35-1.25-1.55-2.26-3.34-3.71-4.67-1.08-.98-2.02-2.02-2.86-3.19-.53-.73-.42-2.21.34-2.49,1.6-.58,2.18-2.12,3.32-3.11.41-.36.73-.84,1.1-1.27.62-.69,1.12-1.62,1.9-2.04,1.89-1.05,3.04-2.7,4.11-4.43.52-.85.62-1.82-.14-2.71-.74-.87-1.47-1.76-2.81-1.35-1.1.33-2.2.7-3.28,1.1-.27.09-.48.33-.71.54-.57.53-1.15,1.05-1.68,1.62-.75.8-1.44,1.65-2.17,2.46-.65.69-1.24,1.55-2.03,1.97-1.24.67-2.48,1.16-2.57,2.83-.01.15-.37.29-.56.43-.68.51-1.54.9-1.97,1.57-.42.64-.37,1.57-.57,2.37-.38,1.48-.29,2.76,1.26,3.55.26.13.48.38.65.63,1.33,1.86,2.64,3.74,4.02,5.71-.92.26-2,.57-2.91.82-1.09-1.03-2.15-1.98-3.14-2.99-1.33-1.37-2.81-2.46-4.77-2.78-.79-.13-1.6-.77-2.3-.64-1.15.23-2.27.8-3.3,1.4-.55.32-.86,1.02-1.3,1.54-.78.88-1.83,1.62-1.51,3.06.03.14-.09.4-.22.48-1.06.67-.79,1.66-.56,2.57.27,1.03.85,2,1.02,3.04.33,1.98,2.11,3.66,4.1,3.66,1.65-.01,3.31-.01,4.96.01.37.01.73.17,1.18.27-.46.57-.72,1.15-1.16,1.38-1.21.62-2.47,1.46-3.75,1.55-1.7.12-3.51-.17-5.14-.7-1.53-.5-2.87-1.56-4.32-2.33-1.43-.76-3.5.46-3.78,2.07-.21,1.34.27,2.38,1.12,3.25.6.62,1.41,1.03,2.12,1.53.74.51,1.42,1.19,2.24,1.48,1.35.5,2.79.85,4.21,1.08,1.19.2,2.43.21,3.65.17.58-.01,1.15-.44,1.74-.48,1.63-.1,3.13-.61,4.43-1.55.74-.55,1.21-1.63,1.99-1.9,1.43-.48,2.22-1.46,2.9-2.62.76-1.29,1.47-2.62,1.42-4.23-.01-.42.3-.97.64-1.25,1.02-.81,2.26-1.38,3.15-2.29,1.1-1.13,1.48-1.22,2.73-.23,1.75,1.36,3.64,2.54,5.36,3.93,1.85,1.49,4.07,1.47,6.21,1.86.17.03.4,0,.54-.09,1.23-.7,2.21-1.66,2.42-3.11.16-1.05.13-2.14.09-3.2Zm-32.42.24c-.78.11-1.38-.34-1.33-1.4.02-.71-.32-1.44-.46-2.03.33-.56.63-1.08,1.01-1.72,1.82.87,4.27,1.03,4.7,3.8-.92,1.49-2.55,1.14-3.92,1.35Z"/><path d="m270.41,36.91c-1.27.47-2.65,1.29-3.84.05-.91-.95-1.64-2.11-2.25-3.28-1.95-3.71-2.48-7.87-3.59-11.85-.43-1.54-.83-3.09-1.23-4.64-.34-1.33-.87-2.67-.89-4.01-.01-.78.65-1.85,1.33-2.26.71-.43,1.7-.68,2.73.03,1.86,1.27,2.12,3.34,2.93,5.12.69,1.5,1.25,3.05,1.78,4.61.29.84.37,1.75.6,2.62.11.43.34.82.51,1.23.37.85.8,1.67,1.09,2.54.52,1.59.93,3.22,1.4,4.82.4,1.36.86,2.7-.23,4-.22.25-.23.68-.34,1.04Z"/></g></svg>