<?xml version="1.0" encoding="UTF-8"?><svg id="Layer_1" xmlns="http://www.w3.org/2000/svg" viewBox="0 0 279.96 89.38"><path d="M93.21,8.73c.5-.25,1.24-.44,1.72-.91,1.59-1.55,3.42-2.24,5.64-2.57,2.05-.3,3.95-1.45,6.1-1.64,.82-.07,1.55-.22,2.41,0,1.83,.46,3.71,.72,5.62,.39,.46-.08,.99-.14,1.4,.01,1.74,.66,3.59,1.19,5.13,2.18,1.35,.87,2.62,1.91,3.93,2.87,1.32,.97,2.66,2.11,3.52,3.47,.82,1.29,2.41,1.62,3.03,2.85,.68,1.34,1.99,1.59,3.03,2.31,.9,.62,1.71,1.33,2.04,2.39,.61,1.99,2.04,3.4,3.27,4.97,2.4,3.09,4.14,6.56,5.51,10.23,1.02,2.74,2.33,5.39,2.37,8.4,1.39,1.8,.79,3.78,.67,5.77-.11,1.74,.05,3.51,.28,5.24,.21,1.59,.02,3.05-.64,4.49-.94,2.06-1.45,4.24-1.81,6.47-.36,2.22-.85,4.42-2.57,6.09-.17,.16-.38,.36-.41,.57-.38,2.37-1.91,3.99-3.56,5.53-.86,.8-1.74,1.58-2.65,2.31-.73,.59-1.73,.97-2.26,1.69-1.28,1.75-3.11,2.49-5.01,3.13-3.34,1.14-6.56,2.68-10.12,3.17-1.37,.19-2.67,.97-4.04,1.14-1.62,.19-3.3,.11-4.93-.04-1.99-.19-4.02-.26-5.9-1.11-.32-.15-.67-.32-1.01-.32-1.84,0-3.46-.54-4.95-1.66-.53-.4-1.32-.47-2.16-.75-1.89,.58-3.97,1.06-5.91,1.87-3.16,1.32-6.44,1.49-9.75,1.3-2.21-.13-4.45,.09-6.63-.57-1.22-.37-2.52-.02-3.84-.25-3.62-.63-6.52-2.64-9.56-4.41-.48-.28-.91-.76-1.19-1.25-1.06-1.84-2.31-3.62-2.99-5.6-.83-2.42-1.48-4.98-.54-7.59,.55-1.55,1.02-3.14,1.58-4.87-.68-.87-1.33-1.85-2.12-2.69-1.95-2.09-3.16-4.67-4.72-7.02-.38-.58-.64-1.29-.76-1.97-.35-1.97-.65-3.95-.88-5.94-.38-3.35,.89-6.24,2.63-8.98,.31-.49,.63-.99,.93-1.49,.05-.09,.02-.23,.02-.36-1.6-.81-3.32-.36-4.87-.09-1.81,.32-3.78,.4-5.41,1.52-.63,.43-1.27,.34-2,.3-1.25-.05-2.5,.31-3.76,.41-1.16,.09-2.35-.05-3.49,.13-2.44,.4-4.83,.98-7.36,.73-1.12-.11-2.28,.33-3.43,.44-2.71,.25-5.42,.07-8.12-.09-1.29-.08-2.61,.03-3.88-.15-2.19-.32-5.18-1.78-6.91-3.27-1.37-1.18-2.33-2.67-2.93-4.38-1.28-3.7-1.47-7.36,.44-10.94,.33-.62,.45-1.35,.78-1.97,.26-.5,.61-1.04,1.07-1.32,.74-.46,1.14-1.07,1.57-1.81,1.61-2.81,3.91-4.85,6.97-6.1,1.38-.56,2.57-1.59,3.84-2.42,.39-.25,.76-.75,1.14-.74,2.68,.05,4.9-1.51,7.37-2.05,4.48-.99,8.86-2.53,13.52-2.61,.24,0,.49,0,.7-.09,2.25-.96,4.6-.73,6.94-.64,1.28,.04,2.61,.27,3.84-.38,2.39,.75,4.84-.24,7.3,.38,2.71,.68,5.53,1.35,8.39,.51,.31-.09,.7,.02,1.04,.1,3.78,.92,7.56,1.82,11.33,2.78,1.6,.4,3.14,1.09,4.76,1.33,3.91,.59,7.29,2.73,11.23,3.63Zm10.11,70.58c.2,.33,.23,.47,.31,.52,2.15,1.18,4.58,.89,6.88,1.28,.96,.16,2.03-.44,3.07-.62,.69-.12,1.4-.11,2.11-.13,.45-.01,.93,.14,1.35,.03,2.72-.71,5.48-1.2,8.07-2.48,4.08-2,7.65-4.61,10.73-7.92,.23-.25,.4-.6,.47-.93,.47-2.22,1.42-4.22,2.52-6.19,.51-.9,.77-2.01,.9-3.05,.34-2.7,.65-5.41,.76-8.12,.1-2.6-.24-5.21-.97-7.7-.83-2.82-1.87-5.59-2.85-8.37-.15-.44-.39-.87-.68-1.24-1.74-2.2-2.09-5.28-4.54-7.07-.45-.33-.39-1.32-.68-1.95-.43-.96-.73-2.18-1.48-2.74-1.12-.82-1.65-1.96-2.44-2.96-.98-1.25-1.48-3.05-3.47-3.26-.19-.02-.41-.27-.52-.46-.68-1.17-1.65-1.96-2.96-2.33-1.74-2.13-4.5-1.87-6.75-2.82-1.12-.47-2.54-.53-3.77-.37-2.45,.3-4.86,.87-7.28,1.36-.45,.09-1.01,.22-1.28,.54-1.79,2.17-4.37,3.45-5.94,5.96-1.4,2.24-2.5,4.43-3.08,7.02-.32,1.47,.22,2.81-.07,4.21-.48,2.37,.61,4.5,1.71,6.35,1.82,3.09,4.77,5.19,7.98,6.73,1.86,.89,3.91,.91,5.84-.1,.88-.46,1.62-1.13,1.81-2.09,.83-4.25,2.55-8.49,.26-13.21-.77-.74-1.87-1.8-2.93-2.81,0-.86-.16-1.62,.03-2.25,.51-1.64,1.44-3.17,3.21-3.48,1.68-.3,3.26,.31,4.31,1.88,.58,.88,1.39,1.59,1.58,2.73,.14,.83,.58,1.55,1.67,1.78,.58-.63,1.18-1.34,1.84-1.99,.68-.67,1.51-.61,2.15,.17,.36,.44,.76,.97,.86,1.5,.35,1.89,.32,3.8-.59,5.55-.6,1.15-1.24,2.31-2.05,3.31-.92,1.14-1.39,2.27-1.52,3.79-.16,1.82-.73,3.63-1.13,5.45-.27,1.25-.98,2.39-2.06,3.24-.74,.58-1.36,1.33-2.08,1.93-2.29,1.9-4.66,3.65-7.86,3.57-.3,0-.61,.28-.9,.42,.74,2.22,.85,2.46,.19,4.44-.47,1.42-1.27,2.74-1.87,4,1.58,2.83,4.24,4.83,5.42,7.57-.39,1.74-.93,3.21-.99,4.7-.04,1.01-.21,1.82-.8,2.58-1,1.3-1.75,2.74-2.51,4.01ZM89.37,13.31c-1.17-.79-2.33-.84-3.47-1.07-4.61-.93-9.35-1.26-13.76-3.08-.64-.26-1.39-.33-2.09-.36-2.82-.11-5.65-.17-8.47-.27-.46-.02-.96-.04-1.37-.23-1.69-.79-3.41-.83-5.17-.32-.33,.1-.75,.19-1.04,.07-1.76-.71-3.5-.21-5.26-.05-1.64,.16-3.33,.34-4.95,.15-2.05-.24-4.01,.09-5.99,.39-2.04,.31-4,1.66-6.17,.56-.09-.05-.24-.02-.35,.02-2.23,.74-4.47,1.44-6.68,2.23-2.11,.75-4.19,1.58-6.28,2.39-.65,.25-1.31,.52-1.91,.87-2.22,1.3-3.74,3.61-6.31,4.44-.2,.06-.37,.3-.48,.5-.9,1.66-1.9,3.28-2.64,5-.47,1.08-.37,2.34,.14,3.46,.34,.74,.79,1.43,1.23,2.22,4.73,1.58,9.51,2.78,14.58,1.68,.57-.12,1.18-.15,1.76-.08,1.44,.18,2.82,.05,4.18-.48,1.03-.4,2.01-.22,3.08,.18,1.12,.41,2-1.2,3.32-.74,1.32,.47,2.53,.29,3.59-.77,.25-.25,.87-.15,1.32-.17,.58-.02,1.25,.19,1.72-.03,1.66-.81,3.47-.5,5.19-.83,.68-.13,1.46,.16,2.1-.04,3.54-1.1,7.25-1.08,10.87-1.61,1.84-.27,3.72-.41,5.63,.07,1.33,.34,2.79,.36,4.17-.32,.58-.28,1.41-.27,2.07-.12,2.51,.59,5,1.29,7.5,1.94,1.24,.32,2.4,1.04,3.73,.73,.6-2.9,1.07-5.81,1.83-8.64,.77-2.85,2.97-5,4.4-7.71Zm7.7,41.2c-.82-1.76-1.06-3.51-2.3-4.92-1.99-2.27-4.34-3.92-7.16-4.9-1.22-.43-2.49-.73-3.69-1.21-1.02-.4-1.99-.55-3.1-.44-2.61,.27-5.19-.05-7.69-.88-.5-.17-.93-.51-1.54-.84,1.81-2.24,3.51-4.11,6.37-4.35,.19-.02,.36-.35,.6-.61-1.7-.36-3.19-.99-4.64-.9-1.77,.11-3.24-.18-4.34-1.25-2.96,.38-5.51,1.25-8.03,2.32-2.28,.97-3.88,2.6-5.16,4.66-.78,1.26-1.04,2.63-.94,4.05,.1,1.4,.37,2.78,.53,3.9,1.16,1.62,2.19,3.05,3.08,4.3,1.91,1.03,3.66,2,5.43,2.92,.72,.38,1.47,.81,2.25,.96,2.66,.52,5.3,1.04,7.81,2.14,1.51,.66,3.15,.85,4.85,.82,2.57-.05,5.15,.16,7.73,.23,.69,.02,1.39-.06,2.06-.18,.92-.16,1.83-.36,2.72-.63,.66-.19,1.29-.48,1.91-.77,1.78-.84,2.09-2.76,3.25-4.41Zm-32.23,22.82c.82,.37,1.74,.89,2.73,1.21,1.56,.5,3.25,.68,4.74,1.32,1.35,.58,2.72,.78,4.13,.92,2.22,.23,4.45,.5,6.65-.19,4.08,.22,7.53-1.62,10.96-3.43,1.23-.65,2.15-1.92,3.4-2.53,2.89-1.4,2.85-3.89,2.14-6.36-.33-1.14-.39-2.72-2.46-2.98-1.44,1.23-3.38,2.05-5.52,2.36-1.16,.17-2.31,.38-3.47,.54-1.63,.23-3.26,.51-4.9,.61-1.65,.1-3.31,0-4.96-.03-1.66-.04-3.32-.03-4.96-.21-2.33-.24-4.65-.63-6.91-.94-2.13,3.04-2.53,5.48-1.56,9.72Z"/><g><g><path d="M203.26,28.74c1.19,1.25,2.03,2.27,3.33,3.03,1.92,1.11,3.56,2.81,3.77,5.27,.06,.65-.08,1.42-.39,1.99-.99,1.77-5.36,2.32-6.29-.19-.58-1.57-1.75-2.43-3.1-3.24-1-.6-1.84-1.46-2.77-2.18-.44-.34-.93-.63-1.58-1.06-.28,2.49-.57,4.69-.76,6.9-.2,2.37-1.2,3.51-3.37,3.64-2.37,.15-2.79-.13-3.88-2.24-.79-1.52-1.17-3.05-.71-4.76,.36-1.36,.65-2.72,.53-4.18-.08-.91,.05-1.96,.45-2.78,1.05-2.2,.81-4.57,1.22-6.85,.22-1.22-.33-2.63,.86-3.61-.24-1.29,.06-2.48,.42-3.72,.27-.93,.83-1.49,1.58-1.76,3.1-1.1,6.2-2.39,9.61-1.19,.65,.23,1.4,.2,2.11,.24,2.55,.13,4.44,1.53,6.09,3.27,1.25,1.32,1.09,3.15,.8,4.69-.51,2.71-1.66,5.13-4.49,6.37-1.15,.5-2.12,1.45-3.41,2.38Zm-6.44-4.57c1.44-.56,2.73-1.02,3.99-1.55,1.91-.8,3.51-2.57,4.01-4.39-2.66-1.01-5.34-1.39-8-.4v6.34Z"/><path d="M216.23,14.85c.77-.53,1.56-1.03,2.31-1.59,1.35-1.02,2.68-1.85,4.51-1.12,1.3,.51,2.53-.27,3.75-.57,1.47,.5,2.91,.99,4.35,1.48,.45,.15,.91,.3,1.31,.53,1.08,.62,1.38,2.22,.47,3.04-.68,.61-1.52,1.18-2.38,1.42-1.35,.37-2.78,.49-4.18,.64-.82,.08-1.66-.05-2.48,.02-1.11,.1-1.95,.88-2.21,1.99-.08,.34-.11,.7-.12,1.06-.02,.57,0,1.15,0,1.96,1.43-.27,2.64-.59,3.86-.71,1.29-.13,2.6-.08,3.9-.1,2.47-.05,3.42,.91,3.54,3.33,.07,1.44-.71,2.41-1.81,2.75-2.07,.64-4.02,2-6.43,1.23-.85-.27-1.86-.04-2.65-.04-.88,.92-.56,1.96-.91,2.8-.3,.73-.61,1.46-.98,2.36,1.56,.39,2.8,.26,3.97-.38,.62-.34,1.16-.86,1.81-1.1,2.14-.81,4.16-.58,5.96,.92,.65,.54,.85,1.66,.26,2.23-1.58,1.54-2.91,3.31-5.26,4-2.58,.76-5.04,1.97-7.52,3.05-1.56,.68-2.99,.62-4.28-.53-.71-.63-1.39-1.28-2.05-1.96-.52-.53-.73-1.17-.64-1.94,.09-.8,.15-1.63,.06-2.42-.18-1.69-.11-3.29,.81-4.79,.24-.38,.44-.91,.39-1.33-.34-2.47,.67-4.86,.38-7.32-.04-.33,.08-.69,.16-1.02,.7-2.62,1.4-5.23,2.1-7.85Z"/><path d="M186.71,24.63c-1.75,1.53-3.25,2.85-4.78,4.15-1.82,1.56-3.91,2.73-6.19,3.31-1.51,.38-2.89,.98-4.3,1.55-1.91,.77-2.38,1.16-1.96,3.12,.68,3.18-.89,4.84-3.33,6.28-1.01,.6-1.95,.77-3.03,.49-1.46-.38-1.87-.81-1.99-2.48-.15-2.12-.35-4.24-.25-6.35,.06-1.35,.36-2.82,1.01-3.99,1.76-3.15,2.48-6.6,3.26-10.02,.38-1.67,1.29-3.03,1.84-4.57,.15-.42,.55-.77,.89-1.09,.9-.85,7.09-3.49,8.4-3.42,2.1,.11,4.17-.54,6.32,.24,1.69,.61,2.99,1.6,3.79,3,1.1,1.92,2,3.99,1.05,6.37-.43,1.07-.5,2.28-.73,3.42Zm-14.98-6.16c0,1.45-.04,2.74,.02,4.02,.03,.56,.28,1.11,.48,1.88,.87-.19,1.66-.27,2.4-.53,1.43-.5,2.82-1.12,4.25-1.64,.92-.33,1.67-.79,2.16-1.68,.48-.86,.76-1.7,.21-2.88-3.04-.86-6.08-.17-9.52,.83Z"/><path d="M244.45,26.89c.7-.76,1.35-1.41,1.91-2.12,.35-.45,.82-1.02,.79-1.51-.09-1.39,.81-2.14,1.59-3.02,.45-.51,1.17-1.13,1.13-1.66-.15-2.16,1.33-3.2,2.71-4.25,2.41-1.84,5.32-.64,5.9,2.36,.32,1.65,.33,3.13-.87,4.63-1.07,1.34-1.6,3.1-2.4,4.67-.32,.63-.59,1.32-1.06,1.81-.84,.89-1.25,1.9-1.54,3.08-.41,1.72-1.15,3.27-2.31,4.71-.85,1.05-1.49,2.51-1.59,3.84-.12,1.54-1.08,2.28-1.96,3.13-.88,.85-2.03,.9-3.28,.88-2.91-.05-4.75-1.45-5.49-4.13-.82-2.94-1.43-5.93-2-8.93-.14-.76,.4-1.64,.3-2.42-.18-1.39-.59-2.76-.93-4.13-.14-.56-.59-1.14-.51-1.65,.3-2.08,.73-4.14,1.16-6.2,.09-.44,.37-.87,.64-1.25,.92-1.23,2.76-1.32,3.66-.1,.55,.74,.74,1.74,1.28,2.48,1.45,1.99,2.11,4.14,2,6.62-.04,1,.53,2.02,.86,3.15Z"/><path d="M262.55,40.19c-.7,.6-1.37,1.27-2.13,1.82-2.13,1.53-3.91,1-5.46-.4-.35-.31-.65-.69-.91-1.08-1.43-2.11-1.13-3.7,.93-5.16,2.83-2.01,5.86-1.07,7.07,2.18,.12,.33,.21,.68,.28,1.03,.07,.35,.1,.7,.22,1.61Z"/></g><g><path d="M240.44,76.28c-2.49,.29-3.5-.18-4.56-2.4-.61-1.3-1.45-2.67-1.45-4.03-.03-1.98-.38-3.93-.39-5.88,0-1.17,.46-2.37,.84-3.51,.29-.86,.57-1.67,.15-2.7-1.31,1.7-2.65,3.23-3.2,5.32-.36,1.38-1.1,2.65-1.59,3.98-.52,1.46-1.09,2.9-1.07,4.51,.01,1.42-.72,2.52-1.89,3.33-1.96,1.38-4.33,.82-5.25-1.38-.45-1.1-.67-2.35-.74-3.54-.13-1.99-.04-4-.07-5.99-.01-.53-.15-1.06-.22-1.53-.63-.18-.95,0-1.18,.46-1.24,2.33-2.7,4.53-3.87,6.92-.95,1.92-2.35,3.78-4.54,4.69-1.55,.64-2.72-.18-2.55-1.8,.08-.79,.15-1.57,.21-2.35,.01,0,.01-.01,.01-.01,1.04-1.43,1.84-2.84,2.08-4.63h0c.38-.7,.72-1.39,.98-2.12,1-2.84,2.19-5.54,4.46-7.65,.38-.36,.56-.92,.82-1.39,1.03-1.84,2.45-3.13,4.65-3.51,3.79,1.18,4.97,4.22,5.35,7.93,1.06-2.13,2.61-3.69,4.04-5.36,1.41-1.64,3.18-2.67,4.78-3.94h3.16c.74,1.07,1.52,2.15,2.23,3.26,.67,1.07,.77,2.19,.53,3.5-.6,3.29-.61,6.62,.25,9.88,.33,1.27-.14,2.41-.07,3.59,.06,1.07,.71,2.1,.82,3.18,.17,1.71-1,2.97-2.7,3.16Z"/><path d="M210.3,56.79c-.32-1.16-.91-2.24-1.43-3.33-.52-1.06-4.88-4.25-6.06-4.5-.21-.04-.45-.06-.65-.04-3.45,.21-6.87,.57-9.57,3.04-1.71,1.56-3.37,3.19-4.97,4.85-.43,.45-.71,1.13-.89,1.74-.42,1.38-.6,2.83-1.14,4.15-.72,1.78-.81,3.41,.24,5.07,.22,.35,.49,.91,.36,1.2-.64,1.41,.36,2.26,.86,3.34,1.95,4.19,5.73,5.25,9.79,5.73,.95,.11,1.95-.24,2.73-1,.63-.6,1.41-1.03,2.08-1.6,1.09-.92,2.35-1.76,3.19-2.88,.52-.71,1.09-1.35,1.69-1.95s1.11-1.41,1.4-2.25c.48-1.37,.82-2.49,.92-2.67,.06-.11,.29-.45,.6-.88,.03-.15,.07-.32,.11-.47,.43-1.6,.65-3.26,.85-4.92,.11-.86,.14-1.8-.1-2.62Zm-7.05,5.13c-.24,.36-.39,.79-.52,1.21-.88,3.08-3.09,5.03-5.67,6.6-2.19,1.35-4.15,.57-4.92-1.89-.29-.92-.47-2.01-.29-2.94,.33-1.71,.67-3.4,1.59-5.02,1.2-2.12,2.77-3.3,5.14-3.58,.53-.07,1.06-.24,1.56-.43,.86-.36,1.7-.38,2.76,.03,1.11,1.87,1.78,3.84,.35,6.02Z"/><path d="M272.79,54.83c-3.22-.04-4.52,2.19-6.09,4-.5,.57-.76,1.35-1.22,1.97-1.11,1.47-1.3,3.24-1.53,4.96-.19,1.49,.73,2.76,1.36,4.06,.36,.75,1.11,.98,2,.8,1.63-.33,2.9-1.21,4.88-3.41,1.36-.19,2.78-.42,4.21-.59,.92-.11,1.79,.08,2.38,.88,.67,.9,.7,1.9,.13,2.82-1.04,1.73-2.29,3.25-4.21,4.13-1.21,.55-2.41,1.16-3.53,1.88-2.43,1.54-4.93,1.88-7.59,.71-.4-.18-.83-.32-1.26-.43-2.7-.68-3.94-2.99-4.83-5.14-1.2-2.88-1.37-6.09-.16-9.1,.82-2.04,2.09-3.88,3.57-5.53,.37-.41,.96-.68,1.19-1.15,1.56-3.07,4.58-4.45,7.22-6.22,2.62-1.76,5.64-1.35,7.93,.82,1.47,1.38,2.84,2.87,2.7,5.12-.02,.33,.01,.67-.04,1-.27,1.73-1.71,2.43-3.18,1.53-.47-.29-.85-.71-1.29-1.05-.95-.74-1.92-1.47-2.65-2.04Z"/><path d="M179.28,54.79c-1.69,.27-3.31,.4-4.57,1.69-.37,.38-.94,.57-1.41,.86-1.95,1.18-3.26,2.87-3.89,5.06-.39,1.37-.71,2.77-1.07,4.15-.06,.21-.21,.41-.23,.62-.16,1.83,1.15,3.02,2.9,2.55,.95-.26,2-.54,2.73-1.15,1.96-1.63,4.38-1.38,6.6-1.79,1.77-.33,3.26,2.09,2.65,4.05-.49,1.57-1.54,2.74-3.03,3.35-1.74,.71-3.63,1.07-4.96,2.56-1.73,.31-3.41,.89-5.23,.66-2.17-.27-4.1-.89-5.45-2.76-.39-.54-.85-1.03-1.32-1.5-2.67-2.64-2.5-5.7-1.35-8.91,.41-1.15,1.03-2.25,1.22-3.43,.21-1.3,.75-2.22,1.69-3.1,1.05-.97,1.95-2.12,2.82-3.26,1.1-1.44,2.33-2.66,4.11-3.24,.62-.2,1.23-.51,1.77-.89,.8-.55,1.32-1.47,2.53-1.38,1.96,.13,3.94-.43,5.86,.54,2.81,1.42,3.74,5.4,1.66,7.57-.61,.63-1.44,.68-2.05,.03-.68-.71-1.3-1.49-1.98-2.28Z"/><path d="M254.57,55.21c-.1,3.47-.88,6.62-.75,9.85,.02,.53-.14,1.15-.43,1.59-.97,1.46-.8,2.89-.24,4.44,.49,1.38,.58,2.79-.41,4.1-1.09,1.45-2.9,1.79-4.36,.65-.43-.33-.84-.75-1.11-1.22-1.53-2.66-2.46-5.43-1.42-8.54,.6-1.8,1.06-3.63,.72-5.56-.14-.81,.11-1.54,.6-2.18,.76-1,1.28-2.11,1.24-3.37-.05-1.74,1.02-2.89,2.02-4.06,.32-.38,.92-.59,1.43-.73,.88-.25,1.42,.09,1.95,.82,1.01,1.39,.91,2.92,.75,4.22Z"/></g></g></svg>